<svg width="111" height="58" viewBox="0 0 111 58" fill="none" xmlns="http://www.w3.org/2000/svg">
<g clip-path="url(#clip0_10875_1595)">
<path d="M29.3615 47.6748L26.5689 47.6905L23.343 41.197L23.3274 47.6853H21.1611V37.6997H23.9381L27.1848 44.4855L27.1953 37.6997L29.3615 37.7049V47.6748Z" fill="#0047AF"/>
<path d="M71.021 33.2267L68.244 33.2319L65.0025 26.7541L64.9868 33.2267L62.8467 33.2215V23.2725H65.6132L68.8391 30.0165L68.8547 23.2725H71.021V33.2267Z" fill="#0047AF"/>
<path d="M44.2172 33.2266L41.4298 33.2318L38.1988 26.7748L38.1831 33.2266H36.043V23.2723H38.8095L42.0249 29.9746L42.051 23.2671L44.2172 23.2775V33.2266Z" fill="#0047AF"/>
<path d="M74.0075 47.6696L71.3349 47.6853L69.1322 44.5795H67.8481L67.8429 47.6801H65.5879V37.6997H70.0039C70.5206 37.6997 71.0583 37.825 71.5385 37.9607C72.3893 38.2739 72.8852 38.9577 73.0262 39.8555L73.0053 42.4341C73.0001 43.2745 72.4102 43.9426 71.622 44.2506L74.0179 47.6644L74.0075 47.6696ZM70.7921 41.8129L70.7816 40.461C70.7138 40.0434 70.4058 39.725 69.9465 39.7198L67.8324 39.6989V42.6325L69.983 42.6011C70.4319 42.5959 70.7138 42.241 70.7869 41.8077L70.7921 41.8129Z" fill="#0047AF"/>
<path d="M93.6601 33.2005L90.998 33.237L88.8161 30.1468L87.5059 30.1312V33.2266L85.251 33.2318V23.2723L89.5365 23.2671C90.1159 23.2671 90.6848 23.3558 91.2173 23.5176C92.0681 23.8361 92.5588 24.5146 92.6945 25.4177L92.6736 27.9702C92.6684 28.8106 92.089 29.4891 91.2903 29.8128L93.6601 33.2005ZM90.4604 27.3542V26.1067C90.4499 25.6526 90.1107 25.2924 89.6304 25.2872L87.5059 25.2767V28.179L89.6774 28.1529C90.1159 28.1529 90.4238 27.7823 90.4604 27.349V27.3542Z" fill="#0047AF"/>
<path d="M38.5065 45.2267C38.4647 46.1506 37.9845 46.8397 37.2224 47.2572C36.6587 47.5078 36.0375 47.6801 35.4007 47.6801L31.2822 47.6905V37.6997L35.4007 37.7101C35.9905 37.7101 36.5699 37.872 37.1076 38.0703C37.9375 38.467 38.4595 39.1926 38.5065 40.1217V45.2267ZM36.2463 44.5951V40.7429C36.2463 40.1791 35.8392 39.7407 35.2598 39.7302L33.5372 39.6989V45.6756L35.2598 45.6443C35.8392 45.6339 36.2672 45.2006 36.2463 44.5899V44.5951Z" fill="#0047AF"/>
<path d="M100.42 33.0699C99.1045 33.524 97.7213 33.5083 96.4685 33.0229C95.4298 32.621 94.6572 31.6762 94.6572 30.5487V25.9343C94.6572 24.7912 95.4767 23.8255 96.5364 23.4445C97.7996 22.9903 99.1776 22.9851 100.436 23.434C101.553 23.8307 102.356 24.8329 102.356 26.0283V30.4599C102.356 31.6501 101.568 32.6732 100.42 33.0751V33.0699ZM99.3916 31.2273C99.8562 31.0602 100.107 30.6322 100.107 30.1833V26.2945C100.107 25.783 99.7727 25.3602 99.2768 25.2244C98.7809 25.0887 98.2433 25.0939 97.7526 25.214C97.2358 25.3445 96.8965 25.783 96.8965 26.3049V30.2511C96.8965 31.269 98.2902 31.624 99.3864 31.2273H99.3916Z" fill="#0047AF"/>
<path d="M45.3915 37.7101L47.6517 37.6997L47.6412 44.9971C47.6412 46.2394 46.7539 47.2416 45.6107 47.5861C44.4676 47.9306 43.3036 47.9254 42.1708 47.5809C41.0381 47.2364 40.1508 46.2446 40.1455 44.9918L40.1299 37.7049H42.3901L42.3953 44.7204C42.3953 45.2372 42.7711 45.66 43.2618 45.7539C43.6846 45.8322 44.1753 45.8322 44.5824 45.7435C45.0835 45.6339 45.3602 45.2163 45.3967 44.7256V37.7101H45.3915Z" fill="#0047AF"/>
<path d="M84.8952 45.7441H81.5806L81.0377 47.6859H78.6836L81.7215 37.7056H84.7282L87.7766 47.6702L85.4328 47.6963L84.89 45.7441H84.8952ZM84.3471 43.8284L83.2353 39.7935L82.0922 43.8441L84.3471 43.8284Z" fill="#0047AF"/>
<path d="M102.299 43.5251L98.5981 43.5303L98.5929 45.6756H102.612V47.6853H96.3379V37.6997H102.612L102.617 39.7093H98.5929V41.5206H102.294L102.299 43.5251Z" fill="#0047AF"/>
<path d="M60.8374 29.0717L57.1418 29.0769L57.1313 31.2223H61.1506V33.2319H54.8555V23.2725H61.1454L61.1558 25.2821H57.1418L57.1313 27.0673H60.8322L60.8374 29.0717Z" fill="#0047AF"/>
<path d="M83.2407 29.0716L79.5398 29.0768L79.5294 31.2221H83.5539V33.2318H77.2744V23.2723L83.5487 23.2671L83.5591 25.282H79.5398L79.5346 27.0671H83.2355L83.2407 29.0716Z" fill="#0047AF"/>
<path d="M50.8778 28.2154H53.0232V32.9029C51.3163 33.3465 49.2962 33.6597 47.6467 33.0542C46.6288 32.6158 45.9189 31.6866 45.9189 30.5383V25.9448C45.9189 24.8069 46.6236 23.8516 47.6572 23.4445C49.1552 22.8547 51.0918 23.1783 52.7569 23.4184L52.4907 25.4019C51.405 25.2767 50.3663 25.1618 49.291 25.1827C48.6594 25.1931 48.1739 25.6786 48.1739 26.305V30.0946C48.1687 30.7418 48.6019 31.3473 49.2596 31.3265L50.8778 31.2743V28.2207V28.2154Z" fill="#0047AF"/>
<path d="M14.9966 20.6987L13.8952 20.7144V16.4028L11.4419 13.8607L10.3457 14.8734C10.9043 15.6198 10.8573 16.6742 10.163 17.3267C9.50534 17.9426 8.46137 18.0209 7.73059 17.3998C7.05201 16.8204 6.87454 15.7973 7.38608 15.0143C7.89763 14.2313 8.95204 13.9286 9.83419 14.4506L10.9826 13.3596C10.7059 13.203 10.5806 12.8794 10.7111 12.7176C10.779 12.6341 11.0556 12.5453 11.1235 12.608L11.4576 12.9264L13.89 10.6505V8.60434L14.9862 8.59912L15.0018 10.6557L17.4395 12.9368C17.5648 12.6915 17.8936 12.4827 18.0972 12.6445C18.3321 12.8272 18.2381 13.156 17.9145 13.3492L19.0368 14.4558C19.8511 13.9808 20.8689 14.1739 21.4275 14.8995C21.986 15.625 21.9077 16.7003 21.2552 17.3267C20.6027 17.9531 19.5222 18.0053 18.8175 17.4102C18.1129 16.8152 17.9458 15.719 18.5513 14.8838L17.4604 13.8659L15.0018 16.4132V20.7092L14.9966 20.6987ZM13.8848 15.4267L13.8952 11.5536L11.9273 13.3962L13.8848 15.4215V15.4267ZM16.9697 13.3857L15.0071 11.564V15.4215L16.9697 13.3857ZM8.27868 15.1291C8.05422 15.2335 7.99681 15.5572 8.10642 15.7294C8.21604 15.9017 8.51879 15.98 8.69626 15.8704C8.87374 15.7607 8.93638 15.4632 8.83198 15.2753C8.7589 15.1396 8.45093 15.0508 8.27868 15.1291ZM19.4805 15.1135C19.2143 15.2127 19.1412 15.505 19.2351 15.719C19.3186 15.8912 19.6214 15.98 19.7989 15.886C19.9398 15.8182 20.0755 15.5363 20.0181 15.3901C19.945 15.1918 19.6736 15.0404 19.4752 15.1135H19.4805Z" fill="#0047AF"/>
<path d="M104.021 47.2057L104.386 45.431C105.67 45.8434 108.458 46.3132 108.588 45.3527C108.64 44.9456 108.672 44.5227 108.526 44.1417C108.426 43.8859 107.941 43.7502 107.68 43.6771L105.467 43.0769C104.089 42.7062 104.037 40.6653 104.297 39.2507C104.459 38.3946 105.096 37.8727 105.952 37.7108C107.513 37.4133 109.084 37.5804 110.671 37.8727L110.441 39.7831C109.241 39.6004 107.064 39.2559 106.626 39.7414C106.495 39.8875 106.453 40.2529 106.438 40.4565C106.391 41.0724 106.636 41.3647 107.195 41.5266L109.7 42.2469C110.347 42.4348 110.76 43.0038 110.833 43.6667C111.021 45.4467 110.963 47.1274 109.209 47.6181C107.497 47.9835 105.769 47.8895 104.016 47.2057H104.021Z" fill="#0047AF"/>
<path d="M103.766 32.7619L104.136 30.9924C105.332 31.3891 107.983 31.7702 108.249 31.1125C108.437 30.6375 108.474 30.0789 108.234 29.63C108.119 29.4108 107.644 29.2907 107.404 29.2281L105.264 28.6539C103.865 28.2781 103.828 26.4303 104.021 24.9635C104.335 22.5206 108.135 23.0426 110.426 23.4289L110.202 25.3393C108.985 25.1514 106.793 24.8121 106.381 25.2976C106.135 25.5847 106.146 26.4825 106.36 26.7696C106.464 26.9105 106.783 27.0253 106.997 27.088L109.513 27.824C110.155 28.0119 110.609 28.6069 110.604 29.2855L110.593 31.3369C110.578 33.8007 106.083 33.7433 103.776 32.7619H103.766Z" fill="#0047AF"/>
<path d="M49.2021 47.2054L49.5675 45.4411C50.7577 45.8378 53.425 46.2084 53.6808 45.5611C53.8635 45.0965 53.9209 44.5276 53.6651 44.0891C53.5137 43.8281 52.997 43.7237 52.7099 43.6454L50.6428 43.0765C49.3065 42.7111 49.27 40.8424 49.4527 39.4174C49.5728 38.4726 50.267 37.8671 51.2013 37.7C52.7412 37.4286 54.2758 37.58 55.8575 37.8827L55.633 39.7932C54.4168 39.5948 52.2297 39.2608 51.8121 39.7566C51.6868 39.9028 51.6503 40.263 51.6346 40.4613C51.5928 41.0668 51.8121 41.3644 52.3706 41.5262L54.8813 42.2465C56.2072 42.6276 56.1706 44.371 56.0193 45.7908C55.9149 46.7356 55.2885 47.3828 54.3855 47.6282C52.6681 47.9936 50.9404 47.8892 49.2074 47.2106L49.2021 47.2054Z" fill="#0047AF"/>
<path d="M61.7612 47.6801L59.5062 47.6853V39.7093H56.8389L56.8441 37.6997H64.4442L64.4494 39.7093H61.7612V47.6801Z" fill="#0047AF"/>
<path d="M95.0797 45.6704L95.0954 47.6801L88.8838 47.6853L88.889 37.6997L91.144 37.7049V45.6756L95.0797 45.6704Z" fill="#0047AF"/>
<path d="M77.5252 47.6801L75.2494 47.6853L75.2441 37.7101L77.5252 37.6997V47.6801Z" fill="#0047AF"/>
<path d="M19.1729 47.6801L16.918 47.6853V37.6997H19.1729V47.6801Z" fill="#0047AF"/>
<path d="M75.27 33.2267L73.0098 33.2319V23.2725H75.27V33.2267Z" fill="#0047AF"/>
<path d="M34.0597 33.2213L31.7787 33.237L31.7734 23.2775L34.0545 23.2671L34.0597 33.2213Z" fill="#0047AF"/>
<path d="M16.1769 23.2047H9.77657L9.57819 23.5441L8.85254 23.5232V20.5788L9.60951 20.5527L9.71914 20.9234H16.1665L16.1769 23.2047Z" fill="#0047AF"/>
<path d="M19.0215 8.76104C16.0619 7.50306 12.8204 7.50828 9.85027 8.76626C9.4379 8.40609 10.033 8.21818 9.92857 7.85801C9.88159 7.69097 9.60494 7.56048 9.42746 7.56048C9.29696 7.56048 9.14559 7.13245 9.26043 7.08547C12.5802 5.69699 16.3438 5.69177 19.674 7.09591L19.5487 7.54482C19.3138 7.58657 19.1781 7.61267 19.0842 7.68575C18.7292 7.95718 19.2564 8.44785 19.1886 8.54181L19.0163 8.76626L19.0215 8.76104ZM14.2245 6.48519C13.9687 6.62612 13.9792 6.99151 14.141 7.15855C14.2506 7.26816 14.5377 7.32558 14.6786 7.22641C14.8613 7.10113 14.9344 6.8036 14.8404 6.65744C14.7152 6.45909 14.449 6.35991 14.2245 6.48519ZM11.8912 6.71486C11.6407 6.8036 11.5363 7.10113 11.6355 7.32036C11.7085 7.48218 12.0217 7.60745 12.194 7.52916C12.4028 7.4352 12.5072 7.15333 12.4341 6.97585C12.3506 6.7775 12.1 6.63656 11.8912 6.71486ZM16.683 6.73052C16.4325 6.83492 16.3803 7.18465 16.5265 7.38822C16.6204 7.51872 16.9179 7.59701 17.0537 7.5135C17.2468 7.39344 17.3355 7.11157 17.2624 6.93409C17.1842 6.74618 16.8918 6.64178 16.6778 6.73052H16.683Z" fill="#0047AF"/>
<path d="M15.3617 27.1349L15.3408 25.0313C15.915 24.5823 16.4109 23.9507 16.4161 23.1991L16.4422 18.9136H17.1103V18.2402H17.6637L17.6741 18.9032L18.3527 18.9136V23.3139C18.1282 25.0313 17.1521 26.5554 15.3565 27.1401L15.3617 27.1349Z" fill="#0047AF"/>
<path d="M31.257 57.9118L31.1317 53.2812L29.67 57.1339H28.6311L27.1746 53.2916L27.044 57.9065H26.3027L26.5063 52.0596L27.4826 52.0857L29.1531 56.5231L30.8133 52.0909L31.7947 52.1066L31.9983 57.9065L31.257 57.9118Z" fill="#0047AF"/>
<path d="M105.056 57.8964L104.006 57.9069L101.495 53.0153L101.48 57.9069H100.738V52.0756L101.788 52.0547L104.299 56.9463L104.314 52.1852C104.445 52.0286 104.769 52.0234 105.05 52.1173V57.8912L105.056 57.8964Z" fill="#0047AF"/>
<path d="M86.9889 57.8961L85.9344 57.9065L83.4337 53.0306L83.4129 57.9065H82.6768V52.0805L83.7209 52.0596L86.2371 56.9929L86.2476 52.1013L86.9837 52.1066L86.9889 57.8961Z" fill="#0047AF"/>
<path d="M43.2262 57.9018L42.1821 57.9174L39.6606 53.0102L39.6502 57.8757L38.9141 57.907V52.0809L39.9686 52.0757L42.464 56.9621L42.4849 52.0809L43.221 52.0913L43.2262 57.9018Z" fill="#0047AF"/>
<path d="M39.5879 18.7525C38.8727 19.0188 38.1313 18.9979 37.4527 18.763C36.8262 18.5489 36.3877 17.9695 36.3877 17.296V14.5135C36.3877 13.8035 36.8836 13.2397 37.5414 13.0413C38.1418 12.8586 38.7943 12.8638 39.3947 13.0152C40.1151 13.1979 40.5589 13.7669 40.632 14.4978L40.6215 17.3169C40.6215 17.9486 40.2039 18.5228 39.5879 18.7525ZM39.2224 18.1261C39.6401 17.9747 39.8593 17.5675 39.8593 17.1759V14.6388C39.8593 14.1533 39.5096 13.7304 39.0293 13.6469C38.0374 13.4746 37.176 13.7722 37.1708 14.5605V17.2542C37.1708 17.6406 37.4422 18.0112 37.8129 18.1313C38.2514 18.2722 38.7526 18.2879 39.2224 18.1208V18.1261Z" fill="#0047AF"/>
<path d="M60.7747 18.805C60.1169 18.9929 59.4487 18.9825 58.8431 18.7893C58.1592 18.5753 57.7207 17.9801 57.7207 17.2649V14.5502C57.7207 13.835 58.1853 13.2503 58.8588 13.0467C59.4591 12.864 60.1013 12.864 60.7173 13.0206C61.4273 13.2034 61.9545 13.8142 61.9545 14.5659V17.2597C61.9545 17.9749 61.4951 18.6014 60.7747 18.8102V18.805ZM61.1767 17.2701V14.639C61.1767 14.19 60.8948 13.7724 60.4354 13.668C59.4226 13.4435 58.4986 13.7776 58.4986 14.5659V17.244C58.4986 17.6617 58.817 18.048 59.2085 18.1576C60.1796 18.4239 61.1819 18.095 61.1819 17.2649L61.1767 17.2701Z" fill="#0047AF"/>
<path d="M49.3641 16.2H46.8843L46.8791 18.142L49.5677 18.1473V18.8468H46.0908V12.9946H49.5364V13.6994H46.8843V15.5005H49.3536L49.3641 16.2Z" fill="#0047AF"/>
<path d="M23.9281 57.8443C23.2599 58.0531 22.5812 58.0426 21.9548 57.8495C21.3283 57.6563 20.8271 57.0769 20.8271 56.3825V53.5791C20.8271 52.9109 21.2813 52.3419 21.8974 52.1383C22.5656 51.9138 23.2912 51.9138 23.9595 52.133C24.5859 52.3419 25.0453 52.9109 25.0453 53.5843V56.3773C25.0453 57.0455 24.5964 57.6354 23.9333 57.8443H23.9281ZM23.7297 57.1917C24.0691 56.962 24.2831 56.6592 24.2831 56.2781V53.6731C24.2831 53.1615 23.9177 52.7699 23.4061 52.6864C23.0981 52.6394 22.7587 52.6342 22.4559 52.6864C21.9496 52.7752 21.5946 53.1771 21.5946 53.6783V56.2572C21.5946 56.6592 21.8243 56.9672 22.1636 57.1813C22.6804 57.3379 23.1764 57.3327 23.735 57.1813L23.7297 57.1917Z" fill="#0047AF"/>
<path d="M53.6344 18.1522V16.1632L54.3809 16.1528V18.6899C53.5248 18.8988 52.6686 19.0084 51.8125 18.8726C51.0711 18.7578 50.5804 18.2096 50.5752 17.4527V14.4248C50.5752 13.7043 51.045 13.1197 51.755 12.9839C52.5851 12.8273 53.3995 12.9161 54.24 13.0727L54.1773 13.7461L52.1466 13.626C51.7394 13.5999 51.3635 13.9758 51.3635 14.3987V17.4213C51.3635 17.8547 51.7133 18.2201 52.1361 18.2096L53.6396 18.1522H53.6344Z" fill="#0047AF"/>
<path d="M71.3453 56.5127H68.876L68.4061 57.9118L67.623 57.8961L69.586 52.0857L70.6301 52.0596L72.5982 57.8961L71.8203 57.917L71.3453 56.5179V56.5127ZM71.1364 55.8236L70.108 52.6495L69.0743 55.8392L71.1364 55.8288V55.8236Z" fill="#0047AF"/>
<path d="M98.525 56.5183L96.0557 56.5079L95.5754 57.9122L94.8027 57.8965L96.7604 52.0913L97.8097 52.0757L99.7779 57.9018L99 57.9226L98.5302 56.5183H98.525ZM98.3161 55.8292L97.2825 52.6552L96.254 55.8344H98.3161V55.8292Z" fill="#0047AF"/>
<path d="M54.7251 56.5128H52.2506L51.7808 57.9119L51.0029 57.8962L52.9658 52.091L54.0099 52.0649L55.9781 57.8962L55.2002 57.9171L54.7251 56.518V56.5128ZM54.5163 55.8237L53.4879 52.6549L52.4542 55.8394L54.5163 55.8289V55.8237Z" fill="#0047AF"/>
<path d="M109.748 56.5128H107.273L106.798 57.9171L106.021 57.9015L107.978 52.0963L109.022 52.0649L110.996 57.9015L110.213 57.9223L109.743 56.518L109.748 56.5128ZM109.539 55.8237L108.511 52.6653L107.477 55.8394L109.539 55.8237Z" fill="#0047AF"/>
<path d="M36.7224 52.1382C36.9887 52.0599 37.1975 52.0599 37.4898 52.1121L37.4794 56.4712C37.4794 57.1342 36.9678 57.6928 36.3674 57.8598C35.7201 58.0426 35.0571 58.0426 34.415 57.8494C33.8251 57.6719 33.3448 57.1185 33.3448 56.466L33.3291 52.0912H34.1017V56.2989C34.1017 56.5808 34.2688 56.9776 34.5142 57.1029C34.9683 57.343 35.4643 57.3535 35.9498 57.249C36.3831 57.1603 36.7172 56.7792 36.7172 56.325V52.1382H36.7224Z" fill="#0047AF"/>
<path d="M81.1948 55.2496H78.7151L78.7203 57.223L81.3723 57.2125L81.4036 57.9173H77.9268V52.0703H81.2574C81.4297 52.0808 81.4297 52.6863 81.2627 52.7438H78.7203L78.7098 54.5553H81.1791L81.1896 55.2548L81.1948 55.2496Z" fill="#0047AF"/>
<path d="M66.9448 52.1432C67.164 52.0493 67.4564 52.0493 67.707 52.1067L65.791 57.9015L64.7626 57.9119L62.8467 52.1015L63.5776 52.0649L65.2794 57.1967L66.95 52.1432H66.9448Z" fill="#0047AF"/>
<path d="M32.7707 17.3588C32.7707 18.4655 34.1907 18.2671 35.4123 18.1157L35.4593 18.7996C34.6658 18.9249 33.9506 19.0032 33.2092 18.8623C32.4679 18.7213 31.9929 18.1784 31.9981 17.4475L32.0138 14.2943C32.019 12.8274 33.9558 12.7282 35.4906 13.0571L35.4071 13.7253C34.1959 13.5791 32.7707 13.3964 32.7707 14.4614V17.3588Z" fill="#0047AF"/>
<path d="M17.9619 57.2646L19.8256 57.1916L19.8987 57.8546C18.3639 58.173 16.4375 58.0738 16.4375 56.5599V53.4015C16.4375 52.6967 16.9857 52.159 17.6539 52.0441C18.4161 51.9136 19.1156 51.9919 19.8987 52.112L19.8152 52.775C18.5309 52.6497 17.1893 52.4357 17.1893 53.579V56.3876C17.1893 56.8261 17.4555 57.2907 17.9619 57.2699V57.2646Z" fill="#0047AF"/>
<path d="M89.8652 57.2646L91.7289 57.1916L91.802 57.8546C90.2672 58.173 88.3408 58.0738 88.3408 56.5599V53.4015C88.3408 52.6967 88.889 52.159 89.5572 52.0441C90.3194 51.9136 91.0189 51.9919 91.802 52.112L91.7185 52.775C90.4342 52.6497 89.0926 52.4357 89.0926 53.579V56.3876C89.0926 56.8261 89.3588 57.2907 89.8652 57.2699V57.2646Z" fill="#0047AF"/>
<path d="M13.5718 25.0262V27.1457C11.9117 26.6394 10.8154 25.2037 10.5596 23.481H12.5016C12.6895 24.1126 12.9662 24.6242 13.5666 25.0262H13.5718Z" fill="#0047AF"/>
<path d="M45.1314 18.1417L45.147 18.8465H41.8477V13.0047L42.6151 12.9995L42.6203 18.1469L45.1314 18.1417Z" fill="#0047AF"/>
<path d="M20.6503 7.31577L19.4235 6.56401C19.8151 6.37608 20.1857 6.09417 20.2901 5.76006C20.4363 5.28499 20.3528 4.83603 20.003 4.49147C19.5332 4.03729 18.6352 4.575 18.5047 3.84413C18.4577 3.56745 18.63 3.2751 18.9485 3.21245C19.7002 3.06628 20.4781 3.19679 21.0419 3.7345C22.0442 4.68985 21.6997 6.13071 20.6451 7.30533L20.6503 7.31577Z" fill="#0047AF"/>
<path d="M8.858 4.53291C8.52389 4.89835 8.47168 5.32121 8.59697 5.73885C8.70138 6.07818 9.00939 6.32876 9.4688 6.55847L8.25764 7.32066C7.31795 6.25568 6.83766 4.99754 7.68339 3.93255C8.52911 2.86757 10.4555 2.98242 10.398 3.74983C10.3302 4.62166 9.33828 4.00564 8.858 4.52769V4.53291Z" fill="#0047AF"/>
<path d="M12.188 3.80794C11.88 4.08984 11.8278 4.5127 11.9113 4.86248C11.9949 5.21225 12.2559 5.45762 12.6161 5.69776L11.17 6.22503C10.6428 5.71864 10.5227 5.0713 10.6375 4.39785C10.8411 3.22324 11.7391 2.44016 12.945 2.41406C13.3157 2.40362 13.6446 2.56024 13.6602 2.94655C13.6968 3.78183 12.6579 3.37985 12.188 3.80794Z" fill="#0047AF"/>
<path d="M16.2656 5.68729C16.9286 5.34796 17.247 4.61709 16.8398 3.95931C16.4326 3.30152 15.2006 3.83924 15.2371 2.95697C15.2528 2.56021 15.5451 2.4036 15.9158 2.40882C17.1844 2.42448 18.1293 3.27542 18.2807 4.52834C18.359 5.17046 18.2128 5.78126 17.7116 6.22501L16.2708 5.68729H16.2656Z" fill="#0047AF"/>
<path d="M58.8961 57.8806L58.1287 57.9015L58.1339 52.7332L56.3955 52.7436L56.4007 52.0649H60.6241L60.6293 52.7436L58.8909 52.7279L58.8961 57.8806Z" fill="#0047AF"/>
<path d="M48.9577 57.8806L48.1955 57.9015V52.7332L46.457 52.7436L46.4675 52.0649H50.6856L50.6961 52.7436L48.9577 52.7279V57.8806Z" fill="#0047AF"/>
<path d="M14.9964 28.6181L13.8949 28.6233L13.8896 23.4864L14.9964 23.4707V28.6181Z" fill="#0047AF"/>
<path d="M76.7218 57.2177C76.8837 57.2803 76.9202 57.7241 76.8367 57.912H73.5791V52.1955C73.7409 52.0337 74.0489 52.0233 74.3413 52.1225V57.2177H76.7218Z" fill="#0047AF"/>
<path d="M56.4582 18.8311L55.6908 18.8468L55.6855 13.0103H56.4582V18.8311Z" fill="#0047AF"/>
<path d="M93.785 57.9014L93.0176 57.8858V52.0962L93.785 52.0806V57.9014Z" fill="#0047AF"/>
<path d="M45.5067 57.8859L44.7393 57.912V52.0859L45.5015 52.0964L45.5067 57.8859Z" fill="#0047AF"/>
<path d="M12.4492 20.7151L10.528 20.7203L10.5176 18.914H11.1858L11.2171 18.2458L11.7653 18.2354L11.7705 18.9088H12.4335L12.4492 20.7151Z" fill="#0047AF"/>
<path d="M19.3603 23.5338C19.2872 23.5338 19.2507 23.231 19.1776 23.2257L18.6816 23.1996L18.6921 20.9183H19.1724C19.2455 20.9183 19.2663 20.6938 19.2924 20.5737H20.0599V23.5233L19.3603 23.5338Z" fill="#0047AF"/>
<path d="M18.9384 34.4169L18.2701 34.8032C17.6959 33.5921 16.7614 32.7568 15.6338 32.1512C15.9261 31.7858 16.2602 31.8745 16.61 32.0259C17.6646 32.4958 18.385 33.3781 18.9384 34.4169Z" fill="#0047AF"/>
<path d="M10.6331 34.8139L9.94922 34.4067C10.6279 33.2269 11.4318 32.2298 12.7735 31.8695C12.9092 31.833 13.1703 32.0366 13.2434 32.1776C12.0792 32.7779 11.1865 33.6289 10.6383 34.8139H10.6331Z" fill="#0047AF"/>
<path d="M17.4298 30.8466C16.7511 30.784 16.1246 30.8414 15.5765 31.3269L14.7412 30.6848C15.4512 29.9591 16.3909 29.7816 17.3045 30.0531L17.4246 30.8414L17.4298 30.8466Z" fill="#0047AF"/>
<path d="M13.3318 31.3318C12.7628 30.8463 12.1781 30.768 11.4629 30.862L11.5725 30.0633C12.4548 29.7918 13.4362 29.9275 14.1306 30.6845L13.3318 31.3318Z" fill="#0047AF"/>
<path d="M14.7726 5.6819L14.1357 5.69756V2.28857H14.7674L14.7726 5.6819Z" fill="#0047AF"/>
<path d="M27.1328 17.63C26.2819 17.1184 26.1357 16.0169 26.7935 15.2808C27.634 15.7558 27.8011 16.9043 27.1328 17.63Z" fill="#0047AF"/>
<path d="M3.45593 25.6741C3.01219 25.6845 2.58933 25.3817 2.37006 25.0633C2.08294 24.6456 2.03595 24.1601 2.19779 23.6851C3.12182 23.8312 3.73784 24.6509 3.45071 25.6741H3.45593Z" fill="#0047AF"/>
<path d="M1.95729 21.8425C1.05936 21.4039 0.845318 20.3181 1.45612 19.5298C2.28096 19.9422 2.58897 21.0176 1.95729 21.8425Z" fill="#0047AF"/>
<path d="M24.7316 27.4379C24.6794 28.4455 23.8389 29.0876 22.8574 28.884C22.8574 28.4559 23.061 28.0069 23.3743 27.7459C23.7501 27.4379 24.2356 27.3387 24.7264 27.4379H24.7316Z" fill="#0047AF"/>
<path d="M4.07207 11.7311C4.30177 12.6394 3.81104 13.4904 2.93922 13.6679C2.56334 12.7699 2.98098 11.8146 3.91545 11.5483L4.07207 11.7311Z" fill="#0047AF"/>
<path d="M23.5835 10.3585C22.5864 10.4264 21.8398 9.56497 21.9912 8.61484C22.9466 8.55219 23.714 9.33527 23.5835 10.3585Z" fill="#0047AF"/>
<path d="M9.45847 31.1021C8.63885 31.5824 7.56342 31.1282 7.30762 30.1415C8.1168 29.7343 9.13479 30.0789 9.45847 31.1021Z" fill="#0047AF"/>
<path d="M16.6355 33.1846L17.1001 33.952C16.1343 34.3383 15.1633 33.9624 14.6621 33.0018L15.4765 32.5581C15.5966 32.8035 15.7062 33.0332 15.8367 33.1324C16.0247 33.2733 16.3431 33.2577 16.6407 33.1846H16.6355Z" fill="#0047AF"/>
<path d="M6.05486 28.8421C5.13605 29.1449 4.19636 28.4402 4.16504 27.4483C5.0473 27.2186 5.94523 27.7824 6.05486 28.8421Z" fill="#0047AF"/>
<path d="M14.4849 32.6159C14.0777 32.4645 13.6653 32.0677 13.4878 31.7284C13.4408 31.6344 13.5504 31.2847 13.6496 31.3055L14.0777 31.3943L14.4379 31.1072C14.5214 31.0393 14.7355 31.3369 14.7825 31.3995L15.2366 31.316C15.3515 31.2951 15.4611 31.718 15.388 31.8172C15.1636 32.1095 14.8503 32.4019 14.4849 32.6263V32.6159Z" fill="#0047AF"/>
<path d="M25.4938 25.7104C25.2745 25.2823 25.3372 24.7864 25.6243 24.3374C25.8175 24.0346 26.2351 23.7423 26.6997 23.6953C26.9816 24.6037 26.5222 25.5068 25.4938 25.7156V25.7104Z" fill="#0047AF"/>
<path d="M11.8076 33.9624L12.2461 33.2002C12.4758 33.242 12.7839 33.2681 12.9927 33.1898C13.1597 33.1271 13.2955 32.8452 13.4051 32.5581L14.2404 33.0018C13.8018 33.9102 12.8256 34.3592 11.8076 33.9624Z" fill="#0047AF"/>
<path d="M21.5847 30.131C21.3394 31.1177 20.3266 31.5301 19.4443 31.1542C19.6532 30.225 20.6398 29.6925 21.5847 30.131Z" fill="#0047AF"/>
<path d="M26.9657 21.8477C26.3079 21.0803 26.569 19.9892 27.4356 19.5298C28.0098 20.2398 27.8845 21.3361 26.9657 21.8477Z" fill="#0047AF"/>
<path d="M1.76966 17.63C1.08056 16.9096 1.25805 15.7819 2.08289 15.2808C2.7459 15.9803 2.62582 17.0975 1.76966 17.63Z" fill="#0047AF"/>
<path d="M6.8959 8.61495C7.03685 9.63817 6.31642 10.3795 5.33496 10.369C5.25144 9.91485 5.35585 9.46067 5.69518 9.09001C5.9562 8.80289 6.40517 8.58885 6.8959 8.61495Z" fill="#0047AF"/>
<path d="M25.9586 13.6627C24.9771 13.4486 24.4969 12.4098 24.9197 11.5327C25.8751 11.7885 26.3345 12.7178 25.9586 13.6627Z" fill="#0047AF"/>
<path d="M27.0442 18.3452C26.0576 18.4444 25.2484 17.6248 25.2432 16.6016C26.0576 16.8469 26.7153 17.4421 27.0442 18.3452Z" fill="#0047AF"/>
<path d="M28.6676 16.1367C28.9443 17.1443 28.3857 18.037 27.4355 18.3293C27.4355 17.4366 27.9054 16.6066 28.6676 16.1367Z" fill="#0047AF"/>
<path d="M1.91592 22.5942C0.92925 22.709 0.0469845 21.9834 0 20.9497C0.871824 21.1846 1.54527 21.7328 1.91592 22.5942Z" fill="#0047AF"/>
<path d="M2.29695 22.5208C2.23431 21.6124 2.67283 20.8033 3.36193 20.229C3.70649 21.153 3.30451 22.171 2.29695 22.5208Z" fill="#0047AF"/>
<path d="M27.5715 25.5219C27.2531 26.4355 26.1359 26.8636 25.2432 26.4146C25.854 25.7516 26.6266 25.4488 27.5715 25.5219Z" fill="#0047AF"/>
<path d="M2.46938 14.2373C1.63409 13.7518 1.37829 12.6451 1.9421 11.7837C2.49026 12.4258 2.69386 13.2924 2.46938 14.2373Z" fill="#0047AF"/>
<path d="M3.64415 16.6064C3.65981 17.6036 2.90284 18.3866 1.85352 18.3762C2.11454 17.5409 2.77232 16.8884 3.64415 16.6064Z" fill="#0047AF"/>
<path d="M21.3186 32.1513C20.4833 32.736 19.387 32.4645 18.8545 31.6136C19.7211 31.4204 20.5773 31.5457 21.3186 32.1513Z" fill="#0047AF"/>
<path d="M22.1688 29.1606C21.6259 28.3097 21.9495 27.229 22.8057 26.7227C22.9988 27.5684 22.8057 28.435 22.1688 29.1606Z" fill="#0047AF"/>
<path d="M6.51504 29.4581C5.82071 30.215 4.6722 30.1733 3.97266 29.4789C4.78705 29.0561 5.67454 29.0665 6.51504 29.4581Z" fill="#0047AF"/>
<path d="M3.64381 26.4253C2.78765 26.8378 1.6809 26.488 1.2998 25.517C2.12986 25.4596 2.99125 25.6788 3.64381 26.4253Z" fill="#0047AF"/>
<path d="M6.74428 29.1608C6.09172 28.4978 5.91944 27.5999 6.08128 26.728C6.927 27.1822 7.26111 28.2472 6.74428 29.1608Z" fill="#0047AF"/>
<path d="M28.8918 20.9546C28.8605 21.9465 28.02 22.6826 26.9863 22.6095C27.3204 21.7846 27.9887 21.1947 28.8918 20.9546Z" fill="#0047AF"/>
<path d="M3.97263 26.2427C3.6594 25.35 3.75337 24.4468 4.23887 23.7212C4.90188 24.499 4.76614 25.611 3.97263 26.2427Z" fill="#0047AF"/>
<path d="M19.8358 29.0508C19.8828 29.9122 19.4442 30.737 18.7081 31.2852C18.4053 30.3925 18.7864 29.3797 19.8358 29.0508Z" fill="#0047AF"/>
<path d="M10.1993 31.2589C9.48412 30.8152 9.05082 29.9851 9.03516 29.0454C9.96963 29.3117 10.5021 30.2409 10.1993 31.2589Z" fill="#0047AF"/>
<path d="M5.02148 13.2818C4.797 14.2528 3.71636 14.7331 2.78711 14.4042C3.33004 13.7203 4.04525 13.2766 5.02148 13.2818Z" fill="#0047AF"/>
<path d="M10.0168 31.6186C9.53649 32.4643 8.40886 32.7253 7.56836 32.1511C8.2418 31.6238 9.07186 31.3732 10.0168 31.6186Z" fill="#0047AF"/>
<path d="M23.928 11.016C23.124 11.632 21.986 11.4076 21.4482 10.5723C22.3253 10.3269 23.1606 10.4679 23.928 11.016Z" fill="#0047AF"/>
<path d="M24.2102 10.7762C23.7508 10.0558 23.662 9.15262 24.0014 8.26514C24.7479 8.85505 24.9097 9.96702 24.2102 10.7762Z" fill="#0047AF"/>
<path d="M7.44398 10.5933C6.84362 11.4494 5.77342 11.5956 4.94336 11.0318C5.71077 10.4889 6.62958 10.3009 7.44398 10.5933Z" fill="#0047AF"/>
<path d="M24.8939 29.4631C24.2361 30.2044 23.0719 30.1835 22.3828 29.4683C23.1763 29.0663 24.0429 29.0402 24.8939 29.4631Z" fill="#0047AF"/>
<path d="M4.68261 10.7816C4.01961 9.98283 4.11358 8.87609 4.89665 8.27051C5.23598 9.14755 5.15246 10.0611 4.68261 10.7816Z" fill="#0047AF"/>
<path d="M26.4543 14.2264C26.1672 13.4277 26.3812 12.5037 26.9451 11.7676C27.4828 12.5768 27.347 13.6156 26.4543 14.2264Z" fill="#0047AF"/>
<path d="M24.93 26.2114C24.1261 25.6528 24.006 24.4729 24.6586 23.7212C25.1337 24.4834 25.2433 25.3134 24.93 26.2114Z" fill="#0047AF"/>
<path d="M26.6054 22.5051C25.6292 22.2128 25.1802 21.1634 25.5195 20.2446C26.1721 20.7719 26.6367 21.5341 26.6054 22.5051Z" fill="#0047AF"/>
<path d="M26.0785 14.388C25.1753 14.743 24.1208 14.2419 23.8389 13.2656C24.7107 13.2813 25.499 13.6154 26.0785 14.388Z" fill="#0047AF"/>
<path d="M1.4718 18.2979C0.558208 18.1256 -0.0578115 17.1493 0.229316 16.1313C0.913202 16.5908 1.40393 17.2851 1.4718 18.2979Z" fill="#0047AF"/>
<path d="M14.7726 1.91818H14.1357V0.0910074L14.7674 0.0805664L14.7726 1.91818Z" fill="#0047AF"/>
<path d="M21.7516 21.5342C21.4123 21.4246 20.7441 21.5708 20.3839 21.6021L20.1594 21.5656C20.1281 21.5656 20.2847 21.4298 20.316 21.4298C20.6762 21.4142 21.3706 21.4455 21.7308 21.268C22.0388 21.1114 22.2476 21.0174 22.5504 21.0644L22.3677 21.315C22.3311 21.362 22.4512 21.4403 22.5974 21.5708C22.2789 21.67 22.091 21.6439 21.7516 21.5394V21.5342Z" fill="#0047AF"/>
<path d="M21.7044 20.8763L20.1748 21.0591L20.2166 20.9651L21.6574 20.6519C21.8715 20.4848 22.1482 20.2708 22.4405 20.37L22.263 20.6101C22.2265 20.6571 22.3674 20.7249 22.4979 20.7876C22.3465 21.1374 21.9393 20.845 21.7044 20.8711V20.8763Z" fill="#0047AF"/>
<path d="M22.5139 23.2308L22.2842 23.4135C22.232 23.4552 22.3364 23.5701 22.4356 23.7371C22.1433 23.7476 21.8875 23.5962 21.6578 23.4344L20.1699 23.1002V22.9697C20.645 23.0585 21.167 23.1942 21.6786 23.1942C21.9345 23.1942 22.232 23.0219 22.5087 23.2308H22.5139Z" fill="#0047AF"/>
<path d="M21.7198 22.7716L20.2163 22.5993L20.1641 22.5106L20.8845 22.5314C21.1821 22.5419 21.5684 22.6358 21.819 22.5419C22.1061 22.4375 22.341 22.4218 22.5551 22.5158C22.4454 22.6202 22.3358 22.7037 22.3567 22.7403L22.5498 23.0274C22.2575 23.0744 22.0017 22.9647 21.7198 22.7716Z" fill="#0047AF"/>
<path d="M21.7981 22.1503C21.3074 21.9832 20.7174 22.0981 20.1641 21.9989L21.7929 21.9258C21.9965 21.9154 22.3358 21.5343 22.5759 21.8684L22.3723 22.0198C22.341 22.0459 22.4767 22.1346 22.5759 22.2077C22.3567 22.5209 22.0591 22.2442 21.7981 22.1607V22.1503Z" fill="#0047AF"/>
<path d="M8.47188 21.5969C8.11167 21.6491 7.42256 21.4664 7.03624 21.5082C6.80654 21.5343 6.77522 21.5395 6.43066 21.3881L6.72823 21.1793C6.80132 21.1271 7.00492 21.2889 7.09889 21.2994L8.53975 21.4403C8.57107 21.4403 8.73291 21.5604 8.70158 21.5656L8.47188 21.5969Z" fill="#0047AF"/>
<path d="M8.6916 21.0537L7.14633 20.8501C6.93751 20.9128 6.77045 20.8867 6.51465 20.6361C6.78611 20.469 6.97405 20.5526 7.27162 20.6622C7.72581 20.8345 8.24264 20.7457 8.6916 21.0485V21.0537Z" fill="#0047AF"/>
<path d="M6.5459 23.4968C6.63465 23.1313 6.95832 23.2357 7.24023 23.1992L8.69675 22.9956V23.1L7.18802 23.4341C6.99486 23.4759 7.0053 23.6221 6.5459 23.502V23.4968Z" fill="#0047AF"/>
<path d="M8.7121 22.5469C8.03343 22.808 7.37043 22.526 6.90058 22.9124L6.39941 22.7401L6.80661 22.5208C7.51138 22.7296 8.0752 22.3747 8.7121 22.5469Z" fill="#0047AF"/>
<path d="M8.68077 21.9987L7.09374 22.124C6.8275 22.1449 6.59779 22.312 6.39941 21.9935C6.71786 21.8212 6.8797 21.8526 7.08852 21.9204L8.68077 21.9987Z" fill="#0047AF"/>
<path d="M26.099 19.3784C26.2712 19.3366 26.4748 19.4045 26.4957 19.4932C26.527 19.6133 26.4592 19.8639 26.3495 19.89C26.2608 19.9108 26.0624 19.8586 25.9893 19.8064C25.9006 19.7386 25.9841 19.4097 26.099 19.3784Z" fill="#0047AF"/>
<path d="M25.3374 23.1527C25.4053 23.09 25.6872 23.1057 25.7551 23.1683C25.8386 23.2466 25.8021 23.4972 25.7133 23.6069C25.6402 23.6956 25.4262 23.6382 25.3218 23.5651C25.2278 23.4972 25.2382 23.2466 25.3374 23.1527Z" fill="#0047AF"/>
<path d="M23.5992 26.4828C23.688 26.441 23.9594 26.4776 24.0012 26.5559C24.0534 26.6551 24.0169 26.8796 23.9333 26.9474C23.8498 27.0153 23.6201 27.0049 23.5418 26.9265C23.4635 26.8482 23.5052 26.5298 23.6044 26.4828H23.5992Z" fill="#0047AF"/>
<path d="M4.91663 26.535C4.96883 26.4567 5.28728 26.4359 5.34471 26.5089C5.41257 26.5977 5.43868 26.8065 5.37081 26.8953C5.31338 26.9683 5.12545 27.0049 5.0367 26.9997C4.92185 26.9892 4.81744 26.6864 4.91663 26.535Z" fill="#0047AF"/>
<path d="M2.58412 19.3522C2.66765 19.3156 2.89735 19.4044 2.92868 19.4931C2.96522 19.5975 2.89213 19.8481 2.78772 19.8951C2.68331 19.9421 2.43795 19.8481 2.39096 19.7489C2.34398 19.6498 2.45361 19.4148 2.58412 19.3574V19.3522Z" fill="#0047AF"/>
<path d="M7.34951 9.41376C7.4226 9.35634 7.70973 9.372 7.76715 9.44508C7.84024 9.52861 7.8037 9.76354 7.70451 9.86795C7.63142 9.95147 7.4226 9.90449 7.32341 9.83662C7.23466 9.77398 7.25032 9.48685 7.34429 9.41376H7.34951Z" fill="#0047AF"/>
<path d="M25.5092 15.5629C25.577 15.5002 25.8641 15.5159 25.9268 15.5838C26.0051 15.6621 25.9686 15.9231 25.8746 16.0119C25.7963 16.0902 25.5875 16.0484 25.4935 15.9805C25.3995 15.9127 25.4204 15.636 25.5039 15.5629H25.5092Z" fill="#0047AF"/>
<path d="M21.1768 9.4138C21.2447 9.35638 21.5318 9.36682 21.5945 9.4399C21.6676 9.52343 21.631 9.76358 21.537 9.86799C21.4587 9.95151 21.2604 9.90975 21.1559 9.83144C21.0672 9.7688 21.0829 9.49733 21.1821 9.4138H21.1768Z" fill="#0047AF"/>
<path d="M20.7281 28.9463C20.8481 28.9463 21.0256 29.0194 21.0517 29.1081C21.0883 29.2439 21.0256 29.4579 20.916 29.484C20.7751 29.5153 20.5454 29.4318 20.5088 29.3274C20.4723 29.223 20.6132 28.9463 20.7281 28.9463Z" fill="#0047AF"/>
<path d="M23.7813 12.1698C23.8335 12.0863 24.1572 12.0602 24.2251 12.128C24.3034 12.2064 24.3191 12.4256 24.2512 12.5196C24.1938 12.5927 24.0319 12.6344 23.938 12.624C23.8179 12.6188 23.6978 12.316 23.7866 12.1698H23.7813Z" fill="#0047AF"/>
<path d="M4.63517 12.1748C4.68737 12.0913 5.01105 12.0599 5.07369 12.1278C5.152 12.2061 5.16766 12.4254 5.09979 12.5193C5.04237 12.5924 4.88053 12.6342 4.78656 12.6238C4.66127 12.6133 4.5412 12.3157 4.63517 12.1748Z" fill="#0047AF"/>
<path d="M3.19426 23.1364C3.26735 23.079 3.54926 23.1156 3.59624 23.1939C3.65367 23.2878 3.61712 23.5071 3.53359 23.5958C3.46051 23.6742 3.23081 23.6376 3.14728 23.5697C3.06375 23.5019 3.08985 23.2147 3.19426 23.1364Z" fill="#0047AF"/>
<path d="M3.01179 15.5524C3.07966 15.495 3.36156 15.5315 3.42421 15.5994C3.4973 15.6829 3.46075 15.923 3.37201 16.0118C3.2937 16.0849 3.08488 16.0535 2.99091 15.9805C2.90216 15.9126 2.91782 15.6359 3.01701 15.5524H3.01179Z" fill="#0047AF"/>
<path d="M8.02805 28.9517C8.18989 28.9517 8.3726 29.0508 8.38827 29.1396C8.40915 29.2701 8.3204 29.4163 8.17945 29.505C8.04893 29.5311 7.91842 29.4685 7.86099 29.3589C7.79835 29.3067 7.91842 28.9569 8.02805 28.9517Z" fill="#0047AF"/>
</g>
<defs>
<clipPath id="clip0_10875_1595">
<rect width="111" height="57.9194" fill="white"/>
</clipPath>
</defs>
</svg>
