<svg width="111" height="58" viewBox="0 0 111 58" fill="none" xmlns="http://www.w3.org/2000/svg">
<g clip-path="url(#clip0_10435_311)">
<path d="M29.3616 47.5943L26.569 47.6099L23.3431 41.1164L23.3274 47.6047H21.1612V37.6191H23.9382L27.1849 44.4049L27.1953 37.6191L29.3616 37.6244V47.5943Z" fill="#FEFEFE"/>
<path d="M71.0213 33.1461L68.2443 33.1514L65.0028 26.6735L64.9871 33.1461L62.847 33.1409V23.1919H65.6135L68.8394 29.9359L68.855 23.1919H71.0213V33.1461Z" fill="#FEFEFE"/>
<path d="M44.2174 33.146L41.43 33.1512L38.1989 26.6943L38.1832 33.146H36.0431V23.1917H38.8096L42.025 29.894L42.0511 23.1865L44.2174 23.197V33.146Z" fill="#FEFEFE"/>
<path d="M74.007 47.589L71.3345 47.6047L69.1317 44.4989H67.8476L67.8424 47.5995H65.5874V37.6191H70.0034C70.5202 37.6191 71.0578 37.7444 71.5381 37.8801C72.3889 38.1933 72.8848 38.8771 73.0257 39.7749L73.0048 42.3535C72.9996 43.1939 72.4098 43.8621 71.6216 44.17L74.0175 47.5838L74.007 47.589ZM70.7916 41.7324L70.7812 40.3804C70.7133 39.9629 70.4053 39.6444 69.946 39.6392L67.832 39.6183V42.5519L69.9825 42.5206C70.4315 42.5154 70.7133 42.1604 70.7864 41.7272L70.7916 41.7324Z" fill="#FEFEFE"/>
<path d="M93.6597 33.1199L90.9976 33.1564L88.8157 30.0663L87.5056 30.0506V33.146L85.2506 33.1512V23.1917L89.5361 23.1865C90.1155 23.1865 90.6844 23.2753 91.2169 23.4371C92.0677 23.7555 92.5584 24.4341 92.6941 25.3371L92.6732 27.8896C92.668 28.73 92.0886 29.4086 91.2899 29.7322L93.6597 33.1199ZM90.46 27.2737V26.0261C90.4496 25.572 90.1103 25.2118 89.63 25.2066L87.5056 25.1962V28.0984L89.677 28.0723C90.1155 28.0723 90.4235 27.7017 90.46 27.2684V27.2737Z" fill="#FEFEFE"/>
<path d="M38.5068 45.1462C38.465 46.0701 37.9848 46.7591 37.2227 47.1767C36.659 47.4272 36.0378 47.5995 35.401 47.5995L31.2825 47.6099V37.6191L35.401 37.6296C35.9908 37.6296 36.5702 37.7914 37.1079 37.9897C37.9378 38.3865 38.4598 39.112 38.5068 40.0411V45.1462ZM36.2466 44.5146V40.6623C36.2466 40.0986 35.8394 39.6601 35.26 39.6497L33.5375 39.6183V45.5951L35.26 45.5637C35.8394 45.5533 36.2675 45.1201 36.2466 44.5093V44.5146Z" fill="#FEFEFE"/>
<path d="M100.419 32.9893C99.1041 33.4434 97.7208 33.4278 96.468 32.9423C95.4293 32.5404 94.6567 31.5956 94.6567 30.4681V25.8538C94.6567 24.7106 95.4763 23.745 96.5359 23.3639C97.7991 22.9098 99.1771 22.9046 100.435 23.3535C101.552 23.7502 102.356 24.7524 102.356 25.9477V30.3794C102.356 31.5695 101.568 32.5926 100.419 32.9945V32.9893ZM99.3911 31.1467C99.8557 30.9797 100.106 30.5516 100.106 30.1027V26.2139C100.106 25.7024 99.7722 25.2796 99.2763 25.1439C98.7804 25.0082 98.2428 25.0134 97.7521 25.1334C97.2354 25.2639 96.8961 25.7024 96.8961 26.2244V30.1706C96.8961 31.1884 98.2898 31.5434 99.3859 31.1467H99.3911Z" fill="#FEFEFE"/>
<path d="M45.3917 37.6296L47.6519 37.6191L47.6415 44.9165C47.6415 46.1588 46.7541 47.161 45.611 47.5055C44.4678 47.85 43.3038 47.8448 42.1711 47.5003C41.0384 47.1558 40.151 46.164 40.1458 44.9113L40.1301 37.6244H42.3903L42.3956 44.6398C42.3956 45.1566 42.7714 45.5794 43.262 45.6734C43.6849 45.7517 44.1755 45.7517 44.5827 45.6629C45.0838 45.5533 45.3604 45.1357 45.397 44.6451V37.6296H45.3917Z" fill="#FEFEFE"/>
<path d="M84.8955 45.6631H81.5809L81.0381 47.6049H78.6839L81.7219 37.6245H84.7285L87.7769 47.5892L85.4332 47.6153L84.8903 45.6631H84.8955ZM84.3474 43.7474L83.2356 39.7124L82.0925 43.763L84.3474 43.7474Z" fill="#FEFEFE"/>
<path d="M102.299 43.4445L98.5977 43.4497L98.5925 45.5951H102.612V47.6047H96.3375V37.6191H102.612L102.617 39.6288H98.5925V41.4401H102.293L102.299 43.4445Z" fill="#FEFEFE"/>
<path d="M60.8373 28.9911L57.1417 28.9964L57.1312 31.1417H61.1505V33.1514H54.8554V23.1919H61.1453L61.1557 25.2015H57.1417L57.1312 26.9867H60.8321L60.8373 28.9911Z" fill="#FEFEFE"/>
<path d="M83.2408 28.991L79.54 28.9962L79.5295 31.1416H83.554V33.1512H77.2745V23.1917L83.5488 23.1865L83.5592 25.2014H79.54L79.5347 26.9866H83.2356L83.2408 28.991Z" fill="#FEFEFE"/>
<path d="M50.8777 28.1349H53.0231V32.8223C51.3162 33.266 49.2961 33.5792 47.6467 32.9737C46.6288 32.5352 45.9189 31.6061 45.9189 30.4577V25.8642C45.9189 24.7263 46.6236 23.7711 47.6571 23.3639C49.1552 22.7741 51.0918 23.0977 52.7569 23.3378L52.4907 25.3214C51.4049 25.1961 50.3662 25.0813 49.2909 25.1021C48.6593 25.1126 48.1739 25.598 48.1739 26.2244V30.014C48.1686 30.6613 48.6019 31.2668 49.2596 31.2459L50.8777 31.1937V28.1401V28.1349Z" fill="#FEFEFE"/>
<path d="M14.9965 20.6182L13.8951 20.6338V16.3222L11.4418 13.7802L10.3456 14.7928C10.9042 15.5392 10.8572 16.5937 10.163 17.2461C9.50525 17.8621 8.46128 17.9404 7.73051 17.3192C7.05193 16.7398 6.87445 15.7167 7.386 14.9337C7.89754 14.1508 8.95195 13.848 9.8341 14.37L10.9825 13.2791C10.7058 13.1225 10.5805 12.7988 10.711 12.637C10.7789 12.5535 11.0555 12.4648 11.1234 12.5274L11.4575 12.8458L13.8899 10.57V8.52377L14.9861 8.51855L15.0018 10.5752L17.4394 12.8562C17.5647 12.6109 17.8935 12.4021 18.0971 12.5639C18.332 12.7466 18.2381 13.0755 17.9144 13.2686L19.0367 14.3752C19.851 13.9002 20.8689 14.0933 21.4274 14.8189C21.9859 15.5445 21.9076 16.6198 21.2551 17.2461C20.6026 17.8725 19.5221 17.9247 18.8175 17.3297C18.1128 16.7346 17.9457 15.6384 18.5512 14.8032L17.4603 13.7854L15.0018 16.3327V20.6286L14.9965 20.6182ZM13.8847 15.3461L13.8951 11.473L11.9273 13.3156L13.8847 15.3409V15.3461ZM16.9696 13.3052L15.007 11.4834V15.3409L16.9696 13.3052ZM8.27859 15.0486C8.05414 15.153 7.99672 15.4766 8.10633 15.6489C8.21595 15.8211 8.5187 15.8994 8.69618 15.7898C8.87365 15.6802 8.93629 15.3827 8.83189 15.1947C8.75882 15.059 8.45084 14.9703 8.27859 15.0486ZM19.4804 15.0329C19.2142 15.1321 19.1411 15.4244 19.235 15.6384C19.3186 15.8107 19.6213 15.8994 19.7988 15.8055C19.9397 15.7376 20.0754 15.4557 20.018 15.3096C19.9449 15.1112 19.6735 14.9598 19.4752 15.0329H19.4804Z" fill="#FEFEFE"/>
<path d="M104.021 47.1247L104.386 45.3499C105.67 45.7623 108.458 46.2321 108.588 45.2716C108.64 44.8645 108.672 44.4417 108.526 44.0606C108.426 43.8049 107.941 43.6692 107.68 43.5961L105.467 42.9958C104.089 42.6252 104.037 40.5842 104.297 39.1696C104.459 38.3136 105.096 37.7916 105.952 37.6298C107.513 37.3323 109.084 37.4993 110.671 37.7916L110.441 39.7021C109.241 39.5194 107.064 39.1749 106.626 39.6603C106.495 39.8065 106.453 40.1719 106.438 40.3754C106.391 40.9914 106.636 41.2837 107.195 41.4455L109.7 42.1658C110.347 42.3538 110.76 42.9227 110.833 43.5856C111.021 45.3656 110.963 47.0464 109.209 47.5371C107.497 47.9024 105.769 47.8085 104.016 47.1247H104.021Z" fill="#FEFEFE"/>
<path d="M103.765 32.6814L104.136 30.9119C105.331 31.3086 107.983 31.6896 108.249 31.0319C108.437 30.5569 108.474 29.9984 108.233 29.5495C108.119 29.3302 107.644 29.2102 107.403 29.1475L105.263 28.5734C103.864 28.1975 103.828 26.3497 104.021 24.8829C104.334 22.44 108.134 22.962 110.426 23.3483L110.201 25.2588C108.985 25.0708 106.793 24.7316 106.38 25.217C106.135 25.5041 106.145 26.4019 106.359 26.689C106.464 26.8299 106.782 26.9448 106.996 27.0074L109.512 27.7434C110.154 27.9313 110.608 28.5264 110.603 29.205L110.593 31.2564C110.577 33.7201 106.083 33.6627 103.776 32.6814H103.765Z" fill="#FEFEFE"/>
<path d="M49.2023 47.1248L49.5677 45.3605C50.7578 45.7572 53.4252 46.1278 53.681 45.4805C53.8637 45.016 53.9211 44.447 53.6653 44.0086C53.5139 43.7476 52.9972 43.6432 52.7101 43.5649L50.643 42.9959C49.3067 42.6305 49.2702 40.7618 49.4529 39.3368C49.5729 38.392 50.2672 37.7865 51.2015 37.6195C52.7414 37.348 54.276 37.4994 55.8576 37.8022L55.6332 39.7126C54.417 39.5143 52.2298 39.1802 51.8123 39.6761C51.687 39.8222 51.6504 40.1824 51.6348 40.3808C51.593 40.9863 51.8123 41.2838 52.3708 41.4456L54.8815 42.1659C56.2074 42.547 56.1708 44.2904 56.0194 45.7102C55.9151 46.655 55.2887 47.3023 54.3856 47.5476C52.6683 47.913 50.9405 47.8086 49.2075 47.13L49.2023 47.1248Z" fill="#FEFEFE"/>
<path d="M61.7612 47.5995L59.5062 47.6047V39.6288H56.8388L56.8441 37.6191H64.4442L64.4494 39.6288H61.7612V47.5995Z" fill="#FEFEFE"/>
<path d="M95.0795 45.5898L95.0951 47.5995L88.8835 47.6047L88.8887 37.6191L91.1437 37.6244V45.5951L95.0795 45.5898Z" fill="#FEFEFE"/>
<path d="M77.5251 47.5995L75.2493 47.6047L75.2441 37.6296L77.5251 37.6191V47.5995Z" fill="#FEFEFE"/>
<path d="M19.1725 47.5995L16.9175 47.6047V37.6191H19.1725V47.5995Z" fill="#FEFEFE"/>
<path d="M75.2701 33.1461L73.0099 33.1514V23.1919H75.2701V33.1461Z" fill="#FEFEFE"/>
<path d="M34.0594 33.1408L31.7783 33.1564L31.7731 23.197L34.0542 23.1865L34.0594 33.1408Z" fill="#FEFEFE"/>
<path d="M16.1772 23.1242H9.77684L9.57846 23.4635L8.85281 23.4426V20.4983L9.60978 20.4722L9.71941 20.8428H16.1667L16.1772 23.1242Z" fill="#FEFEFE"/>
<path d="M19.0211 8.68047C16.0614 7.42249 12.8199 7.42771 9.84979 8.68569C9.43742 8.32552 10.0325 8.13761 9.92809 7.77744C9.88111 7.61041 9.60445 7.47991 9.42698 7.47991C9.29648 7.47991 9.14511 7.05188 9.25994 7.0049C12.5798 5.61642 16.3433 5.6112 19.6735 7.01534L19.5483 7.46425C19.3134 7.50601 19.1777 7.53211 19.0837 7.60519C18.7287 7.87662 19.2559 8.36728 19.1881 8.46124L19.0158 8.68569L19.0211 8.68047ZM14.224 6.40462C13.9682 6.54556 13.9787 6.91095 14.1405 7.07798C14.2501 7.1876 14.5372 7.24502 14.6781 7.14584C14.8608 7.02056 14.9339 6.72303 14.84 6.57688C14.7147 6.37852 14.4485 6.27935 14.224 6.40462ZM11.8907 6.63429C11.6402 6.72303 11.5358 7.02056 11.635 7.2398C11.7081 7.40161 12.0212 7.52689 12.1935 7.44859C12.4023 7.35463 12.5067 7.07276 12.4336 6.89529C12.3501 6.69693 12.0995 6.556 11.8907 6.63429ZM16.6826 6.64995C16.432 6.75435 16.3798 7.10408 16.526 7.30765C16.6199 7.43815 16.9175 7.51645 17.0532 7.43293C17.2463 7.31287 17.335 7.031 17.262 6.85353C17.1837 6.66561 16.8914 6.56122 16.6773 6.64995H16.6826Z" fill="#FEFEFE"/>
<path d="M15.362 27.0543L15.3412 24.9507C15.9154 24.5018 16.4112 23.8702 16.4165 23.1185L16.4426 18.833H17.1107V18.1597H17.664L17.6744 18.8226L18.353 18.833V23.2334C18.1286 24.9507 17.1525 26.4749 15.3568 27.0595L15.362 27.0543Z" fill="#FEFEFE"/>
<path d="M31.257 57.8312L31.1317 53.2006L29.67 57.0533H28.6311L27.1746 53.211L27.0441 57.826H26.3028L26.5064 51.979L27.4826 52.0051L29.1532 56.4425L30.8133 52.0103L31.7947 52.026L31.9983 57.826L31.257 57.8312Z" fill="#FEFEFE"/>
<path d="M105.055 57.8154L104.006 57.8258L101.495 52.9342L101.479 57.8258H100.738V51.9945L101.787 51.9736L104.298 56.8652L104.314 52.1041C104.444 51.9475 104.768 51.9423 105.05 52.0363V57.8102L105.055 57.8154Z" fill="#FEFEFE"/>
<path d="M86.9893 57.8155L85.9347 57.826L83.4341 52.95L83.4132 57.826H82.6771V51.9999L83.7212 51.979L86.2375 56.9124L86.2479 52.0208L86.984 52.026L86.9893 57.8155Z" fill="#FEFEFE"/>
<path d="M43.226 57.8207L42.1819 57.8364L39.6604 52.9291L39.6499 57.7946L38.9138 57.8259V51.9999L39.9684 51.9946L42.4638 56.881L42.4847 51.9999L43.2208 52.0103L43.226 57.8207Z" fill="#FEFEFE"/>
<path d="M39.5878 18.672C38.8726 18.9382 38.1313 18.9173 37.4526 18.6824C36.8261 18.4684 36.3876 17.8889 36.3876 17.2154V14.4329C36.3876 13.7229 36.8836 13.1591 37.5413 12.9607C38.1417 12.778 38.7943 12.7832 39.3946 12.9346C40.115 13.1173 40.5588 13.6864 40.6319 14.4173L40.6214 17.2363C40.6214 17.868 40.2038 18.4423 39.5878 18.672ZM39.2223 18.0455C39.64 17.8941 39.8592 17.4869 39.8592 17.0954V14.5582C39.8592 14.0727 39.5095 13.6498 39.0292 13.5663C38.0373 13.394 37.1759 13.6916 37.1707 14.4799V17.1737C37.1707 17.56 37.4421 17.9307 37.8128 18.0507C38.2513 18.1917 38.7525 18.2073 39.2223 18.0403V18.0455Z" fill="#FEFEFE"/>
<path d="M60.775 18.7244C60.1172 18.9123 59.449 18.9019 58.8434 18.7087C58.1595 18.4947 57.721 17.8995 57.721 17.1843V14.4697C57.721 13.7545 58.1856 13.1698 58.859 12.9662C59.4594 12.7835 60.1015 12.7835 60.7175 12.9401C61.4275 13.1228 61.9548 13.7336 61.9548 14.4853V17.1791C61.9548 17.8943 61.4954 18.5208 60.775 18.7296V18.7244ZM61.1769 17.1896V14.5584C61.1769 14.1095 60.895 13.6918 60.4356 13.5874C59.4229 13.3629 58.4988 13.697 58.4988 14.4853V17.1635C58.4988 17.5811 58.8173 17.9674 59.2088 18.077C60.1798 18.3433 61.1822 18.0144 61.1822 17.1843L61.1769 17.1896Z" fill="#FEFEFE"/>
<path d="M49.3645 16.119H46.8848L46.8795 18.061L49.5681 18.0662V18.7658H46.0913V12.9136H49.5368V13.6183H46.8848V15.4194H49.3541L49.3645 16.119Z" fill="#FEFEFE"/>
<path d="M23.9282 57.7632C23.26 57.972 22.5813 57.9616 21.9549 57.7684C21.3284 57.5753 20.8272 56.9958 20.8272 56.3015V53.4981C20.8272 52.8298 21.2814 52.2608 21.8975 52.0572C22.5657 51.8327 23.2913 51.8327 23.9595 52.052C24.586 52.2608 25.0454 52.8298 25.0454 53.5033V56.2963C25.0454 56.9645 24.5964 57.5544 23.9334 57.7632H23.9282ZM23.7298 57.1107C24.0692 56.8809 24.2832 56.5782 24.2832 56.1971V53.592C24.2832 53.0804 23.9178 52.6889 23.4062 52.6054C23.0982 52.5584 22.7588 52.5531 22.456 52.6054C21.9497 52.6941 21.5947 53.0961 21.5947 53.5973V56.1762C21.5947 56.5782 21.8244 56.8862 22.1637 57.1002C22.6805 57.2568 23.1765 57.2516 23.7351 57.1002L23.7298 57.1107Z" fill="#FEFEFE"/>
<path d="M53.6343 18.0717V16.0826L54.3808 16.0722V18.6094C53.5246 18.8182 52.6685 18.9278 51.8123 18.7921C51.071 18.6772 50.5803 18.1291 50.575 17.3721V14.3442C50.575 13.6238 51.0449 13.0391 51.7549 12.9034C52.5849 12.7467 53.3993 12.8355 54.2398 12.9921L54.1772 13.6655L52.1464 13.5455C51.7392 13.5194 51.3633 13.8952 51.3633 14.3181V17.3408C51.3633 17.7741 51.7131 18.1395 52.136 18.1291L53.6395 18.0717H53.6343Z" fill="#FEFEFE"/>
<path d="M71.3453 56.4321H68.876L68.4062 57.8312L67.6231 57.8155L69.586 52.0051L70.6301 51.979L72.5982 57.8155L71.8204 57.8364L71.3453 56.4373V56.4321ZM71.1365 55.743L70.108 52.5689L69.0744 55.7586L71.1365 55.7482V55.743Z" fill="#FEFEFE"/>
<path d="M98.525 56.4373L96.0557 56.4268L95.5754 57.8312L94.8028 57.8155L96.7605 52.0103L97.8098 51.9946L99.7779 57.8207L99.0001 57.8416L98.5302 56.4373H98.525ZM98.3162 55.7482L97.2825 52.5741L96.2541 55.7534H98.3162V55.7482Z" fill="#FEFEFE"/>
<path d="M54.7253 56.4322H52.2508L51.7809 57.8313L51.0031 57.8157L52.966 52.0105L54.0101 51.9844L55.9782 57.8157L55.2003 57.8366L54.7253 56.4375V56.4322ZM54.5165 55.7431L53.488 52.5743L52.4544 55.7588L54.5165 55.7484V55.7431Z" fill="#FEFEFE"/>
<path d="M109.748 56.4322H107.273L106.798 57.8366L106.02 57.8209L107.978 52.0157L109.022 51.9844L110.995 57.8209L110.212 57.8418L109.742 56.4375L109.748 56.4322ZM109.539 55.7431L108.51 52.5847L107.477 55.7588L109.539 55.7431Z" fill="#FEFEFE"/>
<path d="M36.7221 52.0576C36.9883 51.9793 37.1971 51.9793 37.4895 52.0315L37.479 56.3906C37.479 57.0536 36.9674 57.6122 36.3671 57.7793C35.7197 57.962 35.0567 57.962 34.4146 57.7688C33.8247 57.5913 33.3444 57.038 33.3444 56.3854L33.3287 52.0106H34.1014V56.2183C34.1014 56.5003 34.2684 56.897 34.5138 57.0223C34.968 57.2624 35.4639 57.2729 35.9494 57.1685C36.3827 57.0797 36.7168 56.6986 36.7168 56.2444V52.0576H36.7221Z" fill="#FEFEFE"/>
<path d="M81.1952 55.169H78.7154L78.7206 57.1424L81.3727 57.1319L81.404 57.8367H77.9271V51.9897H81.2578C81.4301 52.0002 81.4301 52.6058 81.263 52.6632H78.7206L78.7102 54.4747H81.1795L81.1899 55.1743L81.1952 55.169Z" fill="#FEFEFE"/>
<path d="M66.9451 52.0627C67.1643 51.9687 67.4567 51.9687 67.7073 52.0261L65.7913 57.8209L64.7629 57.8313L62.847 52.0209L63.5779 51.9844L65.2797 57.1161L66.9503 52.0627H66.9451Z" fill="#FEFEFE"/>
<path d="M32.7703 17.2782C32.7703 18.3849 34.1903 18.1866 35.4119 18.0352L35.4589 18.7191C34.6654 18.8444 33.9502 18.9227 33.2089 18.7817C32.4676 18.6408 31.9925 18.0978 31.9977 17.3669L32.0134 14.2138C32.0186 12.7468 33.9554 12.6476 35.4902 12.9765L35.4067 13.6447C34.1955 13.4986 32.7703 13.3158 32.7703 14.3808V17.2782Z" fill="#FEFEFE"/>
<path d="M17.9617 57.1841L19.8254 57.111L19.8985 57.774C18.3637 58.0924 16.4373 57.9933 16.4373 56.4793V53.3209C16.4373 52.6161 16.9855 52.0784 17.6537 51.9636C18.4159 51.8331 19.1154 51.9114 19.8985 52.0314L19.815 52.6944C18.5307 52.5691 17.1891 52.3551 17.1891 53.4984V56.307C17.1891 56.7456 17.4553 57.2102 17.9617 57.1893V57.1841Z" fill="#FEFEFE"/>
<path d="M89.8651 57.1841L91.7288 57.111L91.8019 57.774C90.2671 58.0924 88.3407 57.9933 88.3407 56.4793V53.3209C88.3407 52.6161 88.8889 52.0784 89.5571 51.9636C90.3193 51.8331 91.0189 51.9114 91.8019 52.0314L91.7184 52.6944C90.4342 52.5691 89.0925 52.3551 89.0925 53.4984V56.307C89.0925 56.7456 89.3587 57.2102 89.8651 57.1893V57.1841Z" fill="#FEFEFE"/>
<path d="M13.5719 24.9457V27.0652C11.9118 26.5588 10.8155 25.1232 10.5597 23.4004H12.5017C12.6896 24.0321 12.9663 24.5437 13.5667 24.9457H13.5719Z" fill="#FEFEFE"/>
<path d="M45.1313 18.0611L45.1469 18.7659H41.8476V12.9242L42.615 12.9189L42.6202 18.0664L45.1313 18.0611Z" fill="#FEFEFE"/>
<path d="M20.65 7.2352L19.4231 6.48345C19.8147 6.29551 20.1853 6.0136 20.2897 5.67949C20.4359 5.20442 20.3524 4.75546 20.0026 4.41091C19.5328 3.95672 18.6348 4.49444 18.5043 3.76357C18.4573 3.48688 18.6296 3.19453 18.9481 3.13188C19.6998 2.98571 20.4777 3.11622 21.0415 3.65394C22.0438 4.60929 21.6993 6.05015 20.6447 7.22476L20.65 7.2352Z" fill="#FEFEFE"/>
<path d="M8.85824 4.45234C8.52413 4.81778 8.47192 5.24064 8.59722 5.65828C8.70163 5.99761 9.00964 6.2482 9.46904 6.4779L8.25788 7.24009C7.31819 6.17511 6.83791 4.91697 7.68363 3.85199C8.52935 2.787 10.4557 2.90185 10.3983 3.66927C10.3304 4.54109 9.33853 3.92507 8.85824 4.44712V4.45234Z" fill="#FEFEFE"/>
<path d="M12.1885 3.72688C11.8805 4.00879 11.8283 4.43165 11.9118 4.78142C11.9954 5.1312 12.2564 5.37656 12.6166 5.6167L11.1705 6.14398C10.6432 5.63759 10.5232 4.99024 10.638 4.3168C10.8416 3.14219 11.7395 2.35911 12.9455 2.33301C13.3161 2.32257 13.645 2.47918 13.6607 2.8655C13.6972 3.70078 12.6584 3.2988 12.1885 3.72688Z" fill="#FEFEFE"/>
<path d="M16.2652 5.60624C16.9282 5.26691 17.2466 4.53604 16.8394 3.87825C16.4322 3.22047 15.2002 3.75818 15.2368 2.87592C15.2524 2.47916 15.5448 2.32254 15.9154 2.32776C17.184 2.34342 18.1289 3.19437 18.2803 4.44729C18.3586 5.08941 18.2124 5.70021 17.7113 6.14395L16.2704 5.60624H16.2652Z" fill="#FEFEFE"/>
<path d="M58.8959 57.8L58.1285 57.8209L58.1337 52.6526L56.3953 52.663L56.4005 51.9844H60.6239L60.6291 52.663L58.8907 52.6474L58.8959 57.8Z" fill="#FEFEFE"/>
<path d="M48.9573 57.8L48.1951 57.8209V52.6526L46.4567 52.663L46.4671 51.9844H50.6853L50.6958 52.663L48.9573 52.6474V57.8Z" fill="#FEFEFE"/>
<path d="M14.9967 28.5376L13.8952 28.5428L13.8899 23.4058L14.9967 23.3901V28.5376Z" fill="#FEFEFE"/>
<path d="M76.7218 57.1371C76.8836 57.1998 76.9201 57.6435 76.8366 57.8314H73.579V52.115C73.7409 51.9531 74.0489 51.9427 74.3412 52.0419V57.1371H76.7218Z" fill="#FEFEFE"/>
<path d="M56.458 18.7505L55.6905 18.7662L55.6853 12.9297H56.458V18.7505Z" fill="#FEFEFE"/>
<path d="M93.785 57.8209L93.0176 57.8052V52.0157L93.785 52V57.8209Z" fill="#FEFEFE"/>
<path d="M45.5067 57.8054L44.7393 57.8315V52.0054L45.5015 52.0158L45.5067 57.8054Z" fill="#FEFEFE"/>
<path d="M12.4496 20.634L10.5285 20.6393L10.518 18.833H11.1863L11.2176 18.1647L11.7657 18.1543L11.771 18.8277H12.434L12.4496 20.634Z" fill="#FEFEFE"/>
<path d="M19.3605 23.4532C19.2874 23.4532 19.2508 23.1504 19.1777 23.1452L18.6818 23.1191L18.6922 20.8377H19.1725C19.2456 20.8377 19.2665 20.6132 19.2926 20.4932H20.06V23.4427L19.3605 23.4532Z" fill="#FEFEFE"/>
<path d="M18.9381 34.3364L18.2698 34.7227C17.6956 33.5115 16.7611 32.6762 15.6335 32.0707C15.9258 31.7052 16.2599 31.794 16.6097 31.9454C17.6643 32.4152 18.3847 33.2975 18.9381 34.3364Z" fill="#FEFEFE"/>
<path d="M10.6328 34.7333L9.94894 34.3261C10.6276 33.1463 11.4316 32.1492 12.7732 31.789C12.909 31.7524 13.17 31.956 13.2431 32.097C12.0789 32.6974 11.1862 33.5483 10.6381 34.7333H10.6328Z" fill="#FEFEFE"/>
<path d="M17.4294 30.7656C16.7507 30.7029 16.1242 30.7604 15.5761 31.2459L14.7408 30.6037C15.4508 29.8781 16.3905 29.7006 17.3041 29.9721L17.4241 30.7604L17.4294 30.7656Z" fill="#FEFEFE"/>
<path d="M13.3317 31.2513C12.7626 30.7658 12.1779 30.6875 11.4627 30.7814L11.5724 29.9827C12.4546 29.7112 13.4361 29.847 14.1304 30.6039L13.3317 31.2513Z" fill="#FEFEFE"/>
<path d="M14.7723 5.60134L14.1354 5.617V2.20801H14.7671L14.7723 5.60134Z" fill="#FEFEFE"/>
<path d="M27.1329 17.5494C26.282 17.0378 26.1358 15.9363 26.7936 15.2002C27.6341 15.6753 27.8011 16.8238 27.1329 17.5494Z" fill="#FEFEFE"/>
<path d="M3.45566 25.593C3.01192 25.6035 2.58906 25.3007 2.3698 24.9822C2.08267 24.5646 2.03569 24.0791 2.19752 23.604C3.12155 23.7502 3.73757 24.5698 3.45044 25.593H3.45566Z" fill="#FEFEFE"/>
<path d="M1.9576 21.7619C1.05967 21.3234 0.845631 20.2375 1.45643 19.4492C2.28127 19.8616 2.58928 20.9371 1.9576 21.7619Z" fill="#FEFEFE"/>
<path d="M24.7319 27.3573C24.6797 28.3649 23.8392 29.007 22.8577 28.8034C22.8577 28.3753 23.0613 27.9264 23.3746 27.6654C23.7504 27.3573 24.2359 27.2582 24.7267 27.3573H24.7319Z" fill="#FEFEFE"/>
<path d="M4.07173 11.6505C4.30143 12.5589 3.81071 13.4098 2.93888 13.5873C2.56301 12.6894 2.98065 11.734 3.91512 11.4678L4.07173 11.6505Z" fill="#FEFEFE"/>
<path d="M23.5834 10.2779C22.5863 10.3458 21.8398 9.48441 21.9912 8.53427C22.9465 8.47163 23.7139 9.2547 23.5834 10.2779Z" fill="#FEFEFE"/>
<path d="M9.45858 31.0215C8.63896 31.5018 7.56353 31.0476 7.30773 30.0609C8.11691 29.6537 9.1349 29.9983 9.45858 31.0215Z" fill="#FEFEFE"/>
<path d="M16.6358 33.104L17.1005 33.8714C16.1347 34.2577 15.1637 33.8819 14.6625 32.9213L15.4769 32.4775C15.597 32.7229 15.7066 32.9526 15.8371 33.0518C16.025 33.1927 16.3435 33.1771 16.6411 33.104H16.6358Z" fill="#FEFEFE"/>
<path d="M6.05519 28.7616C5.13638 29.0644 4.19669 28.3596 4.16537 27.3677C5.04764 27.138 5.94556 27.7018 6.05519 28.7616Z" fill="#FEFEFE"/>
<path d="M14.4852 32.5353C14.078 32.3839 13.6656 31.9872 13.4881 31.6478C13.4411 31.5539 13.5507 31.2041 13.6499 31.225L14.078 31.3137L14.4382 31.0266C14.5218 30.9587 14.7358 31.2563 14.7828 31.3189L15.237 31.2354C15.3518 31.2145 15.4614 31.6374 15.3884 31.7366C15.1639 32.0289 14.8506 32.3213 14.4852 32.5458V32.5353Z" fill="#FEFEFE"/>
<path d="M25.4937 25.6299C25.2745 25.2018 25.3371 24.7058 25.6243 24.2569C25.8174 23.9541 26.2351 23.6617 26.6997 23.6147C26.9816 24.5231 26.5222 25.4263 25.4937 25.6351V25.6299Z" fill="#FEFEFE"/>
<path d="M11.8073 33.8819L12.2458 33.1197C12.4755 33.1614 12.7835 33.1875 12.9923 33.1092C13.1594 33.0466 13.2951 32.7647 13.4047 32.4775L14.24 32.9213C13.8015 33.8296 12.8253 34.2786 11.8073 33.8819Z" fill="#FEFEFE"/>
<path d="M21.5844 30.0504C21.339 31.0371 20.3262 31.4495 19.444 31.0737C19.6528 30.1444 20.6395 29.6119 21.5844 30.0504Z" fill="#FEFEFE"/>
<path d="M26.9657 21.7671C26.3079 20.9997 26.569 19.9086 27.4356 19.4492C28.0098 20.1592 27.8845 21.2555 26.9657 21.7671Z" fill="#FEFEFE"/>
<path d="M1.76953 17.5494C1.08043 16.829 1.25792 15.7014 2.08276 15.2002C2.74577 15.8997 2.6257 17.0169 1.76953 17.5494Z" fill="#FEFEFE"/>
<path d="M6.89562 8.53438C7.03657 9.5576 6.31614 10.2989 5.33469 10.2885C5.25116 9.83429 5.35557 9.3801 5.6949 9.00945C5.95593 8.72232 6.40489 8.50828 6.89562 8.53438Z" fill="#FEFEFE"/>
<path d="M25.9584 13.5821C24.977 13.3681 24.4967 12.3292 24.9196 11.4521C25.8749 11.708 26.3343 12.6372 25.9584 13.5821Z" fill="#FEFEFE"/>
<path d="M27.0442 18.2646C26.0575 18.3638 25.2483 17.5442 25.2431 16.521C26.0575 16.7664 26.7153 17.3615 27.0442 18.2646Z" fill="#FEFEFE"/>
<path d="M28.6676 16.0562C28.9443 17.0637 28.3857 17.9564 27.4356 18.2488C27.4356 17.3561 27.9054 16.526 28.6676 16.0562Z" fill="#FEFEFE"/>
<path d="M1.91592 22.5131C0.92925 22.628 0.0469845 21.9023 0 20.8687C0.871824 21.1036 1.54527 21.6517 1.91592 22.5131Z" fill="#FEFEFE"/>
<path d="M2.29665 22.4402C2.234 21.5319 2.67252 20.7227 3.36163 20.1484C3.70618 21.0725 3.3042 22.0905 2.29665 22.4402Z" fill="#FEFEFE"/>
<path d="M27.5714 25.4413C27.253 26.3549 26.1358 26.783 25.2431 26.334C25.8539 25.671 26.6265 25.3682 27.5714 25.4413Z" fill="#FEFEFE"/>
<path d="M2.46907 14.1563C1.63379 13.6708 1.37798 12.564 1.9418 11.7026C2.48995 12.3448 2.69355 13.2114 2.46907 14.1563Z" fill="#FEFEFE"/>
<path d="M3.64377 16.5259C3.65943 17.523 2.90246 18.3061 1.85313 18.2956C2.11416 17.4603 2.77194 16.8078 3.64377 16.5259Z" fill="#FEFEFE"/>
<path d="M21.3182 32.0707C20.483 32.6554 19.3866 32.384 18.8542 31.533C19.7208 31.3399 20.5769 31.4652 21.3182 32.0707Z" fill="#FEFEFE"/>
<path d="M22.1687 29.0801C21.6258 28.2291 21.9494 27.1485 22.8056 26.6421C22.9988 27.4878 22.8056 28.3544 22.1687 29.0801Z" fill="#FEFEFE"/>
<path d="M6.51467 29.377C5.82034 30.134 4.67183 30.0922 3.97229 29.3979C4.78668 28.975 5.67417 28.9855 6.51467 29.377Z" fill="#FEFEFE"/>
<path d="M3.64379 26.3448C2.78763 26.7572 1.68088 26.4074 1.29978 25.4364C2.12984 25.379 2.99123 25.5982 3.64379 26.3448Z" fill="#FEFEFE"/>
<path d="M6.74415 29.0802C6.09159 28.4172 5.91931 27.5193 6.08115 26.6475C6.92687 27.1016 7.26098 28.1666 6.74415 29.0802Z" fill="#FEFEFE"/>
<path d="M28.8921 20.874C28.8608 21.8659 28.0203 22.602 26.9866 22.5289C27.3207 21.7041 27.989 21.1142 28.8921 20.874Z" fill="#FEFEFE"/>
<path d="M3.97237 26.1621C3.65914 25.2694 3.75311 24.3663 4.23861 23.6406C4.90162 24.4185 4.76588 25.5304 3.97237 26.1621Z" fill="#FEFEFE"/>
<path d="M19.8356 28.9702C19.8826 29.8316 19.4441 30.6564 18.708 31.2046C18.4052 30.3119 18.7863 29.2991 19.8356 28.9702Z" fill="#FEFEFE"/>
<path d="M10.1997 31.1783C9.48449 30.7346 9.05119 29.9045 9.03553 28.9648C9.97 29.2311 10.5025 30.1603 10.1997 31.1783Z" fill="#FEFEFE"/>
<path d="M5.02185 13.2007C4.79737 14.1717 3.71673 14.652 2.78748 14.3231C3.33041 13.6393 4.04562 13.1955 5.02185 13.2007Z" fill="#FEFEFE"/>
<path d="M10.0172 31.538C9.53689 32.3837 8.40926 32.6448 7.56876 32.0705C8.2422 31.5432 9.07227 31.2927 10.0172 31.538Z" fill="#FEFEFE"/>
<path d="M23.9281 10.9355C23.1241 11.5515 21.9861 11.327 21.4483 10.4917C22.3254 10.2463 23.1607 10.3873 23.9281 10.9355Z" fill="#FEFEFE"/>
<path d="M24.2097 10.6956C23.7503 9.9752 23.6616 9.07206 24.0009 8.18457C24.7474 8.77449 24.9093 9.88645 24.2097 10.6956Z" fill="#FEFEFE"/>
<path d="M7.44371 10.5127C6.84335 11.3689 5.77315 11.515 4.94309 10.9512C5.7105 10.4083 6.62931 10.2204 7.44371 10.5127Z" fill="#FEFEFE"/>
<path d="M24.8937 29.3825C24.236 30.1238 23.0718 30.1029 22.3827 29.3877C23.1762 28.9857 24.0428 28.9596 24.8937 29.3825Z" fill="#FEFEFE"/>
<path d="M4.68229 10.701C4.01929 9.90227 4.11326 8.79552 4.89633 8.18994C5.23566 9.06699 5.15214 9.98057 4.68229 10.701Z" fill="#FEFEFE"/>
<path d="M26.4543 14.1459C26.1671 13.3471 26.3812 12.4231 26.945 11.687C27.4827 12.4962 27.347 13.5351 26.4543 14.1459Z" fill="#FEFEFE"/>
<path d="M24.93 26.1308C24.126 25.5722 24.0059 24.3924 24.6585 23.6406C25.1336 24.4028 25.2432 25.2329 24.93 26.1308Z" fill="#FEFEFE"/>
<path d="M26.6056 22.4245C25.6294 22.1322 25.1805 21.0829 25.5198 20.1641C26.1723 20.6913 26.637 21.4535 26.6056 22.4245Z" fill="#FEFEFE"/>
<path d="M26.0787 14.3075C25.1755 14.6625 24.121 14.1613 23.8391 13.1851C24.7109 13.2007 25.4992 13.5348 26.0787 14.3075Z" fill="#FEFEFE"/>
<path d="M1.47221 18.2173C0.55862 18.045 -0.0573995 17.0688 0.229728 16.0508C0.913614 16.5102 1.40434 17.2045 1.47221 18.2173Z" fill="#FEFEFE"/>
<path d="M14.7723 1.83762H14.1354V0.010441L14.7671 0L14.7723 1.83762Z" fill="#FEFEFE"/>
<path d="M21.7513 21.4537C21.412 21.344 20.7438 21.4902 20.3835 21.5215L20.1591 21.485C20.1277 21.485 20.2843 21.3493 20.3157 21.3493C20.6759 21.3336 21.3702 21.3649 21.7304 21.1874C22.0384 21.0308 22.2473 20.9368 22.55 20.9838L22.3673 21.2344C22.3308 21.2814 22.4509 21.3597 22.597 21.4902C22.2786 21.5894 22.0906 21.5633 21.7513 21.4589V21.4537Z" fill="#FEFEFE"/>
<path d="M21.7043 20.7958L20.1747 20.9785L20.2164 20.8845L21.6573 20.5713C21.8713 20.4042 22.148 20.1902 22.4404 20.2894L22.2629 20.5295C22.2263 20.5765 22.3673 20.6444 22.4978 20.707C22.3464 21.0568 21.9392 20.7645 21.7043 20.7906V20.7958Z" fill="#FEFEFE"/>
<path d="M22.5135 23.1502L22.2838 23.3329C22.2316 23.3747 22.336 23.4895 22.4352 23.6566C22.1428 23.667 21.887 23.5156 21.6573 23.3538L20.1695 23.0197V22.8892C20.6445 22.9779 21.1666 23.1136 21.6782 23.1136C21.934 23.1136 22.2316 22.9414 22.5083 23.1502H22.5135Z" fill="#FEFEFE"/>
<path d="M21.72 22.6905L20.2165 22.5182L20.1643 22.4295L20.8847 22.4504C21.1823 22.4608 21.5686 22.5548 21.8192 22.4608C22.1063 22.3564 22.3412 22.3408 22.5553 22.4347C22.4457 22.5391 22.336 22.6227 22.3569 22.6592L22.5501 22.9463C22.2577 22.9933 22.0019 22.8837 21.72 22.6905Z" fill="#FEFEFE"/>
<path d="M21.7983 22.0692C21.3076 21.9022 20.7177 22.017 20.1643 21.9178L21.7931 21.8447C21.9967 21.8343 22.336 21.4532 22.5762 21.7873L22.3726 21.9387C22.3412 21.9648 22.477 22.0536 22.5762 22.1266C22.3569 22.4399 22.0593 22.1632 21.7983 22.0797V22.0692Z" fill="#FEFEFE"/>
<path d="M8.472 21.5164C8.11178 21.5686 7.42267 21.3859 7.03636 21.4276C6.80665 21.4537 6.77533 21.4589 6.43078 21.3075L6.72835 21.0987C6.80143 21.0465 7.00503 21.2084 7.099 21.2188L8.53986 21.3597C8.57119 21.3597 8.73302 21.4798 8.7017 21.485L8.472 21.5164Z" fill="#FEFEFE"/>
<path d="M8.69122 20.9732L7.14595 20.7696C6.93713 20.8322 6.77007 20.8061 6.51427 20.5555C6.78573 20.3885 6.97367 20.472 7.27124 20.5816C7.72542 20.7539 8.24225 20.6651 8.69122 20.9679V20.9732Z" fill="#FEFEFE"/>
<path d="M6.54575 23.4162C6.6345 23.0508 6.95817 23.1552 7.24008 23.1186L8.6966 22.915V23.0194L7.18787 23.3536C6.99471 23.3953 7.00515 23.5415 6.54575 23.4214V23.4162Z" fill="#FEFEFE"/>
<path d="M8.71218 22.4664C8.03351 22.7274 7.37051 22.4455 6.90066 22.8318L6.39949 22.6595L6.80669 22.4403C7.51146 22.6491 8.07528 22.2941 8.71218 22.4664Z" fill="#FEFEFE"/>
<path d="M8.68085 21.9182L7.09382 22.0434C6.82758 22.0643 6.59787 22.2314 6.39949 21.9129C6.71794 21.7407 6.87978 21.772 7.0886 21.8399L8.68085 21.9182Z" fill="#FEFEFE"/>
<path d="M26.0993 19.2978C26.2716 19.256 26.4752 19.3239 26.496 19.4126C26.5274 19.5327 26.4595 19.7833 26.3499 19.8094C26.2611 19.8303 26.0627 19.7781 25.9896 19.7259C25.9009 19.658 25.9844 19.3291 26.0993 19.2978Z" fill="#FEFEFE"/>
<path d="M25.337 23.0716C25.4049 23.009 25.6868 23.0246 25.7547 23.0873C25.8382 23.1656 25.8017 23.4162 25.7129 23.5258C25.6398 23.6146 25.4258 23.5571 25.3214 23.484C25.2274 23.4162 25.2378 23.1656 25.337 23.0716Z" fill="#FEFEFE"/>
<path d="M23.599 26.4018C23.6877 26.36 23.9592 26.3965 24.001 26.4748C24.0532 26.574 24.0166 26.7985 23.9331 26.8664C23.8496 26.9342 23.6199 26.9238 23.5416 26.8455C23.4632 26.7672 23.505 26.4487 23.6042 26.4018H23.599Z" fill="#FEFEFE"/>
<path d="M4.917 26.454C4.96921 26.3757 5.28766 26.3548 5.34509 26.4279C5.41295 26.5166 5.43905 26.7255 5.37119 26.8142C5.31376 26.8873 5.12582 26.9238 5.03708 26.9186C4.92222 26.9082 4.81781 26.6054 4.917 26.454Z" fill="#FEFEFE"/>
<path d="M2.58383 19.2716C2.66735 19.2351 2.89706 19.3238 2.92838 19.4126C2.96492 19.517 2.89183 19.7676 2.78742 19.8145C2.68301 19.8615 2.43765 19.7676 2.39067 19.6684C2.34368 19.5692 2.45331 19.3343 2.58383 19.2768V19.2716Z" fill="#FEFEFE"/>
<path d="M7.34955 9.33319C7.42264 9.27577 7.70976 9.29143 7.76719 9.36452C7.84028 9.44805 7.80373 9.68297 7.70454 9.78738C7.63146 9.87091 7.42264 9.82392 7.32345 9.75606C7.2347 9.69341 7.25036 9.40628 7.34433 9.33319H7.34955Z" fill="#FEFEFE"/>
<path d="M25.5093 15.4818C25.5772 15.4192 25.8643 15.4349 25.9269 15.5027C26.0052 15.581 25.9687 15.842 25.8747 15.9308C25.7964 16.0091 25.5876 15.9673 25.4936 15.8995C25.3997 15.8316 25.4206 15.5549 25.5041 15.4818H25.5093Z" fill="#FEFEFE"/>
<path d="M21.177 9.33323C21.2449 9.27581 21.532 9.28625 21.5947 9.35934C21.6677 9.44287 21.6312 9.68301 21.5372 9.78742C21.4589 9.87095 21.2605 9.82918 21.1561 9.75088C21.0674 9.68823 21.083 9.41676 21.1822 9.33323H21.177Z" fill="#FEFEFE"/>
<path d="M20.728 28.8657C20.8481 28.8657 21.0256 28.9388 21.0517 29.0276C21.0882 29.1633 21.0256 29.3773 20.9159 29.4034C20.775 29.4348 20.5453 29.3512 20.5087 29.2468C20.4722 29.1424 20.6131 28.8657 20.728 28.8657Z" fill="#FEFEFE"/>
<path d="M23.7817 12.0892C23.8339 12.0057 24.1576 11.9796 24.2254 12.0475C24.3037 12.1258 24.3194 12.3451 24.2515 12.439C24.1941 12.5121 24.0323 12.5539 23.9383 12.5434C23.8182 12.5382 23.6981 12.2354 23.7869 12.0892H23.7817Z" fill="#FEFEFE"/>
<path d="M4.63516 12.0942C4.68737 12.0107 5.01104 11.9794 5.07368 12.0472C5.15199 12.1255 5.16765 12.3448 5.09979 12.4388C5.04236 12.5119 4.88053 12.5536 4.78656 12.5432C4.66126 12.5327 4.54119 12.2352 4.63516 12.0942Z" fill="#FEFEFE"/>
<path d="M3.19453 23.0559C3.26762 22.9984 3.54952 23.035 3.59651 23.1133C3.65393 23.2073 3.61739 23.4265 3.53386 23.5153C3.46077 23.5936 3.23107 23.557 3.14754 23.4892C3.06402 23.4213 3.09012 23.1342 3.19453 23.0559Z" fill="#FEFEFE"/>
<path d="M3.01191 15.4713C3.07978 15.4139 3.36169 15.4504 3.42433 15.5183C3.49742 15.6018 3.46088 15.842 3.37213 15.9307C3.29382 16.0038 3.085 15.9725 2.99103 15.8994C2.90228 15.8315 2.91794 15.5549 3.01713 15.4713H3.01191Z" fill="#FEFEFE"/>
<path d="M8.02804 28.8706C8.18988 28.8706 8.3726 28.9698 8.38826 29.0585C8.40914 29.1891 8.32039 29.3352 8.17944 29.424C8.04893 29.4501 7.91841 29.3874 7.86099 29.2778C7.79834 29.2256 7.91841 28.8758 8.02804 28.8706Z" fill="#FEFEFE"/>
</g>
<defs>
<clipPath id="clip0_10435_311">
<rect width="111" height="57.9194" fill="white"/>
</clipPath>
</defs>
</svg>
