<svg width="111" height="58" viewBox="0 0 111 58" fill="none" xmlns="http://www.w3.org/2000/svg">
<g clip-path="url(#clip0_10243_3933)">
<path d="M29.3616 47.6606L26.569 47.6763L23.3431 41.1738L23.3275 47.6711H21.1612V37.6716H23.9382L27.1849 44.4669L27.1954 37.6716L29.3616 37.6769V47.6606Z" fill="#262624"/>
<path d="M71.0212 33.192L68.2442 33.1973L65.0027 26.7104L64.9871 33.192L62.8469 33.1868V23.2239H65.6134L68.8393 29.9774L68.855 23.2239H71.0212V33.192Z" fill="#262624"/>
<path d="M44.2173 33.1921L41.4299 33.1973L38.1988 26.7314L38.1832 33.1921H36.043V23.224H38.8095L42.025 29.9356L42.0511 23.2188L44.2173 23.2292V33.1921Z" fill="#262624"/>
<path d="M74.007 47.6554L71.3344 47.6711L69.1316 44.561H67.8475L67.8423 47.6659H65.5873V37.6716H70.0033C70.5201 37.6716 71.0577 37.7971 71.538 37.933C72.3888 38.2466 72.8847 38.9314 73.0256 39.8304L73.0047 42.4126C72.9995 43.2542 72.4097 43.9233 71.6215 44.2317L74.0174 47.6502L74.007 47.6554ZM70.7915 41.7906L70.7811 40.4368C70.7132 40.0186 70.4053 39.6998 69.9459 39.6945L67.8319 39.6736V42.6112L69.9825 42.5799C70.4314 42.5747 70.7132 42.2192 70.7863 41.7854L70.7915 41.7906Z" fill="#262624"/>
<path d="M93.6597 33.1659L90.9976 33.2025L88.8157 30.1081L87.5055 30.0924V33.1921L85.2505 33.1973V23.224L89.536 23.2188C90.1154 23.2188 90.6844 23.3076 91.2168 23.4697C92.0676 23.7885 92.5583 24.468 92.694 25.3723L92.6731 27.9284C92.6679 28.7699 92.0885 29.4495 91.2899 29.7735L93.6597 33.1659ZM90.4599 27.3116V26.0623C90.4495 25.6075 90.1102 25.2469 89.63 25.2416L87.5055 25.2312V28.1375L89.6769 28.1113C90.1154 28.1113 90.4234 27.7402 90.4599 27.3064V27.3116Z" fill="#262624"/>
<path d="M38.5068 45.2091C38.465 46.1343 37.9848 46.8243 37.2227 47.2425C36.659 47.4934 36.0378 47.6659 35.401 47.6659L31.2825 47.6763V37.6716L35.401 37.6821C35.9908 37.6821 36.5702 37.8441 37.1079 38.0428C37.9378 38.44 38.4598 39.1666 38.5068 40.097V45.2091ZM36.2466 44.5766V40.719C36.2466 40.1545 35.8395 39.7154 35.2601 39.705L33.5375 39.6736V45.6587L35.2601 45.6273C35.8395 45.6168 36.2675 45.183 36.2466 44.5714V44.5766Z" fill="#262624"/>
<path d="M100.419 33.0353C99.104 33.49 97.7207 33.4744 96.4679 32.9882C95.4292 32.5857 94.6567 31.6396 94.6567 30.5106V25.8898C94.6567 24.7451 95.4762 23.7781 96.5358 23.3965C97.799 22.9417 99.1771 22.9365 100.435 23.386C101.552 23.7833 102.356 24.7869 102.356 25.9839V30.4217C102.356 31.6135 101.568 32.638 100.419 33.0405V33.0353ZM99.3911 31.1901C99.8556 31.0228 100.106 30.5942 100.106 30.1447V26.2505C100.106 25.7382 99.7721 25.3148 99.2762 25.1789C98.7803 25.043 98.2427 25.0483 97.752 25.1685C97.2353 25.2992 96.896 25.7382 96.896 26.2609V30.2126C96.896 31.2319 98.2897 31.5874 99.3858 31.1901H99.3911Z" fill="#262624"/>
<path d="M45.3918 37.6821L47.652 37.6716L47.6415 44.9791C47.6415 46.2232 46.7542 47.2268 45.611 47.5718C44.4679 47.9168 43.3038 47.9115 42.1711 47.5665C41.0384 47.2216 40.1511 46.2284 40.1458 44.9739L40.1302 37.6769H42.3904L42.3956 44.7021C42.3956 45.2196 42.7714 45.643 43.2621 45.7371C43.6849 45.8155 44.1756 45.8155 44.5827 45.7266C45.0838 45.6168 45.3605 45.1987 45.397 44.7073V37.6821H45.3918Z" fill="#262624"/>
<path d="M84.8955 45.7266H81.5809L81.0381 47.6711H78.6839L81.7219 37.6769H84.7285L87.7769 47.6554L85.4332 47.6816L84.8903 45.7266H84.8955ZM84.3475 43.8083L83.2356 39.7677L82.0925 43.824L84.3475 43.8083Z" fill="#262624"/>
<path d="M102.299 43.5051L98.5976 43.5103L98.5924 45.6587H102.612V47.6711H96.3375V37.6716H102.612L102.617 39.6841H98.5924V41.4979H102.293L102.299 43.5051Z" fill="#262624"/>
<path d="M60.8373 29.0313L57.1416 29.0365L57.1312 31.1848H61.1505V33.1973H54.8554V23.2239H61.1453L61.1557 25.2364H57.1416L57.1312 27.024H60.8321L60.8373 29.0313Z" fill="#262624"/>
<path d="M83.2409 29.0313L79.54 29.0365L79.5296 31.1849H83.5541V33.1973H77.2746V23.224L83.5488 23.2188L83.5593 25.2364H79.54L79.5348 27.0241H83.2356L83.2409 29.0313Z" fill="#262624"/>
<path d="M50.8778 28.174H53.0232V32.868C51.3163 33.3123 49.2962 33.6259 47.6467 33.0195C46.6289 32.5805 45.919 31.65 45.919 30.5001V25.9002C45.919 24.7607 46.6237 23.8042 47.6572 23.3964C49.1553 22.8058 51.0918 23.1299 52.757 23.3703L52.4908 25.3566C51.405 25.2312 50.3663 25.1162 49.291 25.1371C48.6594 25.1475 48.1739 25.6336 48.1739 26.2609V30.0558C48.1687 30.7039 48.602 31.3103 49.2597 31.2894L50.8778 31.2371V28.1792V28.174Z" fill="#262624"/>
<path d="M14.9966 20.647L13.8952 20.6626V16.345L11.4419 13.7994L10.3457 14.8135C10.9043 15.561 10.8573 16.6169 10.163 17.2702C9.50533 17.887 8.46136 17.9655 7.73059 17.3434C7.05201 16.7632 6.87453 15.7387 7.38608 14.9546C7.89762 14.1706 8.95203 13.8674 9.83418 14.3901L10.9825 13.2976C10.7059 13.1408 10.5806 12.8167 10.7111 12.6547C10.779 12.5711 11.0556 12.4822 11.1235 12.5449L11.4576 12.8638L13.89 10.5848V8.53574L14.9862 8.53052L15.0018 10.59L17.4395 12.8742C17.5648 12.6286 17.8936 12.4195 18.0972 12.5815C18.3321 12.7645 18.2381 13.0938 17.9145 13.2872L19.0368 14.3953C19.8511 13.9197 20.8689 14.1131 21.4275 14.8396C21.986 15.5662 21.9077 16.643 21.2552 17.2702C20.6027 17.8975 19.5222 17.9498 18.8175 17.3539C18.1129 16.758 17.9458 15.6603 18.5513 14.824L17.4604 13.8047L15.0018 16.3555V20.6574L14.9966 20.647ZM13.8848 15.3676L13.8952 11.4891L11.9273 13.3342L13.8848 15.3623V15.3676ZM16.9697 13.3238L15.0071 11.4995V15.3623L16.9697 13.3238ZM8.27867 15.0696C8.05422 15.1742 7.9968 15.4983 8.10641 15.6707C8.21603 15.8432 8.51878 15.9216 8.69626 15.8119C8.87373 15.7021 8.93637 15.4042 8.83197 15.216C8.7589 15.0801 8.45092 14.9912 8.27867 15.0696ZM19.4805 15.0539C19.2142 15.1533 19.1412 15.446 19.2351 15.6603C19.3186 15.8328 19.6214 15.9217 19.7989 15.8276C19.9398 15.7596 20.0755 15.4773 20.0181 15.331C19.945 15.1324 19.6736 14.9808 19.4752 15.0539H19.4805Z" fill="#262624"/>
<path d="M104.021 47.1903L104.386 45.4131C105.671 45.826 108.458 46.2965 108.588 45.3347C108.641 44.927 108.672 44.5036 108.526 44.122C108.427 43.8659 107.941 43.73 107.68 43.6568L105.467 43.0557C104.089 42.6845 104.037 40.6407 104.298 39.2242C104.46 38.3669 105.096 37.8442 105.952 37.6822C107.513 37.3842 109.084 37.5515 110.671 37.8442L110.441 39.7574C109.241 39.5744 107.064 39.2294 106.626 39.7155C106.495 39.8619 106.454 40.2278 106.438 40.4317C106.391 41.0485 106.636 41.3412 107.195 41.5032L109.7 42.2246C110.348 42.4127 110.76 42.9825 110.833 43.6463C111.021 45.4288 110.963 47.1119 109.21 47.6032C107.498 47.9691 105.77 47.8751 104.016 47.1903H104.021Z" fill="#262624"/>
<path d="M103.765 32.7269L104.136 30.9549C105.331 31.3521 107.983 31.7337 108.249 31.0751C108.437 30.5994 108.474 30.0401 108.233 29.5906C108.119 29.3711 107.644 29.2508 107.404 29.1881L105.263 28.6131C103.864 28.2368 103.828 26.3864 104.021 24.9176C104.334 22.4713 108.134 22.994 110.426 23.3808L110.201 25.2939C108.985 25.1057 106.793 24.766 106.38 25.2521C106.135 25.5396 106.146 26.4387 106.36 26.7261C106.464 26.8673 106.782 26.9823 106.996 27.045L109.512 27.782C110.154 27.9702 110.609 28.5661 110.603 29.2456L110.593 31.2999C110.577 33.7671 106.083 33.7096 103.776 32.7269H103.765Z" fill="#262624"/>
<path d="M49.2023 47.1903L49.5677 45.4235C50.7578 45.8208 53.4251 46.1919 53.6809 45.5437C53.8636 45.0785 53.921 44.5088 53.6652 44.0697C53.5139 43.8083 52.9971 43.7038 52.71 43.6254L50.6429 43.0556C49.3067 42.6897 49.2701 40.8184 49.4528 39.3914C49.5729 38.4453 50.2671 37.839 51.2015 37.6717C52.7413 37.3999 54.276 37.5515 55.8576 37.8547L55.6331 39.7678C54.4169 39.5692 52.2298 39.2346 51.8122 39.7312C51.6869 39.8776 51.6504 40.2382 51.6347 40.4369C51.593 41.0432 51.8122 41.3412 52.3707 41.5032L54.8815 42.2245C56.2073 42.6061 56.1708 44.352 56.0194 45.7737C55.915 46.7198 55.2886 47.368 54.3856 47.6137C52.6682 47.9796 50.9405 47.875 49.2075 47.1955L49.2023 47.1903Z" fill="#262624"/>
<path d="M61.7612 47.6659L59.5062 47.6711V39.6841H56.8389L56.8441 37.6716H64.4442L64.4494 39.6841H61.7612V47.6659Z" fill="#262624"/>
<path d="M95.0795 45.6534L95.0951 47.6659L88.8835 47.6711L88.8887 37.6716L91.1437 37.6769V45.6587L95.0795 45.6534Z" fill="#262624"/>
<path d="M77.5251 47.6659L75.2493 47.6711L75.2441 37.6821L77.5251 37.6716V47.6659Z" fill="#262624"/>
<path d="M19.1725 47.6659L16.9175 47.6711V37.6716H19.1725V47.6659Z" fill="#262624"/>
<path d="M75.2702 33.192L73.01 33.1973V23.2239H75.2702V33.192Z" fill="#262624"/>
<path d="M34.0595 33.1868L31.7784 33.2025L31.7732 23.2292L34.0543 23.2188L34.0595 33.1868Z" fill="#262624"/>
<path d="M16.1763 23.156H9.77678L9.57842 23.4957L8.85286 23.4748V20.5267L9.60974 20.5006L9.71936 20.8717H16.1659L16.1763 23.156Z" fill="#262624"/>
<path d="M19.0211 8.69262C16.0615 7.43288 12.8199 7.43811 9.84985 8.69784C9.43748 8.33717 10.0325 8.149 9.92815 7.78833C9.88117 7.62106 9.60452 7.49038 9.42704 7.49038C9.29654 7.49038 9.14517 7.06176 9.26001 7.01472C12.5798 5.6243 16.3433 5.61908 19.6736 7.02517L19.5483 7.4747C19.3134 7.51652 19.1777 7.54265 19.0838 7.61583C18.7288 7.88764 19.256 8.37899 19.1882 8.47308L19.0159 8.69784L19.0211 8.69262ZM14.2241 6.4136C13.9683 6.55473 13.9787 6.92063 14.1406 7.08789C14.2502 7.19766 14.5373 7.25516 14.6782 7.15585C14.8609 7.0304 14.934 6.73245 14.84 6.58609C14.7147 6.38746 14.4485 6.28815 14.2241 6.4136ZM11.8908 6.64359C11.6403 6.73245 11.5359 7.0304 11.635 7.24993C11.7081 7.41198 12.0213 7.53743 12.1936 7.45902C12.4024 7.36493 12.5067 7.08267 12.4337 6.90495C12.3502 6.70632 12.0996 6.56518 11.8908 6.64359ZM16.6826 6.65927C16.4321 6.76381 16.3799 7.11403 16.526 7.31789C16.62 7.44857 16.9175 7.52697 17.0532 7.44334C17.2464 7.32311 17.3351 7.04085 17.262 6.86313C17.1837 6.67495 16.8914 6.57041 16.6774 6.65927H16.6826Z" fill="#262624"/>
<path d="M15.362 27.092L15.3411 24.9855C15.9153 24.5359 16.4112 23.9035 16.4164 23.1508L16.4425 18.8593H17.1107V18.185H17.664L17.6744 18.8488L18.353 18.8593V23.2657C18.1285 24.9855 17.1524 26.5118 15.3568 27.0972L15.362 27.092Z" fill="#262624"/>
<path d="M31.2564 57.911L31.1312 53.2746L29.6696 57.1322H28.6309L27.1745 53.2851L27.044 57.9058H26.3028L26.5064 52.0515L27.4825 52.0776L29.1528 56.5206L30.8127 52.0828L31.7941 52.0985L31.9977 57.9058L31.2564 57.911Z" fill="#262624"/>
<path d="M105.055 57.8953L104.005 57.9057L101.495 53.0079L101.479 57.9057H100.738V52.0671L101.787 52.0461L104.298 56.9439L104.313 52.1768C104.444 52.02 104.767 52.0148 105.049 52.1089V57.8901L105.055 57.8953Z" fill="#262624"/>
<path d="M86.9887 57.8954L85.9343 57.9058L83.434 53.0237L83.4131 57.9058H82.6771V52.0724L83.7211 52.0515L86.2371 56.9911L86.2475 52.0933L86.9835 52.0985L86.9887 57.8954Z" fill="#262624"/>
<path d="M43.2255 57.9006L42.1816 57.9163L39.6604 53.0028L39.6499 57.8745L38.9139 57.9058V52.0724L39.9684 52.0671L42.4634 56.9597L42.4843 52.0724L43.2203 52.0828L43.2255 57.9006Z" fill="#262624"/>
<path d="M39.5873 18.6972C38.8722 18.9638 38.131 18.9429 37.4524 18.7077C36.826 18.4934 36.3875 17.9132 36.3875 17.2389V14.4528C36.3875 13.7419 36.8834 13.1774 37.5411 12.9788C38.1414 12.7958 38.7939 12.8011 39.3942 12.9527C40.1145 13.1356 40.5582 13.7054 40.6313 14.4372L40.6208 17.2598C40.6208 17.8923 40.2032 18.4673 39.5873 18.6972ZM39.2219 18.07C39.6395 17.9184 39.8587 17.5107 39.8587 17.1187V14.5783C39.8587 14.0922 39.509 13.6688 39.0288 13.5851C38.037 13.4126 37.1757 13.7106 37.1705 14.4999V17.1971C37.1705 17.5839 37.442 17.955 37.8126 18.0752C38.251 18.2164 38.7521 18.232 39.2219 18.0648V18.07Z" fill="#262624"/>
<path d="M60.7747 18.7496C60.117 18.9377 59.4488 18.9273 58.8433 18.7339C58.1595 18.5196 57.7211 17.9237 57.7211 17.2076V14.4895C57.7211 13.7733 58.1856 13.1879 58.859 12.9841C59.4593 12.8011 60.1013 12.8011 60.7172 12.9579C61.4271 13.1409 61.9543 13.7524 61.9543 14.5051V17.2023C61.9543 17.9184 61.495 18.5457 60.7747 18.7548V18.7496ZM61.1766 17.2128V14.5783C61.1766 14.1288 60.8947 13.7106 60.4354 13.6061C59.4227 13.3813 58.4988 13.7158 58.4988 14.5051V17.1866C58.4988 17.6048 58.8172 17.9916 59.2087 18.1014C60.1796 18.368 61.1818 18.0387 61.1818 17.2076L61.1766 17.2128Z" fill="#262624"/>
<path d="M49.3641 16.1413H46.8846L46.8794 18.0858L49.5676 18.091V18.7914H46.0912V12.9318H49.5363V13.6375H46.8846V15.4408H49.3536L49.3641 16.1413Z" fill="#262624"/>
<path d="M23.9278 57.8431C23.2596 58.0522 22.5811 58.0417 21.9547 57.8483C21.3283 57.6549 20.8272 57.0747 20.8272 56.3795V53.5725C20.8272 52.9035 21.2813 52.3337 21.8973 52.1299C22.5654 51.9051 23.291 51.9051 23.9591 52.1246C24.5855 52.3337 25.0448 52.9035 25.0448 53.5778V56.3743C25.0448 57.0433 24.5959 57.634 23.933 57.8431H23.9278ZM23.7294 57.1897C24.0687 56.9597 24.2827 56.6565 24.2827 56.275V53.6666C24.2827 53.1544 23.9173 52.7623 23.4058 52.6787C23.0978 52.6317 22.7585 52.6264 22.4558 52.6787C21.9495 52.7676 21.5945 53.1701 21.5945 53.6719V56.2541C21.5945 56.6565 21.8242 56.9649 22.1635 57.1793C22.6802 57.3361 23.1761 57.3308 23.7346 57.1793L23.7294 57.1897Z" fill="#262624"/>
<path d="M53.6339 18.0961V16.1046L54.3804 16.0941V18.6345C53.5243 18.8436 52.6682 18.9534 51.8122 18.8175C51.071 18.7025 50.5803 18.1536 50.5751 17.3957V14.364C50.5751 13.6426 51.0449 13.0572 51.7548 12.9213C52.5847 12.7645 53.399 12.8533 54.2394 13.0101L54.1768 13.6844L52.1463 13.5642C51.7391 13.5381 51.3633 13.9144 51.3633 14.3378V17.3643C51.3633 17.7982 51.713 18.1641 52.1358 18.1536L53.6391 18.0961H53.6339Z" fill="#262624"/>
<path d="M71.3448 56.5102H68.8759L68.4061 57.911L67.6231 57.8954L69.5858 52.0776L70.6297 52.0515L72.5976 57.8954L71.8198 57.9163L71.3448 56.5154V56.5102ZM71.136 55.8202L70.1077 52.6421L69.0742 55.8359L71.136 55.8254V55.8202Z" fill="#262624"/>
<path d="M98.5246 56.5154L96.0556 56.505L95.5754 57.911L94.8028 57.8954L96.7603 52.0828L97.8095 52.0671L99.7773 57.9006L98.9996 57.9215L98.5298 56.5154H98.5246ZM98.3158 55.8254L97.2822 52.6473L96.2539 55.8307H98.3158V55.8254Z" fill="#262624"/>
<path d="M54.7248 56.5101H52.2506L51.7809 57.911L51.0031 57.8953L52.9658 52.0828L54.0097 52.0566L55.9776 57.8953L55.1999 57.9162L54.7248 56.5154V56.5101ZM54.5161 55.8202L53.4877 52.6473L52.4542 55.8358L54.5161 55.8254V55.8202Z" fill="#262624"/>
<path d="M109.747 56.5101H107.273L106.798 57.9162L106.02 57.9005L107.978 52.088L109.022 52.0566L110.995 57.9005L110.212 57.9215L109.742 56.5154L109.747 56.5101ZM109.538 55.8202L108.51 52.6578L107.477 55.8358L109.538 55.8202Z" fill="#262624"/>
<path d="M36.7216 52.1299C36.9878 52.0515 37.1966 52.0515 37.4889 52.1038L37.4785 56.4684C37.4785 57.1322 36.9669 57.6915 36.3666 57.8588C35.7194 58.0417 35.0565 58.0417 34.4144 57.8483C33.8246 57.6706 33.3444 57.1165 33.3444 56.4632L33.3287 52.0828H34.1012V56.2959C34.1012 56.5782 34.2683 56.9754 34.5136 57.1009C34.9677 57.3413 35.4636 57.3518 35.9491 57.2472C36.3823 57.1584 36.7164 56.7768 36.7164 56.322V52.1299H36.7216Z" fill="#262624"/>
<path d="M81.1947 55.2452H78.7153L78.7205 57.221L81.3722 57.2106L81.4035 57.9163H77.9271V52.0619H81.2573C81.4296 52.0723 81.4296 52.6787 81.2625 52.7362H78.7205L78.71 54.55H81.179L81.1895 55.2504L81.1947 55.2452Z" fill="#262624"/>
<path d="M66.9445 52.135C67.1637 52.041 67.456 52.041 67.7066 52.0985L65.7909 57.9005L64.7626 57.911L62.8469 52.0932L63.5777 52.0566L65.2794 57.1949L66.9497 52.135H66.9445Z" fill="#262624"/>
<path d="M32.7702 17.3016C32.7702 18.4097 34.19 18.2111 35.4114 18.0595L35.4584 18.7443C34.665 18.8697 33.9499 18.9481 33.2087 18.807C32.4674 18.6659 31.9924 18.1223 31.9976 17.3905L32.0133 14.2333C32.0185 12.7645 33.9551 12.6652 35.4897 12.9945L35.4062 13.6635C34.1952 13.5172 32.7702 13.3342 32.7702 14.4006V17.3016Z" fill="#262624"/>
<path d="M17.9615 57.2629L19.825 57.1897L19.898 57.8536C18.3634 58.1724 16.4373 58.0731 16.4373 56.5572V53.3948C16.4373 52.6892 16.9854 52.1508 17.6535 52.0358C18.4156 51.9051 19.1151 51.9835 19.898 52.1038L19.8145 52.7676C18.5304 52.6421 17.1889 52.4278 17.1889 53.5726V56.3848C17.1889 56.8238 17.4552 57.289 17.9615 57.2681V57.2629Z" fill="#262624"/>
<path d="M89.8649 57.2629L91.7283 57.1897L91.8014 57.8536C90.2668 58.1724 88.3407 58.0731 88.3407 56.5572V53.3948C88.3407 52.6892 88.8887 52.1508 89.5569 52.0358C90.319 51.9051 91.0184 51.9835 91.8014 52.1038L91.7179 52.7676C90.4338 52.6421 89.0923 52.4278 89.0923 53.5726V56.3848C89.0923 56.8238 89.3585 57.289 89.8649 57.2681V57.2629Z" fill="#262624"/>
<path d="M13.5716 24.9802V27.1024C11.9117 26.5954 10.8155 25.1579 10.5597 23.433H12.5015C12.6894 24.0655 12.9661 24.5777 13.5664 24.9802H13.5716Z" fill="#262624"/>
<path d="M45.1308 18.0857L45.1464 18.7914H41.8475V12.9422L42.6148 12.937L42.62 18.0909L45.1308 18.0857Z" fill="#262624"/>
<path d="M20.6497 7.24467L19.4231 6.49197C19.8145 6.30379 20.1852 6.02153 20.2895 5.687C20.4357 5.21133 20.3522 4.7618 20.0025 4.41681C19.5327 3.96205 18.6349 4.50044 18.5044 3.76865C18.4574 3.49161 18.6296 3.19889 18.948 3.13617C19.6997 2.98981 20.4775 3.12049 21.0412 3.65888C22.0434 4.61544 21.6989 6.05812 20.6445 7.23422L20.6497 7.24467Z" fill="#262624"/>
<path d="M8.85808 4.45861C8.52401 4.8245 8.47181 5.2479 8.59708 5.66607C8.70148 6.00583 9.00945 6.25673 9.4688 6.48672L8.25779 7.24988C7.31822 6.18355 6.838 4.92382 7.68361 3.85749C8.52923 2.79116 10.4553 2.90615 10.3979 3.67454C10.3301 4.54747 9.3383 3.93067 8.85808 4.45338V4.45861Z" fill="#262624"/>
<path d="M12.1883 3.73206C11.8804 4.01433 11.8282 4.43772 11.9117 4.78794C11.9952 5.13816 12.2562 5.38383 12.6164 5.62428L11.1705 6.15222C10.6433 5.64519 10.5232 4.99702 10.638 4.32273C10.8416 3.14663 11.7394 2.36256 12.9452 2.33643C13.3158 2.32597 13.6447 2.48278 13.6603 2.86959C13.6969 3.70593 12.6581 3.30344 12.1883 3.73206Z" fill="#262624"/>
<path d="M16.265 5.61381C16.928 5.27404 17.2464 4.54225 16.8392 3.88363C16.4321 3.22502 15.2002 3.76341 15.2367 2.88003C15.2524 2.48277 15.5447 2.32595 15.9153 2.33118C17.1837 2.34686 18.1285 3.19888 18.2799 4.45339C18.3582 5.09632 18.212 5.70789 17.7109 6.1522L16.2703 5.61381H16.265Z" fill="#262624"/>
<path d="M58.8955 57.8796L58.1282 57.9005L58.1334 52.7257L56.3952 52.7362L56.4004 52.0566H60.6233L60.6285 52.7362L58.8903 52.7205L58.8955 57.8796Z" fill="#262624"/>
<path d="M48.9569 57.8796L48.1948 57.9005V52.7257L46.4566 52.7362L46.4671 52.0566H50.6847L50.6951 52.7362L48.9569 52.7205V57.8796Z" fill="#262624"/>
<path d="M14.9966 28.5765L13.8952 28.5818L13.89 23.4383L14.9966 23.4226V28.5765Z" fill="#262624"/>
<path d="M76.7213 57.2158C76.8831 57.2786 76.9196 57.7229 76.8361 57.911H73.5789V52.1874C73.7408 52.0253 74.0487 52.0149 74.341 52.1142V57.2158H76.7213Z" fill="#262624"/>
<path d="M56.4579 18.7757L55.6905 18.7914L55.6853 12.9474H56.4579V18.7757Z" fill="#262624"/>
<path d="M93.785 57.9005L93.0177 57.8849V52.088L93.785 52.0723V57.9005Z" fill="#262624"/>
<path d="M45.5066 57.885L44.7393 57.9111V52.0776L45.5014 52.0881L45.5066 57.885Z" fill="#262624"/>
<path d="M12.4493 20.6627L10.5284 20.6679L10.518 18.8593H11.1861L11.2175 18.1903L11.7655 18.1798L11.7708 18.8541H12.4337L12.4493 20.6627Z" fill="#262624"/>
<path d="M19.3604 23.4853C19.2873 23.4853 19.2508 23.1821 19.1777 23.1769L18.6818 23.1508L18.6923 20.8665H19.1725C19.2456 20.8665 19.2664 20.6418 19.2925 20.5215H20.0599V23.4749L19.3604 23.4853Z" fill="#262624"/>
<path d="M18.9376 34.3838L18.2695 34.7706C17.6953 33.5579 16.7609 32.7216 15.6334 32.1152C15.9258 31.7493 16.2598 31.8382 16.6096 31.9898C17.664 32.4602 18.3843 33.3436 18.9376 34.3838Z" fill="#262624"/>
<path d="M10.6328 34.7811L9.94902 34.3734C10.6276 33.1921 11.4315 32.1937 12.773 31.8331C12.9087 31.7965 13.1697 32.0003 13.2427 32.1415C12.0787 32.7426 11.1861 33.5946 10.638 34.7811H10.6328Z" fill="#262624"/>
<path d="M17.4291 30.8085C16.7505 30.7458 16.1241 30.8033 15.576 31.2894L14.7408 30.6464C15.4507 29.9199 16.3903 29.7421 17.3038 30.014L17.4238 30.8033L17.4291 30.8085Z" fill="#262624"/>
<path d="M13.3315 31.2946C12.7625 30.8085 12.1779 30.7301 11.4628 30.8242L11.5724 30.0244C12.4546 29.7526 13.4359 29.8885 14.1301 30.6465L13.3315 31.2946Z" fill="#262624"/>
<path d="M14.7722 5.60856L14.1354 5.62424V2.21094H14.767L14.7722 5.60856Z" fill="#262624"/>
<path d="M27.1327 17.5735C26.2819 17.0612 26.1358 15.9583 26.7935 15.2213C27.6339 15.6969 27.8009 16.8469 27.1327 17.5735Z" fill="#262624"/>
<path d="M3.45553 25.6284C3.01184 25.6389 2.58904 25.3357 2.3698 25.0169C2.08271 24.5987 2.03573 24.1126 2.19755 23.6369C3.12146 23.7833 3.7374 24.6039 3.45031 25.6284H3.45553Z" fill="#262624"/>
<path d="M1.95743 21.7917C1.05962 21.3527 0.845604 20.2654 1.45633 19.4761C2.28106 19.8891 2.58903 20.9659 1.95743 21.7917Z" fill="#262624"/>
<path d="M24.7316 27.3952C24.6794 28.4041 23.839 29.047 22.8577 28.8431C22.8577 28.4145 23.0613 27.965 23.3744 27.7036C23.7503 27.3952 24.2357 27.2959 24.7264 27.3952H24.7316Z" fill="#262624"/>
<path d="M4.07149 11.6668C4.30117 12.5764 3.8105 13.4284 2.93879 13.6061C2.56296 12.707 2.98055 11.7505 3.9149 11.4839L4.07149 11.6668Z" fill="#262624"/>
<path d="M23.5833 10.2921C22.5863 10.36 21.8398 9.49757 21.9912 8.54624C22.9464 8.48352 23.7137 9.26758 23.5833 10.2921Z" fill="#262624"/>
<path d="M9.45837 31.0646C8.63885 31.5455 7.56356 31.0908 7.30779 30.1028C8.11686 29.6951 9.13474 30.0401 9.45837 31.0646Z" fill="#262624"/>
<path d="M16.6357 33.1502L17.1002 33.9186C16.1346 34.3054 15.1637 33.929 14.6626 32.9673L15.4769 32.5229C15.5969 32.7686 15.7065 32.9986 15.837 33.0979C16.0249 33.2391 16.3434 33.2234 16.6409 33.1502H16.6357Z" fill="#262624"/>
<path d="M6.05501 28.8012C5.13632 29.1044 4.19675 28.3988 4.16543 27.4056C5.04758 27.1756 5.9454 27.7401 6.05501 28.8012Z" fill="#262624"/>
<path d="M14.4851 32.5805C14.0779 32.4289 13.6656 32.0316 13.4881 31.6919C13.4411 31.5978 13.5507 31.2475 13.6499 31.2685L14.0779 31.3573L14.4381 31.0698C14.5216 31.0019 14.7356 31.2998 14.7826 31.3625L15.2367 31.2789C15.3516 31.258 15.4612 31.6814 15.3881 31.7807C15.1637 32.0734 14.8505 32.3661 14.4851 32.5909V32.5805Z" fill="#262624"/>
<path d="M25.4937 25.665C25.2745 25.2364 25.3371 24.7398 25.6242 24.2903C25.8174 23.9871 26.2349 23.6944 26.6995 23.6473C26.9814 24.5569 26.522 25.4611 25.4937 25.6702V25.665Z" fill="#262624"/>
<path d="M11.8073 33.929L12.2457 33.1659C12.4754 33.2077 12.7834 33.2338 12.9922 33.1554C13.1592 33.0927 13.2949 32.8104 13.4046 32.5229L14.2397 32.9673C13.8013 33.8768 12.8252 34.3263 11.8073 33.929Z" fill="#262624"/>
<path d="M21.5841 30.0924C21.3387 31.0803 20.3261 31.4933 19.4439 31.1169C19.6527 30.1865 20.6393 29.6533 21.5841 30.0924Z" fill="#262624"/>
<path d="M26.9657 21.797C26.308 21.0286 26.569 19.9361 27.4355 19.4761C28.0097 20.187 27.8844 21.2847 26.9657 21.797Z" fill="#262624"/>
<path d="M1.76952 17.5735C1.0805 16.8521 1.25798 15.7231 2.08272 15.2213C2.74564 15.9217 2.62558 17.0403 1.76952 17.5735Z" fill="#262624"/>
<path d="M6.89542 8.54616C7.03635 9.57068 6.31601 10.3129 5.33468 10.3025C5.25117 9.84771 5.35556 9.39296 5.69485 9.02183C5.95584 8.73434 6.40475 8.52003 6.89542 8.54616Z" fill="#262624"/>
<path d="M25.9583 13.6008C24.977 13.3865 24.4967 12.3463 24.9195 11.4681C25.8748 11.7243 26.3341 12.6547 25.9583 13.6008Z" fill="#262624"/>
<path d="M27.044 18.2896C26.0575 18.3889 25.2484 17.5682 25.2432 16.5437C26.0575 16.7894 26.7152 17.3853 27.044 18.2896Z" fill="#262624"/>
<path d="M28.6674 16.0786C28.944 17.0874 28.3855 17.9812 27.4355 18.2739C27.4355 17.3801 27.9053 16.549 28.6674 16.0786Z" fill="#262624"/>
<path d="M1.91568 22.5444C0.929132 22.6594 0.0469786 21.9329 0 20.8979C0.871714 21.1331 1.54507 21.682 1.91568 22.5444Z" fill="#262624"/>
<path d="M2.29673 22.4712C2.23409 21.5617 2.67256 20.7515 3.36158 20.1765C3.70609 21.1017 3.30416 22.121 2.29673 22.4712Z" fill="#262624"/>
<path d="M27.5712 25.4769C27.2528 26.3916 26.1358 26.8202 25.2432 26.3707C25.8539 25.7069 26.6264 25.4037 27.5712 25.4769Z" fill="#262624"/>
<path d="M2.46899 14.1758C1.63381 13.6897 1.37804 12.5815 1.94178 11.7191C2.48987 12.362 2.69344 13.2297 2.46899 14.1758Z" fill="#262624"/>
<path d="M3.64344 16.549C3.6591 17.5473 2.90222 18.3314 1.85303 18.3209C2.11403 17.4846 2.77173 16.8312 3.64344 16.549Z" fill="#262624"/>
<path d="M21.3178 32.1153C20.4827 32.7007 19.3865 32.4289 18.8541 31.5769C19.7206 31.3835 20.5766 31.5089 21.3178 32.1153Z" fill="#262624"/>
<path d="M22.1687 29.1201C21.6258 28.2681 21.9494 27.1861 22.8055 26.6791C22.9986 27.5259 22.8055 28.3936 22.1687 29.1201Z" fill="#262624"/>
<path d="M6.51435 29.4181C5.82011 30.176 4.67175 30.1342 3.97229 29.439C4.78658 29.0156 5.67396 29.0261 6.51435 29.4181Z" fill="#262624"/>
<path d="M3.64345 26.3812C2.7874 26.7941 1.68079 26.4439 1.29974 25.4716C2.1297 25.4141 2.99097 25.6337 3.64345 26.3812Z" fill="#262624"/>
<path d="M6.74404 29.1202C6.09156 28.4563 5.9193 27.5573 6.08112 26.6843C6.92673 27.1391 7.2608 28.2054 6.74404 29.1202Z" fill="#262624"/>
<path d="M28.8919 20.9031C28.8605 21.8963 28.0201 22.6333 26.9866 22.5601C27.3207 21.7342 27.9888 21.1436 28.8919 20.9031Z" fill="#262624"/>
<path d="M3.97233 26.1982C3.65913 25.3044 3.75309 24.4001 4.23854 23.6735C4.90146 24.4524 4.76574 25.5657 3.97233 26.1982Z" fill="#262624"/>
<path d="M19.8354 29.0103C19.8824 29.8728 19.4439 30.6987 18.7079 31.2475C18.4052 30.3537 18.7862 29.3396 19.8354 29.0103Z" fill="#262624"/>
<path d="M10.1996 31.2214C9.48446 30.7771 9.05121 29.946 9.03555 29.0051C9.9699 29.2717 10.5023 30.2021 10.1996 31.2214Z" fill="#262624"/>
<path d="M5.02151 13.2193C4.79705 14.1915 3.71655 14.6724 2.78741 14.3431C3.33028 13.6584 4.0454 13.2141 5.02151 13.2193Z" fill="#262624"/>
<path d="M10.0169 31.5822C9.53666 32.4289 8.40918 32.6903 7.56878 32.1153C8.24214 31.5874 9.0721 31.3365 10.0169 31.5822Z" fill="#262624"/>
<path d="M23.9278 10.9507C23.1239 11.5675 21.986 11.3428 21.4484 10.5064C22.3253 10.2608 23.1605 10.4019 23.9278 10.9507Z" fill="#262624"/>
<path d="M24.2096 10.7102C23.7503 9.98888 23.6616 9.08459 24.0008 8.19598C24.7473 8.78665 24.9091 9.90002 24.2096 10.7102Z" fill="#262624"/>
<path d="M7.44347 10.5273C6.84319 11.3845 5.77312 11.5309 4.94317 10.9664C5.71049 10.4227 6.62918 10.2346 7.44347 10.5273Z" fill="#262624"/>
<path d="M24.8934 29.4233C24.2357 30.1655 23.0717 30.1446 22.3827 29.4285C23.1761 29.026 24.0426 28.9999 24.8934 29.4233Z" fill="#262624"/>
<path d="M4.68221 10.7154C4.01929 9.91566 4.11325 8.80752 4.89623 8.20117C5.23552 9.07933 5.152 9.99407 4.68221 10.7154Z" fill="#262624"/>
<path d="M26.4542 14.1654C26.1671 13.3657 26.3811 12.4405 26.9448 11.7034C27.4825 12.5136 27.3468 13.5538 26.4542 14.1654Z" fill="#262624"/>
<path d="M24.93 26.1669C24.1261 25.6076 24.0061 24.4262 24.6585 23.6735C25.1335 24.4367 25.2432 25.2678 24.93 26.1669Z" fill="#262624"/>
<path d="M26.6055 22.4555C25.6294 22.1628 25.1805 21.1122 25.5198 20.1922C26.1723 20.7201 26.6369 21.4833 26.6055 22.4555Z" fill="#262624"/>
<path d="M26.0783 14.3274C25.1753 14.6828 24.1209 14.181 23.839 13.2036C24.7107 13.2192 25.4989 13.5538 26.0783 14.3274Z" fill="#262624"/>
<path d="M1.472 18.2425C0.558524 18.07 -0.057418 17.0925 0.229673 16.0732C0.913473 16.5332 1.40414 17.2284 1.472 18.2425Z" fill="#262624"/>
<path d="M14.7722 1.83982H14.1354V0.0103321L14.767 -0.00012207L14.7722 1.83982Z" fill="#262624"/>
<path d="M21.7511 21.4833C21.4118 21.3736 20.7437 21.5199 20.3835 21.5513L20.1591 21.5147C20.1277 21.5147 20.2843 21.3788 20.3157 21.3788C20.6758 21.3631 21.3701 21.3945 21.7302 21.2167C22.0382 21.0599 22.247 20.9658 22.5497 21.0129L22.3671 21.2638C22.3305 21.3108 22.4506 21.3892 22.5967 21.5199C22.2783 21.6192 22.0904 21.5931 21.7511 21.4886V21.4833Z" fill="#262624"/>
<path d="M21.7041 20.8247L20.1747 21.0077L20.2165 20.9136L21.6572 20.5999C21.8712 20.4327 22.1478 20.2184 22.4401 20.3177L22.2627 20.5581C22.2261 20.6052 22.3671 20.6731 22.4976 20.7358C22.3462 21.0861 21.939 20.7933 21.7041 20.8195V20.8247Z" fill="#262624"/>
<path d="M22.5132 23.1821L22.2835 23.3651C22.2313 23.4069 22.3357 23.5219 22.4349 23.6892C22.1426 23.6996 21.8868 23.548 21.6571 23.386L20.1695 23.0515V22.9208C20.6445 23.0096 21.1665 23.1455 21.678 23.1455C21.9338 23.1455 22.2313 22.973 22.508 23.1821H22.5132Z" fill="#262624"/>
<path d="M21.7198 22.7222L20.2165 22.5497L20.1643 22.4608L20.8846 22.4817C21.1821 22.4922 21.5684 22.5863 21.819 22.4922C22.106 22.3876 22.3409 22.372 22.5549 22.466C22.4453 22.5706 22.3357 22.6542 22.3566 22.6908L22.5497 22.9783C22.2574 23.0254 22.0016 22.9156 21.7198 22.7222Z" fill="#262624"/>
<path d="M21.7981 22.1001C21.3074 21.9328 20.7176 22.0478 20.1643 21.9485L21.7929 21.8753C21.9964 21.8649 22.3357 21.4833 22.5758 21.8178L22.3723 21.9694C22.3409 21.9955 22.4767 22.0844 22.5758 22.1576C22.3566 22.4712 22.0591 22.1942 21.7981 22.1105V22.1001Z" fill="#262624"/>
<path d="M8.47181 21.5461C8.11164 21.5984 7.42263 21.4154 7.03636 21.4572C6.80668 21.4834 6.77536 21.4886 6.43085 21.337L6.72839 21.1279C6.80146 21.0756 7.00504 21.2377 7.099 21.2481L8.53967 21.3893C8.57099 21.3893 8.73281 21.5095 8.70149 21.5147L8.47181 21.5461Z" fill="#262624"/>
<path d="M8.69102 21.0024L7.14595 20.7986C6.93715 20.8613 6.77012 20.8352 6.51435 20.5843C6.78578 20.417 6.97369 20.5006 7.27122 20.6104C7.72535 20.7829 8.24212 20.694 8.69102 20.9972V21.0024Z" fill="#262624"/>
<path d="M6.54567 23.4487C6.63441 23.0828 6.95804 23.1873 7.23991 23.1508L8.69625 22.9469V23.0514L7.18771 23.386C6.99458 23.4278 7.00502 23.5742 6.54567 23.4539V23.4487Z" fill="#262624"/>
<path d="M8.71192 22.4974C8.03334 22.7587 7.37042 22.4765 6.90064 22.8633L6.39953 22.6908L6.80668 22.4712C7.51136 22.6803 8.0751 22.3249 8.71192 22.4974Z" fill="#262624"/>
<path d="M8.6806 21.9486L7.09377 22.074C6.82756 22.095 6.59789 22.2622 6.39953 21.9434C6.71794 21.7709 6.87976 21.8022 7.08855 21.8702L8.6806 21.9486Z" fill="#262624"/>
<path d="M26.0992 19.3245C26.2715 19.2827 26.475 19.3506 26.4959 19.4395C26.5272 19.5597 26.4594 19.8106 26.3498 19.8367C26.261 19.8576 26.0627 19.8054 25.9896 19.7531C25.9009 19.6851 25.9844 19.3558 26.0992 19.3245Z" fill="#262624"/>
<path d="M25.3371 23.1038C25.405 23.041 25.6869 23.0567 25.7547 23.1195C25.8382 23.1979 25.8017 23.4488 25.713 23.5585C25.6399 23.6474 25.4259 23.5899 25.3215 23.5167C25.2275 23.4488 25.2379 23.1979 25.3371 23.1038Z" fill="#262624"/>
<path d="M23.5989 26.4386C23.6877 26.3968 23.9591 26.4334 24.0009 26.5118C24.0531 26.6111 24.0165 26.8359 23.933 26.9038C23.8495 26.9718 23.6198 26.9613 23.5415 26.8829C23.4632 26.8045 23.505 26.4857 23.6041 26.4386H23.5989Z" fill="#262624"/>
<path d="M4.91708 26.4909C4.96928 26.4125 5.28769 26.3916 5.34511 26.4648C5.41296 26.5537 5.43906 26.7628 5.37121 26.8516C5.31379 26.9248 5.12587 26.9614 5.03714 26.9562C4.9223 26.9457 4.8179 26.6425 4.91708 26.4909Z" fill="#262624"/>
<path d="M2.58382 19.2984C2.66734 19.2618 2.89701 19.3506 2.92833 19.4395C2.96487 19.544 2.89179 19.7949 2.7874 19.842C2.683 19.889 2.43767 19.7949 2.39069 19.6956C2.34371 19.5963 2.45333 19.3611 2.58382 19.3036V19.2984Z" fill="#262624"/>
<path d="M7.34952 9.346C7.4226 9.2885 7.70969 9.30418 7.76711 9.37736C7.84018 9.46099 7.80365 9.69621 7.70447 9.80075C7.63139 9.88439 7.4226 9.83734 7.32342 9.76939C7.23468 9.70667 7.25034 9.41917 7.3443 9.346H7.34952Z" fill="#262624"/>
<path d="M25.5094 15.5036C25.5772 15.4408 25.8643 15.4565 25.927 15.5245C26.0053 15.6029 25.9687 15.8642 25.8748 15.9531C25.7965 16.0315 25.5877 15.9897 25.4937 15.9217C25.3998 15.8538 25.4206 15.5767 25.5042 15.5036H25.5094Z" fill="#262624"/>
<path d="M21.1769 9.34604C21.2448 9.28854 21.5319 9.29899 21.5945 9.37217C21.6676 9.45581 21.631 9.69625 21.5371 9.8008C21.4588 9.88443 21.2604 9.84261 21.156 9.76421C21.0673 9.70148 21.083 9.42967 21.1821 9.34604H21.1769Z" fill="#262624"/>
<path d="M20.728 28.9059C20.8481 28.9059 21.0255 28.9791 21.0516 29.0679C21.0882 29.2038 21.0255 29.4181 20.9159 29.4443C20.775 29.4756 20.5453 29.392 20.5088 29.2875C20.4722 29.1829 20.6132 28.9059 20.728 28.9059Z" fill="#262624"/>
<path d="M23.7816 12.1059C23.8338 12.0223 24.1574 11.9961 24.2253 12.0641C24.3036 12.1425 24.3192 12.362 24.2514 12.4561C24.194 12.5293 24.0321 12.5711 23.9382 12.5606C23.8181 12.5554 23.6981 12.2522 23.7868 12.1059H23.7816Z" fill="#262624"/>
<path d="M4.63521 12.1111C4.68741 12.0274 5.01104 11.9961 5.07368 12.064C5.15198 12.1424 5.16764 12.362 5.09978 12.456C5.04236 12.5292 4.88055 12.571 4.78659 12.5606C4.66131 12.5501 4.54126 12.2522 4.63521 12.1111Z" fill="#262624"/>
<path d="M3.19454 23.0881C3.26761 23.0306 3.54949 23.0672 3.59646 23.1456C3.65388 23.2397 3.61734 23.4592 3.53383 23.5481C3.46075 23.6265 3.23107 23.5899 3.14756 23.5219C3.06404 23.454 3.09014 23.1665 3.19454 23.0881Z" fill="#262624"/>
<path d="M3.01186 15.493C3.07972 15.4355 3.36159 15.4721 3.42423 15.54C3.4973 15.6236 3.46076 15.8641 3.37203 15.953C3.29373 16.0261 3.08494 15.9948 2.99098 15.9216C2.90224 15.8536 2.9179 15.5766 3.01708 15.493H3.01186Z" fill="#262624"/>
<path d="M8.02812 28.9111C8.18993 28.9111 8.37263 29.0104 8.38829 29.0992C8.40917 29.2299 8.32043 29.3763 8.17949 29.4651C8.049 29.4913 7.9185 29.4286 7.86108 29.3188C7.79845 29.2665 7.9185 28.9163 8.02812 28.9111Z" fill="#262624"/>
</g>
<defs>
<clipPath id="clip0_10243_3933">
<rect width="111" height="58" fill="white"/>
</clipPath>
</defs>
</svg>
