<svg width="1824" height="287" viewBox="0 0 1824 287" fill="none" xmlns="http://www.w3.org/2000/svg">
<g clip-path="url(#clip0_10875_1573)">
<path d="M1818.02 139.595C1814.03 129.309 1808.47 120.338 1801.34 112.672C1794.2 105.011 1785.8 98.9754 1776.14 94.5644C1766.49 90.1534 1755.88 87.9541 1744.34 87.9541C1741.4 87.9541 1738.05 88.3248 1734.27 89.0537C1730.48 89.7889 1725.65 91.945 1719.78 95.5096H1718.52L1785.91 18.0457H1714.43L1659.32 84.8034C1646.94 99.9206 1637.75 115.297 1631.77 130.933C1625.79 146.576 1622.79 161.112 1622.79 174.543C1622.79 184.575 1624.42 194.126 1627.67 203.195H1562.97L1602.33 166.351C1614.5 154.811 1623.37 143.524 1628.93 132.502C1634.49 121.481 1637.28 109.465 1637.28 96.4486C1637.28 84.2783 1634.97 72.9914 1630.35 62.6003C1625.73 52.2091 1619.33 43.2327 1611.15 35.6772C1602.96 28.1218 1593.25 22.2466 1582.02 18.0457C1570.79 13.851 1558.56 11.7505 1545.33 11.7505C1532.11 11.7505 1519.56 13.956 1508.34 18.3608C1497.1 22.7717 1487.39 29.067 1479.21 37.2526C1471.02 45.4382 1464.67 55.1992 1460.15 66.5355C1455.64 77.8719 1453.38 90.4685 1453.38 104.325H1520.77C1520.14 99.9144 1519.83 96.5598 1519.83 94.2493C1519.83 86.0637 1522.19 79.2433 1526.91 73.7821C1531.64 68.3271 1538.19 65.5965 1546.59 65.5965C1551.01 65.5965 1554.83 66.3811 1558.09 67.9564C1561.34 69.5318 1564.12 71.6323 1566.43 74.2517C1568.74 76.8772 1570.47 79.8735 1571.63 83.2281C1572.78 86.5888 1573.36 90.0546 1573.36 93.6192C1573.36 96.9799 1572.83 101.076 1571.78 105.901C1570.73 110.732 1568.05 117.033 1563.75 124.793C1559.44 132.564 1552.89 142.06 1544.07 153.291C1535.25 164.522 1523.08 178.218 1507.54 194.386L1448.65 255.472H1639.79V225.485C1642.73 229.309 1646.03 232.905 1649.7 236.265C1658.41 244.247 1668.96 250.542 1681.35 255.157C1693.74 259.772 1707.81 262.083 1723.55 262.083C1739.29 262.083 1753.04 259.772 1765.43 255.157C1777.81 250.542 1788.36 244.192 1797.08 236.105C1805.79 228.024 1812.45 218.578 1817.07 207.767C1821.69 196.956 1824 185.255 1824 172.658C1824 160.902 1822 149.881 1818.02 139.595H1818.02ZM1759.45 189.19C1757.35 193.916 1754.52 198.062 1750.95 201.626C1747.38 205.197 1743.24 208.033 1738.52 210.127C1733.79 212.227 1728.7 213.278 1723.24 213.278C1717.79 213.278 1712.69 212.227 1707.97 210.127C1703.25 208.033 1699.1 205.197 1695.54 201.626C1691.97 198.062 1689.13 193.91 1687.04 189.19C1684.94 184.464 1683.88 179.38 1683.88 173.919C1683.88 168.457 1684.94 163.367 1687.04 158.647C1689.13 153.921 1691.97 149.782 1695.54 146.211C1699.1 142.646 1703.25 139.811 1707.97 137.71C1712.7 135.616 1717.78 134.56 1723.24 134.56C1728.71 134.56 1733.8 135.61 1738.52 137.71C1743.24 139.811 1747.38 142.646 1750.95 146.211C1754.52 149.782 1757.35 153.927 1759.45 158.647C1761.55 163.373 1762.6 168.464 1762.6 173.919C1762.6 179.374 1761.55 184.47 1759.45 189.19Z" fill="#0047AF"/>
<path d="M813.975 20.4673H747.978V252.581H813.975V20.4673Z" fill="#0047AF"/>
<path d="M670.684 20.8075H604.118V208.651L525.827 20.4059L470.139 20.4615L414.156 160.834L414.768 20.3441L348.208 20.3812L348.615 177.236C348.615 177.236 347.435 196.919 328.408 196.919C309.38 196.919 309.429 177.644 309.411 176.921C309.275 170.954 307.73 20.4121 307.73 20.4121C307.73 20.4121 289.141 20.4615 282.228 20.4615H237.328V80.4112C216.607 39.6499 174.308 11.7075 125.453 11.7075C56.1689 11.7075 0 67.8764 0 137.161C0 206.445 56.1689 262.614 125.453 262.614C141.849 262.614 157.485 259.439 171.843 253.718L195.683 286.226L245.044 250.024L221.463 217.874C229.012 208.898 235.246 198.809 240.071 187.961C246.947 219.048 265.548 242.159 295.671 253.934C326.882 266.129 356.498 259.735 383.409 239.101L380.777 251.815L450.97 252.34C450.97 252.34 459.056 230.638 463.06 220.012C486.418 220.012 510.481 219.981 534.543 220.098L553.355 252.513L739.956 252.581V197.073L670.697 196.443C670.697 196.443 670.691 36.0605 670.691 20.8136L670.684 20.8075ZM174.592 153.965L149.38 119.591L100.019 155.793L124.434 189.079C96.2074 188.53 73.4854 165.517 73.4854 137.161C73.4854 108.805 96.7511 85.1929 125.453 85.1929C154.156 85.1929 177.421 108.465 177.421 137.161C177.421 143.048 176.396 148.689 174.592 153.965ZM483.113 160.013C488.302 145.587 493.294 131.7 498.545 117.101C504.834 131.811 510.666 145.445 516.887 160.013H483.107H483.113Z" fill="#0047AF"/>
<path d="M1452.79 201.552C1448.73 194.398 1439.65 191.89 1432.5 195.943C1335.6 250.87 1287.97 248.794 1281.13 239.416C1279.15 236.698 1279.15 229.6 1285.11 217.806C1290.48 207.205 1302.52 189.345 1329.44 164.491C1347.09 148.2 1369.42 123.854 1359.67 100.643C1351.34 80.8064 1324.76 75.9692 1305.49 74.0541C1299.66 73.4734 1293.53 73.1027 1287.23 72.8926C1293.11 56.2372 1293.03 44.7341 1288.12 35.597C1284.32 28.5172 1275.79 20.0783 1256.68 20.0783C1232.71 20.0783 1212.03 37.679 1202.94 54.0379C1195.68 67.1164 1194.99 80.2134 1201.06 89.9682C1205.27 96.7267 1214.29 104.585 1233.33 103.627C1235.15 103.535 1236.99 103.448 1238.85 103.362C1231.5 115.822 1222.31 130.353 1211.14 147.181C1193.29 174.067 1159.44 200.799 1120.57 218.696C1089.17 233.158 1058.78 239.991 1036.05 238.051C1049.52 231.175 1062.59 223.144 1075.15 214.019C1117.38 183.346 1149.8 142.943 1161.87 105.938C1172.3 73.9614 1166.07 47.1743 1144.78 32.4463C1133.83 24.8661 1120.31 21.3509 1105.69 22.2776C1092.74 23.0993 1079.1 27.2508 1065.16 34.6148C1039.52 48.1504 1015.52 71.0207 997.567 99.0249C977.6 130.174 967.153 164.436 967.351 198.105C967.425 210.177 969.612 220.938 973.776 230.187C954.47 235.203 935.06 237.495 915.877 237.007C900.631 236.618 888.701 232.719 880.417 225.423C873.009 218.9 868.487 209.602 866.961 197.79C863.508 170.984 875.765 136.333 899.753 105.098C927.442 69.0438 967.228 42.0838 1011.78 29.1844C1019.67 26.8986 1024.22 18.645 1021.94 10.7498C1019.65 2.8545 1011.39 -1.69239 1003.5 0.593407C952.901 15.2411 907.673 45.914 876.148 86.9657C847.47 124.305 833.002 167.154 837.444 201.596C839.884 220.518 847.94 236.482 860.746 247.762C874.412 259.803 892.711 266.197 915.13 266.766C941.602 267.439 968.352 263.516 994.731 255.102C1000.4 258.926 1006.9 261.959 1014.18 264.134C1023.07 266.79 1033.05 268.094 1043.87 268.094C1070.07 268.094 1101.11 260.433 1133.04 245.73C1177.37 225.318 1214.88 195.399 1235.96 163.639C1252.32 138.995 1264.73 118.961 1273.64 102.435C1283.45 102.447 1293 102.769 1301.69 103.596C1328.49 106.136 1332.21 112.128 1332.22 112.134C1332.24 112.208 1333.28 120.431 1309.25 142.616C1285.02 164.992 1267.96 185.768 1258.55 204.369C1245.07 231.033 1250.31 247.688 1257.09 256.967C1265.57 268.588 1280.26 274.296 1300.06 274.296C1335.1 274.296 1386.15 256.442 1447.18 221.846C1454.34 217.794 1456.85 208.706 1452.79 201.558L1452.79 201.552ZM1002.32 220.734C998.87 214.779 997.172 207.23 997.122 197.926C996.764 137.229 1039.07 82.042 1079.06 60.9323C1090.38 54.9584 1101.06 51.9374 1110.26 51.9374C1117.06 51.9374 1123.04 53.5869 1127.85 56.9167C1140.47 65.646 1137.93 83.3641 1133.58 96.6958C1123.53 127.486 1094.45 163.213 1057.66 189.926C1040.16 202.64 1021.59 212.975 1002.32 220.734ZM1255.08 72.9359C1247.15 73.1645 1239.32 73.5104 1231.84 73.8811C1229.45 73.9985 1227.86 73.8502 1226.86 73.6649C1227.35 71.3543 1229.16 67.1102 1233.41 62.2606C1240.12 54.6001 1249.04 49.8369 1256.68 49.8369C1259.4 49.8369 1261.03 50.1149 1261.91 50.3497C1262.02 52.4996 1261.5 58.7392 1255.08 72.9359Z" fill="#0047AF"/>
</g>
<defs>
<clipPath id="clip0_10875_1573">
<rect width="1824" height="286.225" fill="white"/>
</clipPath>
</defs>
</svg>
