<svg width="182" height="29" viewBox="0 0 182 29" fill="none" xmlns="http://www.w3.org/2000/svg">
<g clip-path="url(#clip0_10296_422)">
<path d="M181.404 13.9289C181.006 12.9025 180.45 12.0075 179.739 11.2425C179.026 10.4781 178.188 9.87585 177.225 9.43572C176.261 8.99559 175.203 8.77614 174.052 8.77614C173.758 8.77614 173.423 8.81313 173.046 8.88586C172.669 8.95922 172.187 9.17435 171.601 9.53003H171.475L178.199 1.80063H171.067L165.568 8.46176C164.332 9.97016 163.416 11.5045 162.819 13.0646C162.222 14.6254 161.923 16.0759 161.923 17.416C161.923 18.4171 162.086 19.3701 162.41 20.275H155.954L159.881 16.5986C161.095 15.4471 161.981 14.3209 162.536 13.2212C163.091 12.1215 163.369 10.9225 163.369 9.62373C163.369 8.40936 163.138 7.28315 162.678 6.24632C162.217 5.20948 161.578 4.31381 160.761 3.55992C159.945 2.80603 158.976 2.2198 157.855 1.80063C156.734 1.38208 155.514 1.17249 154.195 1.17249C152.875 1.17249 151.623 1.39256 150.503 1.83207C149.382 2.2722 148.413 2.90034 147.596 3.71711C146.78 4.53388 146.146 5.50783 145.695 6.63898C145.245 7.77013 145.02 9.02703 145.02 10.4097H151.744C151.681 9.96955 151.649 9.63483 151.649 9.40428C151.649 8.58751 151.885 7.90698 152.356 7.36205C152.828 6.81775 153.482 6.54528 154.32 6.54528C154.76 6.54528 155.142 6.62357 155.467 6.78076C155.791 6.93795 156.068 7.14754 156.3 7.4089C156.53 7.67088 156.703 7.96985 156.818 8.30457C156.933 8.63991 156.991 8.98573 156.991 9.3414C156.991 9.67674 156.938 10.0854 156.833 10.5669C156.729 11.0489 156.461 11.6777 156.032 12.4519C155.602 13.2274 154.948 14.1748 154.068 15.2955C153.189 16.4162 151.974 17.7828 150.423 19.396L144.547 25.4912H163.619V22.4991C163.913 22.8806 164.242 23.2394 164.608 23.5747C165.478 24.3712 166.53 24.9993 167.766 25.4598C169.002 25.9203 170.406 26.1508 171.977 26.1508C173.547 26.1508 174.919 25.9203 176.155 25.4598C177.391 24.9993 178.444 24.3656 179.313 23.5587C180.183 22.7524 180.848 21.8099 181.309 20.7312C181.769 19.6524 182 18.4849 182 17.228C182 16.0549 181.801 14.9552 181.403 13.9289H181.404ZM175.559 18.8776C175.35 19.3491 175.067 19.7628 174.711 20.1184C174.355 20.4747 173.941 20.7577 173.47 20.9666C172.999 21.1762 172.491 21.281 171.946 21.281C171.402 21.281 170.894 21.1762 170.423 20.9666C169.951 20.7577 169.537 20.4747 169.182 20.1184C168.825 19.7628 168.543 19.3485 168.334 18.8776C168.124 18.406 168.019 17.8987 168.019 17.3537C168.019 16.8088 168.124 16.3009 168.334 15.8299C168.543 15.3584 168.825 14.9454 169.182 14.5891C169.537 14.2334 169.952 13.9504 170.423 13.7409C170.894 13.5319 171.402 13.4265 171.946 13.4265C172.491 13.4265 172.999 13.5313 173.47 13.7409C173.942 13.9504 174.355 14.2334 174.711 14.5891C175.067 14.9454 175.35 15.359 175.559 15.8299C175.768 16.3015 175.874 16.8094 175.874 17.3537C175.874 17.8981 175.769 18.4066 175.559 18.8776Z" fill="#262624"/>
<path d="M81.219 2.04223H74.6337V25.2027H81.219V2.04223Z" fill="#262624"/>
<path d="M66.9214 2.07619H60.2793V20.8193L52.4673 2.03612L46.9109 2.04167L41.3248 16.0482L41.3858 2.02995L34.7444 2.03365L34.7851 17.6848C34.7851 17.6848 34.6673 19.6487 32.7687 19.6487C30.8701 19.6487 30.8751 17.7255 30.8732 17.6533C30.8597 17.0579 30.7056 2.03673 30.7056 2.03673C30.7056 2.03673 28.8507 2.04167 28.1609 2.04167H23.6807V8.02349C21.6132 3.95629 17.3925 1.16819 12.5178 1.16819C5.60457 1.16819 0 6.77276 0 13.686C0 20.5993 5.60457 26.2038 12.5178 26.2038C14.1538 26.2038 15.714 25.887 17.1466 25.3162L19.5254 28.5598L24.4506 24.9475L22.0977 21.7396C22.851 20.844 23.473 19.8373 23.9544 18.7549C24.6405 21.8568 26.4966 24.1628 29.5023 25.3377C32.6165 26.5546 35.5716 25.9166 38.2568 23.8577L37.9942 25.1263L44.9981 25.1787C44.9981 25.1787 45.805 23.0132 46.2044 21.9529C48.5351 21.9529 50.9361 21.9499 53.3371 21.9616L55.2141 25.196L73.8334 25.2027V19.6641L66.9226 19.6013C66.9226 19.6013 66.922 3.59815 66.922 2.0768L66.9214 2.07619ZM17.4209 15.3627L14.9052 11.9329L9.97998 15.5452L12.4161 18.8665C9.59965 18.8116 7.33242 16.5154 7.33242 13.686C7.33242 10.8566 9.65389 8.50061 12.5178 8.50061C15.3817 8.50061 17.7032 10.8227 17.7032 13.686C17.7032 14.2735 17.6009 14.8363 17.4209 15.3627ZM48.2054 15.9662C48.7232 14.5268 49.2212 13.1411 49.7452 11.6845C50.3727 13.1522 50.9546 14.5126 51.5754 15.9662H48.2047H48.2054Z" fill="#262624"/>
<path d="M144.96 20.111C144.556 19.3972 143.649 19.1469 142.936 19.5513C133.267 25.032 128.515 24.8248 127.832 23.8891C127.634 23.6179 127.635 22.9096 128.23 21.7328C128.765 20.675 129.966 18.8929 132.653 16.413C134.414 14.7875 136.642 12.3582 135.669 10.0423C134.838 8.0629 132.185 7.58024 130.263 7.38914C129.681 7.3312 129.069 7.29421 128.441 7.27325C129.027 5.61136 129.019 4.46357 128.53 3.55187C128.151 2.84544 127.299 2.0034 125.392 2.0034C123.001 2.0034 120.937 3.75961 120.031 5.39191C119.306 6.69689 119.237 8.00372 119.843 8.97706C120.263 9.65144 121.163 10.4355 123.062 10.34C123.244 10.3307 123.428 10.3221 123.614 10.3135C122.88 11.5568 121.963 13.0067 120.849 14.6858C119.068 17.3685 115.69 20.0358 111.812 21.8216C108.678 23.2647 105.646 23.9464 103.378 23.7529C104.722 23.0668 106.026 22.2654 107.28 21.355C111.493 18.2944 114.728 14.2629 115.932 10.5705C116.973 7.37989 116.352 4.70706 114.227 3.23749C113.134 2.48114 111.785 2.13039 110.326 2.22285C109.034 2.30484 107.674 2.71908 106.282 3.45386C103.724 4.80446 101.329 7.08647 99.538 9.88075C97.5457 12.9888 96.5033 16.4075 96.523 19.767C96.5304 20.9715 96.7486 22.0454 97.1641 22.9681C95.2378 23.4687 93.3009 23.6974 91.3869 23.6487C89.8656 23.6099 88.6753 23.2209 87.8486 22.4929C87.1095 21.8419 86.6583 20.9142 86.506 19.7356C86.1615 17.0609 87.3845 13.6034 89.778 10.4867C92.5409 6.88922 96.5107 4.19912 100.956 2.91202C101.744 2.68394 102.198 1.86039 101.97 1.0726C101.742 0.284799 100.918 -0.168892 100.13 0.0591863C95.0812 1.52074 90.5683 4.58131 87.4227 8.67748C84.5612 12.4032 83.1175 16.6787 83.5607 20.1153C83.8042 22.0034 84.6081 23.5963 85.8859 24.7219C87.2495 25.9233 89.0753 26.5613 91.3123 26.618C93.9537 26.6852 96.6229 26.2938 99.255 25.4542C99.8203 25.8358 100.469 26.1384 101.196 26.3554C102.083 26.6205 103.079 26.7506 104.158 26.7506C106.772 26.7506 109.869 25.9862 113.056 24.5191C117.479 22.4824 121.221 19.497 123.325 16.328C124.957 13.869 126.195 11.87 127.085 10.221C128.063 10.2222 129.016 10.2543 129.884 10.3369C132.558 10.5903 132.929 11.1882 132.93 11.1888C132.932 11.1962 133.036 12.0167 130.638 14.2303C128.22 16.463 126.518 18.536 125.579 20.3921C124.234 23.0526 124.757 24.7145 125.433 25.6404C126.279 26.7999 127.745 27.3694 129.721 27.3694C133.217 27.3694 138.311 25.588 144.401 22.136C145.115 21.7316 145.365 20.8248 144.961 20.1116L144.96 20.111ZM100.013 22.025C99.668 21.4308 99.4985 20.6775 99.4936 19.7492C99.4578 13.6927 103.679 8.18618 107.669 6.07985C108.799 5.48376 109.865 5.18233 110.783 5.18233C111.461 5.18233 112.058 5.34691 112.538 5.67917C113.797 6.55018 113.543 8.3181 113.109 9.64835C112.107 12.7206 109.205 16.2854 105.535 18.9509C103.788 20.2195 101.935 21.2508 100.013 22.025ZM125.233 7.27757C124.441 7.30038 123.66 7.3349 122.914 7.37188C122.676 7.38359 122.517 7.3688 122.417 7.35031C122.466 7.11976 122.646 6.69628 123.07 6.21238C123.74 5.44801 124.63 4.97274 125.392 4.97274C125.663 4.97274 125.826 5.00048 125.914 5.0239C125.925 5.23842 125.874 5.86101 125.233 7.27757Z" fill="#262624"/>
</g>
<defs>
<clipPath id="clip0_10296_422">
<rect width="182" height="28.5598" fill="white"/>
</clipPath>
</defs>
</svg>
