<svg width="136" height="48" viewBox="0 0 136 48" fill="none" xmlns="http://www.w3.org/2000/svg">
<g clip-path="url(#clip0_10435_277)">
<path d="M40.9855 12.2375L20.6417 0.319336L20.4919 23.8964L40.9855 12.2375Z" fill="white" fill-opacity="0.8"/>
<path d="M20.6417 0.319336L0.149811 11.9783L20.4919 23.8964L20.6417 0.319336Z" fill="white" fill-opacity="0.7"/>
<path d="M40.8357 35.8132L40.9855 12.2378L20.4919 23.8967L40.8357 35.8132Z" fill="white" fill-opacity="0.9"/>
<path d="M20.4919 23.8965L20.3438 47.4719L40.8357 35.8129L20.4919 23.8965Z" fill="#FEFEFE"/>
<path d="M0 35.5554L20.3438 47.4719L20.4919 23.8965L0 35.5554Z" fill="white" fill-opacity="0.5"/>
<path d="M0.149797 11.9785L0 35.5556L20.4919 23.8967L0.149797 11.9785Z" fill="white" fill-opacity="0.6"/>
<path d="M49.6326 3.72119H51.0212V11.8405H55.4916V13.1904H49.6326V3.72119Z" fill="#FEFEFE"/>
<path d="M61.9968 11.073H58.5178L57.8126 13.1904H56.3398L59.6741 3.72119H60.8371L64.1714 13.1904H62.7054L61.9951 11.073H61.9968ZM61.6012 9.8006L60.2733 5.65846H60.248L58.92 9.8006H61.5996H61.6012Z" fill="#FEFEFE"/>
<path d="M65.6744 3.72119H69.2291C70.1313 3.72961 70.8079 3.96356 71.2607 4.42305C71.7185 4.88591 71.9457 5.49856 71.9457 6.26101C71.9541 6.65149 71.8649 7.02346 71.6747 7.3786C71.5788 7.54691 71.4391 7.70849 71.259 7.85997C71.0789 8.01987 70.8567 8.16461 70.5925 8.2959V8.32114C71.0923 8.45579 71.471 8.72678 71.7286 9.13241C71.9676 9.55318 72.0887 10.0093 72.0887 10.5025C72.0803 11.3205 71.8329 11.9685 71.3465 12.4448C70.8634 12.943 70.2609 13.1921 69.5388 13.1921H65.6727V3.72119H65.6744ZM67.063 4.99363V7.71522H69.0709C69.5792 7.71522 69.9529 7.57889 70.1919 7.30454C70.4359 7.05208 70.5571 6.73397 70.5571 6.3519C70.5571 5.96983 70.4359 5.64499 70.1919 5.37906C69.9529 5.13164 69.5792 5.00204 69.0709 4.99363H67.063ZM67.063 8.98766V11.8405H69.2073C69.724 11.8321 70.1027 11.6857 70.3417 11.4046C70.5807 11.1269 70.7019 10.797 70.7019 10.4149C70.7019 10.0329 70.5824 9.68952 70.3417 9.4118C70.1027 9.13914 69.724 8.99776 69.2073 8.98934H67.063V8.98766Z" fill="#FEFEFE"/>
<path d="M73.7399 8.4558C73.7399 7.35336 73.7719 6.61615 73.8341 6.2425C73.9015 5.86885 74.0041 5.56757 74.1421 5.33699C74.3643 4.90106 74.7211 4.51394 75.2109 4.17227C75.6923 3.82723 76.2948 3.65051 77.0152 3.64209C77.744 3.65051 78.3516 3.82892 78.838 4.17395C79.3194 4.51563 79.6678 4.90611 79.8816 5.34372C80.0364 5.57262 80.1441 5.8739 80.2014 6.24587C80.2552 6.61784 80.2838 7.35504 80.2838 8.45411C80.2838 9.55319 80.2569 10.2685 80.2014 10.6489C80.1424 11.0293 80.0364 11.3356 79.8799 11.5645C79.6661 12.0021 79.3177 12.3876 78.8363 12.7208C78.3499 13.0675 77.7423 13.2493 77.0135 13.2661C76.2932 13.2493 75.6906 13.0675 75.2092 12.7208C74.7178 12.3876 74.3626 12.0021 74.1405 11.5645C74.0731 11.4214 74.0125 11.2851 73.9587 11.1555C73.9082 11.0209 73.8661 10.8526 73.8324 10.6489C73.7702 10.2685 73.7382 9.53636 73.7382 8.45411L73.7399 8.4558ZM75.1284 8.4558C75.1284 9.38824 75.1621 10.0194 75.2294 10.3493C75.2883 10.6792 75.4078 10.9451 75.5879 11.1505C75.7344 11.3457 75.9279 11.5039 76.1669 11.6251C76.4026 11.7682 76.6836 11.8405 77.0118 11.8405C77.3401 11.8405 77.6312 11.7699 77.8753 11.6251C78.1059 11.5039 78.291 11.3457 78.429 11.1505C78.6091 10.9468 78.7337 10.6792 78.801 10.3493C78.8633 10.0194 78.8953 9.38824 78.8953 8.4558C78.8953 7.52335 78.8633 6.88713 78.801 6.54883C78.7337 6.22735 78.6091 5.96479 78.429 5.76113C78.291 5.56589 78.1059 5.40263 77.8753 5.27303C77.6312 5.14679 77.3434 5.07947 77.0118 5.07105C76.6836 5.07947 76.4026 5.14679 76.1669 5.27303C75.9279 5.40263 75.7344 5.56589 75.5879 5.76113C75.4078 5.96479 75.2883 6.22735 75.2294 6.54883C75.1621 6.88713 75.1284 7.52335 75.1284 8.4558Z" fill="#FEFEFE"/>
<path d="M82.4298 3.72119H86.0131C86.7773 3.72119 87.4017 3.92821 87.8831 4.34394C88.4637 4.81522 88.7667 5.48846 88.792 6.36368C88.7751 7.64958 88.1844 8.5248 87.0213 8.98766L89.1437 13.1887H87.4943L85.5957 9.1425H83.8167V13.1887H82.4281V3.72119H82.4298ZM83.8184 7.87175H85.9239C86.4457 7.86334 86.8362 7.70681 87.0971 7.40216C87.3529 7.1194 87.4825 6.77268 87.4825 6.36032C87.4741 5.86548 87.3209 5.50698 87.0213 5.28649C86.7857 5.09125 86.4457 4.99363 85.9997 4.99363H83.8184V7.87175Z" fill="#FEFEFE"/>
<path d="M95.5076 11.073H92.0286L91.3234 13.1904H89.8506L93.1849 3.72119H94.3479L97.6822 13.1904H96.2162L95.5059 11.073H95.5076ZM95.1121 9.8006L93.7841 5.65846H93.7588L92.4309 9.8006H95.1104H95.1121Z" fill="#FEFEFE"/>
<path d="M98.6331 8.4558C98.6331 7.35336 98.6651 6.61615 98.7274 6.2425C98.7947 5.86885 98.8974 5.56757 99.0354 5.33699C99.2576 4.90106 99.6144 4.51394 100.104 4.17227C100.586 3.82723 101.188 3.65051 101.908 3.64209C102.637 3.65051 103.245 3.82892 103.731 4.17395C104.213 4.51563 104.561 4.90611 104.775 5.34372C104.93 5.57262 105.037 5.8739 105.095 6.24587C105.148 6.61784 105.177 7.35504 105.177 8.45411C105.177 9.55319 105.15 10.2685 105.095 10.6489C105.036 11.0293 104.93 11.3356 104.773 11.5645C104.559 12.0021 104.211 12.3876 103.73 12.7208C103.243 13.0675 102.636 13.2493 101.907 13.2661C101.186 13.2493 100.584 13.0675 100.102 12.7208C99.611 12.3876 99.2559 12.0021 99.0337 11.5645C98.9664 11.4214 98.9058 11.2851 98.8519 11.1555C98.8014 11.0209 98.7594 10.8526 98.7257 10.6489C98.6634 10.2685 98.6315 9.53636 98.6315 8.45411L98.6331 8.4558ZM100.022 8.4558C100.022 9.38824 100.055 10.0194 100.123 10.3493C100.182 10.6792 100.301 10.9451 100.481 11.1505C100.628 11.3457 100.821 11.5039 101.06 11.6251C101.296 11.7682 101.577 11.8405 101.905 11.8405C102.233 11.8405 102.525 11.7699 102.769 11.6251C102.999 11.5039 103.184 11.3457 103.322 11.1505C103.502 10.9468 103.627 10.6792 103.694 10.3493C103.757 10.0194 103.789 9.38824 103.789 8.4558C103.789 7.52335 103.757 6.88713 103.694 6.54883C103.627 6.22735 103.502 5.96479 103.322 5.76113C103.184 5.56589 102.999 5.40263 102.769 5.27303C102.525 5.14679 102.237 5.07947 101.905 5.07105C101.577 5.07947 101.296 5.14679 101.06 5.27303C100.821 5.40263 100.628 5.56589 100.481 5.76113C100.301 5.96479 100.182 6.22735 100.123 6.54883C100.055 6.88713 100.022 7.52335 100.022 8.4558Z" fill="#FEFEFE"/>
<path d="M108.641 4.99363H106.126V3.72119H112.544V4.99363H110.028V13.1904H108.639V4.99363H108.641Z" fill="#FEFEFE"/>
<path d="M113.998 3.72119H115.387V13.1904H113.998V3.72119Z" fill="#FEFEFE"/>
<path d="M117.694 3.72119H121.278C122.042 3.72119 122.666 3.92821 123.148 4.34394C123.728 4.81522 124.031 5.48846 124.057 6.36368C124.04 7.64958 123.449 8.5248 122.286 8.98766L124.408 13.1887H122.759L120.86 9.1425H119.081V13.1887H117.693V3.72119H117.694ZM119.083 7.87175H121.189C121.71 7.86334 122.101 7.70681 122.362 7.40216C122.618 7.1194 122.747 6.77268 122.747 6.36032C122.739 5.86548 122.586 5.50698 122.286 5.28649C122.05 5.09125 121.71 4.99363 121.264 4.99363H119.083V7.87175Z" fill="#FEFEFE"/>
<path d="M126.071 3.72119H127.46V13.1904H126.071V3.72119Z" fill="#FEFEFE"/>
<path d="M129.454 8.4558C129.454 7.35336 129.486 6.61615 129.549 6.2425C129.616 5.86885 129.719 5.56757 129.857 5.33699C130.079 4.90106 130.436 4.51394 130.925 4.17227C131.407 3.82723 132.009 3.65051 132.73 3.64209C133.458 3.65051 134.066 3.82892 134.552 4.17395C135.034 4.51563 135.382 4.90611 135.596 5.34372C135.751 5.57262 135.859 5.8739 135.916 6.24587C135.97 6.61784 135.998 7.35504 135.998 8.45411C135.998 9.55319 135.971 10.2685 135.916 10.6489C135.857 11.0293 135.751 11.3356 135.594 11.5645C135.381 12.0021 135.032 12.3876 134.551 12.7208C134.064 13.0675 133.457 13.2493 132.728 13.2661C132.008 13.2493 131.405 13.0675 130.924 12.7208C130.432 12.3876 130.077 12.0021 129.855 11.5645C129.788 11.4214 129.727 11.2851 129.673 11.1555C129.623 11.0209 129.581 10.8526 129.547 10.6489C129.485 10.2685 129.453 9.53636 129.453 8.45411L129.454 8.4558ZM130.845 8.4558C130.845 9.38824 130.878 10.0194 130.946 10.3493C131.004 10.6792 131.124 10.9451 131.304 11.1505C131.451 11.3457 131.644 11.5039 131.883 11.6251C132.119 11.7682 132.4 11.8405 132.728 11.8405C133.056 11.8405 133.347 11.7699 133.591 11.6251C133.822 11.5039 134.007 11.3457 134.145 11.1505C134.325 10.9468 134.45 10.6792 134.517 10.3493C134.579 10.0194 134.611 9.38824 134.611 8.4558C134.611 7.52335 134.579 6.88713 134.517 6.54883C134.45 6.22735 134.325 5.96479 134.145 5.76113C134.007 5.56589 133.822 5.40263 133.591 5.27303C133.347 5.14679 133.06 5.07947 132.728 5.07105C132.4 5.07947 132.119 5.14679 131.883 5.27303C131.644 5.40263 131.451 5.56589 131.304 5.76113C131.124 5.96479 131.004 6.22735 130.946 6.54883C130.878 6.88713 130.845 7.52335 130.845 8.4558Z" fill="#FEFEFE"/>
<path d="M49.7471 26.857C50.4775 27.4781 51.346 27.7928 52.3542 27.8013C53.5459 27.7844 54.1501 27.3435 54.1669 26.4817C54.1753 25.7748 53.7765 25.3506 52.9719 25.2076C52.6033 25.1554 52.1977 25.0965 51.7567 25.0325C50.9673 24.8979 50.3681 24.5966 49.9575 24.1287C49.5333 23.6473 49.3212 23.0633 49.3212 22.3732C49.3212 21.5451 49.5872 20.8786 50.119 20.372C50.6341 19.8687 51.3662 19.6129 52.3121 19.6045C53.4516 19.6297 54.443 19.9563 55.2845 20.5824L54.5103 21.7606C53.8219 21.2927 53.0645 21.0486 52.2381 21.0318C51.8106 21.0318 51.4538 21.1429 51.1676 21.3633C50.8697 21.5939 50.7165 21.9356 50.7081 22.39C50.7081 22.6627 50.8108 22.9101 51.0161 23.1306C51.2215 23.3562 51.5514 23.5127 52.0041 23.5985C52.2566 23.6423 52.5999 23.6911 53.0359 23.7483C53.8959 23.8695 54.5305 24.1876 54.9428 24.7043C55.3502 25.2109 55.5538 25.8 55.5538 26.4716C55.5084 28.2826 54.4345 29.2016 52.3357 29.2285C50.9774 29.2285 49.811 28.7977 48.8348 27.9359L49.7471 26.857Z" fill="#FEFEFE"/>
<path d="M57.5298 19.6821H63.3887V21.032H58.9184V23.7418H62.734V25.0142H58.9184V27.8015H63.3887V29.1513H57.5298V19.6821Z" fill="#FEFEFE"/>
<path d="M65.193 19.6821H68.7477C69.6499 19.6905 70.3265 19.9245 70.7793 20.384C71.2371 20.8468 71.4643 21.4595 71.4643 22.2219C71.4727 22.6124 71.3835 22.9844 71.1933 23.3395C71.0974 23.5078 70.9577 23.6694 70.7776 23.8209C70.5975 23.9808 70.3753 24.1256 70.1111 24.2568V24.2821C70.6109 24.4167 70.9896 24.6877 71.2472 25.0933C71.4862 25.5141 71.6074 25.9702 71.6074 26.4634C71.5989 27.2814 71.3515 27.9294 70.8651 28.4057C70.382 28.9039 69.7795 29.153 69.0574 29.153H65.1913V19.6838L65.193 19.6821ZM66.5816 20.9546V23.6762H68.5895C69.0978 23.6762 69.4715 23.5381 69.7105 23.2655C69.9545 23.013 70.0757 22.6949 70.0757 22.3128C70.0757 21.9308 69.9545 21.6059 69.7105 21.34C69.4715 21.0926 69.0978 20.963 68.5895 20.9546H66.5816ZM66.5816 24.9486V27.8015H68.7259C69.2426 27.7931 69.6213 27.6466 69.8603 27.3655C70.0993 27.0878 70.2205 26.7579 70.2205 26.3759C70.2205 25.9938 70.101 25.6505 69.8603 25.3727C69.6213 25.1001 69.2426 24.9587 68.7259 24.9503H66.5816V24.9486Z" fill="#FEFEFE"/>
<path d="M78.2708 27.034H74.7918L74.0866 29.1513H72.6139L75.9481 19.6821H77.1111L80.4454 29.1513H78.9794L78.2691 27.034H78.2708ZM77.8753 25.7615L76.5473 21.6194H76.5221L75.1941 25.7615H77.8736H77.8753Z" fill="#FEFEFE"/>
<path d="M82.0629 26.857C82.7934 27.4781 83.6618 27.7928 84.67 27.8013C85.8617 27.7844 86.4659 27.3435 86.4827 26.4817C86.4911 25.7748 86.0923 25.3506 85.2877 25.2076C84.9191 25.1554 84.5135 25.0965 84.0742 25.0325C83.2848 24.8979 82.6856 24.5966 82.2749 24.1287C81.8508 23.6473 81.6387 23.0633 81.6387 22.3732C81.6387 21.5451 81.9047 20.8786 82.4365 20.372C82.9516 19.8687 83.6837 19.6129 84.6296 19.6045C85.7691 19.6297 86.7605 19.9563 87.602 20.5824L86.8278 21.7606C86.1394 21.2927 85.382 21.0486 84.5556 21.0318C84.1281 21.0318 83.7712 21.1429 83.4851 21.3633C83.1872 21.5939 83.034 21.9356 83.0256 22.39C83.0256 22.6627 83.1283 22.9101 83.3336 23.1306C83.539 23.3562 83.8689 23.5127 84.3216 23.5985C84.5741 23.6423 84.9174 23.6911 85.3534 23.7483C86.2134 23.8695 86.848 24.1876 87.2603 24.7043C87.6677 25.2109 87.8713 25.8 87.8713 26.4716C87.8259 28.2826 86.752 29.2016 84.6532 29.2285C83.2949 29.2285 82.1285 28.7977 81.1523 27.9359L82.0646 26.857H82.0629Z" fill="#FEFEFE"/>
<path d="M91.4042 20.9546H88.8896V19.6821H95.3073V20.9546H92.791V29.1513H91.4025V20.9546H91.4042Z" fill="#FEFEFE"/>
<path d="M96.7632 19.6821H98.1518V29.1513H96.7632V19.6821Z" fill="#FEFEFE"/>
<path d="M105.159 27.0339H101.68L100.974 29.1513H99.5016L102.836 19.6821H103.999L107.333 29.1513H105.867L105.157 27.0339H105.159ZM104.761 25.7615L103.433 21.6193H103.408L102.08 25.7615H104.76H104.761ZM103.782 17.2803H105.509L103.681 19.2159H102.6L103.782 17.2803Z" fill="#FEFEFE"/>
<path d="M108.836 19.6821H110.146L114.3 26.4129H114.325V19.6821H115.713V29.1513H114.397L110.25 22.4206H110.225V29.1513H108.836V19.6821Z" fill="#FEFEFE"/>
<path d="M55.8197 42.4679C55.6178 43.3448 55.234 44.0197 54.6685 44.491C54.0861 44.9572 53.3944 45.1912 52.5983 45.1912C51.8779 45.1743 51.2753 44.9926 50.794 44.6458C50.3042 44.3126 49.9474 43.9271 49.7252 43.4895C49.6579 43.3465 49.5973 43.2101 49.5434 43.0805C49.4929 42.9459 49.4508 42.7776 49.4172 42.5739C49.3549 42.1935 49.3229 41.4614 49.3229 40.3791C49.3229 39.2969 49.3549 38.5429 49.4172 38.1709C49.4845 37.7989 49.5872 37.4976 49.7252 37.2687C49.9474 36.8311 50.3042 36.4423 50.794 36.099C51.2753 35.7523 51.8779 35.5755 52.5999 35.5654C53.4853 35.5738 54.2056 35.8448 54.7644 36.3767C55.3215 36.9136 55.675 37.5768 55.8214 38.3678H54.347C54.2343 37.9857 54.0272 37.6609 53.7293 37.3916C53.4179 37.1358 53.0409 37.0028 52.5949 36.9944C52.2667 37.0028 51.9856 37.0701 51.75 37.1964C51.511 37.326 51.3174 37.4892 51.171 37.6845C50.9909 37.8881 50.8714 38.1507 50.8125 38.4722C50.7452 38.8105 50.7115 39.4467 50.7115 40.3791C50.7115 41.3116 50.7452 41.9427 50.8125 42.2726C50.8714 42.6025 50.9909 42.8685 51.171 43.0738C51.3174 43.269 51.511 43.4273 51.7517 43.5484C51.9873 43.6915 52.2684 43.7639 52.5966 43.7639C53.3775 43.7639 53.9616 43.333 54.3487 42.4679H55.8214H55.8197Z" fill="#FEFEFE"/>
<path d="M61.9968 42.9949H58.5178L57.8126 45.1123H56.3398L59.6741 35.6431H60.8371L64.1714 45.1123H62.7054L61.9951 42.9949H61.9968ZM61.6012 41.7225L60.2733 37.5803H60.248L58.92 41.7225H61.5996H61.6012Z" fill="#FEFEFE"/>
<path d="M65.6744 35.6431H69.2577C70.0219 35.6431 70.6463 35.8501 71.1277 36.2658C71.7084 36.7371 72.0113 37.4103 72.0366 38.2856C72.0197 39.5715 71.429 40.4467 70.2659 40.9095L72.3883 45.1123H70.7389L68.8403 41.0661H67.0613V45.1123H65.6727V35.6431H65.6744ZM67.063 39.7936H69.1685C69.6903 39.7852 70.0808 39.6287 70.3417 39.324C70.5975 39.0413 70.7271 38.6946 70.7271 38.2822C70.7187 37.7874 70.5655 37.4289 70.2659 37.2084C70.0303 37.0131 69.6903 36.9155 69.2443 36.9155H67.063V39.7936Z" fill="#FEFEFE"/>
<path d="M74.0529 35.6431H77.3771C77.7373 35.6431 78.0857 35.6784 78.4223 35.7474C78.7572 35.8383 79.0972 36.0251 79.4423 36.3062C79.7318 36.5183 79.9657 36.8212 80.1458 37.2151C80.3343 37.5955 80.4286 38.0466 80.4286 38.5666C80.4286 39.2685 80.1896 39.9064 79.7099 40.482C79.2184 41.0879 78.5014 41.3993 77.5555 41.4178H75.4398V45.114H74.0513V35.6448L74.0529 35.6431ZM75.4415 40.0663H77.5033C78.02 40.0579 78.4088 39.8929 78.6697 39.5698C78.9171 39.2567 79.0417 38.9083 79.0417 38.5262C79.0417 38.2081 78.9912 37.9405 78.8902 37.7234C78.7859 37.5282 78.6377 37.3733 78.4492 37.2605C78.1631 37.0737 77.8315 36.9845 77.4528 36.9929H75.4415V40.0663Z" fill="#FEFEFE"/>
<path d="M82.2026 35.6431H83.5911V45.1123H82.2026V35.6431Z" fill="#FEFEFE"/>
</g>
<defs>
<clipPath id="clip0_10435_277">
<rect width="136" height="47.4717" fill="white"/>
</clipPath>
</defs>
</svg>
