<svg width="132" height="48" viewBox="0 0 132 48" fill="none" xmlns="http://www.w3.org/2000/svg">
<path d="M40.9858 11.9181L20.642 0L20.4922 23.5771L40.9858 11.9181Z" fill="white" fill-opacity="0.8"/>
<path d="M20.6417 0L0.14978 11.6589L20.4919 23.5771L20.6417 0Z" fill="white" fill-opacity="0.7"/>
<path d="M40.836 35.4934L40.9858 11.918L20.4922 23.5769L40.836 35.4934Z" fill="white" fill-opacity="0.9"/>
<path d="M20.4919 23.5771L20.3438 47.1525L40.8357 35.4936L20.4919 23.5771Z" fill="#FEFEFE"/>
<path d="M0 35.2361L20.3438 47.1525L20.4919 23.5771L0 35.2361Z" fill="white" fill-opacity="0.5"/>
<path d="M0.149797 11.6587L0 35.2358L20.4919 23.5768L0.149797 11.6587Z" fill="white" fill-opacity="0.6"/>
<path d="M51.2773 35.2559C52.176 35.2559 52.9645 35.5326 53.5723 36.0527C54.1791 36.5724 54.5909 37.3221 54.7637 38.2412L54.8193 38.5371H53.293L53.25 38.3398C53.1347 37.8059 52.8957 37.3851 52.5664 37.0986C52.2386 36.8136 51.8059 36.6485 51.2773 36.6484C50.7117 36.6485 50.225 36.8465 49.8408 37.2305C49.5853 37.4922 49.4424 37.7667 49.3604 38.208C49.2751 38.6668 49.2578 39.2928 49.2578 40.2549C49.2578 41.2169 49.2751 41.843 49.3604 42.3018C49.4424 42.743 49.5853 43.0176 49.8408 43.2793L49.9893 43.4141C50.3475 43.7095 50.7822 43.8613 51.2773 43.8613C51.8062 43.8613 52.2463 43.6963 52.5811 43.4102C52.917 43.1229 53.1615 42.7018 53.2764 42.1699L53.3193 41.9727H54.8193L54.7637 42.2686C54.5907 43.1886 54.1749 43.9386 53.5664 44.458C52.9574 44.9776 52.1697 45.2538 51.2773 45.2539C50.244 45.2539 49.392 44.8889 48.7656 44.2627C48.2936 43.7907 48.0358 43.3243 47.9023 42.6943C47.7729 42.0833 47.7607 41.3173 47.7607 40.2549C47.7607 39.1924 47.7729 38.4265 47.9023 37.8154C48.0358 37.1854 48.2936 36.7191 48.7656 36.2471C49.392 35.6209 50.2439 35.2559 51.2773 35.2559ZM59.9072 35.499L63.3311 44.8389L63.4551 45.1748H61.8574L61.1104 43.0635H57.3828L56.6357 45.1748H55.0381L55.1611 44.8389L58.5986 35.498L58.6592 35.335H59.8477L59.9072 35.499ZM68.1914 35.335C69.054 35.3351 69.8103 35.5963 70.3535 36.0938C70.8993 36.5939 71.209 37.3138 71.209 38.1826C71.2089 38.9168 70.9851 39.5393 70.5859 40.0137C70.2537 40.4084 69.8078 40.688 69.292 40.8486L71.5557 45.1748H69.8223L69.7529 45.0391L67.6973 41.0293H65.8564V45.1748H64.3594V35.335H68.1914ZM76.6953 35.335C77.5942 35.3351 78.3801 35.6214 78.9434 36.1484C79.5083 36.6772 79.831 37.4308 79.8311 38.3262C79.831 39.2215 79.5088 39.9788 78.9443 40.5107C78.3813 41.0412 77.595 41.3309 76.6953 41.3311H74.4658V45.1748H72.9688V35.335H76.6953ZM82.7285 45.1748H81.2314V35.335H82.7285V45.1748ZM50.7617 44.9697C50.7717 44.9711 50.7819 44.9714 50.792 44.9727C50.7819 44.9714 50.7717 44.9711 50.7617 44.9697ZM50.4561 44.9141C50.4616 44.9153 50.4671 44.9167 50.4727 44.918C50.4671 44.9167 50.4616 44.9153 50.4561 44.9141ZM50.1475 44.8281C50.1627 44.8332 50.178 44.8379 50.1934 44.8428C50.178 44.8379 50.1627 44.8332 50.1475 44.8281ZM49.8672 44.7188C49.8816 44.7251 49.8956 44.7321 49.9102 44.7383C49.8956 44.7321 49.8816 44.7251 49.8672 44.7188ZM49.5977 44.584C49.6135 44.593 49.6295 44.6016 49.6455 44.6104C49.6295 44.6016 49.6135 44.593 49.5977 44.584ZM49.3594 44.4336C49.3712 44.4419 49.3826 44.4509 49.3945 44.459C49.3826 44.4509 49.3712 44.4419 49.3594 44.4336ZM48.7793 43.9121C48.8302 43.9698 48.8846 44.0271 48.9424 44.085C48.8846 44.0271 48.8302 43.9698 48.7793 43.9121ZM48.5459 43.6123C48.5706 43.6489 48.597 43.6847 48.624 43.7207C48.597 43.6847 48.5706 43.6489 48.5459 43.6123ZM49.5059 43.2744C49.554 43.3361 49.6063 43.397 49.6641 43.4561C49.6063 43.397 49.554 43.3361 49.5059 43.2744ZM48.4463 43.4502C48.4665 43.4855 48.4867 43.521 48.5088 43.5557C48.4867 43.521 48.4665 43.4855 48.4463 43.4502ZM48.3545 43.2744C48.3725 43.3127 48.3912 43.3504 48.4111 43.3877C48.3912 43.3504 48.3725 43.3127 48.3545 43.2744ZM48.2754 43.0889C48.2924 43.134 48.3109 43.1781 48.3301 43.2217C48.3109 43.1781 48.2924 43.134 48.2754 43.0889ZM48.207 42.8818C48.2223 42.9344 48.2382 42.9859 48.2559 43.0361C48.2382 42.9859 48.2223 42.9344 48.207 42.8818ZM48.1494 42.6562C48.1597 42.704 48.1727 42.7502 48.1846 42.7959C48.1727 42.7502 48.1597 42.704 48.1494 42.6562ZM49.1963 42.6826C49.2 42.6945 49.2041 42.7061 49.208 42.7178C49.202 42.6998 49.1961 42.6816 49.1904 42.6631L49.1963 42.6826ZM48.1074 42.4277C48.1139 42.4686 48.1216 42.5085 48.1289 42.5479C48.1216 42.5085 48.1139 42.4686 48.1074 42.4277ZM48.0566 42C48.0601 42.0407 48.0634 42.0808 48.0674 42.1201C48.0634 42.0808 48.0601 42.0407 48.0566 42ZM57.8633 41.6973H60.6445L59.2637 37.7646L57.8633 41.6973ZM48.0293 41.5576C48.0296 41.5655 48.0299 41.5733 48.0303 41.5811C48.0223 41.4 48.0175 41.2061 48.0146 40.9971L48.0293 41.5576ZM77.2959 41.0322C77.1039 41.0643 76.9028 41.0811 76.6943 41.0811L77.0068 41.0684C77.1052 41.0602 77.2016 41.048 77.2959 41.0322ZM77.3984 41.0107C77.4562 40.9992 77.5133 40.988 77.5693 40.9736C77.5133 40.988 77.4562 40.9992 77.3984 41.0107ZM77.6855 40.9395C77.7367 40.9242 77.7874 40.9093 77.8369 40.8916C77.7874 40.9093 77.7367 40.9242 77.6855 40.9395ZM77.9453 40.8486C77.9895 40.8308 78.0335 40.8137 78.0762 40.7939C78.0335 40.8137 77.9895 40.8308 77.9453 40.8486ZM78.1953 40.7334C78.2374 40.7114 78.2788 40.689 78.3193 40.665C78.2788 40.689 78.2374 40.7114 78.1953 40.7334ZM68.9248 40.6875C68.9984 40.6723 69.0709 40.6547 69.1416 40.6348C69.0709 40.6547 68.9984 40.6723 68.9248 40.6875ZM69.2285 40.6074C69.269 40.5946 69.3092 40.5818 69.3486 40.5674C69.3092 40.5817 69.269 40.5946 69.2285 40.6074ZM78.4121 40.6074C78.4531 40.5808 78.493 40.5531 78.5322 40.5244C78.493 40.5531 78.4531 40.5808 78.4121 40.6074ZM69.4004 40.5469C69.4518 40.527 69.5023 40.506 69.5518 40.4834C69.5023 40.506 69.4518 40.527 69.4004 40.5469ZM69.5938 40.4639C69.6417 40.4409 69.6884 40.4162 69.7344 40.3906C69.6884 40.4162 69.6418 40.4409 69.5938 40.4639ZM78.626 40.4512C78.6602 40.4235 78.6939 40.3955 78.7266 40.3662C78.6939 40.3955 78.6602 40.4235 78.626 40.4512ZM69.791 40.3584C69.8323 40.334 69.8727 40.3087 69.9121 40.2822C69.8727 40.3087 69.8323 40.334 69.791 40.3584ZM78.8184 40.2783C78.8502 40.2466 78.882 40.215 78.9121 40.1816C78.882 40.215 78.8502 40.2466 78.8184 40.2783ZM69.9697 40.2412C70.0029 40.2175 70.0356 40.1933 70.0674 40.168C70.0356 40.1933 70.0029 40.2175 69.9697 40.2412ZM70.1416 40.1055C70.1664 40.084 70.191 40.0625 70.2148 40.04C70.191 40.0625 70.1664 40.084 70.1416 40.1055ZM78.9854 40.0967C79.0132 40.0628 79.0394 40.0276 79.0654 39.9922C79.0394 40.0277 79.0132 40.0628 78.9854 40.0967ZM70.3008 39.9551C70.3162 39.9389 70.3308 39.9219 70.3457 39.9053C70.3308 39.9219 70.3162 39.9389 70.3008 39.9551ZM74.4658 39.9395H76.6162C77.1571 39.9394 77.5835 39.7931 77.8711 39.5342C78.1545 39.2787 78.334 38.8857 78.334 38.3262C78.3339 37.7669 78.1546 37.3779 77.8721 37.126C77.5849 36.8701 77.1584 36.7266 76.6162 36.7266H74.4658V39.9395ZM79.1484 39.874C79.1695 39.8416 79.1884 39.808 79.208 39.7744C79.1884 39.808 79.1695 39.8416 79.1484 39.874ZM70.4297 39.8066C70.4471 39.7849 70.4639 39.7627 70.4805 39.7402C70.4639 39.7627 70.4471 39.7849 70.4297 39.8066ZM79.2676 39.6699C79.289 39.6289 79.3078 39.5865 79.3271 39.5439C79.3078 39.5865 79.289 39.6289 79.2676 39.6699ZM65.8564 39.6504H68.0996C68.6034 39.6502 69.0042 39.5195 69.2754 39.2861C69.541 39.0575 69.7119 38.7054 69.7119 38.1953C69.7119 37.6851 69.5409 37.3288 69.2744 37.0967C69.0029 36.8603 68.602 36.7267 68.0996 36.7266H65.8564V39.6504ZM70.5449 39.6504C70.5638 39.6221 70.581 39.5928 70.5986 39.5635C70.581 39.5928 70.5638 39.6221 70.5449 39.6504ZM70.6514 39.4717C70.6696 39.438 70.6874 39.404 70.7041 39.3691C70.6874 39.404 70.6696 39.438 70.6514 39.4717ZM79.3838 39.415C79.4003 39.3729 79.4142 39.3296 79.4287 39.2861C79.4142 39.3296 79.4003 39.3729 79.3838 39.415ZM70.7432 39.2861C70.7571 39.2539 70.7686 39.2206 70.7812 39.1875C70.7686 39.2206 70.7571 39.2539 70.7432 39.2861ZM79.4639 39.1748C79.4829 39.1081 79.5002 39.0402 79.5146 38.9707C79.5002 39.0402 79.4829 39.1081 79.4639 39.1748ZM70.8174 39.0908C70.8317 39.0481 70.8433 39.0042 70.8555 38.96C70.8433 39.0042 70.8317 39.0481 70.8174 39.0908ZM79.5303 38.8984C79.5413 38.8374 79.5482 38.775 79.5557 38.7119C79.5482 38.775 79.5413 38.8374 79.5303 38.8984ZM70.876 38.8867C70.8872 38.8406 70.8963 38.7937 70.9053 38.7461C70.8963 38.7937 70.8872 38.8406 70.876 38.8867ZM70.9375 37.8359C70.9294 37.7615 70.9205 37.6885 70.9072 37.6172C70.9205 37.6885 70.9294 37.7615 70.9375 37.8359ZM79.5742 38.1816C79.5722 38.1333 79.5715 38.0854 79.5674 38.0381C79.5715 38.0854 79.5722 38.1333 79.5742 38.1816ZM79.54 37.8271C79.5362 37.8026 79.5337 37.7781 79.5293 37.7539C79.5337 37.7781 79.5362 37.8026 79.54 37.8271ZM79.4971 37.6104C79.4858 37.5626 79.4754 37.5151 79.4619 37.4688C79.4754 37.5151 79.4858 37.5626 79.4971 37.6104ZM70.8818 37.5049C70.8713 37.459 70.8613 37.4136 70.8486 37.3691C70.8613 37.4136 70.8713 37.459 70.8818 37.5049ZM79.4199 37.3428C79.4071 37.3056 79.3951 37.2686 79.3809 37.2324C79.3951 37.2686 79.4071 37.3056 79.4199 37.3428ZM70.8125 37.2588C70.7963 37.2105 70.7805 37.1627 70.7617 37.1162C70.7805 37.1627 70.7963 37.2105 70.8125 37.2588ZM79.3291 37.1133C79.3082 37.0673 79.2871 37.0218 79.2637 36.9775C79.287 37.0218 79.3082 37.0673 79.3291 37.1133ZM70.7217 37.0264C70.7017 36.9823 70.6815 36.9388 70.6592 36.8965C70.6815 36.9388 70.7017 36.9823 70.7217 37.0264ZM79.207 36.8779C79.1868 36.8435 79.1663 36.8095 79.1445 36.7764C79.1663 36.8096 79.1868 36.8435 79.207 36.8779ZM70.6016 36.7949C70.578 36.7554 70.554 36.7165 70.5283 36.6787C70.554 36.7165 70.578 36.7554 70.6016 36.7949ZM79.0596 36.6562C79.0358 36.6244 79.0116 36.5931 78.9863 36.5625C79.0116 36.5931 79.0358 36.6244 79.0596 36.6562ZM70.4658 36.5928C70.4427 36.5619 70.4192 36.5315 70.3945 36.502C70.4192 36.5315 70.4427 36.5619 70.4658 36.5928ZM78.9092 36.4736C78.8791 36.4406 78.8483 36.4083 78.8164 36.377C78.8483 36.4084 78.8791 36.4405 78.9092 36.4736ZM70.3105 36.4062C70.2826 36.3763 70.2542 36.3468 70.2246 36.3184C70.2542 36.3468 70.2826 36.3763 70.3105 36.4062ZM78.7246 36.291C78.692 36.262 78.6583 36.2344 78.624 36.207C78.6583 36.2344 78.692 36.262 78.7246 36.291ZM70.1465 36.2471C70.1104 36.2154 70.0733 36.1848 70.0352 36.1553C70.0733 36.1848 70.1104 36.2154 70.1465 36.2471ZM78.5342 36.1367C78.4939 36.1074 78.4524 36.0799 78.4102 36.0527C78.4524 36.0799 78.4939 36.1074 78.5342 36.1367ZM69.957 36.0967C69.9156 36.0672 69.8727 36.0397 69.8291 36.0127C69.8727 36.0397 69.9156 36.0672 69.957 36.0967ZM78.3135 35.9922C78.2752 35.9699 78.2359 35.9493 78.1963 35.9287C78.236 35.9493 78.2752 35.9699 78.3135 35.9922ZM69.7539 35.9668C69.7054 35.9391 69.6554 35.9135 69.6045 35.8887C69.6554 35.9135 69.7054 35.9391 69.7539 35.9668ZM78.0771 35.8691C78.0395 35.8519 78.0007 35.837 77.9619 35.8213C78.0007 35.837 78.0395 35.8519 78.0771 35.8691ZM69.5322 35.8535C69.4785 35.8293 69.4234 35.8072 69.3672 35.7861C69.4234 35.8072 69.4785 35.8293 69.5322 35.8535ZM77.8281 35.7686C77.7859 35.7538 77.7426 35.7416 77.6992 35.7285C77.7426 35.7416 77.7859 35.7538 77.8281 35.7686ZM69.291 35.7578C69.2221 35.7342 69.1513 35.7142 69.0791 35.6953C69.1513 35.7142 69.2221 35.7342 69.291 35.7578ZM77.5693 35.6904C77.5295 35.6803 77.4889 35.6727 77.4482 35.6641C77.4889 35.6727 77.5295 35.6803 77.5693 35.6904ZM69.041 35.6846C68.9715 35.6674 68.9004 35.6534 68.8281 35.6406C68.9004 35.6534 68.9715 35.6674 69.041 35.6846ZM50.8057 19.6348C52.0588 19.6349 52.9052 19.9712 53.752 20.7207L53.9512 20.8965L53.7627 21.084L52.9482 21.8994L52.7715 21.7314C52.2571 21.241 51.6765 20.9874 50.7656 20.9873C50.1809 20.9874 49.7512 21.1482 49.4707 21.4014C49.193 21.6521 49.0352 22.0168 49.0352 22.4814C49.0352 22.8957 49.1526 23.1957 49.3682 23.3818C49.6057 23.5868 49.9981 23.733 50.4629 23.8086L51.5527 23.9795C52.4403 24.1141 52.9024 24.2826 53.374 24.71C53.9295 25.1941 54.2432 25.894 54.2432 26.7324C54.2431 27.6227 53.8946 28.3585 53.2705 28.8662C52.6519 29.3694 51.7833 29.6318 50.7656 29.6318C50.0497 29.6318 49.437 29.5404 48.8857 29.3281C48.3328 29.115 47.8541 28.7847 47.4004 28.3242L47.2256 28.1475L47.4014 27.9727L48.2471 27.126L48.4238 27.3027C48.7913 27.6702 49.137 27.9013 49.5059 28.042C49.876 28.1831 50.286 28.2402 50.792 28.2402C51.4465 28.2402 51.9407 28.0901 52.2646 27.8398C52.5799 27.5962 52.7587 27.239 52.7588 26.7588C52.7588 26.3105 52.6312 25.9944 52.3857 25.7793L52.3818 25.7754C52.1494 25.5641 51.9472 25.4819 51.291 25.3789L50.2051 25.2217L50.2012 25.2207C49.4382 25.098 48.8375 24.8621 48.3711 24.4541L48.3701 24.4531C47.8371 23.9793 47.5645 23.3295 47.5645 22.5078C47.5645 21.6509 47.8745 20.9241 48.4502 20.4141C49.023 19.9068 49.8355 19.6348 50.8057 19.6348ZM83.1016 19.6348C84.3549 19.6348 85.202 19.9711 86.0488 20.7207L86.248 20.8965L86.0596 21.084L85.417 21.7275L85.2441 21.8994L85.0674 21.7314C84.553 21.2411 83.9733 20.9874 83.0625 20.9873C82.4778 20.9873 82.0481 21.1482 81.7676 21.4014C81.4899 21.6521 81.3321 22.0168 81.332 22.4814C81.332 22.8957 81.4495 23.1957 81.665 23.3818C81.9025 23.5866 82.2945 23.733 82.7588 23.8086L83.8486 23.9795C84.7367 24.1141 85.1991 24.2824 85.6709 24.71C86.2263 25.1941 86.54 25.8941 86.54 26.7324C86.54 27.6226 86.1914 28.3585 85.5674 28.8662C84.9488 29.3694 84.0802 29.6318 83.0625 29.6318C82.3464 29.6318 81.733 29.5405 81.1816 29.3281C80.6288 29.115 80.1499 28.7847 79.6963 28.3242L79.5225 28.1475L79.6982 27.9727L80.5439 27.126L80.7207 27.3027C81.0881 27.6701 81.433 27.9013 81.8018 28.042C82.1721 28.1832 82.5826 28.2402 83.0889 28.2402C83.7431 28.2402 84.2366 28.0899 84.5605 27.8398C84.8758 27.5962 85.0556 27.239 85.0557 26.7588C85.0557 26.3103 84.9273 25.9944 84.6816 25.7793L84.6787 25.7754C84.4462 25.564 84.2442 25.4819 83.5879 25.3789L82.502 25.2217L82.498 25.2207C81.735 25.098 81.1344 24.8621 80.668 24.4541L80.666 24.4531C80.133 23.9793 79.8613 23.3295 79.8613 22.5078C79.8614 21.6509 80.1713 20.9241 80.7471 20.4141C81.3198 19.9069 82.1316 19.6348 83.1016 19.6348ZM62.126 21.1055H57.3242V23.8975H61.417V25.29H57.3242V28.1611H62.126V29.5537H55.8271V19.7129H62.126V21.1055ZM67.459 19.7129C68.3184 19.713 69.0714 19.9596 69.6123 20.4365C70.1566 20.9167 70.4639 21.6115 70.4639 22.4561C70.4637 23.3384 70.0325 24.0756 69.3975 24.4961C70.1246 24.9348 70.6083 25.7017 70.6084 26.7188C70.6084 27.6234 70.3046 28.3432 69.7539 28.833C69.2074 29.3189 68.4461 29.5536 67.5771 29.5537H63.6934V19.7129H67.459ZM75.96 19.877L79.5068 29.5537H77.9092L77.8506 29.3867L77.1621 27.4414H73.4355L72.7471 29.3867L72.6875 29.5537H71.0898L74.7109 19.7129H75.8994L75.96 19.877ZM94.0039 21.1055H91.3018V29.5537H89.8047V21.1055H87.1025V19.7129H94.0039V21.1055ZM96.7441 29.5537H95.2471V19.7129H96.7441V29.5537ZM102.517 19.877L106.064 29.5537H104.467L104.408 29.3867L103.72 27.4414H99.9922L99.3037 29.3867L99.2451 29.5537H97.6475L101.269 19.7129H102.457L102.517 19.877ZM108.372 19.8252L112.872 26.5977V19.7129H114.369V29.5537H113.041L108.466 22.6426V29.5537H106.969V19.7129H108.298L108.372 19.8252ZM50.7656 29.3818C50.8871 29.3818 51.006 29.3778 51.1221 29.3701C51.006 29.3778 50.8871 29.3818 50.7656 29.3818ZM83.0625 29.3818C83.1837 29.3818 83.3022 29.3778 83.418 29.3701C83.3022 29.3778 83.1837 29.3818 83.0625 29.3818ZM83.9688 29.2988C84.0012 29.2927 84.0336 29.288 84.0654 29.2812C84.0336 29.288 84.0012 29.2927 83.9688 29.2988ZM51.6797 29.2969C51.7094 29.2912 51.7393 29.2875 51.7686 29.2812C51.7393 29.2875 51.7094 29.2912 51.6797 29.2969ZM67.8809 29.293C67.9784 29.2861 68.0738 29.2753 68.167 29.2617C68.0738 29.2753 67.9784 29.2861 67.8809 29.293ZM68.2012 29.2559C68.2807 29.2435 68.3585 29.2292 68.4346 29.2119C68.3585 29.2292 68.2807 29.2435 68.2012 29.2559ZM84.1914 29.25C84.2564 29.234 84.3204 29.2181 84.3828 29.1992C84.3204 29.2181 84.2564 29.234 84.1914 29.25ZM51.9014 29.248C51.9628 29.2328 52.0238 29.219 52.083 29.2012C52.0238 29.219 51.9628 29.2328 51.9014 29.248ZM68.5332 29.1855C68.5827 29.1727 68.6318 29.1605 68.6797 29.1455C68.6318 29.1605 68.5827 29.1727 68.5332 29.1855ZM84.4336 29.1826C84.5115 29.1578 84.5875 29.1319 84.6611 29.1025C84.5875 29.1319 84.5114 29.1578 84.4336 29.1826ZM52.1582 29.1748C52.2281 29.152 52.2968 29.129 52.3633 29.1025C52.2968 29.129 52.2281 29.152 52.1582 29.1748ZM68.7891 29.1064C68.8364 29.0895 68.8832 29.0729 68.9287 29.0537C68.8832 29.0729 68.8364 29.0895 68.7891 29.1064ZM52.46 29.0605C52.5152 29.0365 52.5694 29.012 52.6221 28.9854C52.5694 29.012 52.5152 29.0365 52.46 29.0605ZM84.7568 29.0605C84.8121 29.0365 84.8663 29.012 84.9189 28.9854C84.8663 29.012 84.8121 29.0364 84.7568 29.0605ZM69.0127 29.0156C69.0596 28.9939 69.1056 28.9714 69.1504 28.9473C69.1056 28.9714 69.0596 28.9939 69.0127 29.0156ZM52.7422 28.9189C52.7812 28.8968 52.82 28.8752 52.8574 28.8516C52.82 28.8752 52.7812 28.8968 52.7422 28.9189ZM85.0391 28.9189C85.0781 28.8968 85.1169 28.8752 85.1543 28.8516C85.1169 28.8752 85.0781 28.8968 85.0391 28.9189ZM69.2471 28.8906C69.2823 28.8695 69.3168 28.848 69.3506 28.8252C69.3168 28.848 69.2823 28.8695 69.2471 28.8906ZM52.9814 28.7656C53.0151 28.7416 53.049 28.7187 53.0811 28.6934C53.049 28.7187 53.0151 28.7416 52.9814 28.7656ZM85.2783 28.7656C85.3119 28.7416 85.3458 28.7187 85.3779 28.6934C85.3458 28.7187 85.3119 28.7416 85.2783 28.7656ZM69.4502 28.7539C69.483 28.7291 69.5147 28.7032 69.5459 28.6768C69.5147 28.7032 69.483 28.7291 69.4502 28.7539ZM53.1826 28.6074C53.2165 28.5776 53.2503 28.548 53.2822 28.5166C53.2503 28.548 53.2165 28.5776 53.1826 28.6074ZM69.624 28.6074C69.6582 28.5755 69.6916 28.5429 69.7236 28.5088C69.6916 28.5429 69.6582 28.5755 69.624 28.6074ZM85.4795 28.6074C85.5134 28.5776 85.5471 28.548 85.5791 28.5166C85.5471 28.548 85.5134 28.5776 85.4795 28.6074ZM69.793 28.4326C69.8228 28.3976 69.8512 28.3614 69.8789 28.3242C69.8512 28.3614 69.8228 28.3976 69.793 28.4326ZM85.7227 28.3633C85.7293 28.3555 85.7357 28.3477 85.7422 28.3398C85.7357 28.3477 85.7293 28.3555 85.7227 28.3633ZM53.4287 28.3613C53.4339 28.3552 53.4392 28.349 53.4443 28.3428C53.4392 28.349 53.4339 28.3552 53.4287 28.3613ZM69.9395 28.2402C69.9637 28.2042 69.9856 28.1667 70.0078 28.1289C69.9856 28.1667 69.9637 28.2042 69.9395 28.2402ZM65.1904 28.1611H67.4854C68.0149 28.1611 68.4191 28.0084 68.6875 27.7617C68.9535 27.517 69.1113 27.157 69.1113 26.6924C69.1112 26.2283 68.9534 25.873 68.6885 25.6318C68.4205 25.3882 68.0162 25.2374 67.4854 25.2373H65.1904V28.1611ZM53.5811 28.1611C53.5879 28.151 53.5939 28.1402 53.6006 28.1299C53.5939 28.1402 53.5879 28.151 53.5811 28.1611ZM85.8779 28.1611C85.8848 28.151 85.8908 28.1402 85.8975 28.1299C85.8908 28.1402 85.8848 28.151 85.8779 28.1611ZM70.0605 28.0352C70.0814 27.9954 70.1004 27.9546 70.1191 27.9131C70.1004 27.9546 70.0814 27.9954 70.0605 28.0352ZM86.0107 27.9355C86.0156 27.9261 86.0206 27.9167 86.0254 27.9072C86.0206 27.9167 86.0156 27.9261 86.0107 27.9355ZM53.7148 27.9336C53.7183 27.927 53.7222 27.9207 53.7256 27.9141C53.7222 27.9207 53.7183 27.927 53.7148 27.9336ZM70.1709 27.7959C70.1885 27.7505 70.2035 27.7037 70.2188 27.6562C70.2035 27.7037 70.1885 27.7505 70.1709 27.7959ZM70.248 27.5615C70.2624 27.5102 70.2746 27.4578 70.2861 27.4043C70.2746 27.4578 70.2624 27.5102 70.248 27.5615ZM53.9053 27.4385C53.9082 27.4272 53.9103 27.4157 53.9131 27.4043C53.9103 27.4157 53.9082 27.4272 53.9053 27.4385ZM86.2021 27.4385C86.2051 27.4272 86.2072 27.4157 86.21 27.4043C86.2072 27.4157 86.2051 27.4272 86.2021 27.4385ZM70.3086 27.2949C70.3215 27.2213 70.3311 27.1458 70.3389 27.0684C70.3311 27.1458 70.3215 27.2213 70.3086 27.2949ZM86.2568 27.1699C86.2584 27.1592 86.2592 27.1484 86.2607 27.1377C86.2592 27.1484 86.2584 27.1592 86.2568 27.1699ZM70.3447 27.0205C70.353 26.923 70.3584 26.8223 70.3584 26.7188C70.3584 26.8223 70.353 26.923 70.3447 27.0205ZM53.9912 26.6924C53.9902 26.6157 53.9861 26.5406 53.9795 26.4668C53.9861 26.5406 53.9902 26.6157 53.9912 26.6924ZM86.2871 26.6924C86.2861 26.6154 86.283 26.5399 86.2764 26.4658C86.283 26.5399 86.2861 26.6154 86.2871 26.6924ZM53.9648 26.3486C53.9583 26.2994 53.9515 26.2509 53.9424 26.2031C53.9515 26.2509 53.9583 26.2994 53.9648 26.3486ZM86.2617 26.3486C86.2552 26.2994 86.2483 26.2509 86.2393 26.2031C86.2483 26.2509 86.2552 26.2994 86.2617 26.3486ZM53.9258 26.1279C53.9132 26.0709 53.9 26.0148 53.8838 25.96C53.9 26.0148 53.9132 26.0709 53.9258 26.1279ZM86.2227 26.1279C86.21 26.0709 86.1969 26.0148 86.1807 25.96C86.1969 26.0148 86.21 26.0709 86.2227 26.1279ZM73.915 26.0752H76.6973L75.3154 22.1426L73.915 26.0752ZM100.473 26.0752H103.254L101.873 22.1426L100.473 26.0752ZM53.8574 25.8779C53.8415 25.8305 53.8243 25.784 53.8057 25.7383C53.8243 25.784 53.8415 25.8304 53.8574 25.8779ZM86.1494 25.8643C86.1362 25.8255 86.1215 25.7876 86.1064 25.75C86.1215 25.7876 86.1362 25.8255 86.1494 25.8643ZM53.7627 25.6387C53.7462 25.6031 53.7282 25.5686 53.71 25.5342C53.7282 25.5686 53.7462 25.6031 53.7627 25.6387ZM86.0586 25.6367C86.0424 25.6018 86.0247 25.5679 86.0068 25.5342C86.0247 25.5679 86.0424 25.6018 86.0586 25.6367ZM53.6523 25.4307C53.6339 25.3999 53.6136 25.3705 53.5938 25.3408C53.6136 25.3705 53.6339 25.3999 53.6523 25.4307ZM85.9492 25.4307C85.9308 25.3999 85.9105 25.3705 85.8906 25.3408C85.9105 25.3705 85.9308 25.3999 85.9492 25.4307ZM53.5234 25.2373C53.4791 25.1785 53.4328 25.1214 53.3828 25.0674C53.4328 25.1215 53.4791 25.1785 53.5234 25.2373ZM85.502 24.8955C85.6204 24.9984 85.7266 25.1129 85.8203 25.2373C85.776 25.1785 85.7296 25.1214 85.6797 25.0674C85.624 25.0071 85.5644 24.9498 85.502 24.8955C85.4535 24.8516 85.4053 24.8107 85.3564 24.7725C85.4053 24.8107 85.4535 24.8516 85.502 24.8955ZM85.2959 24.7285C85.2634 24.7047 85.2307 24.6818 85.1973 24.6602C85.2307 24.6818 85.2634 24.7047 85.2959 24.7285ZM85.1318 24.6201C85.102 24.6024 85.0721 24.5847 85.041 24.5684C85.0721 24.5847 85.102 24.6024 85.1318 24.6201ZM84.9619 24.5283C84.9302 24.5133 84.8976 24.4992 84.8643 24.4854C84.8976 24.4992 84.9302 24.5133 84.9619 24.5283ZM84.7842 24.4541C84.7454 24.4396 84.7055 24.4255 84.6641 24.4121C84.7055 24.4255 84.7454 24.4396 84.7842 24.4541ZM84.5908 24.3887C84.5343 24.372 84.4752 24.3559 84.4131 24.3408C84.4752 24.3559 84.5343 24.372 84.5908 24.3887ZM84.3721 24.3311C84.2914 24.3122 84.2058 24.2943 84.1143 24.2773C84.2058 24.2943 84.2914 24.3122 84.3721 24.3311ZM48.377 24.1084C48.4268 24.1628 48.479 24.2157 48.5352 24.2656C48.479 24.2157 48.4268 24.1628 48.377 24.1084ZM80.6787 24.1143C80.727 24.1667 80.7778 24.2174 80.832 24.2656C80.7778 24.2174 80.727 24.1667 80.6787 24.1143ZM48.2344 23.9336C48.2674 23.9788 48.303 24.0219 48.3398 24.0645C48.303 24.0219 48.2674 23.9788 48.2344 23.9336ZM80.5342 23.9375C80.5604 23.9732 80.5886 24.007 80.6172 24.041C80.5886 24.007 80.5604 23.9732 80.5342 23.9375ZM48.1191 23.7578C48.141 23.7954 48.1653 23.8312 48.1895 23.8672C48.1653 23.8312 48.141 23.7954 48.1191 23.7578ZM80.416 23.7578C80.4379 23.7954 80.4622 23.8312 80.4863 23.8672C80.4622 23.8312 80.4379 23.7954 80.416 23.7578ZM65.1904 23.8457H67.3809C67.8614 23.8456 68.2587 23.7261 68.5303 23.5059C68.7939 23.2919 68.9668 22.9603 68.9668 22.4688C68.9668 21.9772 68.7941 21.6491 68.5312 21.4385C68.2601 21.2213 67.8627 21.1056 67.3809 21.1055H65.1904V23.8457ZM48.0215 23.5654C48.0386 23.6037 48.057 23.641 48.0762 23.6777C48.057 23.641 48.0386 23.6037 48.0215 23.5654ZM80.3184 23.5654C80.3355 23.6037 80.3538 23.641 80.373 23.6777C80.3538 23.641 80.3355 23.6037 80.3184 23.5654ZM47.9365 23.3398C47.9507 23.3843 47.9648 23.4281 47.9814 23.4707C47.9648 23.4281 47.9507 23.3843 47.9365 23.3398ZM80.2324 23.3398C80.2466 23.3844 80.2616 23.428 80.2783 23.4707C80.2617 23.428 80.2466 23.3844 80.2324 23.3398ZM47.8711 23.0918C47.8828 23.1494 47.8958 23.2058 47.9111 23.2607C47.8958 23.2058 47.8828 23.1494 47.8711 23.0918ZM80.1504 23.0137C80.165 23.0989 80.1847 23.1811 80.207 23.2607C80.1655 23.1119 80.1367 22.9536 80.1221 22.7852L80.1504 23.0137ZM47.834 22.8477C47.8408 22.9109 47.8476 22.9729 47.8584 23.0332C47.8476 22.9729 47.8408 22.9109 47.834 22.8477ZM85.8828 20.9072C85.7851 20.8207 85.687 20.7409 85.5889 20.666C85.6869 20.7409 85.7851 20.8207 85.8828 20.9072ZM51.8184 20.8779C51.9417 20.9154 52.0588 20.9603 52.1709 21.0127C52.0588 20.9604 51.9418 20.9154 51.8184 20.8779ZM53.5195 20.8525C53.4455 20.789 53.3731 20.7269 53.2988 20.6699C53.3731 20.7269 53.4455 20.789 53.5195 20.8525ZM53.043 20.4893C53.0254 20.4777 53.0079 20.4663 52.9902 20.4551C53.0079 20.4663 53.0254 20.4777 53.043 20.4893ZM85.3271 20.4814C85.3157 20.474 85.3045 20.4663 85.293 20.459C85.3045 20.4663 85.3157 20.474 85.3271 20.4814ZM52.9521 20.4316C52.9189 20.4111 52.8861 20.3904 52.8525 20.3711C52.8861 20.3904 52.9189 20.4111 52.9521 20.4316ZM85.2207 20.4141C85.1967 20.3995 85.1727 20.385 85.1484 20.3711C85.1727 20.385 85.1967 20.3995 85.2207 20.4141ZM85.085 20.3359C85.0532 20.3185 85.0214 20.3015 84.9893 20.2852C85.0214 20.3015 85.0532 20.3185 85.085 20.3359ZM52.7812 20.332C52.7527 20.3164 52.7242 20.3009 52.6953 20.2861C52.7242 20.3009 52.7527 20.3164 52.7812 20.332ZM52.623 20.251C52.5955 20.2377 52.5679 20.2244 52.54 20.2119C52.5679 20.2244 52.5955 20.2377 52.623 20.251ZM84.9199 20.251C84.8924 20.2377 84.8648 20.2244 84.8369 20.2119C84.8648 20.2244 84.8923 20.2377 84.9199 20.251ZM52.4785 20.1855C52.4442 20.1709 52.4099 20.1561 52.375 20.1426C52.4099 20.1561 52.4442 20.1709 52.4785 20.1855ZM84.7754 20.1855C84.7411 20.1709 84.7068 20.1561 84.6719 20.1426C84.7068 20.1561 84.741 20.1709 84.7754 20.1855ZM84.6025 20.1172C84.5747 20.1071 84.5468 20.0973 84.5186 20.0879C84.5468 20.0973 84.5747 20.1071 84.6025 20.1172ZM52.3037 20.1162C52.2797 20.1076 52.2557 20.099 52.2314 20.0908C52.2557 20.099 52.2797 20.1076 52.3037 20.1162ZM84.4365 20.0615C84.3992 20.0501 84.3614 20.0396 84.3232 20.0293C84.3614 20.0396 84.3992 20.0501 84.4365 20.0615ZM52.1338 20.0596C52.0996 20.0492 52.0651 20.0397 52.0303 20.0303C52.0651 20.0397 52.0996 20.0492 52.1338 20.0596ZM51.9854 20.0176C51.9462 20.0075 51.9063 19.9991 51.8662 19.9902C51.9063 19.9991 51.9462 20.0075 51.9854 20.0176ZM84.2822 20.0176C84.243 20.0075 84.2032 19.9991 84.1631 19.9902C84.2032 19.9991 84.243 20.0075 84.2822 20.0176ZM51.7822 19.9717C51.759 19.9671 51.7355 19.9632 51.7119 19.959C51.7355 19.9632 51.759 19.9671 51.7822 19.9717ZM84.0801 19.9717C84.0508 19.9658 84.021 19.9613 83.9912 19.9561C84.021 19.9613 84.0508 19.9658 84.0801 19.9717ZM51.6172 19.9424C51.5703 19.935 51.5228 19.9288 51.4746 19.9229C51.5228 19.9288 51.5703 19.9351 51.6172 19.9424ZM83.917 19.9424C83.8683 19.9347 83.8187 19.929 83.7686 19.9229C83.8187 19.929 83.8683 19.9347 83.917 19.9424ZM51.4277 19.917C51.4125 19.9153 51.3972 19.9137 51.3818 19.9121C51.3972 19.9137 51.4125 19.9153 51.4277 19.917ZM83.7246 19.917C83.7094 19.9153 83.6941 19.9137 83.6787 19.9121C83.6941 19.9137 83.7094 19.9153 83.7246 19.917ZM102.253 19.2119L102.179 19.3213H100.703L100.926 18.9434L102.119 16.9238L102.192 16.8008H103.896L102.253 19.2119ZM75.5801 4.0127C76.6147 4.01278 77.4535 4.37829 78.0791 5.00391C78.5504 5.47524 78.8112 5.94143 78.9482 6.57129C79.0812 7.18275 79.0967 7.94877 79.0967 9.01172C79.0967 10.0748 79.0812 10.8407 78.9482 11.4521C78.8113 12.0819 78.5502 12.5473 78.0791 13.0186C77.4535 13.6442 76.6147 14.0107 75.5801 14.0107C74.5465 14.0107 73.6948 13.6449 73.0684 13.0186C72.5965 12.5466 72.3386 12.081 72.2051 11.4512C72.0756 10.8401 72.0635 10.0741 72.0635 9.01172C72.0635 7.94931 72.0756 7.18333 72.2051 6.57227C72.3386 5.94226 72.5963 5.47597 73.0684 5.00391C73.6948 4.37769 74.5466 4.0127 75.5801 4.0127ZM106.891 4.0127C107.925 4.01286 108.763 4.37855 109.389 5.00391C109.86 5.47524 110.122 5.94143 110.259 6.57129C110.392 7.18274 110.407 7.94881 110.407 9.01172C110.407 10.0747 110.392 10.8407 110.259 11.4521C110.122 12.082 109.86 12.5472 109.389 13.0186C108.763 13.6441 107.925 14.0106 106.891 14.0107C105.857 14.0107 105.005 13.6448 104.379 13.0186C103.907 12.5466 103.649 12.081 103.516 11.4512C103.386 10.8401 103.374 10.0741 103.374 9.01172C103.374 7.94927 103.386 7.18334 103.516 6.57227C103.649 5.94226 103.907 5.47597 104.379 5.00391C105.005 4.3778 105.857 4.0127 106.891 4.0127ZM127.733 4.0127C128.768 4.01278 129.607 4.37842 130.232 5.00391C130.704 5.47524 130.965 5.94143 131.102 6.57129C131.235 7.18277 131.25 7.94872 131.25 9.01172C131.25 10.0748 131.235 10.8406 131.102 11.4521C130.965 12.082 130.704 12.5472 130.232 13.0186C129.607 13.6442 128.768 14.0107 127.733 14.0107C126.7 14.0106 125.848 13.6448 125.222 13.0186C124.75 12.5467 124.493 12.0808 124.359 11.4512C124.23 10.8401 124.218 10.0741 124.218 9.01172C124.218 7.94927 124.23 7.18334 124.359 6.57227C124.493 5.94228 124.75 5.47596 125.222 5.00391C125.848 4.37765 126.7 4.0128 127.733 4.0127ZM49.6123 12.54H54.3877V13.7832L54.457 13.5957L57.8936 4.25488L57.9541 4.0918H59.1426L59.2031 4.25488L62.75 13.9316H61.1523L61.0938 13.7656L60.4043 11.8193H56.6787L55.9902 13.7656L55.9307 13.9316H48.1152V4.0918H49.6123V12.54ZM67.4209 4.0918C68.2801 4.09189 69.0324 4.33776 69.5732 4.81445C70.1177 5.29464 70.4258 5.9893 70.4258 6.83398C70.4257 7.71664 69.9937 8.45347 69.3584 8.87402C70.086 9.31276 70.5703 10.0801 70.5703 11.0977C70.5702 12.0021 70.2663 12.7212 69.7158 13.2109C69.1693 13.6969 68.408 13.9315 67.5391 13.9316H63.6553V4.0918H67.4209ZM84.7812 4.0918C85.6442 4.09187 86.401 4.35283 86.9443 4.85059C87.49 5.35064 87.7987 6.06984 87.7988 6.93848C87.7988 7.67282 87.5759 8.29609 87.1768 8.77051C86.8445 9.16531 86.3978 9.44489 85.8818 9.60547L88.1455 13.9316H86.4131L86.3428 13.7959L84.2871 9.78613H82.4473V13.9316H80.9502V4.0918H84.7812ZM93.127 4.25488L96.6738 13.9316H95.0762L95.0176 13.7656L94.3281 11.8193H90.6025L89.9131 13.7656L89.8545 13.9316H88.2568L88.3809 13.5957L91.8174 4.25488L91.8779 4.0918H93.0664L93.127 4.25488ZM102.741 5.4834H100.039V13.9316H98.542V5.4834H95.8398V4.0918H102.741V5.4834ZM116.092 4.0918C116.954 4.09193 117.711 4.35308 118.254 4.85059C118.8 5.35064 119.109 6.06982 119.109 6.93848C119.109 7.67298 118.886 8.29606 118.486 8.77051C118.154 9.16523 117.708 9.44487 117.192 9.60547L119.456 13.9316H117.723L117.653 13.7959L115.598 9.78613H113.757V13.9316H112.26V4.0918H116.092ZM122.366 13.9316H120.869V4.0918H122.366V13.9316ZM75.0664 13.7266C75.0748 13.7277 75.0833 13.7284 75.0918 13.7295C75.0833 13.7284 75.0748 13.7277 75.0664 13.7266ZM106.374 13.7266C106.384 13.7279 106.394 13.7282 106.404 13.7295C106.394 13.7282 106.384 13.7279 106.374 13.7266ZM127.218 13.7266C127.228 13.7279 127.238 13.7282 127.248 13.7295C127.238 13.7282 127.228 13.7279 127.218 13.7266ZM76.166 13.7148C76.182 13.7123 76.198 13.7097 76.2139 13.707C76.198 13.7097 76.182 13.7123 76.166 13.7148ZM68.1143 13.6406C67.9306 13.6666 67.7381 13.6816 67.5381 13.6816L67.8428 13.6709C67.9353 13.6644 68.0257 13.6532 68.1143 13.6406ZM74.7588 13.6709C74.7643 13.6722 74.7698 13.6736 74.7754 13.6748C74.7698 13.6736 74.7643 13.6722 74.7588 13.6709ZM106.068 13.6709C106.074 13.6722 106.079 13.6736 106.085 13.6748C106.079 13.6736 106.074 13.6722 106.068 13.6709ZM126.912 13.6709C126.918 13.6722 126.923 13.6736 126.929 13.6748C126.923 13.6736 126.918 13.6722 126.912 13.6709ZM76.459 13.6562C76.4708 13.6533 76.4824 13.6495 76.4941 13.6465C76.4824 13.6495 76.4708 13.6533 76.459 13.6562ZM68.209 13.625C68.2652 13.6155 68.3206 13.6057 68.375 13.5938C68.3206 13.6057 68.2652 13.6155 68.209 13.625ZM105.755 13.583C105.774 13.5894 105.793 13.5955 105.812 13.6016C105.793 13.5955 105.774 13.5894 105.755 13.583ZM126.599 13.583C126.618 13.5894 126.637 13.5955 126.656 13.6016C126.637 13.5955 126.618 13.5894 126.599 13.583ZM74.4502 13.585C74.4654 13.59 74.4807 13.5948 74.4961 13.5996C74.4807 13.5948 74.4654 13.59 74.4502 13.585ZM68.4785 13.5684C68.5279 13.5558 68.5763 13.542 68.624 13.5273C68.5763 13.542 68.5279 13.5558 68.4785 13.5684ZM105.479 13.4756C105.495 13.4828 105.511 13.4901 105.527 13.4971C105.511 13.4901 105.495 13.4828 105.479 13.4756ZM126.324 13.4766C126.338 13.4828 126.352 13.4891 126.366 13.4951C126.352 13.4891 126.338 13.4827 126.324 13.4766ZM68.7236 13.4941C68.77 13.478 68.8157 13.4616 68.8604 13.4434C68.8156 13.4616 68.77 13.478 68.7236 13.4941ZM74.1738 13.4785C74.1858 13.4838 74.1979 13.489 74.21 13.4941C74.1979 13.489 74.1858 13.4838 74.1738 13.4785ZM76.9658 13.4834C76.9819 13.4764 76.9978 13.4692 77.0137 13.4619C76.9978 13.4692 76.9819 13.4763 76.9658 13.4834ZM68.9561 13.4023C68.9979 13.3834 69.0389 13.3637 69.0791 13.3428C69.0389 13.3637 68.9979 13.3834 68.9561 13.4023ZM73.8926 13.3359C73.9131 13.3476 73.9333 13.3598 73.9541 13.3711C73.9333 13.3598 73.9131 13.3476 73.8926 13.3359ZM77.208 13.3633C77.2286 13.3519 77.2493 13.3409 77.2695 13.3291C77.2493 13.3409 77.2286 13.3519 77.208 13.3633ZM105.226 13.3496C105.231 13.3527 105.237 13.3563 105.242 13.3594C105.237 13.3563 105.231 13.3527 105.226 13.3496ZM126.069 13.3496C126.075 13.3527 126.08 13.3563 126.086 13.3594C126.08 13.3563 126.075 13.3527 126.069 13.3496ZM69.1748 13.291C69.2151 13.2677 69.2535 13.2421 69.292 13.2168C69.2535 13.2422 69.2151 13.2677 69.1748 13.291ZM77.4482 13.2168C77.4614 13.2079 77.4743 13.1986 77.4873 13.1895C77.4743 13.1986 77.4614 13.2079 77.4482 13.2168ZM73.667 13.1943C73.6768 13.2011 73.6864 13.2082 73.6963 13.2148C73.6864 13.2082 73.6768 13.2011 73.667 13.1943ZM104.985 13.2002C104.99 13.2036 104.995 13.2075 105 13.2109C104.995 13.2075 104.99 13.2036 104.985 13.2002ZM125.829 13.2002C125.834 13.2036 125.839 13.2075 125.844 13.2109C125.839 13.2075 125.834 13.2036 125.829 13.2002ZM69.3672 13.167C69.4092 13.1369 69.4487 13.104 69.4883 13.0713C69.4487 13.104 69.4092 13.1368 69.3672 13.167ZM77.9014 12.8418C77.9547 12.7885 78.0053 12.7357 78.0527 12.6826C78.0053 12.7357 77.9547 12.7885 77.9014 12.8418ZM73.0938 12.6826C73.1411 12.7357 73.1918 12.7885 73.2451 12.8418C73.3157 12.9123 73.389 12.9797 73.4658 13.043C73.389 12.9797 73.3157 12.9123 73.2451 12.8418C73.1918 12.7885 73.1411 12.7357 73.0938 12.6826ZM104.404 12.6826C104.452 12.7356 104.502 12.7886 104.555 12.8418C104.625 12.9124 104.699 12.9796 104.776 13.043C104.699 12.9796 104.625 12.9124 104.555 12.8418C104.502 12.7886 104.452 12.7356 104.404 12.6826ZM125.248 12.6826C125.295 12.7356 125.345 12.7886 125.398 12.8418C125.469 12.9125 125.543 12.9796 125.62 13.043C125.543 12.9796 125.469 12.9125 125.398 12.8418C125.345 12.7886 125.295 12.7356 125.248 12.6826ZM69.6631 12.9111C69.6773 12.8964 69.6922 12.8823 69.7061 12.8672C69.6922 12.8823 69.6773 12.8964 69.6631 12.9111ZM106.891 5.4043C106.325 5.4043 105.837 5.60314 105.453 5.9873C105.198 6.24898 105.056 6.52369 104.974 6.96484C104.888 7.42364 104.871 8.04963 104.871 9.01172C104.871 9.9737 104.888 10.5998 104.974 11.0586C105.056 11.4996 105.198 11.7745 105.453 12.0361L105.603 12.1709C105.961 12.4662 106.396 12.6182 106.891 12.6182C107.456 12.618 107.943 12.4201 108.327 12.0361C108.583 11.7744 108.726 11.4998 108.808 11.0586C108.893 10.5998 108.91 9.9737 108.91 9.01172C108.91 8.04973 108.893 7.42363 108.808 6.96484C108.726 6.52366 108.582 6.24898 108.327 5.9873L108.179 5.85254C107.82 5.557 107.386 5.40444 106.891 5.4043ZM109.269 12.7822C109.301 12.7488 109.332 12.7161 109.362 12.6826C109.332 12.7161 109.301 12.7488 109.269 12.7822ZM130.112 12.7822C130.144 12.7488 130.176 12.7161 130.206 12.6826C130.176 12.7161 130.144 12.7488 130.112 12.7822ZM69.7822 12.7754C69.8072 12.7448 69.8331 12.7148 69.8564 12.6826C69.8331 12.7148 69.8072 12.7447 69.7822 12.7754ZM75.5801 5.4043C75.0143 5.4043 74.5278 5.60328 74.1436 5.9873C73.888 6.24909 73.7451 6.52348 73.6631 6.96484C73.5778 7.42364 73.5605 8.04963 73.5605 9.01172C73.5605 9.9737 73.5778 10.5998 73.6631 11.0586C73.7451 11.4998 73.888 11.7744 74.1436 12.0361L74.292 12.1709C74.6503 12.4663 75.0849 12.6182 75.5801 12.6182C76.1457 12.6181 76.6325 12.4201 77.0166 12.0361C77.2721 11.7744 77.415 11.4998 77.4971 11.0586C77.5823 10.5998 77.5996 9.9737 77.5996 9.01172C77.5996 8.04972 77.5823 7.42363 77.4971 6.96484C77.4151 6.52359 77.272 6.24903 77.0166 5.9873C76.6325 5.60327 76.1457 5.40438 75.5801 5.4043ZM127.733 5.4043C127.168 5.4044 126.681 5.60325 126.297 5.9873C126.041 6.24903 125.898 6.52358 125.816 6.96484C125.731 7.42364 125.715 8.04966 125.715 9.01172C125.715 9.9737 125.731 10.5998 125.816 11.0586C125.898 11.4997 126.041 11.7744 126.297 12.0361L126.446 12.1709C126.804 12.466 127.239 12.6181 127.733 12.6182C128.299 12.6181 128.787 12.4203 129.171 12.0361C129.426 11.7745 129.569 11.4997 129.651 11.0586C129.737 10.5998 129.753 9.9737 129.753 9.01172C129.753 8.04975 129.737 7.42363 129.651 6.96484C129.569 6.52371 129.426 6.24896 129.171 5.9873L129.021 5.85254C128.663 5.55719 128.228 5.40437 127.733 5.4043ZM72.9688 12.5332C72.9913 12.5618 73.015 12.5898 73.0391 12.6182C73.015 12.5898 72.9913 12.5617 72.9688 12.5332ZM78.1074 12.6182C78.1349 12.5858 78.161 12.5531 78.1865 12.5205C78.161 12.5531 78.1349 12.5858 78.1074 12.6182ZM104.271 12.5225C104.297 12.5545 104.323 12.5863 104.35 12.6182C104.323 12.5863 104.297 12.5545 104.271 12.5225ZM125.113 12.5205C125.139 12.5533 125.166 12.5856 125.193 12.6182C125.166 12.5856 125.139 12.5533 125.113 12.5205ZM109.424 12.6104C109.446 12.5841 109.467 12.5577 109.488 12.5312C109.467 12.5577 109.446 12.5841 109.424 12.6104ZM130.268 12.6104C130.29 12.5841 130.311 12.5577 130.332 12.5312C130.311 12.5577 130.29 12.5841 130.268 12.6104ZM69.915 12.5938C69.9376 12.5592 69.9597 12.5244 69.9805 12.4883C69.9597 12.5244 69.9376 12.5592 69.915 12.5938ZM65.1523 12.54H67.4473C67.9767 12.5399 68.3801 12.3863 68.6484 12.1396C68.9145 11.895 69.0732 11.536 69.0732 11.0713C69.0732 10.6068 68.9146 10.251 68.6494 10.0098C68.3814 9.76629 67.9778 9.61632 67.4473 9.61621H65.1523V12.54ZM125.005 12.3711C125.032 12.4116 125.06 12.4523 125.091 12.4922C125.06 12.4523 125.032 12.4116 125.005 12.3711ZM78.2119 12.4873C78.2403 12.45 78.268 12.4129 78.2939 12.375C78.268 12.4129 78.2403 12.45 78.2119 12.4873ZM104.164 12.375C104.185 12.4058 104.207 12.4363 104.229 12.4668C104.207 12.4363 104.185 12.4058 104.164 12.375ZM72.8535 12.375C72.8743 12.4056 72.8965 12.4356 72.9189 12.4658C72.8965 12.4356 72.8743 12.4056 72.8535 12.375ZM109.537 12.4658C109.56 12.4356 109.582 12.4056 109.603 12.375C109.582 12.4056 109.56 12.4356 109.537 12.4658ZM130.381 12.4658C130.403 12.4356 130.425 12.4056 130.446 12.375C130.425 12.4056 130.403 12.4356 130.381 12.4658ZM70.0352 12.3887C70.0566 12.3467 70.0766 12.3038 70.0957 12.2598C70.0766 12.3038 70.0566 12.3467 70.0352 12.3887ZM72.748 12.2061C72.7659 12.2373 72.7844 12.2682 72.8037 12.2988C72.7844 12.2682 72.7659 12.2373 72.748 12.2061ZM124.907 12.2148C124.923 12.2415 124.939 12.2677 124.955 12.2939C124.939 12.2677 124.923 12.2415 124.907 12.2148ZM78.3496 12.2891C78.3651 12.2645 78.38 12.2398 78.3945 12.2148C78.38 12.2398 78.3651 12.2645 78.3496 12.2891ZM104.063 12.2148C104.078 12.2398 104.093 12.2644 104.108 12.2891C104.093 12.2644 104.078 12.2398 104.063 12.2148ZM109.66 12.2891C109.676 12.2639 109.691 12.2385 109.706 12.2129C109.691 12.2385 109.676 12.2639 109.66 12.2891ZM130.504 12.2891C130.52 12.2639 130.535 12.2385 130.55 12.2129C130.535 12.2385 130.52 12.2639 130.504 12.2891ZM70.1318 12.1699C70.1488 12.1261 70.165 12.0818 70.1797 12.0361C70.165 12.0818 70.1488 12.1261 70.1318 12.1699ZM72.6631 12.043C72.6786 12.0755 72.6941 12.1079 72.7109 12.1396C72.6941 12.1079 72.6786 12.0755 72.6631 12.043ZM103.969 12.0342C103.985 12.0694 104.002 12.1043 104.021 12.1387C104.002 12.1043 103.985 12.0694 103.969 12.0342ZM124.812 12.0342C124.829 12.0694 124.846 12.1043 124.864 12.1387C124.846 12.1043 124.829 12.0694 124.812 12.0342ZM78.4385 12.1357C78.4606 12.0943 78.4821 12.0525 78.502 12.0098C78.4821 12.0525 78.4606 12.0943 78.4385 12.1357ZM109.749 12.1357C109.771 12.0943 109.793 12.0525 109.812 12.0098C109.793 12.0525 109.771 12.0943 109.749 12.1357ZM130.593 12.1357C130.615 12.0943 130.636 12.0525 130.656 12.0098C130.636 12.0525 130.615 12.0943 130.593 12.1357ZM130.671 11.9756C130.69 11.933 130.708 11.8898 130.725 11.8457C130.708 11.8898 130.69 11.933 130.671 11.9756ZM78.5176 11.9746C78.5379 11.9289 78.5573 11.8825 78.5752 11.835C78.5573 11.8825 78.5379 11.9289 78.5176 11.9746ZM109.828 11.9746C109.842 11.9432 109.854 11.9111 109.867 11.8789C109.854 11.9111 109.842 11.9432 109.828 11.9746ZM72.585 11.8613C72.5982 11.8959 72.6114 11.9302 72.626 11.9639C72.6114 11.9302 72.5982 11.8959 72.585 11.8613ZM103.896 11.8613C103.909 11.8959 103.922 11.9302 103.937 11.9639C103.922 11.9302 103.909 11.8959 103.896 11.8613ZM124.739 11.8613C124.753 11.8959 124.766 11.9302 124.78 11.9639C124.766 11.9302 124.753 11.8959 124.739 11.8613ZM70.2129 11.9277C70.2285 11.8708 70.2417 11.8125 70.2539 11.7529C70.2417 11.8125 70.2285 11.8708 70.2129 11.9277ZM72.4521 11.4131C72.4812 11.5474 72.5164 11.6733 72.5586 11.793C72.5164 11.6733 72.4811 11.5474 72.4521 11.4131ZM78.5918 11.793C78.6049 11.7563 78.6161 11.7186 78.6279 11.6807C78.6161 11.7186 78.6049 11.7563 78.5918 11.793ZM103.836 11.6875C103.847 11.7231 103.857 11.7585 103.869 11.793C103.857 11.7585 103.847 11.7231 103.836 11.6875ZM124.68 11.6875C124.691 11.7231 124.701 11.7585 124.713 11.793C124.701 11.7585 124.691 11.7231 124.68 11.6875ZM130.855 11.4053C130.825 11.5426 130.789 11.671 130.745 11.793C130.789 11.671 130.825 11.5426 130.855 11.4053ZM77.6367 11.5039C77.6442 11.4826 77.6532 11.4615 77.6602 11.4395L77.666 11.4199C77.6572 11.4487 77.6464 11.4763 77.6367 11.5039ZM104.81 11.4395C104.817 11.4614 104.825 11.4827 104.832 11.5039C104.822 11.4764 104.813 11.4486 104.804 11.4199L104.81 11.4395ZM125.653 11.4395C125.66 11.4614 125.668 11.4827 125.676 11.5039C125.666 11.4764 125.656 11.4486 125.647 11.4199L125.653 11.4395ZM109.99 11.4932C109.997 11.4642 110.005 11.4351 110.012 11.4053C110.005 11.4351 109.997 11.4642 109.99 11.4932ZM69.2783 11.4922C69.2816 11.4769 69.2862 11.4618 69.2891 11.4463L69.291 11.4355C69.2876 11.4547 69.2823 11.4734 69.2783 11.4922ZM73.499 11.4395C73.5004 11.4438 73.5025 11.4479 73.5039 11.4521C73.5004 11.4414 73.4965 11.4308 73.4932 11.4199L73.499 11.4395ZM108.966 11.4521C108.967 11.4479 108.969 11.4438 108.971 11.4395L108.977 11.4199C108.973 11.4308 108.969 11.4414 108.966 11.4521ZM78.6904 11.4512C78.6935 11.4379 78.6963 11.4245 78.6992 11.4111C78.6963 11.4245 78.6935 11.4379 78.6904 11.4512ZM103.763 11.4141C103.765 11.4266 103.77 11.4388 103.772 11.4512C103.77 11.4388 103.765 11.4266 103.763 11.4141ZM124.606 11.4141C124.609 11.4266 124.613 11.4388 124.616 11.4512C124.613 11.4388 124.609 11.4266 124.606 11.4141ZM72.4102 11.1855C72.4191 11.2417 72.4289 11.2963 72.4395 11.3496C72.4289 11.2963 72.419 11.2417 72.4102 11.1855ZM103.721 11.1855C103.73 11.2417 103.739 11.2963 103.75 11.3496C103.739 11.2963 103.73 11.2417 103.721 11.1855ZM124.567 11.207C124.574 11.2482 124.582 11.2885 124.59 11.3281C124.582 11.2885 124.574 11.2482 124.567 11.207ZM104.667 10.6426C104.689 10.8859 104.72 11.0945 104.765 11.2783C104.72 11.0945 104.689 10.8859 104.667 10.6426ZM109.016 11.2783L109.053 11.1035C109.059 11.0674 109.064 11.0302 109.07 10.9922C109.054 11.0941 109.037 11.1892 109.016 11.2783ZM125.511 10.6426C125.532 10.8859 125.563 11.0945 125.608 11.2783C125.563 11.0945 125.532 10.8859 125.511 10.6426ZM78.7266 11.2783C78.7313 11.2526 78.7358 11.2266 78.7402 11.2002C78.7358 11.2266 78.7313 11.2526 78.7266 11.2783ZM110.037 11.2783C110.042 11.2526 110.046 11.2266 110.051 11.2002C110.046 11.2266 110.042 11.2526 110.037 11.2783ZM78.7559 11.0957C78.7611 11.0598 78.7669 11.0234 78.7715 10.9863C78.7669 11.0234 78.7611 11.0598 78.7559 11.0957ZM124.534 10.9619C124.538 10.999 124.543 11.0354 124.548 11.0713C124.543 11.0354 124.538 10.999 124.534 10.9619ZM110.094 10.8789C110.098 10.8405 110.101 10.8014 110.104 10.7617C110.101 10.8014 110.098 10.8405 110.094 10.8789ZM130.938 10.8789C130.942 10.8405 130.945 10.8014 130.948 10.7617C130.945 10.8014 130.942 10.8405 130.938 10.8789ZM72.3594 10.7432C72.3632 10.7886 72.3657 10.8333 72.3701 10.877C72.3657 10.8333 72.3632 10.7886 72.3594 10.7432ZM103.672 10.7793C103.674 10.8066 103.677 10.8336 103.68 10.8604C103.677 10.8336 103.674 10.8066 103.672 10.7793ZM124.516 10.7793C124.518 10.8066 124.521 10.8336 124.523 10.8604C124.521 10.8336 124.518 10.8066 124.516 10.7793ZM57.1582 10.4541H59.9404L58.5586 6.52148L57.1582 10.4541ZM91.082 10.4541H93.8633L92.4824 6.52148L91.082 10.4541ZM104.638 10.1748C104.631 10.0201 104.628 9.85363 104.625 9.67383L104.62 9.01172C104.62 9.46279 104.624 9.84545 104.638 10.1748ZM125.481 10.1748C125.475 10.0201 125.471 9.85363 125.469 9.67383L125.464 9.01172C125.464 9.46279 125.468 9.84545 125.481 10.1748ZM131 9.01172C131 9.53211 130.994 9.97394 130.976 10.3574C130.985 10.1708 130.993 9.97049 130.996 9.75391L131 9.01172ZM72.332 10.3145C72.3322 10.3187 72.3328 10.3229 72.333 10.3271C72.3253 10.1492 72.3202 9.95879 72.3174 9.75391L72.332 10.3145ZM103.633 9.94141C103.636 10.0763 103.638 10.2047 103.644 10.3271C103.638 10.2047 103.636 10.0763 103.633 9.94141ZM124.477 9.94141C124.479 10.0763 124.482 10.2047 124.487 10.3271C124.482 10.2047 124.479 10.0763 124.477 9.94141ZM68.7979 8.87988C68.8452 8.86252 68.8917 8.84308 68.9375 8.82227C68.8917 8.84308 68.8452 8.86252 68.7979 8.87988ZM69.002 8.79102C69.0266 8.77875 69.0511 8.76618 69.0752 8.75293C69.0511 8.76618 69.0266 8.77875 69.002 8.79102ZM69.1299 8.7207C69.1538 8.7066 69.1778 8.69281 69.2012 8.67773C69.1778 8.69281 69.1538 8.7066 69.1299 8.7207ZM69.2705 8.62891C69.2909 8.61448 69.3121 8.60112 69.332 8.58594C69.3121 8.60112 69.2909 8.61448 69.2705 8.62891ZM69.3789 8.54785C69.4044 8.52722 69.4295 8.50624 69.4541 8.48438C69.4295 8.50624 69.4044 8.52722 69.3789 8.54785ZM69.4932 8.44922C69.5163 8.42752 69.5393 8.40561 69.5615 8.38281C69.5393 8.40561 69.5163 8.42752 69.4932 8.44922ZM82.4473 8.40723H84.6895C85.1935 8.40716 85.595 8.27641 85.8662 8.04297C86.1317 7.81432 86.3027 7.46204 86.3027 6.95215C86.3027 6.44204 86.1316 6.08563 85.8652 5.85352C85.5936 5.61704 85.1922 5.48346 84.6895 5.4834H82.4473V8.40723ZM113.757 8.40723H116C116.504 8.40711 116.906 8.27636 117.177 8.04297C117.442 7.81432 117.612 7.46191 117.612 6.95215C117.612 6.44189 117.441 6.08563 117.175 5.85352C116.903 5.61716 116.502 5.48352 116 5.4834H113.757V8.40723ZM69.6152 8.32422C69.6296 8.30832 69.6443 8.29274 69.6582 8.27637C69.6443 8.29274 69.6296 8.30832 69.6152 8.32422ZM65.1523 8.22363H67.3418C67.8223 8.22357 68.2196 8.10481 68.4912 7.88477C68.755 7.67075 68.9287 7.33842 68.9287 6.84668C68.9286 6.35557 68.7557 6.02797 68.4932 5.81738C68.2219 5.60011 67.8239 5.48346 67.3418 5.4834H65.1523V8.22363ZM69.7129 8.20801C69.7257 8.19154 69.7386 8.17509 69.751 8.1582C69.7386 8.17509 69.7257 8.19154 69.7129 8.20801ZM78.8389 8.17188C78.8355 7.99311 78.8308 7.82561 78.8232 7.66797C78.8308 7.82561 78.8355 7.99311 78.8389 8.17188ZM69.8027 8.08496C69.8229 8.05489 69.8426 8.02443 69.8613 7.99316C69.8426 8.02443 69.8229 8.05489 69.8027 8.08496ZM72.334 7.68262C72.3285 7.808 72.3252 7.9396 72.3223 8.07812C72.3252 7.9396 72.3285 7.808 72.334 7.68262ZM103.645 7.66309C103.64 7.76854 103.638 7.87845 103.635 7.99316C103.638 7.87845 103.64 7.76854 103.645 7.66309ZM69.8809 7.95801C69.8973 7.9294 69.9135 7.90063 69.9287 7.87109C69.9135 7.90063 69.8973 7.9294 69.8809 7.95801ZM69.959 7.81152C69.9705 7.78723 69.9805 7.76217 69.9912 7.7373C69.9805 7.76217 69.9705 7.78723 69.959 7.81152ZM70.0225 7.66113C70.0324 7.63537 70.0417 7.60933 70.0508 7.58301C70.0417 7.60933 70.0324 7.63537 70.0225 7.66113ZM70.0752 7.51172C70.0856 7.47775 70.0937 7.44301 70.1025 7.4082C70.0937 7.44301 70.0856 7.47775 70.0752 7.51172ZM69.1172 7.33203C69.1253 7.30089 69.1352 7.26978 69.1416 7.2373L69.1436 7.22559C69.1366 7.26211 69.1262 7.29718 69.1172 7.33203ZM72.3721 7.13574C72.3687 7.16816 72.3653 7.20101 72.3623 7.23438C72.3653 7.20101 72.3687 7.16816 72.3721 7.13574ZM103.683 7.13574C103.681 7.15448 103.679 7.17333 103.677 7.19238C103.679 7.17333 103.681 7.15447 103.683 7.13574ZM103.715 6.875C103.708 6.92086 103.702 6.96776 103.696 7.01562C103.702 6.96776 103.708 6.92086 103.715 6.875ZM78.7666 6.99805C78.7624 6.96599 78.7576 6.93447 78.7529 6.90332C78.7576 6.93447 78.7624 6.96599 78.7666 6.99805ZM72.3984 6.91602C72.3961 6.93213 72.3948 6.94848 72.3926 6.96484C72.3947 6.94848 72.3961 6.93214 72.3984 6.91602ZM87.5488 6.93848C87.5488 6.84313 87.544 6.75006 87.5361 6.65918C87.544 6.75006 87.5488 6.84313 87.5488 6.93848ZM70.1543 6.49805C70.1467 6.42992 70.1382 6.36314 70.126 6.29785C70.1382 6.36314 70.1467 6.42992 70.1543 6.49805ZM103.756 6.64551C103.744 6.70349 103.733 6.76292 103.723 6.82422C103.733 6.76293 103.744 6.70349 103.756 6.64551ZM72.4365 6.69043C72.4316 6.71581 72.4274 6.74158 72.4229 6.76758C72.4274 6.74158 72.4316 6.71581 72.4365 6.69043ZM78.7305 6.76758C78.7245 6.73453 78.7185 6.70198 78.7119 6.66992C78.7185 6.70198 78.7245 6.73453 78.7305 6.76758ZM118.839 6.59766C118.831 6.52147 118.821 6.44687 118.808 6.37402C118.821 6.44688 118.831 6.52147 118.839 6.59766ZM103.797 6.46777C103.786 6.50963 103.775 6.55215 103.766 6.5957C103.775 6.55215 103.786 6.50963 103.797 6.46777ZM78.6895 6.56641C78.683 6.539 78.6759 6.51208 78.6689 6.48535C78.6759 6.51208 78.683 6.539 78.6895 6.56641ZM72.4844 6.47656C72.4781 6.50098 72.4726 6.5258 72.4668 6.55078C72.4726 6.5258 72.4781 6.50098 72.4844 6.47656ZM87.5166 6.50391C87.5111 6.46414 87.507 6.42456 87.5 6.38574C87.507 6.42456 87.5111 6.46414 87.5166 6.50391ZM72.5439 6.27832C72.535 6.30539 72.5259 6.33261 72.5176 6.36035C72.5259 6.3326 72.535 6.30539 72.5439 6.27832ZM78.6338 6.36035C78.6253 6.33266 78.6166 6.30534 78.6074 6.27832C78.6166 6.30535 78.6253 6.33265 78.6338 6.36035ZM103.859 6.25977C103.848 6.29282 103.837 6.32629 103.827 6.36035C103.837 6.32629 103.848 6.29282 103.859 6.25977ZM118.786 6.27832C118.774 6.2261 118.763 6.1744 118.749 6.12402C118.763 6.1744 118.774 6.22609 118.786 6.27832ZM87.4697 6.25293C87.4596 6.20945 87.4506 6.1662 87.4385 6.12402C87.4506 6.1662 87.4596 6.20945 87.4697 6.25293ZM78.5752 6.18848C78.5598 6.14772 78.5435 6.10778 78.5264 6.06836C78.5435 6.10778 78.5598 6.14772 78.5752 6.18848ZM103.933 6.07031C103.916 6.10917 103.9 6.14832 103.885 6.18848C103.9 6.14833 103.916 6.10917 103.933 6.07031ZM70.0967 6.16895C70.0867 6.1274 70.0773 6.08618 70.0654 6.0459C70.0773 6.08618 70.0867 6.1274 70.0967 6.16895ZM72.6104 6.09961C72.6012 6.12166 72.5916 6.14355 72.583 6.16602C72.5916 6.14355 72.6012 6.12166 72.6104 6.09961ZM87.4043 6.02148C87.3877 5.97156 87.3719 5.92197 87.3525 5.87402C87.3719 5.92197 87.3877 5.97156 87.4043 6.02148ZM118.713 6.01562C118.697 5.96931 118.682 5.92351 118.664 5.87891C118.682 5.92352 118.697 5.96931 118.713 6.01562ZM78.502 6.01367C78.4845 5.97593 78.4656 5.93907 78.4463 5.90234C78.4656 5.93907 78.4845 5.97593 78.502 6.01367ZM72.6914 5.92285C72.6787 5.94789 72.6652 5.97254 72.6533 5.99805C72.6652 5.97254 72.6787 5.94789 72.6914 5.92285ZM104.019 5.88965C104 5.92546 103.981 5.96129 103.964 5.99805C103.981 5.96129 104 5.92545 104.019 5.88965ZM70.0244 5.9248C70.0115 5.88822 69.9989 5.85185 69.9844 5.81641C69.9989 5.85185 70.0115 5.88821 70.0244 5.9248ZM78.4082 5.83008C78.3957 5.80813 78.3814 5.78729 78.3682 5.76562C78.3814 5.78729 78.3957 5.80812 78.4082 5.83008ZM104.108 5.73438C104.089 5.76603 104.068 5.79685 104.05 5.8291C104.068 5.79686 104.089 5.76602 104.108 5.73438ZM72.79 5.74805C72.7736 5.77478 72.7565 5.80096 72.7412 5.82812C72.7565 5.80096 72.7736 5.77479 72.79 5.74805ZM87.3135 5.78613C87.293 5.74066 87.272 5.69589 87.249 5.65234C87.272 5.69589 87.293 5.74066 87.3135 5.78613ZM118.624 5.78613C118.604 5.7416 118.583 5.69795 118.561 5.65527C118.583 5.69795 118.604 5.7416 118.624 5.78613ZM69.9297 5.69629C69.9141 5.66396 69.8988 5.63186 69.8818 5.60059C69.8988 5.63186 69.9141 5.66396 69.9297 5.69629ZM104.24 5.54102C104.209 5.58217 104.179 5.62321 104.151 5.66504C104.179 5.62321 104.209 5.58217 104.24 5.54102ZM87.1982 5.5625C87.1724 5.51848 87.1457 5.47544 87.1172 5.43359C87.1457 5.47544 87.1724 5.51848 87.1982 5.5625ZM118.495 5.54102C118.477 5.51032 118.458 5.47982 118.438 5.4502C118.458 5.47982 118.477 5.51032 118.495 5.54102ZM69.8232 5.5C69.8008 5.46334 69.7774 5.42764 69.7529 5.39258C69.7774 5.42764 69.8008 5.46333 69.8232 5.5ZM87.0625 5.3584C87.0356 5.32215 87.0084 5.28642 86.9795 5.25195C87.0084 5.28642 87.0356 5.32215 87.0625 5.3584ZM118.363 5.3457C118.341 5.3156 118.318 5.28569 118.294 5.25684C118.318 5.28569 118.341 5.31561 118.363 5.3457ZM69.6943 5.3125C69.6676 5.27773 69.64 5.24397 69.6113 5.21094C69.64 5.24397 69.6677 5.27773 69.6943 5.3125ZM109.212 5.18066C109.143 5.11168 109.071 5.04644 108.996 4.98438C109.071 5.04645 109.143 5.11166 109.212 5.18066ZM86.9023 5.16504C86.8741 5.13467 86.8453 5.10498 86.8154 5.07617C86.8453 5.10497 86.8741 5.13468 86.9023 5.16504ZM118.212 5.16406C118.184 5.13371 118.155 5.10398 118.125 5.0752C118.155 5.10398 118.184 5.13372 118.212 5.16406ZM69.5342 5.12695C69.5086 5.10046 69.483 5.07407 69.4561 5.04883C69.483 5.07407 69.5086 5.10045 69.5342 5.12695ZM86.7344 5.00195C86.6999 4.9718 86.6642 4.94325 86.6279 4.91504C86.6643 4.94324 86.6999 4.97181 86.7344 5.00195ZM118.045 5.00195C118.009 4.9709 117.973 4.9411 117.936 4.91211C117.973 4.94109 118.009 4.97091 118.045 5.00195ZM69.3604 4.96387C69.3324 4.94059 69.3036 4.91853 69.2744 4.89648C69.3036 4.91853 69.3325 4.94058 69.3604 4.96387ZM117.856 4.85254C117.82 4.82691 117.783 4.8031 117.745 4.7793C117.783 4.80309 117.82 4.82692 117.856 4.85254ZM86.5439 4.85156C86.5109 4.82814 86.4768 4.80607 86.4424 4.78418C86.4768 4.80606 86.5109 4.82815 86.5439 4.85156ZM69.1719 4.82227C69.1364 4.79832 69.0996 4.77614 69.0625 4.75391C69.0996 4.77614 69.1364 4.79832 69.1719 4.82227ZM108.782 4.82227C108.777 4.81841 108.771 4.81437 108.766 4.81055C108.771 4.81437 108.777 4.8184 108.782 4.82227ZM117.646 4.71777C117.601 4.6923 117.554 4.66947 117.507 4.64648C117.554 4.66946 117.601 4.69231 117.646 4.71777ZM86.3301 4.71582C86.2865 4.69129 86.2417 4.6687 86.1963 4.64648C86.2418 4.66869 86.2865 4.6913 86.3301 4.71582ZM68.9775 4.7041C68.9334 4.67997 68.888 4.65755 68.8418 4.63574C68.888 4.65755 68.9334 4.67996 68.9775 4.7041ZM108.55 4.67578C108.538 4.66882 108.525 4.66207 108.513 4.65527C108.525 4.66207 108.538 4.66882 108.55 4.67578ZM86.1221 4.61035C86.0683 4.58613 86.0132 4.56401 85.957 4.54297C86.0132 4.564 86.0683 4.58614 86.1221 4.61035ZM117.433 4.61035C117.379 4.58612 117.324 4.56402 117.268 4.54297C117.324 4.56401 117.379 4.58613 117.433 4.61035ZM68.751 4.59375C68.702 4.57284 68.6516 4.55451 68.6006 4.53613C68.6516 4.55451 68.702 4.57283 68.751 4.59375ZM108.273 4.53711C108.271 4.53599 108.268 4.53529 108.266 4.53418C108.268 4.53529 108.271 4.53599 108.273 4.53711ZM117.19 4.51465C117.141 4.49761 117.09 4.48332 117.038 4.46875C117.09 4.48331 117.141 4.49762 117.19 4.51465ZM85.8789 4.51367C85.8327 4.49788 85.785 4.48535 85.7373 4.47168C85.785 4.48534 85.8327 4.49789 85.8789 4.51367ZM68.5176 4.50586C68.4637 4.48827 68.4085 4.47282 68.3525 4.45801C68.4085 4.47282 68.4637 4.48826 68.5176 4.50586ZM85.6172 4.4375C85.571 4.42629 85.524 4.41748 85.4766 4.4082C85.524 4.41747 85.571 4.4263 85.6172 4.4375ZM116.93 4.4375C116.873 4.42372 116.815 4.41321 116.757 4.40234C116.815 4.4132 116.873 4.42373 116.93 4.4375ZM108.005 4.43457C107.994 4.43082 107.982 4.42746 107.971 4.42383C107.982 4.42746 107.994 4.43082 108.005 4.43457ZM68.2627 4.43359C68.1905 4.41673 68.1163 4.4039 68.041 4.3916C68.1163 4.40391 68.1905 4.41673 68.2627 4.43359ZM68.001 4.38379C67.9094 4.36992 67.8155 4.35962 67.7197 4.35254C67.8155 4.35962 67.9094 4.36991 68.001 4.38379ZM107.722 4.35449C107.703 4.35014 107.684 4.34683 107.665 4.34277C107.684 4.34683 107.703 4.35014 107.722 4.35449ZM107.403 4.2959C107.393 4.29454 107.383 4.29424 107.373 4.29297C107.383 4.29424 107.393 4.29454 107.403 4.2959ZM48.6641 43.7734C48.7005 43.8198 48.7387 43.8661 48.7793 43.9121C48.7387 43.8661 48.7005 43.8198 48.6641 43.7734ZM48.0771 42.2051C48.0844 42.2677 48.0927 42.3285 48.1016 42.3877C48.0927 42.3285 48.0844 42.2677 48.0771 42.2051ZM70.959 38.1816C70.959 38.0825 70.9538 37.9859 70.9453 37.8916C70.9538 37.9859 70.959 38.0825 70.959 38.1816ZM72.3799 10.9619C72.3871 11.0245 72.3954 11.0853 72.4043 11.1445C72.3954 11.0853 72.3871 11.0245 72.3799 10.9619ZM103.69 10.9619C103.698 11.0245 103.706 11.0853 103.715 11.1445C103.706 11.0853 103.698 11.0245 103.69 10.9619ZM70.1172 7.35254C70.1282 7.30411 70.1376 7.25498 70.1455 7.20508C70.1376 7.25498 70.1282 7.30411 70.1172 7.35254ZM70.1758 6.83398C70.1758 6.73785 70.1705 6.64402 70.1621 6.55273C70.1705 6.64402 70.1758 6.73785 70.1758 6.83398Z" fill="#FEFEFE"/>
</svg>
