<svg width="136" height="48" viewBox="0 0 136 48" fill="none" xmlns="http://www.w3.org/2000/svg">
<g clip-path="url(#clip0_10243_3761)">
<path d="M40.9855 12.2377L20.6417 0.319519L20.4919 23.8966L40.9855 12.2377Z" fill="#262624" fill-opacity="0.8"/>
<path d="M20.6417 0.319519L0.149811 11.9785L20.4919 23.8966L20.6417 0.319519Z" fill="#262624" fill-opacity="0.7"/>
<path d="M40.8357 35.813L40.9855 12.2376L20.4919 23.8965L40.8357 35.813Z" fill="#262624" fill-opacity="0.9"/>
<path d="M20.4919 23.8966L20.3438 47.472L40.8357 35.8131L20.4919 23.8966Z" fill="#262624"/>
<path d="M0 35.5555L20.3438 47.472L20.4919 23.8966L0 35.5555Z" fill="#262624" fill-opacity="0.5"/>
<path d="M0.149797 11.9784L0 35.5555L20.4919 23.8965L0.149797 11.9784Z" fill="#262624" fill-opacity="0.6"/>
<path d="M49.6326 3.72107H51.0212V11.8404H55.4916V13.1903H49.6326V3.72107Z" fill="#262624"/>
<path d="M61.9968 11.0729H58.5178L57.8126 13.1903H56.3398L59.6741 3.72107H60.8371L64.1714 13.1903H62.7054L61.9951 11.0729H61.9968ZM61.6012 9.80048L60.2733 5.65833H60.248L58.92 9.80048H61.5996H61.6012Z" fill="#262624"/>
<path d="M65.6744 3.72107H69.2291C70.1313 3.72948 70.8079 3.96344 71.2607 4.42293C71.7185 4.88578 71.9457 5.49844 71.9457 6.26089C71.9541 6.65137 71.8649 7.02334 71.6747 7.37848C71.5788 7.54679 71.4391 7.70837 71.259 7.85985C71.0789 8.01974 70.8567 8.16449 70.5925 8.29578V8.32102C71.0923 8.45567 71.471 8.72665 71.7286 9.13228C71.9676 9.55306 72.0887 10.0092 72.0887 10.5023C72.0803 11.3203 71.8329 11.9683 71.3465 12.4447C70.8634 12.9429 70.2609 13.192 69.5388 13.192H65.6727V3.72107H65.6744ZM67.063 4.9935V7.7151H69.0709C69.5792 7.7151 69.9529 7.57877 70.1919 7.30442C70.4359 7.05195 70.5571 6.73384 70.5571 6.35178C70.5571 5.96971 70.4359 5.64487 70.1919 5.37894C69.9529 5.13152 69.5792 5.00192 69.0709 4.9935H67.063ZM67.063 8.98754V11.8404H69.2073C69.724 11.832 70.1027 11.6856 70.3417 11.4045C70.5807 11.1268 70.7019 10.7969 70.7019 10.4148C70.7019 10.0327 70.5824 9.68939 70.3417 9.41168C70.1027 9.13902 69.724 8.99763 69.2073 8.98922H67.063V8.98754Z" fill="#262624"/>
<path d="M73.7399 8.45561C73.7399 7.35317 73.7719 6.61597 73.8341 6.24232C73.9015 5.86867 74.0041 5.56739 74.1421 5.3368C74.3643 4.90088 74.7211 4.51376 75.2109 4.17209C75.6923 3.82705 76.2948 3.65032 77.0152 3.64191C77.744 3.65032 78.3516 3.82873 78.838 4.17377C79.3194 4.51544 79.6678 4.90593 79.8816 5.34354C80.0364 5.57244 80.1441 5.87372 80.2014 6.24568C80.2552 6.61765 80.2838 7.35486 80.2838 8.45393C80.2838 9.55301 80.2569 10.2683 80.2014 10.6487C80.1424 11.0291 80.0364 11.3354 79.8799 11.5643C79.6661 12.0019 79.3177 12.3874 78.8363 12.7206C78.3499 13.0673 77.7423 13.2491 77.0135 13.266C76.2932 13.2491 75.6906 13.0673 75.2092 12.7206C74.7178 12.3874 74.3626 12.0019 74.1405 11.5643C74.0731 11.4213 74.0125 11.2849 73.9587 11.1553C73.9082 11.0207 73.8661 10.8524 73.8324 10.6487C73.7702 10.2683 73.7382 9.53617 73.7382 8.45393L73.7399 8.45561ZM75.1284 8.45561C75.1284 9.38806 75.1621 10.0192 75.2294 10.3491C75.2883 10.679 75.4078 10.9449 75.5879 11.1503C75.7344 11.3455 75.9279 11.5037 76.1669 11.6249C76.4026 11.768 76.6836 11.8404 77.0118 11.8404C77.3401 11.8404 77.6312 11.7697 77.8753 11.6249C78.1059 11.5037 78.291 11.3455 78.429 11.1503C78.6091 10.9466 78.7337 10.679 78.801 10.3491C78.8633 10.0192 78.8953 9.38806 78.8953 8.45561C78.8953 7.52317 78.8633 6.88695 78.801 6.54865C78.7337 6.22717 78.6091 5.96461 78.429 5.76095C78.291 5.56571 78.1059 5.40244 77.8753 5.27284C77.6312 5.14661 77.3434 5.07929 77.0118 5.07087C76.6836 5.07929 76.4026 5.14661 76.1669 5.27284C75.9279 5.40244 75.7344 5.56571 75.5879 5.76095C75.4078 5.96461 75.2883 6.22717 75.2294 6.54865C75.1621 6.88695 75.1284 7.52317 75.1284 8.45561Z" fill="#262624"/>
<path d="M82.4298 3.72107H86.0131C86.7773 3.72107 87.4017 3.92809 87.8831 4.34382C88.4637 4.81509 88.7667 5.48834 88.792 6.36356C88.7751 7.64946 88.1844 8.52468 87.0213 8.98753L89.1437 13.1886H87.4943L85.5957 9.14238H83.8167V13.1886H82.4281V3.72107H82.4298ZM83.8184 7.87163H85.9239C86.4457 7.86321 86.8362 7.70669 87.0971 7.40204C87.3529 7.11928 87.4825 6.77256 87.4825 6.36019C87.4741 5.86536 87.3209 5.50685 87.0213 5.28637C86.7857 5.09112 86.4457 4.9935 85.9997 4.9935H83.8184V7.87163Z" fill="#262624"/>
<path d="M95.5076 11.0729H92.0286L91.3234 13.1903H89.8506L93.1849 3.72107H94.3479L97.6822 13.1903H96.2162L95.5059 11.0729H95.5076ZM95.1121 9.80048L93.7841 5.65833H93.7588L92.4309 9.80048H95.1104H95.1121Z" fill="#262624"/>
<path d="M98.6331 8.45561C98.6331 7.35317 98.6651 6.61597 98.7274 6.24232C98.7947 5.86867 98.8974 5.56739 99.0354 5.3368C99.2576 4.90088 99.6144 4.51376 100.104 4.17209C100.586 3.82705 101.188 3.65032 101.908 3.64191C102.637 3.65032 103.245 3.82873 103.731 4.17377C104.213 4.51544 104.561 4.90593 104.775 5.34354C104.93 5.57244 105.037 5.87372 105.095 6.24568C105.148 6.61765 105.177 7.35486 105.177 8.45393C105.177 9.55301 105.15 10.2683 105.095 10.6487C105.036 11.0291 104.93 11.3354 104.773 11.5643C104.559 12.0019 104.211 12.3874 103.73 12.7206C103.243 13.0673 102.636 13.2491 101.907 13.266C101.186 13.2491 100.584 13.0673 100.102 12.7206C99.611 12.3874 99.2559 12.0019 99.0337 11.5643C98.9664 11.4213 98.9058 11.2849 98.8519 11.1553C98.8014 11.0207 98.7594 10.8524 98.7257 10.6487C98.6634 10.2683 98.6315 9.53617 98.6315 8.45393L98.6331 8.45561ZM100.022 8.45561C100.022 9.38806 100.055 10.0192 100.123 10.3491C100.182 10.679 100.301 10.9449 100.481 11.1503C100.628 11.3455 100.821 11.5037 101.06 11.6249C101.296 11.768 101.577 11.8404 101.905 11.8404C102.233 11.8404 102.525 11.7697 102.769 11.6249C102.999 11.5037 103.184 11.3455 103.322 11.1503C103.502 10.9466 103.627 10.679 103.694 10.3491C103.757 10.0192 103.789 9.38806 103.789 8.45561C103.789 7.52317 103.757 6.88695 103.694 6.54865C103.627 6.22717 103.502 5.96461 103.322 5.76095C103.184 5.56571 102.999 5.40244 102.769 5.27284C102.525 5.14661 102.237 5.07929 101.905 5.07087C101.577 5.07929 101.296 5.14661 101.06 5.27284C100.821 5.40244 100.628 5.56571 100.481 5.76095C100.301 5.96461 100.182 6.22717 100.123 6.54865C100.055 6.88695 100.022 7.52317 100.022 8.45561Z" fill="#262624"/>
<path d="M108.641 4.9935H106.126V3.72107H112.544V4.9935H110.028V13.1903H108.639V4.9935H108.641Z" fill="#262624"/>
<path d="M113.998 3.72107H115.387V13.1903H113.998V3.72107Z" fill="#262624"/>
<path d="M117.694 3.72107H121.278C122.042 3.72107 122.666 3.92809 123.148 4.34382C123.728 4.81509 124.031 5.48834 124.057 6.36356C124.04 7.64946 123.449 8.52468 122.286 8.98753L124.408 13.1886H122.759L120.86 9.14238H119.081V13.1886H117.693V3.72107H117.694ZM119.083 7.87163H121.189C121.71 7.86321 122.101 7.70669 122.362 7.40204C122.618 7.11928 122.747 6.77256 122.747 6.36019C122.739 5.86536 122.586 5.50685 122.286 5.28637C122.05 5.09112 121.71 4.9935 121.264 4.9935H119.083V7.87163Z" fill="#262624"/>
<path d="M126.071 3.72107H127.46V13.1903H126.071V3.72107Z" fill="#262624"/>
<path d="M129.454 8.45561C129.454 7.35317 129.486 6.61597 129.549 6.24232C129.616 5.86867 129.719 5.56739 129.857 5.3368C130.079 4.90088 130.436 4.51376 130.925 4.17209C131.407 3.82705 132.009 3.65032 132.73 3.64191C133.458 3.65032 134.066 3.82873 134.552 4.17377C135.034 4.51544 135.382 4.90593 135.596 5.34354C135.751 5.57244 135.859 5.87372 135.916 6.24568C135.97 6.61765 135.998 7.35486 135.998 8.45393C135.998 9.55301 135.971 10.2683 135.916 10.6487C135.857 11.0291 135.751 11.3354 135.594 11.5643C135.381 12.0019 135.032 12.3874 134.551 12.7206C134.064 13.0673 133.457 13.2491 132.728 13.266C132.008 13.2491 131.405 13.0673 130.924 12.7206C130.432 12.3874 130.077 12.0019 129.855 11.5643C129.788 11.4213 129.727 11.2849 129.673 11.1553C129.623 11.0207 129.581 10.8524 129.547 10.6487C129.485 10.2683 129.453 9.53617 129.453 8.45393L129.454 8.45561ZM130.845 8.45561C130.845 9.38806 130.878 10.0192 130.946 10.3491C131.004 10.679 131.124 10.9449 131.304 11.1503C131.451 11.3455 131.644 11.5037 131.883 11.6249C132.119 11.768 132.4 11.8404 132.728 11.8404C133.056 11.8404 133.347 11.7697 133.591 11.6249C133.822 11.5037 134.007 11.3455 134.145 11.1503C134.325 10.9466 134.45 10.679 134.517 10.3491C134.579 10.0192 134.611 9.38806 134.611 8.45561C134.611 7.52317 134.579 6.88695 134.517 6.54865C134.45 6.22717 134.325 5.96461 134.145 5.76095C134.007 5.56571 133.822 5.40244 133.591 5.27284C133.347 5.14661 133.06 5.07929 132.728 5.07087C132.4 5.07929 132.119 5.14661 131.883 5.27284C131.644 5.40244 131.451 5.56571 131.304 5.76095C131.124 5.96461 131.004 6.22717 130.946 6.54865C130.878 6.88695 130.845 7.52317 130.845 8.45561Z" fill="#262624"/>
<path d="M49.7471 26.8571C50.4775 27.4782 51.346 27.7929 52.3542 27.8013C53.5459 27.7845 54.1501 27.3435 54.1669 26.4818C54.1753 25.7749 53.7765 25.3507 52.9719 25.2076C52.6033 25.1555 52.1977 25.0966 51.7567 25.0326C50.9673 24.8979 50.3681 24.5967 49.9575 24.1288C49.5333 23.6474 49.3212 23.0634 49.3212 22.3733C49.3212 21.5452 49.5872 20.8787 50.119 20.3721C50.6341 19.8688 51.3662 19.613 52.3121 19.6046C53.4516 19.6298 54.443 19.9563 55.2845 20.5824L54.5103 21.7606C53.8219 21.2927 53.0645 21.0487 52.2381 21.0318C51.8106 21.0318 51.4538 21.1429 51.1676 21.3634C50.8697 21.594 50.7165 21.9357 50.7081 22.3901C50.7081 22.6628 50.8108 22.9102 51.0161 23.1307C51.2215 23.3562 51.5514 23.5127 52.0041 23.5986C52.2566 23.6423 52.5999 23.6912 53.0359 23.7484C53.8959 23.8696 54.5305 24.1877 54.9428 24.7044C55.3502 25.211 55.5538 25.8001 55.5538 26.4717C55.5084 28.2827 54.4345 29.2017 52.3357 29.2286C50.9774 29.2286 49.811 28.7977 48.8348 27.936L49.7471 26.8571Z" fill="#262624"/>
<path d="M57.5298 19.682H63.3887V21.0319H58.9184V23.7417H62.734V25.0141H58.9184V27.8014H63.3887V29.1512H57.5298V19.682Z" fill="#262624"/>
<path d="M65.193 19.682H68.7477C69.6499 19.6904 70.3265 19.9244 70.7793 20.3839C71.2371 20.8467 71.4643 21.4594 71.4643 22.2218C71.4727 22.6123 71.3835 22.9843 71.1933 23.3394C71.0974 23.5077 70.9577 23.6693 70.7776 23.8208C70.5975 23.9807 70.3753 24.1254 70.1111 24.2567V24.282C70.6109 24.4166 70.9896 24.6876 71.2472 25.0932C71.4862 25.514 71.6074 25.9701 71.6074 26.4633C71.5989 27.2813 71.3515 27.9293 70.8651 28.4056C70.382 28.9038 69.7795 29.1529 69.0574 29.1529H65.1913V19.6837L65.193 19.682ZM66.5816 20.9544V23.676H68.5895C69.0978 23.676 69.4715 23.538 69.7105 23.2654C69.9545 23.0129 70.0757 22.6948 70.0757 22.3127C70.0757 21.9306 69.9545 21.6058 69.7105 21.3399C69.4715 21.0925 69.0978 20.9629 68.5895 20.9544H66.5816ZM66.5816 24.9485V27.8014H68.7259C69.2426 27.7929 69.6213 27.6465 69.8603 27.3654C70.0993 27.0877 70.2205 26.7578 70.2205 26.3758C70.2205 25.9937 70.101 25.6503 69.8603 25.3726C69.6213 25.1 69.2426 24.9586 68.7259 24.9502H66.5816V24.9485Z" fill="#262624"/>
<path d="M78.2708 27.0339H74.7918L74.0866 29.1512H72.6139L75.9481 19.682H77.1111L80.4454 29.1512H78.9794L78.2691 27.0339H78.2708ZM77.8753 25.7614L76.5473 21.6193H76.5221L75.1941 25.7614H77.8736H77.8753Z" fill="#262624"/>
<path d="M82.0629 26.8571C82.7934 27.4782 83.6618 27.7929 84.67 27.8013C85.8617 27.7845 86.4659 27.3435 86.4827 26.4818C86.4911 25.7749 86.0923 25.3507 85.2877 25.2076C84.9191 25.1555 84.5135 25.0966 84.0742 25.0326C83.2848 24.8979 82.6856 24.5967 82.2749 24.1288C81.8508 23.6474 81.6387 23.0634 81.6387 22.3733C81.6387 21.5452 81.9047 20.8787 82.4365 20.3721C82.9516 19.8688 83.6837 19.613 84.6296 19.6046C85.7691 19.6298 86.7605 19.9563 87.602 20.5824L86.8278 21.7606C86.1394 21.2927 85.382 21.0487 84.5556 21.0318C84.1281 21.0318 83.7712 21.1429 83.4851 21.3634C83.1872 21.594 83.034 21.9357 83.0256 22.3901C83.0256 22.6628 83.1283 22.9102 83.3336 23.1307C83.539 23.3562 83.8689 23.5127 84.3216 23.5986C84.5741 23.6423 84.9174 23.6912 85.3534 23.7484C86.2134 23.8696 86.848 24.1877 87.2603 24.7044C87.6677 25.211 87.8713 25.8001 87.8713 26.4717C87.8259 28.2827 86.752 29.2017 84.6532 29.2286C83.2949 29.2286 82.1285 28.7977 81.1523 27.936L82.0646 26.8571H82.0629Z" fill="#262624"/>
<path d="M91.4042 20.9544H88.8896V19.682H95.3073V20.9544H92.791V29.1512H91.4025V20.9544H91.4042Z" fill="#262624"/>
<path d="M96.7632 19.682H98.1518V29.1512H96.7632V19.682Z" fill="#262624"/>
<path d="M105.159 27.0338H101.68L100.974 29.1512H99.5016L102.836 19.682H103.999L107.333 29.1512H105.867L105.157 27.0338H105.159ZM104.761 25.7614L103.433 21.6192H103.408L102.08 25.7614H104.76H104.761ZM103.782 17.2802H105.509L103.681 19.2157H102.6L103.782 17.2802Z" fill="#262624"/>
<path d="M108.836 19.682H110.146L114.3 26.4128H114.325V19.682H115.713V29.1512H114.397L110.25 22.4204H110.225V29.1512H108.836V19.682Z" fill="#262624"/>
<path d="M55.8197 42.468C55.6178 43.3449 55.234 44.0198 54.6685 44.4911C54.0861 44.9573 53.3944 45.1913 52.5983 45.1913C51.8779 45.1745 51.2753 44.9927 50.794 44.646C50.3042 44.3127 49.9474 43.9273 49.7252 43.4897C49.6579 43.3466 49.5973 43.2103 49.5434 43.0807C49.4929 42.946 49.4508 42.7777 49.4172 42.574C49.3549 42.1937 49.3229 41.4615 49.3229 40.3793C49.3229 39.297 49.3549 38.543 49.4172 38.171C49.4845 37.799 49.5872 37.4978 49.7252 37.2689C49.9474 36.8313 50.3042 36.4425 50.794 36.0991C51.2753 35.7524 51.8779 35.5757 52.5999 35.5656C53.4853 35.574 54.2056 35.8449 54.7644 36.3768C55.3215 36.9137 55.675 37.5769 55.8214 38.3679H54.347C54.2343 37.9859 54.0272 37.661 53.7293 37.3917C53.4179 37.1359 53.0409 37.0029 52.5949 36.9945C52.2667 37.0029 51.9856 37.0703 51.75 37.1965C51.511 37.3261 51.3174 37.4894 51.171 37.6846C50.9909 37.8882 50.8714 38.1508 50.8125 38.4723C50.7452 38.8106 50.7115 39.4468 50.7115 40.3793C50.7115 41.3117 50.7452 41.9429 50.8125 42.2728C50.8714 42.6027 50.9909 42.8686 51.171 43.0739C51.3174 43.2692 51.511 43.4274 51.7517 43.5486C51.9873 43.6916 52.2684 43.764 52.5966 43.764C53.3775 43.764 53.9616 43.3331 54.3487 42.468H55.8214H55.8197Z" fill="#262624"/>
<path d="M61.9968 42.9949H58.5178L57.8126 45.1122H56.3398L59.6741 35.643H60.8371L64.1714 45.1122H62.7054L61.9951 42.9949H61.9968ZM61.6012 41.7224L60.2733 37.5803H60.248L58.92 41.7224H61.5996H61.6012Z" fill="#262624"/>
<path d="M65.6744 35.643H69.2577C70.0219 35.643 70.6463 35.85 71.1277 36.2658C71.7084 36.737 72.0113 37.4103 72.0366 38.2855C72.0197 39.5714 71.429 40.4466 70.2659 40.9095L72.3883 45.1122H70.7389L68.8403 41.066H67.0613V45.1122H65.6727V35.643H65.6744ZM67.063 39.7936H69.1685C69.6903 39.7852 70.0808 39.6286 70.3417 39.324C70.5975 39.0412 70.7271 38.6945 70.7271 38.2821C70.7187 37.7873 70.5655 37.4288 70.2659 37.2083C70.0303 37.0131 69.6903 36.9154 69.2443 36.9154H67.063V39.7936Z" fill="#262624"/>
<path d="M74.0529 35.643H77.3771C77.7373 35.643 78.0857 35.6784 78.4223 35.7474C78.7572 35.8382 79.0972 36.0251 79.4423 36.3062C79.7318 36.5182 79.9657 36.8212 80.1458 37.215C80.3343 37.5954 80.4286 38.0465 80.4286 38.5666C80.4286 39.2684 80.1896 39.9063 79.7099 40.482C79.2184 41.0879 78.5014 41.3993 77.5555 41.4178H75.4398V45.1139H74.0513V35.6447L74.0529 35.643ZM75.4415 40.0662H77.5033C78.02 40.0578 78.4088 39.8929 78.6697 39.5697C78.9171 39.2567 79.0417 38.9082 79.0417 38.5262C79.0417 38.2081 78.9912 37.9405 78.8902 37.7233C78.7859 37.5281 78.6377 37.3732 78.4492 37.2605C78.1631 37.0737 77.8315 36.9844 77.4528 36.9929H75.4415V40.0662Z" fill="#262624"/>
<path d="M82.2026 35.643H83.5911V45.1122H82.2026V35.643Z" fill="#262624"/>
</g>
<defs>
<clipPath id="clip0_10243_3761">
<rect width="136" height="47.4717" fill="white"/>
</clipPath>
</defs>
</svg>
