<svg width="132" height="48" viewBox="0 0 132 48" fill="none" xmlns="http://www.w3.org/2000/svg">
<path d="M40.9855 11.9181L20.6417 0L20.4919 23.5771L40.9855 11.9181Z" fill="#262624" fill-opacity="0.8"/>
<path d="M20.6417 0L0.14978 11.6589L20.4919 23.5771L20.6417 0Z" fill="#262624" fill-opacity="0.7"/>
<path d="M40.8357 35.4934L40.9855 11.918L20.4919 23.577L40.8357 35.4934Z" fill="#262624" fill-opacity="0.9"/>
<path d="M20.4919 23.5771L20.3438 47.1525L40.8357 35.4935L20.4919 23.5771Z" fill="#262624"/>
<path d="M0 35.236L20.3438 47.1525L20.4919 23.5771L0 35.236Z" fill="#262624" fill-opacity="0.5"/>
<path d="M0.149797 11.6589L0 35.2359L20.4919 23.577L0.149797 11.6589Z" fill="#262624" fill-opacity="0.6"/>
<path fill-rule="evenodd" clip-rule="evenodd" d="M51.2773 35.2557C52.176 35.2558 52.9645 35.5324 53.5723 36.0526C54.1791 36.5722 54.5909 37.3219 54.7637 38.241L54.8193 38.5369H53.293L53.25 38.3397C53.1347 37.8058 52.8957 37.3849 52.5664 37.0984C52.2386 36.8134 51.8059 36.6483 51.2773 36.6483C50.7117 36.6483 50.225 36.8463 49.8408 37.2303C49.5853 37.492 49.4424 37.7665 49.3604 38.2078C49.2751 38.6666 49.2578 39.2926 49.2578 40.2547C49.2578 41.2168 49.2751 41.8428 49.3604 42.3016C49.4424 42.7428 49.5853 43.0174 49.8408 43.2791L49.9893 43.4139C50.3475 43.7093 50.7822 43.8611 51.2773 43.8611C51.8062 43.8611 52.2463 43.6961 52.5811 43.41C52.917 43.1227 53.1615 42.7017 53.2764 42.1697L53.3193 41.9725H54.8193L54.7637 42.2684C54.5907 43.1885 54.1749 43.9384 53.5664 44.4578C52.9574 44.9774 52.1697 45.2536 51.2773 45.2537C50.244 45.2537 49.392 44.8887 48.7656 44.2625C48.2936 43.7905 48.0358 43.3241 47.9023 42.6942C47.7729 42.0831 47.7607 41.3171 47.7607 40.2547C47.7607 39.1922 47.7729 38.4263 47.9023 37.8152C48.0358 37.1852 48.2936 36.7189 48.7656 36.2469C49.392 35.6207 50.2439 35.2557 51.2773 35.2557ZM59.9072 35.4988L63.3311 44.8387L63.4551 45.1746H61.8574L61.1104 43.0633H57.3828L56.6357 45.1746H55.0381L55.1611 44.8387L58.5986 35.4979L58.6592 35.3348H59.8477L59.9072 35.4988ZM68.1914 35.3348C69.054 35.3349 69.8103 35.5961 70.3535 36.0936C70.8993 36.5937 71.209 37.3136 71.209 38.1824C71.2089 38.9167 70.9851 39.5392 70.5859 40.0135C70.2537 40.4082 69.8078 40.6878 69.292 40.8484L71.5557 45.1746H69.8223L69.7529 45.0389L67.6973 41.0291H65.8564V45.1746H64.3594V35.3348H68.1914ZM76.6953 35.3348C77.5942 35.3349 78.3801 35.6212 78.9434 36.1483C79.5083 36.677 79.831 37.4306 79.8311 38.326C79.831 39.2213 79.5088 39.9786 78.9443 40.5106C78.3813 41.041 77.595 41.3307 76.6953 41.3309H74.4658V45.1746H72.9688V35.3348H76.6953ZM82.7285 45.1746H81.2314V35.3348H82.7285V45.1746ZM50.7617 44.9695C50.7717 44.9709 50.7819 44.9712 50.792 44.9725C50.7819 44.9712 50.7717 44.9709 50.7617 44.9695ZM50.4561 44.9139C50.4616 44.9151 50.4671 44.9166 50.4727 44.9178C50.4671 44.9166 50.4616 44.9151 50.4561 44.9139ZM50.1475 44.8279C50.1627 44.833 50.178 44.8377 50.1934 44.8426C50.178 44.8377 50.1627 44.833 50.1475 44.8279ZM49.8672 44.7186C49.8816 44.7249 49.8956 44.7319 49.9102 44.7381C49.8956 44.7319 49.8816 44.7249 49.8672 44.7186ZM49.5977 44.5838C49.6135 44.5928 49.6295 44.6015 49.6455 44.6102C49.6295 44.6015 49.6135 44.5928 49.5977 44.5838ZM49.3594 44.4334C49.3712 44.4417 49.3826 44.4507 49.3945 44.4588C49.3826 44.4507 49.3712 44.4417 49.3594 44.4334ZM48.7793 43.9119C48.8302 43.9696 48.8846 44.027 48.9424 44.0848C48.8846 44.027 48.8302 43.9696 48.7793 43.9119ZM48.5459 43.6121C48.5706 43.6487 48.597 43.6845 48.624 43.7205C48.597 43.6845 48.5706 43.6487 48.5459 43.6121ZM49.5059 43.2742C49.554 43.3359 49.6063 43.3968 49.6641 43.4559C49.6063 43.3968 49.554 43.3359 49.5059 43.2742ZM48.4463 43.45C48.4665 43.4853 48.4867 43.5208 48.5088 43.5555C48.4867 43.5208 48.4665 43.4854 48.4463 43.45ZM48.3545 43.2742C48.3725 43.3125 48.3912 43.3503 48.4111 43.3875C48.3912 43.3503 48.3725 43.3125 48.3545 43.2742ZM48.2754 43.0887C48.2924 43.1339 48.3109 43.1779 48.3301 43.2215C48.3109 43.1779 48.2924 43.1339 48.2754 43.0887ZM48.207 42.8817C48.2223 42.9342 48.2382 42.9857 48.2559 43.0359C48.2382 42.9857 48.2223 42.9342 48.207 42.8817ZM48.1494 42.6561C48.1597 42.7038 48.1727 42.75 48.1846 42.7957C48.1727 42.75 48.1597 42.7038 48.1494 42.6561ZM49.1963 42.6824C49.2 42.6943 49.2041 42.7059 49.208 42.7176C49.202 42.6996 49.1961 42.6814 49.1904 42.6629L49.1963 42.6824ZM48.1074 42.4276C48.1139 42.4684 48.1216 42.5083 48.1289 42.5477C48.1216 42.5083 48.1139 42.4684 48.1074 42.4276ZM48.0566 41.9998C48.0601 42.0406 48.0634 42.0806 48.0674 42.1199C48.0634 42.0806 48.0601 42.0405 48.0566 41.9998ZM57.8633 41.6971H60.6445L59.2637 37.7645L57.8633 41.6971ZM48.0293 41.5574C48.0296 41.5653 48.0299 41.5731 48.0303 41.5809C48.0223 41.3999 48.0175 41.2059 48.0146 40.9969L48.0293 41.5574ZM77.2959 41.032C77.1039 41.0641 76.9028 41.0809 76.6943 41.0809L77.0068 41.0682C77.1052 41.06 77.2016 41.0478 77.2959 41.032ZM77.3984 41.0106C77.4562 40.999 77.5133 40.9878 77.5693 40.9734C77.5133 40.9878 77.4562 40.999 77.3984 41.0106ZM77.6855 40.9393C77.7367 40.924 77.7874 40.9091 77.8369 40.8914C77.7874 40.9091 77.7367 40.924 77.6855 40.9393ZM77.9453 40.8484C77.9895 40.8307 78.0335 40.8135 78.0762 40.7938C78.0335 40.8135 77.9895 40.8307 77.9453 40.8484ZM78.1953 40.7332C78.2374 40.7112 78.2788 40.6888 78.3193 40.6649C78.2788 40.6888 78.2374 40.7112 78.1953 40.7332ZM68.9248 40.6873C68.9984 40.6721 69.0709 40.6545 69.1416 40.6346C69.0709 40.6545 68.9984 40.6721 68.9248 40.6873ZM69.2285 40.6072C69.269 40.5945 69.3092 40.5816 69.3486 40.5672C69.3092 40.5816 69.269 40.5945 69.2285 40.6072ZM78.4121 40.6072C78.4531 40.5806 78.493 40.5529 78.5322 40.5242C78.493 40.5529 78.4531 40.5806 78.4121 40.6072ZM69.4004 40.5467C69.4518 40.5268 69.5023 40.5058 69.5518 40.4832C69.5023 40.5058 69.4518 40.5268 69.4004 40.5467ZM69.5938 40.4637C69.6417 40.4407 69.6884 40.416 69.7344 40.3904C69.6884 40.416 69.6418 40.4407 69.5938 40.4637ZM78.626 40.451C78.6602 40.4233 78.6939 40.3953 78.7266 40.366C78.6939 40.3954 78.6602 40.4233 78.626 40.451ZM69.791 40.3582C69.8323 40.3338 69.8727 40.3086 69.9121 40.282C69.8727 40.3085 69.8323 40.3338 69.791 40.3582ZM78.8184 40.2781C78.8502 40.2464 78.882 40.2149 78.9121 40.1815C78.882 40.2149 78.8502 40.2464 78.8184 40.2781ZM69.9697 40.241C70.0029 40.2173 70.0356 40.1931 70.0674 40.1678C70.0356 40.1931 70.0029 40.2173 69.9697 40.241ZM70.1416 40.1053C70.1664 40.0838 70.191 40.0623 70.2148 40.0399C70.191 40.0623 70.1664 40.0838 70.1416 40.1053ZM78.9854 40.0965C79.0132 40.0626 79.0394 40.0275 79.0654 39.992C79.0394 40.0275 79.0132 40.0626 78.9854 40.0965ZM70.3008 39.9549C70.3162 39.9387 70.3308 39.9217 70.3457 39.9051C70.3308 39.9217 70.3162 39.9387 70.3008 39.9549ZM74.4658 39.9393H76.6162C77.1571 39.9392 77.5835 39.793 77.8711 39.534C78.1545 39.2786 78.334 38.8855 78.334 38.326C78.3339 37.7667 78.1546 37.3778 77.8721 37.1258C77.5849 36.8699 77.1584 36.7264 76.6162 36.7264H74.4658V39.9393ZM79.1484 39.8738C79.1695 39.8414 79.1884 39.8078 79.208 39.7742C79.1884 39.8078 79.1695 39.8414 79.1484 39.8738ZM70.4297 39.8065C70.4471 39.7847 70.4639 39.7625 70.4805 39.7401C70.4639 39.7625 70.4471 39.7847 70.4297 39.8065ZM79.2676 39.6697C79.289 39.6287 79.3078 39.5863 79.3271 39.5438C79.3078 39.5863 79.289 39.6287 79.2676 39.6697ZM65.8564 39.6502H68.0996C68.6034 39.6501 69.0042 39.5193 69.2754 39.2859C69.541 39.0573 69.7119 38.7052 69.7119 38.1951C69.7119 37.6849 69.5409 37.3286 69.2744 37.0965C69.0029 36.8602 68.602 36.7265 68.0996 36.7264H65.8564V39.6502ZM70.5449 39.6502C70.5638 39.6219 70.581 39.5926 70.5986 39.5633C70.581 39.5926 70.5638 39.6219 70.5449 39.6502ZM70.6514 39.4715C70.6696 39.4378 70.6874 39.4038 70.7041 39.369C70.6874 39.4038 70.6696 39.4378 70.6514 39.4715ZM79.3838 39.4149C79.4003 39.3727 79.4142 39.3294 79.4287 39.2859C79.4142 39.3294 79.4003 39.3727 79.3838 39.4149ZM70.7432 39.2859C70.7571 39.2538 70.7686 39.2205 70.7812 39.1873C70.7686 39.2205 70.7571 39.2538 70.7432 39.2859ZM79.4639 39.1746C79.4829 39.1079 79.5002 39.0401 79.5146 38.9705C79.5002 39.0401 79.4829 39.1079 79.4639 39.1746ZM70.8174 39.0906C70.8317 39.0479 70.8433 39.004 70.8555 38.9598C70.8433 39.004 70.8317 39.0479 70.8174 39.0906ZM79.5303 38.8983C79.5413 38.8372 79.5482 38.7748 79.5557 38.7117C79.5482 38.7748 79.5413 38.8372 79.5303 38.8983ZM70.876 38.8865C70.8872 38.8405 70.8963 38.7935 70.9053 38.7459C70.8963 38.7935 70.8872 38.8405 70.876 38.8865ZM70.9375 37.8358C70.9294 37.7613 70.9205 37.6883 70.9072 37.617C70.9205 37.6883 70.9294 37.7613 70.9375 37.8358ZM79.5742 38.1815C79.5722 38.1331 79.5715 38.0852 79.5674 38.0379C79.5715 38.0852 79.5722 38.1331 79.5742 38.1815ZM79.54 37.827C79.5362 37.8025 79.5337 37.7779 79.5293 37.7537C79.5337 37.7779 79.5362 37.8025 79.54 37.827ZM79.4971 37.6102C79.4858 37.5624 79.4754 37.5149 79.4619 37.4686C79.4754 37.5149 79.4858 37.5624 79.4971 37.6102ZM70.8818 37.5047C70.8713 37.4588 70.8613 37.4134 70.8486 37.369C70.8613 37.4134 70.8713 37.4588 70.8818 37.5047ZM79.4199 37.3426C79.4071 37.3055 79.3951 37.2684 79.3809 37.2322C79.3951 37.2684 79.4071 37.3055 79.4199 37.3426ZM70.8125 37.2586C70.7963 37.2103 70.7805 37.1625 70.7617 37.116C70.7805 37.1625 70.7963 37.2103 70.8125 37.2586ZM79.3291 37.1131C79.3082 37.0671 79.2871 37.0216 79.2637 36.9774C79.287 37.0216 79.3082 37.0671 79.3291 37.1131ZM70.7217 37.0262C70.7017 36.9821 70.6815 36.9386 70.6592 36.8963C70.6815 36.9386 70.7017 36.9821 70.7217 37.0262ZM79.207 36.8777C79.1868 36.8434 79.1663 36.8094 79.1445 36.7762C79.1663 36.8094 79.1868 36.8434 79.207 36.8777ZM70.6016 36.7947C70.578 36.7552 70.554 36.7163 70.5283 36.6785C70.554 36.7163 70.578 36.7552 70.6016 36.7947ZM79.0596 36.6561C79.0358 36.6242 79.0116 36.5929 78.9863 36.5623C79.0116 36.5929 79.0358 36.6242 79.0596 36.6561ZM70.4658 36.5926C70.4427 36.5617 70.4192 36.5314 70.3945 36.5018C70.4192 36.5313 70.4427 36.5617 70.4658 36.5926ZM78.9092 36.4734C78.8791 36.4404 78.8483 36.4082 78.8164 36.3768C78.8483 36.4082 78.8791 36.4404 78.9092 36.4734ZM70.3105 36.4061C70.2826 36.3761 70.2542 36.3466 70.2246 36.3182C70.2542 36.3466 70.2826 36.3761 70.3105 36.4061ZM78.7246 36.2908C78.692 36.2618 78.6583 36.2342 78.624 36.2068C78.6583 36.2342 78.692 36.2618 78.7246 36.2908ZM70.1465 36.2469C70.1104 36.2152 70.0733 36.1846 70.0352 36.1551C70.0733 36.1846 70.1104 36.2152 70.1465 36.2469ZM78.5342 36.1365C78.4939 36.1072 78.4524 36.0797 78.4102 36.0526C78.4524 36.0797 78.4939 36.1072 78.5342 36.1365ZM69.957 36.0965C69.9156 36.0671 69.8727 36.0395 69.8291 36.0125C69.8727 36.0395 69.9156 36.0671 69.957 36.0965ZM78.3135 35.992C78.2752 35.9697 78.2359 35.9491 78.1963 35.9285C78.236 35.9491 78.2752 35.9697 78.3135 35.992ZM69.7539 35.9666C69.7054 35.9389 69.6554 35.9133 69.6045 35.8885C69.6554 35.9133 69.7054 35.9389 69.7539 35.9666ZM78.0771 35.869C78.0395 35.8517 78.0007 35.8369 77.9619 35.8211C78.0007 35.8369 78.0395 35.8517 78.0771 35.869ZM69.5322 35.8533C69.4785 35.8291 69.4234 35.807 69.3672 35.7859C69.4234 35.807 69.4785 35.8291 69.5322 35.8533ZM77.8281 35.7684C77.7859 35.7536 77.7426 35.7414 77.6992 35.7283C77.7426 35.7414 77.7859 35.7536 77.8281 35.7684ZM69.291 35.7576C69.2221 35.734 69.1513 35.714 69.0791 35.6951C69.1513 35.714 69.2221 35.734 69.291 35.7576ZM77.5693 35.6902C77.5295 35.6801 77.4889 35.6726 77.4482 35.6639C77.4889 35.6726 77.5295 35.6801 77.5693 35.6902ZM69.041 35.6844C68.9715 35.6672 68.9004 35.6532 68.8281 35.6404C68.9004 35.6532 68.9715 35.6672 69.041 35.6844ZM50.8057 19.6346C52.0588 19.6347 52.9052 19.971 53.752 20.7205L53.9512 20.8963L53.7627 21.0838L52.9482 21.8992L52.7715 21.7313C52.2571 21.2408 51.6765 20.9872 50.7656 20.9871C50.1809 20.9872 49.7512 21.148 49.4707 21.4012C49.193 21.6519 49.0352 22.0166 49.0352 22.4813C49.0352 22.8955 49.1526 23.1955 49.3682 23.3817C49.6057 23.5866 49.9981 23.7328 50.4629 23.8084L51.5527 23.9793C52.4403 24.1139 52.9024 24.2824 53.374 24.7098C53.9295 25.194 54.2432 25.8938 54.2432 26.7322C54.2431 27.6225 53.8946 28.3583 53.2705 28.866C52.6519 29.3692 51.7833 29.6316 50.7656 29.6317C50.0497 29.6316 49.437 29.5403 48.8857 29.3279C48.3328 29.1148 47.8541 28.7846 47.4004 28.324L47.2256 28.1473L47.4014 27.9725L48.2471 27.1258L48.4238 27.3026C48.7913 27.67 49.137 27.9011 49.5059 28.0418C49.876 28.1829 50.286 28.24 50.792 28.2401C51.4465 28.24 51.9407 28.0899 52.2646 27.8397C52.5799 27.596 52.7587 27.2388 52.7588 26.7586C52.7588 26.3103 52.6312 25.9942 52.3857 25.7791L52.3818 25.7752C52.1494 25.5639 51.9472 25.4817 51.291 25.3787L50.2051 25.2215L50.2012 25.2205C49.4382 25.0978 48.8375 24.8619 48.3711 24.4539L48.3701 24.4529C47.8371 23.9791 47.5645 23.3293 47.5645 22.5076C47.5645 21.6508 47.8745 20.9239 48.4502 20.4139C49.023 19.9067 49.8355 19.6346 50.8057 19.6346ZM83.1016 19.6346C84.3549 19.6346 85.202 19.9709 86.0488 20.7205L86.248 20.8963L86.0596 21.0838L85.417 21.7274L85.2441 21.8992L85.0674 21.7313C84.553 21.2409 83.9733 20.9872 83.0625 20.9871C82.4778 20.9871 82.0481 21.1481 81.7676 21.4012C81.4899 21.6519 81.3321 22.0166 81.332 22.4813C81.332 22.8955 81.4495 23.1955 81.665 23.3817C81.9025 23.5864 82.2945 23.7328 82.7588 23.8084L83.8486 23.9793C84.7367 24.1139 85.1991 24.2822 85.6709 24.7098C86.2263 25.194 86.54 25.8939 86.54 26.7322C86.54 27.6225 86.1914 28.3583 85.5674 28.866C84.9488 29.3692 84.0802 29.6316 83.0625 29.6317C82.3464 29.6316 81.733 29.5403 81.1816 29.3279C80.6288 29.1148 80.1499 28.7845 79.6963 28.324L79.5225 28.1473L79.6982 27.9725L80.5439 27.1258L80.7207 27.3026C81.0881 27.6699 81.433 27.9011 81.8018 28.0418C82.1721 28.183 82.5826 28.2401 83.0889 28.2401C83.7431 28.24 84.2366 28.0897 84.5605 27.8397C84.8758 27.596 85.0556 27.2388 85.0557 26.7586C85.0557 26.3101 84.9273 25.9942 84.6816 25.7791L84.6787 25.7752C84.4462 25.5639 84.2442 25.4817 83.5879 25.3787L82.502 25.2215L82.498 25.2205C81.735 25.0979 81.1344 24.8619 80.668 24.4539L80.666 24.4529C80.133 23.9791 79.8613 23.3293 79.8613 22.5076C79.8614 21.6507 80.1713 20.9239 80.7471 20.4139C81.3198 19.9067 82.1316 19.6347 83.1016 19.6346ZM62.126 21.1053H57.3242V23.8973H61.417V25.2899H57.3242V28.1609H62.126V29.5535H55.8271V19.7127H62.126V21.1053ZM67.459 19.7127C68.3184 19.7128 69.0714 19.9594 69.6123 20.4363C70.1566 20.9165 70.4639 21.6113 70.4639 22.4559C70.4637 23.3382 70.0325 24.0754 69.3975 24.4959C70.1246 24.9347 70.6083 25.7015 70.6084 26.7186C70.6084 27.6233 70.3046 28.343 69.7539 28.8328C69.2074 29.3187 68.4461 29.5535 67.5771 29.5535H63.6934V19.7127H67.459ZM75.96 19.8768L79.5068 29.5535H77.9092L77.8506 29.3865L77.1621 27.4412H73.4355L72.7471 29.3865L72.6875 29.5535H71.0898L74.7109 19.7127H75.8994L75.96 19.8768ZM94.0039 21.1053H91.3018V29.5535H89.8047V21.1053H87.1025V19.7127H94.0039V21.1053ZM96.7441 29.5535H95.2471V19.7127H96.7441V29.5535ZM102.517 19.8768L106.064 29.5535H104.467L104.408 29.3865L103.72 27.4412H99.9922L99.3037 29.3865L99.2451 29.5535H97.6475L101.269 19.7127H102.457L102.517 19.8768ZM108.372 19.825L112.872 26.5975V19.7127H114.369V29.5535H113.041L108.466 22.6424V29.5535H106.969V19.7127H108.298L108.372 19.825ZM50.7656 29.3817C50.8871 29.3817 51.006 29.3777 51.1221 29.3699C51.006 29.3777 50.8871 29.3817 50.7656 29.3817ZM83.0625 29.3817C83.1837 29.3816 83.3022 29.3776 83.418 29.3699C83.3022 29.3776 83.1837 29.3816 83.0625 29.3817ZM83.9688 29.2986C84.0012 29.2926 84.0336 29.2878 84.0654 29.2811C84.0336 29.2878 84.0012 29.2926 83.9688 29.2986ZM51.6797 29.2967C51.7094 29.291 51.7393 29.2873 51.7686 29.2811C51.7393 29.2873 51.7094 29.291 51.6797 29.2967ZM67.8809 29.2928C67.9784 29.2859 68.0738 29.2751 68.167 29.2615C68.0738 29.2751 67.9784 29.2859 67.8809 29.2928ZM68.2012 29.2557C68.2807 29.2433 68.3585 29.229 68.4346 29.2117C68.3585 29.229 68.2807 29.2433 68.2012 29.2557ZM84.1914 29.2498C84.2564 29.2338 84.3204 29.2179 84.3828 29.199C84.3204 29.2179 84.2564 29.2338 84.1914 29.2498ZM51.9014 29.2479C51.9628 29.2326 52.0238 29.2188 52.083 29.201C52.0238 29.2188 51.9628 29.2326 51.9014 29.2479ZM68.5332 29.1854C68.5827 29.1725 68.6318 29.1604 68.6797 29.1453C68.6318 29.1604 68.5827 29.1725 68.5332 29.1854ZM84.4336 29.1824C84.5115 29.1576 84.5875 29.1317 84.6611 29.1024C84.5875 29.1317 84.5114 29.1576 84.4336 29.1824ZM52.1582 29.1746C52.2281 29.1518 52.2968 29.1288 52.3633 29.1024C52.2968 29.1288 52.2281 29.1518 52.1582 29.1746ZM68.7891 29.1063C68.8364 29.0893 68.8832 29.0727 68.9287 29.0535C68.8832 29.0727 68.8364 29.0893 68.7891 29.1063ZM52.46 29.0604C52.5152 29.0363 52.5694 29.0119 52.6221 28.9852C52.5694 29.0119 52.5152 29.0363 52.46 29.0604ZM84.7568 29.0604C84.8121 29.0363 84.8663 29.0119 84.9189 28.9852C84.8663 29.0119 84.8121 29.0363 84.7568 29.0604ZM69.0127 29.0154C69.0596 28.9937 69.1056 28.9713 69.1504 28.9471C69.1056 28.9713 69.0596 28.9937 69.0127 29.0154ZM52.7422 28.9188C52.7812 28.8966 52.82 28.875 52.8574 28.8514C52.82 28.875 52.7812 28.8966 52.7422 28.9188ZM85.0391 28.9188C85.0781 28.8966 85.1169 28.875 85.1543 28.8514C85.1169 28.875 85.0781 28.8966 85.0391 28.9188ZM69.2471 28.8904C69.2823 28.8693 69.3168 28.8478 69.3506 28.825C69.3168 28.8478 69.2823 28.8693 69.2471 28.8904ZM52.9814 28.7654C53.0151 28.7414 53.049 28.7185 53.0811 28.6932C53.049 28.7185 53.0151 28.7414 52.9814 28.7654ZM85.2783 28.7654C85.3119 28.7414 85.3458 28.7185 85.3779 28.6932C85.3458 28.7185 85.3119 28.7414 85.2783 28.7654ZM69.4502 28.7537C69.483 28.7289 69.5147 28.7031 69.5459 28.6766C69.5147 28.7031 69.483 28.7289 69.4502 28.7537ZM53.1826 28.6072C53.2165 28.5774 53.2503 28.5478 53.2822 28.5164C53.2503 28.5478 53.2165 28.5774 53.1826 28.6072ZM69.624 28.6072C69.6582 28.5753 69.6916 28.5427 69.7236 28.5086C69.6916 28.5427 69.6582 28.5753 69.624 28.6072ZM85.4795 28.6072C85.5134 28.5774 85.5471 28.5478 85.5791 28.5164C85.5471 28.5478 85.5134 28.5774 85.4795 28.6072ZM69.793 28.4324C69.8228 28.3974 69.8512 28.3612 69.8789 28.324C69.8512 28.3612 69.8228 28.3974 69.793 28.4324ZM85.7227 28.3631C85.7293 28.3553 85.7357 28.3475 85.7422 28.3397C85.7357 28.3475 85.7293 28.3553 85.7227 28.3631ZM53.4287 28.3611C53.4339 28.355 53.4392 28.3488 53.4443 28.3426C53.4392 28.3488 53.4339 28.355 53.4287 28.3611ZM69.9395 28.2401C69.9637 28.2041 69.9856 28.1665 70.0078 28.1287C69.9856 28.1665 69.9637 28.2041 69.9395 28.2401ZM65.1904 28.1609H67.4854C68.0149 28.1609 68.4191 28.0083 68.6875 27.7615C68.9535 27.5169 69.1113 27.1569 69.1113 26.6922C69.1112 26.2281 68.9534 25.8728 68.6885 25.6317C68.4205 25.388 68.0162 25.2372 67.4854 25.2371H65.1904V28.1609ZM53.5811 28.1609C53.5879 28.1508 53.5939 28.14 53.6006 28.1297C53.5939 28.14 53.5879 28.1508 53.5811 28.1609ZM85.8779 28.1609C85.8848 28.1508 85.8908 28.14 85.8975 28.1297C85.8908 28.14 85.8848 28.1508 85.8779 28.1609ZM70.0605 28.035C70.0814 27.9953 70.1004 27.9544 70.1191 27.9129C70.1004 27.9544 70.0814 27.9953 70.0605 28.035ZM86.0107 27.9354C86.0156 27.9259 86.0206 27.9166 86.0254 27.907C86.0206 27.9166 86.0156 27.9259 86.0107 27.9354ZM53.7148 27.9334C53.7183 27.9268 53.7222 27.9205 53.7256 27.9139C53.7222 27.9205 53.7183 27.9268 53.7148 27.9334ZM70.1709 27.7957C70.1885 27.7503 70.2035 27.7035 70.2188 27.6561C70.2035 27.7035 70.1885 27.7503 70.1709 27.7957ZM70.248 27.5613C70.2624 27.51 70.2746 27.4576 70.2861 27.4041C70.2746 27.4576 70.2624 27.51 70.248 27.5613ZM53.9053 27.4383C53.9082 27.427 53.9103 27.4155 53.9131 27.4041C53.9103 27.4155 53.9082 27.427 53.9053 27.4383ZM86.2021 27.4383C86.2051 27.427 86.2072 27.4155 86.21 27.4041C86.2072 27.4155 86.2051 27.427 86.2021 27.4383ZM70.3086 27.2947C70.3215 27.2212 70.3311 27.1457 70.3389 27.0682C70.3311 27.1457 70.3215 27.2212 70.3086 27.2947ZM86.2568 27.1697C86.2584 27.1591 86.2592 27.1483 86.2607 27.1375C86.2592 27.1483 86.2584 27.1591 86.2568 27.1697ZM70.3447 27.0203C70.353 26.9228 70.3584 26.8221 70.3584 26.7186C70.3584 26.8221 70.353 26.9228 70.3447 27.0203ZM53.9912 26.6922C53.9902 26.6155 53.9861 26.5404 53.9795 26.4666C53.9861 26.5404 53.9902 26.6155 53.9912 26.6922ZM86.2871 26.6922C86.2861 26.6152 86.283 26.5397 86.2764 26.4656C86.283 26.5397 86.2861 26.6152 86.2871 26.6922ZM53.9648 26.3484C53.9583 26.2992 53.9515 26.2507 53.9424 26.2029C53.9515 26.2507 53.9583 26.2992 53.9648 26.3484ZM86.2617 26.3484C86.2552 26.2992 86.2483 26.2507 86.2393 26.2029C86.2483 26.2507 86.2552 26.2992 86.2617 26.3484ZM53.9258 26.1277C53.9132 26.0707 53.9 26.0146 53.8838 25.9598C53.9 26.0146 53.9132 26.0707 53.9258 26.1277ZM86.2227 26.1277C86.21 26.0707 86.1969 26.0146 86.1807 25.9598C86.1969 26.0146 86.21 26.0707 86.2227 26.1277ZM73.915 26.075H76.6973L75.3154 22.1424L73.915 26.075ZM100.473 26.075H103.254L101.873 22.1424L100.473 26.075ZM53.8574 25.8777C53.8415 25.8303 53.8243 25.7838 53.8057 25.7381C53.8243 25.7838 53.8415 25.8303 53.8574 25.8777ZM86.1494 25.8641C86.1362 25.8253 86.1215 25.7874 86.1064 25.7498C86.1215 25.7874 86.1362 25.8253 86.1494 25.8641ZM53.7627 25.6385C53.7462 25.6029 53.7282 25.5684 53.71 25.534C53.7282 25.5684 53.7462 25.6029 53.7627 25.6385ZM86.0586 25.6365C86.0424 25.6016 86.0247 25.5677 86.0068 25.534C86.0247 25.5677 86.0424 25.6016 86.0586 25.6365ZM53.6523 25.4305C53.6339 25.3997 53.6136 25.3703 53.5938 25.3406C53.6136 25.3704 53.6339 25.3997 53.6523 25.4305ZM85.9492 25.4305C85.9308 25.3997 85.9105 25.3703 85.8906 25.3406C85.9105 25.3704 85.9308 25.3997 85.9492 25.4305ZM53.5234 25.2371C53.4791 25.1783 53.4328 25.1213 53.3828 25.0672C53.4328 25.1213 53.4791 25.1783 53.5234 25.2371ZM85.502 24.8953C85.6204 24.9982 85.7266 25.1127 85.8203 25.2371C85.776 25.1783 85.7296 25.1213 85.6797 25.0672C85.624 25.0069 85.5644 24.9496 85.502 24.8953C85.4535 24.8514 85.4053 24.8105 85.3564 24.7723C85.4053 24.8105 85.4535 24.8514 85.502 24.8953ZM85.2959 24.7283C85.2634 24.7045 85.2307 24.6817 85.1973 24.66C85.2307 24.6817 85.2634 24.7045 85.2959 24.7283ZM85.1318 24.6199C85.102 24.6022 85.0721 24.5845 85.041 24.5682C85.0721 24.5845 85.102 24.6022 85.1318 24.6199ZM84.9619 24.5281C84.9302 24.5131 84.8976 24.499 84.8643 24.4852C84.8976 24.499 84.9302 24.5131 84.9619 24.5281ZM84.7842 24.4539C84.7454 24.4394 84.7055 24.4253 84.6641 24.4119C84.7055 24.4253 84.7454 24.4394 84.7842 24.4539ZM84.5908 24.3885C84.5343 24.3718 84.4752 24.3557 84.4131 24.3406C84.4752 24.3557 84.5343 24.3718 84.5908 24.3885ZM84.3721 24.3309C84.2914 24.3121 84.2058 24.2942 84.1143 24.2772C84.2058 24.2942 84.2914 24.3121 84.3721 24.3309ZM48.377 24.1082C48.4268 24.1627 48.479 24.2155 48.5352 24.2654C48.479 24.2155 48.4268 24.1626 48.377 24.1082ZM80.6787 24.1141C80.727 24.1665 80.7778 24.2172 80.832 24.2654C80.7778 24.2172 80.727 24.1665 80.6787 24.1141ZM48.2344 23.9334C48.2674 23.9786 48.303 24.0217 48.3398 24.0643C48.303 24.0217 48.2674 23.9786 48.2344 23.9334ZM80.5342 23.9373C80.5604 23.973 80.5886 24.0069 80.6172 24.0408C80.5886 24.0069 80.5604 23.973 80.5342 23.9373ZM48.1191 23.7576C48.141 23.7952 48.1653 23.831 48.1895 23.867C48.1653 23.831 48.141 23.7952 48.1191 23.7576ZM80.416 23.7576C80.4379 23.7952 80.4622 23.831 80.4863 23.867C80.4622 23.831 80.4379 23.7952 80.416 23.7576ZM65.1904 23.8455H67.3809C67.8614 23.8454 68.2587 23.7259 68.5303 23.5057C68.7939 23.2917 68.9668 22.9601 68.9668 22.4686C68.9668 21.977 68.7941 21.6489 68.5312 21.4383C68.2601 21.2211 67.8627 21.1054 67.3809 21.1053H65.1904V23.8455ZM48.0215 23.5652C48.0386 23.6035 48.057 23.6408 48.0762 23.6776C48.057 23.6408 48.0386 23.6035 48.0215 23.5652ZM80.3184 23.5652C80.3355 23.6035 80.3538 23.6408 80.373 23.6776C80.3538 23.6408 80.3355 23.6035 80.3184 23.5652ZM47.9365 23.3397C47.9507 23.3841 47.9648 23.4279 47.9814 23.4705C47.9648 23.4279 47.9507 23.3841 47.9365 23.3397ZM80.2324 23.3397C80.2466 23.3842 80.2616 23.4278 80.2783 23.4705C80.2617 23.4278 80.2466 23.3842 80.2324 23.3397ZM47.8711 23.0916C47.8828 23.1492 47.8958 23.2056 47.9111 23.2606C47.8958 23.2056 47.8828 23.1493 47.8711 23.0916ZM80.1504 23.0135C80.165 23.0987 80.1847 23.1809 80.207 23.2606C80.1655 23.1118 80.1367 22.9534 80.1221 22.785L80.1504 23.0135ZM47.834 22.8475C47.8408 22.9107 47.8476 22.9727 47.8584 23.033C47.8476 22.9727 47.8408 22.9107 47.834 22.8475ZM85.8828 20.907C85.7851 20.8206 85.687 20.7407 85.5889 20.6658C85.6869 20.7407 85.7851 20.8206 85.8828 20.907ZM51.8184 20.8777C51.9417 20.9153 52.0588 20.9601 52.1709 21.0125C52.0588 20.9602 51.9418 20.9152 51.8184 20.8777ZM53.5195 20.8524C53.4455 20.7888 53.3731 20.7267 53.2988 20.6697C53.3731 20.7267 53.4455 20.7888 53.5195 20.8524ZM53.043 20.4891C53.0254 20.4775 53.0079 20.4661 52.9902 20.4549C53.0079 20.4661 53.0254 20.4775 53.043 20.4891ZM85.3271 20.4813C85.3157 20.4738 85.3045 20.4661 85.293 20.4588C85.3045 20.4661 85.3157 20.4738 85.3271 20.4813ZM52.9521 20.4315C52.9189 20.4109 52.8861 20.3902 52.8525 20.3709C52.8861 20.3902 52.9189 20.4109 52.9521 20.4315ZM85.2207 20.4139C85.1967 20.3993 85.1727 20.3848 85.1484 20.3709C85.1727 20.3848 85.1967 20.3993 85.2207 20.4139ZM85.085 20.3358C85.0532 20.3183 85.0214 20.3013 84.9893 20.285C85.0214 20.3013 85.0532 20.3183 85.085 20.3358ZM52.7812 20.3318C52.7527 20.3163 52.7242 20.3007 52.6953 20.2859C52.7242 20.3007 52.7527 20.3163 52.7812 20.3318ZM52.623 20.2508C52.5955 20.2375 52.5679 20.2243 52.54 20.2117C52.5679 20.2242 52.5955 20.2375 52.623 20.2508ZM84.9199 20.2508C84.8924 20.2375 84.8648 20.2243 84.8369 20.2117C84.8648 20.2242 84.8923 20.2375 84.9199 20.2508ZM52.4785 20.1854C52.4442 20.1708 52.4099 20.1559 52.375 20.1424C52.4099 20.1559 52.4442 20.1708 52.4785 20.1854ZM84.7754 20.1854C84.7411 20.1708 84.7068 20.1559 84.6719 20.1424C84.7068 20.1559 84.741 20.1708 84.7754 20.1854ZM84.6025 20.117C84.5747 20.1069 84.5468 20.0971 84.5186 20.0877C84.5468 20.0971 84.5747 20.1069 84.6025 20.117ZM52.3037 20.116C52.2797 20.1074 52.2557 20.0988 52.2314 20.0906C52.2557 20.0988 52.2797 20.1074 52.3037 20.116ZM84.4365 20.0613C84.3992 20.0499 84.3614 20.0394 84.3232 20.0291C84.3614 20.0394 84.3992 20.0499 84.4365 20.0613ZM52.1338 20.0594C52.0996 20.049 52.0651 20.0395 52.0303 20.0301C52.0651 20.0395 52.0996 20.049 52.1338 20.0594ZM51.9854 20.0174C51.9462 20.0073 51.9063 19.999 51.8662 19.9901C51.9063 19.999 51.9462 20.0073 51.9854 20.0174ZM84.2822 20.0174C84.243 20.0073 84.2032 19.999 84.1631 19.9901C84.2032 19.999 84.243 20.0073 84.2822 20.0174ZM51.7822 19.9715C51.759 19.9669 51.7355 19.9631 51.7119 19.9588C51.7355 19.963 51.759 19.9669 51.7822 19.9715ZM84.0801 19.9715C84.0508 19.9657 84.021 19.9611 83.9912 19.9559C84.021 19.9611 84.0508 19.9657 84.0801 19.9715ZM51.6172 19.9422C51.5703 19.9349 51.5228 19.9286 51.4746 19.9227C51.5228 19.9286 51.5703 19.9349 51.6172 19.9422ZM83.917 19.9422C83.8683 19.9345 83.8187 19.9288 83.7686 19.9227C83.8187 19.9288 83.8683 19.9345 83.917 19.9422ZM51.4277 19.9168C51.4125 19.9151 51.3972 19.9135 51.3818 19.9119C51.3972 19.9135 51.4125 19.9151 51.4277 19.9168ZM83.7246 19.9168C83.7094 19.9151 83.6941 19.9135 83.6787 19.9119C83.6941 19.9135 83.7094 19.9151 83.7246 19.9168ZM102.253 19.2117L102.179 19.3211H100.703L100.926 18.9432L102.119 16.9236L102.192 16.8006H103.896L102.253 19.2117ZM75.5801 4.01251C76.6147 4.0126 77.4535 4.3781 78.0791 5.00372C78.5504 5.47506 78.8112 5.94125 78.9482 6.57111C79.0812 7.18257 79.0967 7.94859 79.0967 9.01154C79.0967 10.0746 79.0812 10.8405 78.9482 11.452C78.8113 12.0817 78.5502 12.5471 78.0791 13.0184C77.4535 13.644 76.6147 14.0105 75.5801 14.0106C74.5465 14.0106 73.6948 13.6447 73.0684 13.0184C72.5965 12.5464 72.3386 12.0808 72.2051 11.451C72.0756 10.8399 72.0635 10.0739 72.0635 9.01154C72.0635 7.94912 72.0756 7.18315 72.2051 6.57208C72.3386 5.94207 72.5963 5.47579 73.0684 5.00372C73.6948 4.37751 74.5466 4.01252 75.5801 4.01251ZM106.891 4.01251C107.925 4.01268 108.763 4.37836 109.389 5.00372C109.86 5.47506 110.122 5.94125 110.259 6.57111C110.392 7.18256 110.407 7.94863 110.407 9.01154C110.407 10.0745 110.392 10.8405 110.259 11.452C110.122 12.0818 109.86 12.547 109.389 13.0184C108.763 13.6439 107.925 14.0104 106.891 14.0106C105.857 14.0106 105.005 13.6447 104.379 13.0184C103.907 12.5464 103.649 12.0808 103.516 11.451C103.386 10.8399 103.374 10.0739 103.374 9.01154C103.374 7.94909 103.386 7.18316 103.516 6.57208C103.649 5.94208 103.907 5.47579 104.379 5.00372C105.005 4.37761 105.857 4.01251 106.891 4.01251ZM127.733 4.01251C128.768 4.0126 129.607 4.37824 130.232 5.00372C130.704 5.47506 130.965 5.94125 131.102 6.57111C131.235 7.18258 131.25 7.94853 131.25 9.01154C131.25 10.0746 131.235 10.8405 131.102 11.452C130.965 12.0818 130.704 12.5471 130.232 13.0184C129.607 13.644 128.768 14.0105 127.733 14.0106C126.7 14.0105 125.848 13.6446 125.222 13.0184C124.75 12.5465 124.493 12.0806 124.359 11.451C124.23 10.8399 124.218 10.0739 124.218 9.01154C124.218 7.94909 124.23 7.18316 124.359 6.57208C124.493 5.9421 124.75 5.47578 125.222 5.00372C125.848 4.37747 126.7 4.01262 127.733 4.01251ZM49.6123 12.5399H54.3877V13.783L54.457 13.5955L57.8936 4.2547L57.9541 4.09161H59.1426L59.2031 4.2547L62.75 13.9315H61.1523L61.0938 13.7654L60.4043 11.8192H56.6787L55.9902 13.7654L55.9307 13.9315H48.1152V4.09161H49.6123V12.5399ZM67.4209 4.09161C68.2801 4.0917 69.0324 4.33757 69.5732 4.81427C70.1177 5.29446 70.4258 5.98912 70.4258 6.8338C70.4257 7.71646 69.9937 8.45329 69.3584 8.87384C70.086 9.31258 70.5703 10.0799 70.5703 11.0975C70.5702 12.0019 70.2663 12.721 69.7158 13.2108C69.1693 13.6967 68.408 13.9314 67.5391 13.9315H63.6553V4.09161H67.4209ZM84.7812 4.09161C85.6442 4.09169 86.401 4.35265 86.9443 4.8504C87.49 5.35045 87.7987 6.06965 87.7988 6.93829C87.7988 7.67263 87.5759 8.29591 87.1768 8.77032C86.8445 9.16513 86.3978 9.44471 85.8818 9.60529L88.1455 13.9315H86.4131L86.3428 13.7957L84.2871 9.78595H82.4473V13.9315H80.9502V4.09161H84.7812ZM93.127 4.2547L96.6738 13.9315H95.0762L95.0176 13.7654L94.3281 11.8192H90.6025L89.9131 13.7654L89.8545 13.9315H88.2568L88.3809 13.5955L91.8174 4.2547L91.8779 4.09161H93.0664L93.127 4.2547ZM102.741 5.48322H100.039V13.9315H98.542V5.48322H95.8398V4.09161H102.741V5.48322ZM116.092 4.09161C116.954 4.09175 117.711 4.3529 118.254 4.8504C118.8 5.35045 119.109 6.06964 119.109 6.93829C119.109 7.67279 118.886 8.29587 118.486 8.77032C118.154 9.16504 117.708 9.44469 117.192 9.60529L119.456 13.9315H117.723L117.653 13.7957L115.598 9.78595H113.757V13.9315H112.26V4.09161H116.092ZM122.366 13.9315H120.869V4.09161H122.366V13.9315ZM75.0664 13.7264C75.0748 13.7275 75.0833 13.7282 75.0918 13.7293C75.0833 13.7282 75.0748 13.7275 75.0664 13.7264ZM106.374 13.7264C106.384 13.7277 106.394 13.728 106.404 13.7293C106.394 13.728 106.384 13.7277 106.374 13.7264ZM127.218 13.7264C127.228 13.7277 127.238 13.728 127.248 13.7293C127.238 13.728 127.228 13.7277 127.218 13.7264ZM76.166 13.7147C76.182 13.7122 76.198 13.7096 76.2139 13.7068C76.198 13.7096 76.182 13.7122 76.166 13.7147ZM68.1143 13.6404C67.9306 13.6664 67.7381 13.6815 67.5381 13.6815L67.8428 13.6707C67.9353 13.6642 68.0257 13.653 68.1143 13.6404ZM74.7588 13.6707C74.7643 13.672 74.7698 13.6734 74.7754 13.6746C74.7698 13.6734 74.7643 13.672 74.7588 13.6707ZM106.068 13.6707C106.074 13.672 106.079 13.6734 106.085 13.6746C106.079 13.6734 106.074 13.672 106.068 13.6707ZM126.912 13.6707C126.918 13.672 126.923 13.6734 126.929 13.6746C126.923 13.6734 126.918 13.672 126.912 13.6707ZM76.459 13.6561C76.4708 13.6531 76.4824 13.6494 76.4941 13.6463C76.4824 13.6494 76.4708 13.6531 76.459 13.6561ZM68.209 13.6248C68.2652 13.6153 68.3206 13.6055 68.375 13.5936C68.3206 13.6055 68.2652 13.6153 68.209 13.6248ZM105.755 13.5828C105.774 13.5892 105.793 13.5953 105.812 13.6014C105.793 13.5953 105.774 13.5892 105.755 13.5828ZM126.599 13.5828C126.618 13.5892 126.637 13.5953 126.656 13.6014C126.637 13.5953 126.618 13.5892 126.599 13.5828ZM74.4502 13.5848C74.4654 13.5898 74.4807 13.5946 74.4961 13.5994C74.4807 13.5946 74.4654 13.5898 74.4502 13.5848ZM68.4785 13.5682C68.5279 13.5556 68.5763 13.5419 68.624 13.5272C68.5763 13.5419 68.5279 13.5556 68.4785 13.5682ZM105.479 13.4754C105.495 13.4826 105.511 13.4899 105.527 13.4969C105.511 13.4899 105.495 13.4826 105.479 13.4754ZM126.324 13.4764C126.338 13.4826 126.352 13.4889 126.366 13.4949C126.352 13.4889 126.338 13.4826 126.324 13.4764ZM68.7236 13.494C68.77 13.4778 68.8157 13.4614 68.8604 13.4432C68.8156 13.4614 68.77 13.4778 68.7236 13.494ZM74.1738 13.4783C74.1858 13.4836 74.1979 13.4888 74.21 13.494C74.1979 13.4888 74.1858 13.4836 74.1738 13.4783ZM76.9658 13.4832C76.9819 13.4762 76.9978 13.469 77.0137 13.4617C76.9978 13.469 76.9819 13.4762 76.9658 13.4832ZM68.9561 13.4022C68.9979 13.3832 69.0389 13.3635 69.0791 13.3426C69.0389 13.3635 68.9979 13.3832 68.9561 13.4022ZM73.8926 13.3358C73.9131 13.3475 73.9333 13.3597 73.9541 13.3709C73.9333 13.3597 73.9131 13.3475 73.8926 13.3358ZM77.208 13.3631C77.2286 13.3518 77.2493 13.3407 77.2695 13.3289C77.2493 13.3407 77.2286 13.3518 77.208 13.3631ZM105.226 13.3494C105.231 13.3526 105.237 13.3561 105.242 13.3592C105.237 13.3561 105.231 13.3526 105.226 13.3494ZM126.069 13.3494C126.075 13.3526 126.08 13.3561 126.086 13.3592C126.08 13.3561 126.075 13.3526 126.069 13.3494ZM69.1748 13.2908C69.2151 13.2675 69.2535 13.242 69.292 13.2166C69.2535 13.242 69.2151 13.2675 69.1748 13.2908ZM77.4482 13.2166C77.4614 13.2077 77.4743 13.1984 77.4873 13.1893C77.4743 13.1984 77.4614 13.2077 77.4482 13.2166ZM73.667 13.1942C73.6768 13.201 73.6864 13.208 73.6963 13.2147C73.6864 13.208 73.6768 13.2009 73.667 13.1942ZM104.985 13.2C104.99 13.2034 104.995 13.2073 105 13.2108C104.995 13.2073 104.99 13.2034 104.985 13.2ZM125.829 13.2C125.834 13.2034 125.839 13.2073 125.844 13.2108C125.839 13.2073 125.834 13.2034 125.829 13.2ZM69.3672 13.1668C69.4092 13.1367 69.4487 13.1039 69.4883 13.0711C69.4487 13.1039 69.4092 13.1367 69.3672 13.1668ZM77.9014 12.8416C77.9547 12.7883 78.0053 12.7356 78.0527 12.6824C78.0053 12.7356 77.9547 12.7883 77.9014 12.8416ZM73.0938 12.6824C73.1411 12.7356 73.1918 12.7883 73.2451 12.8416C73.3157 12.9122 73.389 12.9795 73.4658 13.0428C73.389 12.9795 73.3157 12.9122 73.2451 12.8416C73.1918 12.7883 73.1411 12.7356 73.0938 12.6824ZM104.404 12.6824C104.452 12.7354 104.502 12.7885 104.555 12.8416C104.625 12.9122 104.699 12.9794 104.776 13.0428C104.699 12.9794 104.625 12.9123 104.555 12.8416C104.502 12.7885 104.452 12.7354 104.404 12.6824ZM125.248 12.6824C125.295 12.7354 125.345 12.7885 125.398 12.8416C125.469 12.9123 125.543 12.9794 125.62 13.0428C125.543 12.9794 125.469 12.9123 125.398 12.8416C125.345 12.7885 125.295 12.7354 125.248 12.6824ZM69.6631 12.9109C69.6773 12.8962 69.6922 12.8821 69.7061 12.867C69.6922 12.8821 69.6773 12.8962 69.6631 12.9109ZM106.891 5.40411C106.325 5.40411 105.837 5.60296 105.453 5.98712C105.198 6.2488 105.056 6.52351 104.974 6.96466C104.888 7.42346 104.871 8.04945 104.871 9.01154C104.871 9.97352 104.888 10.5996 104.974 11.0584C105.056 11.4994 105.198 11.7743 105.453 12.0359L105.603 12.1707C105.961 12.466 106.396 12.618 106.891 12.618C107.456 12.6178 107.943 12.4199 108.327 12.0359C108.583 11.7743 108.726 11.4996 108.808 11.0584C108.893 10.5996 108.91 9.97351 108.91 9.01154C108.91 8.04955 108.893 7.42345 108.808 6.96466C108.726 6.52348 108.582 6.2488 108.327 5.98712L108.179 5.85236C107.82 5.55682 107.386 5.40426 106.891 5.40411ZM109.269 12.782C109.301 12.7486 109.332 12.7159 109.362 12.6824C109.332 12.7159 109.301 12.7486 109.269 12.782ZM130.112 12.782C130.144 12.7486 130.176 12.7159 130.206 12.6824C130.176 12.7159 130.144 12.7486 130.112 12.782ZM69.7822 12.7752C69.8072 12.7446 69.8331 12.7146 69.8564 12.6824C69.8331 12.7146 69.8072 12.7446 69.7822 12.7752ZM75.5801 5.40411C75.0143 5.40412 74.5278 5.6031 74.1436 5.98712C73.888 6.2489 73.7451 6.5233 73.6631 6.96466C73.5778 7.42346 73.5605 8.04945 73.5605 9.01154C73.5605 9.97352 73.5778 10.5996 73.6631 11.0584C73.7451 11.4996 73.888 11.7742 74.1436 12.0359L74.292 12.1707C74.6503 12.4661 75.0849 12.618 75.5801 12.618C76.1457 12.6179 76.6325 12.4199 77.0166 12.0359C77.2721 11.7742 77.415 11.4996 77.4971 11.0584C77.5823 10.5996 77.5996 9.97351 77.5996 9.01154C77.5996 8.04954 77.5823 7.42345 77.4971 6.96466C77.4151 6.52341 77.272 6.24885 77.0166 5.98712C76.6325 5.60309 76.1457 5.4042 75.5801 5.40411ZM127.733 5.40411C127.168 5.40422 126.681 5.60306 126.297 5.98712C126.041 6.24885 125.898 6.5234 125.816 6.96466C125.731 7.42346 125.715 8.04948 125.715 9.01154C125.715 9.97352 125.731 10.5996 125.816 11.0584C125.898 11.4996 126.041 11.7743 126.297 12.0359L126.446 12.1707C126.804 12.4658 127.239 12.6179 127.733 12.618C128.299 12.6179 128.787 12.4201 129.171 12.0359C129.426 11.7743 129.569 11.4995 129.651 11.0584C129.737 10.5996 129.753 9.97351 129.753 9.01154C129.753 8.04957 129.737 7.42345 129.651 6.96466C129.569 6.52353 129.426 6.24877 129.171 5.98712L129.021 5.85236C128.663 5.55701 128.228 5.40419 127.733 5.40411ZM72.9688 12.533C72.9913 12.5616 73.015 12.5896 73.0391 12.618C73.015 12.5896 72.9913 12.5616 72.9688 12.533ZM78.1074 12.618C78.1349 12.5856 78.161 12.5529 78.1865 12.5203C78.161 12.5529 78.1349 12.5856 78.1074 12.618ZM104.271 12.5223C104.297 12.5543 104.323 12.5861 104.35 12.618C104.323 12.5861 104.297 12.5543 104.271 12.5223ZM125.113 12.5203C125.139 12.5531 125.166 12.5854 125.193 12.618C125.166 12.5854 125.139 12.5531 125.113 12.5203ZM109.424 12.6102C109.446 12.5839 109.467 12.5575 109.488 12.5311C109.467 12.5575 109.446 12.5839 109.424 12.6102ZM130.268 12.6102C130.29 12.5839 130.311 12.5575 130.332 12.5311C130.311 12.5575 130.29 12.5839 130.268 12.6102ZM69.915 12.5936C69.9376 12.5591 69.9597 12.5242 69.9805 12.4881C69.9597 12.5242 69.9376 12.5591 69.915 12.5936ZM65.1523 12.5399H67.4473C67.9767 12.5397 68.3801 12.3862 68.6484 12.1395C68.9145 11.8948 69.0732 11.5358 69.0732 11.0711C69.0732 10.6066 68.9146 10.2508 68.6494 10.0096C68.3814 9.7661 67.9778 9.61614 67.4473 9.61603H65.1523V12.5399ZM125.005 12.3709C125.032 12.4115 125.06 12.4521 125.091 12.492C125.06 12.4521 125.032 12.4114 125.005 12.3709ZM78.2119 12.4871C78.2403 12.4498 78.268 12.4127 78.2939 12.3748C78.268 12.4127 78.2403 12.4498 78.2119 12.4871ZM104.164 12.3748C104.185 12.4056 104.207 12.4362 104.229 12.4666C104.207 12.4362 104.185 12.4056 104.164 12.3748ZM72.8535 12.3748C72.8743 12.4054 72.8965 12.4354 72.9189 12.4656C72.8965 12.4354 72.8743 12.4054 72.8535 12.3748ZM109.537 12.4656C109.56 12.4354 109.582 12.4054 109.603 12.3748C109.582 12.4054 109.56 12.4354 109.537 12.4656ZM130.381 12.4656C130.403 12.4354 130.425 12.4054 130.446 12.3748C130.425 12.4054 130.403 12.4354 130.381 12.4656ZM70.0352 12.3885C70.0566 12.3465 70.0766 12.3036 70.0957 12.2596C70.0766 12.3036 70.0566 12.3465 70.0352 12.3885ZM72.748 12.2059C72.7659 12.2371 72.7844 12.268 72.8037 12.2986C72.7844 12.268 72.7659 12.2371 72.748 12.2059ZM124.907 12.2147C124.923 12.2413 124.939 12.2675 124.955 12.2938C124.939 12.2675 124.923 12.2413 124.907 12.2147ZM78.3496 12.2889C78.3651 12.2643 78.38 12.2396 78.3945 12.2147C78.38 12.2396 78.3651 12.2643 78.3496 12.2889ZM104.063 12.2147C104.078 12.2397 104.093 12.2642 104.108 12.2889C104.093 12.2642 104.078 12.2397 104.063 12.2147ZM109.66 12.2889C109.676 12.2637 109.691 12.2383 109.706 12.2127C109.691 12.2383 109.676 12.2637 109.66 12.2889ZM130.504 12.2889C130.52 12.2637 130.535 12.2383 130.55 12.2127C130.535 12.2383 130.52 12.2637 130.504 12.2889ZM70.1318 12.1697C70.1488 12.126 70.165 12.0816 70.1797 12.0359C70.165 12.0816 70.1488 12.126 70.1318 12.1697ZM72.6631 12.0428C72.6786 12.0753 72.6941 12.1077 72.7109 12.1395C72.6941 12.1077 72.6786 12.0753 72.6631 12.0428ZM103.969 12.034C103.985 12.0692 104.002 12.1041 104.021 12.1385C104.002 12.1041 103.985 12.0692 103.969 12.034ZM124.812 12.034C124.829 12.0692 124.846 12.1041 124.864 12.1385C124.846 12.1041 124.829 12.0692 124.812 12.034ZM78.4385 12.1356C78.4606 12.0941 78.4821 12.0524 78.502 12.0096C78.4821 12.0524 78.4606 12.0941 78.4385 12.1356ZM109.749 12.1356C109.771 12.0941 109.793 12.0524 109.812 12.0096C109.793 12.0524 109.771 12.0941 109.749 12.1356ZM130.593 12.1356C130.615 12.0941 130.636 12.0523 130.656 12.0096C130.636 12.0524 130.615 12.0941 130.593 12.1356ZM130.671 11.9754C130.69 11.9328 130.708 11.8896 130.725 11.8455C130.708 11.8896 130.69 11.9328 130.671 11.9754ZM78.5176 11.9744C78.5379 11.9287 78.5573 11.8823 78.5752 11.8348C78.5573 11.8823 78.5379 11.9287 78.5176 11.9744ZM109.828 11.9744C109.842 11.9431 109.854 11.9109 109.867 11.8787C109.854 11.9109 109.842 11.9431 109.828 11.9744ZM72.585 11.8611C72.5982 11.8957 72.6114 11.9301 72.626 11.9637C72.6114 11.9301 72.5982 11.8957 72.585 11.8611ZM103.896 11.8611C103.909 11.8957 103.922 11.9301 103.937 11.9637C103.922 11.9301 103.909 11.8957 103.896 11.8611ZM124.739 11.8611C124.753 11.8957 124.766 11.9301 124.78 11.9637C124.766 11.9301 124.753 11.8957 124.739 11.8611ZM70.2129 11.9276C70.2285 11.8706 70.2417 11.8123 70.2539 11.7527C70.2417 11.8124 70.2285 11.8706 70.2129 11.9276ZM72.4521 11.4129C72.4812 11.5473 72.5164 11.6731 72.5586 11.7928C72.5164 11.6731 72.4811 11.5473 72.4521 11.4129ZM78.5918 11.7928C78.6049 11.7561 78.6161 11.7184 78.6279 11.6805C78.6161 11.7184 78.6049 11.7561 78.5918 11.7928ZM103.836 11.6873C103.847 11.7229 103.857 11.7583 103.869 11.7928C103.857 11.7583 103.847 11.7229 103.836 11.6873ZM124.68 11.6873C124.691 11.7229 124.701 11.7583 124.713 11.7928C124.701 11.7583 124.691 11.7229 124.68 11.6873ZM130.855 11.4051C130.825 11.5424 130.789 11.6708 130.745 11.7928C130.789 11.6708 130.825 11.5424 130.855 11.4051ZM77.6367 11.5037C77.6442 11.4824 77.6532 11.4613 77.6602 11.4393L77.666 11.4197C77.6572 11.4485 77.6464 11.4761 77.6367 11.5037ZM104.81 11.4393C104.817 11.4612 104.825 11.4825 104.832 11.5037C104.822 11.4762 104.813 11.4484 104.804 11.4197L104.81 11.4393ZM125.653 11.4393C125.66 11.4612 125.668 11.4825 125.676 11.5037C125.666 11.4762 125.656 11.4484 125.647 11.4197L125.653 11.4393ZM109.99 11.493C109.997 11.464 110.005 11.4349 110.012 11.4051C110.005 11.4349 109.997 11.464 109.99 11.493ZM69.2783 11.492C69.2816 11.4767 69.2862 11.4616 69.2891 11.4461L69.291 11.4354C69.2876 11.4545 69.2823 11.4732 69.2783 11.492ZM73.499 11.4393C73.5004 11.4436 73.5025 11.4477 73.5039 11.452C73.5004 11.4413 73.4965 11.4306 73.4932 11.4197L73.499 11.4393ZM108.966 11.452C108.967 11.4477 108.969 11.4436 108.971 11.4393L108.977 11.4197C108.973 11.4306 108.969 11.4413 108.966 11.452ZM78.6904 11.451C78.6935 11.4377 78.6963 11.4244 78.6992 11.4109C78.6963 11.4244 78.6935 11.4377 78.6904 11.451ZM103.763 11.4139C103.765 11.4264 103.77 11.4386 103.772 11.451C103.77 11.4386 103.765 11.4264 103.763 11.4139ZM124.606 11.4139C124.609 11.4264 124.613 11.4386 124.616 11.451C124.613 11.4386 124.609 11.4264 124.606 11.4139ZM72.4102 11.1854C72.4191 11.2415 72.4289 11.2961 72.4395 11.3494C72.4289 11.2961 72.419 11.2415 72.4102 11.1854ZM103.721 11.1854C103.73 11.2415 103.739 11.2961 103.75 11.3494C103.739 11.2961 103.73 11.2415 103.721 11.1854ZM124.567 11.2068C124.574 11.248 124.582 11.2883 124.59 11.3279C124.582 11.2883 124.574 11.248 124.567 11.2068ZM104.667 10.6424C104.689 10.8857 104.72 11.0943 104.765 11.2781C104.72 11.0943 104.689 10.8857 104.667 10.6424ZM109.016 11.2781L109.053 11.1033C109.059 11.0672 109.064 11.03 109.07 10.992C109.054 11.0939 109.037 11.189 109.016 11.2781ZM125.511 10.6424C125.532 10.8858 125.563 11.0943 125.608 11.2781C125.563 11.0943 125.532 10.8857 125.511 10.6424ZM78.7266 11.2781C78.7313 11.2524 78.7358 11.2264 78.7402 11.2C78.7358 11.2264 78.7313 11.2524 78.7266 11.2781ZM110.037 11.2781C110.042 11.2524 110.046 11.2264 110.051 11.2C110.046 11.2264 110.042 11.2524 110.037 11.2781ZM78.7559 11.0955C78.7611 11.0596 78.7669 11.0233 78.7715 10.9861C78.7669 11.0233 78.7611 11.0596 78.7559 11.0955ZM124.534 10.9617C124.538 10.9988 124.543 11.0352 124.548 11.0711C124.543 11.0352 124.538 10.9988 124.534 10.9617ZM110.094 10.8787C110.098 10.8403 110.101 10.8013 110.104 10.7615C110.101 10.8013 110.098 10.8403 110.094 10.8787ZM130.938 10.8787C130.942 10.8403 130.945 10.8013 130.948 10.7615C130.945 10.8013 130.942 10.8403 130.938 10.8787ZM72.3594 10.743C72.3632 10.7884 72.3657 10.8331 72.3701 10.8768C72.3657 10.8331 72.3632 10.7884 72.3594 10.743ZM103.672 10.7791C103.674 10.8065 103.677 10.8335 103.68 10.8602C103.677 10.8335 103.674 10.8065 103.672 10.7791ZM124.516 10.7791C124.518 10.8065 124.521 10.8335 124.523 10.8602C124.521 10.8335 124.518 10.8065 124.516 10.7791ZM57.1582 10.4539H59.9404L58.5586 6.5213L57.1582 10.4539ZM91.082 10.4539H93.8633L92.4824 6.5213L91.082 10.4539ZM104.638 10.1746C104.631 10.0199 104.628 9.85344 104.625 9.67365L104.62 9.01154C104.62 9.46261 104.624 9.84527 104.638 10.1746ZM125.481 10.1746C125.475 10.0199 125.471 9.85344 125.469 9.67365L125.464 9.01154C125.464 9.46261 125.468 9.84526 125.481 10.1746ZM131 9.01154C131 9.53193 130.994 9.97375 130.976 10.3572C130.985 10.1706 130.993 9.97031 130.996 9.75372L131 9.01154ZM72.332 10.3143C72.3322 10.3185 72.3328 10.3227 72.333 10.327C72.3253 10.149 72.3202 9.95861 72.3174 9.75372L72.332 10.3143ZM103.633 9.94122C103.636 10.0761 103.638 10.2045 103.644 10.327C103.638 10.2045 103.636 10.0761 103.633 9.94122ZM124.477 9.94122C124.479 10.0761 124.482 10.2045 124.487 10.327C124.482 10.2045 124.479 10.0761 124.477 9.94122ZM68.7979 8.8797C68.8452 8.86233 68.8917 8.8429 68.9375 8.82208C68.8917 8.8429 68.8452 8.86233 68.7979 8.8797ZM69.002 8.79083C69.0266 8.77857 69.0511 8.766 69.0752 8.75275C69.0511 8.766 69.0266 8.77857 69.002 8.79083ZM69.1299 8.72052C69.1538 8.70641 69.1778 8.69263 69.2012 8.67755C69.1778 8.69263 69.1538 8.70641 69.1299 8.72052ZM69.2705 8.62872C69.2909 8.61429 69.3121 8.60094 69.332 8.58575C69.3121 8.60094 69.2909 8.61429 69.2705 8.62872ZM69.3789 8.54767C69.4044 8.52704 69.4295 8.50606 69.4541 8.48419C69.4295 8.50606 69.4044 8.52704 69.3789 8.54767ZM69.4932 8.44904C69.5163 8.42734 69.5393 8.40543 69.5615 8.38263C69.5393 8.40543 69.5163 8.42734 69.4932 8.44904ZM82.4473 8.40704H84.6895C85.1935 8.40698 85.595 8.27623 85.8662 8.04279C86.1317 7.81414 86.3027 7.46186 86.3027 6.95197C86.3027 6.44185 86.1316 6.08545 85.8652 5.85333C85.5936 5.61686 85.1922 5.48328 84.6895 5.48322H82.4473V8.40704ZM113.757 8.40704H116C116.504 8.40692 116.906 8.27617 117.177 8.04279C117.442 7.81413 117.612 7.46173 117.612 6.95197C117.612 6.44171 117.441 6.08544 117.175 5.85333C116.903 5.61698 116.502 5.48334 116 5.48322H113.757V8.40704ZM69.6152 8.32404C69.6296 8.30814 69.6443 8.29256 69.6582 8.27618C69.6443 8.29256 69.6296 8.30814 69.6152 8.32404ZM65.1523 8.22345H67.3418C67.8223 8.22339 68.2196 8.10463 68.4912 7.88458C68.755 7.67057 68.9287 7.33824 68.9287 6.8465C68.9286 6.35539 68.7557 6.02779 68.4932 5.8172C68.2219 5.59993 67.8239 5.48327 67.3418 5.48322H65.1523V8.22345ZM69.7129 8.20782C69.7257 8.19136 69.7386 8.17491 69.751 8.15802C69.7386 8.17491 69.7257 8.19136 69.7129 8.20782ZM78.8389 8.17169C78.8355 7.99292 78.8308 7.82542 78.8232 7.66779C78.8308 7.82543 78.8355 7.99292 78.8389 8.17169ZM69.8027 8.08478C69.8229 8.05471 69.8426 8.02424 69.8613 7.99298C69.8426 8.02424 69.8229 8.05471 69.8027 8.08478ZM72.334 7.68243C72.3285 7.80782 72.3252 7.93942 72.3223 8.07794C72.3252 7.93942 72.3285 7.80782 72.334 7.68243ZM103.645 7.6629C103.64 7.76836 103.638 7.87827 103.635 7.99298C103.638 7.87827 103.64 7.76836 103.645 7.6629ZM69.8809 7.95782C69.8973 7.92921 69.9135 7.90045 69.9287 7.87091C69.9135 7.90045 69.8973 7.92921 69.8809 7.95782ZM69.959 7.81134C69.9705 7.78705 69.9805 7.76199 69.9912 7.73712C69.9805 7.76199 69.9705 7.78705 69.959 7.81134ZM70.0225 7.66095C70.0324 7.63518 70.0417 7.60915 70.0508 7.58282C70.0417 7.60915 70.0324 7.63518 70.0225 7.66095ZM70.0752 7.51154C70.0856 7.47757 70.0937 7.44283 70.1025 7.40802C70.0937 7.44283 70.0856 7.47757 70.0752 7.51154ZM69.1172 7.33185C69.1253 7.30071 69.1352 7.2696 69.1416 7.23712L69.1436 7.2254C69.1366 7.26193 69.1262 7.297 69.1172 7.33185ZM72.3721 7.13556C72.3687 7.16797 72.3653 7.20083 72.3623 7.23419C72.3653 7.20082 72.3687 7.16797 72.3721 7.13556ZM103.683 7.13556C103.681 7.15429 103.679 7.17315 103.677 7.1922C103.679 7.17315 103.681 7.15429 103.683 7.13556ZM103.715 6.87482C103.708 6.92068 103.702 6.96757 103.696 7.01544C103.702 6.96757 103.708 6.92068 103.715 6.87482ZM78.7666 6.99786C78.7624 6.9658 78.7576 6.93428 78.7529 6.90314C78.7576 6.93428 78.7624 6.9658 78.7666 6.99786ZM72.3984 6.91583C72.3961 6.93195 72.3948 6.9483 72.3926 6.96466C72.3947 6.9483 72.3961 6.93195 72.3984 6.91583ZM87.5488 6.93829C87.5488 6.84295 87.544 6.74988 87.5361 6.659C87.544 6.74988 87.5488 6.84294 87.5488 6.93829ZM70.1543 6.49786C70.1467 6.42973 70.1382 6.36295 70.126 6.29767C70.1382 6.36295 70.1467 6.42973 70.1543 6.49786ZM103.756 6.64532C103.744 6.70331 103.733 6.76274 103.723 6.82404C103.733 6.76274 103.744 6.70331 103.756 6.64532ZM72.4365 6.69025C72.4316 6.71563 72.4274 6.7414 72.4229 6.7674C72.4274 6.74139 72.4316 6.71563 72.4365 6.69025ZM78.7305 6.7674C78.7245 6.73435 78.7185 6.7018 78.7119 6.66974C78.7185 6.7018 78.7245 6.73435 78.7305 6.7674ZM118.839 6.59747C118.831 6.52129 118.821 6.44669 118.808 6.37384C118.821 6.44669 118.831 6.52128 118.839 6.59747ZM103.797 6.46759C103.786 6.50945 103.775 6.55197 103.766 6.59552C103.775 6.55197 103.786 6.50945 103.797 6.46759ZM78.6895 6.56622C78.683 6.53882 78.6759 6.51189 78.6689 6.48517C78.6759 6.5119 78.683 6.53881 78.6895 6.56622ZM72.4844 6.47638C72.4781 6.50079 72.4726 6.52562 72.4668 6.5506C72.4726 6.52562 72.4781 6.5008 72.4844 6.47638ZM87.5166 6.50372C87.5111 6.46396 87.507 6.42438 87.5 6.38556C87.507 6.42438 87.5111 6.46396 87.5166 6.50372ZM72.5439 6.27814C72.535 6.30521 72.5259 6.33242 72.5176 6.36017C72.5259 6.33242 72.535 6.30521 72.5439 6.27814ZM78.6338 6.36017C78.6253 6.33247 78.6166 6.30516 78.6074 6.27814C78.6166 6.30516 78.6253 6.33247 78.6338 6.36017ZM103.859 6.25958C103.848 6.29264 103.837 6.3261 103.827 6.36017C103.837 6.32611 103.848 6.29264 103.859 6.25958ZM118.786 6.27814C118.774 6.22591 118.763 6.17422 118.749 6.12384C118.763 6.17422 118.774 6.22591 118.786 6.27814ZM87.4697 6.25275C87.4596 6.20927 87.4506 6.16602 87.4385 6.12384C87.4506 6.16602 87.4596 6.20927 87.4697 6.25275ZM78.5752 6.18829C78.5598 6.14754 78.5435 6.1076 78.5264 6.06818C78.5435 6.1076 78.5598 6.14754 78.5752 6.18829ZM103.933 6.07013C103.916 6.10898 103.9 6.14814 103.885 6.18829C103.9 6.14814 103.916 6.10898 103.933 6.07013ZM70.0967 6.16876C70.0867 6.12722 70.0773 6.086 70.0654 6.04572C70.0773 6.086 70.0867 6.12722 70.0967 6.16876ZM72.6104 6.09943C72.6012 6.12148 72.5916 6.14337 72.583 6.16583C72.5916 6.14337 72.6012 6.12148 72.6104 6.09943ZM87.4043 6.0213C87.3877 5.97138 87.3719 5.92179 87.3525 5.87384C87.3719 5.92179 87.3877 5.97137 87.4043 6.0213ZM118.713 6.01544C118.697 5.96913 118.682 5.92333 118.664 5.87872C118.682 5.92333 118.697 5.96913 118.713 6.01544ZM78.502 6.01349C78.4845 5.97575 78.4656 5.93889 78.4463 5.90216C78.4656 5.93889 78.4845 5.97575 78.502 6.01349ZM72.6914 5.92267C72.6787 5.9477 72.6652 5.97236 72.6533 5.99786C72.6652 5.97236 72.6787 5.94771 72.6914 5.92267ZM104.019 5.88947C104 5.92527 103.981 5.96111 103.964 5.99786C103.981 5.96111 104 5.92527 104.019 5.88947ZM70.0244 5.92462C70.0115 5.88803 69.9989 5.85167 69.9844 5.81622C69.9989 5.85167 70.0115 5.88803 70.0244 5.92462ZM78.4082 5.8299C78.3957 5.80794 78.3814 5.78711 78.3682 5.76544C78.3814 5.78711 78.3957 5.80794 78.4082 5.8299ZM104.108 5.73419C104.089 5.76584 104.068 5.79667 104.05 5.82892C104.068 5.79667 104.089 5.76584 104.108 5.73419ZM72.79 5.74786C72.7736 5.7746 72.7565 5.80078 72.7412 5.82794C72.7565 5.80077 72.7736 5.7746 72.79 5.74786ZM87.3135 5.78595C87.293 5.74048 87.272 5.6957 87.249 5.65216C87.272 5.6957 87.293 5.74047 87.3135 5.78595ZM118.624 5.78595C118.604 5.74142 118.583 5.69777 118.561 5.65509C118.583 5.69777 118.604 5.74142 118.624 5.78595ZM69.9297 5.69611C69.9141 5.66378 69.8988 5.63167 69.8818 5.6004C69.8988 5.63168 69.9141 5.66378 69.9297 5.69611ZM104.24 5.54083C104.209 5.58199 104.179 5.62302 104.151 5.66486C104.179 5.62303 104.209 5.58199 104.24 5.54083ZM87.1982 5.56232C87.1724 5.5183 87.1457 5.47526 87.1172 5.43341C87.1457 5.47526 87.1724 5.5183 87.1982 5.56232ZM118.495 5.54083C118.477 5.51013 118.458 5.47964 118.438 5.45001C118.458 5.47964 118.477 5.51013 118.495 5.54083ZM69.8232 5.49982C69.8008 5.46315 69.7774 5.42745 69.7529 5.3924C69.7774 5.42746 69.8008 5.46315 69.8232 5.49982ZM87.0625 5.35822C87.0356 5.32196 87.0084 5.28624 86.9795 5.25177C87.0084 5.28623 87.0356 5.32197 87.0625 5.35822ZM118.363 5.34552C118.341 5.31542 118.318 5.28551 118.294 5.25665C118.318 5.2855 118.341 5.31542 118.363 5.34552ZM69.6943 5.31232C69.6676 5.27755 69.64 5.24378 69.6113 5.21075C69.64 5.24379 69.6677 5.27754 69.6943 5.31232ZM109.212 5.18048C109.143 5.1115 109.071 5.04626 108.996 4.98419C109.071 5.04626 109.143 5.11148 109.212 5.18048ZM86.9023 5.16486C86.8741 5.13449 86.8453 5.10479 86.8154 5.07599C86.8453 5.10479 86.8741 5.13449 86.9023 5.16486ZM118.212 5.16388C118.184 5.13353 118.155 5.1038 118.125 5.07501C118.155 5.10379 118.184 5.13353 118.212 5.16388ZM69.5342 5.12677C69.5086 5.10027 69.483 5.07388 69.4561 5.04865C69.483 5.07389 69.5086 5.10027 69.5342 5.12677ZM86.7344 5.00177C86.6999 4.97162 86.6642 4.94306 86.6279 4.91486C86.6643 4.94305 86.6999 4.97163 86.7344 5.00177ZM118.045 5.00177C118.009 4.97072 117.973 4.94092 117.936 4.91193C117.973 4.94091 118.009 4.97073 118.045 5.00177ZM69.3604 4.96368C69.3324 4.9404 69.3036 4.91834 69.2744 4.8963C69.3036 4.91835 69.3325 4.9404 69.3604 4.96368ZM117.856 4.85236C117.82 4.82672 117.783 4.80291 117.745 4.77911C117.783 4.8029 117.82 4.82673 117.856 4.85236ZM86.5439 4.85138C86.5109 4.82796 86.4768 4.80588 86.4424 4.784C86.4768 4.80588 86.5109 4.82797 86.5439 4.85138ZM69.1719 4.82208C69.1364 4.79814 69.0996 4.77595 69.0625 4.75372C69.0996 4.77596 69.1364 4.79813 69.1719 4.82208ZM108.782 4.82208C108.777 4.81822 108.771 4.81419 108.766 4.81036C108.771 4.81419 108.777 4.81822 108.782 4.82208ZM117.646 4.71759C117.601 4.69212 117.554 4.66929 117.507 4.6463C117.554 4.66928 117.601 4.69213 117.646 4.71759ZM86.3301 4.71564C86.2865 4.69111 86.2417 4.66851 86.1963 4.6463C86.2418 4.6685 86.2865 4.69112 86.3301 4.71564ZM68.9775 4.70392C68.9334 4.67978 68.888 4.65736 68.8418 4.63556C68.888 4.65737 68.9334 4.67977 68.9775 4.70392ZM108.55 4.6756C108.538 4.66864 108.525 4.66189 108.513 4.65509C108.525 4.66189 108.538 4.66864 108.55 4.6756ZM86.1221 4.61017C86.0683 4.58594 86.0132 4.56383 85.957 4.54279C86.0132 4.56382 86.0683 4.58596 86.1221 4.61017ZM117.433 4.61017C117.379 4.58594 117.324 4.56384 117.268 4.54279C117.324 4.56382 117.379 4.58595 117.433 4.61017ZM68.751 4.59357C68.702 4.57266 68.6516 4.55432 68.6006 4.53595C68.6516 4.55433 68.702 4.57265 68.751 4.59357ZM108.273 4.53693C108.271 4.53581 108.268 4.5351 108.266 4.534C108.268 4.5351 108.271 4.53581 108.273 4.53693ZM117.19 4.51447C117.141 4.49743 117.09 4.48314 117.038 4.46857C117.09 4.48313 117.141 4.49744 117.19 4.51447ZM85.8789 4.51349C85.8327 4.49769 85.785 4.48517 85.7373 4.4715C85.785 4.48516 85.8327 4.4977 85.8789 4.51349ZM68.5176 4.50568C68.4637 4.48809 68.4085 4.47264 68.3525 4.45782C68.4085 4.47264 68.4637 4.48808 68.5176 4.50568ZM85.6172 4.43732C85.571 4.42611 85.524 4.41729 85.4766 4.40802C85.524 4.41729 85.571 4.42611 85.6172 4.43732ZM116.93 4.43732C116.873 4.42354 116.815 4.41303 116.757 4.40216C116.815 4.41302 116.873 4.42355 116.93 4.43732ZM108.005 4.43439C107.994 4.43064 107.982 4.42728 107.971 4.42365C107.982 4.42728 107.994 4.43064 108.005 4.43439ZM68.2627 4.43341C68.1905 4.41655 68.1163 4.40372 68.041 4.39142C68.1163 4.40373 68.1905 4.41655 68.2627 4.43341ZM68.001 4.38361C67.9094 4.36973 67.8155 4.35943 67.7197 4.35236C67.8155 4.35943 67.9094 4.36973 68.001 4.38361ZM107.722 4.35431C107.703 4.34995 107.684 4.34665 107.665 4.34259C107.684 4.34664 107.703 4.34996 107.722 4.35431ZM107.403 4.29572C107.393 4.29436 107.383 4.29406 107.373 4.29279C107.383 4.29406 107.393 4.29436 107.403 4.29572ZM48.6641 43.7733C48.7005 43.8196 48.7387 43.8659 48.7793 43.9119C48.7387 43.8659 48.7005 43.8196 48.6641 43.7733ZM48.0771 42.2049C48.0844 42.2675 48.0927 42.3283 48.1016 42.3875C48.0927 42.3283 48.0844 42.2675 48.0771 42.2049ZM70.959 38.1815C70.959 38.0824 70.9538 37.9857 70.9453 37.8914C70.9538 37.9857 70.959 38.0824 70.959 38.1815ZM72.3799 10.9617C72.3871 11.0243 72.3954 11.0851 72.4043 11.1443C72.3954 11.0851 72.3871 11.0243 72.3799 10.9617ZM103.69 10.9617C103.698 11.0243 103.706 11.0851 103.715 11.1443C103.706 11.0851 103.698 11.0243 103.69 10.9617ZM70.1172 7.35236C70.1282 7.30393 70.1376 7.2548 70.1455 7.2049C70.1376 7.2548 70.1282 7.30393 70.1172 7.35236ZM70.1758 6.8338C70.1758 6.73766 70.1705 6.64384 70.1621 6.55255C70.1705 6.64384 70.1758 6.73766 70.1758 6.8338Z" fill="#262624"/>
</svg>
