<svg width="115" height="41" viewBox="0 0 115 41" fill="none" xmlns="http://www.w3.org/2000/svg">
<path d="M11.7198 0.0166949C11.7198 0.0166949 11.8033 0.116865 11.8867 0.150254C12.3375 0.300509 12.6547 0.701187 12.7382 1.11856C12.8551 1.60271 12.7048 2.02009 12.421 2.38737C12.4878 2.53763 12.4544 2.57102 12.3041 2.48754C11.8534 2.83814 11.1856 2.92161 10.668 2.60441C10.5011 2.50424 10.3675 2.32059 10.234 2.17034L10.0671 1.73627C10.0003 1.55263 10.0337 1.36898 10.0503 1.18534C10.1338 0.868136 10.2673 0.567627 10.5345 0.350593C10.5512 0.0333899 11.0019 0.016695 11.2523 0.0667797C11.3525 0.0500848 11.4694 0.0166949 11.603 0H11.7198V0.0166949Z" fill="#989898"/>
<path d="M0.0668449 17.6468L0.18362 17.964C0.18362 20.8022 0.18362 23.6236 0.18362 26.4618L0.0668449 26.5285V26.5953C0.0668449 26.5953 0.0333898 26.6454 0 26.5953V17.5467C0 17.5467 0.0334551 17.4966 0.0668449 17.5467C0.217099 17.5467 0.217099 17.6135 0.0668449 17.6635" fill="#989898"/>
<path d="M0.0668449 10.201L0.18362 10.5182C0.18362 12.8388 0.18362 15.1594 0.18362 17.48L0.0668449 17.5467H0V10.1509H0.0834542C0.0834542 10.1509 0.133539 10.201 0.0834542 10.2177" fill="#989898"/>
<path d="M11.2524 0.0166016C11.2524 0.0166016 11.3025 0.0499915 11.2524 0.0833813C10.9853 0.0833813 10.7516 0.216941 10.5512 0.367195C10.5512 0.250331 10.5513 0.116771 10.4845 0.0166016H11.2524Z" fill="#989898"/>
<path d="M0.0668449 27.4634C0.0668449 27.4634 0.0333899 27.5135 0 27.4634V26.5786H0.0668449C0.200404 26.7956 0.283879 27.3299 0.0668449 27.4634Z" fill="#989898"/>
<path d="M0.0668449 27.7639H0V27.4634H0.0668449C0.250489 27.4634 0.233794 27.7305 0.0668449 27.7639Z" fill="#989898"/>
<path d="M85.8454 19.1325C85.044 20.7186 83.3745 21.353 81.6382 21.0691C80.4362 20.8688 79.4678 20.1175 78.967 18.999C78.0321 16.9622 78.75 14.3411 80.7701 13.473C81.8219 13.0222 82.9905 13.0222 84.0423 13.4563C86.1626 14.3244 86.8805 17.0791 85.8454 19.1492M89.0841 16.3445C88.9339 15.1424 88.5499 13.9905 87.7987 12.9888C86.63 11.4362 84.9272 10.5847 83.024 10.4846L82.6733 10.4512H82.4563C82.2392 10.4512 82.0055 10.4679 81.7884 10.4846C79.3176 10.6515 77.2641 11.9871 76.2791 14.3244C75.8451 15.3595 75.6949 16.428 75.7116 17.5298C75.7116 17.6467 75.7115 17.7469 75.7449 17.8303C75.9619 20.5516 77.6815 22.8555 80.3861 23.5901C81.1374 23.7904 81.8553 23.8405 82.6066 23.8572L83.1574 23.8238C86.4463 23.5734 88.7168 21.2194 89.0841 17.9639C89.0841 17.9305 89.0841 17.9138 89.0841 17.8804L89.1175 17.5966V16.7285L89.0675 16.3612L89.0841 16.3445Z" fill="#989898"/>
<path d="M22.7886 23.874H16.7283L5.27563 10.134H11.4361L11.6697 10.2342C15.3426 14.625 19.0155 18.999 22.6884 23.3898L22.7886 23.6903C22.9389 23.6903 22.9389 23.8406 22.7886 23.874Z" fill="#989898"/>
<path d="M98.2997 15.5266C98.0493 15.944 97.6486 16.161 97.1812 16.161H94.9107V13.2728H97.2479C97.7488 13.2728 98.1662 13.59 98.3665 14.0407C98.5669 14.5082 98.5501 15.0424 98.2997 15.5099M98.7004 18.3146C100.487 17.7637 101.338 16.1109 101.238 14.3079V13.9907C100.921 12.2711 99.8523 11.0023 98.0827 10.7351L97.7822 10.6851H92.3063V23.657H94.7938C94.894 23.657 94.944 23.5402 94.9273 23.3398V18.7153H96.1461L98.7505 23.657H101.706L98.7004 18.3146Z" fill="#989898"/>
<path d="M107.415 19.817L108.617 16.4947L109.786 19.817H107.415ZM108.768 10.2341C108.651 10.184 108.567 10.184 108.45 10.2341L102.991 23.6568H105.946L106.464 22.2711H110.738L111.255 23.6735H114.193L108.751 10.2508L108.768 10.2341Z" fill="#989898"/>
<path d="M45.4603 19.8336L46.6623 16.4946L47.8143 19.8002H45.4436L45.4603 19.8336ZM46.8126 10.234C46.8126 10.234 46.5288 10.1672 46.4954 10.234L41.0361 23.6567H43.4068H43.724H44.0078L44.5087 22.2544H48.7826L49.3169 23.64H52.2551L46.7959 10.2173L46.8126 10.234Z" fill="#989898"/>
<path d="M70.8032 10.5015L71.1537 10.5515C71.8382 10.6016 72.456 10.7686 73.0737 11.019L72.7565 13.7069C71.8216 13.1893 70.8366 13.0391 69.8182 13.1893C68.5827 13.373 67.5644 14.141 67.0469 15.2762C66.5126 16.4616 66.5292 17.7971 67.0802 18.9658C67.6311 20.1511 68.7163 20.8857 70.0185 21.0026C71.0536 21.1027 72.0554 20.8857 73.007 20.4516L73.3575 23.1562C72.4894 23.4901 71.6379 23.6404 70.7698 23.6905C70.5695 23.7405 70.3524 23.7238 70.1521 23.6905C67.5477 23.607 65.4107 22.238 64.409 19.8172C63.9583 18.7321 63.8581 17.6135 63.9082 16.4449C63.9416 16.3447 63.9582 16.2445 63.9582 16.1444C64.1586 14.6084 64.8264 13.1893 65.9784 12.1376C67.0468 11.1526 68.4158 10.6851 69.8516 10.5515C69.9351 10.5015 70.0352 10.5015 70.1521 10.5182H70.8032V10.5015Z" fill="#989898"/>
<path d="M11.7188 10.1336H11.4861C11.5526 10.0505 11.6523 10.0505 11.7188 10.1336Z" fill="#989898"/>
<path d="M22.6885 23.39L22.7887 23.6905L11.4362 10.1509L11.6698 10.251C15.3427 14.6418 19.0156 19.0159 22.6885 23.4067" fill="#989898"/>
<path d="M22.7886 17.48L16.6282 10.1509L16.8619 10.2344C18.7985 12.5549 20.7518 14.8588 22.6884 17.1794L22.7886 17.4633V17.48Z" fill="#989898"/>
<path d="M34.6754 21.0526L34.6921 23.657H27.964V10.6851H30.5851V21.0526H34.6754Z" fill="#989898"/>
<path d="M61.5542 23.657H61.1035H54.8094V10.6851H57.4139V21.0526H61.5375L61.5542 23.657Z" fill="#989898"/>
<path d="M79.6683 27.3629C79.7851 27.3128 79.8686 27.4798 79.8853 27.5966C79.902 27.63 79.9521 27.6801 79.9688 27.7135C80.119 27.6801 80.2192 27.797 80.1858 27.9472L80.3027 28.0641C80.4362 28.0474 80.5197 28.1643 80.5865 28.398L81.0873 28.9322C81.2209 28.8154 81.2876 28.9322 81.1875 29.0491C81.2375 29.0992 81.3043 29.2661 81.3878 29.216C81.5213 29.1326 81.6215 28.9823 81.7217 28.8821C81.7718 28.7486 81.8219 28.5983 81.9722 28.5816L82.1391 28.398C82.1224 28.231 82.1724 28.1476 82.306 28.1476C82.3895 28.1142 82.4563 28.0474 82.5064 27.9973C82.5231 27.8304 82.5731 27.797 82.7401 27.7636L84.059 26.2944H84.5097V33.1894C84.059 33.2395 83.5582 33.2395 83.1074 33.1894V29.7169C83.1074 29.5499 83.0907 29.4999 83.024 29.5666L81.3878 31.2695L81.0205 30.9022C80.9037 31.0024 80.7033 30.7854 80.7868 30.6685L80.553 30.4181C80.3861 30.4181 80.3527 30.4014 80.3694 30.2344C80.1524 30.0174 79.9855 29.767 79.6683 29.5332V33.2061C79.2843 33.2395 78.917 33.2562 78.533 33.2395H78.4161C78.3828 33.3397 78.2825 33.2896 78.2324 33.2395V26.3111H78.6999L79.6516 27.3796L79.6683 27.3629Z" fill="#989898"/>
<path d="M57.297 26.2945L60.0685 29.4999C60.2187 29.5667 60.4024 29.6669 60.3857 29.8338L60.5024 29.9674C60.6026 29.9674 60.6694 29.9507 60.7028 29.8505V26.428H62.1052V33.3731C61.9883 33.4065 61.8047 33.4232 61.7045 33.3731L60.5191 32.0876C60.4023 32.0542 60.2521 31.9374 60.2688 31.7871L59.5008 30.9357C59.3505 31.0025 59.267 30.7854 59.2503 30.6519C59.2169 30.6352 59.1669 30.5684 59.1335 30.535C58.9666 30.535 58.8831 30.4348 58.8831 30.2345L58.3321 29.6335C58.3321 29.6335 58.2654 29.7169 58.2821 29.7503C58.3489 29.934 58.3489 30.0508 58.2821 30.1176C58.2821 30.1176 58.2821 30.151 58.2988 30.1677C58.2654 31.1861 58.2654 32.2045 58.2821 33.2229L57.2636 33.2563C57.1634 33.3064 57.0633 33.3064 56.9965 33.2563C56.9632 33.2396 56.9131 33.2396 56.9131 33.1394V26.2778C57.03 26.1442 57.1802 26.1776 57.3137 26.2778" fill="#989898"/>
<path d="M93.3746 26.3113L96.6636 30.1345C96.6636 30.1345 96.7638 30.0176 96.7638 29.9508V26.4115H98.1495V33.3399C98.0493 33.39 97.8155 33.4234 97.7487 33.3399L96.4633 31.9542L96.3964 31.8874C96.3463 31.7539 96.2462 31.6871 96.1628 31.6036C95.929 31.6036 95.879 31.5035 95.8623 31.2864L94.3764 29.6169C94.2762 29.667 94.3095 29.7672 94.3095 29.834C94.393 30.0009 94.393 30.1178 94.3095 30.1846V33.2397H93.1576C93.0574 33.2898 92.974 33.2898 92.9072 33.2564V26.2612C93.0408 26.2279 93.2078 26.2112 93.3413 26.2946" fill="#989898"/>
<path d="M22.7886 17.4132V17.48L16.6282 10.1509H22.7886C22.7886 10.1509 22.8387 10.1843 22.7886 10.201V17.2295C22.9055 17.2629 22.8888 17.3464 22.7886 17.4132Z" fill="#989898"/>
<path d="M22.5716 29.3665L22.4213 30.0009C22.4547 30.1344 22.4213 30.268 22.3211 30.3682L22.0206 31.253C22.054 31.3699 22.0373 31.4867 21.9037 31.5034C21.837 31.6537 21.7536 31.8373 21.6534 31.9709C20.6517 33.1729 18.7484 33.0894 17.1958 32.8557C16.4278 32.6721 15.7434 32.3882 15.0589 32.021L13.1056 30.9859C13.6231 30.4016 14.1574 29.884 14.7584 29.4666C15.0923 29.2329 15.4595 29.1828 15.8602 29.3498L17.7634 30.101C18.8152 30.5184 19.9671 30.6353 21.0523 30.268C21.6366 30.0677 22.054 29.6336 22.5382 29.2997C22.5549 29.3331 22.5549 29.3832 22.5716 29.4165" fill="#989898"/>
<path d="M11.1356 3.22206C11.6699 3.22206 12.204 3.23875 12.7383 3.27214C12.8718 3.27214 13.0054 3.32223 13.1389 3.27214C13.2558 3.27214 13.3559 3.27214 13.4394 3.32223H13.74C13.8569 3.32223 13.957 3.32223 14.0405 3.37231C15.71 3.55595 17.3461 3.92324 18.9488 4.45748C18.9989 4.34062 19.0657 4.42409 19.1325 4.50757L20.4013 4.99172L19.4497 5.94333C17.9638 5.3924 16.5281 4.99172 14.9921 4.7079C12.0037 4.12358 8.18056 4.37401 5.34243 5.29223C5.27565 5.40909 5.10866 5.47587 4.9918 5.40909C4.55773 5.54265 4.12371 5.6929 3.68964 5.82646C3.68964 5.90994 3.62285 5.96002 3.57277 5.87655C3.52268 5.87655 3.42252 5.92663 3.37244 5.89324L2.47095 4.94163C3.23891 4.65782 3.9401 4.3907 4.65798 4.17367C4.67467 4.09019 4.77482 4.0568 4.8416 4.12358C5.74312 3.87316 6.64464 3.68951 7.54617 3.50587C7.61295 3.42239 7.66301 3.35562 7.72979 3.47248C8.08038 3.4057 8.431 3.35562 8.79829 3.33892L9.09878 3.28884H9.31583C9.31583 3.28884 9.51612 3.20536 9.68307 3.23875L10.3342 3.20536C10.5178 3.17197 10.6848 3.15528 10.8684 3.17197C10.9519 3.15528 11.0688 3.17197 11.1522 3.17197" fill="#989898"/>
<path d="M18.6149 35.8776L17.7635 36.5287C17.7635 36.6455 17.6466 36.729 17.5297 36.6789C17.3795 36.7791 17.1291 36.8459 17.0122 36.9961L16.7618 37.113C15.877 37.5137 14.9587 37.9644 14.0071 38.1147C13.2559 38.0479 12.5714 37.7975 11.937 37.3801C11.1857 36.9126 10.5346 36.3617 9.95027 35.6939L8.11377 33.6071L9.48277 32.9559C9.83336 32.789 10.2006 32.8224 10.5178 33.0728L12.1707 34.3082C13.2058 35.0762 14.8585 36.2615 16.0606 36.2782C16.8452 36.2782 17.5799 36.0779 18.3312 35.8776C18.448 35.8442 18.5148 35.8275 18.6317 35.8776" fill="#989898"/>
<path d="M20.9856 33.2233L20.3178 34.1582C20.2344 34.2584 20.1508 34.3251 20.0507 34.3752C18.7986 35.6774 16.5114 36.0614 14.8586 35.3769C14.1073 35.0764 13.4395 34.6924 12.8051 34.1749L10.7516 32.5221C11.4027 31.9545 12.0872 31.2533 12.8719 31.6373L14.5914 32.4052C15.8268 32.9562 17.4629 33.6574 18.7651 33.5906C19.4162 33.5572 20.034 33.4403 20.6684 33.2734C20.7852 33.24 20.8854 33.1899 20.9856 33.2233Z" fill="#989898"/>
<path d="M51.2034 31.7038C51.337 31.6537 51.4204 31.7038 51.4538 31.8541C51.7042 31.9876 52.0047 31.9542 52.2885 31.8541C52.3553 31.7873 52.4388 31.7539 52.539 31.7372L52.7059 31.5703C52.6892 31.4868 52.7394 31.4033 52.8729 31.3365C52.9564 31.1696 52.9731 30.9859 52.9731 30.7689V26.4282H54.342V30.9692C54.342 31.5703 54.125 32.0711 53.7911 32.5052C53.7577 32.6721 53.7076 32.7222 53.6074 32.6888C53.2234 33.0227 52.7894 33.2231 52.3052 33.2898C52.0214 33.3399 51.721 33.3399 51.4038 33.2898C51.2869 33.2398 51.1199 33.2064 51.0197 33.2231L50.7693 33.1062L50.3185 32.8391C50.185 32.9225 49.9513 32.7222 50.018 32.572C49.6341 32.2214 49.4003 31.587 49.4003 31.0193C49.3836 29.4834 49.4004 27.9475 49.4171 26.4282H50.7526V30.9025C50.7526 31.2364 50.9196 31.5536 51.17 31.7038" fill="#989898"/>
<path d="M73.3075 29.5167L73.9085 31.1862H72.6898L73.3075 29.5167ZM75.9119 32.3882C76.0121 32.3214 75.962 32.2212 75.795 32.1044L75.3777 31.086C75.4945 31.0192 75.4611 30.9357 75.2775 30.869L74.1423 28.0809C74.1756 27.964 74.0754 27.6802 73.9585 27.5968C73.9585 27.5634 73.9252 27.5133 73.9085 27.4799C73.9753 27.2629 73.9419 27.1794 73.8083 27.2295L73.3743 26.1777C73.3743 26.1777 73.2073 26.1443 73.1906 26.1777L72.9903 26.6785C72.8067 26.6785 72.7899 26.9457 72.8066 27.0959C72.8066 27.1126 72.8066 27.146 72.8066 27.1627C72.6563 27.1627 72.623 27.1961 72.7565 27.2795L72.5896 27.6802L71.9385 29.2829L71.8049 29.6168L71.1205 31.2529L71.0036 31.6035C70.82 31.7371 70.7865 31.8373 70.87 31.904L70.5028 32.839C70.3191 32.839 70.2523 33.1562 70.4192 33.2396H70.5028C70.9201 33.2229 71.3542 33.2062 71.7549 33.2563C71.8217 33.2563 71.9385 33.2229 71.9552 33.1562C71.9552 33.1061 71.9719 33.0059 72.0387 32.9892C72.1055 32.9558 72.1054 32.8723 72.1054 32.7889C72.072 32.7388 72.1389 32.6219 72.1556 32.5551C72.9068 32.5218 73.6581 32.5051 74.426 32.5218L74.6431 33.1395C74.6431 33.1395 74.6431 33.1562 74.6431 33.1729C74.6765 33.3231 74.7099 33.3231 74.8768 33.2396H76.2792L75.9286 32.3882H75.9119Z" fill="#989898"/>
<path d="M38.9826 29.5168L39.5836 31.203H38.3649L38.9826 29.5168ZM41.9043 33.1563L41.7205 32.6722C41.7873 32.5553 41.7206 32.4217 41.5536 32.2715L39.1328 26.2947C39.0995 26.1945 39.0827 26.1611 38.9993 26.1611C38.9325 26.1611 38.8992 26.2112 38.8658 26.2947L38.6822 26.7121C38.5653 26.7955 38.5152 26.8957 38.5653 27.0126L38.1479 28.0644C38.0477 28.081 37.9976 28.1311 38.0978 28.1812L36.4283 32.2715L36.2614 32.4217C36.228 32.6054 36.1778 32.8057 36.1111 32.9894C36.1111 33.0561 36.1111 33.1229 36.061 33.2398H36.2447C36.7121 33.2398 37.1795 33.2398 37.647 33.2231L37.6804 33.1563C37.7305 32.9894 37.7973 32.7389 37.8974 32.572C38.632 32.5386 39.3833 32.5219 40.1179 32.5386C40.2014 32.6221 40.168 32.7389 40.2013 32.8224C40.2347 32.9226 40.3683 33.0227 40.3349 33.1396L40.3683 33.2064C40.8691 33.2231 41.3867 33.2398 41.8875 33.2565C41.9209 33.2565 41.9543 33.2064 41.9376 33.1563" fill="#989898"/>
<path d="M90.4864 26.4116C90.5031 26.7622 90.5199 27.1128 90.5366 27.4801V27.647L90.4864 27.7806C89.8186 27.7973 89.1341 27.7973 88.4663 27.7806V29.1329L90.2861 29.0995V30.5019H88.4663V31.8542H90.62L90.6533 32.0712C90.6533 32.4552 90.6367 32.8392 90.6033 33.2232L90.4697 33.2565C90.4697 33.2565 90.4197 33.2565 90.4197 33.2232H87.0807C87.0473 30.9526 87.064 28.6821 87.0974 26.4116H90.4697H90.4864Z" fill="#989898"/>
<path d="M18.4146 7.64654C18.3812 7.74671 18.3143 7.7968 18.2476 7.83019C17.513 7.59646 16.7785 7.31264 15.9938 7.19578L15.6766 7.129C15.4262 6.99544 15.0922 7.01214 14.8084 6.92866L14.4912 6.89527C14.1907 6.8118 13.8735 6.77841 13.5563 6.76171L13.2558 6.71163H12.9053L12.4879 6.66154C11.7533 6.62815 11.0188 6.62815 10.3009 6.66154L10.0003 6.71163L8.99862 6.77841C8.91514 6.82849 8.78159 6.89527 8.69812 6.82849C8.04702 6.91197 7.37925 6.99544 6.74484 7.19578C6.67806 7.31264 6.61121 7.32934 6.56112 7.24586C6.21053 7.36273 5.82662 7.41281 5.49272 7.54637C5.40925 7.66324 5.309 7.81349 5.20884 7.66324C5.02519 7.73002 4.84159 7.76341 4.62455 7.84688L3.80652 7.02883C8.64805 5.02544 14.1239 5.00874 18.9989 7.02883L18.3979 7.66324L18.4146 7.64654Z" fill="#989898"/>
<path d="M68.9167 27.7971C68.3323 27.7805 67.7479 27.7971 67.1803 27.8138V33.1896L66.98 33.2731C66.5793 33.2397 66.1787 33.2063 65.778 33.1896V27.8138C65.778 27.8138 65.7446 27.8639 65.7279 27.7805C65.1769 27.7805 64.6427 27.7805 64.0918 27.7471V26.3948H68.8665L68.8999 27.7805L68.9167 27.7971Z" fill="#989898"/>
<path d="M100.353 26.4117H104.944C104.978 26.8458 104.994 27.3132 104.978 27.7807H103.275L103.292 28.0144C103.241 29.6672 103.241 31.3868 103.292 33.0396C103.292 33.0897 103.258 33.1564 103.292 33.2399H102.24C102.123 33.3067 102.039 33.3067 101.973 33.2399C101.939 33.2232 101.889 33.2232 101.889 33.1231V27.764H100.203C100.203 27.764 100.203 26.3449 100.253 26.3115C100.27 26.3115 100.353 26.3616 100.37 26.4117" fill="#989898"/>
<path d="M12.4378 38.4652C12.2875 38.6154 12.2207 38.8158 12.1206 38.9827C12.1039 39.133 12.0371 39.2832 11.9035 39.35L11.6364 39.8008C11.6698 39.8843 11.6364 40.0178 11.5363 40.0011C11.5029 40.0679 11.4194 40.1347 11.4194 40.2348C11.3526 40.2182 11.3192 40.1681 11.2691 40.1013L10.2674 38.3817L9.64973 38.2815C7.88007 37.5804 6.82831 35.6771 6.22729 33.8574C6.76153 33.607 7.32914 33.3232 7.66303 33.6571L8.44765 34.4751L9.76661 36.0611C10.568 36.9126 11.4695 37.6304 12.3877 38.3149C12.3877 38.365 12.3877 38.4485 12.421 38.4819" fill="#989898"/>
<path d="M45.3435 33.2064C45.3435 33.2064 45.2934 33.2564 45.26 33.2564C45.0596 33.2564 43.5738 33.2898 43.4903 33.2564C43.4903 32.9059 43.4904 32.5386 43.457 32.188C43.457 32.1546 43.457 32.1212 43.457 32.0711C43.4403 31.9542 43.457 31.8875 43.5404 31.8708H44.876C45.2266 31.8708 45.477 31.5536 45.477 31.1863V26.4282H46.8794L46.846 31.5703C46.846 32.4718 46.1783 33.1563 45.3435 33.2231" fill="#989898"/>
<path d="M38.4818 14.5583H36.4785L37.2297 10.6851H39.8675L38.4818 14.5583Z" fill="#989898"/>
<path d="M8.11364 2.90485C8.11364 2.90485 7.99682 2.92154 7.94673 2.83807C7.7297 2.68781 7.49596 2.47078 7.41248 2.20366C7.29562 2.22035 7.29564 2.0534 7.32903 1.98662C7.32903 1.80298 7.32901 1.56925 7.41248 1.4023C7.31231 1.33552 7.34575 1.25205 7.46262 1.28544C7.49601 1.21866 7.56278 1.16857 7.56278 1.0851C7.64626 0.95154 7.74636 0.767895 7.91331 0.801285C8.39746 0.567556 8.96515 0.651031 9.33244 1.05171C9.68304 1.45239 9.7331 2.03671 9.4159 2.48747C9.13208 2.90485 8.58119 3.07179 8.09703 2.90485" fill="#989898"/>
<path d="M15.4762 1.60282V2.03689C15.3427 2.58782 14.8919 2.97181 14.3076 2.97181C13.79 2.97181 13.3059 2.55444 13.2058 2.03689C13.0722 1.71969 13.1056 1.48596 13.2892 1.33571C13.5062 0.868248 14.0071 0.601129 14.5246 0.684604C15.0088 0.751383 15.3594 1.13537 15.4762 1.60282Z" fill="#989898"/>
<path d="M17.7467 2.08679C17.7467 2.08679 17.8303 2.22035 17.8136 2.32052C17.7969 2.53756 17.7467 2.77128 17.6299 2.95493C17.68 3.0384 17.5965 3.10518 17.4128 3.18866C17.0288 3.43908 16.4779 3.47247 16.1607 3.13857C16.0438 3.18866 15.9771 3.07179 15.9771 2.95493L15.8602 2.67111L15.8102 2.30383L15.9271 1.88645C15.9271 1.75289 15.9771 1.63603 16.1107 1.65272C16.3778 1.45239 16.7116 1.33552 17.0956 1.43569C17.3627 1.51916 17.6299 1.75289 17.7467 2.0534" fill="#989898"/>
<path d="M5.85988 1.43606C5.96005 1.40267 6.0769 1.35259 6.16038 1.43606C6.54436 1.43606 6.86163 1.78666 6.9618 2.10386C7.07867 2.53793 6.92839 2.93861 6.62788 3.17234C6.06026 3.6064 5.30894 3.22242 5.22546 3.02208C5.0919 3.07217 5.02515 2.92191 5.04184 2.60471C5.04184 2.42106 4.99171 2.18733 5.09188 2.03708C4.94162 1.87013 5.19212 1.6364 5.37576 1.60301C5.54271 1.60301 5.67624 1.43606 5.85988 1.43606Z" fill="#989898"/>
<path d="M19.3496 2.62123C19.4831 2.62123 19.5332 2.7047 19.5332 2.88835C19.6501 3.25563 19.5666 3.63962 19.2494 3.83996C18.9489 4.0403 18.5315 4.00691 18.2811 3.73979C18.0473 3.48936 17.9973 3.10538 18.1976 2.80487C18.1308 2.63792 18.1642 2.57114 18.3145 2.63792C18.6484 2.3875 19.0324 2.42089 19.3496 2.63792" fill="#989898"/>
<path d="M4.75817 3.03891C4.77487 3.13908 4.77487 3.25594 4.75817 3.35611C4.69139 3.57314 4.59116 3.77348 4.37412 3.87365C4.40751 4.02391 4.34072 4.0573 4.15708 3.95713C3.72301 4.02391 3.30564 3.74009 3.22217 3.32272L3.25559 3.00552C3.38915 2.65492 3.67302 2.42119 4.04031 2.45458C4.3909 2.47128 4.62462 2.7217 4.75817 3.03891Z" fill="#989898"/>
<path d="M2.83814 3.50622C2.93831 3.53961 2.9717 3.573 2.93831 3.63978C3.05517 3.89021 3.0385 4.15733 2.85485 4.37436C2.68791 4.558 2.4041 4.62478 2.13699 4.49123C1.93665 4.40775 1.80307 4.17402 1.80307 3.9236C1.71959 3.84012 1.71954 3.75665 1.8531 3.73995C1.90318 3.53961 2.08691 3.40605 2.25386 3.35597C2.4542 3.28919 2.72128 3.40605 2.83814 3.48953" fill="#989898"/>
<path d="M20.301 4.57478C20.1675 4.57478 19.9671 4.54139 19.9671 4.37444C19.9504 4.30766 19.8836 4.19079 19.8335 4.1574C19.8001 4.04054 19.8001 3.90698 19.8335 3.79012C19.9504 3.43952 20.2843 3.27257 20.6015 3.37274C20.9187 3.47291 21.0857 3.79012 21.0022 4.10732C20.9187 4.42452 20.6349 4.57478 20.2843 4.57478" fill="#989898"/>
<path d="M90.4531 33.2229L87.0641 33.2563V26.4615C87.0641 26.4615 87.0974 26.3947 87.1308 26.4114V33.2062L90.4531 33.2229Z" fill="#989898"/>
<path d="M93.3746 26.3112C93.2912 26.2611 93.1075 26.2778 92.974 26.3112V33.2396H94.3263L93.1743 33.273C93.1743 33.273 92.9907 33.4566 92.924 33.3732V26.2444C93.0909 26.1944 93.2912 26.1944 93.3746 26.3112Z" fill="#989898"/>
<path d="M67.1803 33.2066C67.1803 33.2066 67.0468 33.3235 66.9967 33.3569C66.9466 33.3903 66.8631 33.2734 66.7797 33.2734H65.778V27.8308H64.2254C64.2254 27.8308 64.1085 27.8308 64.1085 27.7808H65.828V33.2233H67.1803V33.2066Z" fill="#989898"/>
<path d="M103.275 33.0563C103.275 33.0563 103.225 32.9728 103.225 32.906V28.1146C103.225 28.1146 103.258 28.0144 103.275 28.0144V33.0396V33.0563Z" fill="#989898"/>
<path d="M49.4004 31.0025L49.3502 26.4615C49.3502 26.4615 49.3837 26.3947 49.4171 26.4114V31.0025H49.4004Z" fill="#989898"/>
<path d="M56.9797 33.2563L58.2486 33.2062V30.3013C58.2486 30.3013 58.2653 30.2011 58.2987 30.1677V33.2563L57.2469 33.273L57.0799 33.3565C57.0799 33.3565 56.9964 33.273 56.963 33.2396" fill="#989898"/>
<path d="M90.2528 30.485L88.4832 30.5017L90.3197 30.5351L90.3029 29.0994L90.2528 30.485Z" fill="#989898"/>
<path d="M103.258 27.7972L104.944 27.7638V26.4115C104.944 26.4115 104.944 26.328 105.011 26.3447V27.8139L103.275 27.7805L103.258 27.7972Z" fill="#989898"/>
<path d="M100.353 26.4115C100.353 26.4115 100.253 26.3781 100.22 26.4115V27.7638H101.889L100.153 27.8139V26.5117C100.153 26.3948 100.203 26.2947 100.236 26.2112C100.337 26.2613 100.336 26.328 100.353 26.3948" fill="#989898"/>
<path d="M45.3434 33.2061C45.3101 33.3397 45.2432 33.2896 45.1597 33.2896H43.4569V32.1877C43.4903 32.2378 43.5069 32.2712 43.5069 32.3213V33.2061H45.3267H45.3434Z" fill="#989898"/>
<path d="M74.426 32.5217L72.1555 32.5551C72.1555 32.5551 72.2056 32.4883 72.2724 32.4883L74.426 32.5217Z" fill="#989898"/>
<path d="M40.0845 32.5217L37.864 32.5551C37.864 32.5551 37.9475 32.4883 37.9976 32.4883L40.0845 32.5217Z" fill="#989898"/>
<path d="M88.4664 27.7806H90.3196C90.4365 27.7639 90.5033 27.7305 90.5367 27.6304C90.5367 27.6805 90.5534 27.7305 90.5367 27.814L88.4664 27.7806Z" fill="#989898"/>
<path d="M5.39253 1.60278L5.10864 2.03685C4.95839 1.93668 4.87496 1.80312 4.94174 1.61948H5.39253V1.60278Z" fill="#989898"/>
<path d="M76.2624 33.2398L74.8768 33.2732C74.8768 33.2732 74.7767 33.34 74.76 33.3567C74.7099 33.3901 74.6932 33.3567 74.6765 33.3233C74.6431 33.2732 74.6765 33.173 74.6598 33.1396L74.7265 33.2231C74.7265 33.2231 74.8434 33.2231 74.8934 33.2231L76.2959 33.2565L76.2624 33.2398Z" fill="#989898"/>
<path d="M68.9168 27.7973H67.1804C67.1804 27.7973 67.1805 27.7639 67.2473 27.7639L68.9335 27.7973H68.9168Z" fill="#989898"/>
<path d="M12.7383 3.27201H11.2524C11.2524 3.27201 11.1523 3.23862 11.1356 3.22192H12.6214C12.6214 3.22192 12.7383 3.22192 12.7383 3.27201Z" fill="#989898"/>
<path d="M41.8542 33.2564H40.3183C40.3183 33.2564 40.3016 33.1562 40.3183 33.1228C40.3517 33.1562 40.4185 33.2063 40.4852 33.2063H41.7374C41.7374 33.2063 41.8375 33.223 41.8542 33.2564Z" fill="#989898"/>
<path d="M36.0944 32.9725C36.061 32.839 36.0944 32.7388 36.1445 32.5885C36.1445 32.5385 36.1111 32.4383 36.1111 32.3548C36.2279 32.3214 36.3281 32.3047 36.4116 32.2546C36.3114 32.4884 36.2446 32.7555 36.0944 32.9725Z" fill="#989898"/>
<path d="M36.228 33.2565C36.228 33.2565 36.2948 33.2064 36.3449 33.2064H37.4801C37.4801 33.2064 37.6137 33.173 37.6471 33.1396C37.6471 33.1563 37.6471 33.2398 37.6471 33.2732H36.2447L36.228 33.2565Z" fill="#989898"/>
<path d="M70.5026 32.8392C70.4526 32.9727 70.3857 33.1063 70.4191 33.2399L70.2689 33.3233C70.2522 33.1564 70.2188 33.0061 70.2689 32.8392C70.3023 32.7557 70.4526 32.7891 70.5026 32.8392Z" fill="#989898"/>
<path d="M5.22553 3.02211C5.15875 3.12228 4.9751 3.20575 4.90833 3.10558C4.9751 2.92194 5.04191 2.77169 5.04191 2.60474L5.22553 3.02211Z" fill="#989898"/>
<path d="M84.5097 33.2065C84.5097 33.2065 84.5098 33.2733 84.4597 33.2733H83.1407C83.1407 33.2733 83.0907 33.2232 83.0907 33.2065H84.493H84.5097Z" fill="#989898"/>
<path d="M90.4865 33.2564C90.4865 33.2564 90.62 33.1395 90.62 33.0227V32.1879C90.62 32.1879 90.6367 32.0877 90.6534 32.071V33.2564C90.6534 33.2564 90.5365 33.2564 90.4865 33.2564Z" fill="#989898"/>
<path d="M13.2058 2.03688C13.089 1.88663 13.2058 1.71968 13.0055 1.6529C13.0055 1.50264 13.1724 1.36908 13.2893 1.33569C13.1891 1.55273 13.2058 1.80315 13.2058 2.03688Z" fill="#989898"/>
<path d="M5.50923 7.52963C5.47584 7.69658 5.42584 7.86353 5.17542 7.89692C5.17542 7.81345 5.20874 7.72997 5.20874 7.6298L5.49262 7.51294L5.50923 7.52963Z" fill="#989898"/>
<path d="M72.9903 26.6955C72.9402 26.8291 72.9235 27.0127 72.8066 27.1129C72.7064 26.996 72.6897 26.779 72.8233 26.6455C72.8567 26.6121 72.9736 26.6788 72.9903 26.6955Z" fill="#989898"/>
<path d="M71.7382 33.2566H70.4861C70.4861 33.2566 70.5529 33.2065 70.603 33.2065H71.6213C71.6213 33.2065 71.7215 33.2232 71.7382 33.2566Z" fill="#989898"/>
<path d="M50.3186 32.8223C50.3186 32.8223 50.185 32.9225 50.1183 32.9058C50.0181 32.8891 49.8679 32.6553 49.9346 32.622L50.0181 32.5552L50.3186 32.8223Z" fill="#989898"/>
<path d="M79.6516 33.2065C79.6516 33.2065 79.6516 33.2733 79.6182 33.2733L78.5497 33.2399L79.6683 33.2065H79.6516Z" fill="#989898"/>
<path d="M81.0205 30.9027C81.0205 30.9027 80.9704 31.0028 80.9203 31.0195C80.8703 31.0195 80.6365 30.8693 80.6699 30.7691C80.6699 30.7357 80.7367 30.7023 80.77 30.6689L81.0038 30.9027H81.0205Z" fill="#989898"/>
<path d="M81.2041 29.0658L81.104 28.949C81.104 28.949 81.2041 28.8488 81.2041 28.7987C81.2041 28.7486 81.1707 28.6818 81.0706 28.6318C81.1039 28.5817 81.1875 28.5817 81.2209 28.5984C81.2209 28.5984 81.3544 28.9323 81.3544 28.949C81.3211 28.9823 81.2375 29.0324 81.2041 29.0658Z" fill="#989898"/>
<path d="M60.369 29.8341C60.2354 29.7674 60.1519 29.6004 60.0518 29.5002C60.1686 29.5002 60.2855 29.5169 60.369 29.6004C60.4357 29.6672 60.4024 29.7841 60.369 29.8508" fill="#989898"/>
<path d="M96.1795 31.6033C96.0626 31.62 95.9625 31.6701 95.829 31.62L95.8957 31.2861L96.1795 31.6033Z" fill="#989898"/>
<path d="M41.7206 32.6722L41.5537 32.2715C41.7207 32.3383 41.7874 32.4718 41.9377 32.6054C41.8542 32.6555 41.8041 32.6555 41.7373 32.6722" fill="#989898"/>
<path d="M103.275 33.2566L102.223 33.29L102.056 33.3735C102.056 33.3735 101.973 33.29 101.939 33.2566H103.258H103.275Z" fill="#989898"/>
<path d="M80.1858 27.9308C80.1858 27.9308 80.0355 27.7973 79.9688 27.6971L80.1023 27.5969C80.1023 27.5969 80.2358 27.6804 80.2525 27.7305C80.2525 27.7973 80.2526 27.864 80.1858 27.9308Z" fill="#989898"/>
<path d="M90.5366 27.48C90.5366 27.48 90.4865 27.4132 90.4865 27.3631V26.4282C90.4865 26.4282 90.5532 26.4282 90.5532 26.4783V27.4967L90.5366 27.48Z" fill="#989898"/>
<path d="M12.3042 2.48738C12.3042 2.48738 12.3877 2.4206 12.4211 2.38721C12.4879 2.4206 12.588 2.43729 12.6047 2.48738C12.6214 2.52077 12.6047 2.67102 12.5547 2.67102C12.4211 2.67102 12.3543 2.57085 12.3042 2.48738Z" fill="#989898"/>
<path d="M82.3227 28.1647C82.3227 28.2815 82.2393 28.3316 82.1558 28.4151C82.1558 28.3316 82.1557 28.2314 81.9888 28.1647C82.0055 28.0979 82.1224 28.0478 82.1892 28.0812C82.2226 28.0979 82.2726 28.1313 82.306 28.1647" fill="#989898"/>
<path d="M22.7887 24.041V23.8907V23.7071C22.8221 23.657 22.9222 23.6236 22.9556 23.657C23.0558 23.8072 22.9557 24.0076 22.8054 24.041" fill="#989898"/>
<path d="M52.3219 33.2566C52.3219 33.2566 52.2718 33.3568 52.2384 33.3568L52.1383 33.3234C51.8878 33.2566 51.654 33.3568 51.4203 33.2566H52.3219Z" fill="#989898"/>
<path d="M59.5008 30.936C59.4006 31.0362 59.3171 31.0028 59.267 30.936C59.2002 30.8525 59.2002 30.719 59.2503 30.6355C59.3505 30.6856 59.4173 30.8358 59.5008 30.9193" fill="#989898"/>
<path d="M80.6031 28.3985L80.3192 28.0646C80.3192 28.0646 80.4528 27.9644 80.5697 28.0145C80.4361 28.1648 80.6532 28.2482 80.6031 28.4152" fill="#989898"/>
<path d="M4.15698 3.95677C4.15698 3.95677 4.30723 3.90668 4.35731 3.87329C4.45748 3.94007 4.50758 4.02355 4.47419 4.1571C4.30724 4.12372 4.25715 4.02355 4.15698 3.97346" fill="#989898"/>
<path d="M57.297 26.2945C57.1802 26.2778 57.0466 26.2778 56.9131 26.2945C56.9131 26.211 57.0299 26.1109 57.0967 26.1276C57.1969 26.1276 57.247 26.2277 57.297 26.2945Z" fill="#989898"/>
<path d="M59.1335 30.5351C59.0333 30.5351 58.9498 30.5852 58.8496 30.5351L58.883 30.2346L59.1335 30.5351Z" fill="#989898"/>
<path d="M60.5191 32.0712C60.4356 32.1046 60.3188 32.0712 60.2687 32.0044C60.2353 31.9543 60.2353 31.8708 60.2687 31.7874C60.3522 31.8875 60.4857 31.9376 60.5191 32.0879" fill="#989898"/>
<path d="M7.94682 0.801408L7.59619 1.08522C7.61289 0.985052 7.62958 0.901577 7.69636 0.818103C7.74644 0.751323 7.84665 0.717933 7.94682 0.818103" fill="#989898"/>
<path d="M74.1422 28.0642L73.9585 27.5801C73.9585 27.5801 74.0587 27.5801 74.0754 27.6302L74.1255 27.7971L74.209 27.9808C74.209 27.9808 74.209 28.0642 74.1422 28.0809" fill="#989898"/>
<path d="M58.2821 30.1346C58.2821 30.0178 58.2487 29.8842 58.2821 29.7673C58.3154 29.9343 58.499 29.9677 58.449 30.0845C58.3989 30.168 58.3488 30.1847 58.2821 30.1346Z" fill="#989898"/>
<path d="M16.1265 1.66925C16.0766 1.75235 16.0267 1.85207 15.9436 1.90194C15.9602 1.85207 15.8772 1.71911 15.9104 1.66925C15.9603 1.60276 16.0766 1.60276 16.1265 1.66925Z" fill="#989898"/>
<path d="M75.3776 31.0692L75.2775 30.8354C75.2775 30.8354 75.4277 30.8688 75.5278 30.8855C75.6447 30.9189 75.5946 31.0191 75.5445 31.0525C75.4778 31.1026 75.4444 31.1026 75.3776 31.0525" fill="#989898"/>
<path d="M60.4858 29.9674C60.5693 29.9508 60.6361 29.9007 60.6862 29.8506C60.6862 29.9508 60.7529 30.0676 60.6695 30.2012C60.5526 30.1511 60.5359 30.0342 60.4858 29.9674Z" fill="#989898"/>
<path d="M17.4128 3.20541C17.4629 3.10524 17.5798 3.05515 17.6299 2.97168C17.6633 3.07185 17.7467 3.07185 17.8302 3.15532C17.6466 3.15532 17.5297 3.13863 17.4128 3.2221" fill="#989898"/>
<path d="M20.3012 4.57451C20.201 4.57451 20.1175 4.64129 20.0007 4.57451C19.9506 4.54112 19.9005 4.49104 19.9505 4.39087L20.2845 4.59121L20.3012 4.57451Z" fill="#989898"/>
<path d="M75.9119 32.3882L75.795 32.0876C75.9119 32.1711 76.0287 32.2379 76.179 32.288C76.0621 32.3214 75.9787 32.3214 75.9119 32.3715" fill="#989898"/>
<path d="M18.3144 2.6379C18.3144 2.6379 18.231 2.73807 18.1976 2.80485C18.1976 2.68798 18.0306 2.6379 18.064 2.55442C18.064 2.52103 18.0974 2.47095 18.1642 2.47095C18.1642 2.57112 18.2143 2.6379 18.3144 2.65459" fill="#989898"/>
<path d="M73.9251 27.4803L73.825 27.2298C73.825 27.2298 73.9584 27.1464 74.0753 27.1798C74.0753 27.3133 73.9752 27.3634 73.9418 27.4636" fill="#989898"/>
<path d="M72.7887 27.1793L72.7388 27.2956C72.7388 27.2956 72.5892 27.2956 72.5227 27.2458C72.4729 27.2125 72.5228 27.0463 72.5726 27.0796L72.7721 27.1793H72.7887Z" fill="#989898"/>
<path d="M79.8844 27.5957L79.6683 27.363C79.7514 27.2633 79.8179 27.3131 79.8511 27.363C79.901 27.4461 79.901 27.496 79.8844 27.5791" fill="#989898"/>
<path d="M5.34245 5.34229C5.34245 5.44245 5.27563 5.52593 5.19215 5.52593C5.10868 5.52593 5.00852 5.52593 4.99182 5.45915L5.34245 5.34229Z" fill="#989898"/>
<path d="M7.42844 2.20242C7.42844 2.20242 7.32869 2.2689 7.29545 2.23566C7.2622 2.16917 7.22902 2.11931 7.24564 2.06945C7.24564 2.03621 7.31211 2.00297 7.34536 1.96973C7.42846 2.01959 7.3952 2.11931 7.42844 2.18579" fill="#989898"/>
<path d="M21.4196 32.4883L21.6032 32.1877C21.6032 32.3046 21.6032 32.4215 21.67 32.555C21.5532 32.555 21.503 32.5216 21.4196 32.5049" fill="#989898"/>
<path d="M19.5331 2.88823C19.4663 2.78806 19.3996 2.72128 19.3495 2.62111C19.433 2.53763 19.4997 2.57102 19.6166 2.6545C19.5832 2.68789 19.4997 2.80475 19.5331 2.88823Z" fill="#989898"/>
<path d="M96.3965 31.8873C96.3965 31.8873 96.4633 31.9374 96.48 31.9541C96.4467 31.9207 96.3465 31.904 96.3465 32.0209C96.3465 32.0709 96.2964 32.1377 96.263 32.1377C96.2463 32.1377 96.2129 32.0709 96.2129 32.0542L96.1794 31.9207L96.3965 31.8706V31.8873Z" fill="#989898"/>
<path d="M82.4563 10.4513C82.2393 10.5347 82.0222 10.468 81.7885 10.4847C81.7885 10.468 81.8052 10.4346 81.8553 10.4346H82.4563V10.4513Z" fill="#989898"/>
<path d="M17.5297 36.6784C17.5297 36.6784 17.6627 36.5454 17.7624 36.5288C17.7624 36.5953 17.7956 36.7116 17.7291 36.7449C17.6626 36.7781 17.5795 36.7283 17.5297 36.6784Z" fill="#989898"/>
<path d="M11.9034 39.3502L12.1205 38.9829C12.1539 39.1499 12.0871 39.3502 11.9034 39.3502Z" fill="#989898"/>
<path d="M70.87 31.9205C70.87 31.9205 70.7532 31.8704 70.7031 31.787L71.0036 31.6367L70.87 31.9372V31.9205Z" fill="#989898"/>
<path d="M51.4527 31.8361L51.2035 31.6865C51.2035 31.6865 51.3531 31.5868 51.4029 31.6034C51.4528 31.6201 51.4361 31.7696 51.4527 31.8195" fill="#989898"/>
<path d="M82.739 27.7639L82.5064 27.9966C82.5064 27.9966 82.5064 27.847 82.4897 27.7639H82.739Z" fill="#989898"/>
<path d="M80.552 30.4174C80.552 30.4174 80.4523 30.4341 80.3359 30.4839C80.3027 30.4008 80.3359 30.3011 80.3692 30.2346L80.552 30.4174Z" fill="#989898"/>
<path d="M94.343 30.1848V29.8342C94.4432 29.9344 94.4766 30.0847 94.4599 30.2516L94.343 30.1848Z" fill="#989898"/>
<path d="M70.7865 23.6899C70.6196 23.7734 70.3692 23.7734 70.1688 23.6899H70.7865Z" fill="#989898"/>
<path d="M22.3044 30.3683L22.4047 30.001C22.4047 30.001 22.4881 30.1679 22.4547 30.2514C22.438 30.3015 22.3545 30.3516 22.3044 30.3683Z" fill="#989898"/>
<path d="M12.7038 38.3651C12.7038 38.3651 12.7204 38.4648 12.7038 38.4814C12.6705 38.5313 12.6208 38.5479 12.5875 38.5313C12.5543 38.5146 12.521 38.498 12.4878 38.4648C12.4878 38.4149 12.521 38.3983 12.5542 38.3651C12.5875 38.3484 12.6705 38.3651 12.7038 38.3651Z" fill="#989898"/>
<path d="M83.1574 23.8073C83.0072 23.9242 82.7902 23.8574 82.6066 23.8574C82.7735 23.7572 82.9738 23.824 83.1574 23.8073Z" fill="#989898"/>
<path d="M52.6888 31.5523C52.6888 31.5523 52.5891 31.4858 52.6224 31.4359C52.6889 31.3528 52.772 31.3362 52.8551 31.303C52.8052 31.3861 52.7719 31.4526 52.6888 31.5357" fill="#989898"/>
<path d="M10.0671 1.73624C9.93353 1.56929 10.0003 1.36895 10.0504 1.1853C10.0504 1.36895 10.0504 1.55259 10.0671 1.73624Z" fill="#989898"/>
<path d="M81.9888 28.5984L81.7384 28.8989C81.7384 28.8989 81.7384 28.732 81.7884 28.6652C81.8218 28.5817 81.922 28.565 82.0055 28.5984" fill="#989898"/>
<path d="M20.0841 34.4585V34.375C20.1342 34.2915 20.201 34.1913 20.3179 34.158C20.2177 34.2915 20.1843 34.3583 20.0841 34.4585Z" fill="#989898"/>
<path d="M10.8516 3.2392C10.668 3.28929 10.5011 3.2559 10.3008 3.27259C10.451 3.17242 10.668 3.20581 10.8516 3.2392Z" fill="#989898"/>
<path d="M16.1598 3.15451C16.1598 3.15451 16.0601 3.22099 16.0269 3.20437C15.977 3.18775 15.9271 3.13789 15.9437 3.08802C15.9437 3.0714 15.9936 2.9883 15.9936 2.97168L16.1764 3.15451H16.1598Z" fill="#989898"/>
<path d="M53.6074 32.6711C53.6074 32.6711 53.7238 32.5381 53.7903 32.4883V32.7708C53.7903 32.7708 53.6739 32.721 53.6074 32.6711Z" fill="#989898"/>
<path d="M9.66641 3.30598C9.54955 3.30598 9.43263 3.33937 9.29907 3.33937C9.29907 3.30598 9.29907 3.27259 9.29907 3.20581C9.41594 3.2559 9.53284 3.27259 9.6497 3.30598" fill="#989898"/>
<path d="M38.5487 27.0124C38.5487 27.0124 38.4819 26.8956 38.4485 26.8455L38.6655 26.7119L38.5487 27.0124Z" fill="#989898"/>
<path d="M78.432 33.2564C78.432 33.2564 78.432 33.3727 78.3988 33.3727C78.3655 33.3727 78.3157 33.3229 78.2824 33.3062C78.2492 33.3062 78.2491 33.2564 78.2491 33.2231C78.3156 33.2231 78.3656 33.2231 78.432 33.2564Z" fill="#989898"/>
<path d="M22.8054 10.2004V10.1505C22.8054 10.1505 22.9384 10.0508 22.9882 10.1006C23.0215 10.1505 23.0713 10.2336 22.9882 10.2668C22.955 10.2668 22.8719 10.1671 22.8221 10.2004" fill="#989898"/>
<path d="M21.9038 31.4856L22.0202 31.2363C22.0202 31.2363 22.12 31.3859 22.0867 31.4524C22.0701 31.5023 21.9537 31.4856 21.9038 31.4856Z" fill="#989898"/>
<path d="M83.1236 29.716L83.0239 29.5664V29.4999C83.0239 29.4999 83.1236 29.4501 83.1402 29.4999C83.2067 29.583 83.1236 29.6828 83.1236 29.7326" fill="#989898"/>
<path d="M11.5529 40.0173L11.6526 39.8179C11.6526 39.8179 11.719 39.9176 11.6858 40.0007C11.6692 40.0672 11.636 40.1004 11.5363 40.0173" fill="#989898"/>
<path d="M15.8602 2.68833C15.7934 2.55477 15.7601 2.4713 15.8101 2.32104C15.8936 2.42121 15.8769 2.55477 15.8602 2.68833Z" fill="#989898"/>
<path d="M15.4763 2.03685V1.60278C15.5264 1.76973 15.5264 1.8699 15.4763 2.03685Z" fill="#989898"/>
<path d="M19.1149 4.52367C19.1149 4.52367 18.9986 4.49043 18.9321 4.4738C18.9321 4.42394 18.9321 4.34084 18.9986 4.32422C19.0651 4.35746 19.0817 4.4738 19.0983 4.52367" fill="#989898"/>
<path d="M12.9218 6.69486C12.7882 6.69486 12.6047 6.74495 12.4878 6.64478C12.6214 6.64478 12.7882 6.61139 12.9218 6.69486Z" fill="#989898"/>
<path d="M8.99862 6.76147C8.99862 6.76147 8.89849 6.86164 8.83171 6.87834C8.78162 6.89503 8.69812 6.89503 8.69812 6.81156C8.79829 6.81156 8.88175 6.76147 8.99862 6.76147Z" fill="#989898"/>
<path d="M61.5542 23.6567C61.4373 23.7235 61.2872 23.6567 61.1035 23.6567C61.2538 23.5899 61.404 23.6233 61.5542 23.6567Z" fill="#989898"/>
<path d="M94.7938 23.6566C94.894 23.5564 94.8772 23.4228 94.9273 23.3394C94.9273 23.4562 94.9774 23.5564 94.9273 23.6733C94.8772 23.7066 94.8272 23.6733 94.7938 23.6733" fill="#989898"/>
<path d="M4.80725 4.17319C4.80725 4.17319 4.69093 4.22305 4.62445 4.22305C4.60783 4.15657 4.62443 4.09009 4.70753 4.09009C4.77401 4.09009 4.80725 4.10671 4.80725 4.17319Z" fill="#989898"/>
<path d="M71.1705 10.5514C71.0202 10.5514 70.8867 10.5681 70.8199 10.5013C70.9535 10.4679 71.0703 10.4846 71.1705 10.5514Z" fill="#989898"/>
<path d="M89.1342 16.7115C89.0507 16.6114 89.0674 16.4778 89.084 16.3442C89.084 16.4611 89.1342 16.5613 89.1342 16.7115Z" fill="#989898"/>
<path d="M7.47868 1.26841L7.42877 1.38475C7.42877 1.38475 7.26254 1.31827 7.29578 1.1853C7.36226 1.23516 7.42882 1.25179 7.47868 1.25179" fill="#989898"/>
<path d="M83.0406 10.4848C82.9237 10.4848 82.7902 10.5182 82.6733 10.4514C82.7902 10.4514 82.9404 10.4013 83.0406 10.4848Z" fill="#989898"/>
<path d="M13.4394 3.33894C13.3392 3.33894 13.2224 3.33894 13.1389 3.28885L13.3392 3.23877C13.3392 3.23877 13.4227 3.28885 13.4394 3.33894Z" fill="#989898"/>
<path d="M43.523 31.8544C43.523 31.8544 43.5064 32.0206 43.4399 32.0538C43.4233 32.004 43.3569 31.9375 43.3735 31.871C43.3901 31.8045 43.4731 31.8544 43.5064 31.8544" fill="#989898"/>
<path d="M6.16048 1.43613H5.85999C5.85999 1.43613 5.96011 1.36935 6.02689 1.33596C6.07698 1.31927 6.14377 1.35266 6.14377 1.43613" fill="#989898"/>
<path d="M14.0405 3.38899C13.9403 3.38899 13.8235 3.42238 13.74 3.3389C13.7901 3.3389 13.8735 3.30551 13.9403 3.28882C13.9737 3.28882 14.0238 3.3389 14.0238 3.38899" fill="#989898"/>
<path d="M22.7887 17.4123V17.2295C22.7887 17.2295 22.9216 17.2461 22.9715 17.3292L22.7887 17.3957V17.4123Z" fill="#989898"/>
<path d="M89.084 17.9471C89.0674 17.8303 89.0507 17.68 89.1342 17.5798C89.1342 17.7134 89.1007 17.8303 89.084 17.9471Z" fill="#989898"/>
<path d="M7.71222 3.53875L7.52942 3.57199L7.6125 3.38916C7.6125 3.38916 7.71222 3.47226 7.71222 3.53875Z" fill="#989898"/>
<path d="M11.7188 10.1334H11.4861C11.4861 10.1334 11.5526 9.98379 11.6357 10.017C11.669 10.017 11.7188 10.1001 11.7354 10.1334" fill="#989898"/>
<path d="M18.231 7.81247C18.231 7.81247 18.3306 7.6795 18.3971 7.62964C18.3971 7.6795 18.3639 7.7626 18.3307 7.81247C18.3141 7.84571 18.2642 7.89557 18.231 7.81247Z" fill="#989898"/>
<path d="M1.85215 3.7395C1.85215 3.7395 1.8522 3.87247 1.80234 3.92233C1.75248 3.88909 1.68595 3.87247 1.65271 3.77274C1.73581 3.75612 1.80229 3.77274 1.85215 3.7395Z" fill="#989898"/>
<path d="M3.67222 5.87671C3.67222 5.87671 3.7055 6.04292 3.60578 6.05954C3.55592 6.05954 3.52261 5.95981 3.53923 5.94319C3.55585 5.89333 3.62235 5.89333 3.65559 5.87671" fill="#989898"/>
<path d="M58.515 27.3457L58.3655 27.1961C58.3655 27.1961 58.5317 27.1795 58.5483 27.1961C58.5649 27.246 58.5482 27.3125 58.515 27.3457Z" fill="#989898"/>
<path d="M19.8336 4.15708C19.7334 4.04022 19.7835 3.90666 19.8336 3.78979V4.15708Z" fill="#989898"/>
<path d="M95.3614 30.9192C95.3614 30.9192 95.4445 30.9192 95.4611 30.9358C95.4944 30.9857 95.378 31.0854 95.378 31.0688C95.3448 31.0688 95.3282 30.9358 95.378 30.9192" fill="#989898"/>
<path d="M4.75806 3.35578V3.03857C4.82484 3.17213 4.80814 3.22222 4.75806 3.35578Z" fill="#989898"/>
<path d="M10.3008 6.64478C10.2341 6.74494 10.1004 6.67817 10.0002 6.69486C10.0837 6.62808 10.2007 6.66147 10.3008 6.64478Z" fill="#989898"/>
<path d="M72.022 32.9721C72.022 32.9721 72.0219 32.8225 72.0884 32.7893L72.1383 32.9057C72.1383 32.9057 72.0552 32.9721 72.022 32.9888" fill="#989898"/>
<path d="M13.573 6.74505C13.4728 6.74505 13.3392 6.81183 13.2725 6.69497C13.3726 6.69497 13.4895 6.67827 13.573 6.74505Z" fill="#989898"/>
<path d="M51.0185 33.2057C50.8523 33.2223 50.8524 33.1392 50.7693 33.0894C50.8856 33.0894 50.9687 33.1392 51.0185 33.2057Z" fill="#989898"/>
<path d="M14.8251 6.92861C14.6916 6.99539 14.6081 6.92861 14.5079 6.89522C14.6248 6.87853 14.725 6.89522 14.8251 6.92861Z" fill="#989898"/>
<path d="M15.9938 7.17884C15.8603 7.16215 15.7935 7.16215 15.6766 7.11206C15.7935 7.11206 15.9104 7.11206 15.9938 7.17884Z" fill="#989898"/>
<path d="M6.76056 7.17896L6.67748 7.36178C6.67748 7.36178 6.59438 7.2953 6.57776 7.22882L6.76056 7.17896Z" fill="#989898"/>
<path d="M62.1051 26.0611C62.1051 26.0611 62.2713 26.1109 62.2547 26.1275C62.2381 26.1774 62.1881 26.1608 62.1715 26.1608C62.1217 26.1608 62.0552 26.1109 62.1051 26.0444" fill="#989898"/>
<path d="M52.8393 26.0775C52.8393 26.0775 52.9557 26.0443 52.9723 26.0775C52.9889 26.1108 52.9556 26.1772 52.8891 26.1772C52.8559 26.1772 52.7562 26.1772 52.8393 26.0775Z" fill="#989898"/>
<path d="M2.93785 3.63931C2.93785 3.63931 2.85476 3.55621 2.83813 3.50635C2.87138 3.52297 2.95452 3.50635 2.98776 3.50635C3.02101 3.50635 3.03754 3.55621 3.0043 3.57283C2.98768 3.58945 2.95448 3.62269 2.93785 3.62269" fill="#989898"/>
<path d="M43.7241 23.657C43.6239 23.7071 43.5237 23.657 43.4069 23.657C43.5237 23.5902 43.6573 23.5902 43.7241 23.657Z" fill="#989898"/>
<path d="M17.8133 2.3362C17.8133 2.3362 17.7467 2.17 17.7467 2.10352C17.7966 2.10352 17.8797 2.15338 17.8631 2.18662L17.8133 2.3362Z" fill="#989898"/>
<path d="M9.0821 3.33894C8.99863 3.40572 8.88176 3.37233 8.76489 3.38902C8.83167 3.28885 8.96524 3.33894 9.0821 3.33894Z" fill="#989898"/>
<path d="M75.7616 17.8301C75.6448 17.7633 75.7282 17.613 75.7282 17.5295C75.795 17.613 75.7616 17.7299 75.7616 17.8301Z" fill="#989898"/>
<path d="M22.7384 28.2312C22.7384 28.131 22.705 28.0141 22.7885 27.9307C22.7885 28.0308 22.8386 28.1644 22.7384 28.2312Z" fill="#989898"/>
<path d="M38.1303 28.0645C38.1303 28.0645 38.1137 28.1642 38.0638 28.1808C38.0139 28.1642 37.9641 28.1309 37.9309 28.0811C38.0306 28.0478 38.0639 28.0811 38.1303 28.0811" fill="#989898"/>
<path d="M52.5378 31.7202C52.5378 31.7202 52.3882 31.8199 52.2885 31.8366C52.2885 31.7202 52.4048 31.687 52.5378 31.7202Z" fill="#989898"/>
<path d="M70.1522 10.5181L69.8517 10.5515C69.9018 10.468 70.0353 10.4847 70.1522 10.5181Z" fill="#989898"/>
<path d="M98.0994 10.7349C97.9826 10.7349 97.8657 10.7349 97.7822 10.6848C97.9158 10.6848 97.9993 10.6514 98.0994 10.7349Z" fill="#989898"/>
<path d="M3.22207 3.32233C3.18868 3.18877 3.20541 3.13869 3.2555 3.00513L3.22207 3.32233Z" fill="#989898"/>
<path d="M63.9415 16.445L63.975 16.1445C63.9916 16.2781 64.0083 16.395 63.9415 16.445Z" fill="#989898"/>
<path d="M17.011 36.9963C16.9279 37.1127 16.8614 37.0794 16.7617 37.1127C16.8116 37.0296 16.9112 36.9963 17.011 36.9963Z" fill="#989898"/>
<path d="M101.255 14.3079C101.205 14.1911 101.205 14.0909 101.221 13.9907C101.238 14.0909 101.321 14.1911 101.255 14.3079Z" fill="#989898"/>
<path d="M8.11307 2.90437C8.11307 2.90437 8.03005 3.0041 7.99681 2.95423C7.98019 2.93761 7.96352 2.87113 7.9469 2.83789C8.01338 2.83789 8.0632 2.88775 8.11307 2.90437Z" fill="#989898"/>
<path d="M0.133638 28.415C0.116943 28.1979 0.0668945 27.9809 0.0668945 27.7639V26.5785V26.5118C0.734692 27.647 2.35406 28.1645 3.47262 27.43C4.59118 26.6787 5.44266 25.7104 6.6447 25.0593C8.08046 24.2913 9.19895 24.909 10.5345 25.6436L12.7884 26.879C13.5564 27.2964 14.3744 27.5635 15.2927 27.6637C14.8252 28.4984 14.1741 29.0661 13.2058 28.9492C12.6382 28.8824 12.1206 28.6821 11.6365 28.3983L10.234 27.5468C9.01532 26.7956 7.84665 26.2613 6.56114 27.0794C5.47597 27.7806 4.52437 28.9826 3.33903 29.233C2.30395 29.4334 0.884877 29.1495 0.100215 28.4484" fill="#989898"/>
<path d="M8.6146 38.0645C7.66299 37.8642 6.76147 37.4635 5.91003 36.996C5.0085 36.1279 4.8081 34.8758 4.59106 33.6403C4.85818 33.5736 5.07521 33.4901 5.30893 33.5235C5.84317 33.5903 6.46096 34.9425 6.74478 35.627C7.06198 36.4117 7.47935 37.1296 8.09706 37.6972L8.59789 38.0645H8.6146Z" fill="#989898"/>
<path d="M4.79143 36.278C4.52431 36.0609 4.19044 35.9107 3.9901 35.6102C3.53934 34.9424 3.42245 33.9073 3.43914 33.0225C3.68957 33.0892 4.09026 33.1393 4.19043 33.3898C4.57442 34.2412 4.72464 35.1761 4.89159 36.0943C4.90829 36.1945 4.84149 36.2613 4.77471 36.278" fill="#989898"/>
<path d="M3.08865 34.8091C2.9217 34.592 2.67128 34.4084 2.57111 34.1413C2.35407 33.5569 2.33735 32.9225 2.43752 32.238C2.72133 32.405 2.98849 32.5552 3.20552 32.8057L3.28898 34.8257C3.28898 34.8257 3.15543 34.8257 3.08865 34.8091Z" fill="#989898"/>
<path d="M0.367315 29.7171L0.183594 28.8824C0.183594 28.8824 0.217049 28.8156 0.250439 28.8323C0.634422 29.1829 1.06845 29.3999 1.5693 29.5502L1.61943 30.6687L0.968308 30.268C0.717884 30.1178 0.534281 29.9508 0.384027 29.7338" fill="#989898"/>
<path d="M2.07008 33.4903C1.96991 33.2899 1.75291 33.1397 1.68613 32.9059C1.51918 32.355 1.43572 31.7206 1.70284 31.1697C2.30386 31.9877 2.38728 32.6054 2.07008 33.4903Z" fill="#989898"/>
<path d="M1.25212 32.1379C0.884829 31.4701 0.584336 30.7522 0.434082 30.001C1.28552 30.8691 1.6528 30.8524 1.25212 32.1379Z" fill="#989898"/>
<path d="M0.0668945 17.6469V17.53V10.2009L11.5363 23.8741L5.34245 23.8908L0.0668945 17.6469Z" fill="#989898"/>
<path d="M12.2708 30.7186C10.4678 31.5367 7.86329 28.9323 6.66125 27.5466C6.99515 27.3463 7.37921 27.0625 7.77989 27.1626C8.33082 27.2795 8.83167 27.5633 9.34922 27.797L13.1389 29.5166C13.3225 29.5667 13.5563 29.4665 13.79 29.6001C13.3726 30.0675 12.8718 30.4682 12.2874 30.7353" fill="#989898"/>
<path d="M11.3526 31.3869C11.1355 31.8877 9.8668 32.1548 9.23239 32.0547C8.34756 31.9211 7.31242 30.7358 6.77819 29.9511L5.64294 28.2482C5.91006 28.0479 6.09371 27.8642 6.37753 27.7808L7.64636 28.9661C8.68144 29.9511 9.9669 31.0864 11.3526 31.3702" fill="#989898"/>
<path d="M8.91514 32.5385C8.31413 33.056 7.52948 33.0393 6.94515 32.5385C5.97685 31.6704 5.42593 30.1678 4.875 28.9658L5.4927 28.4482L7.0119 30.7188C7.51275 31.47 8.1305 32.0877 8.93185 32.5552" fill="#989898"/>
<path d="M6.54451 33.1731C5.05867 33.3401 4.44087 30.8191 4.05688 29.4835L4.6913 29.0662L5.67635 31.0696C6.04363 31.8041 6.46097 32.4886 6.99521 33.1063L6.54451 33.1564V33.1731Z" fill="#989898"/>
<path d="M5.22557 32.939C4.87498 33.1561 4.49097 33.0559 4.25724 32.7387C3.70631 31.9707 3.43927 30.752 3.18884 29.7503L3.87329 29.5667L4.42425 31.2695C4.6079 31.8539 4.85829 32.3881 5.22557 32.939Z" fill="#989898"/>
<path d="M3.82322 32.6053C2.70466 32.4717 2.52094 30.8189 2.48755 29.717L3.05522 29.7838C3.20548 30.7521 3.40585 31.6537 3.82322 32.6053Z" fill="#989898"/>
<path d="M2.63783 31.9039C1.90325 31.4699 1.71957 30.5183 1.76966 29.5667C1.93661 29.5667 2.08684 29.6334 2.27049 29.7169L2.63783 31.9039Z" fill="#989898"/>
</svg>
