<svg width="156" height="54" viewBox="0 0 156 54" fill="none" xmlns="http://www.w3.org/2000/svg">
<g clip-path="url(#clip0_10586_5079)">
<path d="M56.6049 13.2842C55.8936 12.0628 54.8936 11.1031 53.6027 10.4052C52.3118 9.70727 50.787 9.35829 49.0309 9.35829H43.7428V25.6079H49.0309C50.787 25.6079 52.3093 25.2589 53.6027 24.5609C54.8936 23.863 55.896 22.9008 56.6049 21.672C57.3163 20.4431 57.672 19.0447 57.672 17.4744C57.672 15.904 57.3163 14.5081 56.6049 13.2867V13.2842ZM53.6574 20.2088C53.2296 20.9865 52.6301 21.5897 51.8615 22.0184C51.0929 22.4472 50.1776 22.6616 49.1205 22.6616H47.1181V12.3021H49.1205C50.1801 12.3021 51.0929 12.514 51.8615 12.9352C52.6301 13.3565 53.2296 13.9522 53.6574 14.725C54.0852 15.4952 54.2992 16.4125 54.2992 17.4744C54.2992 18.5362 54.0852 19.4336 53.6574 20.2113V20.2088ZM59.1694 13.698H62.4353V25.6079H59.1694V13.698ZM77.1854 22.7937C77.7152 21.8489 77.9789 20.802 77.9789 19.6529C77.9789 18.5038 77.7102 17.4395 77.173 16.5022C76.6357 15.565 75.9094 14.8197 74.9965 14.2663C74.0836 13.7129 73.0589 13.4363 71.9271 13.4363C71.0565 13.4363 70.283 13.6008 69.6089 13.9273C69.084 14.1816 68.6463 14.5206 68.2931 14.9393V13.698H65.246V29.97H68.512V24.6781C68.8403 24.9822 69.2184 25.234 69.6537 25.4234C70.3427 25.72 71.0938 25.8696 71.9072 25.8696C73.0688 25.8696 74.106 25.5929 75.0189 25.042C75.9342 24.4887 76.6556 23.7409 77.1854 22.7962V22.7937ZM74.213 21.3554C73.9518 21.8489 73.5887 22.2353 73.1235 22.512C72.6584 22.7887 72.1236 22.9258 71.5117 22.9258C70.8998 22.9258 70.4123 22.7887 69.9546 22.512C69.4969 22.2353 69.1413 21.8514 68.8876 21.3554C68.6338 20.8619 68.507 20.2935 68.507 19.6529C68.507 19.0123 68.6338 18.4465 68.8876 17.9529C69.1413 17.4594 69.4969 17.073 69.9546 16.7964C70.4123 16.5197 70.9297 16.3826 71.5117 16.3826C72.1211 16.3826 72.6584 16.5247 73.1235 16.8088C73.5887 17.093 73.9493 17.4768 74.213 17.9654C74.4742 18.4515 74.6035 19.0148 74.6035 19.6554C74.6035 20.296 74.4717 20.8619 74.213 21.3579V21.3554ZM80.1777 23.514C79.8295 22.7712 79.6553 21.9063 79.6553 20.9192V13.7005H82.9212V20.6575C82.9212 21.1086 83.0108 21.505 83.1924 21.8465C83.3739 22.188 83.6301 22.4547 83.966 22.6416C84.2993 22.8311 84.6773 22.9258 85.0977 22.9258C85.5181 22.9258 85.9136 22.8311 86.2394 22.6416C86.5652 22.4522 86.8189 22.188 87.0005 21.8465C87.1821 21.505 87.2717 21.1086 87.2717 20.6575V13.7005H90.5376V25.6104H87.4905V24.1422C87.2144 24.6706 86.8314 25.0794 86.3265 25.3586C85.7096 25.7001 84.9883 25.8721 84.16 25.8721C83.2023 25.8721 82.3865 25.6652 81.7124 25.2514C81.0383 24.8376 80.5259 24.2593 80.1777 23.5165V23.514ZM94.1293 16.5346H92.127V13.698H92.2364C92.8458 13.698 93.3135 13.5459 93.6393 13.2393C93.9651 12.9352 94.1293 12.4766 94.1293 11.8659V10.9935H97.3952V13.698H100.181V16.5346H97.3952V21.0937C97.3952 21.5 97.4674 21.839 97.6116 22.1082C97.7559 22.3774 97.9822 22.5768 98.2857 22.7089C98.5917 22.841 98.9672 22.9058 99.4174 22.9058C99.5194 22.9058 99.6339 22.8984 99.7657 22.8834C99.8975 22.8684 100.034 22.856 100.179 22.841V25.6104C99.9622 25.6403 99.7134 25.6677 99.4398 25.6976C99.1637 25.7275 98.9026 25.7425 98.6563 25.7425C97.2186 25.7425 96.1068 25.3536 95.3158 24.5759C94.5248 23.7982 94.1293 22.7114 94.1293 21.3155V16.5396V16.5346ZM113.854 22.9906H112.979C112.742 22.9906 112.548 22.7986 112.548 22.5594V17.756C112.548 16.8986 112.334 16.1458 111.907 15.4977C111.479 14.8521 110.879 14.3461 110.111 13.9822C109.342 13.6182 108.457 13.4363 107.457 13.4363C106.616 13.4363 105.837 13.5684 105.128 13.8301C104.417 14.0918 103.808 14.4632 103.3 14.9418C102.793 15.4229 102.422 15.9962 102.191 16.6642L104.803 17.9081C105.007 17.3846 105.327 16.9634 105.77 16.6443C106.213 16.3252 106.725 16.1632 107.305 16.1632C107.914 16.1632 108.397 16.3153 108.753 16.6219C109.108 16.9285 109.285 17.3049 109.285 17.756V18.0751L105.999 18.6085C105.056 18.7531 104.268 19.0023 103.639 19.3513C103.007 19.7003 102.539 20.134 102.236 20.65C101.93 21.166 101.778 21.7592 101.778 22.4272C101.778 23.1401 101.945 23.7533 102.278 24.2693C102.611 24.7853 103.091 25.1816 103.713 25.4583C104.337 25.735 105.076 25.8721 105.934 25.8721C106.574 25.8721 107.153 25.7873 107.675 25.6203C108.198 25.4533 108.67 25.1991 109.091 24.8576C109.277 24.7055 109.454 24.5335 109.628 24.3466C109.897 25.0819 110.593 25.6079 111.421 25.6079H113.859V22.9906H113.854ZM108.947 22.173C108.723 22.5743 108.407 22.8884 107.999 23.1227C107.593 23.3545 107.121 23.4717 106.584 23.4717C106.178 23.4717 105.837 23.3695 105.561 23.1651C105.285 22.9607 105.148 22.679 105.148 22.3151C105.148 21.9212 105.27 21.6221 105.519 21.4102C105.765 21.1984 106.121 21.0513 106.586 20.9641L109.285 20.4805V20.8544C109.285 21.3355 109.173 21.7742 108.947 22.173ZM115.538 22.8161C114.978 21.8714 114.7 20.8095 114.7 19.633C114.7 18.4565 114.976 17.3971 115.526 16.4598C116.078 15.5226 116.831 14.7848 117.789 14.2464C118.747 13.708 119.821 13.4388 121.01 13.4388C121.896 13.4388 122.714 13.5908 123.47 13.8974C124.224 14.2015 124.871 14.6278 125.408 15.1736C125.945 15.7195 126.328 16.3626 126.562 17.1029L123.731 18.3243C123.527 17.7286 123.184 17.255 122.697 16.906C122.212 16.5571 121.647 16.3826 121.01 16.3826C120.446 16.3826 119.941 16.5197 119.498 16.7964C119.055 17.073 118.707 17.4594 118.453 17.9529C118.2 18.4465 118.073 19.0148 118.073 19.6529C118.073 20.291 118.2 20.8594 118.453 21.3554C118.707 21.8489 119.055 22.2353 119.498 22.512C119.941 22.7887 120.446 22.9258 121.01 22.9258C121.664 22.9258 122.229 22.7513 122.709 22.4023C123.189 22.0533 123.527 21.5822 123.731 20.984L126.562 22.2278C126.346 22.9258 125.968 23.5514 125.43 24.1023C124.893 24.6557 124.246 25.0869 123.493 25.401C122.739 25.7126 121.911 25.8696 121.01 25.8696C119.821 25.8696 118.749 25.5979 117.799 25.052C116.849 24.5061 116.093 23.7608 115.536 22.8161H115.538ZM128.097 13.698H131.363V25.6079H128.097V13.698ZM141.011 11.649H137.812L139.076 7.72312H143.277L141.014 11.649H141.011ZM142.62 25.062C143.578 24.5236 144.344 23.7857 144.916 22.8485C145.488 21.9113 145.777 20.8444 145.777 19.6529C145.777 18.4614 145.491 17.3771 144.916 16.4474C144.344 15.5176 143.578 14.7823 142.62 14.2439C141.663 13.7055 140.596 13.4363 139.422 13.4363C138.248 13.4363 137.176 13.7055 136.211 14.2439C135.245 14.7823 134.477 15.5151 133.905 16.4474C133.333 17.3771 133.044 18.4465 133.044 19.6529C133.044 20.8594 133.33 21.9113 133.905 22.8485C134.477 23.7857 135.248 24.5236 136.211 25.062C137.176 25.6004 138.245 25.8696 139.422 25.8696C140.598 25.8696 141.663 25.6004 142.62 25.062ZM136.8 21.3554C136.546 20.8619 136.419 20.2935 136.419 19.6529C136.419 19.0123 136.546 18.449 136.8 17.9629C137.054 17.4768 137.407 17.0905 137.855 16.8063C138.305 16.5222 138.827 16.3801 139.422 16.3801C140.016 16.3801 140.536 16.5222 140.979 16.8063C141.422 17.0905 141.77 17.4744 142.023 17.9629C142.277 18.449 142.404 19.0123 142.404 19.6529C142.404 20.2935 142.277 20.8594 142.023 21.3554C141.77 21.8489 141.422 22.2353 140.979 22.512C140.536 22.7887 140.019 22.9258 139.422 22.9258C138.825 22.9258 138.305 22.7887 137.855 22.512C137.404 22.2353 137.054 21.8514 136.8 21.3554ZM53.2545 36.8397C52.8615 36.3512 52.3789 35.9449 51.7969 35.6258C51.0432 35.212 50.1776 35.0051 49.2075 35.0051C48.0907 35.0051 47.0957 35.2743 46.2252 35.8128C45.3546 36.3512 44.6606 37.0815 44.1457 38.0038C43.6309 38.9261 43.3722 39.978 43.3722 41.1545C43.3722 42.331 43.6259 43.343 44.1333 44.2728C44.6407 45.2026 45.3372 45.9379 46.2227 46.4763C47.1082 47.0147 48.1006 47.2839 49.205 47.2839C50.1627 47.2839 51.0308 47.077 51.8068 46.6632C52.4336 46.3292 52.9336 45.8656 53.3191 45.2898V47.0222H55.2991V30.5109H53.252V36.8397H53.2545ZM52.7421 43.2832C52.4013 43.9164 51.9362 44.4149 51.3491 44.7763C50.7621 45.1402 50.1055 45.3222 49.3792 45.3222C48.6528 45.3222 47.9788 45.1402 47.3992 44.7763C46.8197 44.4124 46.362 43.9139 46.0287 43.2832C45.6954 42.6501 45.5287 41.9422 45.5287 41.157C45.5287 40.3718 45.6954 39.644 46.0287 39.0183C46.362 38.3926 46.8221 37.8991 47.4116 37.5352C47.9987 37.1712 48.6553 36.9893 49.3816 36.9893C50.1079 36.9893 50.7646 37.1712 51.3516 37.5352C51.9386 37.8991 52.4038 38.3926 52.7446 39.0183C53.0853 39.644 53.257 40.3569 53.257 41.157C53.257 41.9571 53.0853 42.6501 52.7446 43.2832H52.7421ZM67.1514 36.74C66.6788 36.2091 66.1067 35.7878 65.4326 35.4763C64.7585 35.1647 63.985 35.0076 63.1144 35.0076C62.0274 35.0076 61.0548 35.2743 60.1967 35.8028C59.341 36.3337 58.6595 37.0566 58.1496 37.9739C57.6422 38.8912 57.3885 39.9381 57.3885 41.1146C57.3885 42.2911 57.6422 43.3281 58.1496 44.2653C58.657 45.2026 59.3585 45.9404 60.2489 46.4788C61.1419 47.0172 62.1542 47.2864 63.286 47.2864C64.0844 47.2864 64.8157 47.1543 65.4848 46.8926C66.1514 46.6308 66.7285 46.2794 67.216 45.8357C67.7011 45.392 68.0617 44.901 68.2931 44.3625L66.5967 43.4901C66.2634 44.0559 65.8281 44.5221 65.2908 44.886C64.7535 45.2499 64.0944 45.4319 63.3109 45.4319C62.5995 45.4319 61.9428 45.2549 61.3409 44.8985C60.7389 44.542 60.2738 44.041 59.948 43.3929C59.7042 42.9093 59.5674 42.3684 59.5375 41.7677H68.512C68.5418 41.5783 68.5667 41.3913 68.5891 41.2019C68.6115 41.0124 68.6214 40.8305 68.6214 40.656C68.6214 39.9281 68.4945 39.2277 68.2408 38.5522C67.9871 37.8767 67.624 37.2735 67.1539 36.7425L67.1514 36.74ZM61.2414 37.3507C61.8085 36.9943 62.4304 36.8173 63.1144 36.8173C63.7984 36.8173 64.4053 36.9918 64.9426 37.3408C65.4799 37.6897 65.8853 38.1633 66.1614 38.7591C66.338 39.1404 66.4176 39.5567 66.4226 40.0029H59.5873C59.647 39.5816 59.7564 39.1953 59.9281 38.8463C60.239 38.2057 60.6792 37.7097 61.2439 37.3532L61.2414 37.3507ZM76.5636 35.551C76.0711 36.5107 75.8223 37.6299 75.8223 38.9111C75.8223 40.1923 76.0686 41.2891 76.5636 42.2488C77.056 43.2084 77.7426 43.9587 78.6206 44.4946C79.4986 45.0331 80.5035 45.3023 81.6353 45.3023C82.767 45.3023 83.7097 45.0231 84.5082 44.4622C85.3066 43.9039 85.8937 43.1711 86.2717 42.2712L88.2293 43.1661C87.9681 43.879 87.5303 44.547 86.9135 45.1726C86.2966 45.7983 85.5429 46.3068 84.65 46.6982C83.757 47.092 82.7521 47.2864 81.6353 47.2864C80.5185 47.2864 79.429 47.0795 78.4589 46.6657C77.4864 46.252 76.6456 45.6662 75.9342 44.9109C75.2229 44.1556 74.6682 43.2683 74.2702 42.2488C73.8697 41.2318 73.6707 40.1201 73.6707 38.9111C73.6707 37.7022 73.8697 36.5705 74.2702 35.551C74.6682 34.534 75.2229 33.6466 75.9342 32.8889C76.6456 32.1336 77.4839 31.5478 78.449 31.1341C79.4141 30.7203 80.4762 30.5134 81.6378 30.5134C82.7994 30.5134 83.7595 30.7103 84.6525 31.1017C85.5454 31.4955 86.2991 32.004 86.916 32.6272C87.5328 33.2528 87.9706 33.9208 88.2318 34.6337L86.2742 35.5485C85.8961 34.6337 85.3091 33.8959 84.5107 33.3351C83.7122 32.7742 82.7546 32.495 81.6378 32.495C80.5209 32.495 79.5011 32.7643 78.6231 33.3027C77.745 33.8411 77.0585 34.5889 76.566 35.5485L76.5636 35.551ZM99.6886 44.7464V39.0382C99.6886 38.2531 99.497 37.5551 99.1115 36.9444C98.726 36.3337 98.1937 35.8576 97.5121 35.5161C96.8306 35.1746 96.0396 35.0026 95.1392 35.0026C94.4427 35.0026 93.7761 35.1273 93.1369 35.3741C92.4976 35.6208 91.9404 35.9598 91.4604 36.3886C90.9803 36.8173 90.6346 37.3009 90.4157 37.8393L92.1792 38.7566C92.4255 38.2032 92.806 37.752 93.3209 37.4031C93.8358 37.0541 94.4278 36.8796 95.0944 36.8796C95.863 36.8796 96.4799 37.079 96.945 37.4803C97.4101 37.8817 97.6415 38.4001 97.6415 39.0407V39.5791L93.6592 40.2397C92.7886 40.3843 92.0673 40.6335 91.4927 40.9825C90.9206 41.3315 90.4953 41.7577 90.2192 42.2587C89.9431 42.7598 89.8063 43.3231 89.8063 43.9488C89.8063 44.5744 89.9729 45.1801 90.3062 45.6836C90.6395 46.1847 91.1047 46.5785 91.6992 46.8627C92.2936 47.1468 92.9752 47.2889 93.7463 47.2889C94.4129 47.2889 95.0273 47.1917 95.5844 46.9948C96.1416 46.7979 96.6366 46.5212 97.0644 46.1647C97.3082 45.9603 97.5221 45.741 97.7061 45.5042C97.7061 46.3442 98.3877 47.0247 99.2259 47.0247H100.992V45.215H100.151C99.895 45.215 99.6861 45.0056 99.6861 44.7489L99.6886 44.7464ZM97.1863 43.8166C96.8803 44.3551 96.4575 44.7813 95.9128 45.0929C95.368 45.407 94.7263 45.5615 93.9875 45.5615C93.408 45.5615 92.9254 45.402 92.5399 45.0804C92.1544 44.7614 91.9628 44.36 91.9628 43.8815C91.9628 43.373 92.132 42.9467 92.4752 42.6052C92.816 42.2637 93.3632 42.0269 94.1194 41.8973L97.6464 41.2816V42.0494C97.6464 42.69 97.4947 43.2782 97.1888 43.8166H97.1863ZM110.732 41.7677C111.262 42.351 111.526 43.0489 111.526 43.8615C111.526 44.5146 111.344 45.1053 110.981 45.6288C110.618 46.1523 110.118 46.5586 109.479 46.8502C108.84 47.1418 108.101 47.2864 107.258 47.2864C106.084 47.2864 105.059 46.9948 104.188 46.414C103.318 45.8332 102.693 45.048 102.315 44.0584L103.947 43.2733C104.28 43.9712 104.738 44.5246 105.317 44.9309C105.897 45.3372 106.544 45.5416 107.255 45.5416C107.879 45.5416 108.402 45.3895 108.822 45.0829C109.243 44.7763 109.454 44.3775 109.454 43.8839C109.454 43.535 109.357 43.2558 109.16 43.0439C108.964 42.8321 108.733 42.665 108.464 42.5429C108.195 42.4183 107.939 42.3285 107.69 42.2712L105.927 41.7702C104.882 41.481 104.116 41.0473 103.631 40.474C103.144 39.9007 102.902 39.2352 102.902 38.4774C102.902 37.7795 103.079 37.1712 103.435 36.6553C103.79 36.1393 104.275 35.7355 104.892 35.4438C105.509 35.1522 106.2 35.0076 106.972 35.0076C108.001 35.0076 108.927 35.2694 109.747 35.7928C110.566 36.3163 111.15 37.0516 111.499 37.9963L109.844 38.7591C109.583 38.1484 109.193 37.6673 108.67 37.3208C108.148 36.9718 107.561 36.7974 106.907 36.7974C106.312 36.7974 105.84 36.9419 105.492 37.2336C105.143 37.5252 104.969 37.9016 104.969 38.3677C104.969 38.6868 105.056 38.9535 105.23 39.1629C105.405 39.3748 105.616 39.5343 105.862 39.6415C106.108 39.7511 106.347 39.8409 106.581 39.9132L108.496 40.479C109.454 40.7557 110.198 41.1844 110.727 41.7652L110.732 41.7677ZM119.185 45.2773C119.336 45.2624 119.478 45.2474 119.61 45.2325V47.0222C119.421 47.0671 119.209 47.0995 118.978 47.1194C118.747 47.1418 118.55 47.1518 118.391 47.1518C117.244 47.1518 116.359 46.8253 115.735 46.1697C115.11 45.5141 114.799 44.5919 114.799 43.4004V37.2062H112.688V35.2644H113.123C113.645 35.2644 114.056 35.1048 114.352 34.7833C114.648 34.4642 114.797 34.0405 114.797 33.517V32.5574H116.844V35.2619H119.478V37.2037H116.844V43.3331C116.844 43.7269 116.906 44.0684 117.028 44.3576C117.152 44.6492 117.359 44.8785 117.647 45.0455C117.938 45.2125 118.321 45.2973 118.801 45.2973C118.903 45.2973 119.03 45.2898 119.182 45.2748L119.185 45.2773ZM130.893 36.74C130.42 36.2091 129.848 35.7878 129.174 35.4763C128.5 35.1647 127.726 35.0076 126.856 35.0076C125.766 35.0076 124.796 35.2743 123.938 35.8028C123.082 36.3337 122.401 37.0566 121.891 37.9739C121.383 38.8912 121.13 39.9381 121.13 41.1146C121.13 42.2911 121.383 43.3281 121.891 44.2653C122.398 45.2026 123.1 45.9404 123.99 46.4788C124.883 47.0172 125.895 47.2864 127.027 47.2864C127.826 47.2864 128.557 47.1543 129.226 46.8926C129.893 46.6308 130.47 46.2794 130.957 45.8357C131.442 45.392 131.803 44.901 132.034 44.3625L130.338 43.4901C130.005 44.0559 129.569 44.5221 129.032 44.886C128.495 45.2499 127.836 45.4319 127.052 45.4319C126.341 45.4319 125.684 45.2549 125.082 44.8985C124.48 44.542 124.015 44.041 123.689 43.3929C123.445 42.9093 123.309 42.3684 123.279 41.7677H132.253C132.283 41.5783 132.308 41.3913 132.33 41.2019C132.353 41.0124 132.363 40.8305 132.363 40.656C132.363 39.9281 132.236 39.2277 131.982 38.5522C131.728 37.8767 131.365 37.2735 130.893 36.7425V36.74ZM124.983 37.3507C125.55 36.9943 126.172 36.8173 126.856 36.8173C127.54 36.8173 128.146 36.9918 128.684 37.3408C129.221 37.6897 129.626 38.1633 129.903 38.7591C130.079 39.1404 130.159 39.5567 130.164 40.0029H123.328C123.388 39.5816 123.498 39.1953 123.669 38.8463C123.98 38.2057 124.42 37.7097 124.985 37.3532L124.983 37.3507ZM134.847 30.5134H136.895V47.0247H134.847V30.5134ZM139.636 30.5134H141.683V47.0247H139.636V30.5134ZM150.976 33.0634H148.951L150.67 29.6185H153.413L150.976 33.0634ZM155.209 37.9714C154.679 37.0566 153.958 36.3312 153.043 35.8003C152.127 35.2694 151.097 35.0051 149.953 35.0051C148.809 35.0051 147.799 35.2743 146.884 35.8128C145.968 36.3512 145.245 37.0765 144.707 37.9938C144.17 38.9086 143.901 39.9555 143.901 41.1346C143.901 42.3136 144.173 43.368 144.717 44.2977C145.262 45.2275 145.991 45.9603 146.904 46.4888C147.817 47.0197 148.834 47.2839 149.951 47.2839C151.068 47.2839 152.08 47.0197 152.988 46.4888C153.896 45.9578 154.624 45.23 155.174 44.3077C155.726 43.3854 156 42.326 156 41.1346C156 39.9431 155.734 38.8887 155.207 37.9714H155.209ZM153.336 43.2708C152.995 43.9114 152.53 44.4124 151.943 44.7763C151.356 45.1402 150.692 45.3222 149.951 45.3222C149.21 45.3222 148.568 45.1402 147.981 44.7763C147.394 44.4124 146.926 43.9114 146.578 43.2708C146.23 42.6326 146.056 41.9197 146.056 41.1346C146.056 40.3494 146.23 39.644 146.578 39.0183C146.926 38.3926 147.394 37.8991 147.981 37.5352C148.568 37.1712 149.224 36.9893 149.951 36.9893C150.677 36.9893 151.354 37.1712 151.943 37.5352C152.53 37.8991 152.995 38.3926 153.336 39.0183C153.677 39.644 153.848 40.3494 153.848 41.1346C153.848 41.9197 153.677 42.6326 153.336 43.2708ZM59.3485 11.1356C58.9555 10.7517 58.759 10.2731 58.759 9.70477C58.759 9.13645 58.9555 8.66285 59.3485 8.28646C59.7415 7.91007 60.229 7.72063 60.8136 7.72063C61.3981 7.72063 61.8831 7.91007 62.2662 8.28646C62.6492 8.66285 62.8433 9.13645 62.8433 9.70477C62.8433 10.2731 62.6517 10.7517 62.2662 11.1356C61.8831 11.5194 61.3981 11.7138 60.8136 11.7138C60.229 11.7138 59.7415 11.5219 59.3485 11.1356ZM128.276 11.1356C127.883 10.7517 127.686 10.2731 127.686 9.70477C127.686 9.13645 127.883 8.66285 128.276 8.28646C128.669 7.91007 129.156 7.72063 129.741 7.72063C130.325 7.72063 130.81 7.91007 131.194 8.28646C131.577 8.66285 131.771 9.13645 131.771 9.70477C131.771 10.2731 131.579 10.7517 131.194 11.1356C130.81 11.5194 130.325 11.7138 129.741 11.7138C129.156 11.7138 128.669 11.5219 128.276 11.1356ZM32.2188 36.3736V37.6399L2.60676 16.1483C0.967584 14.9593 0 13.0773 0 11.0782V9.83439L29.6121 31.3011C31.2512 32.4901 32.2213 34.372 32.2213 36.3736H32.2188ZM12.1209 51.1151H20.1277L16.1256 54.4353L12.1234 51.1176L12.1209 51.1151ZM32.2213 5.38003V13.4238H11.2479L0.0920325 5.30276L4.01212 2L8.02424 5.38003V9.40316H12.0961V5.38252L16.1107 2L20.1228 5.38003V9.40316H24.1946V5.38252L28.2092 2L32.2213 5.38003ZM32.2188 45.3073V46.5735L2.60676 25.0819C0.967584 23.8929 0 22.011 0 20.0119V18.768L29.6121 40.2347C31.2512 41.4237 32.2213 43.3057 32.2213 45.3073H32.2188ZM26.0253 46.5735L27.1123 47.3612H20.9834L8.46947 38.2705L2.60676 34.0156C0.967584 32.8266 0 30.9446 0 28.9455V27.7017L10.4146 35.2519L10.4345 35.2669L26.0328 46.576H26.0253V46.5735ZM14.8098 47.3612H8.6809L6.48456 45.7659L6.49202 45.7609L2.60427 42.9392C0.967585 41.7502 0 39.8683 0 37.8692V36.6254L9.41219 43.4477L10.3176 44.1033L13.7253 46.5735L14.8123 47.3612H14.8098Z" fill="#989898"/>
</g>
<defs>
<clipPath id="clip0_10586_5079">
<rect width="156" height="54" fill="white"/>
</clipPath>
</defs>
</svg>
