<svg width="131" height="16" viewBox="0 0 131 16" fill="none" xmlns="http://www.w3.org/2000/svg">
<g clip-path="url(#clip0_10426_2345)">
<path d="M101.793 -9.15527e-05H82.847V15.7892H86.0052V9.47452H101.794C103.899 9.47452 104.953 8.42295 104.953 6.31631V3.15811C104.951 1.05323 103.899 -9.15527e-05 101.793 -9.15527e-05ZM101.793 6.31456H86.0035V3.15636H101.793V6.31456Z" fill="#989898"/>
<path d="M69.7192 12.631H53.93V-9.15527e-05H50.7718V12.631C50.7718 14.7358 51.8233 15.7892 53.93 15.7892H69.7192C71.8241 15.7892 72.8774 14.7376 72.8774 12.631V-9.15527e-05H69.7192V12.631Z" fill="#989898"/>
<path d="M79.4414 -9.15527e-05H76.2832V15.7892H79.4414V-9.15527e-05Z" fill="#989898"/>
<path d="M18.9457 3.1582L22.1039 0H0V15.7893H3.1582H18.9457L22.1039 12.6311H3.1582V9.47285H18.9457L22.1039 6.31465H3.1582V3.1582H18.9457Z" fill="#989898"/>
<path d="M44.2079 -9.15527e-05H28.4186C26.3137 -9.15527e-05 25.2622 1.05323 25.2622 3.15811V12.631C25.2622 14.7358 26.3137 15.7892 28.4204 15.7892H44.2096V12.6345L47.3678 15.7892V3.15811C47.3661 1.05323 46.3128 -9.15527e-05 44.2079 -9.15527e-05ZM44.2079 12.631H44.2044L40.7758 9.20592H36.3133L39.7418 12.631H28.4186V3.15811H44.2079V12.631Z" fill="#989898"/>
<path d="M127.18 9.47276L130.338 6.31456H111.39V3.15811H127.18L130.338 -9.15527e-05H108.234V15.7892H111.39H127.18L130.338 12.631H111.39V9.47276H127.18Z" fill="#989898"/>
</g>
<defs>
<clipPath id="clip0_10426_2345">
<rect width="130.338" height="15.7893" fill="white"/>
</clipPath>
</defs>
</svg>
