<svg width="118" height="37" viewBox="0 0 118 37" fill="none" xmlns="http://www.w3.org/2000/svg">
<g clip-path="url(#clip0_10586_2115)">
<path d="M31.7708 9.40057C32.2802 9.57336 32.9591 9.40726 33.123 8.94909L33.1263 0.421159C32.8588 0.0454836 32.4597 -0.0347793 32.0272 0.0120407C31.7407 0.0432541 31.3583 0.0700084 31.2257 0.392175C31.1443 0.590603 31.2 0.877097 31.2 1.12123V8.46194C31.112 8.8967 31.3583 9.26011 31.7708 9.39946V9.40057ZM14.0003 18.8426C13.0494 19.2005 12.1409 19.3175 11.1822 19.3153C10.1957 19.3365 9.24811 19.2138 8.34403 18.8337C6.01529 17.8817 5.00866 15.7692 5.07221 13.3178C5.15581 10.0549 7.66068 7.73066 10.9124 7.77525C12.5489 7.79754 14.0773 8.29696 15.2433 9.49979L18.2532 6.27924C16.9723 5.14775 15.3592 4.51234 13.7116 4.13555C10.6037 3.50236 7.30508 3.77771 4.54158 5.38966C2.08353 6.82436 0.442595 9.28464 0.0914444 12.1128C-0.0813438 13.504 -0.0178023 14.8897 0.356758 16.2452C1.02785 18.6754 2.66878 20.6697 4.88938 21.8558C6.42441 22.6752 8.10213 23.1144 9.84673 23.2281C12.7596 23.3686 15.7773 22.907 18.3925 21.6507V11.8698H10.2581V15.4994H14.0048L14.0003 18.8437V18.8426ZM89.6738 19.6709C87.1154 17.4781 86.3384 13.8206 87.4409 10.6736C88.5133 7.61361 91.288 5.69176 94.5063 5.54238C96.0547 5.41976 97.5507 5.76756 98.8851 6.54121C99.4904 6.91911 100.007 7.3717 100.418 7.94135L102.07 6.79983C101.478 6.00835 100.743 5.47661 99.9062 5.02067C96.611 3.31285 92.396 3.5124 89.2491 5.48218C87.1076 6.82324 85.5938 8.95355 85.0743 11.435C84.7633 12.9221 84.7822 14.446 85.1267 15.9197C85.7376 18.5349 87.4353 20.7054 89.7964 21.9639C91.3894 22.8134 93.1374 23.2181 94.9522 23.237C97.8272 23.266 100.603 22.2237 102.341 19.8972L101.714 19.3599L100.886 18.8448C100.154 19.886 99.1649 20.6385 97.9799 21.0721C95.2309 22.0788 91.9278 21.6017 89.6738 19.6698V19.6709ZM114.069 22.596C115.374 22.0531 116.425 21.0554 116.914 19.7277C117.323 18.6197 117.327 17.3689 116.959 16.2519C116.659 15.3411 115.999 14.6255 115.23 14.096C114.733 13.7537 114.232 13.4795 113.663 13.29L111.324 12.5108L109.488 11.8932C108.872 11.6858 108.34 11.3258 107.893 10.8732C107.383 10.357 107.164 9.72385 107.148 9.00483C107.127 8.10522 107.422 7.28698 108.079 6.65268C109.3 5.47326 111.25 5.21241 112.879 5.62487C113.893 5.88127 114.753 6.48101 115.397 7.28698L116.964 6.09865C116.623 5.68395 116.236 5.35064 115.792 5.05969C115.143 4.64054 114.477 4.33175 113.724 4.13109C111.357 3.56256 108.4 3.85909 106.589 5.57136C106.018 6.11202 105.577 6.75524 105.36 7.51551C105.087 8.47086 105.087 9.48529 105.372 10.4373C105.6 11.1998 106.072 11.843 106.666 12.3558C107.186 12.8051 107.752 13.1651 108.397 13.3914L110.153 14.0068L112.477 14.7525C113.145 14.9666 113.746 15.3088 114.259 15.7659C114.921 16.3567 115.234 17.1303 115.235 18.0065C115.235 18.7434 115.04 19.4045 114.578 19.983C113.302 21.576 111.086 21.9339 109.16 21.3988C108.024 21.0275 107.046 20.3197 106.372 19.3175L104.665 20.507C106.787 23.2504 111.015 23.8646 114.068 22.5949L114.069 22.596ZM39.7937 10.6603C40.8405 13.6199 40.2329 17.1827 37.922 19.3799C35.8486 21.3508 32.9937 21.9305 30.2246 21.3809C29.5056 21.2382 28.8679 20.9952 28.2191 20.6664C26.4879 19.7913 25.1792 18.3131 24.5304 16.4749C23.837 14.5106 23.8649 12.3469 24.6229 10.4061C25.5705 7.97925 27.6016 6.33275 30.1187 5.733L30.112 4.02742C28.5915 4.29942 27.2181 4.85903 25.9807 5.69845C23.6776 7.27472 22.2106 9.78851 21.9687 12.5687C21.9118 13.2264 21.9129 13.8295 21.9653 14.485C22.2128 17.5495 23.9529 20.2628 26.6105 21.7978C28.2816 22.7632 30.1477 23.2337 32.0907 23.2437C33.968 23.2526 35.7772 22.8424 37.4215 21.9628C40.0066 20.5794 41.8126 18.1069 42.2707 15.1996C42.4435 14.1049 42.4457 13.0336 42.2763 11.9344C41.8694 9.29356 40.3455 6.97373 38.0971 5.53458C36.9165 4.77877 35.6223 4.28158 34.2199 4.02853L34.2221 5.73969C36.8519 6.36396 38.8997 8.1264 39.7948 10.658L39.7937 10.6603ZM58.0714 13.9945L58.0658 12.3246H48.5569V5.99943H58.7347L58.7313 4.32283L46.5581 4.3284V22.7744L59.0646 22.7755V21.0989H48.5569V13.9945L58.0703 13.9934L58.0714 13.9945ZM69.2759 22.7766V6.00166L75.853 5.99943L75.8474 4.32394H60.7056L60.7033 5.99943L67.2793 6.00278V22.7766H69.2759ZM80.7122 18.7802L80.7189 15.3913L80.7914 14.5218V4.32171L78.7915 4.33286V22.7755L80.7902 22.7777V19.1659L80.7122 18.7802Z" fill="#989898"/>
<path d="M14.0003 18.8427L14.0047 15.4985H10.258V11.8688H18.3913L18.3924 21.6508C15.7772 22.9072 12.7595 23.3687 9.84667 23.2282C8.10207 23.1145 6.42435 22.6753 4.88932 21.8559C2.66872 20.671 1.0289 18.6766 0.356697 16.2453C-0.0178634 14.8898 -0.0814049 13.5041 0.0913834 12.1129C0.442534 9.28477 2.08346 6.82449 4.54152 5.3909C7.30501 3.77896 10.6036 3.50361 13.7116 4.1368C15.3581 4.51359 16.9722 5.149 18.2531 6.28048L15.2432 9.50104C14.0772 8.29821 12.5489 7.79879 10.9124 7.7765C7.66062 7.73191 5.15575 10.0573 5.07214 13.3191C5.00972 15.7705 6.01523 17.8829 8.34397 18.8349C9.24693 19.2151 10.1945 19.3377 11.1822 19.3165C12.1409 19.3187 13.0494 19.2006 14.0003 18.8439V18.8427Z" fill="#989898"/>
<path d="M39.7937 10.6604C38.8986 8.12988 36.8508 6.36633 34.221 5.74206L34.2188 4.0309C35.6212 4.28395 36.9154 4.78113 38.096 5.53694C40.3433 6.9761 41.8672 9.29481 42.2752 11.9368C42.4447 13.0348 42.4413 14.1061 42.2696 15.2019C41.8115 18.1081 40.0067 20.5807 37.4204 21.9652C35.7761 22.8448 33.9669 23.2561 32.0896 23.2461C30.1466 23.236 28.2805 22.7656 26.6094 21.8002C23.953 20.2652 22.2117 17.5519 21.9642 14.4874C21.9118 13.8319 21.9107 13.2277 21.9676 12.5711C22.2095 9.79088 23.6754 7.27709 25.9796 5.70081C27.217 4.8614 28.5904 4.30179 30.1109 4.02979L30.1176 5.73537C27.5994 6.33511 25.5683 7.98162 24.6218 10.4085C23.8649 12.3493 23.837 14.513 24.5293 16.4772C25.1781 18.3155 26.4868 19.7925 28.218 20.6687C28.868 20.9976 29.5045 21.2406 30.2235 21.3833C32.9926 21.9318 35.8475 21.3532 37.9209 19.3823C40.233 17.1851 40.8394 13.6223 39.7926 10.6626L39.7937 10.6604Z" fill="#989898"/>
<path d="M58.0713 13.9945L48.5579 13.9968V21.1L59.0646 21.1012L59.0657 22.7766L46.5603 22.7755L46.5592 4.32955L58.7324 4.32397L58.7357 6.00058H48.5579V12.3257H58.0658L58.0713 13.9945Z" fill="#989898"/>
<path d="M89.6738 19.6711C91.9278 21.603 95.2309 22.0801 97.9799 21.0735C99.1649 20.6398 100.154 19.8874 100.886 18.8462L101.714 19.3612L102.341 19.8985C100.603 22.225 97.8272 23.2685 94.9522 23.2384C93.1374 23.2194 91.3894 22.8148 89.7964 21.9653C87.4354 20.7067 85.7387 18.5363 85.1267 15.9211C84.7822 14.4462 84.7633 12.9235 85.0743 11.4364C85.5926 8.9549 87.1076 6.82459 89.2491 5.48353C92.396 3.51375 96.611 3.3142 99.9062 5.02202C100.743 5.47796 101.479 6.0097 102.07 6.80118L100.418 7.9427C100.007 7.37306 99.4915 6.92046 98.8851 6.54256C97.5507 5.76891 96.0547 5.42111 94.5063 5.54373C91.288 5.69311 88.5122 7.61607 87.4409 10.675C86.3384 13.822 87.1154 17.4795 89.6738 19.6722V19.6711Z" fill="#989898"/>
<path d="M114.069 22.5962C111.016 23.8659 106.788 23.2516 104.666 20.5082L106.373 19.3188C107.047 20.3209 108.025 21.0288 109.161 21.4C111.087 21.9351 113.302 21.5773 114.579 19.9843C115.041 19.4057 115.238 18.7447 115.236 18.0078C115.235 17.1316 114.923 16.358 114.26 15.7671C113.747 15.3101 113.146 14.9678 112.479 14.7538L110.154 14.008L108.398 13.3927C107.753 13.1664 107.187 12.8063 106.667 12.3571C106.073 11.8432 105.602 11.1999 105.373 10.4386C105.088 9.48544 105.088 8.47101 105.361 7.51677C105.578 6.7565 106.02 6.11328 106.59 5.57262C108.401 3.85923 111.357 3.56382 113.725 4.13235C114.478 4.33301 115.144 4.6418 115.793 5.06095C116.237 5.3519 116.624 5.68521 116.965 6.09991L115.398 7.28824C114.755 6.48227 113.894 5.88253 112.88 5.62613C111.251 5.21478 109.3 5.47452 108.08 6.65394C107.423 7.28824 107.128 8.10648 107.149 9.00609C107.166 9.72511 107.384 10.3583 107.895 10.8744C108.343 11.327 108.874 11.6871 109.489 11.8944L111.325 12.512L113.665 13.2912C114.233 13.4808 114.735 13.755 115.231 14.0972C116 14.6267 116.659 15.3413 116.96 16.2532C117.328 17.3702 117.324 18.6209 116.915 19.729C116.426 21.0567 115.375 22.0555 114.07 22.5973L114.069 22.5962Z" fill="#989898"/>
<path d="M69.2758 22.7766L67.2793 22.7755V6.00281L60.7022 5.99946L60.7056 4.32397H75.8474L75.8518 5.99946L69.2747 6.00169L69.2758 22.7766Z" fill="#989898"/>
<path d="M80.7122 18.7803L80.7913 19.166V22.7778L78.7914 22.7756V4.33292L80.7913 4.32178V14.5219L80.72 15.3914L80.7122 18.7803Z" fill="#989898"/>
<path d="M31.7708 9.40079C31.3594 9.26145 31.1119 8.89804 31.1989 8.46328V1.12145C31.1989 0.877318 31.1443 0.590824 31.2256 0.392396C31.3583 0.0702298 31.7407 0.0434755 32.0271 0.0122621C32.4597 -0.0356727 32.8576 0.0445903 33.1263 0.42138L33.123 8.94932C32.9591 9.40748 32.2802 9.57358 31.7708 9.40079Z" fill="#989898"/>
<path d="M8.19463 28.0173C8.19463 28.4532 8.11436 28.8389 7.95495 29.1722C7.79554 29.5066 7.57928 29.7853 7.30839 30.0083C7.0375 30.2312 6.71979 30.4007 6.35638 30.5166C5.99297 30.6325 5.60838 30.6905 5.20037 30.6905H2.54055V35.7482H2.22061V25.4589H5.01086C5.37873 25.4589 5.75218 25.5002 6.13008 25.5827C6.50799 25.6652 6.84911 25.8034 7.15455 25.9974C7.46 26.1913 7.70859 26.4533 7.90256 26.7821C8.09653 27.1121 8.19351 27.5235 8.19351 28.0173H8.19463ZM7.8758 28.0173C7.8758 27.5814 7.79331 27.218 7.62833 26.9271C7.46334 26.6361 7.25042 26.4042 6.98845 26.2292C6.72648 26.0553 6.4333 25.9294 6.1089 25.8513C5.78451 25.7744 5.46234 25.7354 5.1424 25.7354H2.54055V30.4152H5.21486C5.5348 30.4152 5.85474 30.3717 6.17467 30.2847C6.49461 30.1978 6.77999 30.0573 7.03193 29.8634C7.28386 29.6694 7.48675 29.4197 7.64282 29.1153C7.79777 28.8099 7.8758 28.4443 7.8758 28.0184V28.0173ZM16.3803 35.7493L13.2701 30.5612H10.8578V35.7493H10.5379V25.46H13.3861C13.764 25.46 14.1463 25.4946 14.5343 25.5615C14.9222 25.6295 15.2678 25.7577 15.5732 25.9461C15.8787 26.1345 16.1273 26.3942 16.3212 26.7231C16.5152 27.053 16.6122 27.4789 16.6122 28.0017C16.6122 28.4866 16.5197 28.8879 16.3357 29.2079C16.1518 29.5278 15.9144 29.7864 15.6234 29.9849C15.3324 30.1833 15.0103 30.326 14.6569 30.414C14.3035 30.501 13.9568 30.5445 13.6179 30.5445L16.7426 35.7471H16.3792L16.3803 35.7493ZM16.2923 28.0028C16.2923 27.5569 16.2053 27.1868 16.0303 26.8914C15.8564 26.596 15.6256 26.363 15.3403 26.1936C15.0549 26.0241 14.7249 25.9048 14.3515 25.8379C13.978 25.7699 13.5979 25.7365 13.2099 25.7365H10.8556V30.2858H13.3705C14.3202 30.2858 15.0437 30.0874 15.5431 29.6894C16.0426 29.2926 16.2911 28.7308 16.2911 28.0039L16.2923 28.0028ZM29.257 30.6047C29.257 31.3995 29.1232 32.1285 28.8568 32.7918C28.5903 33.4551 28.2225 34.027 27.752 34.5063C27.2816 34.9857 26.722 35.3614 26.0732 35.6322C25.4244 35.9031 24.721 36.0391 23.9652 36.0391C23.2094 36.0391 22.5071 35.9031 21.8572 35.6322C21.2084 35.3614 20.6488 34.9857 20.1783 34.5063C19.7079 34.027 19.34 33.4551 19.0736 32.7918C18.8072 32.1285 18.6734 31.3995 18.6734 30.6047C18.6734 29.8098 18.8061 29.0808 19.0736 28.4175C19.34 27.7542 19.7079 27.1823 20.1783 26.703C20.6476 26.2236 21.205 25.848 21.8494 25.5771C22.4937 25.3062 23.1982 25.1702 23.9641 25.1702C24.7299 25.1702 25.4344 25.3062 26.0788 25.5771C26.7231 25.848 27.2805 26.2236 27.7498 26.703C28.2202 27.1823 28.5881 27.7542 28.8545 28.4175C29.121 29.0808 29.2547 29.811 29.2547 30.6047H29.257ZM28.9381 30.6047C28.9381 29.8879 28.8166 29.2168 28.5747 28.5914C28.3328 27.966 27.9906 27.4209 27.5503 26.956C27.1088 26.4912 26.5838 26.1255 25.9729 25.8591C25.362 25.5927 24.6942 25.4589 23.9674 25.4589C23.2406 25.4589 22.5717 25.5927 21.9619 25.8591C21.3511 26.1255 20.826 26.4912 20.3846 26.956C19.9431 27.4209 19.602 27.966 19.3601 28.5914C19.1182 29.2168 18.9967 29.8879 18.9967 30.6047C18.9967 31.3215 19.1148 31.9925 19.3523 32.6179C19.5897 33.2433 19.9264 33.7884 20.3623 34.2533C20.7981 34.7181 21.3221 35.0838 21.9318 35.3502C22.5427 35.6166 23.2205 35.7504 23.9663 35.7504C24.7121 35.7504 25.391 35.6178 26.0007 35.3502C26.6116 35.0838 27.1344 34.7181 27.5703 34.2533C28.0062 33.7884 28.3428 33.2433 28.5803 32.6179C28.8177 31.9925 28.9359 31.3226 28.9359 30.6047H28.9381ZM40.4336 30.6047C40.4336 31.4965 40.2886 32.2634 39.9977 32.9078C39.7079 33.5521 39.3054 34.085 38.7937 34.5063C38.281 34.9277 37.679 35.2399 36.9867 35.4439C36.2944 35.6479 35.552 35.7493 34.7594 35.7493H31.8432V25.46H34.7594C35.552 25.46 36.2944 25.5592 36.9867 25.7577C37.679 25.9561 38.281 26.266 38.7937 26.6874C39.3065 27.1088 39.7079 27.6439 39.9977 28.2938C40.2875 28.9426 40.4336 29.7129 40.4336 30.6047ZM32.1643 25.7499V35.4583H34.6836C35.4405 35.4583 36.1518 35.3636 36.8173 35.1752C37.4817 34.9868 38.0569 34.6958 38.5429 34.3035C39.0278 33.9111 39.4113 33.4094 39.6934 32.7996C39.9754 32.1899 40.1159 31.4575 40.1159 30.6047C40.1159 29.7519 39.9754 29.0184 39.6934 28.403C39.4113 27.7877 39.0278 27.2838 38.5429 26.8914C38.0569 26.499 37.4828 26.2103 36.8173 26.0263C36.1529 25.8424 35.4417 25.7499 34.6836 25.7499H32.1643ZM50.7384 31.8543C50.7384 32.4351 50.6704 32.9802 50.5344 33.4897C50.3984 33.998 50.1755 34.4417 49.8656 34.8196C49.5557 35.1975 49.151 35.4951 48.6516 35.7136C48.1522 35.9321 47.5402 36.0402 46.8134 36.0402C46.0865 36.0402 45.4734 35.931 44.9751 35.7136C44.4757 35.4951 44.071 35.1975 43.7611 34.8196C43.4512 34.4417 43.2283 33.998 43.0923 33.4897C42.9563 32.9813 42.8883 32.4362 42.8883 31.8543V25.46H43.2082V31.7963C43.2082 32.2032 43.2495 32.6369 43.3319 33.0973C43.4144 33.5577 43.5839 33.9835 43.8403 34.3759C44.0967 34.7683 44.4601 35.0949 44.9305 35.3569C45.4009 35.6189 46.0274 35.7493 46.8122 35.7493C47.597 35.7493 48.1957 35.6233 48.665 35.3714C49.1354 35.1195 49.501 34.7973 49.7619 34.4049C50.0239 34.0125 50.1978 33.5867 50.2847 33.1263C50.3717 32.6659 50.4151 32.2233 50.4151 31.7963V25.46H50.7351V31.8543H50.7384ZM62.1034 34.484C61.6676 35.0069 61.1169 35.397 60.4536 35.6545C59.7892 35.9109 59.1136 36.0391 58.4258 36.0391C57.65 36.0391 56.9432 35.9031 56.3033 35.6322C55.6635 35.3614 55.1116 34.9857 54.6468 34.5063C54.1819 34.027 53.8207 33.4529 53.5644 32.784C53.308 32.1152 53.1786 31.3883 53.1786 30.6036C53.1786 29.8188 53.3068 29.0919 53.5644 28.4231C53.8207 27.7542 54.1819 27.1801 54.6468 26.7008C55.1116 26.2214 55.6668 25.8457 56.3111 25.5749C56.9555 25.304 57.66 25.168 58.4258 25.168C59.0657 25.168 59.6877 25.2772 60.2931 25.4946C60.8984 25.7131 61.4145 26.0442 61.8415 26.4901L61.6375 26.7231C61.4335 26.5101 61.2038 26.3229 60.9474 26.1635C60.691 26.004 60.419 25.8703 60.1337 25.7633C59.8483 25.6562 59.5595 25.5793 59.2686 25.5303C58.9776 25.4823 58.6967 25.4578 58.4258 25.4578C57.689 25.4578 57.0179 25.5916 56.4126 25.858C55.8073 26.1244 55.2889 26.4901 54.8575 26.9549C54.4261 27.4198 54.0916 27.9649 53.8542 28.5903C53.6167 29.2157 53.4986 29.8868 53.4986 30.6036C53.4986 31.3203 53.6145 31.9914 53.8475 32.6168C54.0805 33.2422 54.4116 33.7873 54.843 34.2522C55.2744 34.717 55.7928 35.0827 56.3981 35.3491C57.0034 35.6155 57.6789 35.7493 58.4258 35.7493C59.0657 35.7493 59.6978 35.6256 60.322 35.3792C60.9474 35.1317 61.4636 34.7616 61.8705 34.2678L62.1034 34.4863V34.484ZM72.629 34.484C72.1932 35.0069 71.6425 35.397 70.9792 35.6545C70.3159 35.9109 69.6392 36.0391 68.9514 36.0391C68.1767 36.0391 67.4688 35.9031 66.8289 35.6322C66.189 35.3614 65.6372 34.9857 65.1724 34.5063C64.7075 34.027 64.3463 33.4529 64.0899 32.784C63.8335 32.1152 63.7042 31.3883 63.7042 30.6036C63.7042 29.8188 63.8324 29.0919 64.0899 28.4231C64.3463 27.7542 64.7075 27.1801 65.1724 26.7008C65.6372 26.2214 66.1924 25.8457 66.8367 25.5749C67.4811 25.304 68.1856 25.168 68.9514 25.168C69.5913 25.168 70.2133 25.2772 70.8187 25.4946C71.424 25.7131 71.9401 26.0442 72.3671 26.4901L72.1631 26.7231C71.9591 26.5101 71.7294 26.3229 71.473 26.1635C71.2166 26.004 70.9446 25.8703 70.6592 25.7633C70.3727 25.6562 70.0851 25.5793 69.7942 25.5303C69.5032 25.4823 69.2223 25.4578 68.9514 25.4578C68.2146 25.4578 67.5435 25.5916 66.9382 25.858C66.3328 26.1244 65.8145 26.4901 65.3831 26.9549C64.9517 27.4198 64.6172 27.9649 64.3798 28.5903C64.1423 29.2157 64.0242 29.8868 64.0242 30.6036C64.0242 31.3203 64.1401 31.9914 64.3731 32.6168C64.6061 33.2422 64.9372 33.7873 65.3686 34.2522C65.8 34.717 66.3184 35.0827 66.9237 35.3491C67.529 35.6155 68.2045 35.7493 68.9514 35.7493C69.5913 35.7493 70.2234 35.6256 70.8476 35.3792C71.473 35.1317 71.9892 34.7616 72.396 34.2678L72.629 34.4863V34.484ZM74.7214 35.7493V25.46H75.0414V35.7493H74.7214ZM88.209 30.6047C88.209 31.3995 88.0752 32.1285 87.8088 32.7918C87.5423 33.4551 87.1745 34.027 86.704 34.5063C86.2336 34.9857 85.674 35.3614 85.0252 35.6322C84.3764 35.9031 83.673 36.0391 82.9172 36.0391C82.1614 36.0391 81.4591 35.9031 80.8092 35.6322C80.1604 35.3614 79.6008 34.9857 79.1303 34.5063C78.6599 34.027 78.292 33.4551 78.0256 32.7918C77.7592 32.1285 77.6254 31.3995 77.6254 30.6047C77.6254 29.8098 77.758 29.0808 78.0256 28.4175C78.292 27.7542 78.6599 27.1823 79.1303 26.703C79.5996 26.2236 80.157 25.848 80.8014 25.5771C81.4457 25.3062 82.1502 25.1702 82.9161 25.1702C83.6819 25.1702 84.3864 25.3062 85.0308 25.5771C85.6751 25.848 86.2325 26.2236 86.7018 26.703C87.1722 27.1823 87.5401 27.7542 87.8065 28.4175C88.0729 29.0808 88.2067 29.811 88.2067 30.6047H88.209ZM87.889 30.6047C87.889 29.8879 87.7675 29.2168 87.5256 28.5914C87.2837 27.966 86.9415 27.4209 86.5011 26.956C86.0597 26.4912 85.5346 26.1255 84.9237 25.8591C84.3129 25.5927 83.6451 25.4589 82.9183 25.4589C82.1915 25.4589 81.5226 25.5927 80.9128 25.8591C80.3019 26.1255 79.7769 26.4912 79.3354 26.956C78.894 27.4209 78.5529 27.966 78.311 28.5914C78.0691 29.2168 77.9476 29.8879 77.9476 30.6047C77.9476 31.3215 78.0657 31.9925 78.3032 32.6179C78.5406 33.2433 78.8773 33.7884 79.3131 34.2533C79.749 34.7181 80.273 35.0838 80.8827 35.3502C81.4936 35.6166 82.1714 35.7504 82.9172 35.7504C83.6629 35.7504 84.3418 35.6178 84.9516 35.3502C85.5625 35.0838 86.0853 34.7181 86.5212 34.2533C86.9571 33.7884 87.2937 33.2433 87.5312 32.6179C87.7686 31.9925 87.8868 31.3226 87.8868 30.6047H87.889ZM98.5428 35.7493L91.1597 25.8669H91.1162V35.7493H90.7963V25.46H91.2467L98.6442 35.3279H98.6877V25.46H99.0077V35.7493H98.5428ZM102.09 35.7493V25.46H108.093V25.751H102.41V30.2714H107.759V30.5623H102.41V35.4606H108.326V35.7515H102.091L102.09 35.7493ZM116.362 33.2779C116.362 33.7137 116.278 34.1039 116.108 34.4484C115.939 34.7928 115.713 35.0827 115.433 35.3201C115.152 35.5576 114.819 35.737 114.437 35.8574C114.055 35.9789 113.655 36.0391 113.238 36.0391C112.598 36.0391 112.015 35.9254 111.486 35.698C110.958 35.4706 110.52 35.1629 110.171 34.775L110.418 34.5565C110.786 34.9534 111.215 35.2521 111.705 35.4505C112.194 35.649 112.7 35.7482 113.223 35.7482C113.601 35.7482 113.959 35.6924 114.299 35.581C114.638 35.4695 114.939 35.3101 115.2 35.1016C115.462 34.8932 115.667 34.6368 115.817 34.3313C115.968 34.0259 116.042 33.6747 116.042 33.2779C116.042 32.881 115.96 32.5466 115.795 32.2746C115.63 32.0037 115.417 31.7707 115.155 31.5767C114.893 31.3828 114.595 31.2211 114.261 31.0896C113.927 30.958 113.59 30.8399 113.251 30.734C112.824 30.598 112.435 30.4553 112.08 30.3048C111.727 30.1543 111.422 29.9704 111.165 29.753C110.909 29.5345 110.709 29.2736 110.569 28.9682C110.428 28.6627 110.358 28.2926 110.358 27.8568C110.358 27.4209 110.443 27.0497 110.612 26.7164C110.782 26.3819 111.013 26.101 111.302 25.8736C111.593 25.6462 111.93 25.4712 112.312 25.3508C112.695 25.2293 113.099 25.1691 113.526 25.1691C114.049 25.1691 114.546 25.2683 115.016 25.4667C115.486 25.6652 115.871 25.9483 116.172 26.3173L115.924 26.5358C115.653 26.1969 115.307 25.9327 114.885 25.7432C114.464 25.5537 114.006 25.46 113.512 25.46C113.163 25.46 112.822 25.5091 112.487 25.605C112.153 25.7019 111.85 25.8502 111.579 26.0486C111.308 26.2471 111.089 26.4968 110.924 26.7966C110.759 27.0976 110.677 27.451 110.677 27.8579C110.677 28.2648 110.749 28.5914 110.895 28.8679C111.04 29.1443 111.234 29.3795 111.477 29.5724C111.719 29.7664 111.994 29.9258 112.299 30.0517C112.604 30.1777 112.917 30.2936 113.236 30.4007C113.672 30.5456 114.079 30.6938 114.457 30.8443C114.835 30.9948 115.167 31.1765 115.453 31.3895C115.738 31.6024 115.961 31.8621 116.121 32.1664C116.281 32.4719 116.361 32.842 116.361 33.2779H116.362Z" fill="#989898"/>
</g>
<defs>
<clipPath id="clip0_10586_2115">
<rect width="117.228" height="36.0392" fill="white"/>
</clipPath>
</defs>
</svg>
