<svg width="131" height="31" viewBox="0 0 131 31" fill="none" xmlns="http://www.w3.org/2000/svg">
<path d="M90.2913 0.415527H96.9191L100.926 9.59774V0.448918H105.1V18.2123H99.7072L94.8657 7.24375V18.2123H90.2913V0.415527Z" fill="#989898"/>
<path d="M111.961 0.415527H107.253V18.2123H111.961V0.415527Z" fill="#989898"/>
<path d="M118.172 0.465088L113.197 18.2619H118.105L119.307 14.3052H124.366L125.534 18.2619H130.443L125.618 0.465088H118.172ZM121.561 4.77238L123.113 10.265H120.175L121.561 4.77238Z" fill="#989898"/>
<path d="M24.0959 4.63934H21.1577V8.27884H24.1126C24.6803 8.11189 25.0809 7.79469 25.2479 7.26045C25.8823 5.42401 24.8973 4.75621 24.0959 4.63934ZM30.223 5.47409C30.3065 9.68121 27.4182 10.132 25.9657 10.7163L31.0578 18.229H25.2646L21.0908 11.8182V18.229H16.483V0.415527H26.2162C29.7555 0.782816 30.1395 3.07002 30.1896 5.4574" fill="#989898"/>
<path d="M67.8867 4.63882H64.5978V8.72908H67.8867C68.4043 8.6623 69.0052 8.24492 69.1722 7.31001C69.2723 6.59213 69.5061 4.83916 67.8867 4.63882ZM73.7633 6.20814C73.4794 8.51204 73.613 9.49704 71.5762 11.5004C69.7064 13.3369 67.269 12.6023 64.5644 12.6691V18.1951H59.6561V0.465088H69.7064C69.7064 0.465088 74.4811 0.448393 73.7633 6.22484" fill="#989898"/>
<path d="M80.4412 4.77223L79.0556 10.2649H81.9939L80.4412 4.77223ZM89.3396 18.245H84.4313L83.2627 14.2883H78.2042L77.0021 18.245H72.0938L77.0689 0.448242H84.5148L89.3396 18.245Z" fill="#989898"/>
<path d="M13.628 7.32704V2.45212C11.6747 0.0313588 9.82159 -0.118895 6.95006 0.0480541C4.82981 0.148224 -0.178727 2.73594 0.00491718 9.46399C0.255341 18.2455 6.26553 18.8966 8.46926 18.7965C11.875 18.8799 14.3793 14.9065 14.3793 14.9065V9.31374H9.77151V14.3389C9.32075 14.4224 5.84818 17.0101 4.52928 11.2337C3.91157 8.47899 5.28053 4.92297 7.95172 4.72263C9.95511 4.55568 11.6747 5.12331 13.628 7.34374" fill="#989898"/>
<path d="M44.4636 4.75574H37.0343V7.07634H44.4636V11.1833H37.0343V13.938H44.4636V18.2119H32.1761V0.498535H44.4636V4.75574Z" fill="#989898"/>
<path d="M50.3903 5.72395C50.2902 7.71065 52.1767 7.27658 54.4973 8.16141C57.5859 9.34675 58.3706 10.649 58.2871 13.5038C58.2036 16.2751 55.0983 18.7627 51.7426 18.7126C47.5856 18.6792 47.8026 18.0281 46.1499 17.0264V12.4019C47.0013 13.22 52.9113 16.8428 53.6459 13.4537C54.0131 11.7174 51.1416 11.9345 49.0548 10.9161C47.6357 10.2316 45.9495 9.48031 45.5822 6.15802C45.2316 3.08615 48.4036 -0.236137 52.377 0.0309821C54.9313 0.197931 56.1668 0.314795 57.6193 1.71717V6.52531C55.7995 4.75565 50.5239 3.16963 50.3903 5.70726" fill="#989898"/>
<path d="M43.4619 29.6481C43.4118 29.7984 43.3951 29.9486 43.3784 30.1156C42.7941 30.4161 42.0595 30.5496 41.1747 30.5496C40.5403 30.5496 39.9893 30.4662 39.4885 30.2825C38.9876 30.1156 38.5703 29.8651 38.2364 29.5312C37.9025 29.214 37.6353 28.8301 37.4516 28.396C37.268 27.9619 37.1846 27.4778 37.1846 26.9769C37.1846 26.2256 37.3015 25.5912 37.5352 25.0737C37.7689 24.5562 38.0861 24.1221 38.4701 23.8049C38.8541 23.471 39.3216 23.2373 39.8391 23.087C40.3567 22.9367 40.9076 22.8533 41.4752 22.8533C41.6588 22.8533 41.8591 22.8533 42.0595 22.9034C42.2598 22.9534 42.4768 22.9701 42.6605 23.0202C42.8608 23.0703 43.0445 23.1204 43.2114 23.1872C43.3951 23.254 43.5453 23.3207 43.6622 23.3875C43.5954 23.5712 43.5286 23.7548 43.4952 23.9384C43.4618 24.1221 43.4284 24.3057 43.4117 24.4894H43.2615C42.9944 24.1388 42.7106 23.9051 42.4268 23.7548C42.143 23.6045 41.7923 23.5378 41.4083 23.5378C41.1245 23.5378 40.8241 23.6045 40.5403 23.7381C40.2565 23.8717 39.9893 24.072 39.7388 24.3391C39.5051 24.6062 39.3048 24.9401 39.1713 25.3575C39.021 25.7749 38.9542 26.259 38.9542 26.8434C38.9542 27.4277 39.021 27.8618 39.188 28.2624C39.3382 28.6631 39.5385 28.9803 39.7723 29.2307C40.006 29.4812 40.2898 29.6648 40.5903 29.7817C40.8908 29.8985 41.2081 29.9486 41.5086 29.9486C41.6756 29.9486 41.8591 29.9319 42.0427 29.8985C42.2264 29.8651 42.3934 29.7984 42.577 29.7316C42.7606 29.6648 42.911 29.5813 43.0612 29.4812C43.2115 29.381 43.345 29.2641 43.4619 29.1473L43.5955 29.2307C43.5454 29.381 43.4953 29.5312 43.4452 29.6982" fill="#989898"/>
<path d="M44.8643 24.3889C44.8643 23.9215 44.831 23.454 44.7976 22.9866C45.1148 22.9866 45.4487 23.0033 45.7492 23.02C46.0664 23.02 46.3836 23.0367 46.7008 23.0367C47.2351 23.0367 47.7025 23.0367 48.1199 23.0367C48.5372 23.0367 48.8043 23.02 48.9546 23.0033C48.9212 23.1201 48.9046 23.2704 48.9046 23.454C48.9046 23.5709 48.9046 23.6544 48.9046 23.7211C48.9046 23.7879 48.9212 23.8547 48.9379 23.9382C48.7376 23.9382 48.5039 23.9048 48.2534 23.8881C48.003 23.8881 47.7693 23.8547 47.5356 23.838C47.3018 23.838 47.0848 23.8046 46.9012 23.8046C46.7175 23.8046 46.584 23.8046 46.5005 23.8046C46.4671 24.2053 46.4504 24.5893 46.4504 24.9733C46.4504 25.3573 46.4504 25.7579 46.4504 26.1586C46.9178 26.1586 47.3352 26.1419 47.7192 26.1252C48.1032 26.1252 48.4872 26.0918 48.9046 26.0751C48.8879 26.192 48.8711 26.2922 48.8544 26.3589C48.8544 26.4257 48.8544 26.4925 48.8544 26.5593C48.8544 26.6094 48.8544 26.6762 48.8544 26.7429C48.8544 26.8097 48.8712 26.8932 48.8879 27.0101C48.0698 26.9433 47.2517 26.9099 46.4337 26.9099C46.4337 27.1436 46.4337 27.3773 46.4337 27.5944C46.4337 27.8281 46.4337 28.0618 46.4337 28.2789C46.4337 28.7463 46.4337 29.1971 46.4671 29.6312C46.8844 29.6312 47.2851 29.6312 47.7025 29.5978C48.1032 29.5811 48.5205 29.5477 48.9379 29.4809C48.9379 29.5644 48.9046 29.6312 48.9046 29.6979C48.9046 29.7647 48.9046 29.8482 48.9046 29.9651C48.9046 30.0819 48.9046 30.1654 48.9046 30.2322C48.9046 30.299 48.9212 30.349 48.9379 30.3991C48.7376 30.3991 48.5038 30.3991 48.22 30.3991C47.9362 30.3991 47.5522 30.3991 47.0514 30.3991H45.3485C45.1816 30.3991 45.0647 30.3991 44.9812 30.3991C44.8977 30.3991 44.8309 30.3991 44.7642 30.3991C44.7976 29.9484 44.8143 29.4976 44.831 29.0301C44.831 28.5627 44.8477 28.0284 44.8477 27.4441V25.975C44.8477 25.3739 44.8477 24.8397 44.831 24.3889" fill="#989898"/>
<path d="M53.6794 25.0238C53.6794 24.7066 53.646 24.4562 53.5792 24.2725C53.5125 24.0889 53.4123 23.9386 53.2787 23.8384C53.1452 23.7383 52.9782 23.6882 52.7612 23.6548C52.5442 23.6214 52.2937 23.6047 51.9932 23.6047C51.9765 24.5897 51.9598 25.558 51.9598 26.543C52.0099 26.543 52.0433 26.543 52.0767 26.5597C52.11 26.5597 52.1601 26.5597 52.1935 26.5597C52.6777 26.5597 53.0283 26.4262 53.2787 26.1757C53.5292 25.9253 53.6627 25.5413 53.6627 25.0238M51.9765 27.0105V27.4445C51.9765 28.0456 51.9765 28.5798 51.9932 29.0306C51.9932 29.498 52.0266 29.9488 52.0599 30.3995C51.9431 30.3995 51.8095 30.3829 51.6593 30.3829H50.691C50.5408 30.3829 50.4071 30.3829 50.2903 30.3995C50.3237 29.9488 50.3404 29.498 50.3571 29.0306C50.3571 28.5631 50.3738 28.0289 50.3738 27.4445V25.9754C50.3738 25.3744 50.3738 24.8401 50.3571 24.3894C50.3571 23.9219 50.3237 23.4545 50.2903 22.987C50.4071 22.987 50.5408 23.0204 50.691 23.0204C50.8413 23.0204 50.9915 23.0204 51.1752 23.0204C51.3755 23.0204 51.5925 23.0204 51.8429 22.987C52.0933 22.9703 52.3939 22.9536 52.7612 22.9536C53.0283 22.9536 53.262 22.9536 53.4624 22.9703C53.6627 22.9703 53.8296 23.0037 53.9632 23.0371C54.0967 23.0705 54.2304 23.1039 54.3305 23.154C54.4307 23.204 54.5309 23.2541 54.631 23.3209C54.8481 23.4878 55.015 23.6715 55.1486 23.9052C55.2821 24.139 55.3322 24.4228 55.3322 24.74C55.3322 25.2575 55.1819 25.6916 54.8981 26.0255C54.6143 26.3594 54.1969 26.5931 53.6627 26.7267C54.0133 27.3444 54.3805 27.9454 54.7812 28.5631C55.1819 29.1641 55.5659 29.7651 55.9666 30.3662C55.7996 30.3662 55.6327 30.3495 55.4825 30.3495H54.5141C54.3472 30.3495 54.1803 30.3495 54.03 30.3662L52.0934 26.9604H51.9932L51.9765 27.0105Z" fill="#989898"/>
<path d="M59.2388 25.0234C59.0551 25.4575 58.8715 25.8748 58.7045 26.3089C58.5376 26.743 58.3706 27.1603 58.2203 27.5944H60.1903C60.04 27.1603 59.8731 26.7263 59.7229 26.3089C59.5726 25.8915 59.4057 25.4575 59.2388 25.0234ZM63.0452 30.3992C62.8782 30.3992 62.7113 30.3825 62.561 30.3825H61.6428C61.4926 30.3825 61.3423 30.3825 61.1753 30.3992C61.0585 30.0486 60.9416 29.6813 60.8247 29.314C60.7078 28.9467 60.5743 28.5794 60.4408 28.2121C60.207 28.2121 59.9733 28.2121 59.7563 28.1954C59.5226 28.1954 59.2888 28.1954 59.0718 28.1954C58.8881 28.1954 58.7045 28.1954 58.5042 28.1954C58.3205 28.1954 58.1369 28.1954 57.9365 28.2121C57.7863 28.5794 57.6527 28.9467 57.5359 29.314C57.419 29.6813 57.3021 30.0486 57.2019 30.3992C57.1185 30.3992 57.035 30.3825 56.9516 30.3825H56.4339C56.3505 30.3825 56.2503 30.3825 56.1501 30.3992C56.2336 30.2155 56.3505 29.9484 56.5008 29.6312C56.651 29.2973 56.8012 28.93 56.9682 28.5126C57.1351 28.0953 57.3188 27.6445 57.5191 27.1603C57.7195 26.6762 57.9198 26.192 58.1201 25.7079C58.3205 25.2237 58.5042 24.7396 58.7045 24.2554C58.8882 23.788 59.0718 23.3372 59.2221 22.9365C59.2888 22.9365 59.3556 22.9699 59.4224 22.9699C59.4892 22.9699 59.5559 22.9699 59.6227 22.9699C59.6895 22.9699 59.7563 22.9699 59.8231 22.9699C59.8898 22.9699 59.9566 22.9532 60.0234 22.9365C60.2571 23.5542 60.5075 24.2053 60.758 24.9065C61.0251 25.6077 61.2923 26.2922 61.5427 26.96C61.8098 27.6278 62.0769 28.2789 62.3273 28.8799C62.5777 29.4809 62.8114 29.9985 63.0117 30.4158" fill="#989898"/>
<path d="M64.7647 27.995C64.6979 28.7963 64.6478 29.5977 64.5977 30.4157C64.5142 30.4157 64.4308 30.399 64.3306 30.399H63.8298C63.7463 30.399 63.6628 30.399 63.5793 30.4157C63.8131 29.1803 64.0134 27.9449 64.197 26.7261C64.3807 25.5074 64.5476 24.272 64.6979 23.0032C64.7814 23.0032 64.8481 23.0366 64.9149 23.0366C64.9817 23.0366 65.0485 23.0366 65.132 23.0366C65.1987 23.0366 65.2655 23.0366 65.3323 23.0366C65.3991 23.0366 65.4826 23.0199 65.566 23.0032C65.7664 23.4372 65.9667 23.8713 66.167 24.3221C66.3841 24.7728 66.5844 25.2069 66.8015 25.6577C67.0185 26.0917 67.2188 26.5425 67.4359 26.9599C67.6529 27.3772 67.8532 27.7946 68.0369 28.1619C68.4709 27.3605 68.905 26.5091 69.3224 25.641C69.7565 24.7561 70.1571 23.888 70.5411 23.0199C70.7247 23.0533 70.875 23.07 71.0086 23.07C71.1255 23.07 71.2757 23.0533 71.4593 23.0199C71.5261 23.6376 71.6096 24.3054 71.6931 25.0233C71.7765 25.7411 71.86 26.4256 71.9435 27.1101C72.027 27.7946 72.0938 28.429 72.1773 29.0133C72.2607 29.5977 72.3275 30.0818 72.3943 30.4324C72.2441 30.4324 72.1105 30.4157 71.9602 30.4157H71.0754C70.9251 30.4157 70.7748 30.4157 70.6246 30.4324C70.5912 29.6978 70.5244 28.8965 70.4409 28.0283C70.3575 27.1602 70.274 26.3088 70.1906 25.4573H70.1739C69.7732 26.3088 69.3558 27.1435 68.9718 27.9616C68.5711 28.7796 68.1872 29.5977 67.8032 30.4324C67.7698 30.4324 67.7363 30.4324 67.7029 30.4324C67.6696 30.4324 67.6362 30.4324 67.6028 30.4324C67.5694 30.4324 67.536 30.4324 67.5026 30.4324C67.4692 30.4324 67.4358 30.4324 67.4024 30.4324C67.0185 29.6311 66.6346 28.8297 66.2339 28.0117C65.8499 27.2103 65.4492 26.3922 65.0485 25.5575H65.0318C64.9149 26.3922 64.8315 27.2103 64.7647 28.0117" fill="#989898"/>
<path d="M73.78 24.3889C73.78 23.9215 73.7466 23.454 73.7133 22.9866C73.8301 22.9866 73.9637 23.02 74.1139 23.02C74.2642 23.02 74.4144 23.02 74.598 23.02C74.7817 23.02 74.9487 23.02 75.0823 23.02C75.2325 23.02 75.3661 23.0033 75.4829 22.9866C75.4495 23.454 75.4329 23.9215 75.4162 24.3889C75.4162 24.8564 75.3995 25.3906 75.3995 25.975V27.4441C75.3995 28.0451 75.3995 28.5627 75.4162 29.0301C75.4162 29.4976 75.4495 29.9484 75.4829 30.3991C75.3661 30.3991 75.2325 30.3824 75.0823 30.3824H74.1139C73.9637 30.3824 73.8468 30.3824 73.7133 30.3991C73.7466 29.9484 73.7633 29.4976 73.78 29.0301C73.78 28.5627 73.7967 28.0284 73.7967 27.4441V25.975C73.7967 25.3739 73.7967 24.8397 73.78 24.3889Z" fill="#989898"/>
<path d="M83.029 29.6481C82.9789 29.7984 82.9622 29.9486 82.9455 30.1156C82.3611 30.4161 81.6267 30.5496 80.7418 30.5496C80.1074 30.5496 79.5565 30.4662 79.0556 30.2825C78.5548 30.1156 78.1374 29.8651 77.8035 29.5312C77.4696 29.214 77.2024 28.8301 77.0188 28.396C76.8351 27.9619 76.7517 27.4778 76.7517 26.9769C76.7517 26.2256 76.8685 25.5912 77.1022 25.0737C77.336 24.5562 77.6532 24.1221 78.0371 23.8049C78.4378 23.471 78.8886 23.2373 79.4061 23.087C79.9237 22.9367 80.4747 22.8533 81.0423 22.8533C81.226 22.8533 81.4263 22.8533 81.6266 22.9034C81.8269 22.9534 82.0439 22.9701 82.2276 23.0202C82.4279 23.0703 82.6116 23.1204 82.7786 23.1872C82.9622 23.254 83.1125 23.3207 83.2293 23.3875C83.1626 23.5712 83.0957 23.7548 83.0623 23.9384C83.0289 24.1221 82.9956 24.3057 82.9789 24.4894H82.8287C82.5616 24.1388 82.2778 23.9051 81.9939 23.7548C81.7101 23.6045 81.3595 23.5378 80.9755 23.5378C80.6917 23.5378 80.3912 23.6045 80.1074 23.7381C79.8236 23.8717 79.5564 24.072 79.306 24.3391C79.0723 24.6062 78.872 24.9401 78.7384 25.3575C78.5882 25.7749 78.5214 26.259 78.5214 26.8434C78.5214 27.4277 78.5882 27.8618 78.7551 28.2624C78.9054 28.6631 79.1057 28.9803 79.3394 29.2307C79.5731 29.4812 79.8569 29.6648 80.1574 29.7817C80.4579 29.8985 80.7751 29.9486 81.0756 29.9486C81.2426 29.9486 81.4262 29.9319 81.6099 29.8985C81.7935 29.8651 81.9605 29.7984 82.1441 29.7316C82.3278 29.6648 82.478 29.5813 82.6283 29.4812C82.7785 29.381 82.9122 29.2641 83.029 29.1473L83.1625 29.2307C83.1124 29.381 83.0624 29.5312 83.0123 29.6982" fill="#989898"/>
<path d="M86.3179 25.0234C86.1343 25.4575 85.9506 25.8748 85.7837 26.3089C85.6167 26.743 85.4498 27.1603 85.2995 27.5944H87.2695C87.1193 27.1603 86.9523 26.7263 86.802 26.3089C86.6518 25.8915 86.4849 25.4575 86.3179 25.0234ZM90.141 30.3992C89.9741 30.3992 89.8071 30.3825 89.6569 30.3825H88.7387C88.5884 30.3825 88.4381 30.3825 88.2712 30.3992C88.1543 30.0486 88.0375 29.6813 87.9207 29.314C87.8038 28.9467 87.6702 28.5794 87.5366 28.2121C87.3029 28.2121 87.0692 28.2121 86.8522 28.1954C86.6184 28.1954 86.3847 28.1954 86.1677 28.1954C85.9841 28.1954 85.8004 28.1954 85.6 28.1954C85.4164 28.1954 85.2327 28.1954 85.0324 28.2121C84.8821 28.5794 84.7486 28.9467 84.6317 29.314C84.5148 29.6813 84.3979 30.0486 84.2978 30.3992C84.2143 30.3992 84.1309 30.3825 84.0474 30.3825H83.5299C83.4464 30.3825 83.3463 30.3825 83.2461 30.3992C83.3296 30.2155 83.4464 29.9484 83.5966 29.6312C83.7469 29.2973 83.8972 28.93 84.0641 28.5126C84.2311 28.0953 84.4146 27.6445 84.615 27.1603C84.8153 26.6762 85.0157 26.192 85.2161 25.7079C85.4164 25.2237 85.6 24.7396 85.8004 24.2554C85.984 23.788 86.1676 23.3372 86.3179 22.9365C86.3847 22.9365 86.4515 22.9699 86.5182 22.9699C86.585 22.9699 86.6518 22.9699 86.7186 22.9699C86.7853 22.9699 86.8521 22.9699 86.9189 22.9699C86.9857 22.9699 87.0524 22.9532 87.1192 22.9365C87.353 23.5542 87.6034 24.2053 87.8538 24.9065C88.1209 25.6077 88.3881 26.2922 88.6385 26.96C88.9056 27.6278 89.1727 28.2789 89.4231 28.8799C89.6736 29.4809 89.9073 29.9985 90.1077 30.4158" fill="#989898"/>
</svg>
