<svg width="133" height="67" viewBox="0 0 133 67" fill="none" xmlns="http://www.w3.org/2000/svg">
<g clip-path="url(#clip0_10769_1835)">
<path d="M66.7929 31.6391V30.1646H59.7635V41.4493H67.0084V39.968H61.3525V37.4633H66.2071V35.9955H61.3525V31.6391H66.7929Z" fill="#989898"/>
<path d="M71.8091 23.6199H66.1465V21.1151H71.0011V19.6541H66.1465V15.2977H71.5869V13.8164H64.5575V25.1012H71.8091V23.6199Z" fill="#989898"/>
<path d="M8.25484 2.91553C7.96532 2.91553 7.73639 3.14445 7.73639 3.43398C7.73639 3.72351 7.96532 3.95243 8.25484 3.95243C8.54437 3.95243 8.77329 3.72351 8.77329 3.43398C8.77329 3.14445 8.53763 2.91553 8.25484 2.91553Z" fill="#989898"/>
<path d="M35.3289 41.5974L40.0555 30.1646H38.3386L35.073 38.2713L31.8142 30.1646H30.0972L34.8239 41.5974H35.3289Z" fill="#989898"/>
<path d="M3.38004 41.7119L16.9339 55.2658C18.0246 55.2658 19.1222 55.1648 20.1995 54.956L5.17105 39.9209L3.38004 41.7119Z" fill="#989898"/>
<path d="M34.9316 25.2292C36.9448 25.2292 38.251 24.6704 39.4563 23.5796V19.6542H34.6825V21.1355H37.9144V22.839C37.1468 23.4382 36.1772 23.7278 34.9316 23.7278C32.474 23.7278 30.6897 21.93 30.6897 19.4522C30.6897 16.9744 32.4336 15.1766 34.7431 15.1766C36.7092 15.1766 37.47 16.0587 38.0693 16.7185L39.2072 15.6547C38.1972 14.4764 36.8775 13.6819 34.7767 13.6819C31.5718 13.6819 29.0536 16.2136 29.0536 19.4522C29.0536 22.6908 31.5785 25.2225 34.9316 25.2225V25.2292Z" fill="#989898"/>
<path d="M2.9828 13.4662L4.67282 17.5667L2.55861 21.8422C2.55861 21.8422 4.15437 25.0405 4.66609 27.8886C5.15761 30.6492 4.76035 34.9382 4.76035 34.9382L12.6583 30.9589C12.995 31.5178 13.4057 32.043 13.9107 32.548C15.2371 33.8744 15.6883 34.3255 15.6883 34.3255L21.8222 28.1983L21.4182 27.8213C18.9538 25.5118 17.8967 23.3303 17.8967 20.5428V17.5532L19.58 13.4729C19.8898 13.3585 20.1052 13.0622 20.1052 12.7188C20.1052 12.2744 19.7416 11.9108 19.2972 11.9108C18.8528 11.9108 18.4893 12.2677 18.4893 12.7188C18.4893 12.9141 18.5633 13.1026 18.6845 13.2373C18.4421 13.9308 17.8698 14.4694 17.1561 14.6647C16.7858 13.6884 16.8127 12.564 17.3177 11.554C17.7755 10.645 18.5364 9.99863 19.4184 9.66871C18.8394 8.92806 18.5229 7.97869 18.6037 6.96871C18.6845 5.95874 19.1491 5.06996 19.8426 4.43705C19.405 4.33605 17.9843 4.12059 16.4558 5.0161C15.6209 4.37645 15.0755 3.37321 15.0755 2.24204C15.0755 1.98618 15.1025 1.73705 15.1563 1.50139C14.7793 1.65625 14.3618 1.74378 13.9309 1.74378C12.6853 1.74378 11.6012 1.03007 11.0693 -0.00683594C10.5845 0.760744 9.72942 1.27246 8.75311 1.27246C7.77681 1.27246 6.93516 0.77421 6.44364 0.0200967C6.64564 2.28917 5.96559 4.96897 4.03317 6.38293L4.55836 7.08318C4.87482 6.84752 5.19801 6.57819 5.46733 6.2954C5.58853 6.16747 5.70973 6.10014 5.87132 6.10014C6.11372 6.10014 6.32245 6.30213 6.32245 6.56472C6.32245 6.68592 6.27531 6.76672 6.23491 6.85425C6.10025 7.12358 6.02619 7.42657 6.02619 7.74976C6.02619 8.07295 6.09352 8.34901 6.22145 8.6116L7.01596 8.24128C6.64564 7.44677 7.27855 6.70612 8.28179 5.96547C9.00224 5.43355 9.75635 4.92857 10.3085 4.92857C10.9279 4.92857 11.4262 5.43355 11.4262 6.04627C11.4262 6.73978 10.7394 7.2919 10.2142 7.62183C8.23466 8.86746 6.24165 9.77644 5.31921 11.9714C4.92868 12.8939 4.80749 13.8433 4.76709 14.3752C4.25537 14.0318 3.97257 13.5268 3.87158 13.244C3.99277 13.1026 4.06684 12.9208 4.06684 12.7256C4.06684 12.2812 3.70325 11.9176 3.25886 11.9176C2.81447 11.9176 2.45088 12.2744 2.45088 12.7256C2.45088 13.069 2.67308 13.3652 2.97607 13.4797L2.9828 13.4662ZM8.65212 31.8881L5.84439 33.2953C5.91172 31.7467 5.93866 29.4642 5.62893 27.7136C5.26534 25.6869 4.39676 23.5255 3.87158 22.327H8.65885V31.8881H8.65212ZM9.62842 31.4033V21.3575H3.88504L5.66933 17.7418H10.9616V20.5428C10.9616 21.3777 10.9683 23.1148 11.0895 24.9732C11.2107 26.7979 11.4666 28.5417 12.2005 30.1106L9.62169 31.4033H9.62842ZM20.4284 28.2185L15.6883 32.9452L14.6042 31.8612C12.7593 30.0096 12.2544 27.7472 12.0726 24.9058C11.985 23.5929 11.9446 22.1654 11.9446 20.536V17.735H16.9204V20.536C16.9204 23.4851 18.0045 25.8283 20.4284 28.2185ZM6.11372 12.3889C7.00923 10.0996 9.90448 8.96173 11.2376 8.01908C11.6012 7.75649 12.3486 7.01584 12.3352 6.03954C12.315 4.92183 11.4262 4.00612 10.3085 4.00612C9.2581 4.00612 7.73641 5.18443 7.01596 5.89814C6.81397 5.57495 6.58504 5.41335 6.24838 5.28542C6.90823 4.14079 7.14389 3.07695 7.32569 1.89191C7.76334 2.08044 8.24139 2.18144 8.74638 2.18144C9.58803 2.18144 10.3623 1.89865 10.9818 1.42059C11.7292 2.18144 12.7728 2.65949 13.9309 2.65949C14.0184 2.65949 14.106 2.65949 14.1868 2.65276C14.2945 3.8176 14.8534 4.84777 15.6883 5.56822C15.19 5.97894 14.786 6.43679 14.3888 7.02258C13.5269 8.28841 12.6247 8.92133 12.0187 9.23779C11.4733 9.52058 11.0693 9.59464 10.9481 9.61484C11.0155 9.93803 11.0559 10.2478 11.0559 10.5844C11.0559 11.1837 10.9414 11.7627 10.7394 12.2879L11.5878 12.6178C11.8302 11.9849 11.9648 11.2981 11.9648 10.5844C11.9648 10.5036 11.9648 10.4228 11.9648 10.3353C12.8065 10.0054 14.0521 9.26472 15.2102 7.5747C16.1596 6.18093 17.2234 5.62882 18.0853 5.42682C17.89 5.88468 17.7621 6.38293 17.7217 6.90811C17.6543 7.76996 17.8159 8.5914 18.1593 9.31858C17.486 9.76297 16.9204 10.3824 16.5299 11.1567C15.9509 12.3081 15.8835 13.5807 16.2337 14.7253C15.4324 14.6041 14.7726 14.052 14.483 13.3113C14.6379 13.1632 14.7389 12.9545 14.7389 12.7188C14.7389 12.2744 14.382 11.9108 13.9376 11.9108C13.4933 11.9108 13.1297 12.2677 13.1297 12.7188C13.1297 12.9545 13.2307 13.1632 13.3923 13.3113C13.0691 14.153 12.2476 14.7522 11.2982 14.7522C10.3489 14.7522 9.52743 14.153 9.1975 13.3113C9.3591 13.1632 9.4601 12.9545 9.4601 12.7188C9.4601 12.2744 9.10324 11.9108 8.65212 11.9108C8.201 11.9108 7.85087 12.2677 7.85087 12.7188C7.85087 12.9545 7.95187 13.1632 8.11346 13.3113C7.79027 14.153 6.97556 14.759 6.01272 14.7522C5.90499 14.7522 5.80399 14.7388 5.69626 14.7253C5.703 14.3348 5.75686 13.3517 6.13392 12.3889H6.11372ZM5.99252 15.6545C7.09676 15.6545 8.07307 15.0889 8.63192 14.2203C9.1975 15.0822 10.1671 15.6545 11.278 15.6545C12.389 15.6545 13.3586 15.0889 13.9242 14.2203C14.4898 15.0822 15.4593 15.6545 16.5636 15.6545C17.0012 15.6545 17.4187 15.567 17.8025 15.3986L17.2369 16.7655H5.31921L4.75362 15.3986C5.13741 15.5602 5.55487 15.6545 5.99252 15.6545Z" fill="#989898"/>
<path d="M14.9341 20.2061H13.9578V21.3574H12.8132V22.327H13.9578V23.4784H14.2945V24.9731H14.6042V23.4784H14.9341V22.327H16.0855V21.3574H14.9341V20.2061Z" fill="#989898"/>
<path d="M0 45.092L5.42019 50.5122C7.6758 52.7678 10.4364 54.2222 13.3586 54.8686L1.79102 43.301L0 45.092Z" fill="#989898"/>
<path d="M10.1469 34.9451L21.7144 46.5126C21.068 43.5972 19.6137 40.8298 17.3581 38.5742L11.9379 33.1541L10.1469 34.9451Z" fill="#989898"/>
<path d="M88.9315 13.6682H88.4265L83.6998 25.1011H85.3427L86.2719 22.8051H91.0928L92.022 25.1011H93.6582L88.9315 13.6682ZM86.8711 21.3238L88.6824 16.8934L90.4936 21.3238H86.8711Z" fill="#989898"/>
<path d="M49.4618 23.6199H43.8059V21.1151H48.6605V19.6541H43.8059V15.2977H49.2396V13.8164H42.2169V25.1012H49.4618V23.6199Z" fill="#989898"/>
<path d="M105.818 13.8164H104.209V25.1012H105.818V13.8164Z" fill="#989898"/>
<path d="M102.122 23.6199H97.146V13.8164H95.5502V25.1012H102.122V23.6199Z" fill="#989898"/>
<path d="M102.923 30.0164H102.425L97.6981 41.4493H99.3342L100.263 39.1532H105.084L106.013 41.4493H107.656L102.93 30.0164H102.923ZM100.863 37.672L102.674 33.2415L104.485 37.672H100.869H100.863Z" fill="#989898"/>
<path d="M4.21495 9.39277C5.19799 7.94514 5.36632 7.91148 5.36632 7.91148C5.36632 7.91148 4.43714 7.61522 3.85136 8.47706C2.87505 9.92469 2.71346 9.95836 2.71346 9.95836C2.71346 9.95836 3.64263 10.2411 4.21495 9.39277Z" fill="#989898"/>
<path d="M95.7993 30.1646H94.1901V41.4493H95.7993V30.1646Z" fill="#989898"/>
<path d="M39.2543 41.4493H40.8904L41.8196 39.1532H46.6406L47.5697 41.4493H49.2059L44.4792 30.0164H43.981L39.2543 41.4493ZM46.0413 37.672H42.4189L44.2301 33.2415L46.0413 37.672Z" fill="#989898"/>
<path d="M117.056 25.1011L117.985 22.8051H122.806L123.735 25.1011H125.371L120.645 13.6682H120.14L115.413 25.1011H117.049H117.056ZM120.396 16.9001L122.207 21.3305H118.591L120.402 16.9001H120.396Z" fill="#989898"/>
<path d="M111.07 33.4301L118.254 41.5974H118.759V30.1645H117.231V38.1769L110.047 30.0164H109.548V41.4493H111.07V33.4301Z" fill="#989898"/>
<path d="M124.644 13.8164V15.2977H127.977V25.1012H129.566V15.2977H133V13.8164H124.644Z" fill="#989898"/>
<path d="M57.6829 39.968H52.7004V30.1646H51.1114V41.4493H57.6829V39.968Z" fill="#989898"/>
<path d="M53.7171 17.0887L60.9014 25.2492H61.3996V13.8163H59.8712V21.8288L52.6937 13.6682H52.1887V25.1011H53.7171V17.0887Z" fill="#989898"/>
<path d="M111.218 25.1012H112.814V15.2977H116.12V13.8164H107.892V15.2977H111.218V25.1012Z" fill="#989898"/>
<path d="M125.378 30.0164L120.651 41.4493H122.288L123.217 39.1532H128.038L128.967 41.4493H130.603L125.876 30.0164H125.371H125.378ZM123.816 37.672L125.627 33.2415L127.438 37.672H123.816Z" fill="#989898"/>
<path d="M78.9463 30.1645H77.4246V38.1769L70.2403 30.0164H69.742V41.4493H71.2637V33.4301L78.448 41.5974H78.9463V30.1645Z" fill="#989898"/>
<path d="M86.9385 31.5314C88.6083 31.5314 89.5981 32.2855 90.3185 33.2753L91.5642 32.3798C90.6081 31.0264 89.1335 30.0366 86.9519 30.0366C83.6998 30.0366 81.249 32.5144 81.249 35.8069C81.249 39.0994 83.6998 41.5772 86.9856 41.5772C89.2884 41.5772 90.8033 40.5807 91.8672 39.086L90.6013 38.1905C89.8135 39.3014 88.6891 40.0758 87.0193 40.0758C84.6223 40.0758 82.8919 38.278 82.8919 35.8002C82.8919 33.3224 84.6357 31.5246 86.9452 31.5246L86.9385 31.5314Z" fill="#989898"/>
<path d="M76.125 21.9837H77.5188C77.8083 21.9837 78.044 21.9703 78.2662 21.9433L80.3804 25.1012H82.3128L79.8754 21.5393C81.4173 20.8728 82.232 19.6271 82.232 17.9169C82.232 15.3516 80.4679 13.8164 77.5188 13.8164H74.536V25.1012H76.125V21.9837ZM76.125 15.2977H77.4582C79.5724 15.2977 80.5958 16.1528 80.5958 17.9169C80.5958 19.681 79.5657 20.5226 77.4582 20.5226H76.125V15.2977Z" fill="#989898"/>
<path d="M6.76682 38.325L21.7952 53.3534C22.0039 52.2761 22.1117 51.1785 22.1049 50.0878L8.55111 36.5339L6.76009 38.325H6.76682Z" fill="#989898"/>
<path d="M34.6017 53.7506H33.6456C33.5917 54.1478 33.4772 54.4306 33.282 54.5989C33.0934 54.7673 32.8107 54.8548 32.4269 54.8548C32.0161 54.8548 31.6997 54.6999 31.4842 54.3835C31.2688 54.067 31.161 53.6092 31.161 53.0099V52.5184C31.161 51.9259 31.2822 51.4815 31.5044 51.1718C31.7266 50.8688 32.0498 50.7139 32.4673 50.7139C32.8241 50.7139 33.1002 50.8014 33.2887 50.9765C33.4772 51.1516 33.5917 51.4411 33.6388 51.8383H34.5949C34.5343 51.2324 34.3189 50.7678 33.9486 50.4311C33.5782 50.1012 33.0867 49.9329 32.474 49.9329C32.0229 49.9329 31.6189 50.0406 31.2755 50.256C30.9321 50.4715 30.6628 50.7812 30.481 51.1785C30.2992 51.5757 30.2049 52.0336 30.2049 52.5588V53.0772C30.2117 53.589 30.3059 54.0333 30.4877 54.4171C30.6695 54.8009 30.9321 55.0972 31.2688 55.3127C31.6054 55.5214 31.9959 55.6291 32.4336 55.6291C33.0665 55.6291 33.5715 55.4608 33.9486 55.1309C34.3256 54.8009 34.5478 54.3363 34.6017 53.7506Z" fill="#989898"/>
<path d="M37.1064 51.3606C36.7293 51.3606 36.3994 51.4481 36.1099 51.6232C35.8204 51.7983 35.5982 52.0474 35.4366 52.3706C35.275 52.6938 35.1942 53.0574 35.1942 53.4613V53.5085C35.1942 54.1549 35.3692 54.6666 35.7194 55.0571C36.0695 55.4476 36.5341 55.6361 37.1131 55.6361C37.4969 55.6361 37.8268 55.5486 38.1164 55.3736C38.4059 55.1985 38.6281 54.9494 38.783 54.6329C38.9378 54.3165 39.0186 53.9529 39.0186 53.5421V53.3267C38.9849 52.7342 38.7964 52.2628 38.453 51.906C38.1096 51.5491 37.6585 51.3673 37.0997 51.3673L37.1064 51.3606ZM37.8403 54.5252C37.6653 54.7676 37.4229 54.8888 37.1131 54.8888C36.8034 54.8888 36.561 54.7676 36.386 54.5319C36.2109 54.2895 36.1234 53.9596 36.1234 53.5354C36.1234 53.0574 36.2109 52.7005 36.3927 52.4581C36.5745 52.2157 36.8101 52.1012 37.1131 52.1012C37.4161 52.1012 37.6653 52.2224 37.8403 52.4648C38.0221 52.7072 38.1096 53.0372 38.1096 53.4546C38.1096 53.9259 38.0221 54.2828 37.847 54.5252H37.8403Z" fill="#989898"/>
<path d="M42.1024 52.3031C42.2169 52.4311 42.2707 52.6196 42.2707 52.8822V55.5485H43.1932V52.8283C43.1797 51.8453 42.7421 51.3538 41.8869 51.3538C41.3954 51.3538 40.9914 51.5356 40.6884 51.9059L40.6615 51.4278H39.7929V55.5418H40.7154V52.6129C40.8972 52.2762 41.1732 52.1079 41.5503 52.1079C41.8062 52.1079 41.9879 52.1685 42.1024 52.2964V52.3031Z" fill="#989898"/>
<path d="M46.8897 55.2859C47.1994 55.057 47.3475 54.754 47.3475 54.3904C47.3475 54.1682 47.3004 53.9797 47.1994 53.8248C47.0984 53.6699 46.9436 53.5353 46.7416 53.4275C46.5396 53.3198 46.25 53.2255 45.8864 53.1447C45.5229 53.0639 45.2805 52.9831 45.166 52.9091C45.0448 52.8283 44.9842 52.7205 44.9842 52.5792C44.9842 52.4243 45.0448 52.2964 45.1795 52.2021C45.3074 52.1078 45.4757 52.0607 45.6777 52.0607C45.8932 52.0607 46.0682 52.1213 46.2029 52.2358C46.3376 52.357 46.3982 52.4984 46.3982 52.6802H47.3206C47.3206 52.2896 47.1657 51.9799 46.8695 51.7308C46.5665 51.4884 46.1692 51.3672 45.6777 51.3672C45.2131 51.3672 44.8361 51.4884 44.5398 51.724C44.2436 51.9597 44.0887 52.256 44.0887 52.6128C44.0887 53.037 44.3176 53.3602 44.7822 53.5824C44.9909 53.6834 45.2535 53.7709 45.57 53.8315C45.8864 53.8921 46.1086 53.9729 46.2433 54.0604C46.378 54.148 46.4453 54.2692 46.4453 54.4375C46.4453 54.5856 46.3847 54.7068 46.2568 54.8011C46.1288 54.8954 45.947 54.9425 45.6979 54.9425C45.4488 54.9425 45.2468 54.8819 45.0919 54.7674C44.9371 54.653 44.8563 54.4846 44.8428 54.2624H43.9473C43.9473 54.5116 44.0214 54.7405 44.1695 54.9492C44.3176 55.1647 44.5196 55.3263 44.7889 55.4542C45.0583 55.5821 45.3545 55.636 45.6912 55.636C46.1894 55.636 46.5867 55.5215 46.8964 55.2926L46.8897 55.2859Z" fill="#989898"/>
<path d="M49.859 51.3606C49.5089 51.3606 49.1857 51.4481 48.9029 51.6299C48.6134 51.8117 48.3912 52.0608 48.2363 52.384C48.0747 52.7072 48.0007 53.0776 48.0007 53.4883V53.6027C48.0007 54.2155 48.1825 54.707 48.5461 55.0773C48.9096 55.4476 49.3877 55.6294 49.9735 55.6294C50.3169 55.6294 50.6266 55.5621 50.9027 55.4274C51.1787 55.2928 51.4009 55.1042 51.5625 54.8551L51.0643 54.3771C50.7949 54.7204 50.4515 54.8888 50.0274 54.8888C49.7244 54.8888 49.4752 54.7878 49.2732 54.5925C49.0712 54.3973 48.9635 54.1279 48.9298 53.7845H51.6164V53.4142C51.6164 52.7611 51.4615 52.2561 51.1585 51.8993C50.8555 51.5424 50.4179 51.3606 49.859 51.3606ZM50.7074 53.1112H48.9433C48.9837 52.7948 49.0847 52.5456 49.2396 52.3706C49.3944 52.1955 49.6032 52.108 49.8523 52.108C50.1014 52.108 50.3101 52.1888 50.4515 52.3436C50.5929 52.4985 50.6805 52.7342 50.7007 53.0439V53.1112H50.7074Z" fill="#989898"/>
<path d="M53.3198 49.7109H52.3974V55.5486H53.3198V49.7109Z" fill="#989898"/>
<path d="M55.3061 49.7109H54.3837V55.5486H55.3061V49.7109Z" fill="#989898"/>
<path d="M59.0498 55.4206C59.3258 55.2859 59.548 55.0974 59.7096 54.8483L59.2114 54.3702C58.9421 54.7136 58.5987 54.8819 58.1745 54.8819C57.8715 54.8819 57.6224 54.7809 57.4204 54.5857C57.2184 54.3904 57.1106 54.1211 57.077 53.7777H59.7635V53.4074C59.7635 52.7543 59.6086 52.2493 59.3056 51.8924C59.0027 51.5356 58.565 51.3538 58.0061 51.3538C57.656 51.3538 57.3328 51.4413 57.05 51.6231C56.7605 51.8049 56.5383 52.054 56.3835 52.3772C56.2219 52.7004 56.1478 53.0707 56.1478 53.4814V53.5959C56.1478 54.2086 56.3296 54.7001 56.6932 55.0705C57.0568 55.4408 57.5348 55.6226 58.1206 55.6226C58.464 55.6226 58.7737 55.5552 59.0498 55.4206ZM57.4002 52.3705C57.555 52.1954 57.7638 52.1079 58.0129 52.1079C58.262 52.1079 58.4707 52.1887 58.6121 52.3435C58.7535 52.4984 58.8411 52.7341 58.8613 53.0438V53.1111H57.0972C57.1376 52.7947 57.2386 52.5455 57.3934 52.3705H57.4002Z" fill="#989898"/>
<path d="M61.3929 51.8993L61.3727 51.4414H60.4907V55.5554H61.4131V52.7409C61.5612 52.4177 61.844 52.2561 62.2682 52.2561C62.3961 52.2561 62.5241 52.2696 62.6453 52.283V51.4145C62.5645 51.3808 62.45 51.3606 62.3221 51.3606C61.9248 51.3606 61.6151 51.5424 61.3929 51.8993Z" fill="#989898"/>
<path d="M64.2141 51.4343H63.2917V55.5483H64.2141V51.4343Z" fill="#989898"/>
<path d="M63.7495 49.8726C63.5812 49.8726 63.4532 49.9197 63.3657 50.014C63.2782 50.1082 63.231 50.2227 63.231 50.3708C63.231 50.5189 63.2782 50.6267 63.3657 50.7209C63.4532 50.8152 63.5879 50.8623 63.7495 50.8623C63.9111 50.8623 64.0458 50.8152 64.14 50.7209C64.2343 50.6267 64.2747 50.5122 64.2747 50.3708C64.2747 50.2294 64.2276 50.1082 64.14 50.014C64.0525 49.9197 63.9178 49.8726 63.7495 49.8726Z" fill="#989898"/>
<path d="M66.9747 53.037C66.3687 53.037 65.9041 53.1515 65.5742 53.3872C65.251 53.6228 65.0827 53.9595 65.0827 54.3971C65.0827 54.7473 65.2106 55.0368 65.4732 55.2725C65.7358 55.5081 66.0724 55.6293 66.4832 55.6293C66.8939 55.6293 67.2709 55.4745 67.5605 55.1715C67.5874 55.3465 67.6278 55.4745 67.6682 55.5553H68.6108V55.4879C68.5098 55.2657 68.456 54.9695 68.456 54.5991V52.7408C68.4492 52.3031 68.3011 51.9597 68.0116 51.7174C67.7221 51.475 67.3383 51.3538 66.8602 51.3538C66.5438 51.3538 66.2542 51.4076 65.9984 51.5221C65.7425 51.6366 65.5405 51.7847 65.3857 51.9867C65.2375 52.1819 65.1635 52.3974 65.1635 52.6196H66.0859C66.0859 52.458 66.1532 52.3233 66.2879 52.2156C66.4226 52.1079 66.5976 52.0607 66.8064 52.0607C67.0488 52.0607 67.2305 52.1213 67.3517 52.256C67.4729 52.3839 67.5335 52.5523 67.5335 52.7677V53.037H66.968H66.9747ZM67.5403 54.3971C67.4595 54.5453 67.3383 54.6665 67.1767 54.754C67.0151 54.8415 66.8468 54.8887 66.665 54.8887C66.4697 54.8887 66.3081 54.8348 66.1936 54.7338C66.0724 54.6261 66.0186 54.4847 66.0186 54.3096C66.0186 54.0942 66.1061 53.9258 66.2744 53.8046C66.4428 53.6834 66.7054 53.6228 67.0488 53.6228H67.547V54.3971H67.5403Z" fill="#989898"/>
<path d="M74.8053 49.7109H73.8829V51.8184C73.6136 51.5154 73.2634 51.3606 72.8258 51.3606C72.3343 51.3606 71.937 51.5558 71.6407 51.9396C71.3445 52.3234 71.1964 52.8351 71.1964 53.468C71.1964 54.1346 71.3445 54.6598 71.6407 55.0503C71.937 55.4409 72.3275 55.6294 72.8123 55.6294C73.2971 55.6294 73.6405 55.4611 73.9165 55.1244L73.9637 55.5486H74.7986V49.7109H74.8053ZM73.8761 54.3703C73.7011 54.7069 73.425 54.8753 73.048 54.8753C72.7517 54.8753 72.5228 54.7608 72.3612 54.5251C72.1996 54.2895 72.1188 53.9663 72.1188 53.5421C72.1188 53.064 72.1996 52.7072 72.3612 52.4715C72.5228 52.2359 72.7517 52.1147 73.0547 52.1147C73.4318 52.1147 73.7078 52.2763 73.8761 52.6062V54.3635V54.3703Z" fill="#989898"/>
<path d="M75.4854 51.3673L75.9567 51.6568C76.152 51.502 76.3136 51.2865 76.4482 51.0239C76.5829 50.7613 76.6502 50.4987 76.6502 50.2361V49.7109H75.8422V50.3102C75.8355 50.6805 75.7143 51.0306 75.4854 51.3606V51.3673Z" fill="#989898"/>
<path d="M78.5557 50.0139H77.5996V55.5486H78.5557V50.0139Z" fill="#989898"/>
<path d="M81.9492 52.3031C82.0637 52.4311 82.1175 52.6196 82.1175 52.8822V55.5485H83.04V52.8283C83.0265 51.8453 82.5889 51.3538 81.7338 51.3538C81.2422 51.3538 80.8382 51.5356 80.5353 51.9059L80.5083 51.4278H79.6397V55.5418H80.5622V52.6129C80.744 52.2762 81.02 52.1079 81.3971 52.1079C81.653 52.1079 81.8347 52.1685 81.9492 52.2964V52.3031Z" fill="#989898"/>
<path d="M86.0699 51.3605C85.5784 51.3605 85.1744 51.5423 84.8714 51.9126L84.8445 51.4346H83.9759V55.5485H84.8983V52.6196C85.0801 52.2829 85.3562 52.1146 85.7332 52.1146C85.9891 52.1146 86.1709 52.1752 86.2854 52.3031C86.3998 52.4311 86.4537 52.6196 86.4537 52.8822V55.5485H87.3761V52.8283C87.3627 51.8453 86.925 51.3538 86.0699 51.3538V51.3605Z" fill="#989898"/>
<path d="M91.4026 51.8993C91.0592 51.5424 90.6081 51.3606 90.0492 51.3606C89.6722 51.3606 89.3422 51.4481 89.0527 51.6232C88.7632 51.7983 88.541 52.0474 88.3794 52.3706C88.2178 52.6938 88.137 53.0574 88.137 53.4613V53.5085C88.137 54.1549 88.3121 54.6666 88.6622 55.0571C89.0123 55.4476 89.4769 55.6361 90.0559 55.6361C90.4397 55.6361 90.7697 55.5486 91.0592 55.3736C91.3487 55.1985 91.5709 54.9494 91.7258 54.6329C91.8806 54.3165 91.9614 53.9529 91.9614 53.5421V53.3267C91.9278 52.7342 91.746 52.2628 91.3958 51.906L91.4026 51.8993ZM90.7899 54.5252C90.6148 54.7676 90.3724 54.8888 90.0627 54.8888C89.753 54.8888 89.5106 54.7676 89.3355 54.5319C89.1604 54.2895 89.0729 53.9596 89.0729 53.5354C89.0729 53.0574 89.1604 52.7005 89.3422 52.4581C89.524 52.2157 89.7597 52.1012 90.0627 52.1012C90.3657 52.1012 90.6148 52.2224 90.7899 52.4648C90.9717 52.7072 91.0592 53.0372 91.0592 53.4546C91.0592 53.9259 90.9717 54.2828 90.7966 54.5252H90.7899Z" fill="#989898"/>
<path d="M94.2036 54.3767L93.3215 51.4343H92.3587L93.7996 55.5483H94.6008L96.0282 51.4343H95.0721L94.2036 54.3767Z" fill="#989898"/>
<path d="M98.9572 55.1646C98.9841 55.3397 99.0245 55.4676 99.0649 55.5484H100.008V55.4811C99.9065 55.2589 99.8527 54.9626 99.8527 54.5923V52.734C99.8459 52.2963 99.6978 51.9529 99.4083 51.7105C99.1255 51.4681 98.735 51.3469 98.2569 51.3469C97.9404 51.3469 97.6509 51.4008 97.3951 51.5153C97.1392 51.6297 96.9372 51.7778 96.7824 51.9798C96.6342 52.1751 96.5602 52.3906 96.5602 52.6128H97.4826C97.4826 52.4512 97.5499 52.3165 97.6846 52.2088C97.8193 52.101 97.9943 52.0539 98.2031 52.0539C98.4454 52.0539 98.6272 52.1145 98.7484 52.2492C98.8696 52.3771 98.9302 52.5454 98.9302 52.7609V53.0302H98.3646C97.7587 53.0302 97.2941 53.1447 96.9641 53.3803C96.641 53.616 96.4726 53.9527 96.4726 54.3903C96.4726 54.7404 96.6006 55.03 96.8631 55.2656C97.1257 55.5013 97.4624 55.6225 97.8731 55.6225C98.2838 55.6225 98.6609 55.4676 98.9504 55.1646H98.9572ZM97.3951 54.3028C97.3951 54.0873 97.4826 53.919 97.6509 53.7978C97.8193 53.6766 98.0818 53.616 98.4252 53.616H98.9235V54.3903C98.8427 54.5384 98.7215 54.6596 98.5599 54.7472C98.3983 54.8347 98.23 54.8818 98.0482 54.8818C97.8529 54.8818 97.6913 54.828 97.5769 54.727C97.4557 54.6192 97.4018 54.4778 97.4018 54.3028H97.3951Z" fill="#989898"/>
<path d="M103.953 54.9088C104.101 54.6866 104.182 54.451 104.196 54.1951H103.327C103.32 54.3904 103.233 54.5587 103.085 54.6934C102.93 54.828 102.741 54.8954 102.512 54.8954C102.209 54.8954 101.974 54.7876 101.812 54.5654C101.65 54.3432 101.57 54.0133 101.57 53.5689V53.4208C101.57 52.9764 101.657 52.6532 101.819 52.431C101.98 52.2088 102.209 52.1078 102.512 52.1078C102.748 52.1078 102.936 52.1819 103.091 52.3368C103.239 52.4916 103.32 52.6801 103.334 52.9158H104.202C104.189 52.4512 104.027 52.0742 103.718 51.7914C103.408 51.5086 103.011 51.3672 102.519 51.3672C101.94 51.3672 101.482 51.5557 101.152 51.9328C100.816 52.3098 100.647 52.8081 100.647 53.4343V53.5285C100.647 54.1884 100.816 54.7001 101.152 55.0704C101.489 55.4407 101.947 55.6293 102.519 55.6293C102.815 55.6293 103.091 55.5619 103.347 55.434C103.603 55.3061 103.805 55.131 103.953 54.9088Z" fill="#989898"/>
<path d="M105.805 50.014C105.711 49.9197 105.583 49.8726 105.414 49.8726C105.246 49.8726 105.118 49.9197 105.03 50.014C104.943 50.1082 104.896 50.2227 104.896 50.3708C104.896 50.5189 104.943 50.6267 105.03 50.7209C105.118 50.8152 105.253 50.8623 105.414 50.8623C105.576 50.8623 105.711 50.8152 105.805 50.7209C105.899 50.6267 105.939 50.5122 105.939 50.3708C105.939 50.2294 105.892 50.1082 105.805 50.014Z" fill="#989898"/>
<path d="M105.872 51.4343H104.95V55.5483H105.872V51.4343Z" fill="#989898"/>
<path d="M110.303 54.6262C110.457 54.3097 110.538 53.9461 110.538 53.5354V53.3199C110.505 52.7274 110.316 52.2561 109.973 51.8993C109.629 51.5424 109.178 51.3606 108.619 51.3606C108.242 51.3606 107.912 51.4481 107.623 51.6232C107.333 51.7983 107.111 52.0474 106.949 52.3706C106.788 52.6938 106.707 53.0574 106.707 53.4613V53.5085C106.707 54.1549 106.882 54.6666 107.232 55.0571C107.582 55.4476 108.047 55.6361 108.626 55.6361C109.003 55.6361 109.34 55.5486 109.629 55.3736C109.919 55.1985 110.141 54.9494 110.296 54.6329L110.303 54.6262ZM109.353 54.5252C109.178 54.7676 108.936 54.8888 108.626 54.8888C108.316 54.8888 108.067 54.7676 107.899 54.5319C107.724 54.2895 107.636 53.9596 107.636 53.5354C107.636 53.0574 107.724 52.7005 107.906 52.4581C108.087 52.2157 108.323 52.1012 108.626 52.1012C108.929 52.1012 109.178 52.2224 109.353 52.4648C109.528 52.7072 109.622 53.0372 109.622 53.4546C109.622 53.9259 109.535 54.2828 109.36 54.5252H109.353Z" fill="#989898"/>
<path d="M108.134 50.8623H108.875L109.925 49.7109H108.875L108.134 50.8623Z" fill="#989898"/>
<path d="M112.168 55.3262V54.6597H111.339V55.3801C111.339 55.5552 111.306 55.7302 111.252 55.9053C111.198 56.0804 111.097 56.2756 110.949 56.5113L111.447 56.8075C111.656 56.6325 111.831 56.4103 111.959 56.141C112.094 55.8716 112.161 55.6023 112.161 55.333L112.168 55.3262Z" fill="#989898"/>
<path d="M31.39 59.3594H30.4339V64.894H31.39V59.3594Z" fill="#989898"/>
<path d="M34.568 60.706C34.0765 60.706 33.6725 60.8877 33.3695 61.2581L33.3426 60.78H32.474V64.894H33.3965V61.965C33.5783 61.6284 33.8543 61.4601 34.2314 61.4601C34.4872 61.4601 34.669 61.5207 34.7835 61.6486C34.898 61.7765 34.9518 61.965 34.9518 62.2276V64.894H35.8743V62.1738C35.8608 61.1907 35.4231 60.6992 34.568 60.6992V60.706Z" fill="#989898"/>
<path d="M39.3216 61.1639C39.0523 60.8609 38.7022 60.706 38.2645 60.706C37.773 60.706 37.3757 60.9013 37.0795 61.2851C36.7832 61.6689 36.6351 62.1806 36.6351 62.8135C36.6351 63.4801 36.7832 64.0053 37.0795 64.3958C37.3757 64.7863 37.7663 64.9748 38.2511 64.9748C38.7358 64.9748 39.0792 64.8065 39.3553 64.4699L39.4024 64.894H40.2373V59.0564H39.3149V61.1639H39.3216ZM39.3216 63.7157C39.1466 64.0524 38.8705 64.2207 38.4935 64.2207C38.1972 64.2207 37.9683 64.1063 37.8067 63.8706C37.6451 63.6349 37.5643 63.3118 37.5643 62.8876C37.5643 62.4095 37.6451 62.0526 37.8067 61.817C37.9683 61.5813 38.1972 61.4601 38.5002 61.4601C38.8772 61.4601 39.1533 61.6217 39.3216 61.9517V63.709V63.7157Z" fill="#989898"/>
<path d="M42.4323 60.2078H43.173L44.2301 59.0564H43.173L42.4323 60.2078Z" fill="#989898"/>
<path d="M43.6712 63.736C43.5164 64.0592 43.2134 64.2208 42.7622 64.2208C42.3111 64.2208 42.1091 63.9582 42.1091 63.4397V60.7869H41.1867V63.4532C41.1867 63.9447 41.3012 64.3218 41.5301 64.5844C41.759 64.847 42.0957 64.9749 42.5468 64.9749C43.045 64.9749 43.4288 64.8133 43.7049 64.4968L43.7251 64.9008H44.5937V60.7869H43.6712V63.7427V63.736Z" fill="#989898"/>
<path d="M48.1421 62.7664C47.9333 62.6587 47.6506 62.5644 47.287 62.4836C46.9234 62.4028 46.681 62.322 46.5665 62.2479C46.4453 62.1671 46.3847 62.0594 46.3847 61.918C46.3847 61.7632 46.4453 61.6352 46.58 61.541C46.7079 61.4467 46.8762 61.3996 47.0782 61.3996C47.2937 61.3996 47.4688 61.4602 47.6034 61.5746C47.7381 61.6958 47.7987 61.8372 47.7987 62.019H48.7211C48.7211 61.6285 48.5663 61.3188 48.27 61.0696C47.967 60.8272 47.5697 60.7061 47.0782 60.7061C46.6136 60.7061 46.2366 60.8273 45.9403 61.0629C45.6441 61.2986 45.4892 61.5948 45.4892 61.9517C45.4892 62.3759 45.7181 62.6991 46.1827 62.9213C46.3914 63.0223 46.654 63.1098 46.9705 63.1704C47.287 63.231 47.5092 63.3118 47.6438 63.3993C47.7785 63.4868 47.8458 63.608 47.8458 63.7764C47.8458 63.9245 47.7852 64.0457 47.6573 64.14C47.5294 64.2342 47.3476 64.2814 47.0984 64.2814C46.8493 64.2814 46.6473 64.2208 46.4924 64.1063C46.3376 63.9918 46.2568 63.8235 46.2433 63.6013H45.3478C45.3478 63.8504 45.4219 64.0794 45.57 64.2881C45.7181 64.5036 45.9201 64.6651 46.1895 64.7931C46.4588 64.921 46.755 64.9749 47.0917 64.9749C47.59 64.9749 47.9872 64.8604 48.2969 64.6315C48.6067 64.4026 48.7548 64.0996 48.7548 63.736C48.7548 63.5138 48.7077 63.3252 48.6067 63.1704C48.5057 63.0155 48.3508 62.8809 48.1488 62.7731L48.1421 62.7664Z" fill="#989898"/>
<path d="M50.8084 64.1064C50.7478 64.039 50.7141 63.9246 50.7141 63.7697V61.4737H51.4413V60.7869H50.7141V59.7837H49.7917V60.7869H49.1184V61.4737H49.7917V63.8034C49.7917 64.5844 50.1486 64.9817 50.8555 64.9817C51.0508 64.9817 51.2528 64.9548 51.4615 64.8942V64.1804C51.3538 64.2074 51.2461 64.2208 51.1383 64.2208C50.9767 64.2208 50.869 64.1872 50.8084 64.1131V64.1064Z" fill="#989898"/>
<path d="M53.0505 61.2447L53.0303 60.7868H52.1483V64.9008H53.0707V62.0863C53.2189 61.7632 53.5016 61.6016 53.9258 61.6016C54.0538 61.6016 54.1817 61.615 54.3029 61.6285V60.7599C54.2221 60.7263 54.1144 60.7061 53.9797 60.7061C53.5824 60.7061 53.2727 60.8878 53.0505 61.2447Z" fill="#989898"/>
<path d="M55.4071 59.218C55.2388 59.218 55.1109 59.2652 55.0233 59.3594C54.9358 59.4537 54.8887 59.5681 54.8887 59.7163C54.8887 59.8644 54.9358 59.9721 55.0233 60.0664C55.1109 60.1607 55.2455 60.2078 55.4071 60.2078C55.5687 60.2078 55.7034 60.1607 55.7977 60.0664C55.8919 59.9721 55.9323 59.8577 55.9323 59.7163C55.9323 59.5749 55.8852 59.4537 55.7977 59.3594C55.7034 59.2652 55.5755 59.218 55.4071 59.218Z" fill="#989898"/>
<path d="M55.865 60.78H54.9425V64.894H55.865V60.78Z" fill="#989898"/>
<path d="M60.1203 62.0931C60.1136 61.6554 59.9655 61.312 59.676 61.0696C59.3932 60.8272 59.0026 60.7061 58.5246 60.7061C58.2081 60.7061 57.9186 60.7599 57.6627 60.8744C57.4069 60.9888 57.2049 61.137 57.05 61.339C56.9019 61.5342 56.8278 61.7497 56.8278 61.9719H57.7503C57.7503 61.8103 57.8176 61.6756 57.9523 61.5679C58.0869 61.4602 58.262 61.413 58.4707 61.413C58.7131 61.413 58.8949 61.4736 59.0161 61.6083C59.1373 61.7362 59.1979 61.9046 59.1979 62.12V62.3893H58.6323C58.0263 62.3893 57.5617 62.5038 57.2318 62.7395C56.9086 62.9751 56.7403 63.3118 56.7403 63.7494C56.7403 64.0996 56.8682 64.3891 57.1308 64.6248C57.3934 64.8604 57.7301 64.9816 58.1408 64.9816C58.5515 64.9816 58.9286 64.8267 59.2181 64.5238C59.2518 64.6988 59.2854 64.8267 59.3258 64.9075H60.2685V64.8402C60.1675 64.618 60.1136 64.3218 60.1136 63.9514V62.0931H60.1203ZM59.1979 63.7427C59.1171 63.8908 58.9959 64.012 58.8343 64.0996C58.6727 64.1871 58.5044 64.2342 58.3159 64.2342C58.1206 64.2342 57.959 64.1804 57.8445 64.0794C57.7301 63.9784 57.6695 63.8302 57.6695 63.6552C57.6695 63.4397 57.757 63.2714 57.9253 63.1502C58.1004 63.029 58.3563 62.9684 58.6996 62.9684H59.1979V63.7427Z" fill="#989898"/>
<path d="M61.1101 64.7191C61.1101 64.8942 61.0764 65.0692 61.0226 65.2443C60.9687 65.4193 60.8677 65.6146 60.7196 65.8503L61.2178 66.1465C61.4266 65.9715 61.6016 65.7493 61.7295 65.4799C61.8642 65.2106 61.9315 64.9413 61.9315 64.672V64.0054H61.1034V64.7258L61.1101 64.7191Z" fill="#989898"/>
<path d="M65.9647 60.5175C66.1869 60.2145 66.5101 60.0596 66.9276 60.0596C67.2844 60.0596 67.5605 60.1471 67.749 60.3222C67.9375 60.4973 68.052 60.7868 68.0991 61.184H69.0552C68.9946 60.5781 68.7792 60.1135 68.4089 59.7768C68.0385 59.4469 67.547 59.2786 66.9343 59.2786C66.4832 59.2786 66.0792 59.3863 65.7358 59.6018C65.3924 59.8172 65.1231 60.1269 64.9413 60.5242C64.7595 60.9215 64.6652 61.3793 64.6652 61.9045V62.4229C64.672 62.9347 64.7662 63.3791 64.948 63.7628C65.1298 64.1466 65.3924 64.4429 65.7291 64.6584C66.0657 64.8671 66.4562 64.9748 66.8939 64.9748C67.5268 64.9748 68.0318 64.8065 68.4089 64.4766C68.7859 64.1466 69.0081 63.682 69.062 63.0963H68.1059C68.052 63.4935 67.9375 63.7763 67.7423 63.9446C67.5537 64.113 67.2709 64.2005 66.8872 64.2005C66.4764 64.2005 66.16 64.0456 65.9445 63.7292C65.7291 63.4127 65.6213 62.9549 65.6213 62.3556V61.8641C65.6213 61.2716 65.7425 60.8272 65.9647 60.5175Z" fill="#989898"/>
<path d="M72.9133 61.2447C72.57 60.8878 72.1188 60.7061 71.56 60.7061C71.1829 60.7061 70.853 60.7936 70.5635 60.9686C70.2739 61.1437 70.0518 61.3928 69.8902 61.716C69.7286 62.0392 69.6478 62.4028 69.6478 62.8068V62.8539C69.6478 63.5003 69.8228 64.012 70.173 64.4026C70.5231 64.7931 70.9877 64.9816 71.5667 64.9816C71.9505 64.9816 72.2804 64.8941 72.57 64.719C72.8595 64.544 73.0817 64.2948 73.2365 63.9784C73.3914 63.6619 73.4722 63.2983 73.4722 62.8876V62.6721C73.4385 62.0796 73.25 61.6083 72.9066 61.2514L72.9133 61.2447ZM72.2939 63.8706C72.1188 64.113 71.8764 64.2342 71.5667 64.2342C71.257 64.2342 71.0146 64.113 70.8395 63.8774C70.6645 63.635 70.5769 63.305 70.5769 62.8809C70.5769 62.4028 70.6645 62.046 70.8463 61.8036C71.0281 61.5612 71.2637 61.4467 71.5667 61.4467C71.8697 61.4467 72.1188 61.5679 72.2939 61.8103C72.4757 62.0527 72.5632 62.3826 72.5632 62.8001C72.5632 63.2714 72.4757 63.6282 72.3006 63.8706H72.2939Z" fill="#989898"/>
<path d="M78.7308 60.706C78.1854 60.706 77.7679 60.9147 77.465 61.3389C77.263 60.9214 76.8859 60.706 76.3338 60.706C75.8288 60.706 75.4383 60.8743 75.1487 61.2109L75.1218 60.78H74.2532V64.894H75.1757V61.9112C75.3305 61.6082 75.5931 61.4601 75.9635 61.4601C76.4415 61.4601 76.6906 61.7025 76.7041 62.1872V64.894H77.6265V62.0728C77.6737 61.891 77.7679 61.7429 77.9026 61.6284C78.0373 61.5139 78.2056 61.4601 78.4211 61.4601C78.6837 61.4601 78.8722 61.5207 78.9866 61.6419C79.1011 61.7631 79.155 61.9516 79.155 62.2142V64.894H80.0774V62.1872C80.0774 61.6957 79.9562 61.3254 79.7408 61.0763C79.5186 60.8271 79.1819 60.6992 78.724 60.6992L78.7308 60.706Z" fill="#989898"/>
<path d="M82.737 60.7061C82.3869 60.7061 82.0637 60.7936 81.7809 60.9754C81.4914 61.1572 81.2692 61.4063 81.1143 61.7295C80.9527 62.0527 80.8787 62.423 80.8787 62.8337V62.9482C80.8787 63.5609 81.0605 64.0524 81.424 64.4228C81.7876 64.7931 82.2657 64.9749 82.8515 64.9749C83.1949 64.9749 83.5046 64.9075 83.7807 64.7729C84.0567 64.6382 84.2789 64.4497 84.4405 64.2006L83.9422 63.7225C83.6729 64.0659 83.3295 64.2342 82.9053 64.2342C82.6023 64.2342 82.3532 64.1332 82.1512 63.938C81.9492 63.7427 81.8415 63.4734 81.8078 63.13H84.4944V62.7597C84.4944 62.1065 84.3395 61.6016 84.0365 61.2447C83.7335 60.8878 83.2959 60.7061 82.737 60.7061ZM83.5854 62.4567H81.8213C81.8617 62.1402 81.9627 61.8911 82.1176 61.716C82.2724 61.541 82.4812 61.4534 82.7303 61.4534C82.9794 61.4534 83.1881 61.5342 83.3295 61.6891C83.4709 61.844 83.5585 62.0796 83.5787 62.3893V62.4567H83.5854Z" fill="#989898"/>
<path d="M86.117 61.2447L86.0968 60.7868H85.2148V64.9008H86.1372V62.0863C86.2854 61.7632 86.5681 61.6016 86.9923 61.6016C87.1203 61.6016 87.2482 61.615 87.3694 61.6285V60.7599C87.2886 60.7263 87.1741 60.7061 87.0462 60.7061C86.6489 60.7061 86.3392 60.8878 86.117 61.2447Z" fill="#989898"/>
<path d="M88.9517 61.7699C89.1133 61.5544 89.3422 61.4467 89.6452 61.4467C89.8809 61.4467 90.0694 61.5208 90.2243 61.6756C90.3724 61.8305 90.4532 62.019 90.4667 62.2547H91.3352C91.3218 61.7901 91.1602 61.413 90.8504 61.1302C90.5407 60.8474 90.1435 60.7061 89.6519 60.7061C89.0729 60.7061 88.615 60.8946 88.2851 61.2716C87.9484 61.6487 87.7801 62.1469 87.7801 62.7731V62.8674C87.7801 63.5272 87.9484 64.039 88.2851 64.4093C88.5342 64.6786 88.844 64.8537 89.2143 64.9277L89.0998 65.4327C89.3018 65.4462 89.4499 65.4731 89.5375 65.5203C89.625 65.5674 89.6721 65.6415 89.6721 65.7559C89.6721 65.8637 89.625 65.9444 89.5375 66.005C89.4499 66.0656 89.3153 66.0926 89.1537 66.0926L89.1806 66.611C89.5711 66.611 89.8809 66.537 90.0963 66.3888C90.3118 66.2407 90.4263 66.032 90.4263 65.7627C90.4263 65.3923 90.2377 65.1701 89.8539 65.1028L89.8876 64.9412C90.0963 64.9143 90.2983 64.8671 90.4869 64.7729C90.7427 64.6449 90.9447 64.4699 91.0928 64.2477C91.241 64.0255 91.3218 63.7898 91.3352 63.534H90.4667C90.4599 63.7292 90.3791 63.8976 90.2243 64.0322C90.0694 64.1669 89.8809 64.2342 89.6519 64.2342C89.3489 64.2342 89.1133 64.1265 88.9517 63.9043C88.7901 63.6821 88.7093 63.3522 88.7093 62.9078V62.7597C88.7093 62.3153 88.7968 61.9921 88.9584 61.7699H88.9517Z" fill="#989898"/>
<path d="M94.4931 59.218C94.3248 59.218 94.1968 59.2652 94.1093 59.3594C94.0218 59.4537 93.9746 59.5681 93.9746 59.7163C93.9746 59.8644 94.0218 59.9721 94.1093 60.0664C94.1968 60.1607 94.3315 60.2078 94.4931 60.2078C94.6547 60.2078 94.7893 60.1607 94.8836 60.0664C94.9779 59.9721 95.0183 59.8577 95.0183 59.7163C95.0183 59.5749 94.9711 59.4537 94.8836 59.3594C94.7893 59.2652 94.6614 59.218 94.4931 59.218Z" fill="#989898"/>
<path d="M94.951 60.78H94.0285V64.894H94.951V60.78Z" fill="#989898"/>
<path d="M97.5903 60.1337H99.3073V64.894H100.257V60.1337H101.987V59.3594H97.5903V60.1337Z" fill="#989898"/>
<path d="M105.084 63.736C104.929 64.0592 104.626 64.2208 104.175 64.2208C103.724 64.2208 103.522 63.9582 103.522 63.4397V60.7869H102.6V63.4532C102.6 63.9447 102.714 64.3218 102.943 64.5844C103.172 64.847 103.509 64.9749 103.953 64.9749C104.451 64.9749 104.835 64.8133 105.111 64.4968L105.131 64.9008H106V60.7869H105.078V63.7427L105.084 63.736Z" fill="#989898"/>
<path d="M107.852 61.2447L107.831 60.7868H106.949V64.9008H107.872V62.0863C108.02 61.7632 108.303 61.6016 108.727 61.6016C108.855 61.6016 108.983 61.615 109.104 61.6285V60.7599C109.023 60.7263 108.916 60.7061 108.781 60.7061C108.384 60.7061 108.074 60.8878 107.852 61.2447Z" fill="#989898"/>
<path d="M110.673 60.78H109.75V64.894H110.673V60.78Z" fill="#989898"/>
<path d="M110.208 59.218C110.04 59.218 109.912 59.2652 109.824 59.3594C109.737 59.4537 109.69 59.5681 109.69 59.7163C109.69 59.8644 109.737 59.9721 109.824 60.0664C109.912 60.1607 110.047 60.2078 110.208 60.2078C110.37 60.2078 110.505 60.1607 110.599 60.0664C110.693 59.9721 110.733 59.8577 110.733 59.7163C110.733 59.5749 110.686 59.4537 110.599 59.3594C110.505 59.2652 110.377 59.218 110.208 59.218Z" fill="#989898"/>
<path d="M114.282 62.7664C114.073 62.6587 113.79 62.5644 113.427 62.4836C113.063 62.4028 112.821 62.322 112.706 62.2479C112.585 62.1671 112.531 62.0594 112.531 61.918C112.531 61.7632 112.592 61.6352 112.726 61.541C112.854 61.4467 113.023 61.3996 113.225 61.3996C113.44 61.3996 113.615 61.4602 113.75 61.5746C113.885 61.6958 113.945 61.8372 113.945 62.019H114.868C114.868 61.6285 114.713 61.3188 114.41 61.0696C114.107 60.8272 113.709 60.7061 113.218 60.7061C112.76 60.7061 112.376 60.8273 112.08 61.0629C111.784 61.2986 111.629 61.5948 111.629 61.9517C111.629 62.3759 111.858 62.6991 112.322 62.9213C112.531 63.0223 112.794 63.1098 113.11 63.1704C113.427 63.231 113.649 63.3118 113.784 63.3993C113.918 63.4868 113.986 63.608 113.986 63.7764C113.986 63.9245 113.925 64.0457 113.797 64.14C113.669 64.2342 113.487 64.2814 113.245 64.2814C113.003 64.2814 112.794 64.2208 112.639 64.1063C112.484 63.9918 112.403 63.8235 112.39 63.6013H111.494C111.494 63.8504 111.568 64.0794 111.716 64.2881C111.865 64.5036 112.067 64.6651 112.336 64.7931C112.605 64.921 112.902 64.9749 113.238 64.9749C113.736 64.9749 114.134 64.8604 114.443 64.6315C114.753 64.4026 114.901 64.0996 114.901 63.736C114.901 63.5138 114.854 63.3252 114.753 63.1704C114.652 63.0155 114.497 62.8809 114.295 62.7731L114.282 62.7664Z" fill="#989898"/>
<path d="M120.173 60.706C119.628 60.706 119.211 60.9147 118.908 61.3389C118.706 60.9214 118.328 60.706 117.776 60.706C117.271 60.706 116.881 60.8743 116.591 61.2109L116.564 60.78H115.696V64.894H116.618V61.9112C116.773 61.6082 117.036 61.4601 117.406 61.4601C117.884 61.4601 118.133 61.7025 118.147 62.1872V64.894H119.069V62.0728C119.116 61.891 119.211 61.7429 119.345 61.6284C119.48 61.5139 119.648 61.4601 119.864 61.4601C120.126 61.4601 120.315 61.5207 120.429 61.6419C120.544 61.7631 120.598 61.9516 120.598 62.2142V64.894H121.52V62.1872C121.52 61.6957 121.399 61.3254 121.177 61.0763C120.954 60.8271 120.618 60.6992 120.167 60.6992L120.173 60.706Z" fill="#989898"/>
<path d="M124.18 60.7061C123.829 60.7061 123.506 60.7936 123.223 60.9754C122.941 61.1572 122.712 61.4063 122.557 61.7295C122.395 62.0527 122.321 62.423 122.321 62.8337V62.9482C122.321 63.5609 122.503 64.0524 122.867 64.4228C123.23 64.7931 123.708 64.9749 124.294 64.9749C124.637 64.9749 124.947 64.9075 125.223 64.7729C125.499 64.6382 125.721 64.4497 125.883 64.2006L125.385 63.7225C125.115 64.0659 124.772 64.2342 124.348 64.2342C124.045 64.2342 123.796 64.1332 123.594 63.938C123.392 63.7427 123.284 63.4734 123.25 63.13H125.937V62.7597C125.937 62.1065 125.782 61.6016 125.479 61.2447C125.176 60.8878 124.738 60.7061 124.18 60.7061ZM125.021 62.4567H123.257C123.298 62.1402 123.399 61.8911 123.553 61.716C123.708 61.541 123.917 61.4534 124.166 61.4534C124.415 61.4534 124.624 61.5342 124.765 61.6891C124.907 61.844 124.994 62.0796 125.014 62.3893V62.4567H125.021Z" fill="#989898"/>
</g>
<defs>
<clipPath id="clip0_10769_1835">
<rect width="133" height="66.6178" fill="white"/>
</clipPath>
</defs>
</svg>
