<svg width="156" height="39" viewBox="0 0 156 39" fill="none" xmlns="http://www.w3.org/2000/svg">
<path d="M52.2885 8.98169H49.3001V29.3161H52.2885V8.98169Z" fill="#989898"/>
<path d="M66.3289 24.0741C66.1286 24.6584 65.8114 25.2093 65.394 25.6768C65.01 26.1108 64.5259 26.4614 63.9916 26.6952C63.424 26.9289 62.8063 27.0457 62.1886 27.0457C60.8864 27.0457 59.8346 26.595 58.9999 25.6935C58.1651 24.7919 57.7477 23.5398 57.7477 21.9371C57.7477 21.2025 57.8479 20.4846 58.0816 19.7835C58.282 19.1991 58.5992 18.6482 59.0166 18.1807C59.4005 17.7467 59.8847 17.3961 60.4189 17.179C60.9866 16.9453 61.5876 16.8452 62.1886 16.8452C63.5075 16.8452 64.576 17.2959 65.4107 18.1807C66.2455 19.0656 66.6461 20.3177 66.6628 21.9204C66.6628 22.6383 66.5627 23.3729 66.3289 24.0574M66.2455 15.2424C65.2104 14.5913 64.025 14.2574 62.8063 14.2741C61.7044 14.2741 60.7695 14.5079 59.9849 14.9586C59.2169 15.4094 58.5658 16.0271 58.0816 16.7617C57.9815 16.9119 57.898 17.0622 57.8145 17.2124V8.99854H54.9597V29.333H57.8145V26.6952C57.898 26.8454 57.9815 26.9957 58.0816 27.1292C58.5658 27.8805 59.2169 28.4982 59.9849 28.9323C60.7695 29.383 61.7044 29.6168 62.823 29.6168C63.7412 29.6168 64.6594 29.4331 65.4942 29.0491C66.3122 28.6652 67.0301 28.1309 67.6311 27.4631C68.2655 26.7619 68.7497 25.9272 69.0669 25.0424C69.4175 24.0574 69.6011 23.0056 69.5844 21.9538C69.5844 20.4346 69.2839 19.1157 68.6829 17.9637C68.132 16.8618 67.2972 15.9269 66.2622 15.2591" fill="#989898"/>
<path d="M74.7933 18.0305C75.1439 17.5797 75.5946 17.2291 76.1122 17.0121C76.6631 16.7784 77.2474 16.6782 77.8484 16.6782C78.3994 16.6782 78.9336 16.7784 79.4178 16.9954C79.9186 17.2124 80.3527 17.5463 80.7033 17.9637C81.2375 18.5814 81.5714 19.4162 81.7217 20.4846H73.7582C73.8083 20.2175 73.8583 19.9504 73.9418 19.6833C74.1088 19.0823 74.3926 18.5313 74.7766 18.0305M81.4044 15.209C80.336 14.5746 79.1339 14.2407 77.8985 14.2574C76.9135 14.2574 75.9452 14.4244 75.0437 14.7917C74.1922 15.1423 73.4243 15.6765 72.7899 16.3443C72.1388 17.0455 71.6379 17.8635 71.3207 18.7651C70.9701 19.7835 70.8032 20.8519 70.8199 21.9204C70.8199 23.4563 71.1371 24.7919 71.7548 25.9439C72.3391 27.0624 73.2239 27.9974 74.3091 28.6318C75.4444 29.2996 76.7466 29.6335 78.0488 29.6001C78.8835 29.6001 79.735 29.4832 80.5363 29.2328C81.3377 28.9824 82.0889 28.5817 82.74 28.0474C83.4412 27.4464 84.0256 26.7285 84.4763 25.9105L82.2726 24.5415C82.0055 25.0924 81.6215 25.5933 81.1707 26.0107C80.7533 26.3779 80.2692 26.6618 79.7517 26.8287C79.2007 26.9957 78.6331 27.0791 78.0655 27.0791C77.2808 27.0791 76.5128 26.8955 75.8283 26.4948C75.1605 26.0774 74.6096 25.4764 74.2757 24.7585C73.9585 24.074 73.7749 23.3228 73.7415 22.5715H84.7267C84.7434 22.4379 84.7601 22.3044 84.7601 22.1708V21.7868C84.7601 20.2843 84.4596 18.9654 83.8753 17.8301C83.3244 16.745 82.4896 15.8268 81.4545 15.1923" fill="#989898"/>
<path d="M94.2428 14.2742H93.3914C92.5566 14.2742 91.7553 14.4912 91.0541 14.942C90.3696 15.376 89.8187 16.0605 89.3846 16.9787V14.558H86.5465V29.3163H89.3846V21.453C89.3846 20.2009 89.7018 19.1825 90.3529 18.4312C90.6367 18.0639 91.0207 17.7801 91.4381 17.5798C91.8555 17.3794 92.3229 17.2793 92.7904 17.296H94.2428V14.2742Z" fill="#989898"/>
<path d="M104.794 25.6766C104.41 26.1107 103.909 26.4613 103.375 26.695C102.807 26.9287 102.206 27.0456 101.589 27.0456C100.27 27.0456 99.2012 26.5948 98.3665 25.6933C97.5317 24.7918 97.1144 23.5397 97.1144 21.937C97.1144 21.2024 97.2145 20.4845 97.4483 19.8C97.6486 19.2157 97.9658 18.6647 98.3832 18.1973C98.7672 17.7632 99.2513 17.4126 99.7856 17.1956C100.353 16.9619 100.971 16.8617 101.589 16.8617C102.891 16.8617 103.943 17.3125 104.777 18.1973C105.612 19.0821 106.029 20.3342 106.029 21.937C106.029 22.6548 105.929 23.3727 105.696 24.0739C105.512 24.6749 105.195 25.2092 104.777 25.6933M105.963 17.2123C105.879 17.062 105.779 16.9118 105.696 16.7615C105.211 16.0269 104.56 15.4092 103.792 14.9585C103.024 14.5077 102.089 14.274 101.004 14.274C100.086 14.274 99.1678 14.4576 98.3164 14.8249C97.4983 15.1922 96.7638 15.7264 96.1628 16.4109C95.545 17.1121 95.0609 17.9469 94.7437 18.8317C94.3931 19.8334 94.2261 20.8852 94.2428 21.937C94.2428 23.4395 94.5433 24.7751 95.1277 25.927C95.6786 27.0289 96.5133 27.9638 97.5484 28.6316C98.5835 29.2827 99.7856 29.6166 101.004 29.5999C102.089 29.5999 103.024 29.3662 103.809 28.9154C104.577 28.4814 105.228 27.8637 105.712 27.1124C105.796 26.9788 105.896 26.8286 105.979 26.6783V29.2994H108.834V8.98169H105.996V17.1956L105.963 17.2123Z" fill="#989898"/>
<path d="M119.185 14.2742H118.35C117.516 14.2742 116.714 14.4912 116.013 14.942C115.329 15.376 114.778 16.0605 114.344 16.9787V14.558H111.489V29.3163H114.344V21.453C114.344 20.2009 114.661 19.1825 115.295 18.4312C115.596 18.0639 115.963 17.7801 116.38 17.5798C116.798 17.3794 117.265 17.2793 117.733 17.296H119.185V14.2742Z" fill="#989898"/>
<path d="M130.888 24.0909C130.688 24.6919 130.354 25.2428 129.92 25.7103C129.519 26.1443 129.018 26.4949 128.467 26.712C127.883 26.9457 127.265 27.0626 126.631 27.0626C125.813 27.0626 125.028 26.8622 124.327 26.4449C123.643 26.0275 123.075 25.4265 122.708 24.6919C122.307 23.9239 122.107 23.0057 122.107 21.9539C122.107 21.2193 122.207 20.5015 122.441 19.817C122.641 19.2326 122.975 18.6817 123.392 18.2143C123.793 17.7802 124.294 17.4296 124.845 17.2126C125.412 16.9788 126.03 16.8787 126.648 16.8787C127.482 16.8787 128.3 17.079 129.018 17.4964C129.72 17.9137 130.27 18.5148 130.638 19.2326C131.038 19.9839 131.239 20.9021 131.239 21.9706C131.239 22.7052 131.122 23.4231 130.888 24.1076M130.504 15.2259C129.319 14.5748 127.983 14.2409 126.648 14.2743C125.629 14.2743 124.628 14.4579 123.693 14.8252C122.791 15.1758 121.99 15.7267 121.305 16.4112C120.621 17.1124 120.087 17.9304 119.736 18.8487C119.352 19.8337 119.168 20.8854 119.185 21.9372C119.185 23.4398 119.502 24.7921 120.153 25.944C120.771 27.0793 121.706 28.0142 122.825 28.6653C123.993 29.3331 125.329 29.667 126.664 29.6336C127.683 29.6336 128.684 29.4499 129.636 29.066C130.521 28.6987 131.339 28.1644 132.007 27.4799C132.691 26.7954 133.226 25.9607 133.576 25.0592C133.96 24.0575 134.144 23.0057 134.127 21.9372C134.127 20.4013 133.81 19.0657 133.159 17.9137C132.541 16.7952 131.623 15.8603 130.504 15.2259Z" fill="#989898"/>
<path d="M139.002 26.3611C138.752 26.0606 138.635 25.6265 138.635 25.0589V8.98169H135.78V25.2592C135.763 25.9938 135.913 26.7117 136.214 27.3795C136.498 27.9805 136.965 28.4814 137.549 28.7986C138.234 29.1659 138.985 29.3495 139.753 29.3161H141.356V26.8119H140.187C139.62 26.8119 139.219 26.6616 138.985 26.3611" fill="#989898"/>
<path d="M151.306 26.8121C150.605 27.2128 149.737 27.4298 148.702 27.4298C147.667 27.4298 146.748 27.2295 146.047 26.8121C145.346 26.4114 144.979 25.8104 144.979 25.0424C144.979 24.6751 145.062 24.3078 145.246 23.9739C145.43 23.6567 145.713 23.3896 146.047 23.2227C146.748 22.822 147.633 22.6217 148.702 22.6217C149.77 22.6217 150.622 22.822 151.306 23.2394C151.64 23.4063 151.907 23.6734 152.091 23.9906C152.274 24.3078 152.375 24.6751 152.358 25.0424C152.358 25.8104 152.007 26.4114 151.306 26.8121ZM154.545 17.4629C154.194 16.7617 153.694 16.144 153.076 15.6432C152.458 15.159 151.74 14.8084 150.989 14.5914C150.188 14.3577 149.353 14.2575 148.501 14.2575C147.249 14.2408 146.014 14.5413 144.895 15.1423C143.827 15.7433 142.975 16.695 142.508 17.8302L144.745 19.1157C145.012 18.4145 145.496 17.8302 146.131 17.4295C146.765 17.0289 147.533 16.8118 148.435 16.8118C149.086 16.8118 149.737 16.9287 150.338 17.1624C150.905 17.3794 151.39 17.7801 151.723 18.2977C152.074 18.8152 152.241 19.5164 152.241 20.3678V22.0206C152.141 21.9205 152.041 21.8036 151.924 21.7201C151.022 20.9355 149.703 20.5348 147.967 20.5348C146.932 20.5348 145.914 20.7017 144.945 21.0523C144.094 21.3528 143.359 21.8871 142.808 22.605C142.308 23.3228 142.024 24.191 142.024 25.0758C142.024 25.9606 142.291 26.8288 142.792 27.5467C143.343 28.2478 144.061 28.7821 144.879 29.0993C145.813 29.4666 146.815 29.6502 147.834 29.6335C149.57 29.6335 150.922 29.2161 151.874 28.3981C152.057 28.2311 152.241 28.0475 152.391 27.8472V29.3163H155.096V20.1007C155.113 19.1825 154.929 18.281 154.545 17.4629Z" fill="#989898"/>
<path d="M22.5048 22.0874C22.5048 24.4247 23.423 26.6785 25.0758 28.3313C28.2478 31.5033 32.5551 31.5033 35.3098 30.0008C38.6654 28.181 46.2449 22.7051 38.3816 0C38.3816 10.7181 22.5048 11.8033 22.5048 22.0874Z" fill="#989898"/>
<path d="M29.7337 9.38255C29.2161 6.5778 28.3814 3.68958 27.1293 0C27.1293 10.7181 11.2524 11.8033 11.2524 22.0874C11.2524 24.4247 12.1706 26.6785 13.8067 28.3313C16.9787 31.5033 21.3194 31.5033 24.0407 30.0008C17.73 23.2727 19.9504 15.4762 29.7337 9.38255Z" fill="#989898"/>
<path d="M18.4813 9.38255C17.9637 6.5778 17.129 3.68958 15.8769 0C15.8769 10.7181 0 11.82 0 22.0874C0 27.363 4.2739 29.6836 4.2739 29.6836C3.6061 32.505 3.47254 35.4099 3.87322 38.2815L5.91 37.9476C4.90831 34.4917 5.52602 30.7187 5.5928 30.3514C8.19721 31.4032 10.8851 31.086 12.805 30.0342C6.49433 23.3061 8.71475 15.5096 18.498 9.41594" fill="#989898"/>
</svg>
