<svg width="97" height="35" viewBox="0 0 97 35" fill="none" xmlns="http://www.w3.org/2000/svg">
<path d="M13.9069 7.27914H2.33723L2.30391 9.68321H16.144L13.8568 12.1374H0V0.0168457L16.1273 0.0335406L13.8735 2.43761H2.30391V4.85837L16.1273 4.87507L13.9069 7.27914Z" fill="#989898"/>
<path d="M93.1243 7.27914L81.4545 7.29583L81.488 9.68321H95.3114L93.0242 12.1374H79.1506V0.0168457L95.2947 0.0335406L93.0409 2.43761H81.4545V4.85837H95.278L93.1243 7.27914Z" fill="#989898"/>
<path d="M29.8673 7.07871L32.3216 9.63303V2.43752H20.7686V9.68311H28.9826L26.545 7.0954H29.8506L29.8673 7.07871ZM32.3548 9.79998L32.3216 12.1373H20.4513C19.3661 12.1373 18.4647 11.2524 18.4647 10.1673V2.03684C18.4647 0.951669 19.3494 0.0334473 20.4346 0.0334473H32.622C33.7405 0.0334473 34.6088 0.951668 34.6088 2.05353V12.0872L32.3381 9.81667L32.3548 9.79998Z" fill="#989898"/>
<path d="M74.4595 4.85837V2.43761H62.9065V4.85837H74.4595ZM74.8769 7.26244H62.9232L62.9065 12.1207H60.5525V0.0168457H74.6765C75.8619 0.0168457 76.6131 0.784813 76.7467 1.93676L76.7133 5.34253C76.7133 6.26075 75.9453 7.27914 74.8434 7.27914" fill="#989898"/>
<path d="M53.3069 0.0166949V10.1505C53.3069 11.2023 52.422 12.1372 51.3702 12.1372H39.1998C38.0311 12.1372 37.1628 11.2524 37.1628 10.1004V0.0166949L39.45 0.0333898V9.66636H50.9863V0.0333898L53.3403 0L53.3069 0.0166949Z" fill="#989898"/>
<path d="M58.1319 12.1206H55.7611V0.0334473H58.1319V12.1206Z" fill="#989898"/>
<path d="M90.0023 25.2926V23.4728H93.5918C93.7921 23.4728 93.9758 23.5563 94.0593 23.6565C94.293 23.957 94.2428 25.2091 93.9256 25.2258L90.019 25.3093L90.0023 25.2926ZM93.4249 26.4946L94.6436 26.3944C95.2112 26.3443 95.6452 25.9437 95.6452 25.3593V23.3226C95.5784 22.7883 95.1443 22.3542 94.56 22.3542H88.4663V28.882H89.9689V26.4612H91.4046C92.4731 27.1624 93.7586 28.8987 94.3095 28.8987L96.2796 28.8653L93.4081 26.4946H93.4249Z" fill="#989898"/>
<path d="M80.3194 26.0607H83.3578C83.4246 25.5933 83.4079 25.3094 83.3578 24.9255H80.3194L80.3694 23.4563H85.5782V22.321H78.75V28.8988H85.5949V27.6801H80.3359V26.0607H80.3194Z" fill="#989898"/>
<path d="M73.9586 23.4898L74.0588 24.1576H75.5278C75.5779 23.6568 75.5947 23.1392 75.2775 22.7219C75.0772 22.4714 74.6597 22.3379 74.3258 22.3379H69.3675C68.6997 22.3546 68.3157 22.8888 68.3157 23.5232V27.7304C68.3157 28.3648 68.6997 28.8823 69.3675 28.8823H74.4428C74.9937 28.8823 75.4946 28.5484 75.5113 28.0309L75.5445 26.9958H74.0254C74.0254 27.2462 74.0587 27.4632 73.9251 27.697H69.8517V23.5399L73.9586 23.5065V23.4898Z" fill="#989898"/>
<path d="M34.6252 26.2776L36.1111 23.6398L37.4635 26.2442L34.6252 26.2776ZM35.3599 22.3709L31.6704 28.882H33.2229L33.991 27.4796H38.1813C38.4651 28.0472 38.6656 28.4646 38.9661 28.8987H40.6855L36.9126 22.3542L35.3599 22.3876V22.3709Z" fill="#989898"/>
<path d="M31.8874 22.3377H24.2745C24.1743 22.7718 24.191 23.1558 24.2745 23.5231H27.2963V28.8822L28.8154 28.8488L28.8488 23.5398L31.8707 23.5064V22.321L31.8874 22.3377Z" fill="#989898"/>
<path d="M44.3919 27.6636V22.3379L42.8225 22.3546V28.899H49.3503L49.3336 27.6636H44.3919Z" fill="#989898"/>
<path d="M20.7686 28.8823L22.3545 28.8656L22.3378 22.3379H20.7686V28.8823Z" fill="#989898"/>
<path d="M63.0734 19.099C62.9565 19.1825 62.8565 19.2659 62.7563 19.3494C62.6728 19.4162 62.4391 19.4496 62.3556 19.6332C62.3389 19.6833 62.2053 19.7668 62.0383 19.8169V31.3697C62.1552 31.6202 62.5225 31.7537 62.7229 31.8706C62.8064 31.9207 62.8396 32.0709 63.0066 32.0709C63.0733 32.0709 63.1069 32.1878 63.1403 32.2045L65.9616 34.2079V17.0288L63.0567 19.1157L63.0734 19.099Z" fill="#989898"/>
<path d="M58.1152 18.3976C57.9983 18.481 57.898 18.5645 57.7978 18.648C57.7144 18.7148 57.4807 18.7482 57.3972 18.9318C57.3805 18.9819 57.247 19.0654 57.0801 19.1154V30.6683C57.1969 30.9188 57.5643 31.0523 57.7646 31.1692C57.8481 31.2193 57.8814 31.3695 58.0483 31.3695C58.1151 31.3695 58.1486 31.4864 58.182 31.5031L61.0033 33.5065V16.3274L58.0984 18.4143L58.1152 18.3976Z" fill="#989898"/>
<path d="M53.3404 18.3976C53.2235 18.481 53.1232 18.5645 53.0231 18.648C52.9396 18.7148 52.7059 18.7482 52.6224 18.9318C52.6057 18.9819 52.4722 19.0654 52.3053 19.1154V30.6683C52.4222 30.9188 52.7893 31.0523 52.9896 31.1692C53.0731 31.2193 53.1066 31.3695 53.2735 31.3695C53.3403 31.3695 53.3736 31.4864 53.407 31.5031L56.2286 33.5065V16.3274L53.3237 18.4143L53.3404 18.3976Z" fill="#989898"/>
</svg>
