<svg width="208" height="19" viewBox="0 0 208 19" fill="none" xmlns="http://www.w3.org/2000/svg">
<g clip-path="url(#clip0_10586_5988)">
<path d="M43.29 0.0400391L34.56 0.0600391L28.83 5.65004V18.76L31.83 18.74V10.86L46.02 10.87L46.05 18.82L49.04 18.77V5.63004L43.29 0.0400391ZM31.86 7.94004L31.83 5.75004C31.81 4.42004 32.8 3.07004 34.21 3.06004L43.35 3.03004C44.63 3.02004 45.95 3.80004 45.96 5.21004L46 7.94004H31.86Z" fill="#989898"/>
<path d="M80.74 3.04009H95.12L95.1 0.0900879H80.54L74.92 5.78009L74.95 13.1201L80.5 18.7601H95.09V15.7901L80.3 15.7601C78.92 15.7601 77.85 14.5201 77.88 13.2301L77.93 10.8701H92.23V7.94009H77.89L77.87 5.78009C77.86 4.18009 79.13 3.04009 80.75 3.04009H80.74Z" fill="#989898"/>
<path d="M57.71 3.03009H72.11L72.09 0.0900879H57.49L51.82 5.82009L51.85 13.0301L57.45 18.7701H72.04V15.8101L56.96 15.7101C55.69 15.7101 54.85 14.2601 54.85 13.2301L54.9 5.32009C54.9 3.92009 56.38 3.04009 57.71 3.04009V3.03009Z" fill="#989898"/>
<path d="M23.01 0.0500488V9.86005C23.02 10.59 22.77 11.29 22.2 11.86L18.64 15.35C17.89 16.09 13.9 16.09 13.14 15.35L9.50999 11.79C8.99999 11.29 8.74999 10.59 8.74999 9.86005V0.0500488H5.73999L5.75999 9.99005L14.75 18.75C15.34 18.9 16.45 18.96 17 18.75L26.04 9.94005L26.01 0.0500488H23H23.01Z" fill="#989898"/>
<path d="M0 0.0600293L0.01 18.81L2.96 18.78L2.95 0.0300293L0 0.0600293Z" fill="#989898"/>
<path d="M109.5 0.100098H106.6L106.51 5.9701C106.5 6.7601 105.51 7.8601 104.69 7.8701L97.96 7.9601V10.9501H104.37L109.51 5.8201V0.100098H109.5Z" fill="#989898"/>
<path d="M111.7 7.93993L106.6 13.0099L106.57 18.7299H109.53L109.62 12.8799C109.64 11.8999 110.73 10.9599 111.62 10.9599L118.18 10.9199L118.16 7.92993H111.69L111.7 7.93993Z" fill="#989898"/>
<path d="M123.6 4.41991L122.51 5.46991L122.4 18.8099C123.45 18.8099 124.38 18.9499 125.4 18.7299L125.34 4.40991H123.59L123.6 4.41991Z" fill="#989898"/>
<path d="M156.9 7.14009L155.36 10.8801L153.93 7.61009C153.84 7.40009 153.74 7.17009 153.62 7.10009C153.47 7.01009 153.17 6.99009 152.96 7.10009L152.99 11.8601C153.27 11.9401 153.51 11.9101 153.69 11.8401L153.71 8.86009L154.81 11.5501C154.94 11.8601 155.13 11.9401 155.37 11.9101C155.55 11.8901 155.69 11.7901 155.79 11.5501L156.88 8.83009L156.97 11.9201C157.43 12.0401 157.64 11.7601 157.64 11.5201L157.62 7.06009C157.45 6.96009 156.96 6.98009 156.9 7.13009V7.14009Z" fill="#989898"/>
<path d="M186.48 4.85008L186.56 0.190077C186.56 0.0500767 185.89 0.0400767 185.88 0.190077L185.75 3.50008L183.47 0.150077C183.38 0.0200767 182.83 0.0500767 182.75 0.190077L182.72 4.90008C183 4.96008 183.19 4.96008 183.46 4.91008L183.57 1.56008L185.53 4.54008C185.69 4.78008 186.46 5.14008 186.47 4.83008L186.48 4.85008Z" fill="#989898"/>
<path d="M177.49 14.07L177.36 17.36L175.1 14.01C175 13.86 174.42 13.95 174.42 14.11L174.4 18.73C174.53 18.85 174.83 18.87 175.06 18.79L175.21 15.46L177.16 18.41C177.32 18.65 178.07 19.04 178.07 18.72L178.15 14.06C178.15 13.92 177.48 13.91 177.47 14.06L177.49 14.07Z" fill="#989898"/>
<path d="M201.8 0.110014L201.72 3.51001L199.68 0.460014C199.46 0.140014 199.14 -0.0199863 198.68 0.130014V4.95001H199.4L199.46 1.42001L201.75 4.87001C202 5.03001 202.43 5.03001 202.55 4.79001L202.51 0.110014H201.79H201.8Z" fill="#989898"/>
<path d="M147.86 13.9899L147.78 17.3899L145.74 14.3399C145.52 14.0199 145.21 13.8599 144.74 14.0099V18.8299H145.46L145.52 15.2999L147.81 18.7499C148.06 18.9099 148.49 18.9099 148.61 18.6699L148.57 13.9899H147.85H147.86Z" fill="#989898"/>
<path d="M134.98 1.41994L137.28 4.85994C137.42 5.06994 138.05 5.00994 138.05 4.78994V0.109943H137.32L137.25 3.66994L135.09 0.339943C134.92 0.0799434 134.57 -5.65946e-05 134.2 0.139943V4.95994H134.92L134.98 1.42994V1.41994Z" fill="#989898"/>
<path d="M143.03 14.1099L142.99 17.53L140.7 14.0999C140.56 13.8799 139.91 13.9099 139.91 14.0999V18.7299C139.91 18.8999 140.56 18.8899 140.57 18.6699L140.7 15.4299L142.65 18.3999C142.87 18.7399 143.64 19.06 143.65 18.62L143.72 14.0099C143.52 13.8699 143.03 13.9599 143.03 14.1099Z" fill="#989898"/>
<path d="M207.95 2.14999C207.75 0.629994 206.63 -0.120006 205.29 0.0199937C204.12 0.139994 203.32 1.10999 203.28 2.42999C203.24 3.97999 204.26 5.09999 205.74 5.02999C207.09 4.96999 208.16 3.72999 207.95 2.14999ZM205.55 4.33999C204.68 4.30999 203.98 3.47999 204.02 2.45999C204.06 1.58999 204.6 0.859994 205.31 0.739994C206.27 0.559994 207.09 1.15999 207.19 2.30999C207.29 3.51999 206.6 4.35999 205.55 4.33999Z" fill="#989898"/>
<path d="M151.58 13.8599C150.26 13.9099 149.35 14.8999 149.33 16.3099C149.3 17.8499 150.3 18.9599 151.78 18.8999C153.07 18.8399 154.1 17.7699 154.01 16.2299C153.93 14.7099 152.88 13.8199 151.58 13.8599ZM151.6 18.1999C150.77 18.1599 150.13 17.4599 150.07 16.5099C150.02 15.5399 150.58 14.7199 151.37 14.5999C152.45 14.4299 153.29 15.1899 153.25 16.4299C153.21 17.5599 152.51 18.2299 151.6 18.1999Z" fill="#989898"/>
<path d="M186.65 7.25994C185.78 6.89994 184.82 7.02994 183.87 7.05994L183.91 11.8699C184.82 11.9099 185.78 12.0299 186.67 11.6199C187.68 11.1599 187.96 10.1499 187.92 9.25994C187.88 8.47994 187.54 7.62994 186.65 7.25994ZM187.01 10.2599C186.72 10.9199 186.06 11.3499 184.68 11.2399L184.59 7.74994C185.36 7.60994 186.22 7.61994 186.76 8.20994C187.19 8.66994 187.34 9.52994 187.01 10.2599Z" fill="#989898"/>
<path d="M171.22 13.8699C169.79 13.9099 168.85 15.0599 168.94 16.5499C169.02 17.9999 170.08 18.9699 171.44 18.8999C172.68 18.8299 173.61 17.8299 173.63 16.3999C173.63 14.8499 172.54 13.8199 171.22 13.8699ZM171.45 18.1999C170.53 18.3099 169.76 17.5699 169.68 16.5399C169.61 15.5399 170.14 14.7299 171.01 14.5899C171.94 14.4499 172.75 15.0399 172.85 16.1999C172.94 17.2999 172.34 18.0799 171.45 18.1999Z" fill="#989898"/>
<path d="M195.36 7.17988C194.6 6.93988 193.79 7.02988 192.9 7.05988L192.87 11.8699C193.7 11.8999 194.65 12.0399 195.57 11.6599C196.61 11.2199 196.93 10.1899 196.9 9.30988C196.86 8.38988 196.37 7.48988 195.36 7.17988ZM195.96 10.3199C195.68 10.9399 194.88 11.3799 193.66 11.2199L193.57 7.82988C194.22 7.53988 195.15 7.64988 195.68 8.16988C196.19 8.65988 196.31 9.54988 195.96 10.3199Z" fill="#989898"/>
<path d="M162.38 5.03009C163.78 4.98009 164.74 3.94009 164.66 2.31009C164.58 0.780087 163.44 -0.0799131 162.14 0.0100869C160.9 0.100087 159.98 1.14009 159.96 2.47009C159.95 3.97009 161 5.07009 162.38 5.03009ZM162.35 0.700087C163.21 0.740087 163.95 1.42009 163.92 2.55009C163.89 3.63009 163.14 4.34009 162.36 4.34009C161.3 4.35009 160.69 3.51009 160.74 2.43009C160.78 1.43009 161.4 0.670087 162.35 0.700087Z" fill="#989898"/>
<path d="M149.9 11.9599C151.25 11.9599 152.31 10.9099 152.22 9.23989C152.13 7.70989 150.94 6.82989 149.66 6.93989C148.44 7.03989 147.58 8.03989 147.54 9.35989C147.5 10.8999 148.47 11.9699 149.9 11.9599ZM149.89 7.63989C150.78 7.66989 151.5 8.32989 151.46 9.49989C151.43 10.5599 150.69 11.2799 149.89 11.2699C148.87 11.2699 148.24 10.4299 148.29 9.37989C148.33 8.35989 148.95 7.59989 149.89 7.63989Z" fill="#989898"/>
<path d="M135.13 7.25006C134.27 6.91006 133.3 7.00006 132.46 7.10006V11.8701C133.35 11.9001 134.36 12.0401 135.33 11.5601C136.22 11.1201 136.51 10.1001 136.46 9.33006C136.42 8.50006 136 7.60006 135.13 7.25006ZM135.53 10.3101C135.27 10.9301 134.47 11.3601 133.23 11.2201L133.11 7.84006C133.77 7.54006 134.7 7.62006 135.25 8.18006C135.71 8.66006 135.86 9.53006 135.53 10.3101Z" fill="#989898"/>
<path d="M162.84 11.88H165.75C165.91 11.84 165.89 11.24 165.71 11.24L164.83 11.22C164.5 11.22 163.81 11.35 163.66 11.1C163.49 10.83 163.46 10.17 163.63 9.94003C163.99 9.46003 165.11 9.90003 165.58 9.70003C165.67 9.66003 165.68 9.18003 165.45 9.16003L163.67 9.05003C163.47 8.78003 163.52 8.07003 163.64 7.71003L165.81 7.68003C165.87 7.43003 165.86 7.23003 165.81 7.03003L162.84 7.07003V11.88Z" fill="#989898"/>
<path d="M147.08 10.3799C146.21 9.86988 145.73 11.9799 144.17 11.0399C143.7 10.7599 143.38 10.2299 143.36 9.45988C143.34 8.62988 143.78 7.98988 144.27 7.77988C145.92 7.05988 146.06 8.98988 147.1 8.59988C146.78 7.28988 145.69 6.75988 144.42 6.98988C143.35 7.18988 142.64 8.13988 142.62 9.36988C142.6 10.6699 143.26 11.6699 144.46 11.9099C145.56 12.1299 146.79 11.5299 147.09 10.3699L147.08 10.3799Z" fill="#989898"/>
<path d="M140.32 4.38009C139.82 4.39009 139.57 4.02009 139.25 3.64009C138.96 3.44009 138.55 3.76009 138.72 4.08009C139.14 4.91009 140 5.16009 140.93 4.96009C141.85 4.77009 142.21 4.05009 142.09 3.30009C141.87 1.91009 139.62 2.44009 139.49 1.48009C139.41 0.90009 139.94 0.67009 140.32 0.65009C141.24 0.61009 141.37 1.71009 141.9 1.37009C141.97 1.33009 142.08 1.21009 142.03 1.08009C141.76 0.26009 141.05 -0.0299102 140.2 0.0200898C139.28 0.0800898 138.67 0.72009 138.76 1.57009C138.93 3.21009 141.39 2.57009 141.37 3.61009C141.36 4.21009 140.75 4.37009 140.33 4.38009H140.32Z" fill="#989898"/>
<path d="M181.7 4.3301L179.57 4.3001V2.8901L181.64 2.8301C181.82 2.3001 181.52 2.1701 181.21 2.1701H179.56V0.760098H181.81V0.100098L178.88 0.140098V4.9501H181.61C181.9 4.9501 181.94 4.3301 181.7 4.3201V4.3301Z" fill="#989898"/>
<path d="M189.74 7.16005L188.03 11.7601C188.23 12.0001 188.68 11.9301 188.75 11.7801L189.09 10.9801C189.33 10.4201 190.89 10.5001 191.24 11.0401C191.49 11.4401 191.53 11.8001 191.69 11.8901C191.79 11.9601 192.2 11.9201 192.27 11.7601L190.59 7.16005C190.51 6.95005 189.82 6.94005 189.74 7.16005ZM189.44 9.94005L190.16 8.10005L190.87 9.92005C190.45 10.1001 189.93 10.1001 189.44 9.94005Z" fill="#989898"/>
<path d="M163.82 17.9799C163.27 17.6799 162.94 17.0399 162.99 16.2299C163.04 15.3999 163.43 14.8999 163.92 14.6999C164.44 14.4799 165.38 14.4699 165.6 15.0799C165.77 15.5299 166.59 15.6599 166.56 15.3899C166.45 14.0899 164.97 13.6599 163.88 13.9599C162.91 14.2199 162.25 15.1399 162.23 16.3199C162.21 17.6299 162.89 18.6399 164.1 18.8699C165.18 19.0699 166.42 18.4999 166.72 17.3299C165.84 16.8199 165.42 18.8699 163.82 17.9899V17.9799Z" fill="#989898"/>
<path d="M171.27 4.85005L171.61 4.06005C171.86 3.49005 173.39 3.54005 173.76 4.10005C174.01 4.47005 174.06 4.85005 174.2 4.94005C174.31 5.01006 174.72 4.99005 174.82 4.81005L173.1 0.230055C173.01 -0.0099453 172.44 0.0400547 172.32 0.170055C172.22 0.280055 172.14 0.470055 172.04 0.740055L170.58 4.83005C170.73 5.04005 171.2 5.01005 171.27 4.85005ZM172.67 1.17005L173.45 3.11005C172.97 3.17005 172.62 3.20005 171.95 3.11005L172.67 1.17005Z" fill="#989898"/>
<path d="M159.96 13.9599C159.7 13.9699 159.54 14.1099 159.41 14.4699L157.88 18.7199C158.03 18.9199 158.5 18.8999 158.57 18.7499L158.93 17.9399C159.17 17.4099 160.7 17.4099 161.08 17.9399C161.34 18.2999 161.35 18.7199 161.5 18.8199C161.61 18.8999 162.05 18.8599 162.12 18.6999L160.58 14.3899C160.46 14.0499 160.22 13.9499 159.96 13.9599ZM159.32 16.9599L159.98 15.0599C160.41 15.7399 160.49 16.2299 160.74 16.9799L159.32 16.9599Z" fill="#989898"/>
<path d="M196.13 0.100016C195.97 0.0400164 195.62 0.0300164 195.53 0.270016L193.85 4.84002C193.97 5.01002 194.54 5.06002 194.59 4.91002L194.87 4.07002C195.06 3.50002 196.66 3.53002 197.03 4.08002C197.28 4.46002 197.31 4.84002 197.46 4.94002C197.56 5.02002 198.03 4.97002 198.07 4.82002L196.54 0.510016C196.44 0.230016 196.27 0.140016 196.13 0.100016ZM195.23 3.11002L195.94 1.18002C196.37 1.86002 196.43 2.34002 196.71 3.12002H195.23V3.11002Z" fill="#989898"/>
<path d="M191.76 3.56992C191.81 3.41992 191.32 3.27992 191.15 3.38992C190.79 3.62992 190.24 4.81992 188.91 4.15992C188.34 3.86992 188.02 3.17992 188.08 2.32992C188.15 1.33992 188.74 0.809918 189.44 0.709918C190.23 0.599918 190.7 1.13992 191.2 1.74992C191.48 1.90992 191.89 1.59992 191.73 1.27992C191.18 0.199918 190.09 -0.160082 189.03 0.0999179C188.02 0.339918 187.36 1.26992 187.33 2.43992C187.3 3.67992 187.91 4.72992 189.07 4.96992C190.08 5.17992 191.34 4.85992 191.76 3.58992V3.56992Z" fill="#989898"/>
<path d="M153.96 5.02001C154.66 4.99001 155.62 4.65001 155.64 3.76001L155.72 0.130012C155.58 0.0300118 155.17 0.0400118 155.06 0.200012L154.95 3.53001C154.93 4.14001 154.23 4.36001 153.76 4.32001C153.39 4.29001 152.78 4.07001 152.77 3.53001L152.69 0.100012C152.39 0.0600118 152.24 0.0600118 152 0.100012L152.08 3.76001C152.1 4.71001 153.18 5.04001 153.97 5.00001L153.96 5.02001Z" fill="#989898"/>
<path d="M135.27 18.18L134.39 18.16C134.06 18.16 133.37 18.29 133.22 18.05C133.04 17.77 133.03 17.11 133.19 16.88C133.53 16.41 134.65 16.84 135.16 16.64C135.28 16.59 135.33 16.12 135.04 16.1L133.23 15.99C133.02 15.73 133.08 15.01 133.19 14.65L135.36 14.61C135.42 14.36 135.41 14.16 135.36 13.95H132.48L132.49 18.82L135.31 18.79C135.48 18.77 135.45 18.16 135.27 18.16V18.18Z" fill="#989898"/>
<path d="M140.06 11.24L139.18 11.22C138.85 11.22 138.16 11.35 138.01 11.11C137.81 10.79 137.83 10.17 137.98 9.93002C138.28 9.46002 139.43 9.89002 139.94 9.69002C140.05 9.65002 140.11 9.17002 139.82 9.15002L138 9.05002C137.8 8.78002 137.85 8.07002 137.97 7.71002L140.14 7.68002C140.2 7.42002 140.19 7.23002 140.14 7.02002H137.26L137.27 11.89L140.09 11.86C140.26 11.84 140.23 11.23 140.05 11.23L140.06 11.24Z" fill="#989898"/>
<path d="M160.77 7.05005H158.7L158.75 11.82C158.94 11.95 159.35 11.98 159.39 11.84C159.53 11.34 159.33 10.66 159.43 10.26C159.47 10.12 159.84 10.09 160.18 10.13C161.43 10.31 162.04 9.73005 162.16 8.73005C162.25 8.00005 161.75 7.05005 160.77 7.05005ZM160.6 9.51005C160.24 9.57005 159.77 9.61005 159.53 9.54005C159.41 9.50005 159.32 8.21005 159.44 7.85005C159.52 7.60005 161.15 7.40005 161.4 8.40005C161.5 8.78005 161.31 9.38005 160.6 9.51005Z" fill="#989898"/>
<path d="M125.37 2.89002L125.35 0.0200195H122.5V1.91002L123.4 2.90002C123.4 2.90002 125.35 2.95002 125.37 2.89002Z" fill="#989898"/>
<path d="M157.71 14.0501L156.33 17.5901L154.87 14.0801C154.77 13.8401 154.08 13.9201 154.13 14.0901L155.84 18.6301C155.95 18.9201 156.57 18.9201 156.67 18.6401L158.42 13.9901C158.26 13.8701 157.77 13.9001 157.71 14.0401V14.0501Z" fill="#989898"/>
<path d="M180.92 7.07991L180.65 7.51991L179.39 10.6799L178.03 7.18991C177.95 6.97991 177.43 6.93991 177.25 7.18991L179.01 11.8099C179.07 11.9699 179.71 11.9799 179.78 11.8099L181.5 7.18991C181.55 7.05991 181 6.95991 180.92 7.07991Z" fill="#989898"/>
<path d="M169.03 4.95992C169.28 4.91992 169.4 4.71992 169.51 4.42992L171.09 0.119919C170.86 -0.0100809 170.4 0.0499191 170.32 0.259919L168.94 3.79992L167.47 0.119919C167.33 0.0699191 167 0.0499191 166.77 0.129919L168.44 4.61992C168.56 4.92992 168.82 4.99992 169.03 4.96992V4.95992Z" fill="#989898"/>
<path d="M175.28 7.74007C175.32 7.57007 175.34 7.35007 175.28 7.07007H171.72C171.66 7.35007 171.69 7.56007 171.72 7.74007C172.29 7.66007 172.56 7.66007 173.12 7.74007L173.14 11.8501C173.32 11.9401 173.75 11.9201 173.84 11.8001L173.87 7.74007C174.42 7.66007 174.69 7.65007 175.26 7.74007H175.28Z" fill="#989898"/>
<path d="M156.63 0.779883L157.62 0.699883L157.69 4.93988C157.91 4.98988 158.25 4.96988 158.39 4.86988L158.51 0.649883C159.18 0.919883 159.88 0.949883 159.95 0.129883L156.3 0.159883C156.1 0.269883 156.24 0.809883 156.64 0.779883H156.63Z" fill="#989898"/>
<path d="M142.72 0.769883L143.71 0.689883L143.78 4.93988C144 4.98988 144.34 4.96988 144.48 4.85988L144.59 0.639883C145.26 0.909883 145.95 0.939883 146.04 0.129883H142.37C142.18 0.369883 142.34 0.799883 142.71 0.769883H142.72Z" fill="#989898"/>
<path d="M169.83 7.03002L166.13 7.09002C166.3 7.96002 167.09 7.76002 167.67 7.64002L167.74 11.8C167.74 11.96 168.42 11.99 168.42 11.64V7.72002L169.84 7.69002V7.02002L169.83 7.03002Z" fill="#989898"/>
<path d="M149.21 0.710088L149.28 4.87009C149.28 5.03009 149.96 5.06009 149.96 4.71009V0.790088L151.38 0.760088V0.0900879L147.68 0.150088C147.85 1.02009 148.64 0.820088 149.22 0.700088L149.21 0.710088Z" fill="#989898"/>
<path d="M178.15 4.95011C178.34 4.70011 178.31 4.39011 178.03 4.24011L176.15 4.28011V0.110107H175.43V4.95011L178.15 4.94011V4.95011Z" fill="#989898"/>
<path d="M175.91 11.87C176.25 11.97 176.57 11.91 176.66 11.72L176.62 7.04004H175.9V11.86L175.91 11.87Z" fill="#989898"/>
<path d="M182.14 7.06005V11.88C182.49 11.98 182.81 11.92 182.9 11.73L182.86 7.05005H182.14V7.06005Z" fill="#989898"/>
<path d="M138.08 14L138.13 18.79C138.33 18.94 138.81 18.86 138.81 18.65L138.78 13.99H138.08V14Z" fill="#989898"/>
<path d="M167.48 14.1099L167.5 18.7399C167.5 18.8999 168.19 18.9399 168.19 18.5799V14.0099C168.01 13.8699 167.48 13.9599 167.49 14.1099H167.48Z" fill="#989898"/>
<path d="M170.45 7.06009L170.49 11.8501C170.75 11.9901 171.09 11.9201 171.15 11.7101L171.12 7.05009C170.84 7.02009 170.69 7.02009 170.45 7.05009V7.06009Z" fill="#989898"/>
<path d="M147.2 4.77011L147.17 0.110107H146.47L146.52 4.91011C146.72 5.06011 147.2 4.98011 147.2 4.77011Z" fill="#989898"/>
<path d="M133.13 4.84995V0.189949C132.87 0.0199489 132.61 0.0499489 132.45 0.229949V4.87995C132.61 4.97995 132.91 5.01995 133.13 4.84995Z" fill="#989898"/>
<path d="M193.25 4.77007L193.23 0.230071C193.08 0.060071 192.81 0.020071 192.56 0.200071V4.91007C192.82 5.04007 193.14 5.00007 193.25 4.77007Z" fill="#989898"/>
<path d="M171.47 13.7099C171.82 13.4199 172.04 12.8099 172.05 12.8199C171.97 12.6699 171.55 12.6399 171.48 12.7499L171.27 13.1199C171.18 13.2699 171.05 13.4599 171.07 13.5599C171.09 13.6799 171.39 13.7699 171.47 13.7099Z" fill="#989898"/>
</g>
<defs>
<clipPath id="clip0_10586_5988">
<rect width="207.98" height="18.9" fill="white"/>
</clipPath>
</defs>
</svg>
