<svg width="131" height="18" viewBox="0 0 131 18" fill="none" xmlns="http://www.w3.org/2000/svg">
<g clip-path="url(#clip0_10220_2628)">
<path d="M5.9856 -0.189941V0.769366H4.52887V-0.189941H3.06623V0.769366H1.60358V-0.189941H0.14093V7.09369H7.4364V-0.189941H5.9856Z" fill="#989898"/>
<mask id="mask0_10220_2628" style="mask-type:luminance" maskUnits="userSpaceOnUse" x="0" y="0" width="131" height="17">
<path d="M130.966 0.706543H0.14093V16.5784H130.966V0.706543Z" fill="white"/>
</mask>
<g mask="url(#mask0_10220_2628)">
<path d="M127.36 16.2927H130.961L127.319 10.557L130.82 5.83958H127.423L124.269 10.4167H124.227V0.992289H121.297V16.2927H124.227V11.1648H124.269L127.36 16.2927ZM115.764 2.59766C115.764 3.41333 116.497 4.28616 117.473 4.28616C118.45 4.28616 119.183 3.4549 119.183 2.5561C119.183 1.6573 118.351 0.8676 117.473 0.8676C116.497 0.8676 115.764 1.74042 115.764 2.59766ZM116.008 16.2927H118.938V5.83438H116.008V16.2927ZM110.719 16.2927H113.65V8.78535C113.65 6.58771 112.065 5.55383 110.273 5.55383C109.395 5.55383 108.236 5.79801 107.197 7.17998C106.464 5.73567 105.082 5.55383 104.391 5.55383C103.191 5.55383 102.173 5.81879 101.233 7.20076H101.191V5.83958H98.3855V16.2979H101.316V9.94912C101.316 8.93083 101.763 7.91253 102.963 7.91253C104.163 7.91253 104.552 8.74899 104.552 9.84521V16.2979H107.483V9.78806C107.483 8.95161 108.033 7.91773 109.15 7.91773C110.267 7.91773 110.719 8.75418 110.719 9.56466V16.3031V16.2927ZM93.2213 16.2927H96.0476C95.9645 15.9082 95.9073 15.5393 95.9073 14.9938V8.93082C95.9073 6.53056 93.7513 5.55383 91.1692 5.55383C87.5064 5.55383 86.3686 7.606 86.2647 9.21657H89.0702C89.1326 8.2814 89.8443 7.66835 91.0445 7.66835C92.3277 7.66835 93.1018 8.2814 93.1018 9.5231V10.0115L90.3951 10.1725C86.3063 10.4167 85.9426 12.2663 85.9426 13.3885C85.9426 15.7679 87.9532 16.5836 89.6054 16.5836C90.8263 16.5836 92.2134 16.2147 93.1902 14.9367H93.2317V16.2979L93.2213 16.2927ZM93.0966 12.6923C93.0966 13.9548 91.6108 14.4639 90.6964 14.4639C89.7197 14.4639 88.8624 14.1782 88.8624 13.243C88.8624 12.4897 89.3092 12.0844 90.6548 11.9597L93.0966 11.7363V12.6923ZM78.8509 16.2927H81.7811V11.1648C81.7811 9.31528 82.9605 8.3957 84.4671 8.3957H85.1165V5.54863H84.7113C83.3293 5.54863 82.2487 6.36431 81.698 7.84499H81.6564V5.83438H78.8509V16.2927ZM69.3486 10.027C69.5096 8.8477 70.263 7.78784 71.7904 7.78784C73.1932 7.78784 73.9673 9.00876 74.0712 10.027H69.3486ZM77.0014 11.8974V11.0869C77.0014 7.70991 74.8037 5.55383 71.6501 5.55383C68.4965 5.55383 66.2989 7.70991 66.2989 11.0869C66.2989 14.4639 68.4965 16.5784 71.6501 16.5784C74.1127 16.5784 76.0246 15.4614 76.7364 13.3261L73.8893 13.1027C73.4841 13.9184 72.6892 14.3444 71.7904 14.3444C70.2214 14.3444 69.4681 13.1235 69.3486 11.8974H77.0014ZM64.4234 4.95636C64.4234 3.83936 63.67 0.706543 58.9526 0.706543C54.9834 0.706543 53.643 3.51205 53.643 5.46551C53.643 7.19557 54.8223 8.68145 56.5108 9.2945L59.8514 10.4946C61.3581 11.0453 61.701 11.4714 61.701 12.287C61.701 13.4664 60.2359 13.9755 59.1968 13.9755C57.7109 13.9755 56.4277 13.3469 56.4277 11.7155L53.378 11.7779C53.378 13.1391 53.8663 16.5784 59.176 16.5784C63.4103 16.5784 64.7507 13.7729 64.7507 11.8974C64.7507 9.53868 63.3064 8.35414 61.275 7.70472L58.4643 6.81111C57.7109 6.56693 56.6926 6.05778 56.6926 4.99792C56.6926 3.93807 57.607 3.30943 59.1345 3.30943C60.3554 3.30943 61.3737 3.95885 61.3737 5.01871L64.4234 4.95636ZM42.1819 10.027C42.343 8.8477 43.0963 7.78784 44.6238 7.78784C46.0265 7.78784 46.8006 9.00876 46.9045 10.027H42.1819ZM49.8347 11.8974V11.0869C49.8347 7.70991 47.6371 5.55383 44.4835 5.55383C41.3299 5.55383 39.1323 7.70991 39.1323 11.0869C39.1323 14.4639 41.3299 16.5784 44.4835 16.5784C46.9461 16.5784 48.858 15.4614 49.5698 13.3261L46.7227 13.1027C46.3175 13.9184 45.5226 14.3444 44.6238 14.3444C43.0548 14.3444 42.3014 13.1235 42.1819 11.8974H49.8347ZM34.3889 16.2927H37.3191V0.992289H34.3889V16.2927ZM29.261 16.2927H32.0873C32.0042 15.9082 31.9471 15.5393 31.9471 14.9938V8.93082C31.9471 6.53056 29.791 5.55383 27.2089 5.55383C23.5461 5.55383 22.4083 7.606 22.3044 9.21657H25.1099C25.1723 8.2814 25.884 7.66835 27.0842 7.66835C28.3674 7.66835 29.1416 8.2814 29.1416 9.5231V10.0115L26.4348 10.1725C22.346 10.4167 21.9823 12.2663 21.9823 13.3885C21.9823 15.7679 23.9929 16.5836 25.6451 16.5836C26.866 16.5836 28.2531 16.2147 29.2299 14.9367H29.2714V16.2979L29.261 16.2927ZM29.1416 12.6923C29.1416 13.9548 27.6557 14.4639 26.7413 14.4639C25.7646 14.4639 24.9073 14.1782 24.9073 13.243C24.9073 12.4897 25.3541 12.0844 26.6997 11.9597L29.1416 11.7363V12.6923ZM12.6151 8.1723H12.5735V0.992289H9.5238V16.2927H12.5735V8.78535H12.6151L17.4571 16.2927H21.2602L15.8881 8.33855L21.1614 0.992289H17.5195L12.6151 8.1723Z" fill="#989898"/>
</g>
</g>
<defs>
<clipPath id="clip0_10220_2628">
<rect width="130.966" height="17.63" fill="white"/>
</clipPath>
</defs>
</svg>
