<svg width="99" height="30" viewBox="0 0 99 30" fill="none" xmlns="http://www.w3.org/2000/svg">
<path d="M43.885 7.56742C45.359 7.53703 46.2707 6.51892 46.2099 5.18171C46.1643 3.93567 45.2222 3.05432 43.8242 3.05432L38.7641 3.02393V7.6586L43.8698 7.56742H43.885ZM44.6752 0.0303912C47.2888 0.106369 49.4162 1.42839 49.9025 4.11801C50.4647 7.24831 48.4893 9.86196 45.2222 10.1507C46.4835 11.1232 47.4408 11.8982 48.1398 13.0227L51.4372 18.3563H47.0913L42.563 11.6702C41.8032 10.5458 40.2836 10.5762 38.8097 10.6217L38.7792 18.3715H35.1019L35.1323 0H44.6904L44.6752 0.0303912Z" fill="#989898"/>
<path d="M3.57098 0.0305176L3.55577 8.16018L10.9104 0.0305176H15.7579L9.011 7.21805L16.1985 18.326L11.5183 18.3868L6.45814 9.77091L3.55577 12.81L3.49498 18.3716L0 18.3868V0.0305176H3.57098Z" fill="#989898"/>
<path d="M31.531 0.0305176L31.5918 3.03925H21.8058L21.7906 7.18766L30.9232 7.17246L30.908 10.166L21.7906 10.1812L21.821 15.3629H31.9868V18.3868H18.1133L18.1589 0.0305176H31.531Z" fill="#989898"/>
<path d="M63.1074 11.2145L60.5546 4.43725L58.0473 11.2753L63.1227 11.2145H63.1074ZM62.454 0.0305176L69.8087 18.3868H65.8427L64.2623 14.2688L56.938 14.2992L55.4488 18.4172H51.574L58.7159 0.0457132H62.454V0.0305176Z" fill="#989898"/>
<path d="M68.0612 29.1153H66.4049L64.5662 28.7506L65.1436 25.7874C66.0401 25.9546 67.271 26.2433 67.8333 25.5747C68.4715 24.7845 68.8514 23.5537 69.0641 22.5204L71.5106 10.531H75.0056L72.4983 22.7939C72.2248 24.1159 71.7841 25.4379 71.389 26.6991C70.8876 28.2491 69.5655 28.9025 68.0763 29.1153" fill="#989898"/>
<path d="M85.4754 16.1226C85.4146 14.7853 85.2475 14.1167 84.7308 13.5393C84.2446 13.0075 83.1809 12.7947 82.4363 12.9771C80.9319 13.3266 80.0809 14.5878 79.853 16.1378H85.4602L85.4754 16.1226ZM79.5339 18.2348C79.2148 19.5416 80.0961 20.9852 81.2966 21.3347C82.7098 21.7449 84.0318 21.1371 84.822 19.7847L87.9979 20.3773C86.296 24.1459 81.4941 25.3615 78.1967 22.8846C75.0208 20.4837 75.4007 14.1319 79.23 11.4271C81.0687 10.1203 83.5152 9.87716 85.6274 10.6369C88.4234 11.6399 89.092 15.0893 88.4234 18.2348H79.5187H79.5339Z" fill="#989898"/>
<path d="M96.2643 23.979C95.1095 24.1765 93.8483 24.2373 92.6782 23.979C91.4018 23.6902 90.4596 22.4138 90.7332 21.0462L92.3439 13.2204H90.5812L91.0827 10.5764L92.9062 10.5004L93.3164 8.5402L97.2977 6.16968L96.4468 10.5156L98.4829 10.546L98.0423 13.2053L95.8541 13.2508L94.3498 20.3472C94.3042 20.5295 94.3801 21.0766 94.5169 21.2133C94.6385 21.3501 95.0639 21.4717 95.2615 21.4717H96.7203L96.2492 23.9638L96.2643 23.979Z" fill="#989898"/>
<path d="M75.4462 8.47975L71.9209 8.49494L72.5287 5.5166H76.0085L75.4462 8.47975Z" fill="#989898"/>
</svg>
