<svg width="116" height="52" viewBox="0 0 116 52" fill="none" xmlns="http://www.w3.org/2000/svg">
<g clip-path="url(#clip0_10586_2128)">
<path d="M13.1067 2.44246C13.9456 2.44246 14.6266 1.73973 14.6266 0.873571C14.6266 0.00741678 13.9456 -0.695312 13.1067 -0.695312C12.2678 -0.695312 11.5923 0.00741678 11.5923 0.873571C11.5923 1.73973 12.2732 2.44246 13.1067 2.44246Z" fill="#989898"/>
<path d="M23.5169 4.88289C24.3504 4.88289 25.0368 4.18016 25.0368 3.314C25.0368 2.44785 24.3558 1.74512 23.5169 1.74512C22.678 1.74512 21.9971 2.44785 21.9971 3.314C21.9971 4.18016 22.678 4.88289 23.5169 4.88289Z" fill="#989898"/>
<path d="M2.59846 4.88289C3.43738 4.88289 4.11832 4.18016 4.11832 3.314C4.11832 2.44785 3.43738 1.74512 2.59846 1.74512C1.75954 1.74512 1.07861 2.44785 1.07861 3.314C1.07861 4.18016 1.75954 4.88289 2.59846 4.88289Z" fill="#989898"/>
<path d="M18.3145 3.04158C19.1535 3.04158 19.8344 2.33885 19.8344 1.47269C19.8344 0.606538 19.1535 -0.0961914 18.3145 -0.0961914C17.4756 -0.0961914 16.8001 0.606538 16.8001 1.47269C16.8001 2.33885 17.4811 3.04158 18.3145 3.04158Z" fill="#989898"/>
<path d="M7.85531 3.04158C8.69423 3.04158 9.36972 2.33885 9.36972 1.47269C9.36972 0.606538 8.68878 -0.0961914 7.85531 -0.0961914C7.02184 -0.0961914 6.33546 0.606538 6.33546 1.47269C6.33546 2.33885 7.0164 3.04158 7.85531 3.04158Z" fill="#989898"/>
<path d="M13.0849 8.16238C15.9939 8.18417 21.1255 9.36083 21.1255 9.36083L22.0188 6.35925C22.0188 6.35925 18.5651 4.55068 13.0849 4.56157C7.61017 4.57247 4.151 6.35925 4.151 6.35925L5.04439 9.36083C5.04439 9.36083 10.176 8.14059 13.0849 8.16238Z" fill="#989898"/>
<path d="M12.9923 43.2115C16.8165 43.2115 25.9846 39.6053 25.9846 30.6877V10.8152H0.0926078C0.0762652 12.8798 0 23.7476 0 31.1399C0 39.5018 9.41331 43.2115 12.9923 43.2115ZM13.0468 41.9205H12.9923C11.7503 41.9205 9.24988 41.3049 6.84208 40.0139C7.48489 39.7578 8.13859 39.529 8.86311 39.529C9.58763 39.529 10.2086 39.7142 10.7643 39.9376C10.9985 40.0411 11.2328 40.1446 11.467 40.2427C12.0118 40.4878 12.5075 40.7057 13.0196 40.7111C13.5316 40.7002 14.0274 40.4878 14.5721 40.2427C14.8118 40.1446 15.0406 40.0411 15.2748 39.9376C15.8305 39.7142 16.446 39.529 17.176 39.529C17.906 39.529 18.5542 39.7524 19.197 40.0139C16.7892 41.3049 14.2943 41.9205 13.0468 41.9205ZM20.9566 38.9788C19.4803 38.6901 18.5706 37.8457 17.2577 37.8457C17.0997 37.8457 16.7511 37.8893 16.7348 37.8893C16.5877 37.9166 15.9667 38.1018 15.8305 38.1508C15.8087 38.1617 14.6538 38.652 14.6484 38.6574C14.5449 38.701 14.0056 38.8917 13.8857 38.9189C13.8857 38.9189 13.3301 39.0061 13.1285 39.0279C13.1285 39.0279 13.1013 39.0279 13.0849 39.0279H13.074H13.0631H13.0522H13.0359C13.0359 39.0279 13.0032 39.0279 12.9923 39.0279C12.7908 39.0061 12.2351 38.9189 12.2351 38.9189C12.1153 38.8917 11.5814 38.701 11.4725 38.6574C11.4725 38.6574 10.3121 38.1617 10.2904 38.1508C10.1542 38.0963 9.53315 37.9111 9.38607 37.8893C9.36973 37.8893 9.02653 37.8457 8.86311 37.8457C7.55026 37.8457 6.64052 38.6901 5.16424 38.9788C4.51054 38.5158 3.88953 37.9928 3.33388 37.4154C3.62804 37.459 3.91132 37.4808 4.18369 37.4808C6.28643 37.4808 7.28333 36.2496 8.86311 36.2496C10.4429 36.2496 11.5487 37.4372 13.0468 37.4372H13.074C14.5721 37.4372 15.7433 36.2496 17.2577 36.2496C18.7721 36.2496 19.8344 37.4808 21.9371 37.4808C22.2041 37.4808 22.4928 37.459 22.787 37.4154C22.2313 37.9928 21.6157 38.5103 20.9566 38.9788ZM20.9185 12.1553H23.98V19.6347H20.9185V12.1553ZM19.2896 24.6628H20.3955V25.3546H21.0329V24.6628H22.1932V25.3001H22.8305V24.6628H23.9473V26.3406H19.2842V24.6628H19.2896ZM19.2896 30.083C19.5784 29.6908 19.769 29.0916 19.769 28.4161C19.769 27.9422 19.671 27.5118 19.5184 27.1577H23.7294C23.5768 27.5118 23.4788 27.9422 23.4788 28.4161C23.4788 29.0916 23.664 29.6908 23.9582 30.083V32.0333C23.6695 32.1422 23.3971 32.262 23.141 32.371C22.836 32.5017 22.5636 32.6216 22.3021 32.7033V30.35C22.3021 30.0776 21.9971 29.8597 21.6212 29.8597C21.2453 29.8597 20.9402 30.083 20.9402 30.35V32.6652C20.7223 32.5889 20.4935 32.4963 20.2484 32.3928C19.9542 32.2675 19.6383 32.1368 19.2896 32.0169V30.083ZM14.6375 12.1553H17.699V22.6799H14.6375V12.1553ZM11.7612 24.6628V25.3546H12.3985V24.6628H13.5589V25.3001H14.1962V24.6628H15.3184V26.3406H10.6499V24.6628H11.7557H11.7612ZM12.9923 29.8597C12.6164 29.8597 12.3114 30.083 12.3114 30.35V32.6652C12.0935 32.5889 11.8647 32.4963 11.6195 32.3928C11.3254 32.2675 11.0094 32.1368 10.6608 32.0169V30.083C10.9495 29.6908 11.1402 29.0916 11.1402 28.4161C11.1402 27.9422 11.0421 27.5118 10.8896 27.1577H15.1005C14.9425 27.5118 14.8499 27.9422 14.8499 28.4161C14.8499 29.0916 15.0351 29.6908 15.3293 30.083V32.0333C15.0406 32.1422 14.7628 32.262 14.5122 32.371C14.2071 32.5017 13.9293 32.6216 13.6787 32.7033V30.35C13.6787 30.0776 13.3736 29.8597 12.9978 29.8597H12.9923ZM8.31836 12.2043H11.3799V22.6799H8.31836V12.2043ZM5.62728 24.7336H6.74947V26.4114H2.08095V24.7336H3.19224V25.4254H3.8296V24.7336H4.98992V25.3709H5.62728V24.7336ZM4.41249 29.9305C4.03661 29.9305 3.73155 30.1484 3.73155 30.4208V32.736C3.51365 32.6597 3.28485 32.5671 3.03971 32.4636C2.75099 32.3383 2.42959 32.2076 2.08095 32.0877V30.1539C2.37512 29.7616 2.56033 29.1624 2.56033 28.4869C2.56033 28.013 2.46772 27.5826 2.30975 27.2285H6.52068C6.36814 27.5826 6.27009 28.013 6.27009 28.4869C6.27009 29.1624 6.45531 29.7616 6.74947 30.1539V32.1041C6.46075 32.2185 6.18293 32.3329 5.93234 32.4418C5.63273 32.5726 5.35491 32.6924 5.09887 32.7741V30.4208C5.09887 30.1484 4.79381 29.9305 4.41793 29.9305H4.41249ZM2.07006 12.1553H5.13156V19.6347H2.07006V12.1553ZM1.13853 33.5858C1.47628 33.7601 1.84126 33.9181 2.21169 34.0325C2.7401 34.2504 3.41014 34.4302 4.16735 34.4302C4.76658 34.4302 5.31677 34.2722 5.85063 34.0706C6.22106 33.9453 6.55881 33.7982 6.88566 33.6566C7.50668 33.406 8.14403 33.1936 8.84676 33.1936C9.38062 33.1936 9.86 33.2971 10.2958 33.4387C10.8133 33.6403 11.3145 33.8963 11.8429 34.0815C12.2515 34.2504 12.6382 34.3811 13.0305 34.3811C13.3628 34.3811 13.7059 34.2722 14.0709 34.1196C14.632 33.929 15.1659 33.6348 15.7542 33.3842C16.3099 33.1827 16.9309 33.0301 17.6445 33.0301C18.1675 33.0301 18.5869 33.1228 18.9573 33.2535C19.5348 33.5368 19.9924 33.9399 20.8531 34.136C21.1854 34.2504 21.5504 34.3267 22.0025 34.3267C22.6399 34.3267 23.5278 34.2068 24.2687 33.9181C24.4267 33.8636 24.5846 33.8037 24.7426 33.7438C24.5628 34.4247 24.3123 35.0512 23.9963 35.6286C23.3154 35.8465 22.5582 35.9391 22.0025 35.9391C20.1504 35.9391 19.6328 34.6426 17.6445 34.6426C15.4982 34.6426 14.218 35.9881 13.025 35.9881C11.832 35.9881 10.6935 34.8006 8.84132 34.8006C7.14714 34.8006 5.85063 36.0317 4.15645 36.0317C3.24127 36.0317 2.45683 35.7648 1.89029 35.4979C1.55799 34.8986 1.29651 34.2613 1.12764 33.5749L1.13853 33.5858Z" fill="#989898"/>
<path d="M47.4206 12.8473C47.6821 12.8473 47.9054 12.7547 48.0906 12.5695C48.2759 12.3843 48.363 12.1337 48.363 11.8232C48.363 11.5127 48.2704 11.2621 48.0906 11.0769C47.9054 10.8917 47.6821 10.7991 47.4206 10.7991C47.1591 10.7991 46.9358 10.8917 46.7506 11.0769C46.5653 11.2621 46.4727 11.5127 46.4727 11.8232C46.4727 12.1337 46.5653 12.3843 46.7506 12.5695C46.9358 12.7547 47.1591 12.8473 47.4206 12.8473Z" fill="#989898"/>
<path d="M37.2719 19.4661H42.2182C42.3871 19.9727 42.5505 20.4685 42.7085 20.9533C42.8665 21.4436 43.0354 21.9393 43.2151 22.4405H44.8875C44.4681 21.2093 44.0704 20.0654 43.7054 19.014C43.335 17.9681 42.9754 16.9712 42.6268 16.0287C42.2727 15.0863 41.9241 14.1875 41.5809 13.3268C41.2322 12.4661 40.8727 11.6217 40.4914 10.7773H39.0914C38.7155 11.6163 38.3505 12.4661 38.0019 13.3268C37.6532 14.1875 37.3046 15.0863 36.9559 16.0287C36.6018 16.9712 36.2423 17.9681 35.8773 19.014C35.5069 20.0654 35.1147 21.2039 34.6952 22.4405H36.2859L37.2773 19.4607L37.2719 19.4661ZM38.6991 15.2879C39.0314 14.3727 39.3801 13.4957 39.7451 12.6567C40.0992 13.4957 40.4478 14.3782 40.7746 15.2879C41.1069 16.2031 41.4392 17.1455 41.777 18.1206H37.7077C38.0345 17.1455 38.3614 16.1976 38.6937 15.2879H38.6991Z" fill="#989898"/>
<path d="M44.419 25.4038C44.5552 25.4583 44.7241 25.5073 44.9256 25.54C45.1272 25.5727 45.2906 25.589 45.4159 25.589C46.3311 25.589 47.0229 25.3166 47.5023 24.7719C47.9817 24.2271 48.2214 23.3937 48.2214 22.2715V13.6917H46.756V22.2878C46.756 22.9252 46.647 23.41 46.4346 23.7423C46.2221 24.0746 45.8626 24.238 45.356 24.238C45.2416 24.238 45.1163 24.2271 44.9747 24.2054C44.8385 24.1836 44.7186 24.1563 44.6151 24.1236L44.4245 25.4038H44.419Z" fill="#989898"/>
<path d="M50.907 21.5034C51.1685 21.8629 51.5171 22.1407 51.9475 22.3369C52.3778 22.533 52.9063 22.631 53.5382 22.631C54.2627 22.631 54.9 22.582 55.4502 22.4785C56.0004 22.375 56.4471 22.2824 56.7849 22.1898V13.6917H55.3195V21.0785C55.2705 21.1003 55.1833 21.1221 55.058 21.1384C54.9382 21.1547 54.802 21.1711 54.6549 21.1874C54.5078 21.2038 54.3498 21.2201 54.181 21.231C54.0121 21.2419 53.8487 21.2474 53.6907 21.2474C52.9444 21.2474 52.416 21.0186 52.1 20.5555C51.7841 20.0979 51.6261 19.3353 51.6261 18.2676V13.6917H50.1607V18.6053C50.1607 19.1991 50.2206 19.7384 50.335 20.2287C50.4494 20.7189 50.6401 21.1384 50.9016 21.4979L50.907 21.5034Z" fill="#989898"/>
<path d="M60.304 15.0591C60.3585 15.0482 60.4456 15.0319 60.5655 15.0101C60.6853 14.9883 60.8215 14.9665 60.974 14.9502C61.1266 14.9338 61.2845 14.9175 61.4534 14.9066C61.6223 14.8957 61.7857 14.8903 61.9437 14.8903C62.3305 14.8903 62.6573 14.9447 62.9188 15.0482C63.1803 15.1572 63.3927 15.3261 63.5507 15.5603C63.7087 15.7945 63.8231 16.1051 63.8884 16.4864C63.9538 16.8677 63.9919 17.3253 63.9919 17.8646V22.4405H65.4573V17.5269C65.4573 16.9331 65.4029 16.3883 65.2994 15.8926C65.1958 15.3969 65.0106 14.9774 64.7546 14.6233C64.4986 14.2692 64.1554 13.9969 63.725 13.8008C63.2947 13.6046 62.7499 13.5066 62.1017 13.5066C61.3771 13.5066 60.7343 13.5556 60.1787 13.6591C59.623 13.7626 59.1763 13.8552 58.8386 13.9424V22.4405H60.304V15.0537V15.0591Z" fill="#989898"/>
<path d="M67.9142 21.7213C68.1321 22.0264 68.4262 22.2497 68.7912 22.4023C69.1507 22.5548 69.6138 22.6311 70.1694 22.6311C70.6434 22.6311 71.0628 22.5711 71.4333 22.4568C71.7982 22.3369 72.0597 22.2389 72.2068 22.1626L71.9235 20.8661C71.82 20.9097 71.6294 20.9859 71.3624 21.0949C71.0955 21.2038 70.7414 21.2529 70.3002 21.2529C70.0496 21.2529 69.8262 21.2202 69.641 21.1548C69.4504 21.0894 69.2924 20.975 69.1671 20.8116C69.0418 20.6482 68.9437 20.4248 68.8838 20.1416C68.8184 19.8528 68.7912 19.4933 68.7912 19.0575V15.0209H71.8963V13.708H68.7912V10.7991L67.3258 11.273V19.0793C67.3258 19.6622 67.3694 20.1742 67.462 20.6209C67.5492 21.0622 67.7072 21.4381 67.9251 21.7377L67.9142 21.7213Z" fill="#989898"/>
<path d="M73.585 21.9991C73.8683 22.217 74.206 22.3804 74.5928 22.4784C74.9796 22.582 75.4045 22.631 75.8675 22.631C76.1944 22.631 76.5212 22.6146 76.8535 22.5874C77.1858 22.5602 77.4909 22.5275 77.7742 22.4948C78.0574 22.4621 78.3135 22.424 78.5368 22.3858C78.7656 22.3477 78.9399 22.315 79.0652 22.2932V16.8239C79.0652 16.3282 79.0108 15.8815 78.9072 15.4675C78.8037 15.0589 78.624 14.7048 78.3788 14.4052C78.1283 14.1111 77.8068 13.8768 77.4037 13.7134C77.0006 13.55 76.5049 13.4683 75.9166 13.4683C75.399 13.4683 74.9251 13.5118 74.4839 13.5936C74.0426 13.6753 73.7267 13.7624 73.536 13.855L73.7103 15.1515C73.8901 15.0753 74.157 14.999 74.522 14.9227C74.887 14.8519 75.3064 14.8138 75.7913 14.8138C76.1671 14.8138 76.4777 14.8737 76.7119 14.9881C76.9461 15.108 77.1314 15.2605 77.273 15.4621C77.4092 15.6582 77.5018 15.8815 77.5563 16.1375C77.6053 16.3881 77.6325 16.6442 77.6325 16.9002V17.336C77.5889 17.3251 77.5181 17.3088 77.4092 17.287C77.3057 17.2652 77.1804 17.2379 77.0387 17.2107C76.8971 17.1835 76.75 17.1617 76.5921 17.1453C76.4341 17.129 76.2815 17.1181 76.1345 17.1181C75.6714 17.1181 75.2302 17.1671 74.8107 17.2706C74.3913 17.3687 74.0208 17.5267 73.7103 17.7391C73.3944 17.9516 73.1438 18.2348 72.964 18.578C72.7788 18.9267 72.6862 19.3407 72.6862 19.8255C72.6862 20.3103 72.7624 20.7625 72.9259 21.122C73.0838 21.4816 73.3018 21.7703 73.585 21.9882V21.9991ZM74.3749 19.0901C74.5111 18.9049 74.68 18.7578 74.887 18.6543C75.094 18.5453 75.3173 18.48 75.5625 18.4418C75.8076 18.4092 76.0419 18.3928 76.2652 18.3928C76.6029 18.3928 76.8862 18.4146 77.1259 18.4527C77.3602 18.4909 77.5345 18.5399 77.638 18.5944V21.2037C77.4582 21.2473 77.2349 21.28 76.9679 21.2963C76.701 21.3127 76.3959 21.3236 76.0473 21.3236C75.4699 21.3236 75.0123 21.2146 74.6745 20.9967C74.3368 20.7788 74.1679 20.3866 74.1679 19.8255C74.1679 19.5204 74.2333 19.2808 74.3749 19.0955V19.0901Z" fill="#989898"/>
<path d="M82.4917 15.0591C82.5353 15.0482 82.617 15.0319 82.7423 15.0101C82.8676 14.9883 83.0092 14.9665 83.1618 14.9502C83.3143 14.9338 83.4723 14.9175 83.6411 14.9066C83.81 14.8957 83.968 14.8902 84.1151 14.8902C84.4637 14.8902 84.747 14.9502 84.9758 15.0646C85.1991 15.1844 85.3789 15.3642 85.5096 15.6093C85.6404 15.8545 85.733 16.165 85.7874 16.5354C85.8419 16.9058 85.8637 17.3471 85.8637 17.8646V22.4405H87.3291V17.5268C87.3291 17.1455 87.3073 16.7805 87.2692 16.4319C87.2256 16.0833 87.1657 15.7673 87.0785 15.4731C87.1929 15.3587 87.4108 15.2334 87.7322 15.0918C88.0536 14.9502 88.4622 14.8793 88.9525 14.8793C89.312 14.8793 89.6007 14.9393 89.8295 15.0537C90.0529 15.1735 90.2326 15.3533 90.3634 15.5984C90.4941 15.8436 90.5867 16.1541 90.6303 16.5245C90.6793 16.8949 90.7011 17.3362 90.7011 17.8537V22.4296H92.1665V17.5159C92.1665 16.9331 92.1284 16.3938 92.0466 15.9035C91.9704 15.4078 91.8124 14.9829 91.5891 14.6233C91.3603 14.2638 91.0498 13.986 90.6521 13.7898C90.2544 13.5937 89.7369 13.4957 89.1104 13.4957C88.7836 13.4957 88.4785 13.5338 88.1953 13.6046C87.912 13.6754 87.6559 13.7626 87.4217 13.8552C87.1875 13.9478 86.9968 14.0459 86.8388 14.1494C86.6808 14.2529 86.5664 14.3292 86.4902 14.3836C86.2505 14.0895 85.9509 13.8716 85.5913 13.719C85.2372 13.5665 84.796 13.4902 84.2676 13.4902C83.5431 13.4902 82.9057 13.5393 82.3501 13.6428C81.7999 13.7463 81.3532 13.8389 81.0209 13.926V22.4242H82.4863V15.0373L82.4917 15.0591Z" fill="#989898"/>
<path d="M94.656 21.3508C94.9937 21.7539 95.4187 22.0699 95.9416 22.2987C96.4646 22.5275 97.0801 22.6419 97.7938 22.6419C98.3603 22.6419 98.8669 22.5874 99.3136 22.473C99.7603 22.3586 100.071 22.2551 100.251 22.1516L100.044 20.8387C99.8638 20.9259 99.6023 21.0185 99.2483 21.1166C98.8942 21.2146 98.4638 21.2582 97.9463 21.2582C97.0311 21.2582 96.3611 21.024 95.9307 20.55C95.5004 20.0815 95.2552 19.3897 95.1899 18.48H100.801C100.812 18.3874 100.817 18.2948 100.817 18.1858V17.9243C100.817 16.4208 100.523 15.3041 99.9346 14.5687C99.3463 13.8332 98.5019 13.4683 97.3961 13.4683C96.9222 13.4683 96.4591 13.5663 96.007 13.757C95.5548 13.9476 95.1572 14.2364 94.8085 14.6122C94.4599 14.9936 94.1821 15.4729 93.9751 16.0504C93.7681 16.6278 93.6591 17.3033 93.6591 18.0769C93.6591 18.7415 93.7408 19.3461 93.9042 19.9018C94.0677 20.4574 94.3183 20.9368 94.6506 21.3399L94.656 21.3508ZM95.4241 16.3391C95.5222 16.0449 95.6638 15.7889 95.8436 15.5656C96.0233 15.3422 96.2412 15.157 96.4973 15.0208C96.7533 14.8792 97.0529 14.8083 97.3907 14.8083C97.9899 14.8083 98.4584 15.0371 98.8016 15.4893C99.1448 15.9414 99.3082 16.5243 99.2973 17.2325H95.228C95.2607 16.9274 95.326 16.6333 95.4241 16.3391Z" fill="#989898"/>
<path d="M103.928 15.0591C103.982 15.0482 104.064 15.0319 104.189 15.0101C104.309 14.9883 104.445 14.9665 104.598 14.9502C104.75 14.9338 104.914 14.9175 105.077 14.9066C105.246 14.8957 105.409 14.8903 105.567 14.8903C105.954 14.8903 106.281 14.9447 106.542 15.0482C106.804 15.1572 107.016 15.3261 107.174 15.5603C107.332 15.7945 107.447 16.1051 107.512 16.4864C107.583 16.8677 107.616 17.3253 107.616 17.8646V22.4405H109.081V17.5269C109.081 16.9331 109.027 16.3883 108.923 15.8926C108.82 15.3969 108.634 14.9774 108.378 14.6233C108.122 14.2692 107.779 13.9969 107.349 13.8008C106.918 13.6046 106.379 13.5066 105.725 13.5066C105.001 13.5066 104.358 13.5556 103.802 13.6591C103.247 13.7626 102.8 13.8552 102.462 13.9424V22.4405H103.928V15.0537V15.0591Z" fill="#989898"/>
<path d="M111.538 21.7213C111.756 22.0264 112.05 22.2497 112.409 22.4023C112.774 22.5548 113.232 22.6311 113.788 22.6311C114.262 22.6311 114.681 22.5711 115.046 22.4568C115.411 22.3369 115.673 22.2389 115.82 22.1626L115.536 20.8661C115.433 20.9097 115.248 20.9859 114.975 21.0949C114.708 21.2038 114.354 21.2529 113.913 21.2529C113.662 21.2529 113.439 21.2202 113.248 21.1548C113.058 21.0894 112.905 20.975 112.774 20.8116C112.649 20.6482 112.551 20.4248 112.491 20.1416C112.426 19.8528 112.399 19.4933 112.399 19.0575V15.0209H115.504V13.708H112.399V10.7991L110.933 11.273V19.0793C110.933 19.6622 110.977 20.1742 111.069 20.6209C111.157 21.0622 111.315 21.4381 111.532 21.7377L111.538 21.7213Z" fill="#989898"/>
<path d="M48.7389 38.6575C49.1529 39.7143 49.7195 40.5913 50.4385 41.305C51.1576 42.0186 51.9965 42.5525 52.9607 42.912C53.9249 43.2715 54.9491 43.4513 56.0331 43.4513C57.1172 43.4513 58.1903 43.2715 59.1654 42.912C60.1351 42.5525 60.974 42.0186 61.6767 41.305C62.3795 40.5968 62.9351 39.7143 63.3382 38.6575C63.7414 37.6061 63.9484 36.3804 63.9484 34.9913C63.9484 33.6022 63.7414 32.3819 63.3273 31.3251C62.9133 30.2738 62.3468 29.3858 61.6332 28.6667C60.9141 27.9477 60.0752 27.4084 59.111 27.0488C58.1468 26.6893 57.1226 26.5095 56.0386 26.5095C54.9545 26.5095 53.9794 26.6893 53.0206 27.0488C52.0619 27.4084 51.223 27.9477 50.4984 28.6667C49.7739 29.3858 49.1965 30.2738 48.7661 31.3251C48.3358 32.3819 48.1233 33.6022 48.1233 34.9913C48.1233 36.3804 48.3303 37.6007 48.7443 38.6575H48.7389ZM52.1 32.8504C52.2907 32.2022 52.5631 31.6465 52.9226 31.1889C53.2821 30.7259 53.7234 30.3664 54.2409 30.1103C54.7584 29.8543 55.3576 29.7236 56.0277 29.7236C56.6977 29.7236 57.2806 29.8488 57.8036 30.0994C58.332 30.35 58.7732 30.7041 59.1328 31.1671C59.4923 31.6302 59.7701 32.1804 59.9608 32.8286C60.1514 33.4769 60.2495 34.196 60.2495 34.9967C60.2495 35.7975 60.1514 36.5112 59.9608 37.154C59.7701 37.7968 59.4923 38.347 59.1328 38.8046C58.7732 39.2676 58.332 39.6217 57.8036 39.8723C57.2752 40.1229 56.6814 40.2482 56.0277 40.2482C55.374 40.2482 54.7584 40.1229 54.2409 39.8723C53.7234 39.6217 53.2821 39.2676 52.9226 38.8046C52.5631 38.3415 52.2907 37.7913 52.1 37.154C51.9094 36.5112 51.8113 35.7975 51.8113 34.9967C51.8113 34.196 51.9039 33.5041 52.1 32.8559V32.8504Z" fill="#989898"/>
<path d="M69.5756 33.9401C69.7881 33.9074 70.0332 33.8801 70.3056 33.8583C70.5834 33.8366 70.8395 33.8257 71.0846 33.8257C71.8799 33.8257 72.4247 34.0599 72.7134 34.5284C73.0021 34.9969 73.1492 35.7922 73.1492 36.9144V43.4514H76.5648V36.4949C76.5648 35.6506 76.4776 34.8879 76.3142 34.2015C76.1453 33.5152 75.8621 32.9214 75.4644 32.4202C75.0667 31.919 74.5274 31.5323 73.8465 31.2599C73.1656 30.9875 72.3103 30.8513 71.2862 30.8513C70.262 30.8513 69.3142 30.9276 68.399 31.0747C67.4838 31.2217 66.732 31.3852 66.1546 31.554V43.4514H69.5702V33.9401H69.5756Z" fill="#989898"/>
<path d="M79.2069 39.7145C79.4901 40.5044 79.8987 41.1744 80.4325 41.7301C80.9664 42.2857 81.6256 42.7106 82.4045 43.0048C83.1835 43.299 84.0715 43.4515 85.0629 43.4515C85.4769 43.4515 85.9073 43.4297 86.3594 43.3916C86.8116 43.3534 87.2528 43.299 87.6886 43.239C88.1244 43.1737 88.5384 43.1028 88.9416 43.0157C89.3392 42.9285 89.6879 42.8414 89.9929 42.7488V26.4607L86.5773 27.0218V31.1074C86.196 30.9331 85.8147 30.8024 85.4443 30.7098C85.0684 30.6171 84.6489 30.5681 84.175 30.5681C83.3197 30.5681 82.5571 30.7152 81.8925 31.0148C81.2279 31.309 80.6668 31.7393 80.2092 32.3059C79.7516 32.867 79.3975 33.5534 79.1524 34.3541C78.9072 35.1604 78.7874 36.0592 78.7874 37.0616C78.7874 38.0639 78.929 38.9301 79.2123 39.7199L79.2069 39.7145ZM84.6979 33.5207C85.052 33.5207 85.3952 33.5697 85.7439 33.6623C86.0871 33.7549 86.3649 33.8748 86.5828 34.0164V40.3628C86.4139 40.3954 86.2015 40.4227 85.94 40.4445C85.6785 40.4663 85.3952 40.4771 85.0902 40.4771C84.1586 40.4771 83.4559 40.1503 82.982 39.4911C82.508 38.8374 82.2738 37.9713 82.2738 36.8927C82.2738 34.6429 83.0855 33.5207 84.7034 33.5207H84.6979Z" fill="#989898"/>
<path d="M93.6319 42.547C94.0895 42.8684 94.6397 43.0972 95.2716 43.2389C95.9035 43.3805 96.6117 43.4513 97.3907 43.4513C98.6272 43.4513 99.6841 43.375 100.556 43.228C101.427 43.0809 102.108 42.9501 102.598 42.8412V35.5796C102.598 34.8115 102.517 34.1197 102.348 33.4932C102.179 32.8668 101.89 32.3384 101.487 31.9026C101.084 31.4668 100.545 31.129 99.8693 30.8948C99.1938 30.6605 98.3549 30.5461 97.3471 30.5461C96.9494 30.5461 96.5572 30.5679 96.165 30.6061C95.7727 30.6442 95.4023 30.6932 95.0537 30.7477C94.705 30.8022 94.3782 30.8621 94.0786 30.9329C93.779 31.0037 93.5338 31.0691 93.3323 31.1345L93.7681 33.9454C94.1821 33.7874 94.6723 33.6676 95.2334 33.5804C95.8 33.4932 96.372 33.4497 96.9549 33.4497C97.8265 33.4497 98.4366 33.6294 98.7907 33.989C99.1448 34.3485 99.3191 34.8224 99.3191 35.4162V35.7431C99.1066 35.6831 98.8233 35.6287 98.4856 35.5905C98.1424 35.5524 97.7447 35.5306 97.3035 35.5306C96.6443 35.5306 96.0124 35.596 95.4023 35.7322C94.7922 35.8629 94.2474 36.0808 93.7735 36.375C93.2996 36.6692 92.9182 37.0723 92.6404 37.568C92.3571 38.0692 92.2155 38.6738 92.2155 39.3929C92.2155 40.112 92.3408 40.7766 92.5805 41.2886C92.8256 41.8062 93.1743 42.2202 93.6319 42.5416V42.547ZM95.7836 38.603C95.9035 38.4178 96.0724 38.2653 96.2848 38.1563C96.4973 38.0474 96.7478 37.9711 97.0311 37.933C97.3144 37.8948 97.614 37.8731 97.9354 37.8731C98.1642 37.8731 98.4148 37.8894 98.6926 37.9221C98.9704 37.9548 99.172 37.9874 99.3136 38.0147V40.6622C99.1284 40.6949 98.8833 40.7167 98.5837 40.733C98.2786 40.7493 97.9572 40.7548 97.6194 40.7548C96.993 40.7548 96.4973 40.6513 96.1432 40.4388C95.7836 40.2264 95.6039 39.8505 95.6039 39.3003C95.6039 39.017 95.6638 38.7828 95.7891 38.5976L95.7836 38.603Z" fill="#989898"/>
</g>
<defs>
<clipPath id="clip0_10586_2128">
<rect width="116" height="51.2707" fill="white"/>
</clipPath>
</defs>
</svg>
