<svg width="77" height="42" viewBox="0 0 77 42" fill="none" xmlns="http://www.w3.org/2000/svg">
<g clip-path="url(#clip0_10426_2380)">
<path d="M0.712952 0.234528H76.3623V4.67391H17.5946V19.874H0.712952V0.234528Z" fill="#989898"/>
<path d="M0.712952 0.234528H76.3623V4.67391H17.5946V19.874H0.712952V0.234528Z" stroke="#989898" stroke-width="0.487713" stroke-miterlimit="3.86"/>
<path d="M76.3623 41.1855H0.712952V36.7461H59.4789V21.9746H76.3623V41.1855Z" fill="#989898"/>
<path d="M76.3623 41.1855H0.712952V36.7461H59.4789V21.9746H76.3623V41.1855Z" stroke="#989898" stroke-width="0.487713" stroke-miterlimit="3.86"/>
<path d="M21.3152 16.7362C21.3294 19.2708 23.2457 20.269 25.4156 20.269C27.5854 20.269 29.5301 19.4648 29.5301 16.9585C29.5301 15.1718 28.1544 14.5068 26.7912 14.1047C25.4156 13.7026 24.0523 13.565 24.0523 12.8031C24.0523 12.1522 24.7136 11.9582 25.2418 11.9582C25.9952 11.9582 26.8036 12.2492 26.7628 13.1488H29.2234C29.2092 10.9176 27.3195 9.96341 25.4404 9.96341C23.6677 9.96341 21.5918 10.8082 21.5918 12.9689C21.5918 14.7838 23.0064 15.4205 24.3555 15.8226C25.7187 16.2247 27.0677 16.3905 27.0677 17.2636C27.0677 17.9973 26.3002 18.2742 25.5592 18.2742C24.5132 18.2742 23.8272 17.9003 23.774 16.7362H21.3135H21.3152Z" fill="#989898"/>
<path d="M37.2416 15.5033C37.0821 13.6055 35.5611 12.6636 33.8557 12.6636C31.6469 12.6636 30.2571 14.2986 30.2571 16.5845C30.2571 18.8703 31.7923 20.269 33.8557 20.269C35.6816 20.269 37.1087 19.1613 37.3072 17.2353H35.125C35.0186 17.9972 34.6215 18.4682 33.8415 18.4682C32.8896 18.4682 32.5049 17.5122 32.5049 16.5845C32.5049 15.5862 32.7034 14.4644 33.9603 14.4644C34.5294 14.4644 35.0452 14.8948 35.0576 15.5033H37.2399H37.2416Z" fill="#989898"/>
<path d="M38.4287 20.0608H40.6765V16.14C40.6765 15.3498 41.047 14.602 41.8926 14.602C43.1228 14.602 43.0165 15.6003 43.0165 16.5827V20.0591H45.2643V15.4468C45.2643 14.408 45.0799 12.6619 42.7913 12.6619C41.9706 12.6619 41.0452 13.1187 40.7013 13.8524H40.6747V10.1679H38.4269V20.0591L38.4287 20.0608Z" fill="#989898"/>
<path d="M49.089 10.1697H46.8412V20.0609H49.089V10.1697Z" fill="#989898"/>
<path d="M57.501 12.87H55.2532V16.7203C55.2532 17.9955 54.5122 18.3271 54.0229 18.3271C53.3085 18.3271 52.9114 17.9937 52.9114 17.0395V12.87H50.6636V17.193C50.6636 19.0767 51.2326 20.269 53.2039 20.269C53.9981 20.269 54.8703 19.8122 55.2939 19.0767H55.3205V20.0609H57.5028V12.8718L57.501 12.87ZM51.6953 11.9017H53.679V10.1697H51.6953V11.9017ZM56.4958 10.1697H54.5122V11.9017H56.4958V10.1697Z" fill="#989898"/>
<path d="M63.1483 12.87H61.7602V10.6953H59.5107V12.87H58.3726V14.3939H59.5107V17.5934C59.5107 19.5458 59.9999 20.1279 61.918 20.1279C62.3275 20.1279 62.7388 20.0732 63.1483 20.0591V18.3271C62.9497 18.3271 62.7512 18.3553 62.5668 18.3553C62.0776 18.3553 61.7602 18.2301 61.7602 17.6622V14.3921H63.1483V12.8683V12.87Z" fill="#989898"/>
<path d="M71.1091 17.0413C71.2155 14.6038 69.9852 12.6636 67.5246 12.6636C65.5002 12.6636 63.8214 14.2422 63.8214 16.4451C63.8214 18.8562 65.3424 20.269 67.5778 20.269C69.113 20.269 70.5808 19.5493 70.9903 17.8861H68.8879C68.6769 18.4135 68.1469 18.6763 67.6044 18.6763C66.6525 18.6763 66.11 18.0255 66.0692 17.0413H71.1091ZM66.0692 15.7238C66.2022 14.8507 66.7305 14.2563 67.5246 14.2563C68.3188 14.2563 68.8205 14.9212 68.8613 15.7238H66.071H66.0692Z" fill="#989898"/>
<path d="M72.3119 20.0609H74.5597V16.4999C74.5597 15.6004 75.1412 14.7961 76.2527 14.7961C76.5576 14.7961 76.8217 14.8508 77.1124 14.9337V12.7872C76.9405 12.7449 76.7561 12.7307 76.5842 12.7307C75.618 12.7307 74.8522 13.2158 74.5207 14.1294H74.4941V12.8683H72.3119V20.0574V20.0609Z" fill="#989898"/>
<path d="M0 28.5234C0.0141818 31.0579 1.9305 32.0562 4.10032 32.0562C6.27014 32.0562 8.21304 31.2519 8.21304 28.7456C8.21304 26.959 6.83741 26.294 5.47418 25.8919C4.09854 25.4897 2.73532 25.3522 2.73532 24.5902C2.73532 23.9394 3.39655 23.7454 3.92659 23.7454C4.68 23.7454 5.48659 24.0364 5.44759 24.9359H7.90814C7.89395 22.7048 6.00423 21.7506 4.12514 21.7506C2.35241 21.7506 0.276545 22.5954 0.276545 24.756C0.276545 26.5709 1.69118 27.2076 3.04023 27.6098C4.40168 28.0119 5.7525 28.1777 5.7525 29.0508C5.7525 29.7845 4.98491 30.0614 4.24391 30.0614C3.19977 30.0614 2.51195 29.6875 2.45877 28.5234H0Z" fill="#989898"/>
<path d="M15.7278 24.659H13.4268L12.131 29.3418H12.1044L10.8085 24.659H8.42773L10.2005 29.6593C10.3334 30.0473 10.7695 31.1549 10.7695 31.5429C10.7695 32.0421 10.3866 32.3472 9.87073 32.3472H9.09073V34.2591H10.1491C11.6701 34.2591 12.4766 34.0651 13.0191 32.4866L15.7314 24.659H15.7278Z" fill="#989898"/>
<path d="M15.9759 29.4794C16.0415 31.4883 17.7096 32.0562 19.3352 32.0562C20.9608 32.0562 22.6289 31.4195 22.6289 29.4935C22.6289 28.8974 22.2708 27.8444 20.8828 27.5551C19.8511 27.3188 18.3425 27.1953 18.3425 26.5163C18.3425 26.0171 18.9381 25.9766 19.3086 25.9766C19.5869 25.9766 19.8387 26.0313 20.023 26.1565C20.2092 26.2817 20.3138 26.4757 20.3138 26.7791H22.3896C22.3098 24.9095 20.7357 24.4509 19.2288 24.4509C17.8798 24.4509 16.0947 24.9218 16.0947 26.6539C16.0947 28.594 17.8674 28.6346 19.282 29.0085C19.6791 29.1055 20.3793 29.2166 20.3793 29.7704C20.3793 30.3242 19.7571 30.5324 19.321 30.5324C19.0037 30.5324 18.6988 30.4495 18.4878 30.2837C18.2627 30.1038 18.1173 29.841 18.1173 29.4794H15.9741H15.9759Z" fill="#989898"/>
<path d="M27.8653 24.659H26.4772V22.4843H24.2294V24.659H23.0913V26.1829H24.2294V29.3823C24.2294 31.3348 24.7187 31.9168 26.6368 31.9168C27.0463 31.9168 27.4575 31.8622 27.867 31.848V30.116C27.6685 30.116 27.4699 30.1443 27.2856 30.1443C26.7963 30.1443 26.479 30.019 26.479 29.4511V26.1811H27.867V24.6572L27.8653 24.659Z" fill="#989898"/>
<path d="M35.8267 28.8286C35.9331 26.3911 34.7028 24.4509 32.2423 24.4509C30.2178 24.4509 28.5391 26.0295 28.5391 28.2324C28.5391 30.6435 30.0601 32.0562 32.2955 32.0562C33.8289 32.0562 35.2985 31.3366 35.708 29.6734H33.6055C33.3946 30.199 32.8645 30.4636 32.3221 30.4636C31.3701 30.4636 30.8277 29.8127 30.7887 28.8286H35.8285H35.8267ZM30.7869 27.5128C30.9198 26.6398 31.4481 26.0454 32.2423 26.0454C33.0365 26.0454 33.5382 26.7103 33.5789 27.5128H30.7887H30.7869Z" fill="#989898"/>
<path d="M36.9495 31.8481H39.1973V28.3435C39.1973 26.8761 39.5413 26.3911 40.3478 26.3911C40.9559 26.3911 41.1952 26.9167 41.1952 27.7633V31.8499H43.443V28.3312C43.443 27.1671 43.5352 26.3911 44.5013 26.3911C45.0828 26.3911 45.4409 26.8479 45.4409 27.6239V31.8499H47.6905V27.5551C47.6905 26.1829 47.4529 24.4527 45.2689 24.4527C44.3436 24.4527 43.6682 24.8548 43.1257 25.6168C42.7552 24.7437 41.9876 24.4527 41.1278 24.4527C40.2681 24.4527 39.5678 24.9236 39.1566 25.6432H39.13V24.6591H36.9478V31.8481H36.9495Z" fill="#989898"/>
<path d="M48.8007 29.4794C48.8663 31.4883 50.5327 32.0562 52.16 32.0562C53.7874 32.0562 55.4538 31.4195 55.4538 29.4935C55.4538 28.8974 55.0957 27.8444 53.7076 27.5551C52.6759 27.3188 51.1673 27.1953 51.1673 26.5163C51.1673 26.0171 51.7629 25.9766 52.1334 25.9766C52.4118 25.9766 52.6617 26.0313 52.8479 26.1565C53.0322 26.2817 53.1386 26.4757 53.1386 26.7791H55.2144C55.1347 24.9095 53.5605 24.4509 52.0537 24.4509C50.7046 24.4509 48.9195 24.9218 48.9195 26.6539C48.9195 28.594 50.6922 28.6346 52.1069 29.0085C52.504 29.1055 53.2042 29.2166 53.2042 29.7704C53.2042 30.3242 52.582 30.5324 52.1459 30.5324C51.8285 30.5324 51.5236 30.4495 51.3127 30.2837C51.0875 30.1038 50.9422 29.841 50.9422 29.4794H48.799H48.8007Z" fill="#989898"/>
<path d="M76.4846 8.4836C76.4846 9.65298 75.6745 10.459 74.6463 10.459C73.5029 10.459 72.7956 9.57008 72.7956 8.4836C72.7956 7.31952 73.6057 6.5082 74.6463 6.5082C75.6869 6.5082 76.4846 7.31952 76.4846 8.4836ZM76.9987 8.4836C76.9987 7.04438 75.9067 6.09195 74.6463 6.09195C73.3859 6.09195 72.2815 7.04438 72.2815 8.4836C72.2815 9.84522 73.2654 10.8753 74.6463 10.8753C75.9067 10.8753 76.9987 9.92283 76.9987 8.4836ZM74.1712 8.34956V7.57527H74.6977C74.9619 7.57527 75.2756 7.61407 75.2756 7.93331C75.2756 8.31781 74.9867 8.3478 74.6587 8.3478H74.1695L74.1712 8.34956ZM74.1712 8.71995H74.5825L75.2703 9.85228H75.7649L75.0204 8.6882C75.4192 8.64411 75.7135 8.4448 75.7135 7.96506C75.7135 7.42711 75.3855 7.20488 74.7438 7.20488H73.7351V9.85228H74.1712V8.71995Z" fill="#989898"/>
</g>
<defs>
<clipPath id="clip0_10426_2380">
<rect width="76.7217" height="41.4201" fill="white"/>
</clipPath>
</defs>
</svg>
