<svg width="93" height="27" viewBox="0 0 93 27" fill="none" xmlns="http://www.w3.org/2000/svg">
<g clip-path="url(#clip0_10220_2648)">
<path d="M0.354614 26.305H0.750431V23.3834H0.354614V26.305ZM3.19522 26.305H3.59104V23.7057H5.06836V23.3834H1.71716V23.7057H3.19449V26.305H3.19522ZM5.12648 26.305H5.57454L5.93651 25.6885H8.2783L8.64101 26.305H9.08906L7.3535 23.3834H6.86131L5.12575 26.305H5.12648ZM8.08849 25.3655H6.1278L7.10851 23.7064L8.08922 25.3655H8.08849ZM10.0595 26.305H12.7228V25.9827H10.4553V23.3834H10.0595V26.305ZM13.6836 26.305H14.0787V23.3834H13.6836V26.305ZM15.0425 26.305H15.4906L15.8533 25.6885H18.1943L18.557 26.305H19.0051L17.2695 23.3834H16.7773L15.0418 26.305H15.0425ZM18.0045 25.3655H16.0438L17.0245 23.7064L18.0052 25.3655H18.0045ZM19.9637 26.305H20.3595V23.7388L23.0353 26.305H23.6247V23.3834H23.2288V25.9496L20.553 23.3834H19.9637V26.305ZM26.9957 25.2441C26.9957 25.9827 27.2459 26.3381 28.0375 26.3381H29.5303C30.3499 26.3381 30.5191 26.0512 30.5191 25.5229V25.325H30.1475V25.5067C30.1475 25.9025 29.9945 26.0151 29.4618 26.0151H28.0772C27.6983 26.0151 27.3908 25.9025 27.3908 25.3942V24.2957C27.3908 23.7874 27.6976 23.6748 28.0772 23.6748H29.4493C29.8128 23.6748 30.1203 23.6991 30.1203 24.1949V24.3281H30.4668V24.078C30.4668 23.6866 30.2689 23.3511 29.5501 23.3511H28.0375C27.2466 23.3511 26.9957 23.7064 26.9957 24.4451V25.2441ZM31.5814 26.305H34.4669V25.9827H31.9773V24.9623H34.3544V24.6386H31.9773V23.7064H34.4515V23.3842H31.5814V26.3057V26.305ZM35.4969 26.305H35.8928V25.1506H37.8218C38.1816 25.1506 38.403 25.2073 38.403 25.6634V26.305H38.7738V25.5582C38.7738 25.2919 38.6775 25.083 38.2735 25.0094V25.0006C38.5759 24.9733 38.8099 24.8593 38.8099 24.4488V24.2104C38.8099 23.6615 38.6775 23.3827 37.8336 23.3827H35.4969V26.3042V26.305ZM35.8928 24.8284V23.7057H37.6931C38.2735 23.7057 38.4155 23.8109 38.4155 24.1376V24.4039C38.4155 24.7107 38.2294 24.8277 37.7902 24.8277H35.8928V24.8284ZM39.7207 26.305H40.1688L40.5315 25.6885H42.8725L43.2352 26.305H43.6833L41.9477 23.3834H41.4548L39.72 26.305H39.7207ZM42.682 25.3655H40.7205L41.702 23.7064L42.6827 25.3655H42.682ZM44.6412 26.305H45.037V23.7388H45.0451L46.8255 26.305H47.1073L48.887 23.7388H48.8958V26.305H49.2917V23.3834H48.6744L46.9675 25.8334L45.2607 23.3834H44.6434V26.305H44.6412ZM50.4526 26.305H50.8484V23.3834H50.4526V26.305ZM51.9586 25.2441C51.9586 25.9827 52.2088 26.3381 53.0012 26.3381H54.4939C55.3128 26.3381 55.482 26.0512 55.482 25.5229V25.325H55.1112V25.5067C55.1112 25.9025 54.9574 26.0151 54.424 26.0151H53.0401C52.6613 26.0151 52.3537 25.9025 52.3537 25.3942V24.2957C52.3537 23.7874 52.6605 23.6748 53.0401 23.6748H54.413C54.7757 23.6748 55.0832 23.6991 55.0832 24.1949V24.3281H55.4298V24.078C55.4298 23.6866 55.2319 23.3511 54.5138 23.3511H53.0012C52.2088 23.3511 51.9586 23.7064 51.9586 24.4451V25.2441ZM58.7456 25.5994C58.7456 26.2373 59.254 26.3381 59.8308 26.3381H60.9293C61.5142 26.3381 62.1035 26.2859 62.1035 25.5678V25.378C62.1035 24.8821 61.7812 24.6592 61.0094 24.6592H59.8389C59.2224 24.6592 59.1128 24.5422 59.1128 24.1957C59.1128 23.716 59.3828 23.6755 60.1457 23.6755H60.5651C61.6017 23.6755 61.6503 23.7601 61.6591 24.2244H62.0306V24.1228C62.0306 23.6027 61.7834 23.3525 60.8035 23.3525H59.9522C59.1363 23.3525 58.7412 23.5019 58.7412 24.1677C58.7412 24.9424 59.1363 25.016 60.3436 25.016H61.0941C61.5863 25.016 61.7312 25.1087 61.7312 25.4758C61.7312 25.8952 61.562 26.0158 60.9888 26.0158H59.7617C59.2687 26.0158 59.1157 25.879 59.1157 25.5921V25.3868H58.7449V25.6009L58.7456 25.5994ZM63.1945 25.5707C63.1945 26.1645 63.494 26.3381 64.2363 26.3381H65.5841C66.3272 26.3381 66.6259 26.1645 66.6259 25.5707V23.3834H66.2308V25.5671C66.2308 25.8488 66.1337 26.0144 65.5974 26.0144H64.2245C63.6882 26.0144 63.5918 25.8496 63.5918 25.5671V23.3834H63.1953V25.5707H63.1945ZM67.7766 26.305H68.1724V25.1506H70.1015C70.4598 25.1506 70.6819 25.2073 70.6819 25.6634V26.305H71.0535V25.5582C71.0535 25.2919 70.9564 25.083 70.5532 25.0094V25.0006C70.857 24.9733 71.091 24.8593 71.091 24.4488V24.2104C71.091 23.6615 70.9571 23.3827 70.114 23.3827H67.7773V26.3042L67.7766 26.305ZM68.1724 24.8284V23.7057H69.9727C70.5532 23.7057 70.6952 23.8109 70.6952 24.1376V24.4039C70.6952 24.7107 70.5098 24.8277 70.0691 24.8277H68.1731L68.1724 24.8284ZM72.1931 26.305H72.5889V24.9616H74.8851V24.6378H72.5889V23.7057H74.9778V23.3834H72.1931V26.305ZM75.4244 26.305H75.8724L76.2351 25.6885H78.5762L78.9389 26.305H79.387L77.6514 23.3834H77.1592L75.4237 26.305H75.4244ZM78.3871 25.3655H76.4257L77.4064 23.7064L78.3879 25.3655H78.3871ZM80.1646 25.2441C80.1646 25.9827 80.4155 26.3381 81.2064 26.3381H82.6992C83.5188 26.3381 83.688 26.0512 83.688 25.5229V25.325H83.3164V25.5067C83.3164 25.9025 83.1634 26.0151 82.6308 26.0151H81.2461C80.8672 26.0151 80.5597 25.9025 80.5597 25.3942V24.2957C80.5597 23.7874 80.8665 23.6748 81.2461 23.6748H82.619C82.9817 23.6748 83.2892 23.6991 83.2892 24.1949V24.3281H83.6357V24.078C83.6357 23.6866 83.4386 23.3511 82.7198 23.3511H81.2064C80.4162 23.3511 80.1646 23.7064 80.1646 24.4451V25.2441ZM84.7504 26.305H87.6358V25.9827H85.1462V24.9623H87.5233V24.6386H85.1462V23.7064H87.6204V23.3842H84.7504V26.3057V26.305ZM88.6151 25.5994C88.6151 26.2373 89.1242 26.3381 89.701 26.3381H90.7987C91.3843 26.3381 91.9736 26.2859 91.9736 25.5678V25.378C91.9736 24.8821 91.6507 24.6592 90.8796 24.6592H89.7091C89.0918 24.6592 88.9829 24.5422 88.9829 24.1957C88.9829 23.716 89.253 23.6755 90.0159 23.6755H90.4352C91.4726 23.6755 91.5204 23.7601 91.5293 24.2244H91.9001V24.1228C91.9001 23.6027 91.6543 23.3525 90.6736 23.3525H89.8224C89.0065 23.3525 88.6114 23.5019 88.6114 24.1677C88.6114 24.9424 89.0065 25.016 90.2138 25.016H90.9635C91.4564 25.016 91.6014 25.1087 91.6014 25.4758C91.6014 25.8952 91.4321 26.0158 90.859 26.0158H89.6319C89.1389 26.0158 88.9859 25.879 88.9859 25.5921V25.3868H88.6143V25.6009L88.6151 25.5994Z" fill="#989898"/>
<path d="M27.9359 8.01193V4.47827H24.0889C26.9839 4.89542 27.7932 5.93058 27.9359 8.01193Z" fill="#989898"/>
<path d="M18.0979 9.81324H21.8251C25.344 9.81324 27.0833 10.1546 27.9352 11.1574V8.58679H22.5807C22.5807 7.71202 22.3813 7.08813 18.5747 7.08813C15.4552 7.08813 14.8784 7.52074 14.8784 8.37123C14.8784 9.3181 15.2963 9.81324 18.0972 9.81324" fill="#989898"/>
<path d="M9.21929 14.3008H14.7666C14.7666 15.3551 14.8976 16.1585 17.9493 16.1585H19.8548C22.4048 16.1585 23.1979 15.6906 23.1979 14.5547C23.1979 13.7115 22.7764 13.3768 20.8731 13.3768H15.8297C10.8151 13.3474 9.33185 12.2563 9.33185 8.33491C9.33185 5.89012 10.6804 4.87703 12.722 4.47827H0V18.7527H12.9067C10.2589 18.2774 9.21929 16.9678 9.21929 14.3016" fill="#989898"/>
<path d="M24.9512 18.7529H27.9352V17.3933C27.3548 18.0996 26.4116 18.5241 24.9512 18.7529Z" fill="#989898"/>
<path d="M35.9148 0H30.536V2.7251H35.9148V0Z" fill="#989898"/>
<path d="M35.9148 4.46899H30.536V18.753H35.9148V4.46899Z" fill="#989898"/>
<path d="M37.0059 10.8298C37.0059 5.42154 39.6956 4.24292 43.6178 4.24292H49.669C53.6449 4.24292 56.0816 5.70185 56.0816 8.9758V10.2699H50.8719C50.8719 8.80805 50.1164 8.27613 47.7657 8.27613H45.6925C43.4522 8.27613 42.3869 8.89413 42.3869 10.4597V12.3645C42.3869 14.2126 43.5618 14.7733 45.2422 14.7733H47.9894C49.5013 14.7733 50.8727 14.4378 50.8727 13.1208V12.7861H56.0823V14.0449C56.0823 17.8861 52.89 18.9772 49.8103 18.9772H44.3182C40.7602 18.9772 37.0073 18.3069 37.0073 12.1968V10.8283L37.0059 10.8298Z" fill="#989898"/>
<path d="M56.7562 10.8298C56.7562 5.42154 59.4438 4.24292 63.3652 4.24292H67.1188C72.8339 4.24292 75.186 5.44876 75.186 10.4075V12.8155H62.1329V13.6822C62.1329 15.1948 63.1967 15.6164 65.4377 15.6164H67.0916C70.0043 15.6164 70.1426 14.8314 70.1426 13.9941H75.186V14.6055C75.186 18.1914 71.9922 18.9779 68.0988 18.9779H64.0663C60.5084 18.9779 56.7562 18.3076 56.7562 12.1975V10.8291V10.8298ZM69.9756 10.2758C69.9756 8.566 69.9955 7.58087 66.055 7.58087C62.1145 7.58087 62.1336 8.56674 62.1336 10.2758H69.9764H69.9756Z" fill="#989898"/>
<path d="M76.5302 4.46878H81.5713V7.18579H81.6279C82.2452 4.9161 84.4296 4.24365 86.8663 4.24365C90.7891 4.24365 92.3282 5.92403 92.3282 9.87778C92.3282 10.2412 92.301 10.6348 92.2731 11.1366H87.6233C87.6233 9.3179 87.2025 8.4446 85.0468 8.4446C83.1972 8.4446 81.9097 9.14574 81.9097 10.8519V18.7528H76.5302V4.46878Z" fill="#989898"/>
</g>
<defs>
<clipPath id="clip0_10220_2648">
<rect width="92.329" height="26.338" fill="white"/>
</clipPath>
</defs>
</svg>
