<svg width="130" height="23" viewBox="0 0 130 23" fill="none" xmlns="http://www.w3.org/2000/svg">
<g clip-path="url(#clip0_10426_2368)">
<path d="M40.0018 14.7985L39.9852 14.5154L39.9687 14.4127L39.9223 14.1146L39.9124 14.0748L39.8279 13.7652L39.818 13.7254L39.7203 13.477L39.6706 13.3512L39.5878 13.2054L39.4685 12.9984L39.4288 12.9454L39.245 12.707L39.2119 12.6639L39.0628 12.5033L39.033 12.4735L39.0231 12.4652L39.0214 12.4619H39.0231L39.0247 12.4585L39.0231 12.4569L39.0214 12.4552L38.8558 12.3045L38.7929 12.2549L38.6703 12.1571L38.5279 12.0578L38.4666 12.0147L38.2464 11.8773L38.2331 11.8707L38.0079 11.7464L37.9119 11.7001L37.7529 11.6206L37.5641 11.5378L37.4796 11.5014L37.4084 11.4732L37.3753 11.46L37.2892 11.4268L37.1865 11.3871L37.1501 11.3755L37.0607 11.3457L36.9514 11.3076L36.8735 11.2811L36.8238 11.2678L36.6781 11.2248L36.5373 11.1834L36.5142 11.1784L36.3303 11.1321L36.1796 11.094L36.1283 11.0824L35.9047 11.0343L35.8021 11.0128L35.6596 10.9863L35.403 10.9383L35.3914 10.9366L35.0999 10.8853L34.9823 10.8638L34.7852 10.824L34.5816 10.7843L34.4474 10.7545L34.2106 10.7015L34.0847 10.6717L33.8711 10.6187L33.5631 10.5359L33.5432 10.5293L33.2865 10.4514L33.0414 10.3653H33.0381L32.8245 10.2792L32.6307 10.1881L32.5711 10.155L32.4585 10.0921L32.3078 9.99269L32.1803 9.89002L32.1389 9.84696L32.0743 9.78238L31.9236 9.55715L31.8226 9.32365L31.7646 9.08352L31.7514 8.95932L31.7497 8.92786L31.7481 8.89639V8.87983V8.87652V8.87486V8.87321V8.87155V8.8583L31.7497 8.802L31.7712 8.58837L31.8193 8.38633L31.8888 8.21576L31.8955 8.19754L31.9965 8.022L32.1256 7.86136L32.1654 7.82327L32.2813 7.71232L32.4535 7.58646L32.4635 7.57818L32.6688 7.46391L32.7566 7.42914L32.8957 7.37117L33.0712 7.31984L33.1458 7.29665L33.3975 7.24863L33.419 7.24366L33.7138 7.21054L33.737 7.20888L34.0317 7.19729L34.0897 7.19895L34.1791 7.2006H34.257L34.3199 7.20226L34.3845 7.20723L34.5849 7.22047L34.8349 7.25359L34.8813 7.26187L35.0684 7.29996L35.287 7.35958L35.35 7.38277L35.4891 7.43245L35.6745 7.52022L35.7921 7.58812L35.8484 7.61958L36.0107 7.73219L36.1631 7.85639L36.2061 7.89945L36.3038 7.99385L36.433 8.14455L36.5523 8.30684L36.5937 8.37805L36.7609 8.66951L36.9414 9.08352L36.9514 9.11333L37.0954 9.55219L37.16 9.80556L37.1766 9.87015L37.1832 9.90161H37.1849H37.1865L37.2064 9.89664L37.2445 9.88836L37.2842 9.88174L37.372 9.86352L37.5542 9.82543L37.5922 9.81881L37.7794 9.78072L37.8787 9.76085L38.0344 9.72773L38.1404 9.7062L38.3822 9.65817L38.5875 9.61512L38.5991 9.61346L38.7945 9.57371L38.8608 9.56047L38.9701 9.53728L39.1158 9.50747L39.1291 9.50582L39.2748 9.47601L39.3377 9.46276L39.404 9.44951L39.5182 9.42633L39.5199 9.42467L39.6209 9.4048L39.6424 9.40149L39.6656 9.39652L39.6789 9.39321L39.6871 9.39155L39.6971 9.38989V9.38161V9.37996L39.6871 9.33524L39.6789 9.29881L39.6656 9.24251L39.6424 9.14314L39.6209 9.06034L39.5199 8.70595L39.5182 8.69932L39.404 8.36315L39.3377 8.19588L39.2748 8.03359L39.1291 7.71729L39.1158 7.69079L38.9701 7.41257L38.8608 7.23041L38.7945 7.12111L38.5991 6.84289L38.5875 6.82965L38.3822 6.5829L38.3524 6.55309L38.1404 6.34111L38.0344 6.25003L37.8787 6.11589L37.7794 6.04303L37.5922 5.90723L37.5542 5.88239L37.372 5.76978L37.2842 5.71513L37.2445 5.69526L37.2064 5.67538L37.1865 5.66545L37.1832 5.66379L37.1766 5.65882L37.16 5.6522L37.0954 5.61742L36.9514 5.5429L36.9414 5.53959L36.7609 5.46341L36.5937 5.39385L36.5523 5.38061L36.433 5.34417L36.3038 5.30277L36.2061 5.27131L36.1631 5.26137L36.0107 5.22494L35.8484 5.18685L35.7921 5.1736L35.6745 5.15538L35.4891 5.12392L35.35 5.10239L35.287 5.09577L35.0684 5.07424L34.8813 5.05602L34.8349 5.05437L34.5849 5.04277L34.3845 5.03449H34.3199L34.257 5.03284H34.2239H34.2222H34.2189H34.2139H34.2023H34.1791L34.0897 5.03449L34.0317 5.03615L33.737 5.04443L33.7138 5.04609L33.419 5.0643L33.3975 5.06596L33.1458 5.09245L33.0712 5.10073L32.8957 5.12558L32.7566 5.14545L32.6688 5.16201L32.4635 5.2001L32.4535 5.20175L32.2813 5.24315L32.1654 5.27131L32.1256 5.2829L31.9965 5.31933L31.8955 5.34914L31.8888 5.3508L31.8193 5.37564L31.7712 5.3922L31.7497 5.39882L31.7481 5.40048L31.7448 5.40214L31.6239 5.44354L31.3854 5.54124L31.3721 5.54621L31.1337 5.66213L31.0641 5.70188L30.9084 5.78965L30.771 5.87908L30.6948 5.9271L30.5044 6.07118L30.4944 6.0778L30.2642 6.28812L30.1334 6.4057L30.049 6.50672L29.8618 6.73028L29.8304 6.76672L29.6995 6.97538L29.5853 7.15754L29.5621 7.20723L29.4462 7.46722L29.3965 7.57984L29.3518 7.73385L29.2756 7.99219L29.264 8.03359L29.2209 8.31346L29.1911 8.51716L29.1878 8.57015L29.1746 8.77219L29.1729 8.87983V8.90136V8.91792V8.92123V8.92454V8.92951V8.94773V8.98416L29.1746 9.02556L29.1878 9.27728L29.1911 9.30378L29.2209 9.56378L29.264 9.78238L29.2756 9.84199L29.3518 10.1136L29.3965 10.2378L29.4462 10.3769L29.5621 10.6336L29.5853 10.675L29.6995 10.882L29.8304 11.0741L29.8618 11.1188L30.049 11.344L30.0755 11.3705L30.1334 11.4285L30.2642 11.556L30.4944 11.7481L30.5044 11.7564L30.6948 11.8905L30.771 11.9452L30.9084 12.0263L31.0641 12.1191L31.1337 12.1555L31.3721 12.2764L31.3854 12.283L31.6239 12.384L31.7448 12.4354L31.7481 12.437L31.7514 12.4387L31.7646 12.442L31.8226 12.4635L31.9236 12.4999L32.0743 12.5546L32.1389 12.5778L32.1803 12.5894L32.3078 12.6291L32.4585 12.6738L32.5711 12.7086L32.6307 12.7235L32.8245 12.7732L33.0381 12.8278L33.0414 12.8295L33.2865 12.8825L33.5432 12.9371L33.5631 12.9405L33.8711 12.9968L34.0847 13.0348L34.2106 13.0547L34.4474 13.0895L34.5816 13.1127L34.7852 13.1491L34.9823 13.1889L35.0999 13.212L35.3914 13.2783L35.403 13.2816L35.6596 13.3495L35.8021 13.3926L35.9047 13.424L36.1283 13.5019L36.1796 13.5234L36.3303 13.5863L36.5142 13.6757L36.5373 13.689L36.6781 13.7701L36.8238 13.8712L36.8735 13.9109L36.9514 13.9771L37.0474 14.0732L37.0607 14.0864L37.1501 14.204L37.1865 14.2686L37.2892 14.4541L37.3753 14.7323L37.4084 15.0354V15.0552V15.0652V15.0668V15.0685V15.0701V15.0784V15.1082V15.1397L37.4001 15.2573L37.3621 15.4825L37.2942 15.6911L37.1981 15.8832L37.1865 15.8998L37.0739 16.0588L36.9182 16.2178L36.7791 16.3271L36.7344 16.3618L36.5224 16.4861L36.3419 16.5639L36.2807 16.5904L36.0091 16.6748L35.8766 16.703L35.7093 16.7394L35.3814 16.7825H35.3798L35.0204 16.8057L34.8548 16.8106H34.83H34.7819H34.7703H34.7637H34.7604H34.7588H34.7571H34.7389H34.7024H34.6644L34.5882 16.8073L34.3729 16.7974L34.363 16.7957L34.0914 16.7692L33.9258 16.7411L33.8214 16.7245L33.5614 16.6632L33.5101 16.6483L33.3114 16.5871L33.1143 16.5125L33.0712 16.496L32.8411 16.3883L32.7384 16.3304L32.6258 16.2675L32.4221 16.13L32.384 16.1002L32.2316 15.981L32.0544 15.8154L32.0495 15.8104L31.8905 15.6365L31.7398 15.4444L31.7348 15.4378L31.6007 15.239L31.4781 15.0204L31.4367 14.9327L31.3672 14.7886L31.2728 14.5452L31.1916 14.2885L31.1535 14.1361L31.1254 14.0202L31.0972 13.8811L31.0856 13.8099L31.079 13.7751L31.0757 13.7701L31.0575 13.7734L31.0211 13.7801L30.8985 13.8049L30.8869 13.8066L30.7213 13.8397L30.6352 13.8562L30.5011 13.8827L30.4 13.9026L30.2477 13.9324L30.1798 13.9457L29.9777 13.9854L29.9761 13.9871L29.7856 14.0235L29.6118 14.0583L29.4511 14.0898L29.4296 14.0947L29.3071 14.1196L29.1779 14.1444H29.1762L28.9576 14.1875H28.9543L28.7821 14.2222L28.7738 14.2239L28.6513 14.2487H28.6479L28.6099 14.257H28.6065H28.6032H28.6016L28.5916 14.2603H28.59H28.5883H28.5867L28.59 14.2819L28.5916 14.2951L28.6016 14.368L28.6099 14.4143L28.6479 14.6396L28.6513 14.6561L28.7738 15.1794L28.7821 15.2142L28.9543 15.7425L28.9576 15.7508L29.1762 16.2641L29.1779 16.2658L29.3071 16.5092L29.4296 16.7096L29.4511 16.7444L29.6118 16.9696L29.7856 17.1866L29.9761 17.3936L29.9777 17.3952L30.1798 17.5906L30.2477 17.6502L30.4 17.7794L30.5011 17.8539L30.6352 17.955L30.7213 18.0113L30.8869 18.1206L30.8985 18.1272L31.0211 18.1967L31.0575 18.2183L31.0757 18.2282L31.079 18.2299L31.0856 18.2332L31.0972 18.2398L31.1254 18.2564L31.1535 18.2729L31.1916 18.2911L31.2728 18.3309L31.3672 18.3789L31.4367 18.4137L31.4781 18.4302L31.6007 18.4849L31.7348 18.5412L31.7398 18.5429L31.8905 18.5992L32.0495 18.6588L32.0544 18.6604L32.2316 18.7134L32.384 18.7598L32.4221 18.7697L32.6258 18.8178L32.7384 18.8443L32.8411 18.8641L33.0712 18.9055L33.1143 18.9138L33.3114 18.9387L33.5101 18.9651L33.5614 18.9685L33.8214 18.99L33.9258 18.9999L34.0914 19.0066L34.363 19.0181H34.3729L34.5882 19.0198H34.6163H34.6246H34.6329H34.6495H34.6644H34.719H34.7389L34.83 19.0181H34.8548L35.0204 19.0115L35.3798 18.9983H35.3814L35.7093 18.9701L35.8766 18.9552L36.0091 18.937L36.2807 18.8989L36.3419 18.8906L36.5224 18.8542L36.7344 18.8128L36.7791 18.8029L36.9182 18.7664L37.0739 18.725L37.1865 18.6952L37.1981 18.6902L37.2942 18.6571L37.3621 18.6339L37.4001 18.6207L37.4084 18.6174L37.4796 18.5925L37.5641 18.5644L37.7529 18.4816L37.9119 18.412L38.0079 18.3607L38.2331 18.2415L38.2464 18.2332L38.4666 18.0908L38.5279 18.0527L38.6703 17.9417L38.7929 17.8457L38.8558 17.786L39.0214 17.6304L39.0231 17.6271L39.033 17.6188L39.0628 17.584L39.2119 17.4134L39.245 17.3753L39.4288 17.1137L39.4685 17.0441L39.5878 16.8355L39.6706 16.6533L39.7203 16.5457L39.818 16.2724L39.8279 16.2426L39.9124 15.9263L39.9223 15.8667L39.9687 15.5984L39.9852 15.4262L40.0018 15.2556L40.0084 15.0801L40.0101 15.0089V14.9923V14.9807V14.9774V14.9757V14.9724V14.9592V14.9327L40.0084 14.9178L40.0018 14.7985Z" fill="#989898"/>
<path d="M50.7363 8.83494L50.7429 8.82169L50.8108 8.65278L50.8489 8.56004L50.8737 8.49711L50.9251 8.3729L50.9284 8.36462L50.9632 8.28182L50.9781 8.24208L50.9863 8.22386L50.9946 8.20233H50.993H50.9913H50.988H50.9863H50.983H50.9781H50.9747H50.9681H50.9632H50.9582H50.9516H50.9433H50.9367H50.9284H50.9251H50.9201H50.9118H50.9019H50.8919H50.882H50.8737H50.8704H50.8605H50.8489H50.8373H50.824H50.8125H50.8108H50.7992H50.786H50.7711H50.7578H50.7429H50.7363H50.728H50.7131H50.6965H50.68H50.6651H50.6518H50.6485H50.6303H50.6137H50.5955H50.579H50.5558H50.5425H50.5044H50.4663H50.4498H50.4266H50.3869H50.3455H50.3372H50.3024H50.2593H50.2163H50.2146H50.1716H50.1269H50.0871H50.0821H50.0374H49.9911H49.9447H49.8503H49.8105H49.7559H49.5671H49.5158H49.4744H49.428H49.3816H49.3353H49.2906H49.2458H49.2078H49.2011H49.1581H49.115H49.072H49.0306H48.9892H48.9511H48.9113H48.8732H48.8368H48.802H48.7838H48.7672H48.7507H48.7341H48.7176H48.7027H48.6861H48.6712H48.6563H48.643H48.6281H48.6149H48.6016H48.5884H48.5751H48.5635H48.552H48.5404H48.5304H48.5188H48.5089H48.5006H48.4907H48.4824H48.4741H48.4658H48.4592H48.4526H48.446H48.441H48.436H48.4311H48.4261H48.4228H48.4195H48.4162H48.4145H48.4128H48.4112H48.4095H48.4079L48.3996 8.22883L48.3748 8.30501L48.3334 8.4259L48.2804 8.58653L48.2621 8.64118L48.2158 8.78029L48.1429 9.0022L48.0618 9.24895L47.974 9.51061L47.9624 9.55035L47.6776 10.4082L47.6047 10.6284L47.5434 10.8123L47.4308 11.1517L47.4159 11.1965L47.353 11.3869L47.2967 11.5591L47.2851 11.5939L47.2255 11.7711L47.1841 11.897L47.1791 11.9119L47.146 12.0112L47.1294 12.0626L47.1261 12.0709L47.1145 12.1123L47.0897 12.1951L47.0814 12.2265L47.04 12.3656L46.987 12.5345L46.9042 12.8061L46.8313 13.0413L46.8214 13.0761L46.7701 13.2317L46.722 13.3824L46.6872 13.4901L46.6674 13.5547L46.6591 13.5828L46.6326 13.6623L46.5763 13.8395L46.5299 13.9786L46.3146 14.6195L46.3097 14.6361L46.0894 15.2753L46.0331 15.4393L45.8907 15.8433L45.8559 15.9443L45.8526 15.9493L45.8393 15.9891L45.836 15.9957L45.8278 16.0222L45.7599 16.2209L45.7516 16.2457H45.7499H45.7483H45.7466H45.7433H45.74H45.7334H45.7267H45.7201H45.7135H45.7102H45.7069H45.7052H45.7036H45.7019L45.7002 16.2391L45.6887 16.211L45.6688 16.153L45.6059 15.9808L45.5015 15.6926L45.3459 15.2687L45.3293 15.224L45.2862 15.1031L45.2647 15.0418L45.2366 14.9623L45.1223 14.646L45.0709 14.5003L44.7778 13.6838L44.6785 13.404L44.4698 12.8326L44.4648 12.8177L44.4036 12.6554L44.3887 12.6124L44.3588 12.5345L44.3158 12.4186L44.2611 12.2712V12.2696L44.1932 12.094L44.1667 12.0228L44.1535 11.9881L44.1237 11.9052L44.1154 11.8804L44.079 11.7777L44.0276 11.6337L44.0194 11.6138L43.9498 11.4184L43.9283 11.3604L43.8703 11.1948L43.8223 11.0623L43.7809 10.9481L43.708 10.7411L43.6881 10.6864L43.5855 10.3999L43.4563 10.0405L43.2924 9.58182L43.1814 9.27379L43.1085 9.06844L43.0274 8.84157L42.9545 8.63953L42.8932 8.47061L42.8899 8.45902L42.8469 8.33813L42.8138 8.24704L42.7989 8.20399L42.7889 8.20233H42.7856H42.7823H42.7773H42.7724H42.7674H42.7608H42.7541H42.7475H42.7392H42.7326H42.7227H42.7144H42.7045H42.6945H42.6846H42.6746H42.6631H42.6515H42.6399H42.6266H42.615H42.6018H42.5869H42.5736H42.5587H42.5438H42.5289H42.514H42.4975H42.4825H42.466H42.4494H42.4312H42.4146H42.3964H42.3782H42.3418H42.3037H42.2639H42.2242H42.1828H42.1414H42.0983H42.0553H42.0122H41.9675H41.9211H41.8748H41.8284H41.782H41.7357H41.6876H41.6645H41.5916H41.3995H41.3747H41.3051H41.209H41.1627H41.1163H41.1014H41.0699H41.0236H40.9789H40.9739H40.9341H40.8911H40.853H40.848H40.8066H40.7652H40.7387H40.7238H40.6841H40.646H40.6327H40.6079H40.5897H40.5715H40.5549H40.5367H40.5201H40.5036H40.487H40.4705H40.4555H40.4506H40.439H40.4241H40.4092H40.3959H40.381H40.3727H40.3678H40.3545H40.3413H40.3297H40.3181H40.3082H40.3065H40.2949H40.2833H40.2734H40.2634H40.2552H40.2452H40.2369H40.2287H40.222H40.2154H40.2138H40.2088H40.2022H40.1972H40.1922H40.1873H40.1856H40.184L40.1724 8.20399L40.184 8.23048L40.1856 8.23711L40.2138 8.30501L40.2287 8.34144L40.2552 8.40437L40.3065 8.53023L40.3082 8.5352L40.3727 8.69583L40.4092 8.7836L40.4506 8.88297L40.5367 9.0966L40.6327 9.33175L40.7387 9.59175L40.848 9.86003L40.853 9.86997L40.9739 10.1664L41.1014 10.4794L41.209 10.746L41.3747 11.1484L41.6645 11.8622L41.9675 12.6024V12.6041L42.3037 13.4288L42.4494 13.7849L42.5736 14.0896L42.5869 14.121L42.6746 14.338L42.7475 14.5168L42.7889 14.6179L42.7989 14.641L42.8138 14.6791L42.8469 14.7586L42.8899 14.8646L42.8932 14.8745L42.9545 15.0236L43.0274 15.2008L43.1085 15.4012L43.1814 15.5817L43.2924 15.8516L43.4563 16.254L43.5855 16.5703L43.6881 16.8221L43.708 16.8701L43.7809 17.0522L43.8223 17.1516L43.8703 17.2675L43.9283 17.4133L43.9498 17.4646L44.0194 17.6368L44.0276 17.6534L44.079 17.7809L44.1154 17.8703L44.1237 17.8919L44.1535 17.9647L44.1667 17.9962L44.1932 18.0624L44.2611 18.2264V18.228L44.3158 18.3622L44.3588 18.4682L44.3887 18.541L44.4036 18.5791L44.4019 18.5973L44.3903 18.6238L44.3671 18.6768L44.3439 18.7298L44.2495 18.9302L44.1469 19.1289L44.0657 19.2846L43.973 19.4369L43.925 19.5098L43.8521 19.6125L43.8057 19.6688L43.6981 19.798L43.5374 19.9536L43.4397 20.0282L43.3685 20.0811L43.193 20.1805L43.0473 20.2385L43.0075 20.255L42.8088 20.3113L42.6316 20.3478L42.5952 20.3544L42.365 20.3842L42.1894 20.3958L42.1199 20.4008L41.9907 20.4041H41.9592H41.9576H41.9493H41.946H41.9427H41.9344H41.9013L41.8499 20.4008L41.8019 20.3975L41.6164 20.3859L41.3747 20.3726L41.2736 20.3577L40.9673 20.3113L40.8397 20.2931L40.5731 20.2484L40.5698 20.2732L40.5615 20.3262L40.5499 20.4041L40.535 20.5051L40.4986 20.7585L40.4539 21.0615L40.381 21.5434L40.3562 21.714L40.3115 22.0138L40.275 22.2622L40.2601 22.3599L40.2485 22.4344L40.2419 22.4841L40.2386 22.5039H40.2403H40.2419L40.2485 22.5056L40.2601 22.5073L40.275 22.5089L40.3115 22.5122L40.3562 22.5172L40.381 22.5205L40.4539 22.5288L40.4986 22.5338L40.535 22.5387L40.5499 22.5404L40.5615 22.542H40.5698L40.5731 22.5437L40.8397 22.5752L40.9673 22.5901L41.2736 22.6182L41.3747 22.6232L41.6164 22.6348L41.8019 22.6381H41.8499H41.8516H41.8532H41.8549H41.8698H41.8996H41.9013H41.9344L41.9592 22.6364H41.9907L42.1199 22.6315L42.1894 22.6298L42.365 22.6149L42.5952 22.595L42.6316 22.5934L42.8088 22.5636L43.0075 22.5321L43.0473 22.5255L43.193 22.489L43.3685 22.4443L43.4397 22.4261L43.5374 22.3913L43.6981 22.335L43.8057 22.2969L43.8521 22.2754L43.925 22.2406L43.973 22.2191L44.0657 22.176L44.1469 22.138L44.2495 22.0767L44.3439 22.0204L44.3903 21.9922L44.4019 21.9856L44.4036 21.9839L44.4648 21.9492L44.4698 21.9459L44.6785 21.7935L44.7778 21.7206L45.0709 21.4623L45.1223 21.4076L45.2366 21.2884L45.2647 21.2586L45.2862 21.2354L45.3293 21.189L45.3459 21.1725L45.5015 20.9787L45.6059 20.8479L45.6688 20.7568L45.6887 20.727L45.7002 20.7104L45.7019 20.7088L45.7036 20.7055L45.7135 20.6906L45.74 20.6508L45.7499 20.6376L45.7516 20.6359L45.7599 20.6243L45.8278 20.525L45.836 20.5117L45.8393 20.5084L45.8526 20.4869L45.8559 20.4836L45.8907 20.4223L46.0331 20.1822L46.0894 20.0861L46.3097 19.6572L46.3146 19.6456L46.5299 19.167L46.5763 19.0527L46.6326 18.9136L46.6591 18.849L46.6674 18.8259L46.6872 18.7762L46.722 18.6901L46.7701 18.5725L46.8214 18.4499L46.8313 18.4234L46.9042 18.2462L46.987 18.0409L47.04 17.9134L47.0814 17.8107L47.0897 17.7892L47.1145 17.7279L47.1261 17.6981L47.1294 17.6915L47.146 17.6501L47.1791 17.5706L47.1841 17.5573L47.2255 17.4563L47.2851 17.3122L47.2967 17.2824L47.353 17.1417L47.4159 16.9877L47.4308 16.9512L47.5434 16.6747L47.6047 16.5256L47.6776 16.3468L47.9624 15.6496L47.974 15.6164L48.0618 15.4028L48.1429 15.2041L48.2158 15.0236L48.2621 14.9093L48.2804 14.8646L48.3334 14.7354L48.3748 14.6361L48.3996 14.5748L48.4079 14.5516L48.4112 14.545V14.5433L48.4162 14.5317L48.4526 14.444L48.5188 14.2784L48.5751 14.1442L48.6149 14.0465L48.7341 13.7534L48.8732 13.4089L49.2011 12.6058L49.2078 12.5909L49.5158 11.834L49.8105 11.1087L49.9447 10.7808L50.0871 10.4314L50.2146 10.1167L50.3024 9.90143L50.3372 9.81698L50.4498 9.53876L50.5558 9.28042L50.6137 9.138L50.6518 9.04526L50.7363 8.83494Z" fill="#989898"/>
<path d="M59.9638 15.3597L59.9522 15.2984L59.9075 15.0682L59.886 14.9589L59.8446 14.843L59.7635 14.6161L59.7519 14.5863L59.6658 14.4257L59.5647 14.2385L59.5498 14.2187L59.4438 14.0746L59.4157 14.0431L59.3047 13.9173L59.265 13.8792L59.1457 13.7682L59.0944 13.7252L58.9669 13.6241L58.9056 13.5811L58.7698 13.4883L58.6986 13.4436L58.5545 13.3575L58.4717 13.3145L58.4386 13.2962L58.4088 13.2813L58.3956 13.2731H58.3972L58.3956 13.2714L58.2283 13.1919L58.1488 13.1538L57.965 13.0793L57.8772 13.0429L57.6835 12.9733L57.6106 12.9468L57.5891 12.9385L57.5824 12.9369L57.5328 12.9203L57.4433 12.8938L57.3191 12.8541L57.2661 12.8375L57.1452 12.8044L56.9283 12.7448L56.9184 12.7431L56.6418 12.6769L56.5689 12.6587L56.4812 12.6421L56.304 12.604L56.1864 12.5808L56.1086 12.5659L56.0887 12.5626L56.0092 12.5477L55.8949 12.5245L55.8684 12.5196L55.6631 12.4765L55.6035 12.4649L55.4147 12.4218L55.3551 12.4086L55.1464 12.3573L55.1249 12.3523L55.0073 12.3208L54.9261 12.2993L54.9129 12.296L54.8301 12.2711L54.7208 12.238L54.5469 12.1801L54.4625 12.1453L54.2488 12.0608L54.1147 11.9896L54.0054 11.93L53.8166 11.7892L53.7884 11.7578L53.6808 11.6352L53.5864 11.4696L53.5235 11.2908L53.4887 11.097L53.4837 11.0208V10.996V10.9612V10.9513V10.9314L53.487 10.8536L53.5086 10.7078L53.5467 10.5704L53.603 10.4429L53.6493 10.3667L53.6758 10.3236L53.7653 10.216L53.8729 10.1166L53.9971 10.0272L54.1114 9.96427L54.1379 9.94937L54.2935 9.88478L54.4641 9.83179L54.6098 9.80033L54.6512 9.79039L54.8533 9.76224L55.0719 9.74568L55.1481 9.74402L55.2838 9.74071H55.307L55.3816 9.74402L55.5505 9.75064L55.572 9.75396L55.7774 9.78045L55.9396 9.81689L55.9893 9.82848L56.1881 9.89306L56.2874 9.93943L56.3686 9.97587L56.5358 10.0769L56.617 10.1398L56.6865 10.1961L56.8256 10.3319L56.925 10.4578L56.9515 10.4909L57.0674 10.6681L57.1734 10.8668L57.2148 10.9645L57.2661 11.0871L57.3506 11.3255L57.4235 11.5872L57.4549 11.7247L57.4847 11.7213L57.5709 11.7015L57.7033 11.67L57.7348 11.6634L57.8756 11.6303L57.9683 11.6087L58.0759 11.5839L58.1886 11.5574L58.3923 11.511L58.5314 11.4779L58.581 11.4663L58.7549 11.4266L58.9139 11.3885L58.9984 11.3703L59.1888 11.3255L59.2136 11.3189L59.4057 11.2742L59.4207 11.2709L59.5664 11.2378L59.6111 11.2278L59.6856 11.2096L59.7535 11.1947L59.7568 11.1931L59.7651 11.1914H59.7668L59.7651 11.1782L59.7568 11.1434L59.7535 11.1318L59.6856 10.8817L59.6111 10.6085L59.5664 10.4959L59.4207 10.1216L59.4057 10.0934L59.2136 9.72746L59.1888 9.67943L58.9984 9.40619L58.9139 9.2853L58.7549 9.10644L58.581 8.93918L58.5314 8.89613L58.3923 8.78351L58.1886 8.64109L58.0759 8.5732L57.9683 8.51027L57.8756 8.46224L57.7348 8.39269L57.7033 8.37944L57.5709 8.32313L57.4847 8.2867L57.4549 8.27676L57.4235 8.26517L57.3506 8.24033L57.2661 8.21218L57.2148 8.19562L57.1734 8.18402L57.0674 8.15587L56.9515 8.12606L56.925 8.11778L56.8256 8.09791L56.6865 8.06976L56.617 8.05651L56.5358 8.04492L56.3686 8.02008L56.2874 8.00848L56.1881 7.99855L55.9893 7.98033L55.9396 7.97536L55.7774 7.96708L55.572 7.95715L55.5505 7.95549L55.3816 7.95218H55.3319H55.307H55.2838L55.1481 7.95383L55.0719 7.95715L54.8533 7.96543L54.6512 7.97536L54.6098 7.97702L54.4641 7.99358L54.2935 8.0118L54.1379 8.03001L54.1114 8.03167L53.9971 8.05485L53.8729 8.07804L53.7653 8.09791L53.6758 8.11613L53.6493 8.1211L53.603 8.13434L53.5467 8.14925L53.5086 8.16084L53.487 8.16581L53.4837 8.16746L53.2254 8.24033L53.2022 8.25027L52.9405 8.35294L52.8395 8.39269L52.7004 8.46555L52.4918 8.57651L52.4785 8.58479L52.2748 8.72721L52.1804 8.79345L52.0877 8.87625L51.9188 9.02861L51.9088 9.03689L51.7648 9.19918L51.677 9.3002L51.6306 9.3681L51.513 9.54198L51.4832 9.58504L51.3292 9.89141L51.3242 9.90466L51.2149 10.216L51.1934 10.317L51.1404 10.5638L51.1189 10.7741L51.104 10.9297V10.9513L51.1007 11.0241V11.0722V11.0788V11.0804V11.0821V11.0838V11.0904V11.1036V11.1219L51.104 11.2162V11.2245L51.1189 11.4348L51.1404 11.5491L51.1934 11.8472L51.2149 11.9101L51.3242 12.2314L51.3292 12.2413L51.4832 12.5295L51.513 12.5841L51.6306 12.7497L51.677 12.8044L51.7648 12.9087L51.9088 13.0495L51.9188 13.0594L52.0877 13.2018L52.1804 13.2681L52.2748 13.336L52.4785 13.4635L52.4918 13.4701L52.7004 13.5827L52.8395 13.649L52.9405 13.697L53.2022 13.8063L53.2254 13.8146L53.4837 13.9106L53.4887 13.9123L53.5235 13.9222L53.5864 13.9438L53.6808 13.9736L53.7884 14.01L53.8166 14.0166L54.0054 14.0713L54.1147 14.1027L54.2488 14.1375L54.4625 14.1922L54.5469 14.2104L54.7208 14.2501L54.8301 14.275L54.9129 14.2932L54.9261 14.2948L55.0073 14.3097L55.1249 14.3313L55.1464 14.3346L55.3551 14.3743L55.4147 14.3859L55.6035 14.4257L55.6631 14.4389L55.8684 14.4869L55.8949 14.4936L56.0092 14.5234L56.0887 14.5432L56.1086 14.5482L56.1864 14.5714L56.304 14.6062L56.4812 14.6658L56.5689 14.7006L56.6418 14.7287L56.9184 14.8546L56.9283 14.8612L57.1452 14.9887L57.2661 15.0864L57.3191 15.1278L57.4433 15.2769L57.5328 15.4392L57.5824 15.5981L57.5891 15.6197L57.6106 15.8151V15.8465V15.8499V15.8598V15.8797L57.6023 15.9608L57.5758 16.1148L57.5328 16.2606L57.4731 16.398L57.3953 16.5255L57.3821 16.5454L57.3026 16.6448L57.1916 16.7557L57.0641 16.8567L57.0608 16.86L56.9184 16.9462L56.7544 17.0207L56.7213 17.0306L56.5723 17.0803L56.3719 17.1283L56.3619 17.13L56.1516 17.1614L55.9827 17.1747L55.9148 17.1813L55.6614 17.1863L55.5786 17.1846L55.4346 17.1797L55.1348 17.1465L55.0172 17.135L54.7142 17.0621L54.6463 17.0455L54.325 16.913L54.32 16.9097L54.0435 16.7425L53.9507 16.6663L53.8017 16.5421L53.6063 16.3235L53.5947 16.3119L53.4258 16.0502L53.2883 15.7803L53.2784 15.7621L53.1476 15.4458L53.0333 15.103L53.02 15.0583L53.0068 15.0136L52.9952 14.9722L52.9935 14.9688L52.9886 14.949H52.9869L52.9389 14.9589L52.8395 14.9788L52.7253 15.0003L52.6971 15.0069L52.5183 15.0417L52.4735 15.05L52.3146 15.0815L52.2417 15.0964L52.0927 15.1262L52.0281 15.1378L51.8327 15.1758L51.6555 15.2106L51.629 15.2156L51.4981 15.2421L51.4071 15.2603L51.2332 15.2934L51.2017 15.3001L51.0212 15.3365L51.0146 15.3381L50.8755 15.3646L50.839 15.3713L50.7728 15.3845L50.7695 15.3862L50.738 15.3911L50.7248 15.3944H50.7231H50.7214H50.7198L50.7231 15.4127L50.7248 15.416L50.738 15.4855L50.7695 15.6213L50.7728 15.6379L50.839 15.8879L50.8755 15.9939L51.0146 16.403L51.0212 16.4179L51.2017 16.8186L51.2332 16.8915L51.4071 17.1946L51.4981 17.3552L51.629 17.5341L51.6555 17.5705L51.8327 17.7709L52.0281 17.9597L52.0927 18.011L52.2417 18.1335L52.3146 18.1832L52.4735 18.2925L52.5183 18.319L52.6971 18.4217L52.7253 18.4383L52.8395 18.4946L52.9389 18.5442L52.9869 18.5674H52.9886L52.9935 18.5707H52.9952L53.0068 18.5757L53.0333 18.5856L53.1476 18.632L53.2784 18.6834L53.2883 18.6867L53.4258 18.7297L53.5947 18.7827L53.6063 18.786L53.8017 18.8324L53.9507 18.8672L54.0435 18.8837L54.32 18.9301L54.325 18.9318L54.6463 18.9699L54.7142 18.9765L55.0172 18.998L55.1348 19.0063L55.4346 19.0129L55.5786 19.0162L55.6614 19.0146L55.9148 19.0113H55.9827L56.1516 19.0013L56.3619 18.9897H56.3719L56.5723 18.9682L56.7213 18.9533L56.7544 18.9483L56.9184 18.9235L57.0608 18.9036L57.0641 18.902L57.1916 18.8755L57.3026 18.8539L57.3423 18.8456L57.3821 18.8374L57.3953 18.8324L57.4731 18.8125L57.5328 18.796L57.5758 18.7844L57.6023 18.7777L57.6106 18.7744L57.6835 18.7562L57.8772 18.69L57.965 18.6585L58.1488 18.5823L58.2283 18.5476L58.3956 18.4648L58.4088 18.4565L58.4386 18.4416L58.4717 18.425L58.5545 18.3753L58.6986 18.2892L58.7698 18.2379L58.9056 18.1418L58.9669 18.0872L59.0944 17.9812L59.1457 17.9282L59.265 17.8073L59.3047 17.7576L59.4157 17.6202L59.4438 17.5788L59.5498 17.4231L59.5647 17.3966L59.6658 17.2144L59.7519 17.0223L59.7635 16.9975L59.8446 16.7739L59.886 16.6199L59.9075 16.5404L59.9522 16.2986L59.9638 16.1877L59.9804 16.0486L59.9903 15.7902L59.9804 15.6213L59.9638 15.3597Z" fill="#989898"/>
<path d="M77.7446 13.3111L77.7396 12.8971V12.8573V12.7894L77.733 12.5476L77.7197 12.3688L77.6999 12.1055V12.0773L77.6949 12.0525L77.6866 12.0012L77.6601 11.8157L77.6303 11.6252L77.6121 11.5424L77.5459 11.251L77.5326 11.1913L77.4631 10.9645L77.4034 10.7757L77.362 10.673L77.2428 10.3799L77.2213 10.3302L77.2097 10.3087H77.208L77.2047 10.3037H77.2031L77.1136 10.1331L77.006 9.93275L76.8073 9.63798L76.7774 9.59161L76.5158 9.28193L76.4529 9.22065L76.2227 8.99874L76.0554 8.86792L75.8981 8.74537L75.6232 8.57314L75.5404 8.5218L75.5089 8.50524L75.4609 8.48206L75.3831 8.44397L75.2771 8.39263L75.1512 8.33136L75.1446 8.32804L74.984 8.27008L74.9392 8.25352L74.8829 8.23365L74.7488 8.18562L74.7306 8.179L74.6031 8.14588L74.4424 8.10448L74.2768 8.06308H74.2685L74.0814 8.03161L73.8827 7.99849L73.7916 7.98359L73.6691 7.97365L73.4405 7.95543L73.2733 7.94219H73.2004L72.947 7.93887H72.7251L72.6854 7.94053L72.4336 7.95543L72.1935 7.97199H72.1869L71.965 8.00346L71.7464 8.03492L71.6702 8.04486L71.541 8.07467L71.3456 8.11938L71.175 8.15913L71.1635 8.1641L70.9912 8.21875L70.8306 8.27174L70.7047 8.31314L70.6815 8.32142L70.6799 8.32308L70.6716 8.32639L70.6468 8.33798L70.554 8.37773L70.3868 8.45059L70.2609 8.50524L70.2444 8.51352L70.1284 8.57811L70.039 8.62779L70.0026 8.64766L69.9943 8.65097H69.9926L69.9761 8.66257H69.9711L69.8419 8.73543L69.8072 8.76027L69.4577 9.00371L69.4296 9.02855L69.105 9.30677L69.0835 9.33161L68.7887 9.64626L68.7705 9.6711L68.5038 10.0222L68.4889 10.0487L68.2554 10.4329L68.2389 10.4677L68.0401 10.8784L68.0236 10.9231L67.863 11.3536L67.8481 11.4116L67.7255 11.8587L67.7123 11.9333L67.6261 12.3936L67.6162 12.4947L67.5665 12.9617L67.5599 13.1256L67.5433 13.5578L67.5599 14.1573L67.5665 14.2186L67.6162 14.7154L67.6261 14.7734L67.7123 15.2354L67.7255 15.2851L67.8481 15.7223L67.863 15.762L68.0236 16.176L68.0401 16.2092L68.2389 16.6016L68.2554 16.6281L68.4889 16.9958L68.5038 17.0173L68.7705 17.3552L68.7887 17.375L69.0835 17.6797L69.105 17.698L69.4296 17.9695L69.4577 17.9878L69.8072 18.2246L69.8419 18.2428L69.9711 18.3123H69.9728L69.9794 18.3173L69.9926 18.3239L70.0258 18.3422L70.1119 18.3885L70.2162 18.4448L70.2245 18.4481L70.3636 18.5061L70.5292 18.5757L70.6517 18.627L70.7263 18.6518L71.0161 18.7446L71.1105 18.7744L71.3489 18.829L71.5924 18.8853L71.7232 18.9036L72.1008 18.9599H72.1389L72.5976 18.9946H72.6324L72.841 19.0013H72.9056H72.9636H73.1491L73.3047 18.9913L73.5598 18.9781H73.6078L73.7949 18.9549L74.0135 18.93L74.0383 18.9267L74.2139 18.8953L74.3961 18.8622L74.4408 18.8539L74.5633 18.8208L74.7173 18.7793L74.815 18.7545L74.8548 18.7396L74.9773 18.6949L75.0866 18.6551L75.1595 18.6286L75.2721 18.5757L75.4327 18.5011L75.4775 18.4796L75.5702 18.4283L75.5785 18.4233L75.5818 18.42L75.6 18.4117L75.6381 18.3885L75.6944 18.3571L75.7755 18.3107L75.8583 18.256L76.0538 18.1236L76.072 18.1087L76.3121 17.9149L76.3204 17.9066L76.5489 17.688L76.587 17.645L76.7692 17.4413L76.9679 17.1746L77.1153 16.9428L77.1484 16.8931L77.3107 16.595L77.3438 16.5238L77.4564 16.2804L77.526 16.0982L77.5823 15.9508L77.5955 15.9094L77.6485 15.7455L77.68 15.6411L77.6916 15.6064L77.68 15.6031L77.6485 15.5931L77.5955 15.5799L77.5823 15.5766L77.526 15.56L77.4564 15.5401L77.3438 15.5103L77.3107 15.5004L77.1484 15.4557L77.1153 15.4474L76.9679 15.406L76.7692 15.353L76.587 15.3017L76.5489 15.2917L76.3204 15.2288H76.3121L76.072 15.1609L76.0538 15.1559L75.8583 15.1013L75.7755 15.0797L75.6944 15.0582L75.6381 15.0417L75.6 15.0317L75.5818 15.0267L75.5785 15.0367L75.5702 15.0582L75.4775 15.2901L75.4327 15.401L75.2721 15.7256L75.1595 15.9094L75.0866 16.0287L74.9773 16.1694L74.8548 16.2969L74.815 16.3317L74.7173 16.4145L74.5633 16.5205L74.4408 16.5901L74.3961 16.6166L74.2139 16.701L74.0383 16.7606L74.0135 16.7706L73.7949 16.8252L73.6078 16.8567L73.5598 16.865L73.3047 16.8898L73.1491 16.8964L73.0331 16.9014H72.841L72.6324 16.8898H72.5976L72.1389 16.8252L72.1008 16.8153L71.7232 16.7126L71.5924 16.6563L71.3489 16.5487L71.1105 16.3946L71.0161 16.3334L70.7263 16.0684L70.6517 15.9757L70.5292 15.825L70.3636 15.56L70.2245 15.2652L70.2162 15.2387L70.1119 14.9406L70.0258 14.5879L69.9926 14.4008L69.9794 14.3047L69.9728 14.2567V14.2434H77.6883L77.6966 14.2401L77.6999 14.2186V14.2054L77.7214 14.0712L77.7346 13.9338L77.7413 13.8725V13.8692L77.7462 13.8162V13.7963L77.7529 13.5777L77.7479 13.3541V13.3111H77.7446ZM75.5073 12.4698H69.991V12.4533L70.0009 12.4036L70.0373 12.2148L70.1268 11.8604L70.2427 11.5358L70.2593 11.5043L70.3851 11.2443L70.5524 10.9827L70.6451 10.8635L70.67 10.8353L70.6782 10.8254H70.6799V10.8287L70.7047 10.8055L70.8306 10.6747L70.9912 10.5372L71.1635 10.413L71.175 10.4064L71.3456 10.3054L71.541 10.211L71.6702 10.1629L71.7464 10.1331L71.965 10.0702L72.1869 10.0238H72.1935L72.4336 9.98906L72.6854 9.97084H72.947L73.2004 9.98078L73.2733 9.98906L73.4405 10.0073L73.6691 10.0487L73.7916 10.0818L73.8827 10.105L74.0814 10.1762L74.2685 10.2606L74.2768 10.264L74.4424 10.36L74.6031 10.4726L74.7306 10.5852L74.7488 10.6001L74.8829 10.7426L74.9392 10.8138L74.984 10.8734L75.1446 11.1334L75.1512 11.1483L75.2771 11.4232L75.3831 11.7428L75.4609 12.0906L75.5089 12.4698H75.5073Z" fill="#989898"/>
<path d="M95.4577 11.4814L95.4544 11.4433L95.4329 11.1684L95.423 11.0955L95.3915 10.8637L95.3368 10.5705L95.312 10.4646L95.2673 10.289L95.1845 10.0158L95.1447 9.91309L95.0851 9.75576L94.9659 9.50901L94.9361 9.45933L94.8268 9.27882L94.696 9.10328L94.6678 9.06519L94.489 8.86812L94.436 8.8201L94.2902 8.68596L94.0716 8.52035L94.0153 8.48061L94.012 8.47895L94.0104 8.4773L94.0087 8.47233L93.906 8.41271L93.7619 8.32991L93.6593 8.28519L93.4953 8.21233L93.4407 8.19411L93.2618 8.13615L93.2039 8.11628L93.136 8.09972L93.0946 8.09144L93.0714 8.08481L93.0664 8.08316L93.0548 8.0815L93.0068 8.06991L92.9207 8.05004L92.8909 8.04341L92.7965 8.02851L92.6292 8.00367L92.5563 7.99373L92.4139 7.98214L92.197 7.96558L92.1539 7.96392L92.0098 7.96061H92.0049L91.9155 7.95895L91.8393 7.96061H91.8376L91.6588 7.96723L91.5329 7.97386L91.4617 7.98048L91.2481 8.00367L91.2414 8.00532L91.0195 8.04341L90.9632 8.05335L90.7811 8.09972L90.6966 8.12125L90.5575 8.16762L90.4416 8.2057L90.1981 8.30838L90.1385 8.33984L89.9679 8.42927L89.7626 8.56507L89.751 8.57335L89.5473 8.73729L89.5241 8.76048L89.4281 8.85653L89.3585 8.92608L89.183 9.13475L89.1366 9.20099L89.0207 9.36825L88.8899 9.59347L88.8716 9.62328L88.8385 9.68787L88.8137 9.73589L88.7673 9.83525L88.6862 10.029L88.6795 10.0423L88.5288 10.4894V10.4927L88.4262 10.915L88.4079 10.9912L88.3947 11.0591L88.3831 11.1237L88.3765 11.1551L88.3732 11.1766V11.1816L88.3715 11.1899L88.3682 11.2081L88.3649 11.2247L88.3616 11.2429H88.3599H88.3583H88.3566H88.3533H88.3483H88.345H88.3434H88.3417H88.3401L88.3384 11.2296L88.3334 11.175L88.2705 10.7461L88.249 10.6484L88.1794 10.337L88.095 10.0704L88.0569 9.94952L88.0188 9.85016L87.9641 9.72099L87.8929 9.58353L87.8399 9.47589L87.6975 9.24736L87.6578 9.19602L87.5352 9.03538L87.3564 8.83997L87.1576 8.66112L86.9407 8.49717L86.7039 8.35144L86.6111 8.30672L86.4455 8.22889L86.3809 8.2057L86.1889 8.13781L86.1657 8.12953L86.0464 8.09972L85.9967 8.08647L85.9636 8.07819L85.9487 8.07488L85.9437 8.07322L85.9073 8.06494L85.8643 8.05335L85.8345 8.04838L85.7235 8.03016L85.5695 8.00367L85.5413 8.00035L85.3691 7.98379L85.1985 7.96889L85.124 7.96723L84.9832 7.96227L84.8408 7.95895L84.8292 7.96061L84.657 7.96558L84.5461 7.97055L84.4699 7.97883L84.2678 7.9987L84.2612 8.00035L84.0492 8.03679L83.988 8.04672L83.723 8.11297L83.5855 8.15768L83.468 8.19742L83.2245 8.3001L83.1633 8.33156L82.991 8.42099L82.7774 8.55679L82.7675 8.56175L82.5571 8.7257L82.4263 8.84659L82.3601 8.90787L82.1746 9.11322L82.115 9.1894L82.0007 9.33844L81.85 9.57029L81.8401 9.58519L81.802 9.64978L81.7705 9.70277L81.7241 9.7922L81.6314 10.0025L81.5536 10.1781L81.4592 10.4629L81.4112 10.6103L81.3399 10.9034L81.2952 11.0839L81.2903 11.1104H81.2886H81.287H81.2836H81.277H81.2721H81.2704H81.2638H81.2621H81.2588V11.1088V11.1071V11.1054V11.1038V11.1005V11.0988V11.0955V11.0922V11.0889V11.0789V11.0707V11.0591V11.0458V11.0326V11.0177V11.0028V10.9845V10.9663V10.9481V10.9282V10.9067V10.8835V10.8603V10.8355V10.8107V10.7842V10.7577V10.7295V10.7014V10.6716V10.6417V10.6103V10.5788V10.5474V10.5142V10.4811V10.4463V10.4116V10.3768V10.3403V10.3056V10.2675V10.231V10.193V10.1565V10.1184V10.0406V9.96277V9.88328V9.80379V9.64315V9.48252V9.40303V9.32519V9.24736V9.17118V9.13309V9.095V9.05857V9.02213V8.9857V8.95092V8.91449V8.88137V8.84659V8.81347V8.78035V8.74889V8.71742V8.68596V8.65615V8.628V8.59819V8.57169V8.54519V8.5187V8.49386V8.46902V8.44749V8.4243V8.40277V8.3829V8.36468V8.34647V8.32991V8.315V8.3001V8.28685V8.27526V8.26367V8.25373V8.24711V8.24214V8.23883V8.23717V8.23386V8.2322V8.23055V8.22889V8.22723H81.2571L81.2538 8.22558H81.2489H81.2456H81.2439H81.2389H81.2306H81.2224H81.2141H81.2124H81.2025H81.1909H81.1777H81.1661H81.1644H81.1495H81.1346H81.118H81.1015H81.0833H81.0634H81.0435H81.0253H81.0236H81.0021H80.9806H80.9574H80.9342H80.9094H80.8845H80.8597H80.8365H80.8332H80.8067H80.7785H80.752H80.7239H80.6941H80.6659H80.6361H80.608H80.6047H80.5749H80.5434H80.4805H80.4175H80.3563H80.3513H80.2867H80.2188H80.1526H80.0184H79.8826H79.8197H79.8164H79.7501H79.6856H79.621H79.5614H79.558H79.5266H79.4968H79.4653H79.4355H79.4073H79.3775H79.3494H79.3245H79.3212H79.2947H79.2666H79.2417H79.2152H79.1904H79.1656H79.1424H79.1208H79.1192H79.096H79.0745H79.0546H79.0347H79.0149H78.9966H78.9784H78.9635H78.9619H78.947H78.9321H78.9188H78.9056H78.894H78.8824H78.8724H78.8642H78.8559H78.8493H78.8443H78.8393H78.836H78.8344V8.22723V8.22889V8.23055V8.2322V8.23386V8.23717V8.23883V8.24214V8.25042V8.2587V8.26863V8.28023V8.29182V8.30672V8.32163V8.33819V8.35475V8.37297V8.39449V8.41437V8.43755V8.46074V8.48558V8.51042V8.53691V8.56507V8.59488V8.62468V8.65615V8.68761V8.72239V8.75551V8.79194V8.82838V8.86481V8.9029V8.94264V8.98239V9.02379V9.06685V9.10991V9.15296V9.19768V9.24404V9.29041V9.33844V9.38647V9.43615V9.48583V9.53551V9.58685V9.63984V9.69283V9.74583V9.80048V9.85678V9.91309V9.96939V10.0257V10.0837V10.1433V10.2029V10.2625V10.3221V10.3834V10.4463V10.5076V10.5705V10.6351V10.6981V10.7626V10.8289V10.8935V10.9597V11.026V11.0938V11.1601V11.228V11.2975V11.3654V11.435V11.5045V11.5741V11.6437V11.7149V11.8573V11.9997V12.1454V12.2912V12.4369V12.5843V12.7317V12.8807V13.0298V13.1788V13.4786V13.78V14.0797V14.2287V14.3778V14.5268V14.6742V14.8216V14.9673V15.1131V15.2571V15.4012V15.5436V15.6132V15.6844V15.754V15.8235V15.8914V15.961V16.0289V16.0968V16.1647V16.2309V16.2971V16.3634V16.428V16.4942V16.5588V16.6217V16.6847V16.7476V16.8105V16.8718V16.9331V16.9927V17.054V17.1119V17.1715V17.2295V17.2858V17.3421V17.3984V17.4531V17.5077V17.5607V17.6137V17.6667V17.718V17.7677V17.8174V17.8671V17.9151V17.9631V18.0095V18.0542V18.0989V18.1436V18.185V18.2281V18.2678V18.3092V18.3473V18.3854V18.4235V18.4599V18.4947V18.5278V18.561V18.5941V18.6239V18.6554V18.6835V18.7117V18.7382V18.763V18.7878V18.811V18.8325V18.8541V18.874V18.8922V18.9087V18.9253V18.9402V18.9534V18.965V18.9766V18.9866V18.9948V19.0015V19.0048V19.0081V19.0097V19.0114V19.0131V19.0147L78.8393 19.0164H78.8443H78.8493H78.8559H78.8642H78.8741H78.8824H78.884H78.894H78.9072H78.9188H78.9321H78.9337H78.9486H78.9635H78.9817H78.9983H79.0165H79.0364H79.0563H79.0745H79.0778H79.0993H79.1208H79.144H79.1689H79.1921H79.2185H79.2434H79.2666H79.2699H79.2964H79.3245H79.3527H79.3808H79.4107H79.4388H79.4686H79.4968H79.5001H79.5299H79.5614H79.6243H79.6889H79.7535H79.8197H79.8859H79.9538H80.088H80.2238H80.29H80.3563H80.4208H80.4838H80.5434H80.5467H80.5782H80.608H80.6378H80.6676H80.6974H80.7256H80.7537H80.7785H80.7819H80.81H80.8365H80.8613H80.8878H80.9127H80.9359H80.9591H80.9806H80.9822H81.0038H81.0253H81.0468H81.0667H81.0849H81.1031H81.1197H81.1346H81.1363H81.1512H81.1661H81.1793H81.1926H81.2042H81.2141H81.224H81.2306H81.2323H81.2389H81.2456H81.2505H81.2538H81.2571L81.2588 18.9982V18.9915V18.9849V18.9783V18.97V18.9617V18.9518V18.9402V18.9303V18.9187V18.9054V18.8922V18.8773V18.864V18.8475V18.8325V18.8143V18.7978V18.7796V18.7613V18.7415V18.7216V18.7017V18.6802V18.6587V18.6355V18.6123V18.5891V18.5643V18.5394V18.5146V18.4897V18.4633V18.4351V18.4086V18.3804V18.3523V18.3225V18.2927V18.2629V18.2331V18.2016V18.1701V18.1387V18.1055V18.0741V18.041V18.0062V17.9731V17.9383V17.9035V17.8687V17.8323V17.7959V17.7594V17.723V17.6866V17.6485V17.6104V17.5342V17.4564V17.3769V17.2974V17.2146V17.1334V17.049V16.9645V16.8801V16.794V16.7078V16.6201V16.5323V16.4445V16.3551V16.2657V16.1763V15.9957V15.6347V15.4542V15.2737V15.1843V15.0965V15.0071V14.9193V14.8332V14.7454V14.6593V14.5749V14.4904V14.4076V14.3248V14.2436V14.1625V14.083V14.0052V13.929V13.8909V13.8528V13.8164V13.78V13.7435V13.7071V13.6707V13.6359V13.6011V13.5663V13.5315V13.4984V13.4653V13.4322V13.4007V13.3676V13.3361V13.3063V13.2749V13.2451V13.2152V13.1871V13.1573V13.1291V13.1026V13.0761V13.0496V13.0231V12.9983V12.9735V12.9486V12.9254V12.9023V12.8791V12.8575V12.836V12.8161V12.7963V12.7764V12.7582V12.74V12.7217V12.7052V12.6886V12.6737V12.6588V12.6456V12.6307V12.6191V12.6075V12.5959V12.5909L81.2721 12.1968L81.2836 12.1305L81.2886 12.1024L81.2903 12.0958V12.0941L81.2952 12.061L81.3399 11.7944L81.4112 11.5791L81.4592 11.4317L81.5536 11.2545L81.6314 11.1088L81.7241 10.9895L81.7705 10.9299L81.802 10.8902L81.8401 10.8421L81.85 10.8289L82.0007 10.6964L82.115 10.5954L82.1746 10.5606L82.3601 10.448L82.4263 10.4082L82.5571 10.3553L82.7675 10.2708L82.7774 10.2675L82.991 10.2161L83.1633 10.1764L83.2245 10.1698L83.468 10.1449L83.5855 10.1333L83.723 10.1367L83.988 10.1416H84.0492L84.2612 10.1681L84.2678 10.1698L84.4699 10.2112L84.5461 10.2344L84.657 10.2691L84.8292 10.342L84.8408 10.3486L84.9832 10.4314L85.124 10.5324L85.1985 10.602L85.3691 10.7626L85.5413 10.9879L85.5695 11.0226L85.7235 11.3158L85.8345 11.6387L85.8643 11.7828L85.9073 11.9865L85.9437 12.3574L85.9487 12.5445V12.5462V12.5495V12.5528V12.5561V12.5611V12.5677V12.5744V12.581V12.5893V12.5975V12.6075V12.6174V12.629V12.6406V12.6538V12.6671V12.6803V12.6952V12.7101V12.7267V12.7433V12.7598V12.778V12.7979V12.8161V12.836V12.8559V12.8774V12.8989V12.9221V12.9453V12.9685V12.9917V13.0165V13.0414V13.0679V13.0944V13.1208V13.149V13.1755V13.2037V13.2335V13.2633V13.2931V13.3229V13.3544V13.3858V13.4173V13.4487V13.4819V13.515V13.5481V13.5829V13.616V13.6508V13.6856V13.722V13.7584V13.7932V13.8313V13.8677V13.9042V13.9422V13.9803V14.0582V14.136V14.2155V14.2966V14.3778V14.4606V14.5434V14.6278V14.714V14.8001V14.8862V14.974V15.0617V15.1495V15.2389V15.3284V15.5072V15.6861V16.0471V16.2259V16.3154V16.4048V16.4926V16.5803V16.6681V16.7542V16.8403V16.9264V17.0109V17.0937V17.1765V17.2593V17.3388V17.4199V17.4978V17.574V17.612V17.6501V17.6882V17.7247V17.7611V17.7975V17.834V17.8704V17.9052V17.9399V17.9747V18.0078V18.0426V18.0757V18.1072V18.1403V18.1718V18.2033V18.2347V18.2645V18.2943V18.3241V18.3523V18.3821V18.4103V18.4368V18.4633V18.4897V18.5162V18.5411V18.5659V18.5908V18.614V18.6371V18.6587V18.6818V18.7017V18.7233V18.7431V18.763V18.7812V18.7994V18.816V18.8325V18.8491V18.8657V18.8789V18.8938V18.9071V18.9203V18.9319V18.9435V18.9534V18.9634V18.9717V18.9799V18.9882V18.9948V19.0015V19.0064V19.0097V19.0147V19.0164V19.018V19.0197H85.9504H85.9537H85.9587H85.9636H85.9703H85.9785H85.9868H85.9967H86.0067H86.0199H86.0315H86.0464H86.0613H86.0762H86.0928H86.111H86.1292H86.1491H86.1657H86.169H86.1889H86.2104H86.2336H86.2567H86.2799H86.3048H86.3296H86.3545H86.3809H86.4091H86.4356H86.4455H86.4637H86.4919H86.5217H86.5499H86.5797H86.6111H86.6409H86.6724H86.7039H86.7353H86.7999H86.8645H86.9308H86.9407H86.997H87.1311H87.1576H87.2669H87.3332H87.3564H87.4011H87.4657H87.5319H87.5352H87.5948H87.6578H87.6892H87.6975H87.719H87.7505H87.7787H87.8085H87.8366H87.8399H87.8664H87.8929H87.9211H87.9476H87.9641H87.9741H87.9989H88.0188H88.0238H88.0486H88.0569H88.0718H88.095H88.1165H88.138H88.1579H88.1778H88.1794H88.1976H88.2158H88.2324H88.249H88.2639H88.2705H88.2788H88.292H88.3053H88.3169H88.3268H88.3334H88.3367H88.3384H88.3401H88.3417H88.3434H88.345H88.3533H88.3583H88.3599H88.3616H88.3632H88.3649H88.3682L88.3715 19.018H88.3732V19.0147V19.0114V19.0081V19.0031V18.9965V18.9899V18.9832V18.975V18.9667V18.9568V18.9468V18.9352V18.9236V18.912V18.8988V18.8839V18.8706V18.8541V18.8392V18.8226V18.8044V18.7878V18.768V18.7497V18.7299V18.7083V18.6885V18.6669V18.6438V18.6206V18.5974V18.5742V18.5494V18.5245V18.498V18.4715V18.445V18.4169V18.3904V18.3606V18.3324V18.3026V18.2728V18.243V18.2115V18.1801V18.1486V18.1171V18.084V18.0509V18.0178V17.983V17.9482V17.9134V17.8787V17.8439V17.8075V17.771V17.7346V17.6982V17.6601V17.622V17.5458V17.468V17.3885V17.309V17.2278V17.145V17.0622V16.9778V16.8933V16.8072V16.7194V16.6333V16.5456V16.4561V16.3684V16.2789V16.1895V16.009V15.8285V15.648V15.4675V15.287V15.1975V15.1098V15.0203V14.9326V14.8448V14.7587V14.6726V14.5864V14.502V14.4192V14.3364V14.2552V14.1741V14.0946V14.0168V13.9406V13.9025V13.8644V13.828V13.7899V13.7535V13.717V13.6822V13.6458V13.611V13.5763V13.5431V13.5084V13.4752V13.4421V13.4107V13.3775V13.3461V13.3163V13.2848V13.255V13.2252V13.1954V13.1672V13.1391V13.1109V13.0844V13.0579V13.0314V13.0066V12.9817V12.9569V12.9337V12.9105V12.8873V12.8658V12.8443V12.8244V12.8029V12.7847V12.7648V12.7466V12.7284V12.7118V12.6952V12.6803V12.6654V12.6505V12.6373V12.624V12.6124V12.6008V12.5909V12.581V12.571V12.5628V12.5561V12.5479V12.5429V12.5379V12.533V12.5296V12.5263V12.5247V12.523V12.5214V12.5197V12.5147V12.5015V12.4452L88.3765 12.3359L88.3831 12.2696L88.3947 12.1239L88.4079 12.0411L88.4262 11.9219L88.5288 11.5493V11.5459L88.6795 11.2214L88.6862 11.2098L88.7673 11.0922L88.8137 11.0243L88.8385 10.9895L88.8716 10.9415L88.8899 10.915L89.0207 10.7842L89.1366 10.6682L89.183 10.6368L89.3585 10.5142L89.4281 10.4662L89.5473 10.4099L89.751 10.3155L89.7626 10.3089L89.9679 10.2509L90.1385 10.2029L90.1981 10.1946L90.4416 10.1615L90.5575 10.1449L90.6966 10.1383L90.7811 10.135L90.9632 10.1367H91.0195L91.2414 10.1532H91.2481L91.4617 10.1863L91.5329 10.2046L91.6588 10.2344L91.8376 10.2973H91.8393L91.9155 10.3337L92.0049 10.3768L92.0098 10.3801L92.1539 10.4712L92.197 10.5076L92.4139 10.6898L92.5563 10.857L92.6292 10.9415L92.7965 11.223L92.8909 11.4631L92.9207 11.5377L93.0068 11.8772L93.0548 12.2415L93.0664 12.6191V12.6307V12.6423V12.6538V12.6671V12.682V12.6952V12.7101V12.7267V12.7433V12.7598V12.778V12.7963V12.8161V12.836V12.8559V12.8774V12.8989V12.9205V12.9437V12.9668V12.99V13.0149V13.0397V13.0662V13.0927V13.1192V13.1457V13.1738V13.202V13.2301V13.26V13.2898V13.3196V13.351V13.3825V13.414V13.4454V13.4786V13.5117V13.5448V13.5779V13.6127V13.6475V13.6822V13.717V13.7535V13.7899V13.8263V13.8628V13.9008V13.9389V13.9754V14.0532V14.131V14.2105V14.2917V14.3728V14.4556V14.5384V14.6229V14.7073V14.7935V14.8812V14.9673V15.0551V15.1445V15.2323V15.3217V15.5006V15.8616V16.0405V16.221V16.3104V16.3982V16.4876V16.5754V16.6631V16.7492V16.8354V16.9215V17.0059V17.0887V17.1715V17.2543V17.3355V17.415V17.4928V17.5706V17.6468V17.6833V17.7213V17.7578V17.7942V17.8306V17.8654V17.9019V17.9366V17.9697V18.0045V18.0376V18.0708V18.1039V18.137V18.1685V18.1999V18.2314V18.2612V18.291V18.3208V18.3506V18.3788V18.4069V18.4351V18.4616V18.4881V18.5146V18.5394V18.5643V18.5891V18.6123V18.6355V18.6587V18.6802V18.7017V18.7216V18.7431V18.7613V18.7812V18.7994V18.816V18.8342V18.8491V18.8657V18.8806V18.8938V18.9071V18.9203V18.9336V18.9435V18.9551V18.965V18.9733V18.9816V18.9899V18.9965V19.0031V19.0081V19.0131V19.0164V19.0197V19.0213L93.0714 19.023H93.0747H93.0813H93.0863H93.0946H93.1028H93.1128H93.1227H93.136H93.1475H93.1608H93.1757H93.1923H93.2039H93.2088H93.2254H93.2436H93.2618H93.2817H93.3032H93.3247H93.3463H93.3695H93.3926H93.4158H93.4407H93.4672H93.492H93.4953H93.5185H93.5467H93.5732H93.6013H93.6311H93.6593H93.6891H93.7189H93.7504H93.7619H93.7802H93.8431H93.906H93.9706H94.0087H94.0104H94.012H94.0153H94.0369H94.0716H94.1031H94.1693H94.2902H94.3018H94.436H94.489H94.5022H94.5668H94.6314H94.6678H94.696H94.7572H94.7887H94.8185H94.8268H94.8483H94.8781H94.9063H94.9361H94.9642H94.9659H94.9907H95.0189H95.0454H95.0702H95.0851H95.0967H95.1216H95.1447H95.1679H95.1845H95.1911H95.2126H95.2342H95.254H95.2673H95.2739H95.2938H95.312H95.3286H95.3368H95.3451H95.36H95.3749H95.3882H95.3915H95.4014H95.413H95.423H95.4329H95.4412H95.4478H95.4544H95.4577H95.4594H95.4644H95.466H95.4677L95.4693 19.0197V19.018V19.0147V19.0114V19.0081V19.0064V18.9998V18.9932V18.9849V18.9766V18.9667V18.9568V18.9452V18.9336V18.9203V18.9071V18.8922V18.8773V18.8624V18.8458V18.8276V18.8094V18.7911V18.7713V18.7514V18.7299V18.7083V18.6868V18.6636V18.6388V18.6156V18.5908V18.5643V18.5378V18.5113V18.4831V18.455V18.4268V18.397V18.3672V18.3374V18.3059V18.2745V18.2413V18.2082V18.1751V18.142V18.1072V18.0724V18.0376V18.0012V17.9648V17.9283V17.8919V17.8538V17.8157V17.776V17.7379V17.6982V17.6584V17.6187V17.5773V17.5359V17.4945V17.4531V17.41V17.3686V17.3255V17.2378V17.15V17.0606V16.9712V16.8784V16.7873V16.6929V16.5985V16.5041V16.4081V16.312V16.2143V16.1166V16.0189V15.9196V15.7225V15.3234V15.1263V14.9276V14.8299V14.7322V14.6345V14.5368V14.4407V14.3463V14.2503V14.1575V14.0648V13.9721V13.881V13.7915V13.7021V13.616V13.5713V13.5299V13.4868V13.4438V13.4024V13.361V13.3196V13.2798V13.2384V13.1987V13.1606V13.1208V13.0828V13.0447V13.0066V12.9685V12.9321V12.8956V12.8608V12.8244V12.7896V12.7565V12.7217V12.6886V12.6555V12.624V12.5926V12.5611V12.5313V12.5015V12.4717V12.4435V12.4154V12.3872V12.3607V12.3342V12.3077V12.2829V12.2597V12.2349V12.2117V12.1902V12.1686V12.1471V12.1272V12.1073V12.0891V12.0709V12.0527V12.0361V12.0212V12.0063V11.9914V11.9782V11.9649V11.9533V11.9434V11.9318V11.9235V11.9136V11.907V11.9003V11.8937V11.8888V11.8838V11.8805V11.8788V11.8772V11.8755V11.8738V11.8689V11.8473V11.8059L95.4677 11.8026L95.4577 11.4814Z" fill="#989898"/>
<path d="M107.951 4.98477H107.949H107.948H107.946H107.944H107.943H107.941H107.938H107.934H107.931H107.926H107.923H107.918H107.913H107.911H107.908H107.901H107.896H107.89H107.883H107.876H107.868H107.862H107.858H107.853H107.845H107.837H107.828H107.818H107.81H107.8H107.79H107.787H107.78H107.759H107.737H107.714H107.698H107.689H107.664H107.638H107.61H107.592H107.582H107.552H107.522H107.491H107.459H107.426H107.391H107.356H107.332H107.32H107.284H107.245H107.207H107.168H107.128H107.087H107.045H107.017H107.004H106.961H106.916H106.871H106.827H106.78H106.734H106.687H106.654H106.639H106.591H106.542H106.492H106.442H106.391H106.34H106.288H106.254H106.237H106.184H106.131H106.078H106.023H105.969H105.914H105.859H105.823H105.803H105.748H105.692H105.636H105.522H105.407H105.291H105.175H105.058H104.94H104.901H104.823H104.586H104.349H104.231H104.114H103.996H103.957H103.88H103.764H103.649H103.536H103.498H103.48H103.423H103.367H103.312H103.256H103.201H103.148H103.094H103.057H103.041H102.988H102.935H102.882H102.83H102.779H102.729H102.68H102.647H102.63H102.58H102.532H102.484H102.438H102.39H102.345H102.299H102.271H102.256H102.211H102.168H102.127H102.084H102.044H102.004H101.964H101.938H101.926H101.888H101.852H101.815H101.781H101.746H101.713H101.681H101.66H101.65H101.618H101.588H101.56H101.534H101.507H101.481H101.458H101.441H101.434H101.411H101.391H101.38H101.371H101.362H101.358H101.352H101.343H101.335H101.325H101.318H101.31H101.302H101.295H101.294H101.289H101.282H101.275H101.269H101.264H101.259H101.254H101.249H101.247H101.244H101.241H101.237H101.234H101.231H101.227H101.226H101.222H101.221H101.219H101.217H101.216H101.214H101.211H101.208H101.203H101.201H101.196H101.189H101.181H101.173H101.163H101.155H101.153H101.141H101.13H101.116H101.103H101.088H101.082H101.073H101.057H101.04H101.024H101.007H100.989H100.984H100.971H100.951H100.931H100.911H100.891H100.87H100.865H100.848H100.827H100.805H100.76H100.727H100.716H100.669H100.623H100.575H100.481H100.433H100.414H100.386H100.341H100.295H100.274H100.252H100.23H100.209H100.189H100.169H100.149H100.129H100.11H100.091H100.075H100.057H100.04H100.023H100.009H99.9937H99.9804H99.9655H99.9539H99.9423H99.9307H99.9208H99.9109H99.9026H99.8943H99.8877H99.8827H99.8777H99.8744H99.8711H99.8695H99.8678H99.8645H99.8612H99.8579H99.8529H99.8463H99.8397H99.833H99.8247H99.8148H99.8049H99.7949H99.7833H99.7717H99.7602H99.7469H99.7337H99.7188H99.7121H99.7039H99.6889H99.6724H99.6575H99.6393H99.6227H99.6061H99.5879H99.5697H99.5498H99.5316H99.4935H99.4538H99.4124H99.3726H99.3296H99.2468H99.2054H99.164H99.1226H99.0828H99.0762H99.0431H99.0232H99.005H98.9868H98.9686H98.952H98.9504H98.9321H98.9156H98.8974H98.8825H98.8659H98.851H98.846H98.8361H98.8212H98.8079H98.7947H98.7814H98.7698H98.7649H98.7582H98.7467H98.7367H98.7284H98.7202H98.7119H98.7086H98.7053H98.6986H98.6937H98.6887H98.6854H98.6821H98.6804V4.98643V4.98974V4.9914V4.99636V4.99968V5.00464V5.01127V5.01789V5.02452V5.0328V5.04108V5.04936V5.05929V5.07089V5.08082V5.09241V5.10566V5.11891V5.13216V5.14706V5.16197V5.17687V5.19343V5.20999V5.22821V5.24643V5.26464V5.28452V5.30439V5.32426V5.34579V5.36732V5.38885V5.41203V5.43522V5.4584V5.48324V5.50808V5.53458V5.56108V5.58757V5.61407V5.64222V5.67037V5.70018V5.72834V5.75815V5.78961V5.81942V5.85088V5.884V5.91547V5.94859V5.98171V6.01649V6.04961V6.08439V6.12082V6.1556V6.19203V6.23012V6.26655V6.30464V6.34273V6.38082V6.42056V6.45865V6.4984V6.5398V6.57954V6.62094V6.66235V6.7054V6.7468V6.78986V6.83292V6.87598V6.92069V6.9654V7.01012V7.05483V7.09954V7.14591V7.19228V7.23865V7.28502V7.33304V7.37941V7.42744V7.47712V7.52515V7.57317V7.62285V7.67253V7.72222V7.77355V7.82323V7.87457V7.92591V7.97725V8.02858V8.07992V8.13291V8.2389V8.34489V8.45253V8.56017V8.66947V8.78043V8.89138V9.00399V9.11826V9.23087V9.3468V9.46106V9.57864V9.69457V9.81215V9.92972V10.049V10.1682V10.2874V10.4083V10.5292V10.6501V10.771V10.8935V11.0161V11.2595V11.5063V11.9981V12.4916V12.7367V12.9818V13.1044V13.2269V13.3478V13.4687V13.5896V13.7088V13.8297V13.9489V14.0665V14.1858V14.3033V14.4193V14.5352V14.6511V14.7654V14.8796V14.9939V15.1049V15.2175V15.3268V15.4361V15.5454V15.653V15.759V15.865V15.918V15.9693V16.0207V16.072V16.1233V16.1747V16.2244V16.2757V16.3254V16.3751V16.4231V16.4728V16.5208V16.5688V16.6168V16.6649V16.7129V16.7593V16.8056V16.852V16.8984V16.9431V16.9878V17.0325V17.0772V17.1219V17.165V17.208V17.2511V17.2925V17.3356V17.377V17.4184V17.4581V17.4979V17.5376V17.5773V17.6171V17.6552V17.6933V17.7314V17.7678V17.8042V17.8407V17.8771V17.9119V17.9466V17.9814V18.0162V18.0493V18.0824V18.1139V18.147V18.1785V18.2083V18.2398V18.2696V18.2977V18.3275V18.3557V18.3838V18.4103V18.4368V18.4633V18.4882V18.5147V18.5379V18.5627V18.5859V18.6091V18.6306V18.6521V18.6736V18.6935V18.7134V18.7333V18.7515V18.7697V18.7879V18.8045V18.821V18.8359V18.8508V18.8657V18.879V18.8922V18.9038V18.9154V18.927V18.937V18.9469V18.9568V18.9651V18.9734V18.98V18.9866V18.9916V18.9966V19.0015V19.0049V19.0082V19.0115L98.6821 19.0131H98.6837H98.6854H98.6887H98.692H98.6937H98.6953H98.6986H98.7036H98.7086H98.7135H98.7202H98.7268H98.7334H98.74H98.7483H98.7566H98.7582H98.7649H98.7732H98.7831H98.793H98.803H98.8129H98.8245H98.8344H98.846H98.8593H98.8659H98.8709H98.8841H98.8957H98.909H98.9239H98.9371H98.952H98.9669H98.9818H98.9967H99.005H99.0116H99.0431H99.0762H99.111H99.1458H99.164H99.1805H99.2186H99.2551H99.2948H99.3329H99.3726H99.414H99.4554H99.4935H99.4968H99.5383H99.5813H99.6244H99.6393H99.6691H99.7121H99.7602H99.7999H99.8397H99.8695H99.8893H99.9026H99.9937H100.068H100.129H100.156H100.244H100.287H100.295H100.33H100.373H100.414H100.456H100.497H100.537H100.577H100.616H100.654H100.669H100.691H100.727H100.764H100.798H100.832H100.848H100.865H100.88H100.896H100.911H100.926H100.941H100.956H100.969H100.984H100.997H101.007H101.01H101.022H101.035H101.047H101.058H101.07H101.082H101.092H101.102H101.111H101.121H101.13H101.138H101.146H101.155H101.161H101.169H101.176H101.181H101.188H101.193H101.198H101.201H101.203H101.204H101.208H101.211H101.213H101.216H101.217V19.0115V19.0082V19.0049V18.9999V18.9933V18.9866V18.9784V18.9701V18.9601V18.9502V18.9386V18.9254V18.9121V18.8972V18.8807V18.8657V18.8475V18.8293V18.8111V18.7912V18.7697V18.7482V18.7266V18.7035V18.6803V18.6554V18.6289V18.6041V18.5759V18.5494V18.5213V18.4915V18.4617V18.4319V18.4004V18.3689V18.3375V18.3043V18.2712V18.2381V18.2033V18.1686V18.1321V18.0957V18.0593V18.0228V17.9847V17.9466V17.9086V17.8688V17.8291V17.7893V17.7496V17.7082V17.6668V17.6254V17.584V17.5409V17.4979V17.4565V17.4117V17.3687V17.3256V17.2362V17.1468V17.0573V16.9663V16.8735V16.7808V16.688V16.5953V16.4082V16.221V16.0339V15.9412V15.8484V15.7557V15.6646V15.5735V15.4841V15.3947V15.3069V15.2638V15.2208V15.1777V15.1363V15.0933V15.0519V15.0105V14.9691V14.9293V14.8879V14.8482V14.8101V14.7703V14.7323V14.6942V14.6561V14.6196V14.5832V14.5468V14.512V14.4772V14.4424V14.4077V14.3746V14.3431V14.31V14.2802V14.2487V14.2189V14.1891V14.1609V14.1328V14.1046V14.0781V14.0533V14.0284V14.0036V13.9804V13.9572V13.9357V13.9142V13.8943V13.8744V13.8546V13.838V13.8198V13.8049V13.79V13.7751V13.7618V13.7486V13.737V13.727V13.7171V13.7088V13.7022V13.6956V13.6889V13.6856V13.6823L101.221 13.6807L101.232 13.6774H101.237H101.246H101.252H101.262H101.272H101.275H101.282H101.294H101.307H101.32H101.333H101.35H101.365H101.383H101.388H101.4H101.418H101.438H101.458H101.479H101.501H101.524H101.547H101.554H101.57H101.595H101.62H101.646H101.673H101.701H101.729H101.757H101.767H101.787H101.817H101.847H101.878H101.91H101.943H101.974H102.009H102.019H102.042H102.077H102.112H102.147H102.183H102.219H102.256H102.294H102.306H102.332H102.37H102.408H102.448H102.486H102.526H102.567H102.607H102.62H102.648H102.688H102.729H102.773H102.814H102.898H102.984H103.071H103.158H103.246H103.306H103.336H103.425H103.514H103.604H103.784H103.965H104.024H104.054H104.144H104.233H104.323H104.41H104.498H104.584H104.67H104.727H104.755H104.798H104.839H104.881H104.922H104.962H105.003H105.043H105.056H105.083H105.122H105.161H105.2H105.238H105.275H105.313H105.349H105.363H105.386H105.422H105.457H105.492H105.527H105.561H105.594H105.628H105.637H105.659H105.69H105.722H105.753H105.783H105.811H105.841H105.869H105.878H105.896H105.922H105.949H105.974H105.998H106.023H106.047H106.068H106.076H106.09H106.111H106.131H106.151H106.169H106.187H106.204H106.22H106.225H106.235H106.249H106.263H106.275H106.287H106.298H106.308H106.316H106.32H106.325H106.331H106.336L106.351 13.6757V13.674V13.6724V13.6707V13.6674V13.6641V13.6591V13.6558V13.6509V13.6459V13.6409V13.6343V13.6277V13.6211V13.6144V13.6061V13.5979V13.5896V13.5813V13.5714V13.5631V13.5532V13.5416V13.5316V13.52V13.5101V13.4985V13.4853V13.4737V13.4621V13.4488V13.4356V13.4223V13.4074V13.3942V13.3644V13.3346V13.3047V13.2716V13.2385V13.2054V13.1706V13.1342V13.0994V13.0613V13.0249V12.9851V12.947V12.9073V12.8675V12.8278V12.7864V12.7467V12.7053V12.6225V12.538V12.3691V12.2863V12.2035V12.1621V12.1223V12.0826V12.0428V12.0031V11.965V11.9269V11.8888V11.8524V11.816V11.7812V11.7464V11.7133V11.6802V11.6487V11.6189V11.5891V11.5609V11.546V11.5328V11.5195V11.5063V11.4947V11.4814V11.4698V11.4583V11.4467V11.4351V11.4251V11.4152V11.4036V11.3953V11.3854V11.3771V11.3688V11.3605V11.3523V11.3456V11.3374V11.3307V11.3258V11.3191V11.3142V11.3092V11.3042V11.3009V11.2976V11.2943V11.2927V11.2893V11.2877V11.286H106.35H106.348H106.343H106.34H106.336H106.333H106.326H106.32H106.31H106.302H106.29H106.28H106.267H106.263H106.254H106.24H106.225H106.209H106.192H106.176H106.157H106.138H106.131H106.118H106.098H106.076H106.053H106.03H106.007H105.982H105.957H105.949H105.932H105.906H105.878H105.849H105.821H105.793H105.763H105.732H105.722H105.702H105.671H105.637H105.606H105.571H105.538H105.503H105.469H105.457H105.434H105.397H105.363H105.324H105.288H105.25H105.212H105.174H105.161H105.136H105.096H105.056H105.016H104.975H104.935H104.894H104.853H104.839H104.811H104.727H104.642H104.556H104.498H104.468H104.382H104.293H104.203H104.114H104.024H103.844H103.784H103.663H103.485H103.395H103.306H103.216H103.129H103.071H103.042H102.956H102.87H102.786H102.744H102.729H102.703H102.662H102.62H102.58H102.539H102.499H102.46H102.421H102.408H102.382H102.344H102.306H102.269H102.231H102.195H102.16H102.123H102.112H102.089H102.054H102.019H101.986H101.953H101.921H101.888H101.857H101.847H101.827H101.797H101.767H101.737H101.709H101.683H101.655H101.628H101.62H101.603H101.579H101.554H101.53H101.507H101.486H101.464H101.444H101.438H101.424H101.406H101.388H101.371H101.355H101.338H101.325H101.31H101.307H101.299H101.285H101.275H101.266H101.256H101.247H101.241H101.234H101.232H101.229H101.224H101.221L101.217 11.2744V11.2695V11.2645V11.2595V11.2512V11.2446V11.2363V11.2281V11.2181V11.2082V11.1966V11.185V11.1734V11.1602V11.1469V11.132V11.1171V11.1022V11.0873V11.0707V11.0525V11.036V11.0177V10.9979V10.9797V10.9598V10.9383V10.9184V10.8969V10.8753V10.8521V10.829V10.8058V10.7826V10.7577V10.7346V10.7097V10.6832V10.6584V10.6319V10.6054V10.5772V10.5507V10.5226V10.4944V10.4663V10.4381V10.4083V10.3785V10.3487V10.3189V10.2593V10.1963V10.1334V10.0705V10.0059V9.93966V9.87507V9.80718V9.74094V9.67304V9.60514V9.46769V9.33189V9.19444V9.05699V8.98909V8.92119V8.85495V8.78705V8.72247V8.65623V8.59164V8.52871V8.46578V8.40285V8.34323V8.31342V8.28361V8.25381V8.224V8.19584V8.16769V8.13954V8.11139V8.08489V8.05674V8.03024V8.00374V7.9789V7.95241V7.92756V7.90438V7.87954V7.85635V7.83317V7.80999V7.7868V7.76527V7.74374V7.72387V7.70234V7.68247V7.66425V7.64438V7.62616V7.6096V7.59139V7.57483V7.55992V7.54502V7.53011V7.51521V7.50196V7.48871V7.47712V7.46553V7.45394V7.444V7.43406V7.42578V7.4175V7.41088V7.4026V7.39763V7.39266V7.38769L101.222 7.3761H101.224H101.226H101.229H101.232H101.236H101.237H101.239H101.242H101.247H101.252H101.257H101.262H101.267H101.274H101.275H101.28H101.285H101.294H101.3H101.307H101.315H101.323H101.332H101.335H101.34H101.348H101.358H101.368H101.376H101.386H101.398H101.411H101.42H101.441H101.466H101.489H101.507H101.516H101.542H101.57H101.598H101.628H101.66H101.691H101.724H101.746H101.757H101.792H101.827H101.863H101.9H101.938H101.978H102.017H102.044H102.057H102.099H102.14H102.183H102.226H102.271H102.315H102.36H102.39H102.407H102.453H102.501H102.549H102.597H102.647H102.696H102.746H102.779H102.797H102.849H102.9H102.951H103.004H103.057H103.112H103.165H103.201H103.22H103.274H103.331H103.385H103.442H103.498H103.554H103.612H103.649H103.726H103.841H103.957H104.074H104.192H104.309H104.429H104.586H104.664H104.901H105.018H105.136H105.253H105.369H105.483H105.522H105.598H105.654H105.71H105.767H105.823H105.878H105.932H105.969H105.987H106.042H106.095H106.149H106.202H106.254H106.307H106.358H106.391H106.408H106.459H106.509H106.558H106.606H106.654H106.702H106.749H106.78H106.795H106.841H106.886H106.931H106.974H107.017H107.06H107.101H107.128H107.141H107.181H107.221H107.259H107.295H107.332H107.368H107.403H107.426H107.436H107.469H107.502H107.532H107.562H107.592H107.62H107.646H107.664H107.673H107.698H107.722H107.746H107.759H107.767H107.787H107.797H107.807H107.817H107.825H107.833H107.837H107.843H107.85H107.858H107.867H107.873H107.88H107.886H107.893H107.896H107.9H107.905H107.911H107.916H107.921H107.924H107.929H107.933H107.934H107.936H107.939H107.943H107.946H107.948H107.949H107.951H107.953H107.954V7.37445V7.37279V7.37113V7.36782V7.36451V7.3612V7.35789V7.35292V7.34795V7.34298V7.33636V7.33139V7.32476V7.31648V7.30986V7.30158V7.2933V7.28502V7.27674V7.2668V7.25852V7.24859V7.23699V7.22706V7.21547V7.20387V7.19228V7.18069V7.1691V7.15585V7.1426V7.12935V7.1161V7.1012V7.07305V7.04324V7.01343V6.98196V6.94884V6.91572V6.88094V6.84617V6.80973V6.7733V6.73521V6.69712V6.65903V6.61929V6.57954V6.5398V6.50005V6.45865V6.37585V6.29305V6.12413V6.04133V5.95687V5.91547V5.87572V5.83432V5.79458V5.75483V5.71509V5.677V5.63725V5.60082V5.56273V5.52795V5.49152V5.45674V5.42362V5.3905V5.35738V5.32757V5.29776V5.26796V5.25471V5.2398V5.22655V5.21331V5.20006V5.18847V5.17687V5.16362V5.15203V5.1421V5.1305V5.12057V5.10898V5.09904V5.09076V5.08082V5.07254V5.06426V5.05598V5.0477V5.04108V5.03445V5.02783V5.0212V5.01624V5.01127V5.0063V5.00299V4.99802V4.99471V4.9914V4.98974V4.98808V4.98643L107.953 4.98477H107.951Z" fill="#989898"/>
<path d="M118.742 12.8175L118.715 12.5906L118.671 12.218L118.652 12.1286L118.565 11.7079L118.553 11.6533L118.45 11.3287L118.387 11.1267L118.311 10.9528L118.174 10.6365L118.147 10.5901L117.959 10.2573L117.916 10.1827L117.743 9.94261L117.619 9.77038L117.503 9.64121L117.285 9.39777L117.238 9.35802L116.953 9.10299L116.914 9.06656L116.649 8.87942L116.503 8.77675L116.374 8.70057H116.372L116.354 8.68898L116.314 8.66579L116.283 8.64592L116.253 8.63102L116.226 8.61611L116.208 8.60618L116.172 8.5863L116.067 8.53828L115.943 8.48032L115.801 8.41242L115.743 8.38592L115.638 8.34949L115.458 8.2849L115.259 8.21535L115.246 8.21038L115.042 8.1607L114.807 8.10439L114.719 8.08287L114.557 8.05803L114.292 8.01828L114.166 8.00006L114.014 7.99013L113.721 7.97026L113.582 7.96198H113.413H113.368H113.308L113.189 7.96529H112.982L112.957 7.97026L112.522 8.01L112.409 8.02159L112.124 8.07293L111.864 8.1193L111.765 8.14745L111.444 8.23688L111.348 8.26338L111.159 8.3379L110.915 8.43229L110.861 8.45216L110.718 8.52503L110.568 8.60121L110.465 8.6542L110.409 8.68401L110.402 8.68732L110.397 8.69063H110.395L110.046 8.91917L109.978 8.96388L109.65 9.23382L109.592 9.28184L109.294 9.58656L109.241 9.63955L108.978 9.97738L108.928 10.0387L108.701 10.403L108.653 10.4792L108.464 10.8667L108.42 10.9578L108.274 11.3651L108.236 11.4728L108.13 11.9017L108.1 12.0243L108.031 12.4764L108.011 12.6105L107.978 13.1206L107.971 13.2348L107.978 13.8774L108.011 14.2533L108.031 14.4835L108.1 14.876L108.13 15.0515L108.236 15.444L108.274 15.5864L108.42 15.9723L108.464 16.0898L108.653 16.4707L108.701 16.5684L108.928 16.9295L108.978 17.0073L109.241 17.3385L109.294 17.4031L109.592 17.6995L109.65 17.7591L109.978 18.0191L110.046 18.0721L110.395 18.2907H110.397L110.412 18.3007L110.448 18.3239L110.48 18.3437L110.506 18.357L110.584 18.3934L110.684 18.4414L110.801 18.4994L110.937 18.564L110.952 18.5723L111.093 18.6219L111.268 18.6849L111.457 18.7528H111.462L111.672 18.8058L111.902 18.8637L111.995 18.8853L112.149 18.9101L112.412 18.9498L112.565 18.973L112.692 18.9813L112.989 18.9995L113.169 19.0128H113.302L113.325 19.0144H113.515L113.534 19.0128L113.752 19.0028L113.979 18.9929H113.989L114.194 18.9697L114.403 18.9465L114.426 18.9432L114.6 18.9134L114.787 18.8803L114.844 18.8703L114.966 18.8389L115.135 18.7975L115.243 18.7693L115.294 18.7528L115.443 18.7031L115.584 18.6567H115.585L115.587 18.6551L115.602 18.6501L115.622 18.6435L115.635 18.6385L115.875 18.5375L115.983 18.4911L116.067 18.4481L116.213 18.3719L116.312 18.3205L116.326 18.3123L116.364 18.2874L116.374 18.2825L116.503 18.2013L116.649 18.1086L116.914 17.9082L116.953 17.8767L117.238 17.62L117.285 17.572L117.503 17.3385L117.619 17.1928L117.743 17.0371L117.916 16.7804L117.959 16.7175L118.147 16.3763L118.174 16.3184L118.311 16.017L118.387 15.8116L118.45 15.6377L118.553 15.28L118.565 15.2403L118.652 14.8213L118.671 14.6921L118.715 14.3841L118.742 14.0612L118.753 13.9271L118.767 13.4518L118.753 13.1123L118.742 12.8158V12.8175ZM116.374 13.4137V13.4302V13.5031L116.364 13.7565L116.326 14.1109L116.312 14.2384L116.213 14.6872L116.067 15.0995L115.983 15.2635L115.875 15.4788L115.635 15.8216L115.622 15.8365L115.602 15.8613L115.587 15.8795H115.584L115.443 16.0319L115.294 16.171L115.243 16.2107L115.135 16.2969L114.966 16.4078L114.844 16.4741L114.787 16.5055L114.6 16.59L114.426 16.6512L114.403 16.6595L114.194 16.7158L113.989 16.7572H113.979L113.752 16.7887L113.534 16.8036H113.515L113.418 16.8069H113.302L113.169 16.7986L112.989 16.7904L112.692 16.7473L112.565 16.7175L112.412 16.6811L112.149 16.5883L111.995 16.5138L111.902 16.4707L111.672 16.3283L111.462 16.166L111.457 16.1611L111.268 15.9822L111.093 15.7802L110.952 15.5781L110.937 15.5566L110.801 15.3148L110.684 15.0532L110.584 14.7783L110.506 14.4868L110.48 14.3477L110.448 14.1804L110.412 13.8608L110.397 13.5246V13.4402V13.3143L110.402 13.2083L110.409 13.0626L110.465 12.5857L110.568 12.1485L110.718 11.7477L110.861 11.4844L110.915 11.3834L111.159 11.0571L111.348 10.87L111.444 10.7756L111.765 10.5454L111.864 10.4974L112.124 10.3682L112.409 10.2788L112.522 10.2423L112.957 10.1695H112.982L113.189 10.1513L113.308 10.148H113.413L113.582 10.1546L113.721 10.1612L114.014 10.1993L114.166 10.2324L114.292 10.2606L114.557 10.3467L114.719 10.4179L114.807 10.456L115.042 10.5901L115.246 10.7325L115.259 10.7425L115.458 10.9164L115.638 11.1085L115.743 11.2459L115.801 11.3221L115.943 11.5539L116.067 11.8057L116.172 12.0739L116.208 12.2015L116.226 12.266L116.253 12.3588L116.283 12.5045L116.314 12.6585L116.354 12.9748L116.372 13.3077V13.3921L116.374 13.4137Z" fill="#989898"/>
<path d="M129.854 14.6609L129.839 14.6576L129.781 14.6476H129.779L129.698 14.6311L129.688 14.6294L129.592 14.6112L129.581 14.6079L129.47 14.5864L129.456 14.5847L129.316 14.5565L129.178 14.53L129.158 14.5267L128.983 14.4936L128.85 14.4671L128.792 14.4555L128.584 14.4158L128.358 14.3727L128.191 14.3396L128.115 14.3264L127.911 14.2866L127.848 14.275L127.794 14.2634L127.698 14.2452L127.625 14.2303L127.577 14.222L127.562 14.2187H127.56L127.545 14.285L127.395 14.8215L127.254 15.1825L127.201 15.3183L127.146 15.4376L127.116 15.4955L127.101 15.5237V15.5253L127.098 15.522L126.971 15.7423L126.924 15.8085L126.825 15.946L126.661 16.1298L126.573 16.2109L126.479 16.2954L126.28 16.4428L126.201 16.4875L126.058 16.5686L125.81 16.668L125.806 16.6697L125.533 16.7409L125.391 16.7624L125.232 16.7872L124.954 16.8038L124.901 16.8071L124.848 16.8055L124.766 16.8038L124.607 16.8005L124.558 16.7988L124.228 16.7607L123.986 16.7094L123.917 16.6945L123.622 16.5968L123.399 16.4958L123.344 16.4709L123.084 16.3153L122.847 16.1314L122.844 16.1281L122.633 15.9228L122.443 15.6876L122.322 15.4988L122.276 15.4243L122.132 15.1362L122.016 14.8215L121.928 14.482L121.868 14.1177L121.839 13.7269L121.834 13.5563V13.5232V13.4967V13.4636V13.4238V13.3824L121.839 13.2218L121.858 12.9121L121.862 12.8856L121.895 12.619L121.946 12.3424L122.014 12.0824L122.099 11.8406L122.198 11.6138L122.314 11.4051L122.349 11.3538L122.445 11.213L122.592 11.0375L122.754 10.8785L122.869 10.7841L122.925 10.736L123.104 10.6085L123.291 10.4976L123.417 10.4346L123.486 10.4015L123.69 10.3204L123.902 10.2558L123.995 10.2359L124.122 10.2061L124.349 10.173L124.586 10.1548H124.599L124.707 10.1515H124.738H124.745H124.75H124.752H124.753H124.763H124.804L125.122 10.1664L125.212 10.178L125.417 10.2045L125.689 10.2674L125.787 10.2989L125.939 10.3502L126.164 10.4578L126.316 10.5522L126.369 10.5853L126.558 10.7327L126.73 10.8983L126.807 10.9894L126.884 11.0822L127.02 11.2859L127.141 11.5061L127.25 11.7413L127.254 11.7479L127.347 11.9897L127.431 12.253L127.502 12.5312L127.509 12.5676L127.515 12.5892L127.537 12.5842L127.59 12.5759L127.66 12.566L127.669 12.5643L127.77 12.5478L127.893 12.5279L128.03 12.5064L128.183 12.4815L128.365 12.4517L128.665 12.4037L128.858 12.3722L128.93 12.3606L129.162 12.3242L129.19 12.3192L129.364 12.2911L129.483 12.2712L129.537 12.2629L129.605 12.253L129.687 12.2397L129.71 12.2348L129.791 12.2232L129.806 12.2199L129.845 12.2132L129.855 12.2116L129.867 12.2099H129.869H129.87H129.872L129.87 12.2016L129.867 12.1801L129.855 12.1155L129.845 12.0625L129.806 11.8605L129.791 11.7976L129.71 11.468L129.687 11.372L129.605 11.1236L129.537 10.9132L129.483 10.7758L129.364 10.4843L129.19 10.1415L129.162 10.0852L128.93 9.71758L128.858 9.6265L128.665 9.38306L128.365 9.08166L128.183 8.93758L128.03 8.81504L127.893 8.72892L127.77 8.65109L127.669 8.5865L127.66 8.58153L127.59 8.54676L127.537 8.52192L127.515 8.51032L127.509 8.50701L127.502 8.5037L127.431 8.46892L127.347 8.42752L127.254 8.38281L127.25 8.38115L127.141 8.34306L127.02 8.30001L126.884 8.25032L126.807 8.22217L126.73 8.20396L126.558 8.1609L126.369 8.11453L126.316 8.10128L126.164 8.07644L125.939 8.04166L125.787 8.01682L125.689 8.0102L125.417 7.98867L125.212 7.97211L125.122 7.97045L124.804 7.96714H124.707L124.599 7.96548H124.586L124.349 7.98205L124.122 7.99695L123.995 8.00689L123.902 8.02013L123.69 8.05326L123.486 8.08472L123.417 8.09631L123.291 8.12778L123.104 8.1758L122.925 8.22052L122.869 8.23542L122.754 8.27682L122.592 8.33478L122.445 8.38943L122.349 8.42421L122.314 8.44077L122.198 8.49708L122.099 8.5451L122.014 8.5865L121.946 8.61962L121.895 8.64446L121.862 8.66102L121.858 8.66268L121.839 8.67593L121.834 8.67924L121.413 8.94586L121.385 8.96905L121.006 9.27542L120.976 9.30523L120.638 9.65134L120.61 9.68612L120.312 10.072L120.287 10.1134L120.025 10.5373L120.005 10.582L119.883 10.8453L119.79 11.0457L119.772 11.0938L119.676 11.3819L119.605 11.5922L119.591 11.6485L119.472 12.1818L119.464 12.2464L119.391 12.8094L119.388 12.9088L119.363 13.4785L119.388 14.1508L119.391 14.1856L119.464 14.7867L119.472 14.8248L119.591 15.3813L119.605 15.4243L119.676 15.6644L119.772 15.936L119.79 15.9758L119.883 16.196L120.005 16.4461L120.025 16.4792L120.287 16.9098L120.312 16.9429L120.61 17.3288L120.638 17.3569L120.976 17.703L121.006 17.7262L121.385 18.0326L121.413 18.0508L121.834 18.3158L121.839 18.3191L121.868 18.334L121.928 18.3621L122.016 18.4052L122.132 18.4615L122.276 18.5311L122.322 18.5542L122.443 18.599L122.633 18.6669L122.844 18.743L122.847 18.7447L123.084 18.8043L123.344 18.8705L123.399 18.8838L123.622 18.9186L123.917 18.9649L123.986 18.9765L124.228 18.9931L124.558 19.0163L124.607 19.0196L124.766 19.0229H124.808H124.848H124.857H124.862H124.864H124.866H124.869H124.897H124.901H124.954L125.232 19.013L125.391 19.008L125.533 18.9947L125.806 18.9699L125.81 18.9683L126.058 18.9302L126.201 18.9086L126.28 18.8921L126.479 18.8474L126.573 18.8258L126.661 18.7993L126.825 18.7513L126.924 18.7215L126.971 18.7033L127.098 18.6536H127.101V18.6519L127.116 18.647L127.146 18.6354L127.201 18.6139L127.254 18.594L127.395 18.5261L127.545 18.4532L127.56 18.4449H127.562L127.577 18.435L127.625 18.4069L127.698 18.3621L127.794 18.3042L127.848 18.2711L127.911 18.2263L128.115 18.0773L128.191 18.0077L128.358 17.8604L128.584 17.6235L128.792 17.3702L128.85 17.2874L128.983 17.1019L129.158 16.817L129.178 16.779L129.316 16.5173L129.456 16.1993L129.47 16.1679L129.581 15.8681L129.592 15.83L129.688 15.5187L129.698 15.4839L129.779 15.1544L129.781 15.1478L129.839 14.8513L129.854 14.7735L129.869 14.6841L129.87 14.6758L129.869 14.6642L129.854 14.6609Z" fill="#989898"/>
<path d="M67.2404 8.22234H67.2371H67.2354H67.2338H67.2288H67.2239H67.2172H67.2106H67.2023H67.194H67.1841H67.1791H67.1742H67.1626H67.151H67.1394H67.1261H67.1129H67.098H67.0847H67.0781H67.0682H67.0516H67.0351H67.0185H67.0003H66.9821H66.9622H66.9423H66.934H66.9225H66.9026H66.8811H66.8595H66.838H66.8148H66.7916H66.7684H66.7568H66.7436H66.7188H66.6939H66.6691H66.6442H66.6177H66.5912H66.5648H66.5532H66.5366H66.5101H66.4819H66.4538H66.4256H66.3677H66.3263H66.3097H66.2501H66.1888H66.1276H66.0663H66.0033H65.9404H65.8775H65.8311H65.8129H65.6854H65.5579H65.4933H65.4304H65.3674H65.3227H65.3045H65.2432H65.182H65.1207H65.0611H65.0031H64.9451H64.917H64.8888H64.8607H64.8491H64.8342H64.806H64.7795H64.753H64.7265H64.7017H64.6769H64.652H64.6404H64.6272H64.6023H64.5791H64.556H64.5328H64.5113H64.4897H64.4682H64.4599H64.4483H64.4268H64.4086H64.3887H64.3705H64.3523H64.3357H64.3192H64.3109H64.3026H64.286H64.2711H64.2579H64.2446H64.2314H64.2198H64.2082H64.2032H64.1966H64.1867H64.1767H64.1685H64.1602H64.1535H64.1469H64.142H64.1403H64.137H64.1337H64.1304H64.1271H64.1254V8.22068V8.21903V8.21572V8.2124V8.20744V8.20247V8.19584V8.18922V8.18094V8.17266V8.16272V8.15279V8.14119V8.1296V8.11635V8.10311V8.08986V8.07495V8.06005V8.04349V8.02693V8.01037V7.99215V7.97393V7.95572V7.93584V7.91597V7.89444V7.87292V7.85139V7.8282V7.80667V7.78349V7.75865V7.73381V7.70897V7.68413V7.65929V7.63279V7.60629V7.5798V7.55164V7.52349V7.49534V7.46718V7.43903V7.40922V7.38107V7.35126V7.32145V7.26018V7.19891V7.13598V7.07139V7.00846V6.94222V6.87763V6.81139V6.67891V6.54642V6.41394V6.3477V6.28311V6.21853V6.15394V6.08935V6.02642V5.96515V5.90388V5.87407V5.84426V5.81445V5.78464V5.75649V5.72668V5.69853V5.67037V5.64388V5.61573V5.58923V5.56273V5.53789V5.51139V5.48655V5.46171V5.43853V5.41369V5.3905V5.36897V5.34579V5.32426V5.30439V5.28286V5.26299V5.24311V5.2249V5.20668V5.19012V5.1719V5.157V5.14044V5.12554V5.11063V5.09738V5.08413V5.07254V5.06095V5.05101V5.04108V5.03114V5.02286V5.01458V5.00796V5.00299V4.99802V4.99305V4.98974L64.1188 4.98477H64.1155H64.1121H64.1072H64.1022H64.0956H64.089H64.0823H64.0757H64.0674H64.0658H64.0575H64.0492H64.0393H64.0293H64.0178H64.0078H63.9946H63.983H63.9813H63.9697H63.9565H63.9432H63.93H63.9151H63.9002H63.8836H63.8687H63.8654H63.8521H63.8356H63.819H63.8008H63.7826H63.766H63.7462H63.7279H63.7246H63.7081H63.6899H63.67H63.6501H63.6286H63.5872H63.564H63.5441H63.5011H63.4564H63.4116H63.3653H63.3189H63.2709H63.2228H63.1947H63.1748H63.1251H63.0274H63.0158H63.0142H62.9844H62.8287H62.7525H62.7293H62.6797H62.6316H62.5836H62.5356H62.4892H62.4412H62.3965H62.3518H62.3352H62.3071H62.264H62.2209H62.2011H62.1795H62.1597H62.1564H62.1398H62.1216H62.1017H62.0835H62.0636H62.0454H62.0288H62.0106H62.0023H61.9941H61.9775H61.9609H61.9444H61.9295H61.9146H61.8997H61.8848H61.8765H61.8715H61.8583H61.845H61.8334H61.8218H61.8102H61.7987H61.7887H61.7804H61.7788H61.7705H61.7606H61.7523H61.7457H61.739H61.7324H61.7258H61.7225H61.7208H61.7159H61.7125L61.7009 4.98643V4.98974V4.9914V4.99471V4.99802V5.00299V5.0063V5.01127V5.01624V5.02286V5.02949V5.03611V5.04273V5.05101V5.05929V5.06757V5.07585V5.08579V5.09573V5.10566V5.1156V5.12554V5.13713V5.14872V5.16031V5.17356V5.18515V5.1984V5.21165V5.2249V5.23815V5.25305V5.2663V5.2812V5.31101V5.34248V5.37394V5.40706V5.44184V5.47662V5.51139V5.54783V5.58426V5.62069V5.65878V5.69687V5.73496V5.81279V5.89229V5.97178V6.04961V6.1291V6.16719V6.20528V6.24337V6.28146V6.31789V6.35432V6.39075V6.42553V6.46031V6.49509V6.52655V6.55967V6.58948V6.61929V6.63419V6.6491V6.66235V6.67559V6.68884V6.70209V6.71534V6.72859V6.74018V6.75177V6.76336V6.7733V6.78489V6.79483V6.80477V6.8147V6.82298V6.83292V6.8412V6.84782V6.8561V6.86273V6.86935V6.87598V6.88094V6.88757V6.89254V6.89585V6.89916V6.90247V6.90578V6.9091V6.91075V6.91241L61.7125 7.03496L61.7225 7.14426L61.7606 7.28999L61.7804 7.36285L61.845 7.50031L61.8765 7.56489L61.9609 7.68744L62.0023 7.7454L62.1017 7.84807L62.1564 7.90272L62.264 7.98056L62.3352 8.03355L62.5356 8.13126L62.6316 8.16107L62.7525 8.19584L62.9844 8.22234H62.9827H62.9761H62.9678H62.9595H62.9496H62.9397H62.9297H62.9181H62.9065H62.895H62.8817H62.8685H62.8552H62.8403H62.8254H62.8105H62.8006H62.7939H62.7774H62.7608H62.7426H62.726H62.7078H62.6879H62.6697H62.6499H62.63H62.6085H62.5886H62.5671H62.5455H62.5223H62.5008H62.4776H62.4544H62.4313H62.4164H62.4081H62.3849H62.3352H62.2855H62.2392H62.2342H62.1829H62.1315H62.0802H62.0785H62.0239H61.9692H61.9427H61.9146H61.8599H61.8318H61.7523H61.7473H61.7076H61.7009H61.686H61.648H61.59H61.5237H61.4277H61.4128H61.3581H61.3035H61.2488H61.2223H61.1958H61.1429H61.0915H61.0402H60.9938H60.9905H60.9408H60.916H60.8928H60.8696H60.8464H60.8232H60.8001H60.7785H60.7653H60.7553H60.7338H60.7123H60.6924H60.6725H60.6527H60.6328H60.6129H60.5947H60.5765H60.5599H60.5583H60.5401H60.5235H60.5069H60.492H60.4755H60.4606H60.4473H60.4324H60.4192H60.4076H60.3976H60.3943H60.3827H60.3728H60.3629H60.3529H60.343H60.3397H60.3347H60.3264H60.3198H60.3132H60.3082H60.3016H60.2983H60.295L60.2867 8.22565V8.22897V8.23062V8.23393V8.2389V8.24221V8.24718V8.25215V8.25877V8.26374V8.27037V8.27865V8.28527V8.29355V8.30183V8.31177V8.3217V8.32998V8.34158V8.35151V8.36311V8.3747V8.38629V8.39788V8.41113V8.42272V8.43597V8.45088V8.46412V8.47903V8.49228V8.50718V8.52374V8.53865V8.55355V8.58667V8.61979V8.65457V8.68935V8.72578V8.76221V8.8003V8.83839V8.87814V8.91788V8.95763V8.99737V9.03877V9.12157V9.28718V9.36998V9.45278V9.49418V9.53393V9.57367V9.61342V9.65151V9.6896V9.72769V9.76412V9.80055V9.83533V9.87011V9.90157V9.93469V9.9496V9.9645V9.97941V9.99431V10.0092V10.0241V10.0374V10.0506V10.0639V10.0755V10.0887V10.1003V10.1119V10.1235V10.1334V10.145V10.1549V10.1632V10.1732V10.1814V10.1897V10.198V10.2046V10.2129V10.2195V10.2245V10.2295V10.2344V10.2394V10.2444V10.2477V10.2493V10.2527V10.2543V10.256H60.2883H60.29H60.2917H60.2933H60.295H60.2966H60.2983H60.3016H60.3066H60.3099H60.3132H60.3181H60.3231H60.3281H60.3347H60.3397H60.343H60.3463H60.3529H60.3595H60.3662H60.3811H60.3976H60.4142H60.4324H60.4506H60.4705H60.492H60.5136H60.5367H60.5583H60.5599H60.5831H60.608H60.6328H60.6576H60.6841H60.7106H60.7123H60.7371H60.7653H60.7934H60.8216H60.8779H60.8928H60.9358H60.9938H61.0518H61.0915H61.1097H61.166H61.1942H61.2223H61.2505H61.277H61.3035H61.33H61.3548H61.3797H61.4045H61.4277H61.4509H61.4741H61.4956H61.5171H61.5237H61.537H61.5552H61.5734H61.59H61.6066H61.6215H61.6281H61.6347H61.6413H61.648H61.6529H61.6595H61.6645H61.6695H61.6744H61.6778H61.6811H61.686H61.6894H61.691H61.6943H61.696H61.6976H61.6993H61.7009V10.2576V10.2593V10.2609V10.2626V10.2659V10.2709V10.2742V10.2791V10.2841V10.2907V10.2974V10.304V10.3123V10.3206V10.3288V10.3388V10.3487V10.3586V10.3686V10.3802V10.3934V10.405V10.4183V10.4315V10.4464V10.4597V10.4746V10.4911V10.506V10.5226V10.5408V10.5574V10.5756V10.5938V10.612V10.6319V10.6518V10.6716V10.6932V10.713V10.7346V10.7577V10.7793V10.8025V10.8256V10.8488V10.8737V10.8969V10.9217V10.9482V10.973V10.9995V11.026V11.0525V11.0807V11.1072V11.1353V11.1635V11.1933V11.2214V11.2512V11.2811V11.3109V11.3407V11.3721V11.4036V11.4351V11.4665V11.498V11.5311V11.5642V11.5974V11.6305V11.6636V11.6984V11.7315V11.7663V11.8011V11.8358V11.907V11.9799V12.0528V12.1273V12.2018V12.278V12.3558V12.4337V12.5115V12.591V12.6721V12.7516V12.8344V12.9172V13V13.0828V13.1673V13.2518V13.3379V13.4223V13.5084V13.5962V13.6823V13.7701V13.8579V14.0334V14.2106V14.3878V14.7438V14.921V15.0982V15.2738V15.3616V15.4493V15.5371V15.6232V15.7093V15.7954V15.8816V15.966V16.0505V16.1349V16.2177V16.3005V16.3833V16.4645V16.5456V16.6251V16.7046V16.7824V16.8603V16.9365V17.0126V17.0872V17.16V17.2329V17.3058V17.3753V17.4101V17.4449V17.4796V17.5128V17.5475V17.5807V17.6138V17.6469V17.6784V17.7115V17.7429V17.7744V17.8059V17.8357V17.8672V17.897V17.9268V17.9566V17.9847V18.0145V18.0427V18.0708V18.0973V18.1255V18.152V18.1785V18.205V18.2315V18.2563V18.2812V18.306V18.3292V18.354V18.3772V18.3987V18.4219V18.4435V18.465V18.4865V18.508V18.5279V18.5478V18.566V18.5859V18.6041V18.6223V18.6389V18.6571V18.6736V18.6886V18.7051V18.72V18.7349V18.7482V18.7614V18.7747V18.7879V18.7995V18.8111V18.8227V18.8326V18.8426V18.8525V18.8608V18.8691V18.8773V18.884V18.8906V18.8972V18.9022V18.9071V18.9121V18.9154V18.9187V18.9204V18.9237V18.9254H61.7026H61.7043H61.7059H61.7076H61.7109H61.7159H61.7208H61.7258H61.7308H61.7374H61.744H61.7523H61.7606H61.7688H61.7771H61.7871H61.7987H61.8086H61.8202H61.8318H61.8434H61.8566H61.8699H61.8831H61.898H61.9129H61.9278H61.9427H61.9576H61.9692H61.9742H61.9907H62.009H62.0255H62.0437H62.062H62.0802H62.0984H62.1183H62.1381H62.158H62.1779H62.1978H62.2392H62.2822H62.3253H62.37H62.3849H62.4164H62.4611H62.5091H62.5555H62.5671H62.6035H62.6532H62.7012H62.726H62.8006H62.8552H62.9496H62.9993H63.0059H63.0158H63.0274H63.097H63.1467H63.1947H63.2427H63.2907H63.3388H63.3851H63.4116H63.4315H63.4762H63.5193H63.564H63.5872H63.6054H63.6269H63.6468H63.6667H63.6865H63.7064H63.7246H63.7445H63.7462H63.7627H63.7809H63.7992H63.8157H63.8339H63.8505H63.8654H63.882H63.8836H63.8969H63.9134H63.9267H63.9416H63.9548H63.9681H63.9813H63.9929H63.9946H64.0062H64.0161H64.0277H64.0376H64.0476H64.0575H64.0658H64.0741H64.0757H64.0807H64.089H64.0956H64.1006H64.1055H64.1105H64.1155H64.1188H64.1204H64.1237H64.1254V18.9237V18.9221V18.9187V18.9138V18.9105V18.9055V18.8989V18.8939V18.8856V18.879V18.8707V18.8624V18.8542V18.8442V18.8343V18.8243V18.8128V18.8012V18.7896V18.7763V18.7631V18.7498V18.7349V18.7217V18.7051V18.6902V18.6736V18.6571V18.6405V18.6223V18.6041V18.5859V18.5677V18.5478V18.5279V18.508V18.4865V18.465V18.4435V18.4219V18.3987V18.3772V18.354V18.3292V18.306V18.2812V18.2563V18.2298V18.205V18.1785V18.152V18.1255V18.0973V18.0692V18.041V18.0129V17.9847V17.9549V17.9251V17.8953V17.8655V17.8357V17.8042V17.7728V17.7413V17.7098V17.6767V17.6452V17.6121V17.579V17.5459V17.5111V17.478V17.4432V17.4084V17.3737V17.3389V17.2677V17.1948V17.1219V17.0474V16.9712V16.8951V16.8189V16.741V16.6616V16.5821V16.5009V16.4198V16.3386V16.2558V16.173V16.0886V16.0058V15.9196V15.8352V15.7491V15.663V15.5752V15.4891V15.4013V15.2258V15.0486V14.8714V14.6942V14.3381V14.1609V13.9854V13.8082V13.7221V13.6343V13.5482V13.4604V13.376V13.2898V13.2054V13.1209V13.0365V12.9537V12.8709V12.7881V12.7069V12.6258V12.5463V12.4668V12.389V12.3111V12.2349V12.1604V12.0859V12.0114V11.9385V11.8673V11.7977V11.763V11.7282V11.6934V11.6603V11.6255V11.5924V11.5593V11.5262V11.4947V11.4632V11.4301V11.3986V11.3688V11.3374V11.3076V11.2777V11.2479V11.2181V11.1883V11.1602V11.132V11.1039V11.0757V11.0492V11.0227V10.9962V10.9697V10.9449V10.9184V10.8935V10.8704V10.8455V10.8223V10.7991V10.776V10.7544V10.7329V10.7114V10.6899V10.6683V10.6484V10.6286V10.6104V10.5905V10.5723V10.5557V10.5375V10.5209V10.5044V10.4878V10.4729V10.458V10.4431V10.4298V10.4166V10.4034V10.3918V10.3785V10.3686V10.357V10.347V10.3371V10.3272V10.3189V10.3106V10.304V10.2957V10.2891V10.2841V10.2791V10.2742V10.2692V10.2659V10.2626L64.1403 10.256H64.1453H64.1502H64.1569H64.1602H64.1651H64.1734H64.1817H64.1916H64.2032H64.2132H64.2264H64.238H64.2446H64.2513H64.2662H64.2811H64.296H64.3109H64.3274H64.3456H64.3622H64.3705H64.3804H64.4003H64.4185H64.4384H64.4599H64.4798H64.5013H64.5245H64.5328H64.546H64.5692H64.5924H64.6172H64.6404H64.6653H64.6901H64.7166H64.7265H64.7414H64.7679H64.7944H64.8226H64.8491H64.8772H64.9054H64.9335H64.9451H64.9617H65.0197H65.0793H65.1389H65.182H65.1985H65.2614H65.3227H65.3856H65.4486H65.5761H65.6854H65.8311H65.8957H65.9586H66.0216H66.0828H66.1458H66.1888H66.207H66.2667H66.3263H66.3842H66.4124H66.4256H66.4422H66.4704H66.4985H66.525H66.5532H66.5797H66.6062H66.6326H66.6442H66.6591H66.684H66.7088H66.7337H66.7568H66.7817H66.8049H66.8281H66.838H66.8496H66.8711H66.8926H66.9142H66.934H66.9539H66.9738H66.992H67.0003H67.0102H67.0284H67.045H67.0616H67.0781H67.093H67.1063H67.1212H67.1261H67.1344H67.146H67.1576H67.1692H67.1791H67.1891H67.199H67.2073H67.2106H67.2139H67.2205H67.2272H67.2321H67.2354L67.2437 10.2543L67.2454 10.2527V10.251V10.2477V10.2444V10.2411V10.2377V10.2328V10.2278V10.2212V10.2146V10.2079V10.2013V10.193V10.1848V10.1765V10.1682V10.1583V10.1483V10.1384V10.1284V10.1169V10.1053V10.0937V10.0821V10.0688V10.0556V10.0423V10.0291V10.0158V10.0009V9.98603V9.97113V9.95622V9.94132V9.92476V9.89329V9.86017V9.82539V9.79062V9.75418V9.71775V9.67966V9.64157V9.60183V9.56208V9.52234V9.48259V9.44119V9.35839V9.19278V9.10833V9.02718V8.98578V8.94603V8.90629V8.86654V8.8268V8.78871V8.75228V8.71584V8.67941V8.64463V8.60986V8.57674V8.54527V8.53037V8.51381V8.4989V8.484V8.47075V8.45584V8.4426V8.42935V8.4161V8.40285V8.39126V8.37967V8.36807V8.35648V8.34489V8.33495V8.32502V8.31508V8.3068V8.29686V8.28858V8.28196V8.27368V8.26705V8.26043V8.25546V8.24884V8.24387V8.24056V8.23559L67.2437 8.22234H67.2404Z" fill="#989898"/>
<path d="M22.552 12.2398L22.5421 12.0775L22.5222 11.7662L22.4891 11.4267L22.4759 11.2975L22.4129 10.8305L22.4063 10.7958L22.3318 10.3685L22.2953 10.1996L22.2341 9.90978L22.1595 9.61335L22.1198 9.45602L21.9973 9.0387L21.989 9.00558L21.8416 8.56341L21.8151 8.4922L21.6776 8.12456L21.6114 7.96392L21.4988 7.69399L21.3878 7.45221L21.3034 7.26838L21.0931 6.85106L20.8943 6.49004L20.8662 6.44036L20.6261 6.0396L20.3694 5.64546L20.3478 5.614L20.0994 5.26126L19.8129 4.88534L19.7765 4.84062L19.7633 4.834L19.7566 4.83069L19.7185 4.82406L19.6457 4.81412L19.3509 4.77107L19.225 4.75616L19.4354 4.77935L19.5413 4.79425L19.6871 4.81578L19.7152 4.82075L19.75 4.82572H19.7583L19.7666 4.82903V4.82572V4.82241L19.7583 4.81247L19.75 4.80419L19.7152 4.75948L19.6871 4.72635L19.5413 4.54916L19.4354 4.42827L19.1803 4.13846L18.8011 3.74432L18.4566 3.41477L18.4119 3.37337L18.1022 3.09846L17.7379 2.79541L17.3719 2.51553L17.362 2.50725L17.1103 2.33006L17.044 2.28369L17.0291 2.27209L17.0126 2.2605L16.9811 2.23897L16.9778 2.23566L16.8585 2.15617L16.5836 1.97732L16.3667 1.84484L16.1812 1.73388L15.7705 1.50535L15.3929 1.31324L15.3515 1.29337L14.9259 1.09465L14.4921 0.914137L14.4358 0.892609L14.0532 0.748533L13.6077 0.597833L13.4951 0.564712L13.1573 0.465349L12.7019 0.34777L12.5744 0.319617L12.2415 0.248407L11.7761 0.163949L11.6735 0.149044L11.3091 0.0977067L10.8372 0.0480253L10.7941 0.0447132L10.3619 0.0165605L9.93793 0.00331209H9.88494L9.7657 0H7.52342V0.0546495V0.0579616L7.50023 0.629297L7.43565 1.18573L7.33132 1.73057L7.18724 2.25885L7.00507 2.77222L6.91565 2.97591L6.78813 3.26738L6.53807 3.74266L6.32941 4.07553L6.25323 4.19642L5.93858 4.62699L5.76304 4.83565L5.59412 5.03438L5.22151 5.41693L5.2182 5.42024L4.82241 5.77132L4.69489 5.86903L4.39846 6.09756L4.19642 6.23004L3.94967 6.39234L3.71948 6.52151L3.48101 6.65565L3.26903 6.75501L2.99247 6.88584L2.84343 6.9438L2.48407 7.08125L2.44432 7.09284L2.07337 7.20545L1.9591 7.24023L1.72891 7.29157L1.41923 7.36112H1.41261L1.12777 7.40252L0.87108 7.44061H0.864456L0.645858 7.45717L0.453757 7.47042L0.296432 7.48201H0.165605L0.154012 7.48533H0.00331209V7.49029V20.8976L0 20.939V20.9523V20.9556V22.3732L0.00496814 22.4328L0.0182165 22.4593H15.0435V22.456V14.9789L15.0468 14.974H22.5636V14.9673V12.7863V12.783V12.7068L22.552 12.2398ZM18.4566 4.67005L18.6421 4.68992L18.1917 4.65183L18.4136 4.66342L18.4583 4.66839L18.4566 4.67005ZM14.4921 4.79591L14.6693 4.77438L14.5037 4.79756L14.4358 4.80584L14.2453 4.83897L14.1194 4.86049L14.4358 4.80253L14.4921 4.79591ZM13.6077 4.95158L13.7386 4.92839L13.5895 4.9582L13.3411 5.00954L13.1987 5.04266L13.4968 4.97145L13.6094 4.95158H13.6077ZM12.7019 5.16189L12.7466 5.15196L12.3591 5.25629L12.5744 5.1917L12.7019 5.16189ZM11.7761 5.43017L11.9567 5.37718L11.8026 5.42355L11.748 5.44011L11.4516 5.54113L11.6735 5.46164L11.7761 5.43017ZM10.8372 5.76304L11.0144 5.69845L10.7212 5.80941L10.713 5.81272L10.5672 5.87399L10.7941 5.77794L10.8372 5.76304ZM10.1565 6.04788L10.1267 6.06113L9.77895 6.21845L9.88494 6.16546L9.93793 6.14062L10.1565 6.04788ZM9.21424 6.49501H9.21755L8.888 6.6689L8.9294 6.64571L9.10494 6.54801L9.21258 6.49501H9.21424ZM8.31832 6.98686L8.5187 6.87425L8.3001 7.00011L8.23552 7.04151L8.06163 7.14749L8.3001 6.99679L8.31832 6.98686ZM7.00507 7.85131L7.18724 7.72545L7.25679 7.67743L6.80304 8.00201L6.91565 7.91424L7.00507 7.85131ZM5.59412 8.9973L5.76304 8.84328L5.93858 8.69424L5.96011 8.67602L5.57259 9.01717L5.59412 8.9973ZM3.26903 11.5625L3.48101 11.286L3.52407 11.2296L3.20445 11.6552L3.26903 11.5625ZM3.71948 10.9763L3.94967 10.7014L4.04738 10.5854L3.67642 11.0309L3.71948 10.9763ZM2.95935 12.0047L2.74076 12.3276L2.84177 12.1686L2.9577 12.0047H2.95935ZM2.44432 12.7946L2.48407 12.7333L2.50394 12.7019L2.35324 12.9519L2.44432 12.7946ZM0.29312 18.3821L0.296432 18.3622L0.304712 18.3275L0.279872 18.4633L0.29312 18.3838V18.3821ZM0.453757 17.6336L0.478597 17.5375L0.425604 17.7594L0.453757 17.6319V17.6336ZM0.864456 16.1994L0.87108 16.1763L0.927386 16.0206L0.857832 16.2177L0.8628 16.1994H0.864456ZM1.72891 14.0979L1.73222 14.0913L1.71401 14.131L1.72891 14.0996V14.0979ZM0.619361 17.0026L0.645858 16.8983L0.687259 16.7642L0.652482 16.885L0.619361 17.0026ZM1.94254 13.6872L1.9591 13.6558L2.07337 13.4372L2.11808 13.3593L2.09821 13.3974L1.94254 13.6872ZM4.40839 10.1781L4.69489 9.86506L4.72636 9.83526L4.68164 9.88328L4.40839 10.1781ZM4.99463 9.56532L5.2182 9.34175H5.22151L5.30431 9.26392L5.26623 9.30201L4.99463 9.56532ZM6.14559 8.52201L6.25323 8.43093L6.32941 8.36634L6.53807 8.20571L6.55629 8.19246L6.47017 8.26036L6.14559 8.52201ZM15.0336 14.9773H7.5201V14.9707V7.50023V7.49526V7.49195L7.51017 7.49858L7.52342 7.48864L7.53004 7.48533L7.56151 7.4638L7.61781 7.42902L7.66915 7.3959L7.61947 7.42902L7.56979 7.46214L7.56316 7.46545L7.53501 7.48367L7.52507 7.49029H7.52342L7.52507 7.49195H7.61947L7.84303 7.5052L8.23552 7.52176L8.3001 7.53004L8.76711 7.59297L8.88634 7.60953L9.24239 7.68902L9.5173 7.75195L9.72761 7.81819L10.1267 7.94571L10.2211 7.98545L10.713 8.1908L10.7212 8.19577L11.2313 8.46074L11.2727 8.48227L11.748 8.78532L11.8026 8.8201L12.2713 9.17615L12.3028 9.20099L12.7681 9.61997L12.8029 9.6564L13.1987 10.077L13.3411 10.2575L13.5895 10.5689L13.8859 11.0144L13.9389 11.0939L14.2453 11.6486L14.4358 12.0775L14.5037 12.2316L14.7156 12.8377L14.8763 13.467L14.9822 14.1178L14.9922 14.2536L15.0319 14.7835L15.0352 14.9524V14.9773H15.0336ZM15.3466 4.69489L15.229 4.70648L15.1445 4.71642L15.3515 4.68992L15.3929 4.68495L15.5271 4.67667L15.4907 4.67999L15.3466 4.69489ZM17.2411 4.61374H17.0887L17.0506 4.61209H16.7873L16.6929 4.6154L16.2856 4.6303L16.1845 4.63362L16.3667 4.62037L16.5836 4.6154L16.8585 4.60878H17.1103L17.362 4.61209H17.3719L17.5292 4.62037L17.3405 4.6154H17.2411V4.61374Z" fill="#989898"/>
</g>
<defs>
<clipPath id="clip0_10426_2368">
<rect width="129.872" height="22.6381" fill="white"/>
</clipPath>
</defs>
</svg>
