<svg width="65" height="43" viewBox="0 0 65 43" fill="none" xmlns="http://www.w3.org/2000/svg">
<g clip-path="url(#clip0_10882_4279)">
<path d="M50.4187 33.9516V23.3816C48.6685 23.2867 47.2029 22.5367 46.0907 21.3124C44.944 20.0882 44.3492 18.4759 44.4009 16.8034C44.5992 13.5099 47.108 10.9062 50.4273 10.639V0C47.9874 0.0344861 45.6596 0.62075 43.4698 1.6812C39.4263 3.62966 36.3311 7.10414 34.831 11.3114C32.6756 17.3034 34.0464 23.9678 38.3917 28.6148C41.5127 31.9514 45.8234 33.8998 50.4359 33.9516H50.4187Z" fill="#989898"/>
<path d="M11.4925 33.9342L22.1229 33.9428L22.166 32.6064L22.1573 17.0273L22.1487 14.3978L22.1401 13.0097L22.1573 11.2078V8.50928V1.89657L22.1229 0.430908H11.4839L11.4925 11.0095V33.9342Z" fill="#989898"/>
<path d="M10.4407 0.430908H0V10.9923H10.4407V0.430908Z" fill="#989898"/>
<path d="M33.5291 0.430908H23.1747V10.9837H33.5291V0.430908Z" fill="#989898"/>
<path d="M62.3596 28.1923L59.5317 25.3127L55.6003 21.364C54.4967 22.5624 53.1087 23.2349 51.4706 23.3728V33.9601C55.9452 33.8394 59.7904 32.0116 62.9027 28.7958L62.3509 28.1923H62.3596Z" fill="#989898"/>
<path d="M55.6088 12.5874L60.9456 7.242L62.9285 5.28492L62.1698 4.54347C59.2557 1.81044 55.4968 0.155111 51.4791 0.00854492V10.6303C53.0655 10.7423 54.488 11.4234 55.6088 12.596V12.5874Z" fill="#989898"/>
<path d="M38.1933 37.788C37.5295 37.676 36.7794 37.7536 36.2707 38.2536C35.4862 39.0123 35.3741 40.271 35.9431 41.1849C36.6587 42.3402 38.5468 42.2971 39.3227 41.435C39.5297 41.2108 39.6849 40.9349 39.728 40.6504L38.5037 40.5728C38.314 40.9263 37.9261 41.0901 37.5381 40.9953C37.1587 40.9004 36.9346 40.5987 36.8915 40.1762C36.8656 39.8831 36.8656 39.5727 36.9604 39.2709C37.0639 38.9175 37.3657 38.745 37.7019 38.7364C38.0812 38.7364 38.4175 38.952 38.452 39.3399H37.0122V40.2624H39.7624C39.84 39.1071 39.3745 37.9777 38.2019 37.788H38.1933Z" fill="#989898"/>
<path d="M7.88001 37.9346C6.88854 37.5467 5.64704 37.7277 5.10388 38.6674C4.71591 39.3485 4.66419 40.159 4.97456 40.8832C5.48323 42.0988 6.89716 42.3316 8.04382 41.7798C8.4749 41.5298 8.78527 41.1591 8.92322 40.6504L7.66448 40.5728C7.49205 40.909 7.14718 41.0729 6.7937 41.0211C6.09536 40.909 5.97466 40.1676 6.09536 39.4175C6.16433 38.9864 6.49195 38.745 6.87992 38.745C7.25926 38.745 7.56964 38.9606 7.62137 39.3485H6.18157V40.2711H8.93184C8.98357 39.2882 8.72492 38.4433 7.87139 37.9432L7.88001 37.9346Z" fill="#989898"/>
<path d="M52.8758 38.0207C52.3068 37.5983 51.2464 37.65 50.7722 38.3225L50.5049 38.0552C49.9531 37.6328 49.2117 37.6586 48.6599 38.0811V39.0295C48.9272 38.8657 49.2203 38.8225 49.4703 38.9605C49.5738 39.0122 49.66 39.2364 49.66 39.3657V41.9694H50.936V39.4088C50.9532 39.0553 51.3326 38.8398 51.6516 38.8915C51.9016 38.9346 52.0827 39.0812 52.0827 39.3226V41.9694H53.3328V38.9864C53.3328 38.6243 53.1603 38.2449 52.8672 38.0294L52.8758 38.0207Z" fill="#989898"/>
<path d="M33.3394 38.0036V36.4431C31.4944 36.4862 30.365 38.1588 30.6754 39.8572C30.9168 41.1591 32.0203 42.0816 33.3394 42.0557V40.5039C32.8739 40.4694 32.5549 40.2625 32.348 39.9262C32.1238 39.5124 32.0893 39.0554 32.3221 38.633C32.5118 38.2881 32.8653 38.0122 33.3394 37.995V38.0036Z" fill="#989898"/>
<path d="M3.33656 36.4604H1.74158V41.961H3.34518V38.271L3.33656 36.4604Z" fill="#989898"/>
<path d="M28.0544 39.0381C28.0544 38.4605 27.6061 38.0122 27.0802 37.8656C26.468 37.7018 25.8559 37.7018 25.2697 37.9346C24.6748 38.1674 24.4592 38.6157 24.3903 39.2623H25.5455L25.6318 39.0123C25.9076 38.7019 26.5025 38.6502 26.7784 38.995V41.0642C26.7957 41.4004 26.8043 41.6763 26.9164 41.9608H28.2268C28.1406 41.6332 28.0717 41.4091 28.0717 41.1332L28.0544 39.0295V39.0381Z" fill="#989898"/>
<path d="M63.8855 41.3659L63.851 39.0553C63.851 38.5122 63.4803 38.0811 62.9889 37.9087C62.394 37.7104 61.7732 37.7017 61.1783 37.8914C60.5231 38.107 60.2558 38.5639 60.2041 39.2622H61.3766C61.4111 38.9346 61.6094 38.8139 61.8939 38.7708C62.1267 38.7363 62.4543 38.7536 62.5836 39.0036V41.1504C62.5923 41.4435 62.6181 41.6763 62.7043 41.9522H64.0148L63.8769 41.3573L63.8855 41.3659Z" fill="#989898"/>
<path d="M46.5735 39.0382C46.5735 38.6072 46.3148 38.1933 45.9182 38.0037C45.0561 37.5898 43.6766 37.6588 43.1679 38.4089C42.9955 38.6675 42.9438 38.952 42.9093 39.2624H44.0991C44.0991 38.9693 44.2974 38.8227 44.556 38.7882C44.806 38.7537 45.0992 38.7451 45.2716 38.9779C45.3751 39.1244 45.3061 39.3572 45.3147 39.5297L45.332 40.8143V41.4695C45.3406 41.6419 45.3837 41.8144 45.444 41.9782H46.7545C46.6855 41.7368 46.6166 41.5557 46.6079 41.366L46.5821 39.0469L46.5735 39.0382Z" fill="#989898"/>
<path d="M16.493 37.8138C15.9671 37.6845 15.4325 37.7793 15.0446 38.15V39.0984C15.2687 38.9432 15.4411 38.8743 15.6998 38.8829C15.9671 38.8829 16.2343 39.0639 16.2343 39.3657V41.9608H17.5017V39.0725C17.5017 38.4604 17.0792 37.9604 16.5016 37.8138H16.493Z" fill="#989898"/>
<path d="M22.0022 38.7797V37.7538C21.1659 37.7107 20.4503 38.1676 20.1313 38.9349C19.8985 39.5039 19.8727 40.1506 20.0623 40.7454C20.3296 41.5904 21.0797 42.1076 22.0022 42.0473V40.9696C21.2607 40.9093 21.0624 39.935 21.3383 39.2712C21.459 38.9867 21.6659 38.8056 22.0022 38.7797Z" fill="#989898"/>
<path d="M57.0832 40.3572C56.8762 39.702 57.109 38.8312 57.8074 38.7795V37.7535C57.0314 37.7363 56.3245 38.0984 55.9882 38.8053C55.5054 39.8227 55.7037 41.228 56.6952 41.797C57.0487 42.0039 57.4194 42.0557 57.8246 42.0557V40.9693C57.4108 40.9262 57.1866 40.6762 57.0918 40.3486L57.0832 40.3572Z" fill="#989898"/>
<path d="M10.5786 39.4692C10.6475 39.1071 10.8975 38.8484 11.2683 38.7795V37.7535C10.5096 37.7363 9.81124 38.107 9.49224 38.7967C9.09565 39.6502 9.14738 40.659 9.72502 41.4177C10.0957 41.8918 10.6906 42.0729 11.2769 42.0643V40.978C10.5786 40.8745 10.4406 40.1417 10.5699 39.4692H10.5786Z" fill="#989898"/>
<path d="M41.4955 37.8828H40.2195V41.9608H41.4955V37.8828Z" fill="#989898"/>
<path d="M53.9621 37.8743L53.9363 38.6157V41.9522L55.2123 41.9609V37.8743H53.9621Z" fill="#989898"/>
<path d="M14.9152 37.8743L13.665 37.8829V41.9609H14.9324L14.9238 38.633L14.9152 37.8743Z" fill="#989898"/>
<path d="M19.433 39.5124L19.4157 38.6674L19.433 37.8829L18.157 37.8743V41.9609H19.433L19.4243 40.659L19.433 39.5124Z" fill="#989898"/>
<path d="M47.2719 37.8828V41.9608H48.522L48.5306 39.4002L48.5478 38.9864L48.5392 37.8828H47.2719Z" fill="#989898"/>
<path d="M25.718 41.0558C25.5714 40.9869 25.4593 40.8575 25.4593 40.6937C25.4593 40.5817 25.5887 40.3834 25.7266 40.3575L26.6836 40.1247V39.3057L25.3731 39.504C25.0455 39.5557 24.7006 39.685 24.4851 39.935C24.0454 40.4437 24.0713 41.211 24.5282 41.6766C25.011 42.1766 26.0801 42.1766 26.6922 41.7628L26.675 40.9006C26.3042 41.0903 26.037 41.142 25.718 41.0558Z" fill="#989898"/>
<path d="M61.5663 40.3402L62.4974 40.1333V39.3057L61.2559 39.4867C60.9542 39.5298 60.6093 39.6333 60.3851 39.8402C59.8506 40.3316 59.842 41.211 60.3593 41.6938C60.8766 42.1766 61.8939 42.168 62.506 41.7628L62.4802 40.9093C62.1353 41.0558 61.8767 41.1421 61.5749 41.0645C61.4025 41.0213 61.2645 40.8662 61.2731 40.7024C61.2731 40.5472 61.4025 40.3747 61.5749 40.3402H61.5663Z" fill="#989898"/>
<path d="M44.3233 41.0731C44.125 41.0214 44.0043 40.9007 44.0043 40.7024C44.0043 40.5817 44.1336 40.392 44.2974 40.3575L45.2199 40.1333V39.3315L43.9439 39.5126C43.5473 39.5643 43.1421 39.754 42.9266 40.0902C42.6507 40.5041 42.6679 41.0903 42.9266 41.5042C43.3663 42.2025 44.5733 42.237 45.2371 41.7542L45.2113 40.9007C44.9095 41.0731 44.625 41.1507 44.3319 41.0817L44.3233 41.0731Z" fill="#989898"/>
<path d="M5.04355 36.4604H3.44856L3.43994 38.0209H5.04355V36.4604Z" fill="#989898"/>
<path d="M0 38.021H1.6036V36.4519L0 36.4605V38.021Z" fill="#989898"/>
<path d="M33.4688 38.0121C33.8136 38.0293 34.0895 38.1845 34.3223 38.4345L35.4172 37.331C34.8741 36.7706 34.2274 36.4257 33.4774 36.4516V38.0121H33.4688Z" fill="#989898"/>
<path d="M33.4687 40.5038V42.0643C34.2705 42.0385 34.9171 41.7281 35.4085 41.1591L34.2791 40.0986C34.0291 40.3659 33.8049 40.4694 33.4601 40.5038H33.4687Z" fill="#989898"/>
<path d="M22.7436 40.3142C22.6832 40.728 22.4504 40.935 22.0797 40.9694V42.0558L22.5453 41.9954C23.3988 41.8919 23.9851 41.1591 23.9851 40.3315H23.623L22.7436 40.3142Z" fill="#989898"/>
<path d="M11.3804 40.978V42.0643C12.4581 42.0212 13.2168 41.4177 13.2944 40.34L12.0356 40.3228C11.9925 40.6849 11.7511 40.9176 11.3804 40.978Z" fill="#989898"/>
<path d="M57.8849 40.978V41.4177L57.9021 42.0729C59.0057 41.9953 59.6954 41.4263 59.7816 40.34L58.5401 40.3228C58.4798 40.7021 58.247 40.9435 57.8849 40.978Z" fill="#989898"/>
<path d="M22.0797 38.7882C22.4504 38.8055 22.6832 39.0469 22.7522 39.4176L23.9592 39.4004C23.9678 38.7624 23.6402 38.2968 23.1488 37.9951C22.8298 37.8313 22.5022 37.7623 22.0883 37.7537V38.7969L22.0797 38.7882Z" fill="#989898"/>
<path d="M12.027 39.4089H13.2599C13.2427 38.3484 12.4322 37.7191 11.389 37.7535V38.7881C11.7684 38.8226 11.9753 39.0382 12.027 39.4089Z" fill="#989898"/>
<path d="M58.523 39.4003H59.7472C59.6955 38.3226 58.9799 37.7708 57.9108 37.7363L57.8763 38.2536L57.8936 38.7882C58.2643 38.8054 58.4885 39.0468 58.523 39.4003Z" fill="#989898"/>
<path d="M55.2122 36.4604H53.9535L53.9276 37.6157H55.2122V36.4604Z" fill="#989898"/>
<path d="M19.433 36.7881L19.4243 36.4691L18.157 36.4604V37.6157H19.4071L19.433 36.7881Z" fill="#989898"/>
<path d="M41.5989 38.1847V39.2623C41.9006 38.9865 42.2714 38.9261 42.6938 38.9951V37.7967C42.2714 37.7277 41.8575 37.8484 41.5989 38.1933V38.1847Z" fill="#989898"/>
<path d="M7.2507 37.6072L8.19907 36.4778L6.92308 36.4519L6.38855 37.6072H7.2507Z" fill="#989898"/>
<path d="M45.1682 37.607L46.0907 36.4776L44.832 36.469L44.3147 37.607H45.1682Z" fill="#989898"/>
</g>
<defs>
<clipPath id="clip0_10882_4279">
<rect width="64.0148" height="42.073" fill="white"/>
</clipPath>
</defs>
</svg>
