<svg width="69" height="71" viewBox="0 0 69 71" fill="none" xmlns="http://www.w3.org/2000/svg">
<g clip-path="url(#clip0_10586_2560)">
<path d="M63.4355 70.6268V70.193C62.592 70.1106 62.5242 70.0427 62.5242 69.1314V61.0674C61.7486 61.271 60.7427 61.4625 59.9671 61.557V61.9642C60.716 62.0587 60.7839 62.0854 60.7839 62.9167V69.1314C60.7839 70.016 60.716 70.0694 59.8992 70.193V70.6268H63.4355ZM56.964 69.5531C56.7458 69.7155 56.598 69.7712 56.392 69.7712C56.0793 69.7712 55.5751 69.4852 55.5751 68.7387C55.5751 68.2636 55.7933 68.0188 56.215 67.8007C56.501 67.6504 56.7192 67.5147 56.9616 67.3789V69.5555L56.964 69.5531ZM59.6835 70.0136L59.5477 69.5773C59.3975 69.6452 59.2496 69.6864 59.0848 69.6864C58.8545 69.6864 58.6509 69.524 58.6509 68.8841V66.6397C58.6509 65.8786 58.5273 65.2945 57.9432 64.8437C57.5772 64.5722 57.1676 64.4486 56.6101 64.4486C55.8345 64.5989 54.8698 65.0594 54.3536 65.4133C54.0554 65.6435 53.8785 65.8204 53.8785 66.0653C53.8785 66.4191 54.3681 66.7463 54.7365 66.7463C55.008 66.7463 55.2116 66.6373 55.3085 66.2834C55.4176 65.8617 55.5388 65.5369 55.6891 65.3454C55.8127 65.183 55.9605 65.1006 56.152 65.1006C56.6416 65.1006 56.9688 65.5756 56.9688 66.4337V66.8409C56.6562 67.1123 55.6091 67.4395 54.8068 67.7377C54.0991 68.0091 53.7743 68.3363 53.7743 69.0441C53.7743 69.8876 54.4675 70.7844 55.6091 70.7844C55.8805 70.7844 56.5204 70.336 57.0367 69.9966C57.09 70.159 57.187 70.336 57.376 70.5008C57.553 70.6632 57.839 70.7868 58.205 70.7868L59.6859 70.0112L59.6835 70.0136ZM50.5337 64.9964C51.0645 64.9964 51.3771 65.7041 51.3626 66.3973C51.3626 66.6276 51.2802 66.6688 51.0766 66.6688C50.5191 66.6833 50.015 66.6954 49.4454 66.71C49.5399 65.6362 50.0028 64.9964 50.5337 64.9964ZM52.749 68.9544C52.2739 69.3616 51.7552 69.5385 51.2269 69.5385C50.2476 69.5385 49.4454 68.8041 49.392 67.3499C50.7251 67.2965 52.3976 67.1729 52.6424 67.1317C52.9405 67.0905 53.0229 66.9136 53.0374 66.6421C53.0374 65.5272 52.0849 64.4534 50.8221 64.4534H50.8075C50.0731 64.4534 49.3266 64.8194 48.7279 65.4181C48.1559 65.9901 47.722 66.8457 47.722 67.8782C47.722 69.4416 48.7158 70.7892 50.5361 70.7892C51.1081 70.7892 52.1673 70.5178 52.9841 69.2792L52.7538 68.952L52.749 68.9544ZM44.9177 65.881V64.4389C44.0742 64.6982 43.2598 64.8461 42.443 64.9551V65.3357C43.0829 65.486 43.1774 65.5393 43.1774 66.2325V69.2113C43.1774 70.0403 43.0538 70.1081 42.3073 70.1906V70.6244H46.0327V70.1906C44.9856 70.1081 44.9177 70.0403 44.9177 69.2113V66.6688C45.148 66.138 45.4219 65.961 45.6788 65.961C45.8969 65.961 46.0739 66.0556 46.3041 66.247C46.3987 66.3294 46.5344 66.3682 46.7259 66.3004C47.0797 66.1646 47.3924 65.7841 47.3924 65.2945C47.3924 64.8315 47.0119 64.451 46.4811 64.451C45.9503 64.451 45.4485 65.0351 44.9444 65.8786H44.9177V65.881ZM41.3814 67.0226H38.0366L37.833 67.9873H41.1778L41.3814 67.0226ZM34.5414 69.5531C34.3233 69.7155 34.173 69.7712 33.9694 69.7712C33.6568 69.7712 33.1526 69.4852 33.1526 68.7387C33.1526 68.2636 33.3708 68.0188 33.7925 67.8007C34.0785 67.6504 34.2966 67.5147 34.5414 67.3789V69.5555V69.5531ZM37.2609 70.0136L37.1252 69.5773C36.9749 69.6452 36.8271 69.6864 36.6623 69.6864C36.432 69.6864 36.226 69.524 36.226 68.8841V66.6397C36.226 65.8786 36.1024 65.2945 35.5182 64.8437C35.1498 64.5722 34.7426 64.4486 34.1851 64.4486C33.4095 64.5989 32.4449 65.0594 31.9286 65.4133C31.6305 65.6435 31.4535 65.8204 31.4535 66.0653C31.4535 66.4191 31.9431 66.7463 32.3116 66.7463C32.583 66.7463 32.7866 66.6373 32.8836 66.2834C32.9926 65.8617 33.1138 65.5369 33.2641 65.3454C33.3853 65.183 33.5356 65.1006 33.727 65.1006C34.2167 65.1006 34.5439 65.5756 34.5439 66.4337V66.8409C34.2312 67.1123 33.1841 67.4395 32.3818 67.7377C31.6741 68.0091 31.3493 68.3363 31.3493 69.0441C31.3493 69.8876 32.0425 70.7844 33.1841 70.7844C33.4556 70.7844 34.0955 70.336 34.6117 69.9966C34.6675 70.159 34.762 70.336 34.9511 70.5008C35.128 70.6632 35.414 70.7868 35.78 70.7868L37.2634 70.0112L37.2609 70.0136ZM30.7749 70.6268V70.193C29.9314 70.1106 29.8635 70.0427 29.8635 69.1314V61.0674C29.0879 61.271 28.082 61.4625 27.3064 61.557V61.9642C28.0529 62.0587 28.1232 62.0854 28.1232 62.9167V69.1314C28.1232 70.016 28.0554 70.0694 27.2385 70.193V70.6268H30.7749ZM26.8338 70.6268V70.193C26.017 70.0984 25.9491 70.016 25.9491 69.078V64.4558C25.188 64.674 24.2912 64.8509 23.4599 64.9455V65.3405C24.1119 65.4496 24.2088 65.4908 24.2088 66.3876V69.0805C24.2088 70.0451 24.1264 70.1009 23.3387 70.1954V70.6293H26.8338V70.6268ZM24.9699 63.5954C25.5273 63.5954 25.9491 63.1615 25.9491 62.6429C25.9491 62.0999 25.5273 61.6903 24.9844 61.6903C24.4415 61.6903 24.0197 62.0975 24.0197 62.6429C24.0197 63.1882 24.4682 63.5954 24.9723 63.5954M23.2975 61.7873H20.115V62.2769C21.23 62.4126 21.23 62.6041 20.9173 63.5421C20.5513 64.7249 19.9647 66.3028 19.2182 68.2879H19.177C18.6874 67.0105 17.6137 64.2498 17.2186 63.1615C17.015 62.5774 17.015 62.4271 18.0063 62.2769V61.7873H13.9537V62.2769C14.7972 62.3593 15.0153 62.5483 15.4347 63.5954C15.9921 65.0085 17.2695 68.2879 18.1954 70.7747H18.874C19.9357 67.9728 21.1718 64.8873 21.6202 63.8257C22.1631 62.5338 22.4079 62.3714 23.2926 62.2769V61.7873H23.2975ZM11.336 67.013C11.6754 67.013 11.8765 67.4662 11.8693 67.9122C11.8693 68.06 11.8159 68.0867 11.6851 68.0867C11.3263 68.0964 11.004 68.1037 10.638 68.1134C10.6986 67.425 10.9967 67.013 11.336 67.013ZM12.7564 69.5531C12.451 69.8149 12.1189 69.9288 11.7796 69.9288C11.1518 69.9288 10.6355 69.4586 10.6016 68.523C11.4572 68.489 12.531 68.4091 12.6861 68.3824C12.8776 68.3557 12.9309 68.2418 12.9382 68.0673C12.9382 67.3523 12.3274 66.6615 11.5154 66.6615H11.5057C11.0355 66.6615 10.5556 66.8966 10.1702 67.282C9.7848 67.6674 9.52545 68.1982 9.52545 68.8623C9.52545 69.8658 10.1629 70.7286 11.3312 70.7286C11.6972 70.7286 12.3783 70.5541 12.9018 69.7591L12.7539 69.5507L12.7564 69.5531ZM7.44341 69.9288C7.25193 70.05 7.12104 70.0694 6.9635 70.0694C6.56115 70.0694 5.93338 69.6597 5.93338 68.586C5.93338 67.2602 6.60478 67.0323 6.80595 67.0323C7.06772 67.0323 7.30283 67.1802 7.44341 67.4856V69.9288ZM9.16188 70.1203L8.9704 70.1033C8.60441 70.0597 8.56078 70.0257 8.56078 69.5264V64.4922C8.1148 64.6231 7.41675 64.7443 6.85927 64.8073V65.0788C7.39251 65.1491 7.44341 65.183 7.44341 65.6556V66.7124C7.25193 66.6857 7.15498 66.6688 7.08469 66.6688C5.72251 66.6688 4.69482 67.6383 4.69482 68.8235C4.69482 70.1227 5.72494 70.7335 6.47389 70.7335C6.57084 70.7335 6.70173 70.7068 6.91017 70.5759L7.44341 70.2366V70.7432C8.13177 70.542 8.95343 70.4378 9.16188 70.4038V70.1251V70.1203Z" fill="#989898"/>
<path d="M68.0966 56.792L67.9608 56.3169C67.716 56.426 67.4979 56.4793 67.2676 56.4793C66.9961 56.4793 66.5065 56.3557 66.5065 55.2965V51.9371H67.7572C67.9754 51.828 67.9875 51.433 67.8396 51.2851H66.5065V49.3267L66.3151 49.2322L64.7638 50.2938V51.2875H64.2209L63.8404 51.7771L63.9082 51.9395H64.7638V55.7473C64.7638 56.9713 65.3892 57.461 66.4363 57.461C66.5308 57.461 66.7489 57.4076 66.9792 57.3107L68.0941 56.7944L68.0966 56.792ZM63.501 57.2961V56.8623C62.7933 56.7532 62.7133 56.7265 62.7133 55.8685V53.2993C62.7133 51.9395 62.0322 51.1227 60.9318 51.1227C60.5367 51.1227 60.2798 51.2439 59.8702 51.5033C59.5721 51.6947 59.2982 51.9105 59.0267 52.0874V51.0936C58.2244 51.3239 57.3276 51.5154 56.5666 51.6099V51.9904C57.2186 52.1262 57.2864 52.1674 57.2864 52.9842V55.8128C57.2864 56.7241 57.2331 56.7387 56.3896 56.8598V57.2937H59.6666V56.8598C59.0946 56.7774 59.0267 56.7241 59.0267 55.8806V52.5891C59.3806 52.3177 59.6787 52.1674 60.0326 52.1674C60.5222 52.1674 60.9706 52.4679 60.9706 53.4447V55.757C60.9706 56.7217 60.9027 56.7774 60.3307 56.8574V57.2913H63.4986L63.501 57.2961ZM53.3841 51.6657C53.9149 51.6657 54.2276 52.3734 54.2131 53.0666C54.2131 53.2969 54.1306 53.3381 53.927 53.3381C53.3696 53.3526 52.8654 53.3647 52.2958 53.3793C52.3904 52.3055 52.8533 51.6657 53.3841 51.6657ZM55.5995 55.6237C55.1244 56.0309 54.6057 56.2078 54.0773 56.2078C53.0981 56.2078 52.2958 55.4734 52.2425 54.0192C53.5756 53.9658 55.248 53.8422 55.4928 53.801C55.7909 53.7598 55.8734 53.5829 55.8879 53.3114C55.8879 52.1965 54.9353 51.1227 53.6725 51.1227H53.658C52.9236 51.1227 52.1771 51.4887 51.5784 52.0874C51.0064 52.6594 50.5725 53.515 50.5725 54.5475C50.5725 56.1109 51.5663 57.4585 53.3865 57.4585C53.9585 57.4585 55.0177 57.1871 55.8346 55.9485L55.6043 55.6213L55.5995 55.6237ZM49.889 57.2961V56.8623C49.1812 56.7532 49.1279 56.712 49.1279 55.9364V53.3114C49.1279 51.925 48.4759 51.1227 47.2931 51.1227C46.898 51.1227 46.532 51.2997 46.2315 51.5033C45.9043 51.7335 45.5916 51.9395 45.2523 52.1843C45.0075 51.5735 44.4645 51.1227 43.701 51.1227C43.306 51.1227 42.94 51.2851 42.5182 51.5566C42.2201 51.7335 41.9608 51.9226 41.6626 52.1407V51.0936C40.8337 51.3239 39.9078 51.5154 39.2703 51.6099V52.005C39.9102 52.0995 39.9636 52.2231 39.9636 53.0109V55.8661C39.9636 56.7241 39.8957 56.7629 39.108 56.8598V57.2937H42.3025V56.8598C41.7862 56.7774 41.6917 56.7096 41.6917 55.934V52.6158C42.0723 52.3152 42.4116 52.1795 42.7388 52.1795C43.243 52.1795 43.6768 52.48 43.6768 53.4568V55.9315C43.6768 56.7338 43.6235 56.775 42.9836 56.8574V57.2913H46.1248V56.8574C45.514 56.775 45.4171 56.7071 45.4171 55.9315V53.1854C45.4171 52.9818 45.4025 52.7903 45.3904 52.6424C45.8267 52.2765 46.166 52.1795 46.4375 52.1795C46.8738 52.1795 47.3901 52.4098 47.3901 53.5247V55.8637C47.3901 56.7217 47.2955 56.775 46.6969 56.8574V57.2913H49.8914L49.889 57.2961ZM36.0322 56.2224C35.814 56.3848 35.6637 56.4405 35.4601 56.4405C35.1475 56.4405 34.6433 56.1545 34.6433 55.408C34.6433 54.9329 34.8615 54.6881 35.2832 54.47C35.5692 54.3197 35.7874 54.184 36.0322 54.0482V56.2248V56.2224ZM38.7517 56.6829L38.6159 56.2466C38.4656 56.3145 38.3178 56.3557 38.153 56.3557C37.9227 56.3557 37.7191 56.1933 37.7191 55.5534V53.309C37.7191 52.5479 37.5979 51.9638 37.0114 51.5154C36.6454 51.2439 36.2358 51.1203 35.6783 51.1203C34.9027 51.2706 33.938 51.7311 33.4217 52.085C33.1236 52.3152 32.9467 52.4922 32.9467 52.737C32.9467 53.0908 33.4363 53.4156 33.8047 53.4156C34.0762 53.4156 34.2798 53.3066 34.3767 52.9527C34.4858 52.5309 34.607 52.2037 34.7572 52.0147C34.8808 51.8523 35.0287 51.7699 35.2202 51.7699C35.7098 51.7699 36.037 52.2449 36.037 53.103V53.5102C35.7243 53.7816 34.6772 54.1088 33.875 54.407C33.1672 54.6784 32.8424 55.0056 32.8424 55.7134C32.8424 56.5569 33.5356 57.4537 34.6773 57.4537C34.9487 57.4537 35.5886 57.0053 36.1049 56.6659C36.1582 56.8283 36.2551 57.0053 36.4442 57.1701C36.6211 57.3325 36.9071 57.4561 37.2731 57.4561L38.7565 56.6805L38.7517 56.6829ZM32.2947 56.792L32.1589 56.3169C31.9141 56.426 31.696 56.4793 31.4657 56.4793C31.1943 56.4793 30.7047 56.3557 30.7047 55.2965V51.9371H31.9553C32.1735 51.828 32.1856 51.433 32.0377 51.2851H30.7047V49.3267L30.5132 49.2322L28.9619 50.2938V51.2875H28.419L28.0385 51.7771L28.1063 51.9395H28.9619V55.7473C28.9619 56.9713 29.5873 57.461 30.6344 57.461C30.7289 57.461 30.947 57.4076 31.1773 57.3107L32.2922 56.7944L32.2947 56.792ZM27.6991 57.2961V56.8623C26.9914 56.7532 26.9114 56.7265 26.9114 55.8685V53.2993C26.9114 51.9395 26.2303 51.1227 25.1299 51.1227C24.7348 51.1227 24.4779 51.2439 24.0683 51.5033C23.7702 51.6947 23.4963 51.9105 23.2248 52.0874V51.0936C22.4225 51.3239 21.5257 51.5154 20.7647 51.6099V51.9904C21.4167 52.1262 21.4845 52.1674 21.4845 52.9842V55.8128C21.4845 56.7241 21.4312 56.7387 20.5877 56.8598V57.2937H23.8647V56.8598C23.2927 56.7774 23.2248 56.7241 23.2248 55.8806V52.5891C23.5787 52.3177 23.8768 52.1674 24.2307 52.1674C24.7203 52.1674 25.1687 52.4679 25.1687 53.4447V55.757C25.1687 56.7217 25.1008 56.7774 24.5288 56.8574V57.2913H27.6967L27.6991 57.2961ZM20.0569 56.5351L19.7588 56.5084C19.2546 56.4551 19.1868 56.3169 19.1868 55.6116V51.193C18.8741 51.2463 18.4257 51.3021 17.9506 51.3433C17.461 51.3845 16.986 51.4257 16.5909 51.4378V51.8329L17.0126 51.9274C17.3786 52.0098 17.4489 52.0898 17.4489 52.7297V56.0333C17.1484 56.3315 16.8502 56.4139 16.4842 56.4139C16.0213 56.4139 15.5608 56.1012 15.5608 55.2165V53.2435C15.5608 52.4558 15.5608 51.7626 15.602 51.1906C15.236 51.2439 14.7464 51.2997 14.2956 51.3409C13.8326 51.3821 13.4109 51.4233 13.0715 51.4354V51.8305L13.3842 51.925C13.7381 52.0195 13.8181 52.0874 13.8181 52.7127V55.5268C13.8181 56.7241 14.4701 57.4585 15.5996 57.4585C16.0213 57.4585 16.3873 57.3083 16.7702 57.0513C17.0684 56.8744 17.2186 56.7387 17.4489 56.5472V57.364L17.5725 57.4585C17.9797 57.364 18.4015 57.267 18.8377 57.1871C19.2861 57.0925 19.6667 57.0247 20.0618 56.9689V56.5326L20.0569 56.5351ZM9.35585 52.0195C10.0903 52.1431 10.1848 52.1698 10.1848 53.149V55.7061C10.1848 56.5908 10.1702 57.461 10.129 58.2632C10.1024 58.7262 10.0466 59.0655 9.96665 59.2279C9.87212 59.3782 9.54491 59.4727 8.94623 59.4994C8.75475 59.4994 8.61902 59.6496 8.61902 59.8654C8.61902 60.3016 8.97289 60.6143 9.16195 60.6143C9.32434 60.6143 9.43341 60.561 9.63701 60.4107C9.96423 60.1805 10.9968 59.0364 11.5397 57.7445C11.799 57.1192 11.9202 56.5884 11.9202 55.5413V51.1227C11.0501 51.3263 10.1654 51.5178 9.35101 51.6123V52.0195H9.35585ZM10.9313 50.2647C11.4743 50.2647 11.9105 49.8308 11.9105 49.3121C11.9105 48.7692 11.4767 48.3596 10.9459 48.3596C10.4151 48.3596 9.98119 48.7668 9.98119 49.3121C9.98119 49.8575 10.4296 50.2647 10.9337 50.2647M5.05846 53.6774H2.93764C3.29152 52.7127 3.63085 51.719 4.01138 50.7276H4.05259L5.05846 53.6774ZM9.09651 57.2961V56.8211C8.22636 56.712 8.06397 56.5351 7.60103 55.3401C6.71634 53.0012 5.87528 50.6355 5.00272 48.2554L4.30951 48.4323L1.52214 55.4201C1.07374 56.5617 0.896805 56.712 0 56.8211V57.2961H3.04671V56.8211C2.05296 56.6999 2.01417 56.5084 2.21777 55.8564C2.38017 55.3135 2.55711 54.8239 2.70738 54.4021H5.31781C5.52141 54.945 5.72501 55.5316 5.86074 55.9388C6.07888 56.5375 6.01101 56.6999 5.20874 56.8235V57.2986H9.09651V57.2961Z" fill="#989898"/>
<path d="M54.676 18.1638C54.4167 18.4231 53.9319 18.6728 53.9319 19.0824C53.9852 19.1745 54.0531 19.189 54.0531 19.3272C54.0531 19.6108 53.8519 19.7538 53.658 19.9065C53.5368 20.018 53.5102 20.0616 53.4981 20.1052C53.229 20.9681 53.2314 21.7461 52.4704 22.3787C52.3031 22.5193 52.0923 22.2648 52.2595 22.1267C52.9309 21.5692 52.943 20.7839 53.1805 20.0131C53.2145 19.8992 53.2775 19.8119 53.3454 19.7441L53.4496 19.652C53.5417 19.5793 53.7259 19.4726 53.7259 19.3417C53.6435 19.2472 53.5999 19.1745 53.5999 19.0824C53.5999 18.4934 54.087 18.2825 54.4385 17.9311C54.5936 17.7759 54.8263 18.0086 54.6712 18.1638M51.6099 15.8805C51.4402 16.1253 51.3045 16.3241 51.3045 16.6101L51.3506 16.7458C51.3603 16.7773 51.3651 16.8137 51.3651 16.8549C51.3651 17.0755 51.0355 17.0755 51.0355 16.8549L50.9894 16.7192C50.9797 16.6901 50.9749 16.6513 50.9749 16.6101C50.9749 16.3411 51.0694 16.1035 51.2124 15.8805L51.4596 15.517C51.5663 15.3473 51.6463 15.1704 51.6463 14.9643C51.6463 14.7583 51.576 14.579 51.4766 14.4044L51.2536 14.0409C51.1227 13.8179 51.0379 13.5804 51.0379 13.3186C51.0379 12.8823 51.0379 12.6327 51.1009 12.1988C51.1324 11.9807 51.4572 12.0291 51.4257 12.2448C51.3675 12.6642 51.3675 12.9017 51.3675 13.3186C51.3675 13.607 51.4936 13.8106 51.6463 14.053L51.7602 14.2396C51.8911 14.4626 51.9759 14.7001 51.9759 14.9643C51.9759 15.2285 51.879 15.4709 51.7384 15.6939L51.6123 15.8805H51.6099ZM50.6162 23.6537C49.8648 20.6554 48.9122 21.9061 48.139 20.5488C47.9573 20.2288 47.853 19.8677 47.6543 19.5599C47.5355 19.3757 47.8094 19.1963 47.9306 19.3805C48.3717 20.0592 48.3451 20.7984 49.3 21.0796C50.2986 21.3729 50.6986 22.6211 50.9361 23.5737C50.9894 23.787 50.6695 23.8669 50.6162 23.6537ZM50.3301 24.0536L50.2138 23.9227C50.1678 23.8718 50.1193 23.8233 50.032 23.753C50.1847 23.8354 50.3277 23.9275 50.4513 24.0439L50.3301 24.0536ZM51.9759 29.129C52.211 28.763 52.1238 28.3316 52.4922 27.9995C53.0375 27.5026 53.7307 27.0373 54.3415 26.6422C54.5257 26.5234 54.7051 26.7997 54.5209 26.9185C53.9101 27.316 53.2363 27.7644 52.7152 28.2419C52.4679 28.4649 52.4558 28.9933 52.2571 29.3059C51.8741 29.9143 51.2391 29.9458 50.6065 29.9919C50.3883 30.0064 50.3641 29.6792 50.5822 29.6647C51.2415 29.6162 51.6948 29.5823 51.9783 29.1314M49.2758 28.8915C49.2055 28.6152 48.9437 28.4188 48.8274 28.1571C48.6093 27.6529 49.0916 27.7353 48.4832 27.2675C48.3596 27.1706 48.2045 27.03 48.2045 26.7828C48.2045 26.5986 48.2917 26.4531 48.4178 26.3271L48.6093 26.1502C48.7062 26.029 48.7256 25.9853 48.7256 25.9272C48.7256 25.7914 48.665 25.7139 48.539 25.6145L48.3111 25.4473C48.2021 25.3624 48.1124 25.2727 48.0251 25.1637V24.4365C48.0251 24.2184 48.3523 24.2184 48.3523 24.4365V25.0449C48.3984 25.0958 48.4517 25.1419 48.5099 25.1855L48.7401 25.3552C48.8977 25.4788 49.0528 25.6412 49.0528 25.9272C49.0528 26.1114 48.9656 26.2568 48.8419 26.3828C48.6505 26.5574 48.5365 26.6495 48.5365 26.7803C48.5365 27.0833 49.2031 27.093 49.1231 27.7838C49.0989 27.9801 49.1134 28.0286 49.2322 28.1983L49.3582 28.3607C49.4503 28.4746 49.5473 28.6103 49.5982 28.8115C49.6515 29.0248 49.3315 29.1048 49.2782 28.8915M50.2017 33.9596C50.3883 34.0978 50.5628 34.1196 50.781 34.0832L51.004 34.0372C51.3263 33.9645 51.719 33.8869 52.2037 34.1972C52.388 34.3159 52.211 34.5922 52.0244 34.4735C51.656 34.2359 51.3772 34.2893 51.0767 34.3571L50.8367 34.408C49.8527 34.5777 50.0126 33.6445 48.8468 34.2359C48.3596 34.4832 47.9185 34.7643 47.3392 34.6819C47.121 34.6504 47.1671 34.3256 47.3852 34.3547C48.4032 34.4977 49.1231 33.1501 50.2017 33.9596ZM46.0279 28.7533L45.8146 29.1775L45.9091 29.4053C45.9504 29.5095 45.9819 29.6259 45.9819 29.7762C45.9819 30.0016 45.8752 30.1761 45.7201 30.3288L45.5916 30.4476C45.4632 30.5615 45.3129 30.6851 45.3129 30.8717C45.3129 30.9299 45.3493 30.9808 45.3783 31.0268L45.4535 31.1601C45.4777 31.2159 45.4947 31.2813 45.4947 31.3589C45.4947 31.5746 45.4123 31.7588 45.2911 31.9309L45.1869 32.0691C45.0463 32.2484 44.9469 32.3817 44.9469 32.5781C44.9469 33.0386 44.9299 33.3076 45.0051 33.7706C45.039 33.9863 44.7142 34.0396 44.6803 33.8239C44.6027 33.3416 44.6173 33.0604 44.6173 32.5805C44.6173 32.3648 44.6997 32.1781 44.8209 32.0085L45.022 31.7419C45.102 31.6279 45.165 31.5043 45.165 31.3613L45.1287 31.2547L45.0608 31.1456C45.0002 31.0147 44.9808 30.9517 44.9808 30.8741C44.9808 30.6511 45.0899 30.4718 45.2426 30.3215L45.4898 30.0961C45.5795 30.0088 45.6522 29.9095 45.6522 29.7786C45.6522 29.5653 45.5238 29.3568 45.4559 29.1557L45.7298 28.6079C45.8292 28.4116 46.1224 28.5594 46.0255 28.7533M46.2218 38.2716C46.4157 38.3734 46.2606 38.6642 46.0667 38.5624C45.1408 38.0704 44.2367 38.1698 43.2478 37.9686C42.7921 37.8741 42.4286 37.4232 42.002 37.4232L41.8687 37.4693C41.8372 37.479 41.8008 37.4863 41.7596 37.4863C41.5415 37.4863 41.5415 37.1566 41.7596 37.1566L41.8953 37.113C41.9269 37.1033 41.9632 37.096 42.0044 37.096C42.6079 37.096 42.8261 37.5469 43.3157 37.6487C44.387 37.8668 45.199 37.7311 46.2242 38.274M41.4688 35.1764C41.3451 35.3654 41.253 35.5133 41.253 35.7266V36.6088C41.253 36.8246 41.1997 36.9651 41.1197 37.159C41.0349 37.3626 40.7319 37.2342 40.8168 37.033C40.8773 36.8852 40.9258 36.7712 40.9258 36.6088V35.7266C40.9258 35.5157 40.9985 35.3218 41.1052 35.1449L41.2845 34.8637C41.3597 34.7377 41.4154 34.5995 41.4154 34.4492C41.4154 34.3935 41.4082 34.3426 41.3985 34.2941L41.3597 34.1438C41.3233 34.0154 41.2918 33.8845 41.2918 33.7488C41.2918 33.2325 41.6966 33.0992 41.8517 32.7138C41.9341 32.5102 42.2395 32.6314 42.1571 32.835C42.0335 33.1428 41.6215 33.4361 41.6215 33.7488C41.6215 33.9887 41.7426 34.2044 41.7426 34.4492C41.7426 34.6601 41.6724 34.854 41.5657 35.031L41.4712 35.1764H41.4688ZM26.8339 37.2948C26.0873 36.2647 25.9371 35.031 25.222 33.996C25.0984 33.8166 25.3675 33.6276 25.4911 33.8094C26.2013 34.8371 26.3661 36.0877 27.1005 37.1009C27.229 37.2778 26.9623 37.4717 26.8339 37.2924M25.4814 38.5164C24.7809 38.6788 24.1338 38.8872 23.4042 38.8872C22.6746 38.8872 22.2602 38.8266 21.5185 38.703C21.3028 38.6666 21.3561 38.3419 21.5718 38.3782C22.2917 38.497 22.6819 38.5576 23.4018 38.5576C24.1216 38.5576 24.73 38.3516 25.4063 38.1964C25.6196 38.148 25.6947 38.4679 25.479 38.5164M22.9073 34.7352C22.6286 33.4361 22.0154 32.3212 21.5161 31.1093C21.4337 30.9057 21.7366 30.782 21.819 30.9832C22.328 32.2169 22.9461 33.3464 23.2297 34.6674C23.2757 34.8807 22.9534 34.951 22.9073 34.7377M20.9247 35.3509C19.1892 35.2127 18.3651 34.2287 16.906 33.5064C16.7097 33.4094 16.8551 33.1137 17.0514 33.2107C18.4306 33.8942 19.3298 34.8928 20.9513 35.0213C21.1695 35.0382 21.1428 35.3679 20.9247 35.3485M19.1504 30.9711C19.1674 31.1892 18.8402 31.2159 18.8232 30.9978C18.7917 30.6075 18.7626 30.387 18.7941 29.9967L19.068 26.647C19.085 26.4289 19.4146 26.4556 19.3952 26.6737L19.1214 30.0234C19.0923 30.3942 19.1214 30.6003 19.1529 30.9711M17.7107 31.4437C16.9957 31.1747 16.7194 30.7457 16.1934 30.2512C15.5632 29.655 14.3828 28.8672 13.9708 28.1425C13.8617 27.951 14.1477 27.7886 14.2568 27.9801C14.6276 28.6346 15.8371 29.4611 16.4188 30.0137C16.8963 30.4645 17.1823 30.8935 17.827 31.1359C18.0331 31.2135 17.9167 31.5213 17.7107 31.4437ZM16.3437 22.5048C16.2782 22.7132 15.9656 22.6187 16.0286 22.4078C16.54 20.7475 17.9046 20.2506 19.2013 19.395C19.3855 19.2739 19.5649 19.5477 19.3831 19.6689C18.1736 20.4664 16.8163 20.9681 16.3437 22.5048ZM15.7038 26.0435C14.5816 24.9213 14.378 23.8306 13.6072 22.5387C13.4957 22.3496 13.7769 22.1824 13.8908 22.369C14.6107 23.5785 14.9039 24.7759 15.9365 25.8108C16.0916 25.966 15.8589 26.1986 15.7038 26.0435ZM15.4954 20.4664C14.9476 19.509 14.8458 18.7794 14.681 17.7178V16.5471C14.681 16.3289 15.0106 16.3289 15.0106 16.5471V17.6911C15.1681 18.7018 15.2602 19.395 15.7814 20.3015C15.8904 20.4906 15.6044 20.6554 15.4954 20.4664ZM17.7422 23.8548C17.827 23.7506 17.9846 23.8766 17.9022 23.9833C17.4635 24.5311 17.2599 25.0788 17.0151 25.7236C16.986 25.7987 16.9109 25.8036 16.8721 25.8157L16.8284 25.6436C17.0805 24.9795 17.2914 24.422 17.7446 23.8548M17.9967 12.6423C18.0476 12.4291 18.3676 12.5066 18.3167 12.7199C17.9531 14.2178 17.6501 15.0492 17.5289 16.5931C17.512 16.8113 17.1847 16.787 17.2017 16.5665C17.3253 15.0031 17.6307 14.1596 17.9991 12.6423M18.4015 16.8137C19.4122 16.5713 19.9842 16.2999 20.9344 15.9072C21.138 15.8248 21.2616 16.1278 21.0604 16.2102C20.0933 16.6101 19.5067 16.8864 18.4766 17.1312C18.2633 17.1821 18.1882 16.8622 18.4015 16.8113M19.3346 14.4747C20.1636 13.0302 20.6047 12.3733 22.0735 11.5322C22.2626 11.4232 22.4274 11.7092 22.2384 11.8183C20.8422 12.6205 20.4375 13.2192 19.6207 14.6396C19.5116 14.8286 19.2256 14.6662 19.3346 14.4772M50.2623 18.1856L49.9545 17.8777C49.6782 17.6087 49.4309 17.4293 49.0455 17.3178H48.3596C48.2481 17.2621 48.1487 17.1991 48.0591 17.1118L47.9621 17.01C47.4167 16.3653 46.9005 16.644 46.3139 16.3556C46.137 16.2683 46.0303 16.1496 45.9431 16.0357L45.8219 15.8708C45.7831 15.8175 45.7419 15.7666 45.691 15.7181C45.5359 15.563 45.7686 15.3303 45.9237 15.4855C45.9891 15.5509 46.04 15.6139 46.0861 15.6745L46.2073 15.8393C46.28 15.9339 46.3479 16.0066 46.4618 16.0647C47.1114 16.3847 47.5428 16.0042 48.1318 16.7046L48.2869 16.8767C48.3305 16.9203 48.3814 16.9591 48.4396 16.9906H49.0916C49.5618 17.1215 49.8478 17.3154 50.1847 17.6426L50.4974 17.9529C50.6525 18.108 50.4198 18.3407 50.2647 18.1856M47.3416 13.5828C46.9611 13.3646 46.7187 13.1223 46.4981 12.8678L46.1709 12.4872C46.057 12.3588 45.9358 12.2303 45.7904 12.0994C45.4026 11.7552 44.7506 11.7867 44.1979 11.3432C43.9265 11.125 43.7229 10.8851 43.3617 10.7954C43.1484 10.7421 43.2284 10.4246 43.4417 10.4755C44.0598 10.6306 44.3967 11.2147 45.0075 11.4086C45.3783 11.5274 45.6959 11.5735 46.0085 11.8522C46.1661 11.9952 46.2994 12.1333 46.4157 12.2667L46.7429 12.6472C46.9514 12.8871 47.1671 13.1004 47.504 13.2919C47.6931 13.401 47.5307 13.687 47.3392 13.5779M55.4298 16.8137V16.581C54.5718 16.8816 54.6324 17.0537 54.0313 17.6039C53.9149 17.7081 53.8035 17.7953 53.692 17.8729L53.3575 18.108C53.1345 18.2704 52.9188 18.457 52.737 18.7649C52.4995 19.1551 52.4073 19.6932 52.1068 19.9864C52.1456 19.7271 52.1141 19.4726 52.1213 19.2133C52.1456 18.3383 53.2557 18.6655 53.2557 17.8317C53.2557 17.3881 52.8242 17.1409 52.4582 17.1409C52.068 17.1409 51.9444 17.4584 51.8693 17.6911L51.7893 17.9456C51.8959 17.01 52.9018 16.5762 52.9018 15.4467C52.9018 14.9546 52.9721 14.6759 52.9721 14.1839C52.9721 13.4325 52.6037 12.9235 52.2619 12.4557C51.7723 11.7843 51.5954 11.5226 51.5566 10.6257C50.7131 11.176 50.9652 11.319 50.4828 11.9879L50.3205 12.2109C50.2114 12.3709 50.1193 12.5551 50.1193 12.8144C50.1193 13.1853 50.2599 13.5319 50.2599 13.9003C50.2599 14.213 50.1775 14.4069 50.0248 14.6735C49.6709 14.419 48.9631 13.9754 48.9631 13.5004C48.9631 13.3598 49.2128 13.2338 49.3097 13.1756L49.4721 13.0762C49.6515 12.9574 49.8163 12.8023 49.8163 12.5672C49.8163 12.1237 49.3849 11.8764 49.0213 11.8764C48.5826 11.8764 48.2942 12.2836 48.2942 12.6714C48.2942 12.938 48.3087 13.2119 48.2796 13.4786C48.0057 13.4155 47.8942 13.0641 47.8215 12.829L47.7028 12.4145C47.4919 11.6971 46.9587 11.4062 46.5321 10.8609C46.1443 10.6354 45.7443 10.5603 45.485 10.1628C44.8063 9.75561 44.3676 10.0537 43.7011 9.98102C43.3399 9.94951 43.1339 9.69986 42.7025 9.69986H42.5376V10.1895C42.6467 10.3737 42.6928 10.5215 42.7364 10.73C43.0151 12.0849 43.6017 12.034 44.2561 12.909C44.8451 13.687 45.674 13.6531 46.5345 13.813C46.629 13.83 46.9756 13.8227 47.0314 13.8615C47.0314 13.8833 47.0241 13.8979 46.9465 13.9682L46.7672 14.0821C46.6387 14.1718 46.5418 14.2905 46.5418 14.4578C46.5418 14.7486 46.6969 15.1849 47.1332 15.1849C47.5937 15.1849 47.7658 14.7704 47.7997 14.3923C48.1197 14.3923 48.2748 14.4141 48.5026 14.5523C48.8056 14.7292 48.8807 14.991 49.2661 15.0758C49.3509 15.0952 50.2405 15.9339 50.2599 16.9858C50.0296 16.741 49.8769 16.438 49.7145 16.1472C49.5788 16.0114 48.9607 15.7157 48.7838 15.6672C48.7208 15.6503 48.6698 15.6285 48.6189 15.6066L48.4663 15.5315C48.3596 15.4782 48.2384 15.42 48.0736 15.3837C47.3465 15.2237 46.9102 15.1631 46.1564 15.1001C45.8558 15.0783 45.7225 14.7486 45.3008 14.7486C45.2038 14.7486 45.1287 14.8019 45.0754 14.8892L44.9275 15.054V15.2964C45.3977 16.4913 45.9067 17.2403 47.0556 17.8705C47.2035 17.9335 48.4614 18.268 48.7959 18.2898C49.3946 18.5322 49.8575 18.8206 50.5071 19.0678C51.0767 19.2811 51.2439 19.875 51.2439 20.5997V21.3704C51.2439 21.4528 51.2536 21.5934 51.2439 21.7316L50.764 21.036C50.1023 20.0834 49.3994 19.1842 48.2263 18.8279C47.8918 18.7333 47.7755 18.331 47.3028 18.331C47.218 18.331 47.1526 18.3577 47.0411 18.4013L46.8932 18.4158V18.9515C47.4507 20.1585 47.1259 20.9875 48.0639 22.1533L48.3014 22.449C48.379 22.5508 48.4541 22.6599 48.5317 22.7859C48.808 23.2513 49.3437 23.421 49.8284 23.644C49.5012 23.5519 49.1376 23.7336 49.1546 24.1457L49.1716 24.2984C49.237 24.5626 49.4261 24.931 49.746 24.931C49.8163 24.931 49.8745 24.8971 49.9011 24.8825C50.1459 24.7274 50.2865 24.6838 50.5895 24.6838C50.5968 24.8025 50.6113 24.914 50.6452 25.0716C50.541 25.5369 50.4029 25.932 50.4029 26.424L50.398 26.5283L50.3714 26.3344C50.3277 26.0581 50.2429 25.7817 49.9763 25.5321C49.8648 25.4279 49.7533 25.3455 49.6588 25.2509C49.2637 24.8655 49.1255 24.4826 48.7692 24.0802C48.4541 23.7264 48.0639 23.4719 48.0639 22.8441V22.2891C47.9524 22.4611 47.8288 22.6866 47.6834 22.8562L47.5864 22.9726C47.5186 23.0622 47.4555 23.1762 47.4555 23.3337V24.3153C47.4555 24.6765 47.1744 24.9407 47.1744 25.3673C47.1744 25.6703 47.315 25.9441 47.315 26.2447C47.315 27.19 47.0968 28.0407 47.7755 28.8406C48.0978 29.2235 48.9292 29.4489 48.9292 29.9289C48.9292 30.496 48.6529 31.1383 48.2699 31.3371C48.2772 31.2232 48.2772 31.1311 48.2699 31.0608C48.4784 30.719 48.4856 30.5275 48.4856 30.1034C48.4856 29.7107 48.1778 29.3423 47.7609 29.3423C47.3004 29.3423 47.0968 29.6889 47.0968 30.1276C47.0968 30.3142 47.3877 31.1165 47.3877 31.2959C47.3877 31.4171 47.4289 31.514 47.4846 31.6182C47.744 32.0909 46.7066 32.8907 46.3382 33.0653C46.549 32.8592 46.7429 32.6072 46.7429 32.2848C46.7429 31.8921 47.0168 31.5383 47.0168 31.1286C47.0168 30.6827 46.9077 30.3821 47.058 29.9386C46.9611 29.6647 46.5854 28.6418 46.583 28.2734C46.5345 28.1353 46.4545 28.0116 46.3818 27.8856C46.2897 27.7111 46.3866 27.6214 46.4666 27.4469H45.7613C45.2014 28.6442 44.2052 29.5338 43.9507 30.879C43.8732 31.3007 43.878 31.7104 43.878 32.1369C43.878 32.4545 44.0889 32.709 44.0889 33.0144L44.0986 33.7076V34.0857C43.9992 34.0008 43.8901 33.8942 43.8417 33.8021C43.958 33.6373 43.9653 33.6033 44.0137 33.4482C44.3119 32.5296 42.8649 32.4472 42.9764 33.247C42.957 33.7051 43.0103 33.9378 43.1194 34.1317C43.3181 34.488 43.4151 34.3814 43.6308 34.7692C43.4757 35.2127 42.7679 35.7581 42.4383 35.8235L42.2856 35.8793L42.4334 35.5496L42.6225 35.2564C42.8261 34.9316 42.9448 34.6383 42.9448 34.2408C42.9448 33.201 42.8818 32.5878 42.6588 31.5746C42.6152 31.371 42.3825 31.1577 42.3825 31.0123C42.3825 30.6948 42.128 30.6608 41.9341 30.9008L41.8251 31.0511C41.682 31.2619 41.51 31.5625 41.3888 31.72C41.2336 31.9139 41.1658 32.1006 41.1125 32.2824L41.0397 32.5441C40.824 33.2785 40.0896 33.6058 40.0896 34.3474C40.0896 34.8419 39.7382 35.2418 39.7382 35.7508V37.1542C39.7382 37.6002 39.5176 37.8426 38.9432 37.8547C38.5529 37.9589 38.7105 37.3602 38.8123 37.2924C39.3988 37.2924 39.3528 36.1604 38.742 35.855L38.4172 35.8114C38.3663 35.8017 38.3105 35.7969 38.25 35.7969C37.8791 35.7969 37.4889 36.0635 37.4889 36.4877C37.4889 36.667 37.5713 36.8149 37.7822 37.0427C37.8694 37.13 37.9785 37.2293 37.9785 37.3651C37.9785 38.4679 36.3909 38.6618 35.5862 38.8169C34.7864 38.9696 34.1125 39.4544 33.3103 39.5877C33.1115 39.6192 32.9346 39.6604 32.7697 39.7065C31.8293 39.4713 30.8913 39.1175 29.98 38.7854L29.5703 38.6206C29.374 38.5188 29.1898 38.4606 29.0226 38.3879C28.0458 37.9589 28.3463 36.4658 27.8858 35.5351C27.3695 34.5026 26.4994 34.1705 25.8328 33.3319C25.765 33.247 25.7141 33.1622 25.6656 33.075L25.5299 32.8059C25.3651 32.486 25.2317 32.3551 24.9603 32.1345L24.8633 32.2969C24.7227 32.5296 24.7106 33.8748 24.7712 34.4347C24.8439 35.1424 25.302 35.7339 25.3287 36.4392L24.8439 36.2259C24.3349 35.9956 23.7629 35.7048 23.7629 35.0479C23.7629 34.5341 23.9738 34.0566 23.9738 33.5379C23.9738 32.166 22.5413 30.6342 21.55 29.7519C21.281 29.512 20.8374 29.1654 20.8374 29.1654V31.6086C20.8374 31.9745 20.9634 32.2921 21.1501 32.5975L21.3222 32.8592C21.5258 33.1622 21.7051 33.4288 21.7439 33.7827C21.281 33.4167 20.9053 32.961 20.4884 32.5466C20.2654 32.3236 19.9042 32.1054 19.9042 31.7516V30.6996C19.9042 30.0597 20.3963 29.6695 20.3963 28.9448C20.3963 27.8808 19.9042 26.9185 19.9042 25.8569C19.9042 25.423 19.8776 25.3285 19.6182 24.9722C18.5784 26.012 17.9604 26.8506 17.9604 28.3825C17.9604 28.5909 17.9507 28.7412 17.8973 28.8721L17.7931 28.746C17.575 28.477 17.4174 28.2371 17.3762 27.8735C17.3496 27.5923 17.3593 27.4178 17.3762 27.1294C17.4611 26.0896 18.6317 25.5515 19.0486 24.5868C19.2619 24.0827 19.2595 23.627 19.2571 23.0962C19.2571 22.6429 19.2716 22.2333 19.5286 21.7994L19.2983 21.5789C18.4451 22.1339 17.3568 22.912 16.7048 23.6803C16.5836 23.8257 16.5279 24.0124 16.4649 24.1845V23.5106C16.5303 23.3846 16.5788 23.2586 16.62 23.135L16.7412 22.7665C16.8212 22.5411 16.9133 22.3545 17.1072 22.1921C17.8246 21.591 18.7432 21.368 19.4316 20.7112C19.5916 20.5609 19.6619 20.4009 19.7152 20.2506L19.7879 20.0349C19.8121 19.9695 19.8412 19.9016 19.8824 19.8313C20.3842 18.983 20.7453 18.7939 21.0919 17.759C20.9198 17.7032 20.7598 17.7032 20.612 17.759C19.2619 18.4764 17.175 18.6606 16.3558 19.9889C16.3582 19.904 16.5206 19.618 16.5206 19.618L16.7315 19.2884C16.8212 19.1478 16.9399 18.983 17.0005 18.7867C17.1532 18.6194 17.3568 18.3237 17.5192 18.0765L17.7713 17.696C18.2124 17.8899 18.8281 17.9068 19.291 17.8438C20.5853 17.6669 20.898 17.2088 21.7439 16.4283C22.5704 15.6721 23.22 15.6188 23.5254 14.3172H23.3194C22.4129 14.3172 21.5524 14.4141 20.7404 14.6153L21.0143 14.4796C21.2082 14.3778 21.4046 14.2639 21.5936 14.1209C22.2529 13.6191 22.7231 12.6302 23.0261 11.7989C23.3315 10.9554 23.5375 9.95436 23.5375 9.95436C22.0105 10.4634 20.5684 10.7736 19.6691 12.2933C19.325 12.875 19.2886 13.5707 18.9274 14.1403L19.0535 13.5513C19.2837 12.8387 19.371 12.4121 19.4873 11.6728C19.5625 11.1687 19.4752 10.6548 19.4752 10.1483V9.90103C18.1688 10.4537 18.0791 11.1541 17.4877 12.3006C17.0345 13.1901 16.4867 13.7597 16.4867 14.831V16.0235C16.4867 16.4501 16.6927 16.6707 16.6927 17.0294C16.6927 17.3881 16.4479 17.8923 16.414 17.7978C16.3994 16.4283 15.3402 15.8999 15.3402 14.6177C15.3402 14.339 15.2409 14.2711 15.0324 14.5038C14.824 14.7365 14.3901 15.9387 14.315 16.1835C14.1405 16.7773 13.9562 17.1651 13.9562 17.8099C13.9562 18.3261 13.9732 18.6194 14.0265 19.126C14.0799 19.5914 14.2859 19.9719 14.5646 20.3331L14.8167 20.6457C15.1512 21.0553 15.4275 21.4238 15.4275 21.9837C15.4275 22.386 15.5778 22.8005 15.5099 23.198C15.1003 22.2503 14.3634 21.4989 13.6775 20.7475C13.4739 20.5245 13.263 20.287 13.0279 20.0979C12.8292 19.9355 12.6886 20.1149 12.6886 20.1925C12.6886 20.3767 12.7443 20.5148 12.7952 20.6312L12.8631 20.7911C13.0182 21.2226 12.9116 22.1339 12.9722 22.6357C13.1612 24.1045 13.5878 25.1419 14.7925 26.0459C14.8918 26.1187 14.9912 26.1744 15.0833 26.2205L15.3427 26.3416C16.0407 26.6761 16.1474 27.5172 16.3703 28.2807L16.1037 28.0771C15.7111 27.7765 15.2263 27.4105 14.8312 27.1754C14.3634 26.904 13.8884 26.6567 13.4279 26.3683L13.2897 26.2883L13.1346 26.2398H12.9698V26.8603C13.3091 27.5947 13.3382 28.4091 13.6872 29.1411C13.8035 29.3884 13.9732 29.5265 14.1477 29.638L14.4022 29.7931C14.5913 29.9119 14.7464 30.0549 14.8967 30.2221L15.1245 30.4839C15.2821 30.6584 15.4566 30.8305 15.728 30.9711C16.9642 31.6061 18.0985 31.8073 19.1262 32.835C19.2571 32.9659 19.6279 33.1501 19.6425 33.2543L19.3468 33.0386C19.245 32.9659 19.1286 32.8883 19.022 32.8471C18.4912 32.6387 17.6695 32.4617 16.9908 32.3357C16.3073 32.2097 15.476 32.0982 15.476 32.0982C15.7862 32.8738 16.1619 33.4918 16.7582 34.1317C17.5822 35.014 18.8862 35.9035 20.7841 35.9011C21.31 35.9011 22.5704 35.5933 22.9243 36.0732L23.0382 36.2356C23.2394 36.5095 23.5375 36.6864 23.8284 36.8512L24.0126 36.9603C23.8017 36.9336 23.5957 36.9045 23.38 36.9045C22.6213 36.9045 21.7294 37.2899 21.0458 37.6608C20.3551 38.034 19.5649 38.6133 19.5649 38.6133L19.8994 38.7006C21.2107 39.0423 22.0032 39.7574 23.4503 39.7574C24.1895 39.7574 24.6573 39.6749 25.3384 39.3938C25.7916 39.2072 26.1746 38.703 26.6788 38.703C27.5295 38.703 28.167 39.2944 28.9741 39.4713C29.1195 39.5295 30.455 40.0579 30.8428 40.1888L31.2185 40.31C29.82 41.0153 28.5402 41.4492 27.2362 42.4575V42.9131H27.401C28.1379 42.9131 28.802 43.2646 29.5413 43.2646C30.0769 43.2646 30.2369 42.8138 30.4817 42.4526C30.9422 41.7715 32.3262 41.2698 33.2569 40.9571C34.7888 41.471 36.3812 42.1181 37.2683 43.0464C37.4113 42.9543 39.1225 42.1472 39.3043 42.1472C39.5491 42.1472 39.6097 41.9073 39.4158 41.7521C38.9698 41.4007 36.9581 40.802 35.2614 40.3391L35.3899 40.31C36.1582 39.9416 36.6139 39.801 37.4453 39.5295C37.8088 39.498 38.136 39.3768 38.4172 39.132L38.7177 38.9672C38.9722 38.8945 39.2486 38.7878 39.5006 38.64L39.5976 38.6351C39.7769 38.686 39.823 38.9066 39.9466 39.0351C39.8981 39.4835 40.4217 40.1767 40.8798 40.1767C41.3379 40.1767 41.7451 39.8252 41.7451 39.3453C41.7451 38.8654 41.3718 38.7321 41.0058 38.6182L40.7586 38.5406C40.6083 38.4897 40.4459 38.4267 40.3368 38.3055L40.4944 38.1819C40.7077 38.0001 40.887 37.7917 41.1973 37.7917C41.4857 37.7917 41.6433 38.4291 41.8032 38.6376C42.3728 39.3792 43.1363 39.4011 43.9604 39.6192L44.8621 39.481C45.1166 39.5828 45.2935 39.6871 45.5819 39.6871C45.9116 39.6871 46.1055 39.4762 46.3527 39.4762C46.7793 39.4762 47.298 39.6604 47.7803 39.7016V39.2508C47.0653 38.4218 46.915 37.2512 45.8655 36.7106C45.0317 36.2792 44.2973 36.4004 43.4611 36.2841C43.4999 36.2695 43.5581 36.2356 43.6138 36.2016L44.0961 35.9035L44.4694 35.6902C44.7821 35.6902 44.8839 35.6369 45.2693 35.8647C45.4607 35.9932 45.6062 36.1483 45.7783 36.301C46.0109 36.4174 46.4181 36.6355 46.6823 36.4901C47.1114 36.2525 46.9102 35.792 46.7405 35.4309L46.5611 35.2588C46.5151 35.2176 46.4715 35.1788 46.3576 35.1061C46.3333 35.094 46.2945 35.0794 46.2461 35.0794C45.96 35.0794 45.9697 35.1643 45.7952 35.1643C45.7031 35.1643 45.7177 35.094 45.6425 35.031C45.7661 34.9364 45.8558 34.8467 46.1758 34.8467C47.0362 34.8467 47.3222 35.969 48.3499 35.969C48.6795 35.969 48.8904 35.7581 49.157 35.7581C49.4236 35.7581 49.6588 35.8987 49.9302 35.8987C50.6331 35.8987 51.1397 35.666 51.622 35.4236C52.245 35.1085 52.6134 34.9243 53.3235 34.8249V34.2893C53.0084 34.1657 52.9212 34.0639 52.7297 33.7875L52.6158 33.63C52.1941 33.0677 51.0161 32.6944 50.352 32.6944C49.6297 32.6944 49.1183 32.5902 48.4032 32.8447C48.0009 32.9853 47.71 33.5161 47.3925 33.5015C47.4628 33.4094 47.5549 33.3028 47.6494 33.1961C47.7949 33.0362 47.9645 32.8641 48.1003 32.6896L48.2045 32.6047C48.2772 32.532 48.5438 32.2921 48.7595 32.2581C48.8395 32.2097 48.9122 32.1563 49.0504 32.0739C49.0892 32.0691 49.1425 32.0691 49.2225 32.0691C49.5667 32.0691 49.8672 32.1975 50.2502 32.4981C50.6913 32.8447 51.2173 32.2484 51.2173 31.8776C51.2173 31.8776 51.3724 31.5601 51.1082 31.3128C50.9749 31.2401 50.7155 31.0826 50.5628 31.0826C50.2793 31.0826 50.1193 31.2547 49.9375 31.434L49.5909 31.3492C50.3302 30.0791 50.335 30.8523 50.987 30.8523C51.7432 30.8523 52.1359 30.4718 52.7491 30.13C52.8485 30.0767 52.9478 30.0404 53.0496 30.0088L53.3647 29.924C53.5829 29.861 53.8083 29.7689 53.9925 29.5241C54.167 29.2962 54.1985 29.0636 54.2203 28.8624C54.3343 27.8444 54.8772 28.1231 55.0711 27.4348C55.265 26.7876 55.0929 26.3974 55.4128 25.6921L55.2602 25.6242L55.1511 25.5757C55.0735 25.5466 54.9911 25.5394 54.9087 25.5321C54.6082 25.9223 54.3294 25.8569 53.8907 25.966C53.3138 26.109 53.0254 26.4289 52.5237 26.681C51.8159 27.03 51.4742 27.4105 50.9967 27.9874C50.8779 28.1328 50.764 28.4164 50.6234 28.5182L50.7592 28.288C50.8246 28.208 50.8391 28.1037 50.8658 27.9026C51.004 27.2845 51.0621 27.7935 51.1203 27.1536C51.1664 26.6519 51.1688 26.6519 51.4718 26.1356L51.6123 26.0581L51.7626 25.966C52.371 25.6751 52.0801 25.6775 52.7976 25.5321L53.1708 25.4836C53.389 25.4497 53.738 25.3576 53.6604 24.9795L53.6241 24.8413C53.6241 24.422 53.3284 24.2499 52.9721 24.2499C52.7152 24.2499 52.5431 24.3759 52.4219 24.5844L52.3395 24.7419C52.2377 24.9504 52.1795 25.0498 52.0026 25.0498C51.9832 25.0498 51.9468 25.0546 51.8087 25.1079L51.5372 25.2388C51.542 25.1055 51.576 24.4462 51.8038 24.0269C52.2813 23.1398 53.7913 23.1107 54.1573 21.9546L54.2397 21.688C54.2688 21.6031 54.3028 21.5207 54.3512 21.4383C54.6906 20.8614 55.2165 20.5391 55.2165 19.7756C55.2165 19.2981 55.0856 18.8351 55.1438 18.3577C55.2068 17.8244 55.425 17.3421 55.425 16.7943M23.1982 5.30067C23.5036 5.30067 23.7532 5.5479 23.7532 5.85572C23.7532 6.16354 23.506 6.41077 23.1982 6.41077C22.8904 6.41077 22.6431 6.16354 22.6431 5.85572C22.6431 5.5479 22.8904 5.30067 23.1982 5.30067ZM24.9991 6.35502C25.2511 6.16354 25.3675 5.95267 25.4135 5.75634C25.4208 5.8945 25.4838 6.01569 25.5783 6.10294C25.4353 6.37926 25.2245 6.65557 24.953 6.68223C24.7955 6.69677 24.6476 6.63376 24.5119 6.53923C24.7106 6.48833 24.9191 6.42046 24.9991 6.35502ZM26.1673 9.28296C26.2764 9.43566 26.24 9.70228 26.0098 9.87195C25.7771 10.0392 25.5129 9.99314 25.4014 9.84044C25.2923 9.68774 25.3287 9.42112 25.559 9.25388C25.7916 9.08421 26.0558 9.13269 26.1673 9.28296ZM26.32 6.59013C26.32 6.59013 26.4436 6.65557 26.6375 6.71132C26.4752 6.78161 26.3176 6.8519 26.1673 6.92704C26.2788 6.73556 26.32 6.59013 26.32 6.59013ZM33.2327 9.11815C36.9266 9.11815 39.9224 9.95436 39.9224 10.9845C39.9224 11.7552 38.2475 12.4169 35.8577 12.7029L33.1406 9.98102L30.4308 12.6811C28.1355 12.3854 26.5406 11.7383 26.5406 10.9845C26.5406 9.95436 29.5364 9.11815 33.2327 9.11815ZM27.4277 3.74217C27.4277 3.41738 27.6895 3.15561 28.0143 3.15561C28.3391 3.15561 28.6008 3.41738 28.6008 3.74217C28.6008 4.06696 28.3391 4.32873 28.0143 4.32873C27.6895 4.32873 27.4277 4.06696 27.4277 3.74217ZM28.9741 6.00115C28.8093 6.03508 28.6469 6.07386 28.4893 6.11022C28.6129 5.90904 28.6396 5.7418 28.6396 5.7418C28.6396 5.7418 28.7535 5.88723 28.9741 6.00115ZM30.0769 8.03713L29.3304 8.58976C29.3304 8.58976 29.2625 8.60915 29.248 8.6043L28.3633 8.32314C28.276 8.29648 28.2639 8.21892 28.3366 8.16317L29.0832 7.61055C29.0832 7.61055 29.151 7.59358 29.1656 7.59843L30.0527 7.87959C30.1399 7.90625 30.1521 7.98381 30.0793 8.03956M29.6503 4.85469C29.9121 4.83045 30.1351 4.6923 30.2757 4.49839C30.2781 4.55899 30.2926 4.622 30.3411 4.72138C30.1642 4.9274 29.9242 5.14312 29.6746 5.16978C29.3934 5.20129 29.1025 4.99042 28.8771 4.76501C29.1413 4.8256 29.4904 4.88862 29.6503 4.85469ZM31.0585 5.30794C31.0585 5.30794 31.2064 5.49942 31.4657 5.65212C31.187 5.67393 30.9107 5.70059 30.6392 5.7321C30.9228 5.52123 31.0585 5.30794 31.0585 5.30794ZM33.2036 7.15002C33.5526 7.15002 33.9041 7.3415 33.9041 7.64448C33.9041 7.94745 33.5526 8.13893 33.2036 8.13893C32.8546 8.13893 32.5031 7.94745 32.5031 7.64448C32.5031 7.3415 32.8546 7.15002 33.2036 7.15002ZM33.6157 5.58668H33.2206H32.8691C33.1309 5.39762 33.2715 5.16978 33.2715 5.16978C33.2715 5.16978 33.3757 5.3952 33.6157 5.58668ZM32.5371 2.39938C32.6195 2.06732 32.9564 1.86373 33.2884 1.94856C33.6205 2.03097 33.8241 2.36787 33.7417 2.70236C33.6593 3.03442 33.3224 3.23802 32.9903 3.15319C32.6583 3.07078 32.4547 2.73387 32.5371 2.39938ZM34.5343 4.27056C34.7354 4.30449 34.9293 4.26813 35.0942 4.17845C35.0772 4.20269 35.0602 4.23177 35.0481 4.26086C34.9972 4.37478 34.9924 4.49839 35.0215 4.60746C34.813 4.7432 34.5755 4.86438 34.3573 4.83772C33.9089 4.78198 33.7223 4.27783 33.6472 3.89487C33.8799 4.02575 34.3258 4.25844 34.5318 4.26813M35.402 5.37581C35.402 5.37581 35.5086 5.54547 35.7219 5.72241C35.5014 5.69817 35.2784 5.67636 35.053 5.65697C35.276 5.52608 35.402 5.37581 35.402 5.37581ZM36.3982 7.87716L37.2829 7.596C37.2974 7.59116 37.3531 7.60085 37.3653 7.60812L38.1118 8.16075C38.1845 8.21649 38.1724 8.29406 38.0851 8.32072L37.2004 8.60188C37.1859 8.60673 37.1302 8.59703 37.118 8.58734L36.3715 8.03471C36.2988 7.97896 36.3109 7.90383 36.3982 7.87474M37.8064 5.86299C37.8064 5.86299 37.8379 5.96479 37.9106 6.10052L37.4962 6.00599C37.6901 5.9357 37.8064 5.86299 37.8064 5.86299ZM38.422 3.15561C38.7468 3.15561 39.0086 3.41738 39.0086 3.74217C39.0086 4.06696 38.7468 4.32873 38.422 4.32873C38.0973 4.32873 37.8355 4.06696 37.8355 3.74217C37.8355 3.41738 38.0973 3.15561 38.422 3.15561ZM40.1308 6.64103C40.1308 6.64103 40.1841 6.76706 40.2762 6.92704C40.126 6.8519 39.9684 6.78161 39.806 6.71132C39.9999 6.67738 40.1308 6.64103 40.1308 6.64103ZM40.6859 9.15935C40.9307 9.3072 40.9913 9.56897 40.8943 9.73137C40.7974 9.89134 40.5356 9.96163 40.2908 9.81378C40.046 9.66593 39.9854 9.40415 40.0823 9.24176C40.1793 9.07937 40.4386 9.0115 40.6859 9.15693M41.0204 5.75634C41.0664 5.95267 41.1852 6.16354 41.4348 6.35502C41.5148 6.42046 41.7329 6.49075 41.9341 6.54165C41.7984 6.6483 41.6481 6.72101 41.4469 6.66527C41.1585 6.5877 41.0082 6.33805 40.8725 6.08598C40.9573 5.99872 41.0131 5.88238 41.0204 5.75392M34.2507 32.2702L33.1648 33.3246L32.079 32.2702L32.0693 13.0302L33.1333 11.9661L34.2531 13.0835L34.2483 32.2702H34.2507ZM43.2381 5.30067C43.5435 5.30067 43.7932 5.5479 43.7932 5.85572C43.7932 6.16354 43.5435 6.41077 43.2381 6.41077C42.9327 6.41077 42.6831 6.16354 42.6831 5.85572C42.6831 5.5479 42.9303 5.30067 43.2381 5.30067ZM36.9484 15.7787L39.1177 17.948V27.4469L36.9484 29.6162V15.7787ZM41.8154 20.6457L43.8683 22.6987L41.8154 24.7516V20.6481V20.6457ZM29.3837 29.6744L27.2144 27.5051V17.8874L29.3837 15.7181V29.6744ZM24.5191 24.8074L22.408 22.6963L24.5191 20.5851V24.8074ZM21.4482 5.57213C21.6227 5.57213 21.773 5.53578 21.9184 5.45579L22.0154 5.40489L22.1099 5.58425C22.1923 5.69817 22.3256 5.77331 22.4783 5.77816C22.4686 5.82421 22.4638 5.87268 22.4638 5.92358C22.4638 6.32836 22.791 6.65557 23.1933 6.66042C23.4042 6.95612 24.078 7.79475 24.9312 7.7487C24.8052 7.86262 24.6937 7.97896 24.5919 8.10015C24.1459 8.64066 24.6306 9.27812 25.159 9.28296L25.1954 9.4187C24.9482 9.66835 25.1905 10.1919 25.5396 10.1701C25.6099 10.2767 25.6826 10.3664 25.7553 10.4221C25.6147 10.6209 25.542 10.8293 25.542 11.0499C25.542 12.1237 27.3356 12.9623 29.82 13.3646L20.4738 22.7035L33.1406 35.3679L45.8049 22.7035L36.4927 13.3913C39.0595 13.0011 40.9307 12.1503 40.9307 11.0523C40.9307 10.8245 40.8507 10.6088 40.7004 10.4028C40.7465 10.347 40.7925 10.2695 40.8434 10.1677C41.1197 10.1119 41.2967 9.7241 41.1488 9.48414L41.253 9.2563C41.7911 9.266 42.2904 8.6043 41.8275 8.06137C41.7305 7.94745 41.619 7.83596 41.5003 7.72931C42.1062 7.73658 42.7194 7.38756 42.8818 6.81069C42.8964 6.76222 42.9133 6.68223 42.923 6.59013C43.02 6.63618 43.1291 6.66527 43.2454 6.66527C43.6526 6.66527 43.9822 6.33563 43.9822 5.92843C43.9822 5.87996 43.9774 5.83148 43.9677 5.783C44.118 5.78058 44.2537 5.70302 44.37 5.53335L44.4306 5.40974L44.5276 5.46064C44.6706 5.54062 44.8233 5.57698 44.9978 5.57698C45.5528 5.57698 46.0037 5.12615 46.0037 4.57111C46.0037 4.17845 45.7783 3.8367 45.4486 3.67188C44.976 3.26468 44.0065 3.72278 43.6284 4.04999C43.5096 3.85124 43.4781 3.75671 43.352 3.62098C43.18 3.47555 43.0054 3.35678 42.7631 3.35678C42.4019 3.35678 42.0383 3.52645 41.8905 3.83185L41.1003 5.09465C41.1003 5.09465 40.9937 5.29824 41.0034 5.57213C40.9355 5.36611 40.7416 5.21826 40.5138 5.21826C40.2496 5.21826 40.0314 5.41701 40.0024 5.67393C39.6848 5.79512 39.2364 5.90662 38.9601 5.72483C38.7274 5.57213 38.6329 5.22795 38.5941 4.92498C38.8002 5.10919 39.1371 5.38308 39.3164 5.43398C39.7673 5.61819 40.3223 5.3855 40.4774 4.92498L40.904 3.95546C41.2143 3.42465 40.904 2.82355 40.349 2.66843C40.2569 2.65146 40.1963 2.64661 40.1332 2.64419C40.1841 2.57875 40.2302 2.5133 40.2641 2.45513C40.4338 2.07217 40.5162 1.39351 39.6751 1.16325L38.5772 0.894207C38.4172 0.843307 37.8016 0.819069 37.5664 1.15113C37.3653 1.43714 37.4792 1.8613 37.5519 2.05036C37.3798 1.99703 37.2853 1.95098 37.1083 1.95583C36.609 1.9631 36.1073 2.16912 36.1291 2.77992L36.0419 3.85851C35.9886 4.33357 36.34 4.77713 36.832 4.82318C36.9969 4.85711 37.3556 4.79167 37.6246 4.72865C37.3944 4.988 37.1835 5.25946 36.8272 5.20372C36.4927 5.15282 36.1873 4.89832 36.0055 4.68745C36.1219 4.4281 36.0055 4.1227 35.7437 4.00636C35.6129 3.94819 35.4723 3.94819 35.3487 3.99667C35.4577 3.87548 35.5329 3.72035 35.5595 3.55069L35.7534 2.48664C35.9328 1.90251 35.5014 1.57287 35.0215 1.43714C34.8518 1.38866 34.7476 1.40805 34.5682 1.41532C34.687 1.25293 34.9075 0.872393 34.7863 0.542757C34.6458 0.159797 34.0447 0.0264881 33.8774 0.0337594L32.7455 0.00952148C31.8729 0.0143691 31.7784 0.690608 31.8414 1.10508C31.8584 1.17052 31.8875 1.24566 31.919 1.3208C31.856 1.30625 31.7978 1.29656 31.7033 1.28929C31.1264 1.29656 30.6707 1.79828 30.8331 2.38969L30.9955 3.43435C31.027 3.91668 31.4997 4.28752 31.9844 4.2245C32.1371 4.2245 32.428 4.10331 32.6655 3.99182C32.5758 4.30934 32.4595 4.63897 32.1323 4.7238C31.8536 4.79652 31.5724 4.59292 31.3155 4.41356C31.3106 4.36266 31.2961 4.31418 31.2743 4.26571C31.1579 4.00636 30.8525 3.89002 30.5932 4.00394C30.5374 4.02818 30.4914 4.06211 30.4502 4.10089C30.4599 4.03302 30.4599 3.96516 30.4502 3.89487L30.3629 2.81628C30.3847 2.20548 29.883 1.99703 29.3837 1.98976C29.2068 1.98976 29.1122 2.03339 28.9402 2.08671C29.0104 1.90008 29.1268 1.47592 28.9256 1.18749C28.6929 0.855426 28.0749 0.879664 27.9149 0.930564L26.8145 1.19961C25.9734 1.42987 26.0558 2.10853 26.2255 2.49391C26.2594 2.55208 26.3055 2.61753 26.3564 2.68297C26.2934 2.68539 26.2328 2.69024 26.1407 2.70721C25.5856 2.86233 25.2754 3.46585 25.5856 3.99667L26.0122 4.96376C26.1673 5.42186 26.7224 5.65697 27.1732 5.47276C27.3356 5.42671 27.6216 5.20129 27.8422 5.00496C27.8131 5.32006 27.7598 5.64727 27.4956 5.7927C27.1805 5.96479 26.7757 5.80482 26.4485 5.64727C26.4073 5.40489 26.1964 5.21826 25.9395 5.21826C25.7117 5.21826 25.5178 5.36611 25.4499 5.57213C25.4572 5.29824 25.3529 5.09465 25.3529 5.09465L24.5652 3.83185C24.4173 3.52887 24.0562 3.35678 23.6926 3.35678C23.4527 3.35678 23.2782 3.47555 23.1061 3.62098C22.98 3.75671 22.9461 3.85124 22.8298 4.04999C22.4516 3.7252 21.4821 3.26468 21.0095 3.67188C20.6823 3.8367 20.4544 4.17603 20.4544 4.57111C20.4544 5.12615 20.9053 5.57698 21.4603 5.57698" fill="#989898"/>
</g>
<defs>
<clipPath id="clip0_10586_2560">
<rect width="68.0966" height="70.7894" fill="white"/>
</clipPath>
</defs>
</svg>
